<svg width="508" height="506" viewBox="0 0 508 506" fill="none" xmlns="http://www.w3.org/2000/svg">
<path d="M167.433 376.241V270.667H355.284V375.317C355.284 376.354 354.727 377.31 353.826 377.822L261.593 430.245C260.707 430.749 259.62 430.747 258.736 430.24L168.881 378.741C167.985 378.227 167.433 377.273 167.433 376.241Z" fill="#84B7C4"/>
<path fill-rule="evenodd" clip-rule="evenodd" d="M222.03 270.667V409.202L168.881 378.741C167.985 378.227 167.433 377.273 167.433 376.241V270.667H222.03Z" fill="#6B9BAA"/>
<path fill-rule="evenodd" clip-rule="evenodd" d="M220.178 408.141V270.667H222.029V409.202L220.178 408.141Z" fill="#B0D2DD"/>
<path fill-rule="evenodd" clip-rule="evenodd" d="M300.686 269.75V408.286L353.835 377.824C354.731 377.311 355.283 376.357 355.283 375.324V269.75H300.686Z" fill="#6B9BAA"/>
<path fill-rule="evenodd" clip-rule="evenodd" d="M302.537 407.225V269.75H300.687V408.286L302.537 407.225Z" fill="#B0D2DD"/>
<path d="M110.211 277.322C110.993 277.902 115.758 288.814 118.043 294.197L119.394 300.482C115.037 297.505 105.906 290.69 104.242 287.243C102.578 283.795 102.641 275.572 102.881 271.891L110.211 277.322Z" fill="url(#paint0_linear_21_15821)"/>
<path d="M133.713 133.194C133.674 128.132 137.281 122.752 140.69 116.221C141.731 116.187 145.906 123.105 138.816 147.291L135.529 154.67C134.477 159.426 133.82 153.906 132.635 149.757C132.826 140.085 133.761 139.52 133.713 133.194Z" fill="url(#paint1_linear_21_15821)"/>
<path d="M159.005 121.236C160.631 120.428 167.544 116.995 177.918 116.378L177.918 116.378C176.943 117.669 174.14 121.379 164.139 127.556C162.593 127.921 155.108 128.413 151.323 127.37C150.477 127.952 151.417 126.685 151.687 125.879C154.259 122.249 157.378 122.044 159.005 121.236Z" fill="url(#paint2_linear_21_15821)"/>
<path fill-rule="evenodd" clip-rule="evenodd" d="M115.805 203.914C126.117 160.054 150.394 123.191 169.041 101.893L169.856 102.496C151.49 123.473 129.146 161.384 118.975 204.645C108.814 247.863 111.786 297.049 145.812 342.283L143.202 344.209C108.471 298.037 105.483 247.818 115.805 203.914Z" fill="url(#paint3_linear_21_15821)"/>
<path d="M159.152 109.268L155.304 89.8091L152.745 93.1971C147.588 101.706 150.647 107.747 149.517 114.961C148.613 120.733 150.696 125.061 151.808 125.717L155.707 119.547L159.152 109.268Z" fill="url(#paint4_linear_21_15821)"/>
<path fill-rule="evenodd" clip-rule="evenodd" d="M155.371 90.1464C154.375 98.843 153.302 109.306 154.03 112.014C154.692 114.479 153.552 120.087 152.2 125.098L151.808 125.717C150.696 125.061 148.613 120.733 149.517 114.961C149.898 112.526 149.803 110.225 149.707 107.917C149.518 103.388 149.329 98.8339 152.745 93.1971L155.304 89.8091L155.371 90.1464Z" fill="url(#paint5_linear_21_15821)"/>
<path d="M130.522 219.151C131.626 217.151 135.169 204.477 136.803 198.39L134.851 198.957C123.268 209.246 122.423 217.428 119.99 223.676C117.556 229.925 108.739 239.244 113.537 237.264C118.336 235.284 129.142 221.651 130.522 219.151Z" fill="url(#paint6_linear_21_15821)"/>
<path fill-rule="evenodd" clip-rule="evenodd" d="M136.573 199.243C132.519 205.601 126.826 215.044 124.624 220.568C122.564 225.737 117.767 232.56 113.874 237.111C113.759 237.168 113.647 237.219 113.537 237.264C110.752 238.414 112.555 235.756 115.033 232.101C116.825 229.46 118.969 226.298 119.99 223.676C120.43 222.547 120.817 221.355 121.226 220.098C123.079 214.401 125.361 207.387 134.851 198.957L136.803 198.39C136.73 198.662 136.653 198.947 136.573 199.243Z" fill="url(#paint7_linear_21_15821)"/>
<path d="M122.207 172.98C121.258 168.855 117.839 161.272 116.248 157.997C114.057 162.915 115.281 165.332 113.377 172.225C111.854 177.739 116.989 187.063 119.747 191.036C120.962 186.736 123.156 177.105 122.207 172.98Z" fill="url(#paint8_linear_21_15821)"/>
<path fill-rule="evenodd" clip-rule="evenodd" d="M122.108 172.566C122.144 172.708 122.178 172.846 122.209 172.98C123.157 177.105 120.964 186.736 119.749 191.036C118.772 189.628 117.497 187.55 116.325 185.207C117.544 180.354 120.038 175.72 122.108 172.566Z" fill="url(#paint9_linear_21_15821)"/>
<path d="M131.8 133.035C131.536 130.424 128.399 124.644 126.863 122.08C125.459 127.079 122.035 132.845 121.679 141.389C121.532 144.921 127.042 157.273 130.209 163.058L131.303 159.591C129.177 150.97 132.129 136.299 131.8 133.035Z" fill="url(#paint10_linear_21_15821)"/>
<path d="M145.339 158.164C150.673 154.869 154.005 146.467 155.003 142.678C145.694 148.613 142.681 146.884 135.126 156.887L132.529 163.015C134.577 162.771 140.005 161.459 145.339 158.164Z" fill="url(#paint11_linear_21_15821)"/>
<path d="M111.286 225.783C108.052 215.535 96.3334 208.245 90.8792 206.384C97.3711 225.034 101.557 220.838 105.592 226.596C108.82 231.202 111.608 233.318 112.11 233.438L111.286 225.783Z" fill="url(#paint12_linear_21_15821)"/>
<path d="M107.436 204.309C106.327 202.279 97.1125 190.956 92.644 185.548C94.8162 198.481 97.1874 207.786 100.57 212.054C103.275 215.468 108.901 226.363 111.375 231.383C111.618 230.389 112.111 227.852 112.141 225.66C112.178 222.92 108.822 206.846 107.436 204.309Z" fill="url(#paint13_linear_21_15821)"/>
<path d="M130.473 245.786C124.426 251.371 118.857 262.174 116.829 266.878L116.271 277.033C119.982 272.905 127.712 263.77 128.945 260.255C130.177 256.739 130.477 249.144 130.473 245.786Z" fill="url(#paint14_linear_21_15821)"/>
<path d="M107.522 241.864C107.096 239.737 102.97 234.885 100.96 232.725C99.9065 236.138 98.2814 244.68 100.21 251.544C102.139 258.409 108.513 264.658 111.458 266.924C112.041 266.265 112.879 264.505 111.575 262.733C109.945 260.519 108.054 244.523 107.522 241.864Z" fill="url(#paint15_linear_21_15821)"/>
<path fill-rule="evenodd" clip-rule="evenodd" d="M111.011 266.57C105.836 256.863 102.409 241.874 100.888 232.963C100.912 232.881 100.936 232.802 100.96 232.725C102.97 234.885 107.096 239.737 107.522 241.864C107.655 242.529 107.873 244.027 108.15 245.936C108.983 251.66 110.353 261.072 111.575 262.733C112.879 264.505 112.041 266.265 111.458 266.924C111.317 266.815 111.167 266.697 111.011 266.57Z" fill="url(#paint16_linear_21_15821)"/>
<path d="M107.15 302.23C109.07 301.84 116.467 302.675 119.926 303.141L120.412 301.488C119.137 300.711 115.624 298.544 111.78 296.099C107.937 293.653 101.039 296.192 98.0713 297.768C100.297 299.417 105.23 302.619 107.15 302.23Z" fill="url(#paint17_linear_21_15821)"/>
<path d="M176.451 81.3211C178.206 78.9979 188.732 75.826 193.775 74.5305L189.111 86.4236C187.892 88.0369 184.439 91.8692 180.373 94.2919C176.308 96.7146 170.631 101.248 169.033 103.251L168.055 102.527C169.063 94.4667 174.258 84.2251 176.451 81.3211Z" fill="url(#paint18_linear_21_15821)"/>
<path fill-rule="evenodd" clip-rule="evenodd" d="M169.193 102.365C171.847 96.3579 185.21 82.4415 193.265 74.663C193.44 74.6169 193.61 74.5728 193.774 74.5306L189.11 86.4236C187.891 88.037 184.438 91.8693 180.372 94.2919C176.307 96.7146 170.671 101.53 169.073 103.533L169.193 102.365Z" fill="url(#paint19_linear_21_15821)"/>
<g filter="url(#filter0_d_21_15821)">
<path d="M161.466 112.743C162.181 112.066 168.953 105.71 180.863 104.218C180.242 106.609 176.35 112.6 173.36 116.02C170.369 119.441 158.726 123.21 152.326 124.843C156.253 119.533 160.751 113.421 161.466 112.743Z" fill="url(#paint20_linear_21_15821)"/>
<path fill-rule="evenodd" clip-rule="evenodd" d="M180.711 104.699C180.774 104.526 180.824 104.365 180.863 104.217C168.953 105.71 162.181 112.065 161.466 112.743C160.809 113.366 156.965 118.567 153.301 123.525C152.974 123.967 152.648 124.408 152.326 124.843C152.809 124.72 153.321 124.585 153.857 124.439C162.264 119.309 174.018 110.162 180.711 104.699Z" fill="url(#paint21_linear_21_15821)"/>
</g>
<path fill-rule="evenodd" clip-rule="evenodd" d="M140.559 116.472C140.692 117.577 140.77 118.887 140.695 120.249C140.496 123.876 136.056 153.298 134.676 155.798C134.585 155.963 134.496 156.099 134.408 156.208C134.078 155.627 133.753 154.26 133.384 152.709C133.155 151.747 132.909 150.715 132.635 149.757C132.735 144.706 133.038 142.139 133.298 139.938C133.535 137.924 133.737 136.216 133.714 133.194C134.125 128.134 136.111 124.554 138.608 120.056C139.232 118.931 139.888 117.749 140.559 116.472Z" fill="url(#paint22_linear_21_15821)"/>
<path fill-rule="evenodd" clip-rule="evenodd" d="M130.564 161.935C128.057 156.858 126.182 149.903 126.559 140.979C126.972 131.209 126.888 125.728 126.636 122.844C126.716 122.587 126.792 122.333 126.863 122.08C128.399 124.644 131.536 130.424 131.8 133.035C131.905 134.079 131.675 136.292 131.382 139.1C130.76 145.068 129.857 153.729 131.303 159.591L130.564 161.935Z" fill="url(#paint23_linear_21_15821)"/>
<path fill-rule="evenodd" clip-rule="evenodd" d="M154.94 142.719C151.911 144.644 149.551 145.757 147.481 146.734C143.224 148.743 140.199 150.17 135.126 156.886L132.529 163.014C132.624 163.003 132.726 162.989 132.834 162.973C141.005 158.243 150.461 148.141 154.94 142.719Z" fill="url(#paint24_linear_21_15821)"/>
<g filter="url(#filter1_d_21_15821)">
<path d="M128.878 168.864C129.692 169.131 129.67 168.876 132.012 169.424C140.525 171.418 151.647 164.418 156.206 157.91L147.864 157.517C135.17 157.371 130.012 164.671 128.878 168.864Z" fill="url(#paint25_linear_21_15821)"/>
<path fill-rule="evenodd" clip-rule="evenodd" d="M155.998 158.201C156.069 158.104 156.138 158.007 156.206 157.91L147.864 157.517C135.17 157.372 130.012 164.671 128.878 168.864C128.908 168.874 128.938 168.883 128.966 168.891C134.553 164.684 148.54 160.221 155.998 158.201Z" fill="url(#paint26_linear_21_15821)"/>
</g>
<g filter="url(#filter2_d_21_15821)">
<path d="M115.376 175.97C114.071 174.199 104.675 164.687 100.14 160.152C99.6756 179.938 108.512 185.73 110.306 189.073C114.584 194.508 117.642 199.205 118.741 200.104L119.265 195.711C118.512 189.869 116.68 177.742 115.376 175.97Z" fill="url(#paint27_linear_21_15821)"/>
<path fill-rule="evenodd" clip-rule="evenodd" d="M100.135 160.46C99.8408 176.195 105.46 182.987 108.592 186.772C109.349 187.687 109.961 188.426 110.308 189.074C112.259 191.552 113.956 193.876 115.329 195.757C116.722 197.667 117.783 199.119 118.437 199.812C117.683 190.219 106.808 171.004 100.135 160.46Z" fill="url(#paint28_linear_21_15821)"/>
</g>
<path fill-rule="evenodd" clip-rule="evenodd" d="M112.028 227.511C107.906 217.514 98.5581 197.757 92.6995 185.611C97.1874 191.043 106.334 202.285 107.438 204.307C108.825 206.844 112.181 222.918 112.143 225.659C112.135 226.263 112.092 226.894 112.028 227.511Z" fill="url(#paint29_linear_21_15821)"/>
<g filter="url(#filter3_d_21_15821)">
<path d="M113.561 221.426C114.136 212.592 118.75 205.811 120.985 203.525L121.276 208.522C125.263 221.541 117.209 232.516 112.684 236.377C112.737 235.074 112.986 230.26 113.561 221.426Z" fill="url(#paint30_linear_21_15821)"/>
<path fill-rule="evenodd" clip-rule="evenodd" d="M120.928 203.584C118.567 208.2 116.397 216.703 115.933 231.74C114.767 233.471 113.754 234.955 112.875 236.213C112.811 236.269 112.747 236.324 112.685 236.377C112.737 235.074 112.987 230.26 113.562 221.426C114.132 212.667 118.673 205.926 120.928 203.584Z" fill="url(#paint31_linear_21_15821)"/>
</g>
<path fill-rule="evenodd" clip-rule="evenodd" d="M111.897 233.341C108.989 224.631 97.4064 212.499 90.9504 206.578C95.3335 219.093 98.6635 221.194 101.609 223.052C103 223.93 104.305 224.753 105.594 226.594C108.501 230.742 111.052 232.87 111.897 233.341Z" fill="url(#paint32_linear_21_15821)"/>
<path d="M169.033 102.244C163.209 108.497 147.931 127.624 136.339 150.236C128.019 166.466 124.224 172.461 116.062 203.653C114.131 211.03 110.382 229.942 110.825 246.576C110.173 257.08 111.946 284.848 124.25 311.88C127.758 319.68 136.503 336.962 143.411 343.691" stroke="#FADA81" stroke-width="0.844684"/>
<g filter="url(#filter4_d_21_15821)">
<path d="M114.936 248.867C117.126 243.696 117.298 239.798 117.975 238.789C121.934 249.02 122.8 258.972 123.088 260.946C123.317 262.526 117.907 271.954 115.173 276.47L111.936 258.22C113.19 251.851 112.339 254.995 114.936 248.867Z" fill="url(#paint33_linear_21_15821)"/>
<path fill-rule="evenodd" clip-rule="evenodd" d="M118.383 239.871C118.251 239.511 118.115 239.15 117.975 238.789C117.706 239.19 117.517 240.045 117.25 241.255C116.844 243.093 116.257 245.749 114.936 248.867C113.625 251.962 113.193 252.692 112.925 253.476C112.662 254.246 112.557 255.067 111.936 258.22L115.097 276.039C118.534 268.081 118.773 249.964 118.383 239.871Z" fill="url(#paint34_linear_21_15821)"/>
</g>
<g filter="url(#filter5_d_21_15821)">
<path d="M100.173 251.263C97.3686 247.172 90.5904 245.001 87.5518 244.427C86.5769 245.718 91.1726 255.33 93.5923 259.974C94.5966 260.551 97.4766 262.299 100.962 264.68C104.448 267.062 109.713 267.222 111.91 267.004C109.166 263.462 102.977 255.353 100.173 251.263Z" fill="url(#paint35_linear_21_15821)"/>
<path fill-rule="evenodd" clip-rule="evenodd" d="M110.387 267.075C110.981 267.073 111.499 267.045 111.91 267.004C109.166 263.462 102.977 255.353 100.173 251.263C97.3686 247.172 90.5904 245.001 87.5518 244.427C87.525 244.463 87.5025 244.504 87.4839 244.552C89.8088 249.035 96.224 256.906 110.387 267.075Z" fill="url(#paint36_linear_21_15821)"/>
</g>
<g filter="url(#filter6_d_21_15821)">
<path d="M115.393 289.97C111.582 287.75 100.159 287.154 94.9244 287.133C101.731 296.958 102.826 294.498 108.161 298.199C112.428 301.16 117.235 298.967 119.105 297.501C119.455 295.915 119.204 292.19 115.393 289.97Z" fill="url(#paint37_linear_21_15821)"/>
<path fill-rule="evenodd" clip-rule="evenodd" d="M119.18 297.038C108.455 290.429 99.6587 287.885 94.9781 287.211C99.6737 293.974 101.64 294.861 104.187 296.011C105.306 296.516 106.537 297.072 108.16 298.198C108.517 298.446 108.878 298.658 109.24 298.837C110.107 299.101 110.96 299.357 111.793 299.602C114.888 299.989 117.757 298.556 119.104 297.5C119.135 297.362 119.161 297.207 119.18 297.038Z" fill="url(#paint38_linear_21_15821)"/>
</g>
<path d="M410.396 278.277C409.614 278.856 404.849 289.768 402.564 295.152L401.214 301.436C405.571 298.459 414.701 291.644 416.365 288.197C418.029 284.749 417.966 276.526 417.726 272.845L410.396 278.277Z" fill="url(#paint39_linear_21_15821)"/>
<path d="M386.895 134.148C386.933 129.087 383.327 123.707 379.918 117.175C378.876 117.141 374.701 124.059 381.792 148.245L385.078 155.624C386.13 160.38 386.788 154.86 387.973 150.711C387.781 141.04 386.846 140.474 386.895 134.148Z" fill="url(#paint40_linear_21_15821)"/>
<path d="M361.602 122.19C359.976 121.382 353.063 117.949 342.689 117.332L342.689 117.332C343.664 118.623 346.467 122.333 356.468 128.511C358.014 128.875 365.499 129.368 369.284 128.325C370.13 128.906 369.19 127.639 368.92 126.833C366.348 123.203 363.229 122.998 361.602 122.19Z" fill="url(#paint41_linear_21_15821)"/>
<path fill-rule="evenodd" clip-rule="evenodd" d="M404.802 204.87C394.491 161.01 370.213 124.147 351.566 102.848L350.751 103.452C369.117 124.429 391.461 162.339 401.632 205.601C411.793 248.819 408.821 298.004 374.795 343.239L377.405 345.165C412.136 298.992 415.124 248.773 404.802 204.87Z" fill="url(#paint42_linear_21_15821)"/>
<path d="M361.455 110.222L365.303 90.7634L367.862 94.1514C373.019 102.66 369.96 108.701 371.09 115.916C371.995 121.687 369.912 126.015 368.799 126.672L364.901 120.502L361.455 110.222Z" fill="url(#paint43_linear_21_15821)"/>
<path fill-rule="evenodd" clip-rule="evenodd" d="M365.236 91.1016C366.232 99.798 367.305 110.26 366.577 112.969C365.915 115.433 367.055 121.041 368.407 126.052L368.799 126.672C369.912 126.015 371.995 121.687 371.09 115.916C370.709 113.48 370.805 111.179 370.901 108.871C371.089 104.342 371.278 99.7883 367.862 94.1514L365.303 90.7634L365.236 91.1016Z" fill="url(#paint44_linear_21_15821)"/>
<path d="M390.084 220.105C388.98 218.105 385.437 205.431 383.803 199.345L385.755 199.911C397.338 210.201 398.183 218.382 400.616 224.631C403.05 230.88 411.867 240.199 407.069 238.218C402.27 236.238 391.464 222.605 390.084 220.105Z" fill="url(#paint45_linear_21_15821)"/>
<path fill-rule="evenodd" clip-rule="evenodd" d="M384.034 200.201C388.088 206.559 393.779 215.999 395.981 221.522C398.041 226.691 402.837 233.514 406.73 238.064C406.846 238.122 406.959 238.173 407.069 238.218C409.854 239.368 408.051 236.71 405.573 233.055C403.781 230.414 401.637 227.252 400.616 224.631C400.176 223.501 399.788 222.309 399.38 221.052C397.527 215.356 395.245 208.341 385.755 199.911L383.803 199.345C383.876 199.617 383.953 199.903 384.034 200.201Z" fill="url(#paint46_linear_21_15821)"/>
<path d="M398.399 173.935C399.348 169.81 402.767 162.228 404.358 158.952C406.549 163.871 405.325 166.287 407.229 173.18C408.752 178.695 403.617 188.018 400.859 191.991C399.644 187.691 397.45 178.06 398.399 173.935Z" fill="url(#paint47_linear_21_15821)"/>
<path fill-rule="evenodd" clip-rule="evenodd" d="M398.499 173.522C398.463 173.663 398.43 173.801 398.399 173.935C397.45 178.061 399.643 187.691 400.859 191.991C401.836 190.584 403.111 188.505 404.283 186.162C403.063 181.31 400.569 176.676 398.499 173.522Z" fill="url(#paint48_linear_21_15821)"/>
<path d="M388.807 133.989C389.07 131.378 392.207 125.598 393.743 123.035C395.147 128.033 398.571 133.8 398.927 142.343C399.074 145.875 393.564 158.227 390.397 164.012L389.303 160.545C391.429 151.924 388.477 137.253 388.807 133.989Z" fill="url(#paint49_linear_21_15821)"/>
<path d="M375.269 159.118C369.935 155.824 366.604 147.422 365.605 143.633C374.915 149.567 377.928 147.838 385.483 157.841L388.079 163.969C386.032 163.725 380.603 162.413 375.269 159.118Z" fill="url(#paint50_linear_21_15821)"/>
<path d="M409.319 226.737C412.554 216.489 424.273 209.199 429.727 207.339C423.235 225.988 419.049 221.792 415.014 227.55C411.786 232.156 408.998 234.272 408.496 234.392L409.319 226.737Z" fill="url(#paint51_linear_21_15821)"/>
<path d="M413.171 205.263C414.28 203.233 423.495 191.91 427.963 186.503C425.791 199.435 423.42 208.741 420.038 213.008C417.332 216.422 411.707 227.317 409.232 232.338C408.989 231.343 408.496 228.807 408.466 226.615C408.429 223.874 411.785 207.8 413.171 205.263Z" fill="url(#paint52_linear_21_15821)"/>
<path d="M390.133 246.741C396.18 252.325 401.749 263.128 403.777 267.832L404.335 277.987C400.624 273.859 392.894 264.724 391.661 261.209C390.429 257.694 390.129 250.099 390.133 246.741Z" fill="url(#paint53_linear_21_15821)"/>
<path d="M413.085 242.82C413.511 240.693 417.637 235.841 419.647 233.68C420.701 237.093 422.326 245.636 420.397 252.5C418.468 259.364 412.095 265.613 409.149 267.88C408.567 267.221 407.728 265.46 409.032 263.689C410.662 261.474 412.553 245.479 413.085 242.82Z" fill="url(#paint54_linear_21_15821)"/>
<path fill-rule="evenodd" clip-rule="evenodd" d="M409.597 267.525C414.771 257.818 418.198 242.83 419.719 233.919C419.695 233.837 419.671 233.757 419.647 233.68C417.637 235.841 413.511 240.693 413.085 242.82C412.952 243.485 412.734 244.983 412.457 246.891C411.624 252.615 410.255 262.028 409.032 263.689C407.728 265.46 408.567 267.221 409.149 267.88C409.291 267.771 409.44 267.652 409.597 267.525Z" fill="url(#paint55_linear_21_15821)"/>
<path d="M413.458 303.184C411.538 302.795 404.14 303.629 400.681 304.095L400.195 302.443C401.471 301.665 404.983 299.499 408.827 297.053C412.671 294.608 419.568 297.147 422.536 298.722C420.31 300.371 415.377 303.573 413.458 303.184Z" fill="url(#paint56_linear_21_15821)"/>
<path d="M344.154 82.2755C342.4 79.9523 331.874 76.7804 326.831 75.4849L331.495 87.378C332.714 88.9913 336.167 92.8236 340.233 95.2463C344.298 97.669 349.975 102.202 351.573 104.206L352.55 103.482C351.543 95.421 346.348 85.1795 344.154 82.2755Z" fill="url(#paint57_linear_21_15821)"/>
<path fill-rule="evenodd" clip-rule="evenodd" d="M351.413 103.319C348.759 97.3124 335.396 83.396 327.341 75.6174C327.166 75.5714 326.996 75.5272 326.832 75.4851L331.496 87.3781C332.715 88.9914 336.168 92.8237 340.234 95.2464C344.299 97.6691 349.935 102.485 351.533 104.488L351.413 103.319Z" fill="url(#paint58_linear_21_15821)"/>
<g filter="url(#filter7_d_21_15821)">
<path d="M359.142 113.698C358.426 113.02 351.655 106.664 339.745 105.172C340.366 107.564 344.258 113.554 347.248 116.975C350.238 120.395 361.882 124.165 368.281 125.798C364.355 120.487 359.857 114.376 359.142 113.698Z" fill="url(#paint59_linear_21_15821)"/>
<path fill-rule="evenodd" clip-rule="evenodd" d="M339.896 105.653C339.834 105.48 339.783 105.319 339.745 105.172C351.655 106.664 358.426 113.02 359.142 113.698C359.798 114.32 363.643 119.522 367.306 124.479C367.634 124.922 367.959 125.362 368.281 125.798C367.799 125.675 367.287 125.539 366.751 125.393C358.344 120.264 346.589 111.117 339.896 105.653Z" fill="url(#paint60_linear_21_15821)"/>
</g>
<path fill-rule="evenodd" clip-rule="evenodd" d="M380.05 117.429C379.917 118.534 379.84 119.843 379.914 121.205C380.113 124.832 384.553 154.254 385.933 156.754C386.024 156.918 386.113 157.053 386.2 157.162C386.53 156.581 386.855 155.214 387.224 153.663C387.453 152.702 387.699 151.67 387.973 150.711C387.872 145.661 387.57 143.094 387.31 140.892C387.073 138.878 386.871 137.171 386.894 134.148C386.483 129.088 384.496 125.509 382 121.01C381.377 119.886 380.721 118.705 380.05 117.429Z" fill="url(#paint61_linear_21_15821)"/>
<path fill-rule="evenodd" clip-rule="evenodd" d="M390.042 162.887C392.548 157.81 394.423 150.856 394.045 141.933C393.632 132.158 393.717 126.677 393.969 123.794C393.889 123.539 393.813 123.286 393.743 123.035C392.207 125.598 389.07 131.378 388.807 133.989C388.701 135.034 388.932 137.246 389.224 140.054C389.846 146.022 390.749 154.683 389.303 160.545L390.042 162.887Z" fill="url(#paint62_linear_21_15821)"/>
<path fill-rule="evenodd" clip-rule="evenodd" d="M365.673 143.676C368.7 145.6 371.06 146.714 373.129 147.69C377.387 149.699 380.412 151.126 385.485 157.842L388.081 163.97C387.988 163.959 387.888 163.946 387.781 163.93C379.611 159.203 370.155 149.1 365.673 143.676Z" fill="url(#paint63_linear_21_15821)"/>
<g filter="url(#filter8_d_21_15821)">
<path d="M391.734 169.816C390.92 170.084 390.942 169.828 388.601 170.376C380.087 172.37 368.965 165.37 364.406 158.863L372.748 158.47C385.442 158.324 390.6 165.624 391.734 169.816Z" fill="url(#paint64_linear_21_15821)"/>
<path fill-rule="evenodd" clip-rule="evenodd" d="M364.613 159.152C364.543 159.056 364.474 158.959 364.406 158.863L372.748 158.47C385.442 158.324 390.6 165.624 391.734 169.816C391.704 169.826 391.675 169.835 391.646 169.844C386.061 165.637 372.072 161.172 364.613 159.152Z" fill="url(#paint65_linear_21_15821)"/>
</g>
<g filter="url(#filter9_d_21_15821)">
<path d="M405.233 176.925C406.537 175.153 415.933 165.641 420.469 161.106C420.933 180.893 412.097 186.685 410.302 190.027C406.024 195.462 402.967 200.16 401.867 201.058L401.343 196.665C402.096 190.823 403.929 178.696 405.233 176.925Z" fill="url(#paint66_linear_21_15821)"/>
<path fill-rule="evenodd" clip-rule="evenodd" d="M420.473 161.416C420.767 177.149 415.148 183.94 412.017 187.725C411.26 188.64 410.648 189.379 410.301 190.026C408.35 192.504 406.653 194.829 405.28 196.71C403.887 198.618 402.827 200.07 402.173 200.763C402.93 191.169 413.802 171.959 420.473 161.416Z" fill="url(#paint67_linear_21_15821)"/>
</g>
<path fill-rule="evenodd" clip-rule="evenodd" d="M408.583 228.467C412.705 218.47 422.053 198.714 427.912 186.567C423.424 192 414.277 203.242 413.173 205.263C411.786 207.8 408.43 223.875 408.468 226.615C408.476 227.219 408.519 227.85 408.583 228.467Z" fill="url(#paint68_linear_21_15821)"/>
<g filter="url(#filter10_d_21_15821)">
<path d="M407.047 222.38C406.472 213.546 401.859 206.766 399.624 204.48L399.333 209.476C395.346 222.495 403.399 233.471 407.924 237.331C407.871 236.028 407.622 231.214 407.047 222.38Z" fill="url(#paint69_linear_21_15821)"/>
<path fill-rule="evenodd" clip-rule="evenodd" d="M399.679 204.539C402.04 209.154 404.211 217.658 404.675 232.694C405.841 234.426 406.854 235.91 407.733 237.167C407.797 237.224 407.86 237.278 407.923 237.332C407.87 236.029 407.621 231.215 407.046 222.381C406.476 213.621 401.935 206.88 399.679 204.539Z" fill="url(#paint70_linear_21_15821)"/>
</g>
<path fill-rule="evenodd" clip-rule="evenodd" d="M408.712 234.296C411.619 225.586 423.202 213.454 429.658 207.533C425.275 220.048 421.945 222.149 419 224.008C417.609 224.885 416.304 225.709 415.014 227.549C412.107 231.697 409.557 233.825 408.712 234.296Z" fill="url(#paint71_linear_21_15821)"/>
<path d="M351.575 103.198C357.399 109.451 372.676 128.578 384.268 151.191C392.588 167.42 396.383 173.415 404.546 204.608C406.476 211.984 410.226 230.896 409.782 247.53C410.434 258.035 408.661 285.802 396.358 312.834C392.849 320.634 384.105 337.916 377.196 344.646" stroke="#FADA81" stroke-width="0.844684"/>
<g filter="url(#filter11_d_21_15821)">
<path d="M405.672 249.822C403.481 244.651 403.31 240.752 402.633 239.744C398.674 249.975 397.807 259.927 397.52 261.901C397.29 263.48 402.701 272.908 405.435 277.425L408.671 259.174C407.418 252.806 408.269 255.95 405.672 249.822Z" fill="url(#paint72_linear_21_15821)"/>
<path fill-rule="evenodd" clip-rule="evenodd" d="M402.224 240.829C402.357 240.468 402.493 240.106 402.633 239.744C402.902 240.144 403.091 241 403.358 242.21C403.764 244.048 404.351 246.704 405.672 249.822C406.983 252.916 407.415 253.647 407.683 254.431C407.946 255.2 408.051 256.022 408.671 259.174L405.511 276.995C402.074 269.038 401.834 250.924 402.224 240.829Z" fill="url(#paint73_linear_21_15821)"/>
</g>
<g filter="url(#filter12_d_21_15821)">
<path d="M420.436 252.217C423.24 248.126 430.019 245.955 433.057 245.381C434.032 246.672 429.436 256.284 427.017 260.929C426.012 261.505 423.132 263.253 419.647 265.635C416.161 268.016 410.896 268.176 408.699 267.959C411.443 264.416 417.632 256.308 420.436 252.217Z" fill="url(#paint74_linear_21_15821)"/>
<path fill-rule="evenodd" clip-rule="evenodd" d="M410.222 268.029C409.628 268.027 409.11 267.999 408.699 267.959C411.443 264.416 417.632 256.308 420.436 252.217C423.24 248.126 430.018 245.955 433.057 245.381C433.084 245.417 433.106 245.459 433.125 245.506C430.8 249.989 424.385 257.86 410.222 268.029Z" fill="url(#paint75_linear_21_15821)"/>
</g>
<g filter="url(#filter13_d_21_15821)">
<path d="M405.213 290.924C409.024 288.704 420.447 288.108 425.682 288.088C418.875 297.912 417.78 295.452 412.445 299.153C408.178 302.114 403.371 299.921 401.502 298.455C401.151 296.87 401.402 293.144 405.213 290.924Z" fill="url(#paint76_linear_21_15821)"/>
<path fill-rule="evenodd" clip-rule="evenodd" d="M401.427 297.993C412.152 291.383 420.948 288.839 425.629 288.165C420.933 294.928 418.967 295.816 416.42 296.966C415.301 297.471 414.07 298.026 412.446 299.153C412.089 299.4 411.729 299.612 411.366 299.791C410.5 300.056 409.647 300.312 408.814 300.557C405.719 300.943 402.849 299.511 401.503 298.455C401.472 298.316 401.446 298.162 401.427 297.993Z" fill="url(#paint77_linear_21_15821)"/>
</g>
<path d="M320.679 246.052L507.216 342.11L470.111 405.762L292.851 293.791L320.679 246.052Z" fill="url(#paint78_linear_21_15821)"/>
<path d="M289.687 297.486L298.963 505.514H224.754L234.03 297.486H289.687Z" fill="url(#paint79_linear_21_15821)"/>
<path d="M229.594 294.451L52.3335 406.422L15.2289 342.77L201.766 246.712L229.594 294.451Z" fill="url(#paint80_linear_21_15821)"/>
<path d="M320.679 238.342L507.216 142.284L470.111 78.632L292.851 190.603L320.679 238.342Z" fill="url(#paint81_linear_21_15821)"/>
<path d="M229.594 189.943L52.3335 77.9719L15.2289 141.624L201.766 237.682L229.594 189.943Z" fill="url(#paint82_linear_21_15821)"/>
<g filter="url(#filter14_f_21_15821)">
<path fill-rule="evenodd" clip-rule="evenodd" d="M251.56 18.5126C124.581 18.5126 21.6439 120.465 21.6439 246.229C21.6439 371.994 124.581 473.946 251.56 473.946V477.458C122.623 477.458 18.0977 373.933 18.0977 246.229C18.0977 118.525 122.623 15.0002 251.56 15.0002V18.5126Z" fill="url(#paint83_linear_21_15821)"/>
</g>
<g filter="url(#filter15_f_21_15821)">
<path fill-rule="evenodd" clip-rule="evenodd" d="M252.995 18.5128C126.016 18.5128 27.3824 120.465 27.3824 246.229C27.3824 371.994 126.016 473.946 252.995 473.946V477.458C124.058 477.458 15.2292 373.934 15.2292 246.229C15.2292 118.525 124.058 15.0005 252.995 15.0005V18.5128Z" fill="url(#paint84_linear_21_15821)"/>
</g>
<g filter="url(#filter16_f_21_15821)">
<path fill-rule="evenodd" clip-rule="evenodd" d="M254.79 18.5123C381.769 18.5123 484.706 120.465 484.706 246.229C484.706 371.993 381.769 473.946 254.79 473.946V477.458C383.728 477.458 488.252 373.933 488.252 246.229C488.252 118.525 383.728 15 254.79 15V18.5123Z" fill="url(#paint85_linear_21_15821)"/>
</g>
<g filter="url(#filter17_f_21_15821)">
<path fill-rule="evenodd" clip-rule="evenodd" d="M253.355 18.5131C380.334 18.5131 478.968 120.465 478.968 246.23C478.968 371.994 380.334 473.946 253.355 473.946V477.459C382.293 477.459 491.121 373.934 491.121 246.23C491.121 118.525 382.293 15.0007 253.355 15.0007V18.5131Z" fill="url(#paint86_linear_21_15821)"/>
</g>
<g filter="url(#filter18_f_21_15821)">
<ellipse cx="127.526" cy="84.2374" rx="6.57488" ry="6.51197" fill="#FFD59B"/>
</g>
<g filter="url(#filter19_f_21_15821)">
<ellipse cx="165.661" cy="130.864" rx="2.19163" ry="2.17066" fill="#FFD59B"/>
</g>
<g opacity="0.38" filter="url(#filter20_f_21_15821)">
<ellipse cx="377.197" cy="72.6079" rx="2.19163" ry="2.17066" fill="#FFD59B"/>
</g>
<g filter="url(#filter21_f_21_15821)">
<ellipse cx="332.962" cy="128.103" rx="2.19163" ry="2.17066" fill="#FFD59B"/>
</g>
<g filter="url(#filter22_f_21_15821)">
<ellipse cx="161.204" cy="82.1204" rx="1.47449" ry="1.46038" fill="#FFD59B"/>
</g>
<g filter="url(#filter23_f_21_15821)">
<ellipse cx="198.803" cy="101.837" rx="5.16071" ry="5.11133" fill="#FDD39A"/>
</g>
<g filter="url(#filter24_f_21_15821)">
<ellipse cx="346.836" cy="143.888" rx="5.11379" ry="5.06486" fill="#FFD59B"/>
</g>
<g filter="url(#filter25_f_21_15821)">
<ellipse cx="224.836" cy="422.456" rx="5.84434" ry="5.78842" fill="#AACCFF"/>
</g>
<g filter="url(#filter26_d_21_15821)">
<path d="M355.682 240.453L355.682 201.053L449.607 201.053C449.607 225.678 432.03 240.453 417.749 240.453L355.682 240.453Z" fill="url(#paint87_linear_21_15821)"/>
<path d="M355.682 240.453L355.682 201.053L449.607 201.053C449.607 225.678 432.03 240.453 417.749 240.453L355.682 240.453Z" stroke="url(#paint88_linear_21_15821)" stroke-width="2.29412"/>
<path d="M322.531 275.475L322.531 236.075L416.457 236.075C416.457 260.7 398.88 275.475 384.599 275.475L322.531 275.475Z" fill="url(#paint89_linear_21_15821)"/>
<path d="M322.531 275.475L322.531 236.075L416.457 236.075C416.457 260.7 398.88 275.475 384.599 275.475L322.531 275.475Z" stroke="url(#paint90_linear_21_15821)" stroke-width="2.29412"/>
<path d="M145.759 240.453L145.759 201.053L51.8338 201.053C51.8338 225.678 69.4105 240.453 83.6916 240.453L145.759 240.453Z" fill="url(#paint91_linear_21_15821)"/>
<path d="M145.759 240.453L145.759 201.053L51.8338 201.053C51.8338 225.678 69.4105 240.453 83.6916 240.453L145.759 240.453Z" stroke="url(#paint92_linear_21_15821)" stroke-width="2.29412"/>
<path d="M178.909 275.475L178.909 236.075L84.984 236.075C84.984 260.7 102.561 275.475 116.842 275.475L178.909 275.475Z" fill="url(#paint93_linear_21_15821)"/>
<path d="M178.909 275.475L178.909 236.075L84.984 236.075C84.984 260.7 102.561 275.475 116.842 275.475L178.909 275.475Z" stroke="url(#paint94_linear_21_15821)" stroke-width="2.29412"/>
<path d="M252.813 112.848L149.395 168.568C143.891 171.534 140.459 177.281 140.459 183.534L140.459 310.651C140.459 316.903 143.891 322.651 149.395 325.617L252.813 381.336C257.846 384.048 263.906 384.048 268.939 381.336L372.357 325.617C377.861 322.651 381.293 316.903 381.293 310.651L381.293 183.534C381.293 177.281 377.861 171.534 372.357 168.568L268.939 112.848C263.906 110.136 257.846 110.136 252.813 112.848Z" fill="url(#paint95_linear_21_15821)"/>
<path d="M252.698 133.823L167.665 179.637C162.181 182.592 158.762 188.318 158.762 194.547L158.762 299.156C158.762 305.385 162.181 311.111 167.665 314.065L252.698 359.88C257.713 362.582 263.75 362.582 268.765 359.88L353.798 314.065C359.282 311.111 362.701 305.385 362.701 299.156L362.701 194.547C362.701 188.318 359.282 182.592 353.798 179.637L268.765 133.823C263.75 131.121 257.713 131.121 252.698 133.823Z" fill="url(#paint96_linear_21_15821)"/>
<g filter="url(#filter27_f_21_15821)">
<path d="M252.698 133.823L167.665 179.637C162.181 182.592 158.762 188.318 158.762 194.547L158.762 299.156C158.762 305.385 162.181 311.111 167.665 314.065L252.698 359.88C257.713 362.582 263.75 362.582 268.765 359.88L353.798 314.065C359.282 311.111 362.701 305.385 362.701 299.156L362.701 194.547C362.701 188.318 359.282 182.592 353.798 179.637L268.765 133.823C263.75 131.121 257.713 131.121 252.698 133.823Z" stroke="url(#paint97_linear_21_15821)"/>
</g>
<g opacity="0.5">
<mask id="mask0_21_15821" style="mask-type:alpha" maskUnits="userSpaceOnUse" x="167" y="141" width="189" height="212">
<path d="M253.722 143.146L175.906 185.034C170.687 187.844 167.432 193.292 167.432 199.219L167.432 294.855C167.432 300.783 170.687 306.231 175.906 309.041L253.722 350.929C258.489 353.495 264.226 353.495 268.994 350.929L346.809 309.041C352.028 306.231 355.283 300.783 355.283 294.855L355.283 199.219C355.283 193.292 352.028 187.844 346.809 185.034L268.994 143.146C264.226 140.58 258.489 140.58 253.722 143.146Z" fill="#A6D3DE"/>
</mask>
<g mask="url(#mask0_21_15821)">
<path d="M253.722 143.146L175.906 185.034C170.687 187.844 167.432 193.292 167.432 199.219L167.432 294.855C167.432 300.783 170.687 306.231 175.906 309.041L253.722 350.929C258.489 353.495 264.226 353.495 268.994 350.929L346.809 309.041C352.028 306.231 355.283 300.783 355.283 294.855L355.283 199.219C355.283 193.292 352.028 187.844 346.809 185.034L268.994 143.146C264.226 140.58 258.489 140.58 253.722 143.146Z" fill="url(#paint98_radial_21_15821)"/>
<path opacity="0.5" d="M245.656 359.306L241.925 134.759H280.791L277.059 359.306H245.656Z" fill="url(#paint99_linear_21_15821)"/>
<path opacity="0.5" d="M245.156 357.314L128.567 164.698L162.225 145.451L272.352 341.763L245.156 357.314Z" fill="url(#paint100_linear_21_15821)"/>
<path opacity="0.5" d="M241.917 341.763L352.044 145.451L385.703 164.698L269.113 357.314L241.917 341.763Z" fill="url(#paint101_linear_21_15821)"/>
<rect x="167.432" y="234.201" width="187.851" height="120.828" fill="url(#paint102_linear_21_15821)"/>
<g filter="url(#filter28_i_21_15821)">
<path d="M253.722 143.146L175.906 185.034C170.687 187.844 167.432 193.292 167.432 199.219L167.432 294.855C167.432 300.783 170.687 306.231 175.906 309.041L253.722 350.929C258.489 353.495 264.226 353.495 268.994 350.929L346.809 309.041C352.028 306.231 355.283 300.783 355.283 294.855L355.283 199.219C355.283 193.292 352.028 187.844 346.809 185.034L268.994 143.146C264.226 140.58 258.489 140.58 253.722 143.146Z" fill="#AFF5F1" fill-opacity="0.03"/>
</g>
</g>
</g>
<g filter="url(#filter29_i_21_15821)">
<path d="M209.868 231.013C209.868 232.733 209.395 234.281 208.449 235.657C207.532 237.033 206.184 238.137 204.407 238.968C202.63 239.799 200.494 240.244 198 240.301V243.741H195.334V240.215C192.009 239.9 189.314 238.896 187.25 237.205C185.186 235.514 184.054 233.192 183.853 230.239H194.001C194.087 231.414 194.531 232.217 195.334 232.647V228.433C192.84 227.745 190.862 227.114 189.4 226.541C187.967 225.968 186.662 225.022 185.487 223.703C184.34 222.384 183.767 220.593 183.767 218.328C183.767 216.465 184.283 214.859 185.315 213.512C186.347 212.136 187.737 211.075 189.486 210.33C191.235 209.585 193.184 209.169 195.334 209.083V205.6H198V209.083C201.411 209.312 204.106 210.273 206.084 211.964C208.062 213.627 209.151 215.934 209.352 218.887H199.075C198.96 217.798 198.602 217.067 198 216.694V220.865C199.003 221.152 199.476 221.295 199.419 221.295C201.569 221.954 203.332 222.614 204.708 223.273C206.113 223.904 207.317 224.85 208.32 226.111C209.352 227.372 209.868 229.006 209.868 231.013ZM194.001 217.898C194.001 218.643 194.445 219.274 195.334 219.79V216.35C194.445 216.522 194.001 217.038 194.001 217.898ZM198 233.034C199.118 232.805 199.677 232.203 199.677 231.228C199.677 230.483 199.118 229.852 198 229.336V233.034ZM211.074 217.511V208.567H225.651V240H215.632V217.511H211.074ZM228.764 223.832C228.764 218.873 229.811 214.974 231.903 212.136C234.025 209.298 237.278 207.879 241.664 207.879C246.022 207.879 249.261 209.312 251.382 212.179C253.504 215.017 254.564 218.901 254.564 223.832C254.564 228.791 253.504 232.704 251.382 235.571C249.261 238.409 246.022 239.828 241.664 239.828C237.278 239.828 234.025 238.409 231.903 235.571C229.811 232.704 228.764 228.791 228.764 223.832ZM245.147 223.832C245.147 221.539 244.918 219.819 244.459 218.672C244.001 217.497 243.069 216.909 241.664 216.909C240.231 216.909 239.285 217.497 238.826 218.672C238.368 219.819 238.138 221.539 238.138 223.832C238.138 226.154 238.368 227.903 238.826 229.078C239.285 230.225 240.231 230.798 241.664 230.798C243.069 230.798 244.001 230.225 244.459 229.078C244.918 227.903 245.147 226.154 245.147 223.832ZM256.805 223.832C256.805 218.873 257.851 214.974 259.944 212.136C262.065 209.298 265.319 207.879 269.705 207.879C274.062 207.879 277.302 209.312 279.423 212.179C281.544 215.017 282.605 218.901 282.605 223.832C282.605 228.791 281.544 232.704 279.423 235.571C277.302 238.409 274.062 239.828 269.705 239.828C265.319 239.828 262.065 238.409 259.944 235.571C257.851 232.704 256.805 228.791 256.805 223.832ZM273.188 223.832C273.188 221.539 272.959 219.819 272.5 218.672C272.041 217.497 271.11 216.909 269.705 216.909C268.272 216.909 267.326 217.497 266.867 218.672C266.408 219.819 266.179 221.539 266.179 223.832C266.179 226.154 266.408 227.903 266.867 229.078C267.326 230.225 268.272 230.798 269.705 230.798C271.11 230.798 272.041 230.225 272.5 229.078C272.959 227.903 273.188 226.154 273.188 223.832ZM284.846 223.832C284.846 218.873 285.892 214.974 287.985 212.136C290.106 209.298 293.36 207.879 297.746 207.879C302.103 207.879 305.342 209.312 307.464 212.179C309.585 215.017 310.646 218.901 310.646 223.832C310.646 228.791 309.585 232.704 307.464 235.571C305.342 238.409 302.103 239.828 297.746 239.828C293.36 239.828 290.106 238.409 287.985 235.571C285.892 232.704 284.846 228.791 284.846 223.832ZM301.229 223.832C301.229 221.539 300.999 219.819 300.541 218.672C300.082 217.497 299.15 216.909 297.746 216.909C296.312 216.909 295.366 217.497 294.908 218.672C294.449 219.819 294.22 221.539 294.22 223.832C294.22 226.154 294.449 227.903 294.908 229.078C295.366 230.225 296.312 230.798 297.746 230.798C299.15 230.798 300.082 230.225 300.541 229.078C300.999 227.903 301.229 226.154 301.229 223.832ZM312.886 223.832C312.886 218.873 313.933 214.974 316.025 212.136C318.147 209.298 321.4 207.879 325.786 207.879C330.144 207.879 333.383 209.312 335.504 212.179C337.626 215.017 338.686 218.901 338.686 223.832C338.686 228.791 337.626 232.704 335.504 235.571C333.383 238.409 330.144 239.828 325.786 239.828C321.4 239.828 318.147 238.409 316.025 235.571C313.933 232.704 312.886 228.791 312.886 223.832ZM329.269 223.832C329.269 221.539 329.04 219.819 328.581 218.672C328.123 217.497 327.191 216.909 325.786 216.909C324.353 216.909 323.407 217.497 322.948 218.672C322.49 219.819 322.26 221.539 322.26 223.832C322.26 226.154 322.49 227.903 322.948 229.078C323.407 230.225 324.353 230.798 325.786 230.798C327.191 230.798 328.123 230.225 328.581 229.078C329.04 227.903 329.269 226.154 329.269 223.832ZM206.368 260.836C207.563 261.116 208.487 261.695 209.14 262.572C209.812 263.431 210.148 264.429 210.148 265.568C210.148 267.304 209.569 268.648 208.412 269.6C207.273 270.533 205.631 271 203.484 271H193.096V251.176H203.204C205.22 251.176 206.807 251.615 207.964 252.492C209.121 253.369 209.7 254.648 209.7 256.328C209.7 257.485 209.392 258.465 208.776 259.268C208.179 260.052 207.376 260.575 206.368 260.836ZM199.312 258.904H201.72C202.28 258.904 202.691 258.792 202.952 258.568C203.232 258.344 203.372 257.999 203.372 257.532C203.372 257.047 203.232 256.692 202.952 256.468C202.691 256.225 202.28 256.104 201.72 256.104H199.312V258.904ZM202.14 266.016C202.7 266.016 203.111 265.913 203.372 265.708C203.652 265.484 203.792 265.129 203.792 264.644C203.792 263.692 203.241 263.216 202.14 263.216H199.312V266.016H202.14ZM227.245 262.964C227.245 263.393 227.217 263.804 227.161 264.196H217.165C217.258 265.559 217.827 266.24 218.873 266.24C219.545 266.24 220.03 265.932 220.329 265.316H226.909C226.685 266.436 226.209 267.444 225.481 268.34C224.771 269.217 223.866 269.917 222.765 270.44C221.682 270.944 220.487 271.196 219.181 271.196C217.613 271.196 216.213 270.869 214.981 270.216C213.767 269.563 212.815 268.629 212.125 267.416C211.453 266.184 211.117 264.747 211.117 263.104C211.117 261.461 211.453 260.033 212.125 258.82C212.815 257.588 213.767 256.645 214.981 255.992C216.213 255.339 217.613 255.012 219.181 255.012C220.749 255.012 222.139 255.339 223.353 255.992C224.585 256.627 225.537 257.541 226.209 258.736C226.899 259.931 227.245 261.34 227.245 262.964ZM220.945 261.48C220.945 260.957 220.777 260.565 220.441 260.304C220.105 260.024 219.685 259.884 219.181 259.884C218.079 259.884 217.435 260.416 217.249 261.48H220.945ZM235.959 271.196C234.465 271.196 233.14 270.953 231.983 270.468C230.844 269.983 229.939 269.311 229.267 268.452C228.595 267.593 228.212 266.623 228.119 265.54H234.083C234.157 266.007 234.353 266.352 234.671 266.576C235.007 266.8 235.427 266.912 235.931 266.912C236.248 266.912 236.5 266.847 236.687 266.716C236.873 266.567 236.967 266.389 236.967 266.184C236.967 265.829 236.771 265.577 236.379 265.428C235.987 265.279 235.324 265.111 234.391 264.924C233.252 264.7 232.309 264.457 231.563 264.196C230.835 263.935 230.191 263.487 229.631 262.852C229.089 262.217 228.819 261.34 228.819 260.22C228.819 259.249 229.071 258.372 229.575 257.588C230.097 256.785 230.863 256.16 231.871 255.712C232.879 255.245 234.101 255.012 235.539 255.012C237.667 255.012 239.328 255.535 240.523 256.58C241.736 257.625 242.464 258.988 242.707 260.668H237.191C237.097 260.239 236.901 259.912 236.603 259.688C236.304 259.445 235.903 259.324 235.399 259.324C235.081 259.324 234.839 259.389 234.671 259.52C234.503 259.632 234.419 259.809 234.419 260.052C234.419 260.369 234.615 260.612 235.007 260.78C235.399 260.929 236.024 261.088 236.883 261.256C238.021 261.48 238.983 261.732 239.767 262.012C240.551 262.292 241.232 262.777 241.811 263.468C242.389 264.14 242.679 265.073 242.679 266.268C242.679 267.201 242.408 268.041 241.867 268.788C241.325 269.535 240.541 270.123 239.515 270.552C238.507 270.981 237.321 271.196 235.959 271.196ZM254.693 265.708V271H252.341C248.011 271 245.845 268.844 245.845 264.532V260.388H243.885V255.208H245.845V251.4H252.061V255.208H254.637V260.388H252.061V264.644C252.061 265.017 252.145 265.288 252.313 265.456C252.5 265.624 252.799 265.708 253.209 265.708H254.693ZM277.471 257.98C277.471 259.231 277.181 260.369 276.603 261.396C276.024 262.404 275.165 263.207 274.027 263.804C272.907 264.401 271.544 264.7 269.939 264.7H267.475V271H261.259V251.176H269.939C272.365 251.176 274.223 251.792 275.511 253.024C276.817 254.256 277.471 255.908 277.471 257.98ZM269.239 259.8C270.527 259.8 271.171 259.193 271.171 257.98C271.171 256.767 270.527 256.16 269.239 256.16H267.475V259.8H269.239ZM285.378 258.12C286.013 257.205 286.787 256.477 287.702 255.936C288.617 255.376 289.569 255.096 290.558 255.096V261.732H288.794C287.618 261.732 286.75 261.937 286.19 262.348C285.649 262.759 285.378 263.487 285.378 264.532V271H279.162V255.208H285.378V258.12ZM295.088 253.948C294.006 253.948 293.138 253.659 292.484 253.08C291.831 252.501 291.504 251.773 291.504 250.896C291.504 250 291.831 249.263 292.484 248.684C293.138 248.087 294.006 247.788 295.088 247.788C296.152 247.788 297.011 248.087 297.664 248.684C298.318 249.263 298.644 250 298.644 250.896C298.644 251.773 298.318 252.501 297.664 253.08C297.011 253.659 296.152 253.948 295.088 253.948ZM298.168 255.208V271H291.952V255.208H298.168ZM306.66 265.848H313.24V271H299.856V266.128L305.876 260.36H299.94V255.208H312.96V260.08L306.66 265.848ZM330.196 262.964C330.196 263.393 330.168 263.804 330.112 264.196H320.116C320.209 265.559 320.779 266.24 321.824 266.24C322.496 266.24 322.981 265.932 323.28 265.316H329.86C329.636 266.436 329.16 267.444 328.432 268.34C327.723 269.217 326.817 269.917 325.716 270.44C324.633 270.944 323.439 271.196 322.132 271.196C320.564 271.196 319.164 270.869 317.932 270.216C316.719 269.563 315.767 268.629 315.076 267.416C314.404 266.184 314.068 264.747 314.068 263.104C314.068 261.461 314.404 260.033 315.076 258.82C315.767 257.588 316.719 256.645 317.932 255.992C319.164 255.339 320.564 255.012 322.132 255.012C323.7 255.012 325.091 255.339 326.304 255.992C327.536 256.627 328.488 257.541 329.16 258.736C329.851 259.931 330.196 261.34 330.196 262.964ZM323.896 261.48C323.896 260.957 323.728 260.565 323.392 260.304C323.056 260.024 322.636 259.884 322.132 259.884C321.031 259.884 320.387 260.416 320.2 261.48H323.896ZM182.277 296.161C180.744 296.161 179.333 295.801 178.045 295.08C176.772 294.359 175.76 293.363 175.009 292.09C174.258 290.817 173.882 289.384 173.882 287.789C173.882 286.194 174.258 284.761 175.009 283.488C175.76 282.215 176.772 281.226 178.045 280.521C179.333 279.8 180.744 279.44 182.277 279.44C183.81 279.44 185.213 279.8 186.486 280.521C187.759 281.226 188.763 282.215 189.499 283.488C190.25 284.761 190.626 286.194 190.626 287.789C190.626 289.384 190.25 290.817 189.499 292.09C188.763 293.363 187.751 294.359 186.463 295.08C185.19 295.801 183.795 296.161 182.277 296.161ZM182.277 291.4C183.289 291.4 184.071 291.078 184.623 290.434C185.175 289.775 185.451 288.893 185.451 287.789C185.451 286.67 185.175 285.788 184.623 285.144C184.071 284.485 183.289 284.155 182.277 284.155C181.25 284.155 180.46 284.485 179.908 285.144C179.356 285.788 179.08 286.67 179.08 287.789C179.08 288.893 179.356 289.775 179.908 290.434C180.46 291.078 181.25 291.4 182.277 291.4ZM201.323 282.936C202.81 282.936 203.968 283.434 204.796 284.431C205.639 285.428 206.061 286.777 206.061 288.479V296H200.978V289.123C200.978 288.51 200.809 288.027 200.472 287.674C200.15 287.306 199.713 287.122 199.161 287.122C198.594 287.122 198.149 287.306 197.827 287.674C197.505 288.027 197.344 288.51 197.344 289.123V296H192.238V283.028H197.344V285.006C197.743 284.393 198.272 283.894 198.931 283.511C199.606 283.128 200.403 282.936 201.323 282.936ZM218.073 286.041V290.25H207.355V286.041H218.073ZM220.377 289.514C220.377 288.165 220.653 286.992 221.205 285.995C221.772 284.983 222.554 284.209 223.551 283.672C224.563 283.135 225.713 282.867 227.001 282.867C228.688 282.867 230.106 283.342 231.256 284.293C232.421 285.244 233.157 286.562 233.464 288.249H228.059C227.86 287.574 227.469 287.237 226.886 287.237C226.472 287.237 226.142 287.429 225.897 287.812C225.667 288.195 225.552 288.763 225.552 289.514C225.552 290.265 225.667 290.833 225.897 291.216C226.142 291.599 226.472 291.791 226.886 291.791C227.469 291.791 227.86 291.454 228.059 290.779H233.464C233.157 292.466 232.421 293.784 231.256 294.735C230.106 295.686 228.688 296.161 227.001 296.161C225.713 296.161 224.563 295.893 223.551 295.356C222.554 294.819 221.772 294.053 221.205 293.056C220.653 292.044 220.377 290.863 220.377 289.514ZM243.938 282.936C245.425 282.936 246.583 283.434 247.411 284.431C248.254 285.428 248.676 286.777 248.676 288.479V296H243.593V289.123C243.593 288.51 243.424 288.027 243.087 287.674C242.765 287.306 242.328 287.122 241.776 287.122C241.208 287.122 240.764 287.306 240.442 287.674C240.12 288.027 239.959 288.51 239.959 289.123V296H234.853V278.98H239.959V285.006C240.357 284.393 240.886 283.894 241.546 283.511C242.22 283.128 243.018 282.936 243.938 282.936ZM249.97 289.514C249.97 288.149 250.2 286.969 250.66 285.972C251.135 284.96 251.779 284.193 252.592 283.672C253.404 283.135 254.317 282.867 255.329 282.867C256.172 282.867 256.9 283.043 257.514 283.396C258.127 283.733 258.595 284.201 258.917 284.799V283.028H264V296H258.917V294.229C258.595 294.827 258.127 295.302 257.514 295.655C256.9 295.992 256.172 296.161 255.329 296.161C254.317 296.161 253.404 295.9 252.592 295.379C251.779 294.842 251.135 294.076 250.66 293.079C250.2 292.067 249.97 290.879 249.97 289.514ZM258.917 289.514C258.917 288.824 258.74 288.287 258.388 287.904C258.035 287.521 257.583 287.329 257.031 287.329C256.479 287.329 256.026 287.521 255.674 287.904C255.321 288.287 255.145 288.824 255.145 289.514C255.145 290.204 255.321 290.741 255.674 291.124C256.026 291.507 256.479 291.699 257.031 291.699C257.583 291.699 258.035 291.507 258.388 291.124C258.74 290.741 258.917 290.204 258.917 289.514ZM268.639 281.993C267.749 281.993 267.036 281.755 266.5 281.28C265.963 280.805 265.695 280.207 265.695 279.486C265.695 278.75 265.963 278.144 266.5 277.669C267.036 277.178 267.749 276.933 268.639 276.933C269.513 276.933 270.218 277.178 270.755 277.669C271.291 278.144 271.56 278.75 271.56 279.486C271.56 280.207 271.291 280.805 270.755 281.28C270.218 281.755 269.513 281.993 268.639 281.993ZM271.169 283.028V296H266.063V283.028H271.169ZM282.33 282.936C283.817 282.936 284.975 283.434 285.803 284.431C286.646 285.428 287.068 286.777 287.068 288.479V296H281.985V289.123C281.985 288.51 281.816 288.027 281.479 287.674C281.157 287.306 280.72 287.122 280.168 287.122C279.6 287.122 279.156 287.306 278.834 287.674C278.512 288.027 278.351 288.51 278.351 289.123V296H273.245V283.028H278.351V285.006C278.749 284.393 279.278 283.894 279.938 283.511C280.612 283.128 281.41 282.936 282.33 282.936ZM299.515 279.716C301.217 279.716 302.704 280.061 303.977 280.751C305.265 281.441 306.254 282.399 306.944 283.626C307.634 284.853 307.979 286.248 307.979 287.812C307.979 289.361 307.634 290.756 306.944 291.998C306.254 293.24 305.265 294.221 303.977 294.942C302.704 295.647 301.217 296 299.515 296H292.73V279.716H299.515ZM299.055 291.446C300.205 291.446 301.117 291.132 301.792 290.503C302.467 289.874 302.804 288.977 302.804 287.812C302.804 286.647 302.467 285.75 301.792 285.121C301.117 284.492 300.205 284.178 299.055 284.178H297.836V291.446H299.055ZM308.903 289.514C308.903 288.149 309.133 286.969 309.593 285.972C310.068 284.96 310.712 284.193 311.525 283.672C312.337 283.135 313.25 282.867 314.262 282.867C315.105 282.867 315.833 283.043 316.447 283.396C317.06 283.733 317.528 284.201 317.85 284.799V283.028H322.933V296H317.85V294.229C317.528 294.827 317.06 295.302 316.447 295.655C315.833 295.992 315.105 296.161 314.262 296.161C313.25 296.161 312.337 295.9 311.525 295.379C310.712 294.842 310.068 294.076 309.593 293.079C309.133 292.067 308.903 290.879 308.903 289.514ZM317.85 289.514C317.85 288.824 317.673 288.287 317.321 287.904C316.968 287.521 316.516 287.329 315.964 287.329C315.412 287.329 314.959 287.521 314.607 287.904C314.254 288.287 314.078 288.824 314.078 289.514C314.078 290.204 314.254 290.741 314.607 291.124C314.959 291.507 315.412 291.699 315.964 291.699C316.516 291.699 316.968 291.507 317.321 291.124C317.673 290.741 317.85 290.204 317.85 289.514ZM333.069 291.653V296H331.137C327.579 296 325.801 294.229 325.801 290.687V287.283H324.191V283.028H325.801V279.9H330.907V283.028H333.023V287.283H330.907V290.779C330.907 291.086 330.976 291.308 331.114 291.446C331.267 291.584 331.512 291.653 331.85 291.653H333.069ZM334.093 289.514C334.093 288.149 334.323 286.969 334.783 285.972C335.259 284.96 335.903 284.193 336.715 283.672C337.528 283.135 338.44 282.867 339.452 282.867C340.296 282.867 341.024 283.043 341.637 283.396C342.251 283.733 342.718 284.201 343.04 284.799V283.028H348.123V296H343.04V294.229C342.718 294.827 342.251 295.302 341.637 295.655C341.024 295.992 340.296 296.161 339.452 296.161C338.44 296.161 337.528 295.9 336.715 295.379C335.903 294.842 335.259 294.076 334.783 293.079C334.323 292.067 334.093 290.879 334.093 289.514ZM343.04 289.514C343.04 288.824 342.864 288.287 342.511 287.904C342.159 287.521 341.706 287.329 341.154 287.329C340.602 287.329 340.15 287.521 339.797 287.904C339.445 288.287 339.268 288.824 339.268 289.514C339.268 290.204 339.445 290.741 339.797 291.124C340.15 291.507 340.602 291.699 341.154 291.699C341.706 291.699 342.159 291.507 342.511 291.124C342.864 290.741 343.04 290.204 343.04 289.514Z" fill="url(#paint103_linear_21_15821)"/>
</g>
</g>
<defs>
<filter id="filter0_d_21_15821" x="151.211" y="104.218" width="30.7674" height="23.9727" filterUnits="userSpaceOnUse" color-interpolation-filters="sRGB">
<feFlood flood-opacity="0" result="BackgroundImageFix"/>
<feColorMatrix in="SourceAlpha" type="matrix" values="0 0 0 0 0 0 0 0 0 0 0 0 0 0 0 0 0 0 127 0" result="hardAlpha"/>
<feOffset dy="2.23124"/>
<feGaussianBlur stdDeviation="0.557811"/>
<feColorMatrix type="matrix" values="0 0 0 0 0.541667 0 0 0 0 0.336104 0 0 0 0 0.0947917 0 0 0 0.25 0"/>
<feBlend mode="normal" in2="BackgroundImageFix" result="effect1_dropShadow_21_15821"/>
<feBlend mode="normal" in="SourceGraphic" in2="effect1_dropShadow_21_15821" result="shape"/>
</filter>
<filter id="filter1_d_21_15821" x="127.762" y="157.515" width="29.5589" height="15.6013" filterUnits="userSpaceOnUse" color-interpolation-filters="sRGB">
<feFlood flood-opacity="0" result="BackgroundImageFix"/>
<feColorMatrix in="SourceAlpha" type="matrix" values="0 0 0 0 0 0 0 0 0 0 0 0 0 0 0 0 0 0 127 0" result="hardAlpha"/>
<feOffset dy="2.23124"/>
<feGaussianBlur stdDeviation="0.557811"/>
<feColorMatrix type="matrix" values="0 0 0 0 0.541667 0 0 0 0 0.336104 0 0 0 0 0.0947917 0 0 0 0.25 0"/>
<feBlend mode="normal" in2="BackgroundImageFix" result="effect1_dropShadow_21_15821"/>
<feBlend mode="normal" in="SourceGraphic" in2="effect1_dropShadow_21_15821" result="shape"/>
</filter>
<filter id="filter2_d_21_15821" x="100.122" y="160.152" width="22.4897" height="43.2988" filterUnits="userSpaceOnUse" color-interpolation-filters="sRGB">
<feFlood flood-opacity="0" result="BackgroundImageFix"/>
<feColorMatrix in="SourceAlpha" type="matrix" values="0 0 0 0 0 0 0 0 0 0 0 0 0 0 0 0 0 0 127 0" result="hardAlpha"/>
<feOffset dx="2.23124" dy="2.23124"/>
<feGaussianBlur stdDeviation="0.557811"/>
<feColorMatrix type="matrix" values="0 0 0 0 0.541667 0 0 0 0 0.336104 0 0 0 0 0.0947917 0 0 0 0.25 0"/>
<feBlend mode="normal" in2="BackgroundImageFix" result="effect1_dropShadow_21_15821"/>
<feBlend mode="normal" in="SourceGraphic" in2="effect1_dropShadow_21_15821" result="shape"/>
</filter>
<filter id="filter3_d_21_15821" x="111.569" y="203.525" width="11.8977" height="36.1989" filterUnits="userSpaceOnUse" color-interpolation-filters="sRGB">
<feFlood flood-opacity="0" result="BackgroundImageFix"/>
<feColorMatrix in="SourceAlpha" type="matrix" values="0 0 0 0 0 0 0 0 0 0 0 0 0 0 0 0 0 0 127 0" result="hardAlpha"/>
<feOffset dy="2.23124"/>
<feGaussianBlur stdDeviation="0.557811"/>
<feColorMatrix type="matrix" values="0 0 0 0 0.541667 0 0 0 0 0.336104 0 0 0 0 0.0947917 0 0 0 0.25 0"/>
<feBlend mode="normal" in2="BackgroundImageFix" result="effect1_dropShadow_21_15821"/>
<feBlend mode="normal" in="SourceGraphic" in2="effect1_dropShadow_21_15821" result="shape"/>
</filter>
<filter id="filter4_d_21_15821" x="110.821" y="238.789" width="13.3894" height="41.0277" filterUnits="userSpaceOnUse" color-interpolation-filters="sRGB">
<feFlood flood-opacity="0" result="BackgroundImageFix"/>
<feColorMatrix in="SourceAlpha" type="matrix" values="0 0 0 0 0 0 0 0 0 0 0 0 0 0 0 0 0 0 127 0" result="hardAlpha"/>
<feOffset dy="2.23124"/>
<feGaussianBlur stdDeviation="0.557811"/>
<feColorMatrix type="matrix" values="0 0 0 0 0.541667 0 0 0 0 0.336104 0 0 0 0 0.0947917 0 0 0 0.25 0"/>
<feBlend mode="normal" in2="BackgroundImageFix" result="effect1_dropShadow_21_15821"/>
<feBlend mode="normal" in="SourceGraphic" in2="effect1_dropShadow_21_15821" result="shape"/>
</filter>
<filter id="filter5_d_21_15821" x="87.4182" y="244.427" width="27.8383" height="25.9944" filterUnits="userSpaceOnUse" color-interpolation-filters="sRGB">
<feFlood flood-opacity="0" result="BackgroundImageFix"/>
<feColorMatrix in="SourceAlpha" type="matrix" values="0 0 0 0 0 0 0 0 0 0 0 0 0 0 0 0 0 0 127 0" result="hardAlpha"/>
<feOffset dx="2.23124" dy="2.23124"/>
<feGaussianBlur stdDeviation="0.557811"/>
<feColorMatrix type="matrix" values="0 0 0 0 0.541667 0 0 0 0 0.336104 0 0 0 0 0.0947917 0 0 0 0.25 0"/>
<feBlend mode="normal" in2="BackgroundImageFix" result="effect1_dropShadow_21_15821"/>
<feBlend mode="normal" in="SourceGraphic" in2="effect1_dropShadow_21_15821" result="shape"/>
</filter>
<filter id="filter6_d_21_15821" x="93.8087" y="287.134" width="26.5259" height="15.8807" filterUnits="userSpaceOnUse" color-interpolation-filters="sRGB">
<feFlood flood-opacity="0" result="BackgroundImageFix"/>
<feColorMatrix in="SourceAlpha" type="matrix" values="0 0 0 0 0 0 0 0 0 0 0 0 0 0 0 0 0 0 127 0" result="hardAlpha"/>
<feOffset dy="2.23124"/>
<feGaussianBlur stdDeviation="0.557811"/>
<feColorMatrix type="matrix" values="0 0 0 0 0.541667 0 0 0 0 0.336104 0 0 0 0 0.0947917 0 0 0 0.25 0"/>
<feBlend mode="normal" in2="BackgroundImageFix" result="effect1_dropShadow_21_15821"/>
<feBlend mode="normal" in="SourceGraphic" in2="effect1_dropShadow_21_15821" result="shape"/>
</filter>
<filter id="filter7_d_21_15821" x="338.629" y="105.172" width="30.7674" height="23.9727" filterUnits="userSpaceOnUse" color-interpolation-filters="sRGB">
<feFlood flood-opacity="0" result="BackgroundImageFix"/>
<feColorMatrix in="SourceAlpha" type="matrix" values="0 0 0 0 0 0 0 0 0 0 0 0 0 0 0 0 0 0 127 0" result="hardAlpha"/>
<feOffset dy="2.23124"/>
<feGaussianBlur stdDeviation="0.557811"/>
<feColorMatrix type="matrix" values="0 0 0 0 0.541667 0 0 0 0 0.336104 0 0 0 0 0.0947917 0 0 0 0.25 0"/>
<feBlend mode="normal" in2="BackgroundImageFix" result="effect1_dropShadow_21_15821"/>
<feBlend mode="normal" in="SourceGraphic" in2="effect1_dropShadow_21_15821" result="shape"/>
</filter>
<filter id="filter8_d_21_15821" x="363.291" y="158.468" width="29.5589" height="15.601" filterUnits="userSpaceOnUse" color-interpolation-filters="sRGB">
<feFlood flood-opacity="0" result="BackgroundImageFix"/>
<feColorMatrix in="SourceAlpha" type="matrix" values="0 0 0 0 0 0 0 0 0 0 0 0 0 0 0 0 0 0 127 0" result="hardAlpha"/>
<feOffset dy="2.23124"/>
<feGaussianBlur stdDeviation="0.557811"/>
<feColorMatrix type="matrix" values="0 0 0 0 0.541667 0 0 0 0 0.336104 0 0 0 0 0.0947917 0 0 0 0.25 0"/>
<feBlend mode="normal" in2="BackgroundImageFix" result="effect1_dropShadow_21_15821"/>
<feBlend mode="normal" in="SourceGraphic" in2="effect1_dropShadow_21_15821" result="shape"/>
</filter>
<filter id="filter9_d_21_15821" x="401.343" y="161.106" width="22.4897" height="43.2988" filterUnits="userSpaceOnUse" color-interpolation-filters="sRGB">
<feFlood flood-opacity="0" result="BackgroundImageFix"/>
<feColorMatrix in="SourceAlpha" type="matrix" values="0 0 0 0 0 0 0 0 0 0 0 0 0 0 0 0 0 0 127 0" result="hardAlpha"/>
<feOffset dx="2.23124" dy="2.23124"/>
<feGaussianBlur stdDeviation="0.557811"/>
<feColorMatrix type="matrix" values="0 0 0 0 0.541667 0 0 0 0 0.336104 0 0 0 0 0.0947917 0 0 0 0.25 0"/>
<feBlend mode="normal" in2="BackgroundImageFix" result="effect1_dropShadow_21_15821"/>
<feBlend mode="normal" in="SourceGraphic" in2="effect1_dropShadow_21_15821" result="shape"/>
</filter>
<filter id="filter10_d_21_15821" x="397.142" y="204.48" width="11.8977" height="36.1992" filterUnits="userSpaceOnUse" color-interpolation-filters="sRGB">
<feFlood flood-opacity="0" result="BackgroundImageFix"/>
<feColorMatrix in="SourceAlpha" type="matrix" values="0 0 0 0 0 0 0 0 0 0 0 0 0 0 0 0 0 0 127 0" result="hardAlpha"/>
<feOffset dy="2.23124"/>
<feGaussianBlur stdDeviation="0.557811"/>
<feColorMatrix type="matrix" values="0 0 0 0 0.541667 0 0 0 0 0.336104 0 0 0 0 0.0947917 0 0 0 0.25 0"/>
<feBlend mode="normal" in2="BackgroundImageFix" result="effect1_dropShadow_21_15821"/>
<feBlend mode="normal" in="SourceGraphic" in2="effect1_dropShadow_21_15821" result="shape"/>
</filter>
<filter id="filter11_d_21_15821" x="396.398" y="239.744" width="13.3894" height="41.0274" filterUnits="userSpaceOnUse" color-interpolation-filters="sRGB">
<feFlood flood-opacity="0" result="BackgroundImageFix"/>
<feColorMatrix in="SourceAlpha" type="matrix" values="0 0 0 0 0 0 0 0 0 0 0 0 0 0 0 0 0 0 127 0" result="hardAlpha"/>
<feOffset dy="2.23124"/>
<feGaussianBlur stdDeviation="0.557811"/>
<feColorMatrix type="matrix" values="0 0 0 0 0.541667 0 0 0 0 0.336104 0 0 0 0 0.0947917 0 0 0 0.25 0"/>
<feBlend mode="normal" in2="BackgroundImageFix" result="effect1_dropShadow_21_15821"/>
<feBlend mode="normal" in="SourceGraphic" in2="effect1_dropShadow_21_15821" result="shape"/>
</filter>
<filter id="filter12_d_21_15821" x="408.699" y="245.381" width="27.8383" height="25.9946" filterUnits="userSpaceOnUse" color-interpolation-filters="sRGB">
<feFlood flood-opacity="0" result="BackgroundImageFix"/>
<feColorMatrix in="SourceAlpha" type="matrix" values="0 0 0 0 0 0 0 0 0 0 0 0 0 0 0 0 0 0 127 0" result="hardAlpha"/>
<feOffset dx="2.23124" dy="2.23124"/>
<feGaussianBlur stdDeviation="0.557811"/>
<feColorMatrix type="matrix" values="0 0 0 0 0.541667 0 0 0 0 0.336104 0 0 0 0 0.0947917 0 0 0 0.25 0"/>
<feBlend mode="normal" in2="BackgroundImageFix" result="effect1_dropShadow_21_15821"/>
<feBlend mode="normal" in="SourceGraphic" in2="effect1_dropShadow_21_15821" result="shape"/>
</filter>
<filter id="filter13_d_21_15821" x="400.272" y="288.088" width="26.5259" height="15.8807" filterUnits="userSpaceOnUse" color-interpolation-filters="sRGB">
<feFlood flood-opacity="0" result="BackgroundImageFix"/>
<feColorMatrix in="SourceAlpha" type="matrix" values="0 0 0 0 0 0 0 0 0 0 0 0 0 0 0 0 0 0 127 0" result="hardAlpha"/>
<feOffset dy="2.23124"/>
<feGaussianBlur stdDeviation="0.557811"/>
<feColorMatrix type="matrix" values="0 0 0 0 0.541667 0 0 0 0 0.336104 0 0 0 0 0.0947917 0 0 0 0.25 0"/>
<feBlend mode="normal" in2="BackgroundImageFix" result="effect1_dropShadow_21_15821"/>
<feBlend mode="normal" in="SourceGraphic" in2="effect1_dropShadow_21_15821" result="shape"/>
</filter>
<filter id="filter14_f_21_15821" x="13.1893" y="10.0919" width="243.28" height="472.275" filterUnits="userSpaceOnUse" color-interpolation-filters="sRGB">
<feFlood flood-opacity="0" result="BackgroundImageFix"/>
<feBlend mode="normal" in="SourceGraphic" in2="BackgroundImageFix" result="shape"/>
<feGaussianBlur stdDeviation="2.45415" result="effect1_foregroundBlur_21_15821"/>
</filter>
<filter id="filter15_f_21_15821" x="0.338451" y="0.109692" width="267.548" height="492.24" filterUnits="userSpaceOnUse" color-interpolation-filters="sRGB">
<feFlood flood-opacity="0" result="BackgroundImageFix"/>
<feBlend mode="normal" in="SourceGraphic" in2="BackgroundImageFix" result="shape"/>
<feGaussianBlur stdDeviation="7.4454" result="effect1_foregroundBlur_21_15821"/>
</filter>
<filter id="filter16_f_21_15821" x="249.881" y="10.0917" width="243.28" height="472.275" filterUnits="userSpaceOnUse" color-interpolation-filters="sRGB">
<feFlood flood-opacity="0" result="BackgroundImageFix"/>
<feBlend mode="normal" in="SourceGraphic" in2="BackgroundImageFix" result="shape"/>
<feGaussianBlur stdDeviation="2.45415" result="effect1_foregroundBlur_21_15821"/>
</filter>
<filter id="filter17_f_21_15821" x="238.464" y="0.109936" width="267.548" height="492.24" filterUnits="userSpaceOnUse" color-interpolation-filters="sRGB">
<feFlood flood-opacity="0" result="BackgroundImageFix"/>
<feBlend mode="normal" in="SourceGraphic" in2="BackgroundImageFix" result="shape"/>
<feGaussianBlur stdDeviation="7.4454" result="effect1_foregroundBlur_21_15821"/>
</filter>
<filter id="filter18_f_21_15821" x="102.751" y="59.5252" width="49.5502" height="49.4245" filterUnits="userSpaceOnUse" color-interpolation-filters="sRGB">
<feFlood flood-opacity="0" result="BackgroundImageFix"/>
<feBlend mode="normal" in="SourceGraphic" in2="BackgroundImageFix" result="shape"/>
<feGaussianBlur stdDeviation="9.10013" result="effect1_foregroundBlur_21_15821"/>
</filter>
<filter id="filter19_f_21_15821" x="158.919" y="124.143" width="13.4834" height="13.4414" filterUnits="userSpaceOnUse" color-interpolation-filters="sRGB">
<feFlood flood-opacity="0" result="BackgroundImageFix"/>
<feBlend mode="normal" in="SourceGraphic" in2="BackgroundImageFix" result="shape"/>
<feGaussianBlur stdDeviation="2.27503" result="effect1_foregroundBlur_21_15821"/>
</filter>
<filter id="filter20_f_21_15821" x="370.455" y="65.8872" width="13.4834" height="13.4414" filterUnits="userSpaceOnUse" color-interpolation-filters="sRGB">
<feFlood flood-opacity="0" result="BackgroundImageFix"/>
<feBlend mode="normal" in="SourceGraphic" in2="BackgroundImageFix" result="shape"/>
<feGaussianBlur stdDeviation="2.27503" result="effect1_foregroundBlur_21_15821"/>
</filter>
<filter id="filter21_f_21_15821" x="329.253" y="124.415" width="7.41668" height="7.37469" filterUnits="userSpaceOnUse" color-interpolation-filters="sRGB">
<feFlood flood-opacity="0" result="BackgroundImageFix"/>
<feBlend mode="normal" in="SourceGraphic" in2="BackgroundImageFix" result="shape"/>
<feGaussianBlur stdDeviation="0.758344" result="effect1_foregroundBlur_21_15821"/>
</filter>
<filter id="filter22_f_21_15821" x="158.71" y="79.6396" width="4.98978" height="4.96158" filterUnits="userSpaceOnUse" color-interpolation-filters="sRGB">
<feFlood flood-opacity="0" result="BackgroundImageFix"/>
<feBlend mode="normal" in="SourceGraphic" in2="BackgroundImageFix" result="shape"/>
<feGaussianBlur stdDeviation="0.510201" result="effect1_foregroundBlur_21_15821"/>
</filter>
<filter id="filter23_f_21_15821" x="190.609" y="93.6921" width="16.3883" height="16.2894" filterUnits="userSpaceOnUse" color-interpolation-filters="sRGB">
<feFlood flood-opacity="0" result="BackgroundImageFix"/>
<feBlend mode="normal" in="SourceGraphic" in2="BackgroundImageFix" result="shape"/>
<feGaussianBlur stdDeviation="1.51669" result="effect1_foregroundBlur_21_15821"/>
</filter>
<filter id="filter24_f_21_15821" x="335.656" y="132.756" width="22.361" height="22.2633" filterUnits="userSpaceOnUse" color-interpolation-filters="sRGB">
<feFlood flood-opacity="0" result="BackgroundImageFix"/>
<feBlend mode="normal" in="SourceGraphic" in2="BackgroundImageFix" result="shape"/>
<feGaussianBlur stdDeviation="3.03338" result="effect1_foregroundBlur_21_15821"/>
</filter>
<filter id="filter25_f_21_15821" x="203.824" y="401.501" width="42.0225" height="41.9106" filterUnits="userSpaceOnUse" color-interpolation-filters="sRGB">
<feFlood flood-opacity="0" result="BackgroundImageFix"/>
<feBlend mode="normal" in="SourceGraphic" in2="BackgroundImageFix" result="shape"/>
<feGaussianBlur stdDeviation="7.58344" result="effect1_foregroundBlur_21_15821"/>
</filter>
<filter id="filter26_d_21_15821" x="44.6868" y="110.814" width="412.067" height="286.556" filterUnits="userSpaceOnUse" color-interpolation-filters="sRGB">
<feFlood flood-opacity="0" result="BackgroundImageFix"/>
<feColorMatrix in="SourceAlpha" type="matrix" values="0 0 0 0 0 0 0 0 0 0 0 0 0 0 0 0 0 0 127 0" result="hardAlpha"/>
<feOffset dy="8"/>
<feGaussianBlur stdDeviation="3"/>
<feColorMatrix type="matrix" values="0 0 0 0 0.208958 0 0 0 0 0.389892 0 0 0 0 0.491667 0 0 0 0.54 0"/>
<feBlend mode="normal" in2="BackgroundImageFix" result="effect1_dropShadow_21_15821"/>
<feBlend mode="normal" in="SourceGraphic" in2="effect1_dropShadow_21_15821" result="shape"/>
</filter>
<filter id="filter27_f_21_15821" x="157.962" y="130.996" width="205.539" height="231.71" filterUnits="userSpaceOnUse" color-interpolation-filters="sRGB">
<feFlood flood-opacity="0" result="BackgroundImageFix"/>
<feBlend mode="normal" in="SourceGraphic" in2="BackgroundImageFix" result="shape"/>
<feGaussianBlur stdDeviation="0.15" result="effect1_foregroundBlur_21_15821"/>
</filter>
<filter id="filter28_i_21_15821" x="167.432" y="141.221" width="187.851" height="211.632" filterUnits="userSpaceOnUse" color-interpolation-filters="sRGB">
<feFlood flood-opacity="0" result="BackgroundImageFix"/>
<feBlend mode="normal" in="SourceGraphic" in2="BackgroundImageFix" result="shape"/>
<feColorMatrix in="SourceAlpha" type="matrix" values="0 0 0 0 0 0 0 0 0 0 0 0 0 0 0 0 0 0 127 0" result="hardAlpha"/>
<feOffset/>
<feGaussianBlur stdDeviation="6.72414"/>
<feComposite in2="hardAlpha" operator="arithmetic" k2="-1" k3="1"/>
<feColorMatrix type="matrix" values="0 0 0 0 0.37849 0 0 0 0 0.586923 0 0 0 0 0.704167 0 0 0 1 0"/>
<feBlend mode="normal" in2="shape" result="effect1_innerShadow_21_15821"/>
</filter>
<filter id="filter29_i_21_15821" x="173.882" y="205.6" width="174.241" height="94.561" filterUnits="userSpaceOnUse" color-interpolation-filters="sRGB">
<feFlood flood-opacity="0" result="BackgroundImageFix"/>
<feBlend mode="normal" in="SourceGraphic" in2="BackgroundImageFix" result="shape"/>
<feColorMatrix in="SourceAlpha" type="matrix" values="0 0 0 0 0 0 0 0 0 0 0 0 0 0 0 0 0 0 127 0" result="hardAlpha"/>
<feOffset dy="4"/>
<feGaussianBlur stdDeviation="2"/>
<feComposite in2="hardAlpha" operator="arithmetic" k2="-1" k3="1"/>
<feColorMatrix type="matrix" values="0 0 0 0 0 0 0 0 0 0 0 0 0 0 0 0 0 0 0.25 0"/>
<feBlend mode="normal" in2="shape" result="effect1_innerShadow_21_15821"/>
</filter>
<linearGradient id="paint0_linear_21_15821" x1="115.098" y1="280.943" x2="107.225" y2="291.569" gradientUnits="userSpaceOnUse">
<stop stop-color="#D2AB68"/>
<stop offset="1" stop-color="#B67D3F"/>
</linearGradient>
<linearGradient id="paint1_linear_21_15821" x1="148.523" y1="121.99" x2="126.077" y2="152.284" gradientUnits="userSpaceOnUse">
<stop stop-color="#D2AB68"/>
<stop offset="1" stop-color="#B67D3F"/>
</linearGradient>
<linearGradient id="paint2_linear_21_15821" x1="171.858" y1="112.391" x2="156.253" y2="133.452" gradientUnits="userSpaceOnUse">
<stop stop-color="#D2AB68"/>
<stop offset="1" stop-color="#B67D3F"/>
</linearGradient>
<linearGradient id="paint3_linear_21_15821" x1="114.185" y1="200.754" x2="122.506" y2="204.225" gradientUnits="userSpaceOnUse">
<stop stop-color="#D2AB68"/>
<stop offset="1" stop-color="#B67D3F"/>
</linearGradient>
<linearGradient id="paint4_linear_21_15821" x1="167.189" y1="126.545" x2="154.498" y2="100.795" gradientUnits="userSpaceOnUse">
<stop stop-color="#D2AB68"/>
<stop offset="1" stop-color="#B67D3F"/>
</linearGradient>
<linearGradient id="paint5_linear_21_15821" x1="157.626" y1="97.4984" x2="150.652" y2="124.751" gradientUnits="userSpaceOnUse">
<stop stop-color="#F7E6B3"/>
<stop offset="1" stop-color="#F7E6B3" stop-opacity="0"/>
</linearGradient>
<linearGradient id="paint6_linear_21_15821" x1="138.954" y1="199.984" x2="111.564" y2="236.95" gradientUnits="userSpaceOnUse">
<stop stop-color="#D2AB68"/>
<stop offset="1" stop-color="#B67D3F"/>
</linearGradient>
<linearGradient id="paint7_linear_21_15821" x1="132.735" y1="204.253" x2="141.176" y2="227.386" gradientUnits="userSpaceOnUse">
<stop stop-color="#F7E6B3"/>
<stop offset="1" stop-color="#F7E6B3" stop-opacity="0"/>
</linearGradient>
<linearGradient id="paint8_linear_21_15821" x1="125.37" y1="164.755" x2="110.806" y2="184.411" gradientUnits="userSpaceOnUse">
<stop stop-color="#D2AB68"/>
<stop offset="1" stop-color="#B67D3F"/>
</linearGradient>
<linearGradient id="paint9_linear_21_15821" x1="122.66" y1="176.082" x2="116.131" y2="188.335" gradientUnits="userSpaceOnUse">
<stop stop-color="#C18E42"/>
<stop offset="1" stop-color="#D2AB68"/>
</linearGradient>
<linearGradient id="paint10_linear_21_15821" x1="137.858" y1="130.227" x2="119.443" y2="155.081" gradientUnits="userSpaceOnUse">
<stop stop-color="#D2AB68"/>
<stop offset="1" stop-color="#8E573C"/>
</linearGradient>
<linearGradient id="paint11_linear_21_15821" x1="152.609" y1="140.904" x2="134.916" y2="164.783" gradientUnits="userSpaceOnUse">
<stop stop-color="#D2AB68"/>
<stop offset="1" stop-color="#B67D3F"/>
</linearGradient>
<linearGradient id="paint12_linear_21_15821" x1="104.781" y1="214.551" x2="98.2946" y2="223.305" gradientUnits="userSpaceOnUse">
<stop stop-color="#D2AB68"/>
<stop offset="1" stop-color="#B67D3F"/>
</linearGradient>
<linearGradient id="paint13_linear_21_15821" x1="109.748" y1="198.221" x2="94.4616" y2="218.851" gradientUnits="userSpaceOnUse">
<stop stop-color="#C28766"/>
<stop offset="1" stop-color="#8E573C"/>
</linearGradient>
<linearGradient id="paint14_linear_21_15821" x1="133.537" y1="248.056" x2="113.557" y2="275.022" gradientUnits="userSpaceOnUse">
<stop stop-color="#D2AB68"/>
<stop offset="1" stop-color="#B67D3F"/>
</linearGradient>
<linearGradient id="paint15_linear_21_15821" x1="112.61" y1="241.357" x2="99.9717" y2="258.413" gradientUnits="userSpaceOnUse">
<stop stop-color="#D2AB68"/>
<stop offset="1" stop-color="#B67D3F"/>
</linearGradient>
<linearGradient id="paint16_linear_21_15821" x1="114.86" y1="240.256" x2="99.9884" y2="260.327" gradientUnits="userSpaceOnUse">
<stop stop-color="#FADA81"/>
<stop offset="1" stop-color="#B67D3F"/>
</linearGradient>
<linearGradient id="paint17_linear_21_15821" x1="112.594" y1="295.695" x2="106.455" y2="303.98" gradientUnits="userSpaceOnUse">
<stop stop-color="#D2AB68"/>
<stop offset="1" stop-color="#B67D3F"/>
</linearGradient>
<linearGradient id="paint18_linear_21_15821" x1="191.251" y1="72.6597" x2="169.224" y2="102.387" gradientUnits="userSpaceOnUse">
<stop stop-color="#FCF1D5"/>
<stop offset="1" stop-color="#EBCE6A"/>
</linearGradient>
<linearGradient id="paint19_linear_21_15821" x1="193.785" y1="74.5388" x2="171.759" y2="104.266" gradientUnits="userSpaceOnUse">
<stop stop-color="#D2AB68"/>
<stop offset="1" stop-color="#B67D3F"/>
</linearGradient>
<linearGradient id="paint20_linear_21_15821" x1="177.666" y1="101.849" x2="157.685" y2="128.814" gradientUnits="userSpaceOnUse">
<stop stop-color="#D2AB68"/>
<stop offset="1" stop-color="#B67D3F"/>
</linearGradient>
<linearGradient id="paint21_linear_21_15821" x1="172.277" y1="104.331" x2="172.982" y2="130.165" gradientUnits="userSpaceOnUse">
<stop stop-color="#F7E6B3"/>
<stop offset="1" stop-color="#F7E6B3" stop-opacity="0"/>
</linearGradient>
<linearGradient id="paint22_linear_21_15821" x1="142.498" y1="124.775" x2="136.106" y2="155.806" gradientUnits="userSpaceOnUse">
<stop stop-color="#F7E6B3"/>
<stop offset="1" stop-color="#F7E6B3" stop-opacity="0"/>
</linearGradient>
<linearGradient id="paint23_linear_21_15821" x1="131.535" y1="131.295" x2="121.331" y2="157.656" gradientUnits="userSpaceOnUse">
<stop stop-color="#F7E6B3"/>
<stop offset="1" stop-color="#F7E6B3" stop-opacity="0"/>
</linearGradient>
<linearGradient id="paint24_linear_21_15821" x1="148.337" y1="143.547" x2="148.756" y2="161.123" gradientUnits="userSpaceOnUse">
<stop stop-color="#FFDD78"/>
<stop offset="1" stop-color="#FFF1C8" stop-opacity="0.38"/>
</linearGradient>
<linearGradient id="paint25_linear_21_15821" x1="149.888" y1="153.229" x2="134.361" y2="174.184" gradientUnits="userSpaceOnUse">
<stop stop-color="#D2AB68"/>
<stop offset="1" stop-color="#B67D3F"/>
</linearGradient>
<linearGradient id="paint26_linear_21_15821" x1="150.146" y1="152.918" x2="131.264" y2="172.186" gradientUnits="userSpaceOnUse">
<stop stop-color="#FFDA92"/>
<stop offset="1" stop-color="#DCBA84"/>
</linearGradient>
<linearGradient id="paint27_linear_21_15821" x1="105.841" y1="164.376" x2="116.155" y2="194.607" gradientUnits="userSpaceOnUse">
<stop stop-color="#F7E6B3"/>
<stop offset="1" stop-color="#BC8647"/>
</linearGradient>
<linearGradient id="paint28_linear_21_15821" x1="115.531" y1="171.868" x2="103.194" y2="188.518" gradientUnits="userSpaceOnUse">
<stop stop-color="#D2AB68"/>
<stop offset="1" stop-color="#8E573C"/>
</linearGradient>
<linearGradient id="paint29_linear_21_15821" x1="101.875" y1="196.685" x2="91.4591" y2="215.625" gradientUnits="userSpaceOnUse">
<stop stop-color="#F7E6B3"/>
<stop offset="1" stop-color="#F7E6B3" stop-opacity="0"/>
</linearGradient>
<linearGradient id="paint30_linear_21_15821" x1="126.448" y1="207.573" x2="107.792" y2="232.752" gradientUnits="userSpaceOnUse">
<stop stop-color="#D2AB68"/>
<stop offset="1" stop-color="#B67D3F"/>
</linearGradient>
<linearGradient id="paint31_linear_21_15821" x1="121.019" y1="203.149" x2="112.652" y2="234.711" gradientUnits="userSpaceOnUse">
<stop stop-color="#E0C087"/>
<stop offset="0.28125" stop-color="#FFE49E"/>
<stop offset="1" stop-color="#753C1D"/>
</linearGradient>
<linearGradient id="paint32_linear_21_15821" x1="98.94" y1="214.846" x2="91.9149" y2="221.824" gradientUnits="userSpaceOnUse">
<stop stop-color="#B18253"/>
<stop offset="1" stop-color="#F7E6B3" stop-opacity="0"/>
</linearGradient>
<linearGradient id="paint33_linear_21_15821" x1="126.201" y1="244.884" x2="107.184" y2="270.55" gradientUnits="userSpaceOnUse">
<stop stop-color="#D2AB68"/>
<stop offset="1" stop-color="#B67D3F"/>
</linearGradient>
<linearGradient id="paint34_linear_21_15821" x1="120.591" y1="246.832" x2="112.989" y2="274.768" gradientUnits="userSpaceOnUse">
<stop stop-color="#F7E6B3"/>
<stop offset="1" stop-color="#F7E6B3" stop-opacity="0"/>
</linearGradient>
<linearGradient id="paint35_linear_21_15821" x1="102.381" y1="252.207" x2="95.5506" y2="261.425" gradientUnits="userSpaceOnUse">
<stop stop-color="#D2AB68"/>
<stop offset="1" stop-color="#B67D3F"/>
</linearGradient>
<linearGradient id="paint36_linear_21_15821" x1="99.602" y1="250.336" x2="105.262" y2="263.948" gradientUnits="userSpaceOnUse">
<stop stop-color="#FADA81"/>
<stop offset="1" stop-color="#9A5E33"/>
</linearGradient>
<linearGradient id="paint37_linear_21_15821" x1="111.191" y1="286.788" x2="104.025" y2="296.46" gradientUnits="userSpaceOnUse">
<stop stop-color="#FADA81"/>
<stop offset="1" stop-color="#B67D3F"/>
</linearGradient>
<linearGradient id="paint38_linear_21_15821" x1="111.515" y1="291.037" x2="103.41" y2="301.976" gradientUnits="userSpaceOnUse">
<stop stop-color="#D2AB68"/>
<stop offset="1" stop-color="#B67D3F"/>
</linearGradient>
<linearGradient id="paint39_linear_21_15821" x1="405.509" y1="281.898" x2="413.382" y2="292.523" gradientUnits="userSpaceOnUse">
<stop stop-color="#D2AB68"/>
<stop offset="1" stop-color="#B67D3F"/>
</linearGradient>
<linearGradient id="paint40_linear_21_15821" x1="372.084" y1="122.945" x2="394.53" y2="153.238" gradientUnits="userSpaceOnUse">
<stop stop-color="#D2AB68"/>
<stop offset="1" stop-color="#B67D3F"/>
</linearGradient>
<linearGradient id="paint41_linear_21_15821" x1="348.749" y1="113.345" x2="364.354" y2="134.406" gradientUnits="userSpaceOnUse">
<stop stop-color="#D2AB68"/>
<stop offset="1" stop-color="#B67D3F"/>
</linearGradient>
<linearGradient id="paint42_linear_21_15821" x1="406.422" y1="201.709" x2="398.101" y2="205.181" gradientUnits="userSpaceOnUse">
<stop stop-color="#D2AB68"/>
<stop offset="1" stop-color="#B67D3F"/>
</linearGradient>
<linearGradient id="paint43_linear_21_15821" x1="353.419" y1="127.5" x2="366.109" y2="101.749" gradientUnits="userSpaceOnUse">
<stop stop-color="#D2AB68"/>
<stop offset="1" stop-color="#B67D3F"/>
</linearGradient>
<linearGradient id="paint44_linear_21_15821" x1="362.981" y1="98.4528" x2="369.956" y2="125.706" gradientUnits="userSpaceOnUse">
<stop stop-color="#F7E6B3"/>
<stop offset="1" stop-color="#F7E6B3" stop-opacity="0"/>
</linearGradient>
<linearGradient id="paint45_linear_21_15821" x1="381.652" y1="200.939" x2="409.042" y2="237.905" gradientUnits="userSpaceOnUse">
<stop stop-color="#D2AB68"/>
<stop offset="1" stop-color="#B67D3F"/>
</linearGradient>
<linearGradient id="paint46_linear_21_15821" x1="387.87" y1="205.207" x2="379.43" y2="228.343" gradientUnits="userSpaceOnUse">
<stop stop-color="#F7E6B3"/>
<stop offset="1" stop-color="#F7E6B3" stop-opacity="0"/>
</linearGradient>
<linearGradient id="paint47_linear_21_15821" x1="395.236" y1="165.711" x2="409.8" y2="185.366" gradientUnits="userSpaceOnUse">
<stop stop-color="#D2AB68"/>
<stop offset="1" stop-color="#B67D3F"/>
</linearGradient>
<linearGradient id="paint48_linear_21_15821" x1="397.948" y1="177.037" x2="404.476" y2="189.29" gradientUnits="userSpaceOnUse">
<stop stop-color="#C18E42"/>
<stop offset="1" stop-color="#D2AB68"/>
</linearGradient>
<linearGradient id="paint49_linear_21_15821" x1="382.748" y1="131.181" x2="401.163" y2="156.035" gradientUnits="userSpaceOnUse">
<stop stop-color="#D2AB68"/>
<stop offset="1" stop-color="#8E573C"/>
</linearGradient>
<linearGradient id="paint50_linear_21_15821" x1="368" y1="141.858" x2="385.693" y2="165.737" gradientUnits="userSpaceOnUse">
<stop stop-color="#D2AB68"/>
<stop offset="1" stop-color="#B67D3F"/>
</linearGradient>
<linearGradient id="paint51_linear_21_15821" x1="415.825" y1="215.506" x2="422.311" y2="224.259" gradientUnits="userSpaceOnUse">
<stop stop-color="#D2AB68"/>
<stop offset="1" stop-color="#B67D3F"/>
</linearGradient>
<linearGradient id="paint52_linear_21_15821" x1="410.86" y1="199.175" x2="426.146" y2="219.806" gradientUnits="userSpaceOnUse">
<stop stop-color="#C28766"/>
<stop offset="1" stop-color="#8E573C"/>
</linearGradient>
<linearGradient id="paint53_linear_21_15821" x1="387.069" y1="249.011" x2="407.049" y2="275.976" gradientUnits="userSpaceOnUse">
<stop stop-color="#D2AB68"/>
<stop offset="1" stop-color="#B67D3F"/>
</linearGradient>
<linearGradient id="paint54_linear_21_15821" x1="407.997" y1="242.312" x2="420.635" y2="259.369" gradientUnits="userSpaceOnUse">
<stop stop-color="#D2AB68"/>
<stop offset="1" stop-color="#B67D3F"/>
</linearGradient>
<linearGradient id="paint55_linear_21_15821" x1="405.747" y1="241.212" x2="420.619" y2="261.282" gradientUnits="userSpaceOnUse">
<stop stop-color="#FADA81"/>
<stop offset="1" stop-color="#B67D3F"/>
</linearGradient>
<linearGradient id="paint56_linear_21_15821" x1="408.014" y1="296.649" x2="414.152" y2="304.934" gradientUnits="userSpaceOnUse">
<stop stop-color="#D2AB68"/>
<stop offset="1" stop-color="#B67D3F"/>
</linearGradient>
<linearGradient id="paint57_linear_21_15821" x1="329.355" y1="73.6141" x2="351.382" y2="103.341" gradientUnits="userSpaceOnUse">
<stop stop-color="#FCF1D5"/>
<stop offset="1" stop-color="#EBCE6A"/>
</linearGradient>
<linearGradient id="paint58_linear_21_15821" x1="326.82" y1="75.4933" x2="348.847" y2="105.22" gradientUnits="userSpaceOnUse">
<stop stop-color="#D2AB68"/>
<stop offset="1" stop-color="#B67D3F"/>
</linearGradient>
<linearGradient id="paint59_linear_21_15821" x1="342.942" y1="102.803" x2="362.922" y2="129.769" gradientUnits="userSpaceOnUse">
<stop stop-color="#D2AB68"/>
<stop offset="1" stop-color="#B67D3F"/>
</linearGradient>
<linearGradient id="paint60_linear_21_15821" x1="348.33" y1="105.286" x2="347.625" y2="131.119" gradientUnits="userSpaceOnUse">
<stop stop-color="#F7E6B3"/>
<stop offset="1" stop-color="#F7E6B3" stop-opacity="0"/>
</linearGradient>
<linearGradient id="paint61_linear_21_15821" x1="378.111" y1="125.732" x2="384.503" y2="156.76" gradientUnits="userSpaceOnUse">
<stop stop-color="#F7E6B3"/>
<stop offset="1" stop-color="#F7E6B3" stop-opacity="0"/>
</linearGradient>
<linearGradient id="paint62_linear_21_15821" x1="389.072" y1="132.249" x2="399.275" y2="158.608" gradientUnits="userSpaceOnUse">
<stop stop-color="#F7E6B3"/>
<stop offset="1" stop-color="#F7E6B3" stop-opacity="0"/>
</linearGradient>
<linearGradient id="paint63_linear_21_15821" x1="372.275" y1="144.504" x2="371.856" y2="162.079" gradientUnits="userSpaceOnUse">
<stop stop-color="#FFDD78"/>
<stop offset="1" stop-color="#FFF1C8" stop-opacity="0.38"/>
</linearGradient>
<linearGradient id="paint64_linear_21_15821" x1="370.724" y1="154.182" x2="386.251" y2="175.137" gradientUnits="userSpaceOnUse">
<stop stop-color="#D2AB68"/>
<stop offset="1" stop-color="#B67D3F"/>
</linearGradient>
<linearGradient id="paint65_linear_21_15821" x1="370.466" y1="153.87" x2="389.348" y2="173.138" gradientUnits="userSpaceOnUse">
<stop stop-color="#FFDA92"/>
<stop offset="1" stop-color="#DCBA84"/>
</linearGradient>
<linearGradient id="paint66_linear_21_15821" x1="414.767" y1="165.331" x2="404.453" y2="195.561" gradientUnits="userSpaceOnUse">
<stop stop-color="#F7E6B3"/>
<stop offset="1" stop-color="#BC8647"/>
</linearGradient>
<linearGradient id="paint67_linear_21_15821" x1="405.079" y1="172.823" x2="417.414" y2="189.471" gradientUnits="userSpaceOnUse">
<stop stop-color="#D2AB68"/>
<stop offset="1" stop-color="#8E573C"/>
</linearGradient>
<linearGradient id="paint68_linear_21_15821" x1="418.736" y1="197.641" x2="429.152" y2="216.581" gradientUnits="userSpaceOnUse">
<stop stop-color="#F7E6B3"/>
<stop offset="1" stop-color="#F7E6B3" stop-opacity="0"/>
</linearGradient>
<linearGradient id="paint69_linear_21_15821" x1="394.16" y1="208.528" x2="412.817" y2="233.706" gradientUnits="userSpaceOnUse">
<stop stop-color="#D2AB68"/>
<stop offset="1" stop-color="#B67D3F"/>
</linearGradient>
<linearGradient id="paint70_linear_21_15821" x1="399.589" y1="204.104" x2="407.956" y2="235.666" gradientUnits="userSpaceOnUse">
<stop stop-color="#E0C087"/>
<stop offset="0.28125" stop-color="#FFE49E"/>
<stop offset="1" stop-color="#753C1D"/>
</linearGradient>
<linearGradient id="paint71_linear_21_15821" x1="421.668" y1="215.801" x2="428.694" y2="222.779" gradientUnits="userSpaceOnUse">
<stop stop-color="#B18253"/>
<stop offset="1" stop-color="#F7E6B3" stop-opacity="0"/>
</linearGradient>
<linearGradient id="paint72_linear_21_15821" x1="394.407" y1="245.839" x2="413.424" y2="271.505" gradientUnits="userSpaceOnUse">
<stop stop-color="#D2AB68"/>
<stop offset="1" stop-color="#B67D3F"/>
</linearGradient>
<linearGradient id="paint73_linear_21_15821" x1="400.017" y1="247.787" x2="407.619" y2="275.723" gradientUnits="userSpaceOnUse">
<stop stop-color="#F7E6B3"/>
<stop offset="1" stop-color="#F7E6B3" stop-opacity="0"/>
</linearGradient>
<linearGradient id="paint74_linear_21_15821" x1="418.228" y1="253.161" x2="425.058" y2="262.38" gradientUnits="userSpaceOnUse">
<stop stop-color="#D2AB68"/>
<stop offset="1" stop-color="#B67D3F"/>
</linearGradient>
<linearGradient id="paint75_linear_21_15821" x1="421.007" y1="251.291" x2="415.347" y2="264.903" gradientUnits="userSpaceOnUse">
<stop stop-color="#FADA81"/>
<stop offset="1" stop-color="#9A5E33"/>
</linearGradient>
<linearGradient id="paint76_linear_21_15821" x1="409.415" y1="287.742" x2="416.581" y2="297.414" gradientUnits="userSpaceOnUse">
<stop stop-color="#FADA81"/>
<stop offset="1" stop-color="#B67D3F"/>
</linearGradient>
<linearGradient id="paint77_linear_21_15821" x1="409.091" y1="291.991" x2="417.197" y2="302.931" gradientUnits="userSpaceOnUse">
<stop stop-color="#D2AB68"/>
<stop offset="1" stop-color="#B67D3F"/>
</linearGradient>
<linearGradient id="paint78_linear_21_15821" x1="488.664" y1="373.936" x2="307.644" y2="268.415" gradientUnits="userSpaceOnUse">
<stop stop-color="#FFF6D6" stop-opacity="0"/>
<stop offset="1" stop-color="#FFEFC5" stop-opacity="0.4"/>
</linearGradient>
<linearGradient id="paint79_linear_21_15821" x1="261.858" y1="505.514" x2="261.858" y2="297.486" gradientUnits="userSpaceOnUse">
<stop stop-color="#FFF6D6" stop-opacity="0"/>
<stop offset="1" stop-color="#FFEFC5" stop-opacity="0.4"/>
</linearGradient>
<linearGradient id="paint80_linear_21_15821" x1="33.7812" y1="374.596" x2="214.801" y2="269.075" gradientUnits="userSpaceOnUse">
<stop stop-color="#FFF6D6" stop-opacity="0"/>
<stop offset="1" stop-color="#FFEFC5" stop-opacity="0.4"/>
</linearGradient>
<linearGradient id="paint81_linear_21_15821" x1="488.664" y1="110.458" x2="307.644" y2="215.98" gradientUnits="userSpaceOnUse">
<stop stop-color="#FFF6D6" stop-opacity="0"/>
<stop offset="1" stop-color="#FFEFC5" stop-opacity="0.4"/>
</linearGradient>
<linearGradient id="paint82_linear_21_15821" x1="33.7812" y1="109.798" x2="214.801" y2="215.32" gradientUnits="userSpaceOnUse">
<stop stop-color="#FFF6D6" stop-opacity="0"/>
<stop offset="1" stop-color="#FFEFC5" stop-opacity="0.4"/>
</linearGradient>
<linearGradient id="paint83_linear_21_15821" x1="-6.13519" y1="246.229" x2="140.444" y2="246.229" gradientUnits="userSpaceOnUse">
<stop stop-color="#FFF0DA"/>
<stop offset="0.321814" stop-color="#FFE6C0" stop-opacity="0.22"/>
<stop offset="1" stop-color="#FFE6C0" stop-opacity="0"/>
</linearGradient>
<linearGradient id="paint84_linear_21_15821" x1="19.1741" y1="246.585" x2="141.879" y2="246.223" gradientUnits="userSpaceOnUse">
<stop stop-color="#FFC164"/>
<stop offset="0.321814" stop-color="#FFE6C0" stop-opacity="0"/>
<stop offset="1" stop-color="#FFE6C0" stop-opacity="0"/>
</linearGradient>
<linearGradient id="paint85_linear_21_15821" x1="512.485" y1="246.229" x2="365.906" y2="246.229" gradientUnits="userSpaceOnUse">
<stop stop-color="#FFF0DA"/>
<stop offset="0.321814" stop-color="#FFE6C0" stop-opacity="0.22"/>
<stop offset="1" stop-color="#FFE6C0" stop-opacity="0"/>
</linearGradient>
<linearGradient id="paint86_linear_21_15821" x1="487.176" y1="246.585" x2="364.471" y2="246.223" gradientUnits="userSpaceOnUse">
<stop stop-color="#FFC164"/>
<stop offset="0.321814" stop-color="#FFE6C0" stop-opacity="0"/>
<stop offset="1" stop-color="#FFE6C0" stop-opacity="0"/>
</linearGradient>
<linearGradient id="paint87_linear_21_15821" x1="392.147" y1="240.453" x2="425.525" y2="206.752" gradientUnits="userSpaceOnUse">
<stop stop-color="#C3C5D1"/>
<stop offset="0.875" stop-color="#F9F9F9"/>
</linearGradient>
<linearGradient id="paint88_linear_21_15821" x1="444.082" y1="201.053" x2="412.41" y2="240.751" gradientUnits="userSpaceOnUse">
<stop stop-color="#F9F9F9"/>
<stop offset="0.378992" stop-color="#F9F9F9"/>
<stop offset="0.480868" stop-color="#DFDFE6"/>
<stop offset="0.729174" stop-color="#B8BAC6"/>
</linearGradient>
<linearGradient id="paint89_linear_21_15821" x1="368.942" y1="270.55" x2="402.31" y2="235.755" gradientUnits="userSpaceOnUse">
<stop stop-color="#C3C5D1"/>
<stop offset="0.875" stop-color="#F9F9F9"/>
</linearGradient>
<linearGradient id="paint90_linear_21_15821" x1="411.484" y1="236.075" x2="394.62" y2="270.678" gradientUnits="userSpaceOnUse">
<stop stop-color="#F4F4F5"/>
<stop offset="0.306027" stop-color="#F4F4F5"/>
<stop offset="0.462087" stop-color="#E8E9EC"/>
<stop offset="0.682292" stop-color="#DFDFE6"/>
<stop offset="1" stop-color="#B8BAC6"/>
</linearGradient>
<linearGradient id="paint91_linear_21_15821" x1="109.294" y1="240.453" x2="75.9154" y2="206.752" gradientUnits="userSpaceOnUse">
<stop stop-color="#C3C5D1"/>
<stop offset="0.875" stop-color="#F9F9F9"/>
</linearGradient>
<linearGradient id="paint92_linear_21_15821" x1="57.3588" y1="201.053" x2="89.0311" y2="240.751" gradientUnits="userSpaceOnUse">
<stop stop-color="#F9F9F9"/>
<stop offset="0.378992" stop-color="#F9F9F9"/>
<stop offset="0.480868" stop-color="#DFDFE6"/>
<stop offset="0.729174" stop-color="#B8BAC6"/>
</linearGradient>
<linearGradient id="paint93_linear_21_15821" x1="132.499" y1="270.55" x2="99.1309" y2="235.755" gradientUnits="userSpaceOnUse">
<stop stop-color="#C3C5D1"/>
<stop offset="0.875" stop-color="#F9F9F9"/>
</linearGradient>
<linearGradient id="paint94_linear_21_15821" x1="89.9565" y1="236.075" x2="106.82" y2="270.678" gradientUnits="userSpaceOnUse">
<stop stop-color="#F4F4F5"/>
<stop offset="0.306027" stop-color="#F4F4F5"/>
<stop offset="0.462087" stop-color="#E8E9EC"/>
<stop offset="0.682292" stop-color="#DFDFE6"/>
<stop offset="1" stop-color="#B8BAC6"/>
</linearGradient>
<linearGradient id="paint95_linear_21_15821" x1="210.301" y1="141.898" x2="317.023" y2="355.968" gradientUnits="userSpaceOnUse">
<stop stop-color="#D8ECF1"/>
<stop offset="1" stop-color="#82B3BF"/>
</linearGradient>
<linearGradient id="paint96_linear_21_15821" x1="209.337" y1="159.549" x2="301.399" y2="331.078" gradientUnits="userSpaceOnUse">
<stop stop-color="#A1C9D3"/>
<stop offset="1" stop-color="#D0ECF2"/>
</linearGradient>
<linearGradient id="paint97_linear_21_15821" x1="219.452" y1="153.348" x2="318.65" y2="333.532" gradientUnits="userSpaceOnUse">
<stop stop-color="#D0ECF2"/>
<stop offset="1" stop-color="#E6F8FC"/>
</linearGradient>
<radialGradient id="paint98_radial_21_15821" cx="0" cy="0" r="1" gradientUnits="userSpaceOnUse" gradientTransform="translate(261.358 247.037) rotate(90) scale(108.002 93.9255)">
<stop stop-color="#D0EBF2"/>
<stop offset="1" stop-color="#8DD3E2"/>
</radialGradient>
<linearGradient id="paint99_linear_21_15821" x1="261.358" y1="134.759" x2="261.358" y2="359.306" gradientUnits="userSpaceOnUse">
<stop stop-color="white"/>
<stop offset="1" stop-color="#F2EDED" stop-opacity="0"/>
</linearGradient>
<linearGradient id="paint100_linear_21_15821" x1="145.396" y1="155.075" x2="257.127" y2="350.469" gradientUnits="userSpaceOnUse">
<stop stop-color="white"/>
<stop offset="1" stop-color="#F2EDED" stop-opacity="0"/>
</linearGradient>
<linearGradient id="paint101_linear_21_15821" x1="368.874" y1="155.075" x2="257.142" y2="350.469" gradientUnits="userSpaceOnUse">
<stop stop-color="white"/>
<stop offset="1" stop-color="#F2EDED" stop-opacity="0"/>
</linearGradient>
<linearGradient id="paint102_linear_21_15821" x1="261.358" y1="286.595" x2="260.802" y2="347.543" gradientUnits="userSpaceOnUse">
<stop stop-color="#EEFFFF" stop-opacity="0"/>
<stop offset="1" stop-color="#B5EBFB"/>
</linearGradient>
<linearGradient id="paint103_linear_21_15821" x1="347.5" y1="282.466" x2="183.487" y2="235.235" gradientUnits="userSpaceOnUse">
<stop stop-color="#5EA6B7"/>
<stop offset="1" stop-color="#5F9CAA"/>
</linearGradient>
</defs>
</svg>
