<svg width="444" height="395" viewBox="0 0 444 395" fill="none" xmlns="http://www.w3.org/2000/svg">
<path d="M76.7239 224.349C77.5058 224.928 82.2712 235.84 84.5562 241.224L85.9065 247.508C81.5495 244.532 72.4194 237.716 70.7552 234.269C69.091 230.822 69.1542 222.598 69.3938 218.918L76.7239 224.349Z" fill="url(#paint0_linear_21_15138)"/>
<path d="M100.226 80.2201C100.187 75.1589 103.793 69.779 107.202 63.2472C108.244 63.2137 112.419 70.1313 105.329 94.3178L102.042 101.697C100.99 106.452 100.332 100.933 99.1474 96.7834C99.339 87.112 100.274 86.5467 100.226 80.2201Z" fill="url(#paint1_linear_21_15138)"/>
<path d="M125.518 68.2626C127.144 67.4548 134.057 64.0213 144.431 63.4044L144.431 63.4044C143.456 64.6952 140.653 68.4058 130.652 74.583C129.106 74.9476 121.621 75.4401 117.836 74.3969C116.99 74.9782 117.93 73.7118 118.2 72.9055C120.772 69.2758 123.891 69.0705 125.518 68.2626Z" fill="url(#paint2_linear_21_15138)"/>
<path fill-rule="evenodd" clip-rule="evenodd" d="M82.3179 150.941C92.6295 107.081 116.907 70.2178 135.554 48.9193L136.369 49.5228C118.003 70.4996 95.6588 108.41 85.488 151.672C75.3274 194.89 78.2994 244.075 112.325 289.31L109.715 291.236C74.9841 245.064 71.9961 194.845 82.3179 150.941Z" fill="url(#paint3_linear_21_15138)"/>
<path d="M125.665 56.2942L121.817 36.8356L119.258 40.2236C114.101 48.7323 117.16 54.7731 116.03 61.9876C115.125 67.7591 117.208 72.0871 118.321 72.744L122.219 66.5739L125.665 56.2942Z" fill="url(#paint4_linear_21_15138)"/>
<path fill-rule="evenodd" clip-rule="evenodd" d="M121.884 37.1739C120.888 45.8703 119.815 56.3324 120.543 59.0409C121.205 61.5052 120.065 67.1124 118.713 72.1234L118.321 72.744C117.208 72.0871 115.125 67.7591 116.03 61.9876C116.411 59.5525 116.315 57.2512 116.219 54.9435C116.031 50.4141 115.842 45.8604 119.258 40.2236L121.817 36.8356L121.884 37.1739Z" fill="url(#paint5_linear_21_15138)"/>
<path d="M97.0348 166.177C98.139 164.177 101.682 151.504 103.316 145.417L101.363 145.983C89.7806 156.273 88.9362 164.454 86.5027 170.703C84.0692 176.952 75.2518 186.271 80.0503 184.291C84.8488 182.31 95.6545 168.677 97.0348 166.177Z" fill="url(#paint6_linear_21_15138)"/>
<path fill-rule="evenodd" clip-rule="evenodd" d="M103.086 146.269C99.0316 152.628 93.3391 162.07 91.1369 167.595C89.0763 172.764 84.2795 179.587 80.3868 184.138C80.2717 184.194 80.1594 184.246 80.0503 184.291C77.2647 185.44 79.0675 182.782 81.5462 179.127C83.3375 176.486 85.4818 173.324 86.5027 170.703C86.9425 169.574 87.3304 168.381 87.7392 167.124C89.5922 161.428 91.874 154.413 101.363 145.983L103.316 145.417C103.243 145.688 103.166 145.973 103.086 146.269Z" fill="url(#paint7_linear_21_15138)"/>
<path d="M88.7199 120.006C87.771 115.881 84.3522 108.299 82.7615 105.023C80.5705 109.942 81.794 112.358 79.8902 119.251C78.3672 124.766 83.5023 134.09 86.2602 138.062C87.4755 133.762 89.6689 124.132 88.7199 120.006Z" fill="url(#paint8_linear_21_15138)"/>
<path fill-rule="evenodd" clip-rule="evenodd" d="M88.6211 119.593C88.657 119.734 88.6905 119.872 88.7214 120.006C89.6704 124.131 87.477 133.762 86.2616 138.062C85.2847 136.655 84.0095 134.576 82.8377 132.233C84.0572 127.381 86.5512 122.747 88.6211 119.593Z" fill="url(#paint9_linear_21_15138)"/>
<path d="M98.3126 80.0618C98.049 77.4509 94.9119 71.6708 93.3762 69.1071C91.9719 74.1055 88.5478 79.872 88.1921 88.4153C88.045 91.9474 93.5549 104.299 96.7219 110.085L97.8162 106.618C95.69 97.9969 98.6421 83.3254 98.3126 80.0618Z" fill="url(#paint10_linear_21_15138)"/>
<path d="M111.852 105.191C117.186 101.896 120.518 93.4941 121.517 89.705C112.207 95.6398 109.194 93.9106 101.639 103.913L99.0424 110.041C101.09 109.797 106.518 108.485 111.852 105.191Z" fill="url(#paint11_linear_21_15138)"/>
<path d="M77.7997 172.81C74.5648 162.562 62.8466 155.271 57.3924 153.411C63.8843 172.061 68.0698 167.865 72.1047 173.622C75.3327 178.228 78.1209 180.344 78.6228 180.465L77.7997 172.81Z" fill="url(#paint12_linear_21_15138)"/>
<path d="M73.9487 151.335C72.8395 149.306 63.6252 137.983 59.1567 132.575C61.3289 145.507 63.7001 154.813 67.0822 159.08C69.7879 162.494 75.4132 173.389 77.8876 178.41C78.1305 177.416 78.6238 174.879 78.6536 172.687C78.691 169.947 75.3351 153.872 73.9487 151.335Z" fill="url(#paint13_linear_21_15138)"/>
<path d="M96.9861 192.813C90.9389 198.397 85.37 209.201 83.3415 213.904L82.7844 224.06C86.4953 219.932 94.2253 210.797 95.4578 207.281C96.6904 203.766 96.9903 196.171 96.9861 192.813Z" fill="url(#paint14_linear_21_15138)"/>
<path d="M74.0345 188.891C73.6088 186.764 69.4827 181.912 67.4729 179.751C66.4192 183.165 64.7941 191.707 66.7229 198.571C68.6517 205.435 75.0253 211.684 77.971 213.951C78.5534 213.292 79.3921 211.531 78.0879 209.76C76.4578 207.545 74.5667 191.55 74.0345 188.891Z" fill="url(#paint15_linear_21_15138)"/>
<path fill-rule="evenodd" clip-rule="evenodd" d="M77.5239 213.597C72.3489 203.889 68.922 188.9 67.4011 179.989C67.4253 179.907 67.4492 179.828 67.4729 179.751C69.4827 181.912 73.6088 186.764 74.0345 188.891C74.1675 189.556 74.3855 191.054 74.6631 192.962C75.4959 198.686 76.8653 208.099 78.0879 209.76C79.392 211.531 78.5534 213.292 77.971 213.951C77.8296 213.842 77.6802 213.724 77.5239 213.597Z" fill="url(#paint16_linear_21_15138)"/>
<path d="M73.6626 249.256C75.5825 248.867 82.9802 249.702 86.4391 250.168L86.9253 248.515C85.6495 247.737 82.137 245.571 78.2933 243.125C74.4496 240.68 67.5524 243.219 64.5842 244.794C66.8104 246.443 71.7427 249.645 73.6626 249.256Z" fill="url(#paint17_linear_21_15138)"/>
<path d="M142.964 28.3477C144.719 26.0245 155.245 22.8527 160.288 21.5571L155.624 33.4502C154.405 35.0635 150.952 38.8958 146.886 41.3185C142.82 43.7412 137.144 48.2746 135.546 50.2779L134.568 49.5538C135.576 41.4933 140.771 31.2517 142.964 28.3477Z" fill="url(#paint18_linear_21_15138)"/>
<path fill-rule="evenodd" clip-rule="evenodd" d="M135.706 49.3912C138.359 43.3845 151.723 29.4681 159.778 21.6896C159.953 21.6435 160.123 21.5994 160.287 21.5572L155.623 33.4503C154.404 35.0636 150.951 38.8959 146.885 41.3186C142.819 43.7412 137.183 48.5566 135.585 50.56L135.706 49.3912Z" fill="url(#paint19_linear_21_15138)"/>
<g filter="url(#filter0_d_21_15138)">
<path d="M127.979 59.77C128.694 59.0922 135.466 52.7363 147.375 51.2441C146.754 53.6358 142.863 59.6262 139.872 63.0469C136.882 66.4677 125.238 70.237 118.839 71.8699C122.766 66.5595 127.263 60.4478 127.979 59.77Z" fill="url(#paint20_linear_21_15138)"/>
<path fill-rule="evenodd" clip-rule="evenodd" d="M147.224 51.7258C147.286 51.5525 147.337 51.3915 147.375 51.2441C135.466 52.7362 128.694 59.0921 127.979 59.7699C127.322 60.3922 123.477 65.5941 119.814 70.5514C119.487 70.994 119.161 71.4346 118.839 71.8699C119.321 71.7468 119.834 71.6116 120.37 71.4653C128.777 66.3358 140.531 57.189 147.224 51.7258Z" fill="url(#paint21_linear_21_15138)"/>
</g>
<path fill-rule="evenodd" clip-rule="evenodd" d="M107.072 63.4983C107.205 64.6038 107.282 65.9129 107.208 67.2755C107.009 70.9024 102.569 100.324 101.189 102.824C101.098 102.989 101.008 103.125 100.921 103.234C100.591 102.653 100.266 101.286 99.8965 99.7348C99.6676 98.7734 99.422 97.7415 99.1482 96.7828C99.2482 91.7325 99.551 89.1652 99.8106 86.9641C100.048 84.95 100.25 83.2425 100.226 80.2196C100.638 75.1598 102.624 71.5803 105.12 67.0818C105.745 65.9572 106.4 64.7752 107.072 63.4983Z" fill="url(#paint22_linear_21_15138)"/>
<path fill-rule="evenodd" clip-rule="evenodd" d="M97.0764 108.962C94.5697 103.885 92.6946 96.9294 93.0718 88.0054C93.4849 78.2363 93.4006 72.7557 93.1485 69.8711C93.2291 69.6143 93.3052 69.3597 93.3762 69.1071C94.9119 71.6708 98.049 77.4509 98.3126 80.0618C98.418 81.1061 98.1875 83.3182 97.8948 86.1264C97.2729 92.0947 96.3703 100.755 97.8162 106.618L97.0764 108.962Z" fill="url(#paint23_linear_21_15138)"/>
<path fill-rule="evenodd" clip-rule="evenodd" d="M121.452 89.7455C118.424 91.6704 116.063 92.7841 113.994 93.7605C109.736 95.7696 106.711 97.1969 101.638 103.913L99.0421 110.041C99.1365 110.03 99.2382 110.016 99.3467 110C107.517 105.27 116.973 95.1679 121.452 89.7455Z" fill="url(#paint24_linear_21_15138)"/>
<g filter="url(#filter1_d_21_15138)">
<path d="M95.391 115.89C96.2051 116.158 96.1829 115.902 98.5245 116.45C107.038 118.444 118.16 111.444 122.718 104.937L114.377 104.544C101.683 104.398 96.5251 111.698 95.391 115.89Z" fill="url(#paint25_linear_21_15138)"/>
<path fill-rule="evenodd" clip-rule="evenodd" d="M122.511 105.228C122.581 105.131 122.651 105.034 122.719 104.937L114.377 104.544C101.683 104.398 96.525 111.698 95.3909 115.89C95.4214 115.9 95.4507 115.909 95.479 115.918C101.066 111.711 115.053 107.247 122.511 105.228Z" fill="url(#paint26_linear_21_15138)"/>
</g>
<g filter="url(#filter2_d_21_15138)">
<path d="M81.8882 122.997C80.5841 121.225 71.1876 111.713 66.6523 107.179C66.1883 126.965 75.0242 132.757 76.8185 136.099C81.0972 141.534 84.1543 146.232 85.254 147.131L85.7775 142.738C85.0244 136.896 83.1923 124.768 81.8882 122.997Z" fill="url(#paint27_linear_21_15138)"/>
<path fill-rule="evenodd" clip-rule="evenodd" d="M66.6482 107.487C66.3535 123.222 71.9731 130.014 75.1047 133.799C75.8617 134.714 76.4733 135.453 76.8208 136.1C78.7715 138.578 80.4683 140.903 81.8415 142.784C83.2351 144.693 84.2954 146.146 84.9493 146.838C84.1953 137.245 73.3207 118.03 66.6482 107.487Z" fill="url(#paint28_linear_21_15138)"/>
</g>
<path fill-rule="evenodd" clip-rule="evenodd" d="M78.5404 174.538C74.4184 164.541 65.0705 144.785 59.2119 132.638C63.6998 138.07 72.8461 149.313 73.9509 151.334C75.3373 153.871 78.6932 169.946 78.6559 172.686C78.6476 173.29 78.6042 173.921 78.5404 174.538Z" fill="url(#paint29_linear_21_15138)"/>
<g filter="url(#filter3_d_21_15138)">
<path d="M80.074 168.452C80.6491 159.619 85.2627 152.838 87.4976 150.552L87.7885 155.548C91.7753 168.567 83.7221 179.543 79.1972 183.403C79.2498 182.101 79.499 177.286 80.074 168.452Z" fill="url(#paint30_linear_21_15138)"/>
<path fill-rule="evenodd" clip-rule="evenodd" d="M87.4415 150.61C85.0806 155.225 82.9098 163.729 82.4457 178.766C81.2802 180.498 80.267 181.981 79.388 183.239C79.3239 183.295 79.2604 183.35 79.1975 183.404C79.2502 182.101 79.4993 177.286 80.0744 168.453C80.6446 159.693 85.1863 152.952 87.4415 150.61Z" fill="url(#paint31_linear_21_15138)"/>
</g>
<path fill-rule="evenodd" clip-rule="evenodd" d="M78.4096 180.367C75.5024 171.657 63.9194 159.526 57.4634 153.605C61.8465 166.12 65.1764 168.221 68.1217 170.079C69.5125 170.956 70.8176 171.78 72.1072 173.62C75.0142 177.768 77.5646 179.897 78.4096 180.367Z" fill="url(#paint32_linear_21_15138)"/>
<path d="M135.545 49.2707C129.721 55.5237 114.444 74.6506 102.852 97.2628C94.5317 113.493 90.7369 119.488 82.5744 150.68C80.644 158.057 76.8942 176.968 77.3377 193.602C76.686 204.107 78.4587 231.874 90.7626 258.907C94.2711 266.707 103.015 283.989 109.924 290.718" stroke="#FADA81" stroke-width="0.844684"/>
<g filter="url(#filter4_d_21_15138)">
<path d="M81.4485 195.894C83.6392 190.723 83.8107 186.824 84.4875 185.816C88.4466 196.047 89.3132 205.999 89.6004 207.973C89.8302 209.552 84.4197 218.98 81.6857 223.497L78.4492 205.246C79.7026 198.878 78.8521 202.022 81.4485 195.894Z" fill="url(#paint33_linear_21_15138)"/>
<path fill-rule="evenodd" clip-rule="evenodd" d="M84.8957 186.899C84.7634 186.538 84.6274 186.177 84.4875 185.816C84.2189 186.216 84.0298 187.072 83.7625 188.282C83.3564 190.12 82.7696 192.775 81.4485 195.894C80.1373 198.988 79.7052 199.718 79.4372 200.503C79.1746 201.272 79.0697 202.094 78.4492 205.246L81.6094 223.066C85.0464 215.108 85.286 196.992 84.8957 186.899Z" fill="url(#paint34_linear_21_15138)"/>
</g>
<g filter="url(#filter5_d_21_15138)">
<path d="M66.6857 198.289C63.8815 194.198 57.1033 192.028 54.0647 191.454C53.0899 192.745 57.6856 202.356 60.1053 207.001C61.1096 207.577 63.9896 209.326 67.4752 211.707C70.9608 214.088 76.2257 214.249 78.4225 214.031C75.6786 210.488 69.4899 202.38 66.6857 198.289Z" fill="url(#paint35_linear_21_15138)"/>
<path fill-rule="evenodd" clip-rule="evenodd" d="M76.8997 214.101C77.4935 214.099 78.0117 214.072 78.4225 214.031C75.6787 210.488 69.4899 202.38 66.6857 198.289C63.8815 194.198 57.1033 192.028 54.0648 191.454C54.038 191.489 54.0154 191.531 53.9969 191.579C56.3217 196.061 62.737 203.932 76.8997 214.101Z" fill="url(#paint36_linear_21_15138)"/>
</g>
<g filter="url(#filter6_d_21_15138)">
<path d="M81.9056 236.996C78.0947 234.777 66.672 234.181 61.4371 234.16C68.2436 243.984 69.3392 241.525 74.6736 245.226C78.9411 248.186 83.7475 245.994 85.6172 244.527C85.9679 242.942 85.7165 239.216 81.9056 236.996Z" fill="url(#paint37_linear_21_15138)"/>
<path fill-rule="evenodd" clip-rule="evenodd" d="M85.6927 244.065C74.9675 237.456 66.1714 234.911 61.4908 234.238C66.1864 241 68.1524 241.888 70.6996 243.038C71.8184 243.543 73.0493 244.099 74.673 245.225C75.0299 245.473 75.3905 245.684 75.7529 245.863C76.6197 246.128 77.4727 246.384 78.306 246.629C81.4005 247.016 84.2701 245.583 85.6166 244.527C85.6472 244.388 85.6732 244.234 85.6927 244.065Z" fill="url(#paint38_linear_21_15138)"/>
</g>
<path d="M366.97 224.349C366.188 224.928 361.423 235.84 359.138 241.224L357.787 247.508C362.144 244.532 371.274 237.716 372.939 234.269C374.603 230.822 374.54 222.598 374.3 218.918L366.97 224.349Z" fill="url(#paint39_linear_21_15138)"/>
<path d="M343.469 80.2201C343.507 75.1589 339.901 69.779 336.492 63.2472C335.45 63.2137 331.275 70.1313 338.366 94.3177L341.652 101.696C342.704 106.452 343.362 100.932 344.547 96.7833C344.355 87.1119 343.42 86.5466 343.469 80.2201Z" fill="url(#paint40_linear_21_15138)"/>
<path d="M318.176 68.2625C316.55 67.4546 309.637 64.0211 299.263 63.4042L299.263 63.4043C300.238 64.6951 303.041 68.4057 313.042 74.5829C314.588 74.9474 322.073 75.44 325.858 74.3968C326.704 74.9781 325.764 73.7117 325.494 72.9054C322.921 69.2756 319.803 69.0704 318.176 68.2625Z" fill="url(#paint41_linear_21_15138)"/>
<path fill-rule="evenodd" clip-rule="evenodd" d="M361.376 150.942C351.065 107.082 326.787 70.219 308.14 48.9206L307.325 49.524C325.691 70.5008 348.035 108.412 358.206 151.673C368.367 194.891 365.395 244.076 331.369 289.311L333.979 291.237C368.71 245.065 371.698 194.846 361.376 150.942Z" fill="url(#paint42_linear_21_15138)"/>
<path d="M318.029 56.2943L321.877 36.8356L324.436 40.2236C329.593 48.7324 326.534 54.7732 327.664 61.9877C328.569 67.7593 326.486 72.0873 325.373 72.7442L321.475 66.5741L318.029 56.2943Z" fill="url(#paint43_linear_21_15138)"/>
<path fill-rule="evenodd" clip-rule="evenodd" d="M321.81 37.174C322.806 45.8704 323.879 56.3324 323.151 59.0409C322.489 61.5052 323.629 67.1127 324.981 72.1238L325.373 72.7442C326.486 72.0873 328.569 67.7593 327.664 61.9877C327.283 59.5526 327.379 57.2513 327.475 54.9436C327.663 50.4142 327.852 45.8604 324.436 40.2236L321.877 36.8356L321.81 37.174Z" fill="url(#paint44_linear_21_15138)"/>
<path d="M346.658 166.177C345.554 164.177 342.011 151.504 340.377 145.417L342.329 145.983C353.912 156.273 354.757 164.454 357.19 170.703C359.624 176.952 368.441 186.271 363.643 184.291C358.844 182.31 348.038 168.677 346.658 166.177Z" fill="url(#paint45_linear_21_15138)"/>
<path fill-rule="evenodd" clip-rule="evenodd" d="M340.608 146.273C344.662 152.632 350.353 162.071 352.554 167.595C354.615 172.763 359.411 179.586 363.303 184.136C363.42 184.194 363.533 184.245 363.643 184.291C366.428 185.44 364.625 182.782 362.147 179.127C360.355 176.486 358.211 173.324 357.19 170.703C356.75 169.574 356.362 168.381 355.954 167.124C354.101 161.428 351.819 154.413 342.329 145.983L340.377 145.417C340.45 145.69 340.527 145.976 340.608 146.273Z" fill="url(#paint46_linear_21_15138)"/>
<path d="M354.973 120.007C355.922 115.882 359.341 108.3 360.931 105.024C363.122 109.943 361.899 112.359 363.803 119.252C365.326 124.767 360.191 134.091 357.433 138.063C356.217 133.764 354.024 124.133 354.973 120.007Z" fill="url(#paint47_linear_21_15138)"/>
<path fill-rule="evenodd" clip-rule="evenodd" d="M355.073 119.594C355.037 119.735 355.004 119.873 354.973 120.007C354.024 124.133 356.217 133.764 357.433 138.063C358.41 136.656 359.685 134.577 360.857 132.235C359.637 127.382 357.143 122.748 355.073 119.594Z" fill="url(#paint48_linear_21_15138)"/>
<path d="M345.38 80.0616C345.644 77.4507 348.781 71.6706 350.317 69.1069C351.721 74.1054 355.145 79.8719 355.501 88.4152C355.648 91.9472 350.138 104.299 346.971 110.084L345.877 106.618C348.003 97.9967 345.051 83.3253 345.38 80.0616Z" fill="url(#paint49_linear_21_15138)"/>
<path d="M331.843 105.19C326.509 101.896 323.178 93.494 322.179 89.7049C331.489 95.6397 334.502 93.9105 342.057 103.913L344.653 110.041C342.606 109.797 337.177 108.485 331.843 105.19Z" fill="url(#paint50_linear_21_15138)"/>
<path d="M365.893 172.809C369.128 162.562 380.846 155.271 386.3 153.411C379.809 172.06 375.623 167.864 371.588 173.622C368.36 178.228 365.572 180.344 365.07 180.464L365.893 172.809Z" fill="url(#paint51_linear_21_15138)"/>
<path d="M369.745 151.335C370.854 149.306 380.068 137.983 384.537 132.575C382.365 145.507 379.994 154.813 376.611 159.08C373.906 162.494 368.28 173.389 365.806 178.41C365.563 177.416 365.07 174.879 365.04 172.687C365.003 169.947 368.359 153.872 369.745 151.335Z" fill="url(#paint52_linear_21_15138)"/>
<path d="M346.707 192.813C352.754 198.397 358.323 209.201 360.351 213.904L360.909 224.06C357.198 219.932 349.468 210.796 348.235 207.281C347.003 203.766 346.703 196.171 346.707 192.813Z" fill="url(#paint53_linear_21_15138)"/>
<path d="M369.66 188.892C370.085 186.765 374.211 181.913 376.221 179.753C377.275 183.166 378.9 191.708 376.971 198.572C375.042 205.436 368.669 211.685 365.723 213.952C365.141 213.293 364.302 211.532 365.606 209.761C367.236 207.547 369.127 191.551 369.66 188.892Z" fill="url(#paint54_linear_21_15138)"/>
<path fill-rule="evenodd" clip-rule="evenodd" d="M366.17 213.598C371.345 203.89 374.772 188.901 376.293 179.99C376.269 179.909 376.245 179.829 376.221 179.753C374.211 181.913 370.085 186.765 369.66 188.892C369.527 189.557 369.309 191.055 369.031 192.963C368.198 198.687 366.829 208.1 365.606 209.761C364.302 211.532 365.141 213.293 365.723 213.952C365.865 213.843 366.014 213.725 366.17 213.598Z" fill="url(#paint55_linear_21_15138)"/>
<path d="M370.031 249.256C368.111 248.867 360.714 249.702 357.255 250.168L356.769 248.515C358.044 247.737 361.557 245.571 365.401 243.125C369.244 240.68 376.141 243.219 379.11 244.794C376.883 246.443 371.951 249.645 370.031 249.256Z" fill="url(#paint56_linear_21_15138)"/>
<path d="M300.728 28.3477C298.973 26.0246 288.448 22.8527 283.404 21.5571L288.069 33.4502C289.287 35.0636 292.741 38.8959 296.807 41.3185C300.872 43.7412 306.549 48.2747 308.147 50.278L309.124 49.5538C308.117 41.4933 302.922 31.2517 300.728 28.3477Z" fill="url(#paint57_linear_21_15138)"/>
<path fill-rule="evenodd" clip-rule="evenodd" d="M307.987 49.3912C305.333 43.3845 291.97 29.4681 283.915 21.6896C283.74 21.6435 283.57 21.5994 283.406 21.5572L288.07 33.4503C289.288 35.0636 292.742 38.8959 296.808 41.3186C300.873 43.7412 306.509 48.5566 308.107 50.56L307.987 49.3912Z" fill="url(#paint58_linear_21_15138)"/>
<g filter="url(#filter7_d_21_15138)">
<path d="M315.716 59.7699C315 59.092 308.228 52.7362 296.319 51.244C296.94 53.6357 300.832 59.6261 303.822 63.0468C306.812 66.4676 318.456 70.2368 324.855 71.8698C320.929 66.5594 316.431 60.4477 315.716 59.7699Z" fill="url(#paint59_linear_21_15138)"/>
<path fill-rule="evenodd" clip-rule="evenodd" d="M296.47 51.7256C296.408 51.5524 296.357 51.3913 296.319 51.244C308.229 52.7361 315 59.092 315.716 59.7698C316.372 60.3921 320.217 65.594 323.88 70.5512C324.208 70.9939 324.533 71.4345 324.855 71.8698C324.373 71.7467 323.861 71.6115 323.325 71.4653C314.918 66.3359 303.163 57.1889 296.47 51.7256Z" fill="url(#paint60_linear_21_15138)"/>
</g>
<path fill-rule="evenodd" clip-rule="evenodd" d="M336.624 63.5009C336.491 64.6061 336.414 65.9149 336.488 67.2771C336.687 70.9041 341.127 100.326 342.507 102.826C342.598 102.99 342.687 103.125 342.774 103.234C343.103 102.653 343.429 101.286 343.798 99.7353C344.027 98.7739 344.273 97.7419 344.546 96.7832C344.446 91.7329 344.144 89.1657 343.884 86.9645C343.647 84.9505 343.445 83.2429 343.468 80.22C343.057 75.1602 341.07 71.5807 338.574 67.0823C337.951 65.9583 337.295 64.777 336.624 63.5009Z" fill="url(#paint61_linear_21_15138)"/>
<path fill-rule="evenodd" clip-rule="evenodd" d="M346.616 108.959C349.122 103.883 350.997 96.928 350.619 88.0053C350.206 78.2312 350.291 72.75 350.543 69.8666C350.463 69.6113 350.387 69.3581 350.317 69.1069C348.781 71.6706 345.644 77.4507 345.38 80.0616C345.275 81.1059 345.505 83.318 345.798 86.1262C346.42 92.0945 347.323 100.755 345.877 106.618L346.616 108.959Z" fill="url(#paint62_linear_21_15138)"/>
<path fill-rule="evenodd" clip-rule="evenodd" d="M322.247 89.7482C325.274 91.6725 327.634 92.786 329.703 93.7622C333.961 95.7712 336.986 97.1986 342.059 103.914L344.655 110.043C344.562 110.031 344.462 110.018 344.355 110.002C336.185 105.275 326.728 95.1725 322.247 89.7482Z" fill="url(#paint63_linear_21_15138)"/>
<g filter="url(#filter8_d_21_15138)">
<path d="M348.308 115.888C347.494 116.156 347.516 115.9 345.174 116.449C336.661 118.442 325.539 111.443 320.98 104.935L329.321 104.542C342.016 104.396 347.174 111.696 348.308 115.888Z" fill="url(#paint64_linear_21_15138)"/>
<path fill-rule="evenodd" clip-rule="evenodd" d="M321.187 105.224C321.117 105.128 321.048 105.032 320.98 104.935L329.321 104.542C342.016 104.396 347.174 111.696 348.308 115.888C348.278 115.898 348.249 115.908 348.22 115.916C342.635 111.709 328.645 107.244 321.187 105.224Z" fill="url(#paint65_linear_21_15138)"/>
</g>
<g filter="url(#filter9_d_21_15138)">
<path d="M361.807 122.997C363.111 121.226 372.507 111.713 377.042 107.179C377.506 126.965 368.671 132.757 366.876 136.099C362.598 141.534 359.54 146.232 358.441 147.131L357.917 142.738C358.67 136.896 360.503 124.768 361.807 122.997Z" fill="url(#paint66_linear_21_15138)"/>
<path fill-rule="evenodd" clip-rule="evenodd" d="M377.047 107.489C377.341 123.221 371.722 130.012 368.591 133.797C367.834 134.712 367.222 135.451 366.875 136.098C364.924 138.576 363.227 140.901 361.854 142.782C360.461 144.69 359.402 146.142 358.747 146.835C359.504 137.241 370.376 118.031 377.047 107.489Z" fill="url(#paint67_linear_21_15138)"/>
</g>
<path fill-rule="evenodd" clip-rule="evenodd" d="M365.157 174.539C369.279 164.543 378.627 144.786 384.486 132.639C379.998 138.072 370.851 149.314 369.747 151.336C368.36 153.873 365.004 169.947 365.042 172.687C365.05 173.292 365.093 173.922 365.157 174.539Z" fill="url(#paint68_linear_21_15138)"/>
<g filter="url(#filter10_d_21_15138)">
<path d="M363.621 168.452C363.046 159.619 358.433 152.838 356.198 150.552L355.907 155.548C351.92 168.567 359.973 179.543 364.498 183.404C364.445 182.101 364.196 177.286 363.621 168.452Z" fill="url(#paint69_linear_21_15138)"/>
<path fill-rule="evenodd" clip-rule="evenodd" d="M356.253 150.611C358.614 155.226 360.784 163.73 361.249 178.766C362.414 180.498 363.428 181.982 364.307 183.24C364.371 183.296 364.434 183.35 364.497 183.404C364.444 182.101 364.195 177.287 363.62 168.453C363.049 159.694 358.509 152.953 356.253 150.611Z" fill="url(#paint70_linear_21_15138)"/>
</g>
<path fill-rule="evenodd" clip-rule="evenodd" d="M365.286 180.368C368.193 171.658 379.776 159.526 386.232 153.606C381.849 166.12 378.519 168.221 375.574 170.08C374.183 170.957 372.878 171.781 371.588 173.621C368.681 177.769 366.131 179.897 365.286 180.368Z" fill="url(#paint71_linear_21_15138)"/>
<path d="M308.149 49.2707C313.973 55.5237 329.25 74.6506 340.842 97.2628C349.162 113.493 352.957 119.488 361.12 150.68C363.05 158.057 366.8 176.968 366.356 193.602C367.008 204.107 365.235 231.874 352.932 258.907C349.423 266.707 340.679 283.989 333.77 290.718" stroke="#FADA81" stroke-width="0.844684"/>
<g filter="url(#filter11_d_21_15138)">
<path d="M362.246 195.894C360.056 190.723 359.884 186.825 359.207 185.816C355.248 196.047 354.382 205.999 354.094 207.973C353.865 209.553 359.275 218.98 362.009 223.497L365.246 205.246C363.992 198.878 364.843 202.022 362.246 195.894Z" fill="url(#paint72_linear_21_15138)"/>
<path fill-rule="evenodd" clip-rule="evenodd" d="M358.798 186.902C358.931 186.541 359.067 186.179 359.207 185.816C359.476 186.216 359.665 187.072 359.932 188.282C360.338 190.12 360.925 192.776 362.246 195.894C363.558 198.989 363.99 199.719 364.258 200.503C364.52 201.273 364.625 202.094 365.246 205.246L362.085 223.068C358.648 215.112 358.408 196.998 358.798 186.902Z" fill="url(#paint73_linear_21_15138)"/>
</g>
<g filter="url(#filter12_d_21_15138)">
<path d="M377.01 198.289C379.814 194.198 386.592 192.028 389.631 191.454C390.606 192.744 386.01 202.356 383.59 207.001C382.586 207.577 379.706 209.325 376.22 211.707C372.735 214.088 367.47 214.248 365.273 214.031C368.017 210.488 374.206 202.38 377.01 198.289Z" fill="url(#paint74_linear_21_15138)"/>
<path fill-rule="evenodd" clip-rule="evenodd" d="M366.796 214.101C366.202 214.099 365.684 214.072 365.273 214.031C368.017 210.488 374.206 202.38 377.01 198.289C379.814 194.198 386.592 192.028 389.631 191.454C389.658 191.489 389.68 191.531 389.699 191.579C387.374 196.062 380.959 203.932 366.796 214.101Z" fill="url(#paint75_linear_21_15138)"/>
</g>
<g filter="url(#filter13_d_21_15138)">
<path d="M361.787 236.996C365.598 234.777 377.021 234.18 382.256 234.16C375.449 243.984 374.354 241.525 369.019 245.225C364.752 248.186 359.945 245.994 358.076 244.527C357.725 242.942 357.976 239.216 361.787 236.996Z" fill="url(#paint76_linear_21_15138)"/>
<path fill-rule="evenodd" clip-rule="evenodd" d="M358.001 244.065C368.726 237.456 377.522 234.911 382.202 234.238C377.507 241 375.541 241.888 372.994 243.038C371.875 243.543 370.644 244.099 369.02 245.225C368.663 245.473 368.303 245.684 367.94 245.863C367.074 246.128 366.221 246.384 365.388 246.629C362.293 247.016 359.423 245.583 358.077 244.527C358.046 244.389 358.02 244.234 358.001 244.065Z" fill="url(#paint77_linear_21_15138)"/>
</g>
<path d="M114.201 174.122L114.201 134.722L20.2759 134.722C20.2759 159.347 37.8526 174.122 52.1337 174.122L114.201 174.122Z" fill="url(#paint78_linear_21_15138)"/>
<path d="M114.201 174.122L114.201 134.722L20.2759 134.722C20.2759 159.347 37.8526 174.122 52.1337 174.122L114.201 174.122Z" stroke="url(#paint79_linear_21_15138)" stroke-width="2.29412"/>
<path d="M147.352 209.144L147.352 169.744L53.4261 169.744C53.4261 194.369 71.0028 209.144 85.2839 209.144L147.352 209.144Z" fill="url(#paint80_linear_21_15138)"/>
<path d="M147.352 209.144L147.352 169.744L53.4261 169.744C53.4261 194.369 71.0028 209.144 85.2839 209.144L147.352 209.144Z" stroke="url(#paint81_linear_21_15138)" stroke-width="2.29412"/>
<path d="M321.149 174.122L321.149 134.722L415.075 134.722C415.075 159.347 397.498 174.122 383.217 174.122L321.149 174.122Z" fill="url(#paint82_linear_21_15138)"/>
<path d="M321.149 174.122L321.149 134.722L415.075 134.722C415.075 159.347 397.498 174.122 383.217 174.122L321.149 174.122Z" stroke="url(#paint83_linear_21_15138)" stroke-width="2.29412"/>
<path d="M287.999 209.143L287.999 169.744L381.925 169.744C381.925 194.369 364.348 209.143 350.067 209.143L287.999 209.143Z" fill="url(#paint84_linear_21_15138)"/>
<path d="M287.999 209.143L287.999 169.744L381.925 169.744C381.925 194.369 364.348 209.143 350.067 209.143L287.999 209.143Z" stroke="url(#paint85_linear_21_15138)" stroke-width="2.29412"/>
<g filter="url(#filter14_d_21_15138)">
<path fill-rule="evenodd" clip-rule="evenodd" d="M163.728 256.85V341.615L192.122 356.727C192.788 357.081 193.592 356.602 193.592 355.847C193.589 324.278 193.62 288.26 193.62 256.85H163.728Z" fill="#9CB7ED"/>
<path fill-rule="evenodd" clip-rule="evenodd" d="M163.728 256.85V341.615L192.122 356.727C192.788 357.081 193.592 356.602 193.592 355.847C193.589 324.278 193.62 288.26 193.62 256.85H163.728Z" stroke="url(#paint86_linear_21_15138)"/>
</g>
<path fill-rule="evenodd" clip-rule="evenodd" d="M166.201 337.82V304.556H165.655V338.271L165.883 338.308C166.638 338.433 167.477 338.875 168.163 339.522C168.848 340.168 169.355 340.995 169.481 341.866L169.502 342.011L191.599 353.216V315.654H191.053V352.365L169.997 341.644C169.818 340.679 169.253 339.803 168.54 339.13C167.856 338.485 167.015 338.008 166.201 337.82Z" fill="url(#paint87_linear_21_15138)"/>
<path fill-rule="evenodd" clip-rule="evenodd" d="M191.022 350.385C191.611 349.399 191.645 348 191.599 347.097L191.054 347.124C191.099 348.023 191.051 349.275 190.552 350.11C190.31 350.515 189.968 350.813 189.475 350.935C188.974 351.06 188.282 351.012 187.329 350.645L187.131 351.149C188.145 351.539 188.959 351.622 189.608 351.46C190.267 351.296 190.72 350.891 191.022 350.385Z" fill="#E3EFFB"/>
<g filter="url(#filter15_d_21_15138)">
<path fill-rule="evenodd" clip-rule="evenodd" d="M158.926 339.707V256.85H124.232V321.125C124.232 322.278 124.892 323.329 125.931 323.829L158.926 339.707Z" fill="#C6D9FF"/>
<path fill-rule="evenodd" clip-rule="evenodd" d="M158.926 339.707V256.85H124.232V321.125C124.232 322.278 124.892 323.329 125.931 323.829L158.926 339.707Z" stroke="url(#paint88_linear_21_15138)"/>
</g>
<path fill-rule="evenodd" clip-rule="evenodd" d="M126.803 319V279.749H126.158V319.532L126.427 319.577C127.318 319.724 128.309 320.246 129.118 321.009C129.927 321.771 130.525 322.747 130.673 323.775L130.698 323.946L156.773 336.042V292.845H156.128V335.038L131.283 323.512C131.071 322.375 130.404 321.34 129.563 320.547C128.756 319.785 127.764 319.223 126.803 319Z" fill="url(#paint89_linear_21_15138)"/>
<path fill-rule="evenodd" clip-rule="evenodd" d="M156.092 332.702C156.787 331.538 156.827 329.887 156.773 328.821L156.129 328.853C156.183 329.914 156.126 331.392 155.537 332.377C155.252 332.855 154.848 333.206 154.267 333.351C153.675 333.498 152.858 333.441 151.734 333.008L151.5 333.603C152.696 334.064 153.657 334.161 154.424 333.97C155.201 333.777 155.735 333.299 156.092 332.702Z" fill="#F2F9FF"/>
<g filter="url(#filter16_d_21_15138)">
<path fill-rule="evenodd" clip-rule="evenodd" d="M272.613 256.85V341.615L244.22 356.727C243.554 357.081 242.75 356.602 242.75 355.847C242.753 324.278 242.722 288.26 242.722 256.85H272.613Z" fill="#9CB7ED"/>
<path fill-rule="evenodd" clip-rule="evenodd" d="M272.613 256.85V341.615L244.22 356.727C243.554 357.081 242.75 356.602 242.75 355.847C242.753 324.278 242.722 288.26 242.722 256.85H272.613Z" stroke="url(#paint90_linear_21_15138)"/>
</g>
<path fill-rule="evenodd" clip-rule="evenodd" d="M270.141 337.82V304.556H270.687V338.271L270.459 338.308C269.704 338.433 268.864 338.875 268.178 339.522C267.493 340.168 266.986 340.995 266.861 341.866L266.84 342.011L244.742 353.216V315.654H245.288V352.365L266.344 341.644C266.524 340.679 267.089 339.803 267.802 339.13C268.486 338.485 269.326 338.008 270.141 337.82Z" fill="url(#paint91_linear_21_15138)"/>
<path fill-rule="evenodd" clip-rule="evenodd" d="M245.319 350.385C244.73 349.399 244.697 348 244.742 347.097L245.288 347.124C245.243 348.023 245.291 349.275 245.79 350.11C246.031 350.515 246.374 350.813 246.866 350.935C247.367 351.06 248.06 351.012 249.013 350.645L249.211 351.149C248.197 351.539 247.383 351.622 246.733 351.46C246.075 351.296 245.622 350.891 245.319 350.385Z" fill="#E3EFFB"/>
<g filter="url(#filter17_d_21_15138)">
<path fill-rule="evenodd" clip-rule="evenodd" d="M277.416 339.707V256.85H312.11V321.125C312.11 322.278 311.449 323.329 310.411 323.829L277.416 339.707Z" fill="#C6D9FF"/>
<path fill-rule="evenodd" clip-rule="evenodd" d="M277.416 339.707V256.85H312.11V321.125C312.11 322.278 311.449 323.329 310.411 323.829L277.416 339.707Z" stroke="url(#paint92_linear_21_15138)"/>
</g>
<path fill-rule="evenodd" clip-rule="evenodd" d="M309.539 319V279.749H310.183V319.532L309.914 319.577C309.023 319.724 308.032 320.246 307.223 321.009C306.415 321.771 305.817 322.747 305.668 323.775L305.644 323.946L279.569 336.042V292.845H280.213V335.038L305.059 323.512C305.271 322.375 305.937 321.34 306.779 320.547C307.586 319.785 308.578 319.223 309.539 319Z" fill="url(#paint93_linear_21_15138)"/>
<path fill-rule="evenodd" clip-rule="evenodd" d="M280.25 332.702C279.555 331.538 279.515 329.887 279.569 328.821L280.212 328.853C280.159 329.914 280.216 331.392 280.804 332.377C281.09 332.855 281.494 333.206 282.075 333.351C282.666 333.498 283.483 333.441 284.608 333.008L284.841 333.603C283.645 334.064 282.684 334.161 281.918 333.97C281.141 333.777 280.606 333.299 280.25 332.702Z" fill="#F2F9FF"/>
<g filter="url(#filter18_d_21_15138)">
<path d="M184.921 232.042H251.392V365.319L219.226 384.754C218.309 385.309 217.159 385.308 216.242 384.752L184.921 365.777V232.042Z" fill="#6A88C4"/>
<path d="M184.921 232.042H251.392V365.319L219.226 384.754C218.309 385.309 217.159 385.308 216.242 384.752L184.921 365.777V232.042Z" stroke="url(#paint94_linear_21_15138)" stroke-width="2"/>
</g>
<path fill-rule="evenodd" clip-rule="evenodd" d="M188.293 315.051H189.256V362.968L217.677 380.326L246.575 362.966V315.051H247.538V363.503L217.673 381.445L188.293 363.5V315.051Z" fill="url(#paint95_linear_21_15138)"/>
<path fill-rule="evenodd" clip-rule="evenodd" d="M218.091 360.849V378.159H217.254V360.849H218.091Z" fill="url(#paint96_linear_21_15138)"/>
<path fill-rule="evenodd" clip-rule="evenodd" d="M215.163 372.016C213.497 373.92 211.466 374.344 210.068 374.113L210.206 373.295C211.319 373.479 213.057 373.156 214.531 371.473C216.01 369.783 217.254 366.683 217.254 361.263H218.092C218.092 366.792 216.824 370.119 215.163 372.016Z" fill="url(#paint97_linear_21_15138)"/>
<path fill-rule="evenodd" clip-rule="evenodd" d="M220.183 372.016C221.85 373.92 223.88 374.344 225.278 374.113L225.141 373.295C224.027 373.479 222.289 373.156 220.816 371.473C219.336 369.783 218.092 366.683 218.092 361.263H217.254C217.254 366.792 218.522 370.119 220.183 372.016Z" fill="url(#paint98_linear_21_15138)"/>
<path fill-rule="evenodd" clip-rule="evenodd" d="M217.497 378.537L208.042 373.289L210.135 373.29L217.672 377.704L225.208 373.252H227.056L217.844 378.537C217.734 378.587 217.607 378.587 217.497 378.537Z" fill="url(#paint99_linear_21_15138)"/>
<g filter="url(#filter19_d_21_15138)">
<path d="M209.612 58.9205L106.194 114.64C100.69 117.606 97.2578 123.354 97.2578 129.606L97.2578 256.723C97.2578 262.975 100.69 268.723 106.194 271.689L209.612 327.408C214.645 330.12 220.705 330.12 225.739 327.408L329.156 271.689C334.66 268.723 338.092 262.975 338.092 256.723L338.092 129.606C338.092 123.354 334.66 117.606 329.156 114.64L225.739 58.9205C220.705 56.2085 214.645 56.2085 209.612 58.9205Z" fill="url(#paint100_linear_21_15138)"/>
<path d="M209.497 79.8949L124.464 125.71C118.98 128.664 115.561 134.39 115.561 140.619L115.561 245.228C115.561 251.457 118.98 257.183 124.464 260.138L209.497 305.952C214.512 308.654 220.549 308.654 225.564 305.952L310.597 260.138C316.081 257.183 319.5 251.457 319.5 245.228L319.5 140.619C319.5 134.39 316.081 128.664 310.597 125.71L225.564 79.8949C220.549 77.1931 214.512 77.1931 209.497 79.8949Z" fill="url(#paint101_linear_21_15138)"/>
<g filter="url(#filter20_f_21_15138)">
<path d="M209.497 79.8949L124.464 125.71C118.98 128.664 115.561 134.39 115.561 140.619L115.561 245.228C115.561 251.457 118.98 257.183 124.464 260.138L209.497 305.952C214.512 308.654 220.549 308.654 225.564 305.952L310.597 260.138C316.081 257.183 319.5 251.457 319.5 245.228L319.5 140.619C319.5 134.39 316.081 128.664 310.597 125.71L225.564 79.8949C220.549 77.1931 214.512 77.1931 209.497 79.8949Z" stroke="url(#paint102_linear_21_15138)"/>
</g>
<g opacity="0.5">
<mask id="mask0_21_15138" style="mask-type:alpha" maskUnits="userSpaceOnUse" x="124" y="87" width="189" height="212">
<path d="M210.521 89.2183L132.705 131.106C127.486 133.916 124.231 139.364 124.231 145.292L124.231 240.928C124.231 246.855 127.486 252.303 132.705 255.113L210.521 297.001C215.288 299.567 221.025 299.567 225.793 297.001L303.608 255.113C308.827 252.303 312.082 246.855 312.082 240.928L312.082 145.292C312.082 139.364 308.827 133.916 303.608 131.106L225.793 89.2183C221.025 86.6521 215.288 86.6521 210.521 89.2183Z" fill="#A6D3DE"/>
</mask>
<g mask="url(#mask0_21_15138)">
<path d="M210.521 89.2183L132.705 131.106C127.486 133.916 124.231 139.364 124.231 145.292L124.231 240.928C124.231 246.855 127.486 252.303 132.705 255.113L210.521 297.001C215.288 299.567 221.025 299.567 225.793 297.001L303.608 255.113C308.827 252.303 312.082 246.855 312.082 240.928L312.082 145.292C312.082 139.364 308.827 133.916 303.608 131.106L225.793 89.2183C221.025 86.6521 215.288 86.6521 210.521 89.2183Z" fill="url(#paint103_radial_21_15138)"/>
<path opacity="0.5" d="M202.455 305.378L198.724 80.8308H237.59L233.858 305.378H202.455Z" fill="url(#paint104_linear_21_15138)"/>
<path opacity="0.5" d="M201.955 303.386L85.3657 110.77L119.024 91.5235L229.151 287.835L201.955 303.386Z" fill="url(#paint105_linear_21_15138)"/>
<path opacity="0.5" d="M198.716 287.835L308.843 91.5234L342.502 110.77L225.912 303.386L198.716 287.835Z" fill="url(#paint106_linear_21_15138)"/>
<rect x="124.231" y="180.273" width="187.851" height="120.828" fill="url(#paint107_linear_21_15138)"/>
<g filter="url(#filter21_i_21_15138)">
<path d="M210.521 89.2183L132.705 131.106C127.486 133.916 124.231 139.364 124.231 145.292L124.231 240.928C124.231 246.855 127.486 252.303 132.705 255.113L210.521 297.001C215.288 299.567 221.025 299.567 225.793 297.001L303.608 255.113C308.827 252.303 312.082 246.855 312.082 240.928L312.082 145.292C312.082 139.364 308.827 133.916 303.608 131.106L225.793 89.2183C221.025 86.6521 215.288 86.6521 210.521 89.2183Z" fill="#6052B4" fill-opacity="0.01"/>
</g>
</g>
</g>
<g filter="url(#filter22_i_21_15138)">
<path d="M166.91 184.013C166.91 185.733 166.437 187.281 165.491 188.657C164.574 190.033 163.226 191.137 161.449 191.968C159.672 192.799 157.536 193.244 155.042 193.301V196.741H152.376V193.215C149.051 192.9 146.356 191.896 144.292 190.205C142.228 188.514 141.096 186.192 140.895 183.239H151.043C151.129 184.414 151.573 185.217 152.376 185.647V181.433C149.882 180.745 147.904 180.114 146.442 179.541C145.009 178.968 143.704 178.022 142.529 176.703C141.382 175.384 140.809 173.593 140.809 171.328C140.809 169.465 141.325 167.859 142.357 166.512C143.389 165.136 144.779 164.075 146.528 163.33C148.277 162.585 150.226 162.169 152.376 162.083V158.6H155.042V162.083C158.453 162.312 161.148 163.273 163.126 164.964C165.104 166.627 166.193 168.934 166.394 171.887H156.117C156.002 170.798 155.644 170.067 155.042 169.694V173.865C156.045 174.152 156.518 174.295 156.461 174.295C158.611 174.954 160.374 175.614 161.75 176.273C163.155 176.904 164.359 177.85 165.362 179.111C166.394 180.372 166.91 182.006 166.91 184.013ZM151.043 170.898C151.043 171.643 151.487 172.274 152.376 172.79V169.35C151.487 169.522 151.043 170.038 151.043 170.898ZM155.042 186.034C156.16 185.805 156.719 185.203 156.719 184.228C156.719 183.483 156.16 182.852 155.042 182.336V186.034ZM168.116 170.511V161.567H182.693V193H172.674V170.511H168.116ZM209.542 169.952H197.072V173.564C197.617 173.077 198.319 172.69 199.179 172.403C200.068 172.116 201.057 171.973 202.146 171.973C204.096 171.973 205.744 172.432 207.091 173.349C208.439 174.266 209.442 175.499 210.101 177.047C210.761 178.566 211.09 180.258 211.09 182.121C211.09 185.561 210.116 188.241 208.166 190.162C206.246 192.054 203.594 193 200.211 193C197.746 193 195.61 192.57 193.804 191.71C192.027 190.85 190.665 189.66 189.719 188.141C188.802 186.622 188.372 184.887 188.429 182.938H197.717C197.717 183.397 197.875 183.827 198.19 184.228C198.506 184.629 199.022 184.83 199.738 184.83C200.455 184.83 200.985 184.572 201.329 184.056C201.673 183.54 201.845 182.838 201.845 181.949C201.845 181.118 201.645 180.487 201.243 180.057C200.871 179.627 200.326 179.412 199.609 179.412C199.007 179.412 198.549 179.555 198.233 179.842C197.918 180.129 197.76 180.458 197.76 180.831H188.472V161.567H209.542V169.952ZM213.763 176.832C213.763 171.873 214.809 167.974 216.902 165.136C219.023 162.298 222.277 160.879 226.663 160.879C231.02 160.879 234.26 162.312 236.381 165.179C238.502 168.017 239.563 171.901 239.563 176.832C239.563 181.791 238.502 185.704 236.381 188.571C234.26 191.409 231.02 192.828 226.663 192.828C222.277 192.828 219.023 191.409 216.902 188.571C214.809 185.704 213.763 181.791 213.763 176.832ZM230.146 176.832C230.146 174.539 229.917 172.819 229.458 171.672C228.999 170.497 228.068 169.909 226.663 169.909C225.23 169.909 224.284 170.497 223.825 171.672C223.366 172.819 223.137 174.539 223.137 176.832C223.137 179.154 223.366 180.903 223.825 182.078C224.284 183.225 225.23 183.798 226.663 183.798C228.068 183.798 228.999 183.225 229.458 182.078C229.917 180.903 230.146 179.154 230.146 176.832ZM241.804 176.832C241.804 171.873 242.85 167.974 244.943 165.136C247.064 162.298 250.318 160.879 254.704 160.879C259.061 160.879 262.3 162.312 264.422 165.179C266.543 168.017 267.604 171.901 267.604 176.832C267.604 181.791 266.543 185.704 264.422 188.571C262.3 191.409 259.061 192.828 254.704 192.828C250.318 192.828 247.064 191.409 244.943 188.571C242.85 185.704 241.804 181.791 241.804 176.832ZM258.187 176.832C258.187 174.539 257.957 172.819 257.499 171.672C257.04 170.497 256.108 169.909 254.704 169.909C253.27 169.909 252.324 170.497 251.866 171.672C251.407 172.819 251.178 174.539 251.178 176.832C251.178 179.154 251.407 180.903 251.866 182.078C252.324 183.225 253.27 183.798 254.704 183.798C256.108 183.798 257.04 183.225 257.499 182.078C257.957 180.903 258.187 179.154 258.187 176.832ZM269.844 176.832C269.844 171.873 270.891 167.974 272.983 165.136C275.105 162.298 278.358 160.879 282.744 160.879C287.102 160.879 290.341 162.312 292.462 165.179C294.584 168.017 295.644 171.901 295.644 176.832C295.644 181.791 294.584 185.704 292.462 188.571C290.341 191.409 287.102 192.828 282.744 192.828C278.358 192.828 275.105 191.409 272.983 188.571C270.891 185.704 269.844 181.791 269.844 176.832ZM286.227 176.832C286.227 174.539 285.998 172.819 285.539 171.672C285.081 170.497 284.149 169.909 282.744 169.909C281.311 169.909 280.365 170.497 279.906 171.672C279.448 172.819 279.218 174.539 279.218 176.832C279.218 179.154 279.448 180.903 279.906 182.078C280.365 183.225 281.311 183.798 282.744 183.798C284.149 183.798 285.081 183.225 285.539 182.078C285.998 180.903 286.227 179.154 286.227 176.832ZM145.967 224.196C143.597 224.196 141.637 223.645 140.087 222.544C138.557 221.424 137.726 219.791 137.595 217.644H144.203C144.297 218.783 144.801 219.352 145.715 219.352C146.051 219.352 146.331 219.277 146.555 219.128C146.798 218.96 146.919 218.708 146.919 218.372C146.919 217.905 146.667 217.532 146.163 217.252C145.659 216.953 144.875 216.617 143.811 216.244C142.542 215.796 141.487 215.357 140.647 214.928C139.826 214.499 139.117 213.873 138.519 213.052C137.922 212.231 137.633 211.176 137.651 209.888C137.651 208.6 137.978 207.508 138.631 206.612C139.303 205.697 140.209 205.007 141.347 204.54C142.505 204.073 143.802 203.84 145.239 203.84C147.666 203.84 149.589 204.4 151.007 205.52C152.445 206.64 153.201 208.217 153.275 210.252H146.583C146.565 209.692 146.425 209.291 146.163 209.048C145.902 208.805 145.585 208.684 145.211 208.684C144.95 208.684 144.735 208.777 144.567 208.964C144.399 209.132 144.315 209.375 144.315 209.692C144.315 210.14 144.558 210.513 145.043 210.812C145.547 211.092 146.341 211.437 147.423 211.848C148.674 212.315 149.701 212.763 150.503 213.192C151.325 213.621 152.034 214.219 152.631 214.984C153.229 215.749 153.527 216.711 153.527 217.868C153.527 219.081 153.229 220.173 152.631 221.144C152.034 222.096 151.166 222.843 150.027 223.384C148.889 223.925 147.535 224.196 145.967 224.196ZM158.567 206.948C157.485 206.948 156.617 206.659 155.963 206.08C155.31 205.501 154.983 204.773 154.983 203.896C154.983 203 155.31 202.263 155.963 201.684C156.617 201.087 157.485 200.788 158.567 200.788C159.631 200.788 160.49 201.087 161.143 201.684C161.797 202.263 162.123 203 162.123 203.896C162.123 204.773 161.797 205.501 161.143 206.08C160.49 206.659 159.631 206.948 158.567 206.948ZM161.647 208.208V224H155.431V208.208H161.647ZM170.391 203.28V224H164.175V203.28H170.391ZM180.926 218.092L183.446 208.208H190.054L184.79 224H177.034L171.77 208.208H178.378L180.926 218.092ZM206.711 215.964C206.711 216.393 206.683 216.804 206.627 217.196H196.631C196.725 218.559 197.294 219.24 198.339 219.24C199.011 219.24 199.497 218.932 199.795 218.316H206.375C206.151 219.436 205.675 220.444 204.947 221.34C204.238 222.217 203.333 222.917 202.231 223.44C201.149 223.944 199.954 224.196 198.647 224.196C197.079 224.196 195.679 223.869 194.447 223.216C193.234 222.563 192.282 221.629 191.591 220.416C190.919 219.184 190.583 217.747 190.583 216.104C190.583 214.461 190.919 213.033 191.591 211.82C192.282 210.588 193.234 209.645 194.447 208.992C195.679 208.339 197.079 208.012 198.647 208.012C200.215 208.012 201.606 208.339 202.819 208.992C204.051 209.627 205.003 210.541 205.675 211.736C206.366 212.931 206.711 214.34 206.711 215.964ZM200.411 214.48C200.411 213.957 200.243 213.565 199.907 213.304C199.571 213.024 199.151 212.884 198.647 212.884C197.546 212.884 196.902 213.416 196.715 214.48H200.411ZM214.613 211.12C215.248 210.205 216.023 209.477 216.937 208.936C217.852 208.376 218.804 208.096 219.793 208.096V214.732H218.029C216.853 214.732 215.985 214.937 215.425 215.348C214.884 215.759 214.613 216.487 214.613 217.532V224H208.397V208.208H214.613V211.12ZM246.355 210.98C246.355 212.231 246.066 213.369 245.487 214.396C244.909 215.404 244.05 216.207 242.911 216.804C241.791 217.401 240.429 217.7 238.823 217.7H236.359V224H230.143V204.176H238.823C241.25 204.176 243.107 204.792 244.395 206.024C245.702 207.256 246.355 208.908 246.355 210.98ZM238.123 212.8C239.411 212.8 240.055 212.193 240.055 210.98C240.055 209.767 239.411 209.16 238.123 209.16H236.359V212.8H238.123ZM254.263 211.12C254.897 210.205 255.672 209.477 256.587 208.936C257.501 208.376 258.453 208.096 259.443 208.096V214.732H257.679C256.503 214.732 255.635 214.937 255.075 215.348C254.533 215.759 254.263 216.487 254.263 217.532V224H248.047V208.208H254.263V211.12ZM263.973 206.948C262.89 206.948 262.022 206.659 261.369 206.08C260.716 205.501 260.389 204.773 260.389 203.896C260.389 203 260.716 202.263 261.369 201.684C262.022 201.087 262.89 200.788 263.973 200.788C265.037 200.788 265.896 201.087 266.549 201.684C267.202 202.263 267.529 203 267.529 203.896C267.529 204.773 267.202 205.501 266.549 206.08C265.896 206.659 265.037 206.948 263.973 206.948ZM267.053 208.208V224H260.837V208.208H267.053ZM275.545 218.848H282.125V224H268.741V219.128L274.761 213.36H268.825V208.208H281.845V213.08L275.545 218.848ZM299.081 215.964C299.081 216.393 299.053 216.804 298.997 217.196H289.001C289.094 218.559 289.663 219.24 290.709 219.24C291.381 219.24 291.866 218.932 292.165 218.316H298.745C298.521 219.436 298.045 220.444 297.317 221.34C296.607 222.217 295.702 222.917 294.601 223.44C293.518 223.944 292.323 224.196 291.017 224.196C289.449 224.196 288.049 223.869 286.817 223.216C285.603 222.563 284.651 221.629 283.961 220.416C283.289 219.184 282.953 217.747 282.953 216.104C282.953 214.461 283.289 213.033 283.961 211.82C284.651 210.588 285.603 209.645 286.817 208.992C288.049 208.339 289.449 208.012 291.017 208.012C292.585 208.012 293.975 208.339 295.189 208.992C296.421 209.627 297.373 210.541 298.045 211.736C298.735 212.931 299.081 214.34 299.081 215.964ZM292.781 214.48C292.781 213.957 292.613 213.565 292.277 213.304C291.941 213.024 291.521 212.884 291.017 212.884C289.915 212.884 289.271 213.416 289.085 214.48H292.781Z" fill="url(#paint108_linear_21_15138)"/>
</g>
</g>
<defs>
<filter id="filter0_d_21_15138" x="117.723" y="51.2441" width="30.7674" height="23.9727" filterUnits="userSpaceOnUse" color-interpolation-filters="sRGB">
<feFlood flood-opacity="0" result="BackgroundImageFix"/>
<feColorMatrix in="SourceAlpha" type="matrix" values="0 0 0 0 0 0 0 0 0 0 0 0 0 0 0 0 0 0 127 0" result="hardAlpha"/>
<feOffset dy="2.23124"/>
<feGaussianBlur stdDeviation="0.557811"/>
<feColorMatrix type="matrix" values="0 0 0 0 0.541667 0 0 0 0 0.336104 0 0 0 0 0.0947917 0 0 0 0.25 0"/>
<feBlend mode="normal" in2="BackgroundImageFix" result="effect1_dropShadow_21_15138"/>
<feBlend mode="normal" in="SourceGraphic" in2="effect1_dropShadow_21_15138" result="shape"/>
</filter>
<filter id="filter1_d_21_15138" x="94.2752" y="104.542" width="29.5589" height="15.6013" filterUnits="userSpaceOnUse" color-interpolation-filters="sRGB">
<feFlood flood-opacity="0" result="BackgroundImageFix"/>
<feColorMatrix in="SourceAlpha" type="matrix" values="0 0 0 0 0 0 0 0 0 0 0 0 0 0 0 0 0 0 127 0" result="hardAlpha"/>
<feOffset dy="2.23124"/>
<feGaussianBlur stdDeviation="0.557811"/>
<feColorMatrix type="matrix" values="0 0 0 0 0.541667 0 0 0 0 0.336104 0 0 0 0 0.0947917 0 0 0 0.25 0"/>
<feBlend mode="normal" in2="BackgroundImageFix" result="effect1_dropShadow_21_15138"/>
<feBlend mode="normal" in="SourceGraphic" in2="effect1_dropShadow_21_15138" result="shape"/>
</filter>
<filter id="filter2_d_21_15138" x="66.6348" y="107.179" width="22.4897" height="43.2988" filterUnits="userSpaceOnUse" color-interpolation-filters="sRGB">
<feFlood flood-opacity="0" result="BackgroundImageFix"/>
<feColorMatrix in="SourceAlpha" type="matrix" values="0 0 0 0 0 0 0 0 0 0 0 0 0 0 0 0 0 0 127 0" result="hardAlpha"/>
<feOffset dx="2.23124" dy="2.23124"/>
<feGaussianBlur stdDeviation="0.557811"/>
<feColorMatrix type="matrix" values="0 0 0 0 0.541667 0 0 0 0 0.336104 0 0 0 0 0.0947917 0 0 0 0.25 0"/>
<feBlend mode="normal" in2="BackgroundImageFix" result="effect1_dropShadow_21_15138"/>
<feBlend mode="normal" in="SourceGraphic" in2="effect1_dropShadow_21_15138" result="shape"/>
</filter>
<filter id="filter3_d_21_15138" x="78.0816" y="150.552" width="11.8977" height="36.1988" filterUnits="userSpaceOnUse" color-interpolation-filters="sRGB">
<feFlood flood-opacity="0" result="BackgroundImageFix"/>
<feColorMatrix in="SourceAlpha" type="matrix" values="0 0 0 0 0 0 0 0 0 0 0 0 0 0 0 0 0 0 127 0" result="hardAlpha"/>
<feOffset dy="2.23124"/>
<feGaussianBlur stdDeviation="0.557811"/>
<feColorMatrix type="matrix" values="0 0 0 0 0.541667 0 0 0 0 0.336104 0 0 0 0 0.0947917 0 0 0 0.25 0"/>
<feBlend mode="normal" in2="BackgroundImageFix" result="effect1_dropShadow_21_15138"/>
<feBlend mode="normal" in="SourceGraphic" in2="effect1_dropShadow_21_15138" result="shape"/>
</filter>
<filter id="filter4_d_21_15138" x="77.3336" y="185.816" width="13.3894" height="41.0277" filterUnits="userSpaceOnUse" color-interpolation-filters="sRGB">
<feFlood flood-opacity="0" result="BackgroundImageFix"/>
<feColorMatrix in="SourceAlpha" type="matrix" values="0 0 0 0 0 0 0 0 0 0 0 0 0 0 0 0 0 0 127 0" result="hardAlpha"/>
<feOffset dy="2.23124"/>
<feGaussianBlur stdDeviation="0.557811"/>
<feColorMatrix type="matrix" values="0 0 0 0 0.541667 0 0 0 0 0.336104 0 0 0 0 0.0947917 0 0 0 0.25 0"/>
<feBlend mode="normal" in2="BackgroundImageFix" result="effect1_dropShadow_21_15138"/>
<feBlend mode="normal" in="SourceGraphic" in2="effect1_dropShadow_21_15138" result="shape"/>
</filter>
<filter id="filter5_d_21_15138" x="53.9312" y="191.454" width="27.8383" height="25.9944" filterUnits="userSpaceOnUse" color-interpolation-filters="sRGB">
<feFlood flood-opacity="0" result="BackgroundImageFix"/>
<feColorMatrix in="SourceAlpha" type="matrix" values="0 0 0 0 0 0 0 0 0 0 0 0 0 0 0 0 0 0 127 0" result="hardAlpha"/>
<feOffset dx="2.23124" dy="2.23124"/>
<feGaussianBlur stdDeviation="0.557811"/>
<feColorMatrix type="matrix" values="0 0 0 0 0.541667 0 0 0 0 0.336104 0 0 0 0 0.0947917 0 0 0 0.25 0"/>
<feBlend mode="normal" in2="BackgroundImageFix" result="effect1_dropShadow_21_15138"/>
<feBlend mode="normal" in="SourceGraphic" in2="effect1_dropShadow_21_15138" result="shape"/>
</filter>
<filter id="filter6_d_21_15138" x="60.3214" y="234.16" width="26.5259" height="15.8807" filterUnits="userSpaceOnUse" color-interpolation-filters="sRGB">
<feFlood flood-opacity="0" result="BackgroundImageFix"/>
<feColorMatrix in="SourceAlpha" type="matrix" values="0 0 0 0 0 0 0 0 0 0 0 0 0 0 0 0 0 0 127 0" result="hardAlpha"/>
<feOffset dy="2.23124"/>
<feGaussianBlur stdDeviation="0.557811"/>
<feColorMatrix type="matrix" values="0 0 0 0 0.541667 0 0 0 0 0.336104 0 0 0 0 0.0947917 0 0 0 0.25 0"/>
<feBlend mode="normal" in2="BackgroundImageFix" result="effect1_dropShadow_21_15138"/>
<feBlend mode="normal" in="SourceGraphic" in2="effect1_dropShadow_21_15138" result="shape"/>
</filter>
<filter id="filter7_d_21_15138" x="295.203" y="51.244" width="30.7674" height="23.9727" filterUnits="userSpaceOnUse" color-interpolation-filters="sRGB">
<feFlood flood-opacity="0" result="BackgroundImageFix"/>
<feColorMatrix in="SourceAlpha" type="matrix" values="0 0 0 0 0 0 0 0 0 0 0 0 0 0 0 0 0 0 127 0" result="hardAlpha"/>
<feOffset dy="2.23124"/>
<feGaussianBlur stdDeviation="0.557811"/>
<feColorMatrix type="matrix" values="0 0 0 0 0.541667 0 0 0 0 0.336104 0 0 0 0 0.0947917 0 0 0 0.25 0"/>
<feBlend mode="normal" in2="BackgroundImageFix" result="effect1_dropShadow_21_15138"/>
<feBlend mode="normal" in="SourceGraphic" in2="effect1_dropShadow_21_15138" result="shape"/>
</filter>
<filter id="filter8_d_21_15138" x="319.865" y="104.54" width="29.5589" height="15.601" filterUnits="userSpaceOnUse" color-interpolation-filters="sRGB">
<feFlood flood-opacity="0" result="BackgroundImageFix"/>
<feColorMatrix in="SourceAlpha" type="matrix" values="0 0 0 0 0 0 0 0 0 0 0 0 0 0 0 0 0 0 127 0" result="hardAlpha"/>
<feOffset dy="2.23124"/>
<feGaussianBlur stdDeviation="0.557811"/>
<feColorMatrix type="matrix" values="0 0 0 0 0.541667 0 0 0 0 0.336104 0 0 0 0 0.0947917 0 0 0 0.25 0"/>
<feBlend mode="normal" in2="BackgroundImageFix" result="effect1_dropShadow_21_15138"/>
<feBlend mode="normal" in="SourceGraphic" in2="effect1_dropShadow_21_15138" result="shape"/>
</filter>
<filter id="filter9_d_21_15138" x="357.917" y="107.179" width="22.4897" height="43.2988" filterUnits="userSpaceOnUse" color-interpolation-filters="sRGB">
<feFlood flood-opacity="0" result="BackgroundImageFix"/>
<feColorMatrix in="SourceAlpha" type="matrix" values="0 0 0 0 0 0 0 0 0 0 0 0 0 0 0 0 0 0 127 0" result="hardAlpha"/>
<feOffset dx="2.23124" dy="2.23124"/>
<feGaussianBlur stdDeviation="0.557811"/>
<feColorMatrix type="matrix" values="0 0 0 0 0.541667 0 0 0 0 0.336104 0 0 0 0 0.0947917 0 0 0 0.25 0"/>
<feBlend mode="normal" in2="BackgroundImageFix" result="effect1_dropShadow_21_15138"/>
<feBlend mode="normal" in="SourceGraphic" in2="effect1_dropShadow_21_15138" result="shape"/>
</filter>
<filter id="filter10_d_21_15138" x="353.716" y="150.552" width="11.8977" height="36.1988" filterUnits="userSpaceOnUse" color-interpolation-filters="sRGB">
<feFlood flood-opacity="0" result="BackgroundImageFix"/>
<feColorMatrix in="SourceAlpha" type="matrix" values="0 0 0 0 0 0 0 0 0 0 0 0 0 0 0 0 0 0 127 0" result="hardAlpha"/>
<feOffset dy="2.23124"/>
<feGaussianBlur stdDeviation="0.557811"/>
<feColorMatrix type="matrix" values="0 0 0 0 0.541667 0 0 0 0 0.336104 0 0 0 0 0.0947917 0 0 0 0.25 0"/>
<feBlend mode="normal" in2="BackgroundImageFix" result="effect1_dropShadow_21_15138"/>
<feBlend mode="normal" in="SourceGraphic" in2="effect1_dropShadow_21_15138" result="shape"/>
</filter>
<filter id="filter11_d_21_15138" x="352.972" y="185.816" width="13.3894" height="41.0274" filterUnits="userSpaceOnUse" color-interpolation-filters="sRGB">
<feFlood flood-opacity="0" result="BackgroundImageFix"/>
<feColorMatrix in="SourceAlpha" type="matrix" values="0 0 0 0 0 0 0 0 0 0 0 0 0 0 0 0 0 0 127 0" result="hardAlpha"/>
<feOffset dy="2.23124"/>
<feGaussianBlur stdDeviation="0.557811"/>
<feColorMatrix type="matrix" values="0 0 0 0 0.541667 0 0 0 0 0.336104 0 0 0 0 0.0947917 0 0 0 0.25 0"/>
<feBlend mode="normal" in2="BackgroundImageFix" result="effect1_dropShadow_21_15138"/>
<feBlend mode="normal" in="SourceGraphic" in2="effect1_dropShadow_21_15138" result="shape"/>
</filter>
<filter id="filter12_d_21_15138" x="365.273" y="191.454" width="27.8383" height="25.9946" filterUnits="userSpaceOnUse" color-interpolation-filters="sRGB">
<feFlood flood-opacity="0" result="BackgroundImageFix"/>
<feColorMatrix in="SourceAlpha" type="matrix" values="0 0 0 0 0 0 0 0 0 0 0 0 0 0 0 0 0 0 127 0" result="hardAlpha"/>
<feOffset dx="2.23124" dy="2.23124"/>
<feGaussianBlur stdDeviation="0.557811"/>
<feColorMatrix type="matrix" values="0 0 0 0 0.541667 0 0 0 0 0.336104 0 0 0 0 0.0947917 0 0 0 0.25 0"/>
<feBlend mode="normal" in2="BackgroundImageFix" result="effect1_dropShadow_21_15138"/>
<feBlend mode="normal" in="SourceGraphic" in2="effect1_dropShadow_21_15138" result="shape"/>
</filter>
<filter id="filter13_d_21_15138" x="356.846" y="234.16" width="26.5259" height="15.8807" filterUnits="userSpaceOnUse" color-interpolation-filters="sRGB">
<feFlood flood-opacity="0" result="BackgroundImageFix"/>
<feColorMatrix in="SourceAlpha" type="matrix" values="0 0 0 0 0 0 0 0 0 0 0 0 0 0 0 0 0 0 127 0" result="hardAlpha"/>
<feOffset dy="2.23124"/>
<feGaussianBlur stdDeviation="0.557811"/>
<feColorMatrix type="matrix" values="0 0 0 0 0.541667 0 0 0 0 0.336104 0 0 0 0 0.0947917 0 0 0 0.25 0"/>
<feBlend mode="normal" in2="BackgroundImageFix" result="effect1_dropShadow_21_15138"/>
<feBlend mode="normal" in="SourceGraphic" in2="effect1_dropShadow_21_15138" result="shape"/>
</filter>
<filter id="filter14_d_21_15138" x="155.229" y="248.35" width="46.8911" height="116.997" filterUnits="userSpaceOnUse" color-interpolation-filters="sRGB">
<feFlood flood-opacity="0" result="BackgroundImageFix"/>
<feColorMatrix in="SourceAlpha" type="matrix" values="0 0 0 0 0 0 0 0 0 0 0 0 0 0 0 0 0 0 127 0" result="hardAlpha"/>
<feOffset/>
<feGaussianBlur stdDeviation="4"/>
<feColorMatrix type="matrix" values="0 0 0 0 0.288889 0 0 0 0 0.357333 0 0 0 0 0.533333 0 0 0 0.74 0"/>
<feBlend mode="normal" in2="BackgroundImageFix" result="effect1_dropShadow_21_15138"/>
<feBlend mode="normal" in="SourceGraphic" in2="effect1_dropShadow_21_15138" result="shape"/>
</filter>
<filter id="filter15_d_21_15138" x="115.732" y="248.35" width="51.6938" height="100.153" filterUnits="userSpaceOnUse" color-interpolation-filters="sRGB">
<feFlood flood-opacity="0" result="BackgroundImageFix"/>
<feColorMatrix in="SourceAlpha" type="matrix" values="0 0 0 0 0 0 0 0 0 0 0 0 0 0 0 0 0 0 127 0" result="hardAlpha"/>
<feOffset/>
<feGaussianBlur stdDeviation="4"/>
<feColorMatrix type="matrix" values="0 0 0 0 0.288889 0 0 0 0 0.357333 0 0 0 0 0.533333 0 0 0 0.74 0"/>
<feBlend mode="normal" in2="BackgroundImageFix" result="effect1_dropShadow_21_15138"/>
<feBlend mode="normal" in="SourceGraphic" in2="effect1_dropShadow_21_15138" result="shape"/>
</filter>
<filter id="filter16_d_21_15138" x="234.222" y="248.35" width="46.8911" height="116.997" filterUnits="userSpaceOnUse" color-interpolation-filters="sRGB">
<feFlood flood-opacity="0" result="BackgroundImageFix"/>
<feColorMatrix in="SourceAlpha" type="matrix" values="0 0 0 0 0 0 0 0 0 0 0 0 0 0 0 0 0 0 127 0" result="hardAlpha"/>
<feOffset/>
<feGaussianBlur stdDeviation="4"/>
<feColorMatrix type="matrix" values="0 0 0 0 0.288889 0 0 0 0 0.357333 0 0 0 0 0.533333 0 0 0 0.74 0"/>
<feBlend mode="normal" in2="BackgroundImageFix" result="effect1_dropShadow_21_15138"/>
<feBlend mode="normal" in="SourceGraphic" in2="effect1_dropShadow_21_15138" result="shape"/>
</filter>
<filter id="filter17_d_21_15138" x="268.916" y="248.35" width="51.6938" height="100.153" filterUnits="userSpaceOnUse" color-interpolation-filters="sRGB">
<feFlood flood-opacity="0" result="BackgroundImageFix"/>
<feColorMatrix in="SourceAlpha" type="matrix" values="0 0 0 0 0 0 0 0 0 0 0 0 0 0 0 0 0 0 127 0" result="hardAlpha"/>
<feOffset/>
<feGaussianBlur stdDeviation="4"/>
<feColorMatrix type="matrix" values="0 0 0 0 0.288889 0 0 0 0 0.357333 0 0 0 0 0.533333 0 0 0 0.74 0"/>
<feBlend mode="normal" in2="BackgroundImageFix" result="effect1_dropShadow_21_15138"/>
<feBlend mode="normal" in="SourceGraphic" in2="effect1_dropShadow_21_15138" result="shape"/>
</filter>
<filter id="filter18_d_21_15138" x="175.921" y="223.042" width="84.4702" height="171.127" filterUnits="userSpaceOnUse" color-interpolation-filters="sRGB">
<feFlood flood-opacity="0" result="BackgroundImageFix"/>
<feColorMatrix in="SourceAlpha" type="matrix" values="0 0 0 0 0 0 0 0 0 0 0 0 0 0 0 0 0 0 127 0" result="hardAlpha"/>
<feOffset/>
<feGaussianBlur stdDeviation="4"/>
<feColorMatrix type="matrix" values="0 0 0 0 0.288889 0 0 0 0 0.357333 0 0 0 0 0.533333 0 0 0 0.8 0"/>
<feBlend mode="normal" in2="BackgroundImageFix" result="effect1_dropShadow_21_15138"/>
<feBlend mode="normal" in="SourceGraphic" in2="effect1_dropShadow_21_15138" result="shape"/>
</filter>
<filter id="filter19_d_21_15138" x="91.2578" y="56.8865" width="252.834" height="286.556" filterUnits="userSpaceOnUse" color-interpolation-filters="sRGB">
<feFlood flood-opacity="0" result="BackgroundImageFix"/>
<feColorMatrix in="SourceAlpha" type="matrix" values="0 0 0 0 0 0 0 0 0 0 0 0 0 0 0 0 0 0 127 0" result="hardAlpha"/>
<feOffset dy="8"/>
<feGaussianBlur stdDeviation="3"/>
<feColorMatrix type="matrix" values="0 0 0 0 0.141181 0 0 0 0 0.190317 0 0 0 0 0.316667 0 0 0 0.51 0"/>
<feBlend mode="normal" in2="BackgroundImageFix" result="effect1_dropShadow_21_15138"/>
<feBlend mode="normal" in="SourceGraphic" in2="effect1_dropShadow_21_15138" result="shape"/>
</filter>
<filter id="filter20_f_21_15138" x="114.761" y="77.0685" width="205.539" height="231.71" filterUnits="userSpaceOnUse" color-interpolation-filters="sRGB">
<feFlood flood-opacity="0" result="BackgroundImageFix"/>
<feBlend mode="normal" in="SourceGraphic" in2="BackgroundImageFix" result="shape"/>
<feGaussianBlur stdDeviation="0.15" result="effect1_foregroundBlur_21_15138"/>
</filter>
<filter id="filter21_i_21_15138" x="124.231" y="87.2937" width="187.851" height="211.632" filterUnits="userSpaceOnUse" color-interpolation-filters="sRGB">
<feFlood flood-opacity="0" result="BackgroundImageFix"/>
<feBlend mode="normal" in="SourceGraphic" in2="BackgroundImageFix" result="shape"/>
<feColorMatrix in="SourceAlpha" type="matrix" values="0 0 0 0 0 0 0 0 0 0 0 0 0 0 0 0 0 0 127 0" result="hardAlpha"/>
<feOffset/>
<feGaussianBlur stdDeviation="6.72414"/>
<feComposite in2="hardAlpha" operator="arithmetic" k2="-1" k3="1"/>
<feColorMatrix type="matrix" values="0 0 0 0 0.297222 0 0 0 0 0.329917 0 0 0 0 0.445833 0 0 0 1 0"/>
<feBlend mode="normal" in2="shape" result="effect1_innerShadow_21_15138"/>
</filter>
<filter id="filter22_i_21_15138" x="137.595" y="158.6" width="161.485" height="69.5961" filterUnits="userSpaceOnUse" color-interpolation-filters="sRGB">
<feFlood flood-opacity="0" result="BackgroundImageFix"/>
<feBlend mode="normal" in="SourceGraphic" in2="BackgroundImageFix" result="shape"/>
<feColorMatrix in="SourceAlpha" type="matrix" values="0 0 0 0 0 0 0 0 0 0 0 0 0 0 0 0 0 0 127 0" result="hardAlpha"/>
<feOffset dy="4"/>
<feGaussianBlur stdDeviation="2"/>
<feComposite in2="hardAlpha" operator="arithmetic" k2="-1" k3="1"/>
<feColorMatrix type="matrix" values="0 0 0 0 0 0 0 0 0 0 0 0 0 0 0 0 0 0 0.25 0"/>
<feBlend mode="normal" in2="shape" result="effect1_innerShadow_21_15138"/>
</filter>
<linearGradient id="paint0_linear_21_15138" x1="81.6106" y1="227.97" x2="73.7377" y2="238.595" gradientUnits="userSpaceOnUse">
<stop stop-color="#D2AB68"/>
<stop offset="1" stop-color="#B67D3F"/>
</linearGradient>
<linearGradient id="paint1_linear_21_15138" x1="115.036" y1="69.0171" x2="92.5899" y2="99.3104" gradientUnits="userSpaceOnUse">
<stop stop-color="#D2AB68"/>
<stop offset="1" stop-color="#B67D3F"/>
</linearGradient>
<linearGradient id="paint2_linear_21_15138" x1="138.371" y1="59.4178" x2="122.766" y2="80.4787" gradientUnits="userSpaceOnUse">
<stop stop-color="#D2AB68"/>
<stop offset="1" stop-color="#B67D3F"/>
</linearGradient>
<linearGradient id="paint3_linear_21_15138" x1="80.6978" y1="147.78" x2="89.019" y2="151.252" gradientUnits="userSpaceOnUse">
<stop stop-color="#D2AB68"/>
<stop offset="1" stop-color="#B67D3F"/>
</linearGradient>
<linearGradient id="paint4_linear_21_15138" x1="133.701" y1="73.5718" x2="121.011" y2="47.821" gradientUnits="userSpaceOnUse">
<stop stop-color="#D2AB68"/>
<stop offset="1" stop-color="#B67D3F"/>
</linearGradient>
<linearGradient id="paint5_linear_21_15138" x1="124.139" y1="44.5249" x2="117.165" y2="71.7778" gradientUnits="userSpaceOnUse">
<stop stop-color="#F7E6B3"/>
<stop offset="1" stop-color="#F7E6B3" stop-opacity="0"/>
</linearGradient>
<linearGradient id="paint6_linear_21_15138" x1="105.467" y1="147.011" x2="78.0772" y2="183.977" gradientUnits="userSpaceOnUse">
<stop stop-color="#D2AB68"/>
<stop offset="1" stop-color="#B67D3F"/>
</linearGradient>
<linearGradient id="paint7_linear_21_15138" x1="99.2483" y1="151.279" x2="107.689" y2="174.412" gradientUnits="userSpaceOnUse">
<stop stop-color="#F7E6B3"/>
<stop offset="1" stop-color="#F7E6B3" stop-opacity="0"/>
</linearGradient>
<linearGradient id="paint8_linear_21_15138" x1="91.8834" y1="111.782" x2="77.3196" y2="131.438" gradientUnits="userSpaceOnUse">
<stop stop-color="#D2AB68"/>
<stop offset="1" stop-color="#B67D3F"/>
</linearGradient>
<linearGradient id="paint9_linear_21_15138" x1="89.1727" y1="123.108" x2="82.644" y2="135.361" gradientUnits="userSpaceOnUse">
<stop stop-color="#C18E42"/>
<stop offset="1" stop-color="#D2AB68"/>
</linearGradient>
<linearGradient id="paint10_linear_21_15138" x1="104.371" y1="77.2539" x2="85.956" y2="102.108" gradientUnits="userSpaceOnUse">
<stop stop-color="#D2AB68"/>
<stop offset="1" stop-color="#8E573C"/>
</linearGradient>
<linearGradient id="paint11_linear_21_15138" x1="119.122" y1="87.9307" x2="101.429" y2="111.81" gradientUnits="userSpaceOnUse">
<stop stop-color="#D2AB68"/>
<stop offset="1" stop-color="#B67D3F"/>
</linearGradient>
<linearGradient id="paint12_linear_21_15138" x1="71.2939" y1="161.578" x2="64.8077" y2="170.332" gradientUnits="userSpaceOnUse">
<stop stop-color="#D2AB68"/>
<stop offset="1" stop-color="#B67D3F"/>
</linearGradient>
<linearGradient id="paint13_linear_21_15138" x1="76.2603" y1="145.248" x2="60.9743" y2="165.878" gradientUnits="userSpaceOnUse">
<stop stop-color="#C28766"/>
<stop offset="1" stop-color="#8E573C"/>
</linearGradient>
<linearGradient id="paint14_linear_21_15138" x1="100.05" y1="195.083" x2="80.0697" y2="222.048" gradientUnits="userSpaceOnUse">
<stop stop-color="#D2AB68"/>
<stop offset="1" stop-color="#B67D3F"/>
</linearGradient>
<linearGradient id="paint15_linear_21_15138" x1="79.1224" y1="188.383" x2="66.4844" y2="205.44" gradientUnits="userSpaceOnUse">
<stop stop-color="#D2AB68"/>
<stop offset="1" stop-color="#B67D3F"/>
</linearGradient>
<linearGradient id="paint16_linear_21_15138" x1="81.3726" y1="187.283" x2="66.5011" y2="207.353" gradientUnits="userSpaceOnUse">
<stop stop-color="#FADA81"/>
<stop offset="1" stop-color="#B67D3F"/>
</linearGradient>
<linearGradient id="paint17_linear_21_15138" x1="79.1065" y1="242.721" x2="72.968" y2="251.006" gradientUnits="userSpaceOnUse">
<stop stop-color="#D2AB68"/>
<stop offset="1" stop-color="#B67D3F"/>
</linearGradient>
<linearGradient id="paint18_linear_21_15138" x1="157.763" y1="19.6864" x2="135.737" y2="49.4134" gradientUnits="userSpaceOnUse">
<stop stop-color="#FCF1D5"/>
<stop offset="1" stop-color="#EBCE6A"/>
</linearGradient>
<linearGradient id="paint19_linear_21_15138" x1="160.298" y1="21.5654" x2="138.272" y2="51.2925" gradientUnits="userSpaceOnUse">
<stop stop-color="#D2AB68"/>
<stop offset="1" stop-color="#B67D3F"/>
</linearGradient>
<linearGradient id="paint20_linear_21_15138" x1="144.178" y1="48.8753" x2="124.198" y2="75.8408" gradientUnits="userSpaceOnUse">
<stop stop-color="#D2AB68"/>
<stop offset="1" stop-color="#B67D3F"/>
</linearGradient>
<linearGradient id="paint21_linear_21_15138" x1="138.79" y1="51.358" x2="139.495" y2="77.1916" gradientUnits="userSpaceOnUse">
<stop stop-color="#F7E6B3"/>
<stop offset="1" stop-color="#F7E6B3" stop-opacity="0"/>
</linearGradient>
<linearGradient id="paint22_linear_21_15138" x1="109.011" y1="71.8016" x2="102.619" y2="102.832" gradientUnits="userSpaceOnUse">
<stop stop-color="#F7E6B3"/>
<stop offset="1" stop-color="#F7E6B3" stop-opacity="0"/>
</linearGradient>
<linearGradient id="paint23_linear_21_15138" x1="98.0477" y1="78.3214" x2="87.8442" y2="104.683" gradientUnits="userSpaceOnUse">
<stop stop-color="#F7E6B3"/>
<stop offset="1" stop-color="#F7E6B3" stop-opacity="0"/>
</linearGradient>
<linearGradient id="paint24_linear_21_15138" x1="114.85" y1="90.5735" x2="115.269" y2="108.15" gradientUnits="userSpaceOnUse">
<stop stop-color="#FFDD78"/>
<stop offset="1" stop-color="#FFF1C8" stop-opacity="0.38"/>
</linearGradient>
<linearGradient id="paint25_linear_21_15138" x1="116.401" y1="100.256" x2="100.874" y2="121.211" gradientUnits="userSpaceOnUse">
<stop stop-color="#D2AB68"/>
<stop offset="1" stop-color="#B67D3F"/>
</linearGradient>
<linearGradient id="paint26_linear_21_15138" x1="116.659" y1="99.9442" x2="97.7771" y2="119.212" gradientUnits="userSpaceOnUse">
<stop stop-color="#FFDA92"/>
<stop offset="1" stop-color="#DCBA84"/>
</linearGradient>
<linearGradient id="paint27_linear_21_15138" x1="72.3535" y1="111.403" x2="82.6677" y2="141.634" gradientUnits="userSpaceOnUse">
<stop stop-color="#F7E6B3"/>
<stop offset="1" stop-color="#BC8647"/>
</linearGradient>
<linearGradient id="paint28_linear_21_15138" x1="82.044" y1="118.894" x2="69.7071" y2="135.544" gradientUnits="userSpaceOnUse">
<stop stop-color="#D2AB68"/>
<stop offset="1" stop-color="#8E573C"/>
</linearGradient>
<linearGradient id="paint29_linear_21_15138" x1="68.3878" y1="143.712" x2="57.9715" y2="162.652" gradientUnits="userSpaceOnUse">
<stop stop-color="#F7E6B3"/>
<stop offset="1" stop-color="#F7E6B3" stop-opacity="0"/>
</linearGradient>
<linearGradient id="paint30_linear_21_15138" x1="92.961" y1="154.6" x2="74.3049" y2="179.779" gradientUnits="userSpaceOnUse">
<stop stop-color="#D2AB68"/>
<stop offset="1" stop-color="#B67D3F"/>
</linearGradient>
<linearGradient id="paint31_linear_21_15138" x1="87.5319" y1="150.175" x2="79.1652" y2="181.738" gradientUnits="userSpaceOnUse">
<stop stop-color="#E0C087"/>
<stop offset="0.28125" stop-color="#FFE49E"/>
<stop offset="1" stop-color="#753C1D"/>
</linearGradient>
<linearGradient id="paint32_linear_21_15138" x1="65.4529" y1="161.872" x2="58.4278" y2="168.85" gradientUnits="userSpaceOnUse">
<stop stop-color="#B18253"/>
<stop offset="1" stop-color="#F7E6B3" stop-opacity="0"/>
</linearGradient>
<linearGradient id="paint33_linear_21_15138" x1="92.7135" y1="191.911" x2="73.6962" y2="217.577" gradientUnits="userSpaceOnUse">
<stop stop-color="#D2AB68"/>
<stop offset="1" stop-color="#B67D3F"/>
</linearGradient>
<linearGradient id="paint34_linear_21_15138" x1="87.1033" y1="193.859" x2="79.5014" y2="221.794" gradientUnits="userSpaceOnUse">
<stop stop-color="#F7E6B3"/>
<stop offset="1" stop-color="#F7E6B3" stop-opacity="0"/>
</linearGradient>
<linearGradient id="paint35_linear_21_15138" x1="68.8943" y1="199.233" x2="62.0635" y2="208.452" gradientUnits="userSpaceOnUse">
<stop stop-color="#D2AB68"/>
<stop offset="1" stop-color="#B67D3F"/>
</linearGradient>
<linearGradient id="paint36_linear_21_15138" x1="66.1149" y1="197.363" x2="71.7749" y2="210.975" gradientUnits="userSpaceOnUse">
<stop stop-color="#FADA81"/>
<stop offset="1" stop-color="#9A5E33"/>
</linearGradient>
<linearGradient id="paint37_linear_21_15138" x1="77.7036" y1="233.815" x2="70.5375" y2="243.486" gradientUnits="userSpaceOnUse">
<stop stop-color="#FADA81"/>
<stop offset="1" stop-color="#B67D3F"/>
</linearGradient>
<linearGradient id="paint38_linear_21_15138" x1="78.0282" y1="238.063" x2="69.9226" y2="249.003" gradientUnits="userSpaceOnUse">
<stop stop-color="#D2AB68"/>
<stop offset="1" stop-color="#B67D3F"/>
</linearGradient>
<linearGradient id="paint39_linear_21_15138" x1="362.083" y1="227.97" x2="369.956" y2="238.595" gradientUnits="userSpaceOnUse">
<stop stop-color="#D2AB68"/>
<stop offset="1" stop-color="#B67D3F"/>
</linearGradient>
<linearGradient id="paint40_linear_21_15138" x1="328.658" y1="69.017" x2="351.104" y2="99.3104" gradientUnits="userSpaceOnUse">
<stop stop-color="#D2AB68"/>
<stop offset="1" stop-color="#B67D3F"/>
</linearGradient>
<linearGradient id="paint41_linear_21_15138" x1="305.323" y1="59.4177" x2="320.928" y2="80.4785" gradientUnits="userSpaceOnUse">
<stop stop-color="#D2AB68"/>
<stop offset="1" stop-color="#B67D3F"/>
</linearGradient>
<linearGradient id="paint42_linear_21_15138" x1="362.996" y1="147.781" x2="354.675" y2="151.253" gradientUnits="userSpaceOnUse">
<stop stop-color="#D2AB68"/>
<stop offset="1" stop-color="#B67D3F"/>
</linearGradient>
<linearGradient id="paint43_linear_21_15138" x1="309.993" y1="73.5719" x2="322.683" y2="47.8211" gradientUnits="userSpaceOnUse">
<stop stop-color="#D2AB68"/>
<stop offset="1" stop-color="#B67D3F"/>
</linearGradient>
<linearGradient id="paint44_linear_21_15138" x1="319.555" y1="44.5249" x2="326.53" y2="71.7779" gradientUnits="userSpaceOnUse">
<stop stop-color="#F7E6B3"/>
<stop offset="1" stop-color="#F7E6B3" stop-opacity="0"/>
</linearGradient>
<linearGradient id="paint45_linear_21_15138" x1="338.226" y1="147.011" x2="365.616" y2="183.977" gradientUnits="userSpaceOnUse">
<stop stop-color="#D2AB68"/>
<stop offset="1" stop-color="#B67D3F"/>
</linearGradient>
<linearGradient id="paint46_linear_21_15138" x1="344.444" y1="151.28" x2="336.004" y2="174.416" gradientUnits="userSpaceOnUse">
<stop stop-color="#F7E6B3"/>
<stop offset="1" stop-color="#F7E6B3" stop-opacity="0"/>
</linearGradient>
<linearGradient id="paint47_linear_21_15138" x1="351.81" y1="111.783" x2="366.373" y2="131.439" gradientUnits="userSpaceOnUse">
<stop stop-color="#D2AB68"/>
<stop offset="1" stop-color="#B67D3F"/>
</linearGradient>
<linearGradient id="paint48_linear_21_15138" x1="354.522" y1="123.109" x2="361.05" y2="135.362" gradientUnits="userSpaceOnUse">
<stop stop-color="#C18E42"/>
<stop offset="1" stop-color="#D2AB68"/>
</linearGradient>
<linearGradient id="paint49_linear_21_15138" x1="339.321" y1="77.2538" x2="357.737" y2="102.108" gradientUnits="userSpaceOnUse">
<stop stop-color="#D2AB68"/>
<stop offset="1" stop-color="#8E573C"/>
</linearGradient>
<linearGradient id="paint50_linear_21_15138" x1="324.574" y1="87.9306" x2="342.267" y2="111.81" gradientUnits="userSpaceOnUse">
<stop stop-color="#D2AB68"/>
<stop offset="1" stop-color="#B67D3F"/>
</linearGradient>
<linearGradient id="paint51_linear_21_15138" x1="372.399" y1="161.578" x2="378.885" y2="170.332" gradientUnits="userSpaceOnUse">
<stop stop-color="#D2AB68"/>
<stop offset="1" stop-color="#B67D3F"/>
</linearGradient>
<linearGradient id="paint52_linear_21_15138" x1="367.433" y1="145.248" x2="382.719" y2="165.878" gradientUnits="userSpaceOnUse">
<stop stop-color="#C28766"/>
<stop offset="1" stop-color="#8E573C"/>
</linearGradient>
<linearGradient id="paint53_linear_21_15138" x1="343.643" y1="195.083" x2="363.623" y2="222.048" gradientUnits="userSpaceOnUse">
<stop stop-color="#D2AB68"/>
<stop offset="1" stop-color="#B67D3F"/>
</linearGradient>
<linearGradient id="paint54_linear_21_15138" x1="364.572" y1="188.384" x2="377.21" y2="205.441" gradientUnits="userSpaceOnUse">
<stop stop-color="#D2AB68"/>
<stop offset="1" stop-color="#B67D3F"/>
</linearGradient>
<linearGradient id="paint55_linear_21_15138" x1="362.322" y1="187.284" x2="377.193" y2="207.355" gradientUnits="userSpaceOnUse">
<stop stop-color="#FADA81"/>
<stop offset="1" stop-color="#B67D3F"/>
</linearGradient>
<linearGradient id="paint56_linear_21_15138" x1="364.587" y1="242.721" x2="370.726" y2="251.006" gradientUnits="userSpaceOnUse">
<stop stop-color="#D2AB68"/>
<stop offset="1" stop-color="#B67D3F"/>
</linearGradient>
<linearGradient id="paint57_linear_21_15138" x1="285.929" y1="19.6864" x2="307.955" y2="49.4133" gradientUnits="userSpaceOnUse">
<stop stop-color="#FCF1D5"/>
<stop offset="1" stop-color="#EBCE6A"/>
</linearGradient>
<linearGradient id="paint58_linear_21_15138" x1="283.394" y1="21.5654" x2="305.421" y2="51.2925" gradientUnits="userSpaceOnUse">
<stop stop-color="#D2AB68"/>
<stop offset="1" stop-color="#B67D3F"/>
</linearGradient>
<linearGradient id="paint59_linear_21_15138" x1="299.516" y1="48.8752" x2="319.496" y2="75.8406" gradientUnits="userSpaceOnUse">
<stop stop-color="#D2AB68"/>
<stop offset="1" stop-color="#B67D3F"/>
</linearGradient>
<linearGradient id="paint60_linear_21_15138" x1="304.904" y1="51.3579" x2="304.199" y2="77.1915" gradientUnits="userSpaceOnUse">
<stop stop-color="#F7E6B3"/>
<stop offset="1" stop-color="#F7E6B3" stop-opacity="0"/>
</linearGradient>
<linearGradient id="paint61_linear_21_15138" x1="334.685" y1="71.8037" x2="341.077" y2="102.832" gradientUnits="userSpaceOnUse">
<stop stop-color="#F7E6B3"/>
<stop offset="1" stop-color="#F7E6B3" stop-opacity="0"/>
</linearGradient>
<linearGradient id="paint62_linear_21_15138" x1="345.645" y1="78.3209" x2="355.848" y2="104.68" gradientUnits="userSpaceOnUse">
<stop stop-color="#F7E6B3"/>
<stop offset="1" stop-color="#F7E6B3" stop-opacity="0"/>
</linearGradient>
<linearGradient id="paint63_linear_21_15138" x1="328.849" y1="90.5763" x2="328.43" y2="108.151" gradientUnits="userSpaceOnUse">
<stop stop-color="#FFDD78"/>
<stop offset="1" stop-color="#FFF1C8" stop-opacity="0.38"/>
</linearGradient>
<linearGradient id="paint64_linear_21_15138" x1="327.298" y1="100.254" x2="342.825" y2="121.209" gradientUnits="userSpaceOnUse">
<stop stop-color="#D2AB68"/>
<stop offset="1" stop-color="#B67D3F"/>
</linearGradient>
<linearGradient id="paint65_linear_21_15138" x1="327.039" y1="99.9426" x2="345.922" y2="119.21" gradientUnits="userSpaceOnUse">
<stop stop-color="#FFDA92"/>
<stop offset="1" stop-color="#DCBA84"/>
</linearGradient>
<linearGradient id="paint66_linear_21_15138" x1="371.341" y1="111.403" x2="361.027" y2="141.634" gradientUnits="userSpaceOnUse">
<stop stop-color="#F7E6B3"/>
<stop offset="1" stop-color="#BC8647"/>
</linearGradient>
<linearGradient id="paint67_linear_21_15138" x1="361.653" y1="118.895" x2="373.988" y2="135.542" gradientUnits="userSpaceOnUse">
<stop stop-color="#D2AB68"/>
<stop offset="1" stop-color="#8E573C"/>
</linearGradient>
<linearGradient id="paint68_linear_21_15138" x1="375.31" y1="143.713" x2="385.726" y2="162.653" gradientUnits="userSpaceOnUse">
<stop stop-color="#F7E6B3"/>
<stop offset="1" stop-color="#F7E6B3" stop-opacity="0"/>
</linearGradient>
<linearGradient id="paint69_linear_21_15138" x1="350.734" y1="154.6" x2="369.39" y2="179.779" gradientUnits="userSpaceOnUse">
<stop stop-color="#D2AB68"/>
<stop offset="1" stop-color="#B67D3F"/>
</linearGradient>
<linearGradient id="paint70_linear_21_15138" x1="356.163" y1="150.176" x2="364.529" y2="181.738" gradientUnits="userSpaceOnUse">
<stop stop-color="#E0C087"/>
<stop offset="0.28125" stop-color="#FFE49E"/>
<stop offset="1" stop-color="#753C1D"/>
</linearGradient>
<linearGradient id="paint71_linear_21_15138" x1="378.242" y1="161.873" x2="385.268" y2="168.851" gradientUnits="userSpaceOnUse">
<stop stop-color="#B18253"/>
<stop offset="1" stop-color="#F7E6B3" stop-opacity="0"/>
</linearGradient>
<linearGradient id="paint72_linear_21_15138" x1="350.981" y1="191.911" x2="369.998" y2="217.577" gradientUnits="userSpaceOnUse">
<stop stop-color="#D2AB68"/>
<stop offset="1" stop-color="#B67D3F"/>
</linearGradient>
<linearGradient id="paint73_linear_21_15138" x1="356.591" y1="193.86" x2="364.194" y2="221.795" gradientUnits="userSpaceOnUse">
<stop stop-color="#F7E6B3"/>
<stop offset="1" stop-color="#F7E6B3" stop-opacity="0"/>
</linearGradient>
<linearGradient id="paint74_linear_21_15138" x1="374.801" y1="199.233" x2="381.632" y2="208.452" gradientUnits="userSpaceOnUse">
<stop stop-color="#D2AB68"/>
<stop offset="1" stop-color="#B67D3F"/>
</linearGradient>
<linearGradient id="paint75_linear_21_15138" x1="377.581" y1="197.363" x2="371.92" y2="210.975" gradientUnits="userSpaceOnUse">
<stop stop-color="#FADA81"/>
<stop offset="1" stop-color="#9A5E33"/>
</linearGradient>
<linearGradient id="paint76_linear_21_15138" x1="365.989" y1="233.814" x2="373.155" y2="243.486" gradientUnits="userSpaceOnUse">
<stop stop-color="#FADA81"/>
<stop offset="1" stop-color="#B67D3F"/>
</linearGradient>
<linearGradient id="paint77_linear_21_15138" x1="365.665" y1="238.063" x2="373.771" y2="249.003" gradientUnits="userSpaceOnUse">
<stop stop-color="#D2AB68"/>
<stop offset="1" stop-color="#B67D3F"/>
</linearGradient>
<linearGradient id="paint78_linear_21_15138" x1="77.7362" y1="174.122" x2="44.3576" y2="140.421" gradientUnits="userSpaceOnUse">
<stop stop-color="#C3C5D1"/>
<stop offset="0.875" stop-color="#F9F9F9"/>
</linearGradient>
<linearGradient id="paint79_linear_21_15138" x1="25.801" y1="134.722" x2="57.4732" y2="174.419" gradientUnits="userSpaceOnUse">
<stop stop-color="#F9F9F9"/>
<stop offset="0.378992" stop-color="#F9F9F9"/>
<stop offset="0.480868" stop-color="#DFDFE6"/>
<stop offset="0.729174" stop-color="#B8BAC6"/>
</linearGradient>
<linearGradient id="paint80_linear_21_15138" x1="100.941" y1="204.219" x2="67.573" y2="169.423" gradientUnits="userSpaceOnUse">
<stop stop-color="#C3C5D1"/>
<stop offset="0.875" stop-color="#F9F9F9"/>
</linearGradient>
<linearGradient id="paint81_linear_21_15138" x1="58.3986" y1="169.744" x2="75.2626" y2="204.347" gradientUnits="userSpaceOnUse">
<stop stop-color="#F4F4F5"/>
<stop offset="0.306027" stop-color="#F4F4F5"/>
<stop offset="0.462087" stop-color="#E8E9EC"/>
<stop offset="0.682292" stop-color="#DFDFE6"/>
<stop offset="1" stop-color="#B8BAC6"/>
</linearGradient>
<linearGradient id="paint82_linear_21_15138" x1="357.615" y1="174.122" x2="390.993" y2="140.42" gradientUnits="userSpaceOnUse">
<stop stop-color="#C3C5D1"/>
<stop offset="0.875" stop-color="#F9F9F9"/>
</linearGradient>
<linearGradient id="paint83_linear_21_15138" x1="409.55" y1="134.722" x2="377.878" y2="174.419" gradientUnits="userSpaceOnUse">
<stop stop-color="#F9F9F9"/>
<stop offset="0.378992" stop-color="#F9F9F9"/>
<stop offset="0.480868" stop-color="#DFDFE6"/>
<stop offset="0.729174" stop-color="#B8BAC6"/>
</linearGradient>
<linearGradient id="paint84_linear_21_15138" x1="334.41" y1="204.218" x2="367.778" y2="169.423" gradientUnits="userSpaceOnUse">
<stop stop-color="#C3C5D1"/>
<stop offset="0.875" stop-color="#F9F9F9"/>
</linearGradient>
<linearGradient id="paint85_linear_21_15138" x1="376.952" y1="169.744" x2="360.088" y2="204.347" gradientUnits="userSpaceOnUse">
<stop stop-color="#F4F4F5"/>
<stop offset="0.306027" stop-color="#F4F4F5"/>
<stop offset="0.462087" stop-color="#E8E9EC"/>
<stop offset="0.682292" stop-color="#DFDFE6"/>
<stop offset="1" stop-color="#B8BAC6"/>
</linearGradient>
<linearGradient id="paint86_linear_21_15138" x1="193.62" y1="324.623" x2="162.134" y2="329.544" gradientUnits="userSpaceOnUse">
<stop stop-color="#91B1E3"/>
<stop offset="0.208702" stop-color="#F0F6FF"/>
<stop offset="0.514766" stop-color="#A4BFE9"/>
<stop offset="0.728274" stop-color="#8BADE0"/>
<stop offset="0.971703" stop-color="#D0DEF3"/>
</linearGradient>
<linearGradient id="paint87_linear_21_15138" x1="166.879" y1="332.047" x2="182.468" y2="327.355" gradientUnits="userSpaceOnUse">
<stop stop-color="#FAFCFF"/>
<stop offset="0.309893" stop-color="#D7E6FC"/>
<stop offset="0.523799" stop-color="#C1D8F4"/>
<stop offset="0.77229" stop-color="#BBD6FF"/>
<stop offset="1" stop-color="white"/>
</linearGradient>
<linearGradient id="paint88_linear_21_15138" x1="123.268" y1="304.556" x2="160.064" y2="346.18" gradientUnits="userSpaceOnUse">
<stop stop-color="#91B1E3"/>
<stop offset="0.208702" stop-color="#F0F6FF"/>
<stop offset="0.648432" stop-color="#A4BFE9"/>
<stop offset="0.780206" stop-color="#8BADE0"/>
<stop offset="0.971703" stop-color="#93B3E4"/>
</linearGradient>
<linearGradient id="paint89_linear_21_15138" x1="127.603" y1="312.189" x2="145.998" y2="306.652" gradientUnits="userSpaceOnUse">
<stop stop-color="#FAFCFF"/>
<stop offset="0.309893" stop-color="#D7E6FC"/>
<stop offset="0.523799" stop-color="#C1D8F4"/>
<stop offset="0.77229" stop-color="#BBD6FF"/>
<stop offset="1" stop-color="white"/>
</linearGradient>
<linearGradient id="paint90_linear_21_15138" x1="242.722" y1="324.623" x2="274.208" y2="329.544" gradientUnits="userSpaceOnUse">
<stop stop-color="#91B1E3"/>
<stop offset="0.208702" stop-color="#F0F6FF"/>
<stop offset="0.514766" stop-color="#A4BFE9"/>
<stop offset="0.728274" stop-color="#8BADE0"/>
<stop offset="0.971703" stop-color="#D0DEF3"/>
</linearGradient>
<linearGradient id="paint91_linear_21_15138" x1="269.463" y1="332.047" x2="253.873" y2="327.355" gradientUnits="userSpaceOnUse">
<stop stop-color="#FAFCFF"/>
<stop offset="0.309893" stop-color="#D7E6FC"/>
<stop offset="0.523799" stop-color="#C1D8F4"/>
<stop offset="0.77229" stop-color="#BBD6FF"/>
<stop offset="1" stop-color="white"/>
</linearGradient>
<linearGradient id="paint92_linear_21_15138" x1="313.073" y1="304.556" x2="276.277" y2="346.18" gradientUnits="userSpaceOnUse">
<stop stop-color="#91B1E3"/>
<stop offset="0.208702" stop-color="#F0F6FF"/>
<stop offset="0.648432" stop-color="#A4BFE9"/>
<stop offset="0.780206" stop-color="#8BADE0"/>
<stop offset="0.971703" stop-color="#93B3E4"/>
</linearGradient>
<linearGradient id="paint93_linear_21_15138" x1="308.739" y1="312.189" x2="290.343" y2="306.652" gradientUnits="userSpaceOnUse">
<stop stop-color="#FAFCFF"/>
<stop offset="0.309893" stop-color="#D7E6FC"/>
<stop offset="0.523799" stop-color="#C1D8F4"/>
<stop offset="0.77229" stop-color="#BBD6FF"/>
<stop offset="1" stop-color="white"/>
</linearGradient>
<linearGradient id="paint94_linear_21_15138" x1="184.921" y1="341.289" x2="253.463" y2="356.066" gradientUnits="userSpaceOnUse">
<stop stop-color="#91B1E3"/>
<stop offset="0.208702" stop-color="#F0F6FF"/>
<stop offset="0.648432" stop-color="#A4BFE9"/>
<stop offset="0.780206" stop-color="#8BADE0"/>
<stop offset="0.971703" stop-color="#93B3E4"/>
</linearGradient>
<linearGradient id="paint95_linear_21_15138" x1="244.742" y1="353.312" x2="213.531" y2="337.898" gradientUnits="userSpaceOnUse">
<stop stop-color="#FAFCFF"/>
<stop offset="0.309893" stop-color="#D7E6FC"/>
<stop offset="0.523799" stop-color="#C1D8F4"/>
<stop offset="0.77229" stop-color="#BBD6FF"/>
<stop offset="1" stop-color="white"/>
</linearGradient>
<linearGradient id="paint96_linear_21_15138" x1="217.672" y1="360.849" x2="217.672" y2="377.021" gradientUnits="userSpaceOnUse">
<stop stop-color="#6A88C3"/>
<stop offset="0.479167" stop-color="#E4EFFD"/>
<stop offset="1" stop-color="#E1ECFD"/>
</linearGradient>
<linearGradient id="paint97_linear_21_15138" x1="214.08" y1="361.263" x2="214.08" y2="374.17" gradientUnits="userSpaceOnUse">
<stop stop-color="#E2F5FF" stop-opacity="0"/>
<stop offset="0.479167" stop-color="#B6CAFE"/>
<stop offset="1" stop-color="#CCD7FF"/>
</linearGradient>
<linearGradient id="paint98_linear_21_15138" x1="221.266" y1="361.263" x2="221.266" y2="374.17" gradientUnits="userSpaceOnUse">
<stop stop-color="#E2F5FF" stop-opacity="0"/>
<stop offset="0.479167" stop-color="#B6CAFE"/>
<stop offset="1" stop-color="#CCD7FF"/>
</linearGradient>
<linearGradient id="paint99_linear_21_15138" x1="216.658" y1="375.072" x2="205.798" y2="376.37" gradientUnits="userSpaceOnUse">
<stop stop-color="#C9DEFC"/>
<stop offset="0.309893" stop-color="#ECF4FF"/>
<stop offset="0.523799" stop-color="#EAF6FF"/>
<stop offset="0.613641" stop-color="#CCE7FF"/>
<stop offset="1" stop-color="#CEE4F9"/>
</linearGradient>
<linearGradient id="paint100_linear_21_15138" x1="167.1" y1="87.9703" x2="273.822" y2="302.04" gradientUnits="userSpaceOnUse">
<stop stop-color="#FAFAFA"/>
<stop offset="1" stop-color="#C2C4CD"/>
</linearGradient>
<linearGradient id="paint101_linear_21_15138" x1="166.136" y1="105.622" x2="258.198" y2="277.151" gradientUnits="userSpaceOnUse">
<stop stop-color="#CDCFD6"/>
<stop offset="1" stop-color="#EFEFF1"/>
</linearGradient>
<linearGradient id="paint102_linear_21_15138" x1="176.251" y1="99.4198" x2="275.449" y2="279.604" gradientUnits="userSpaceOnUse">
<stop stop-color="#DDDFE2"/>
<stop offset="1" stop-color="white"/>
</linearGradient>
<radialGradient id="paint103_radial_21_15138" cx="0" cy="0" r="1" gradientUnits="userSpaceOnUse" gradientTransform="translate(218.157 193.11) rotate(90) scale(108.002 93.9255)">
<stop stop-color="#F5F7FF"/>
<stop offset="1" stop-color="#B3B5C5"/>
</radialGradient>
<linearGradient id="paint104_linear_21_15138" x1="218.157" y1="80.8308" x2="218.157" y2="305.378" gradientUnits="userSpaceOnUse">
<stop stop-color="white"/>
<stop offset="1" stop-color="#F2EDED" stop-opacity="0"/>
</linearGradient>
<linearGradient id="paint105_linear_21_15138" x1="102.195" y1="101.147" x2="213.926" y2="296.541" gradientUnits="userSpaceOnUse">
<stop stop-color="white"/>
<stop offset="1" stop-color="#F2EDED" stop-opacity="0"/>
</linearGradient>
<linearGradient id="paint106_linear_21_15138" x1="325.673" y1="101.147" x2="213.941" y2="296.541" gradientUnits="userSpaceOnUse">
<stop stop-color="white"/>
<stop offset="1" stop-color="#F2EDED" stop-opacity="0"/>
</linearGradient>
<linearGradient id="paint107_linear_21_15138" x1="218.157" y1="232.667" x2="217.601" y2="293.615" gradientUnits="userSpaceOnUse">
<stop stop-color="white" stop-opacity="0"/>
<stop offset="1" stop-color="#D0DBFF"/>
</linearGradient>
<linearGradient id="paint108_linear_21_15138" x1="306.376" y1="216.102" x2="148.235" y2="155.354" gradientUnits="userSpaceOnUse">
<stop stop-color="#8D8D8D"/>
<stop offset="1" stop-color="#8D8D8D"/>
</linearGradient>
</defs>
</svg>
