<svg width="454" height="378" viewBox="0 0 454 378" fill="none" xmlns="http://www.w3.org/2000/svg">
<path d="M134.129 323.076V217.502H321.98V322.152C321.98 323.189 321.423 324.145 320.522 324.658L228.289 377.08C227.403 377.584 226.317 377.582 225.432 377.075L135.578 325.576C134.682 325.062 134.129 324.109 134.129 323.076Z" fill="#84B7C4"/>
<path fill-rule="evenodd" clip-rule="evenodd" d="M188.726 217.502V356.037L135.578 325.576C134.682 325.062 134.129 324.109 134.129 323.076V217.502H188.726Z" fill="#6B9BAA"/>
<path fill-rule="evenodd" clip-rule="evenodd" d="M186.875 354.976V217.502H188.726V356.037L186.875 354.976Z" fill="#B0D2DD"/>
<path fill-rule="evenodd" clip-rule="evenodd" d="M267.383 216.585V355.121L320.531 324.659C321.427 324.146 321.98 323.192 321.98 322.159V216.585H267.383Z" fill="#6B9BAA"/>
<path fill-rule="evenodd" clip-rule="evenodd" d="M269.234 354.06V216.585H267.383V355.121L269.234 354.06Z" fill="#B0D2DD"/>
<path d="M76.9072 224.158C77.6891 224.737 82.4546 235.649 84.7396 241.032L86.0899 247.317C81.7329 244.34 72.6028 237.525 70.9386 234.078C69.2744 230.63 69.3375 222.407 69.5771 218.726L76.9072 224.158Z" fill="url(#paint0_linear_21_16877)"/>
<path d="M100.409 80.0287C100.37 74.9675 103.977 69.5876 107.386 63.0558C108.427 63.0222 112.603 69.9399 105.512 94.1264L102.225 101.505C101.174 106.261 100.516 100.741 99.331 96.592C99.5226 86.9206 100.458 86.3553 100.409 80.0287Z" fill="url(#paint1_linear_21_16877)"/>
<path d="M125.701 68.0711C127.328 67.2632 134.24 63.8297 144.614 63.2128L144.614 63.2129C143.639 64.5036 140.837 68.2143 130.836 74.3915C129.29 74.756 121.804 75.2486 118.019 74.2054C117.174 74.7867 118.113 73.5203 118.384 72.714C120.956 69.0842 124.075 68.879 125.701 68.0711Z" fill="url(#paint2_linear_21_16877)"/>
<path fill-rule="evenodd" clip-rule="evenodd" d="M82.5013 150.749C92.8129 106.889 117.09 70.0263 135.738 48.7278L136.552 49.3313C118.187 70.308 95.8422 108.219 85.6713 151.48C75.5107 194.698 78.4827 243.884 112.509 289.118L109.898 291.044C75.1675 244.872 72.1794 194.653 82.5013 150.749Z" fill="url(#paint3_linear_21_16877)"/>
<path d="M125.849 56.1029L122 36.6443L119.441 40.0323C114.285 48.541 117.344 54.5818 116.213 61.7963C115.309 67.5678 117.392 71.8959 118.505 72.5527L122.403 66.3827L125.849 56.1029Z" fill="url(#paint4_linear_21_16877)"/>
<path fill-rule="evenodd" clip-rule="evenodd" d="M122.067 36.9823C121.072 45.6787 119.998 56.1411 120.726 58.8496C121.389 61.3139 120.249 66.9213 118.897 71.9325L118.505 72.5527C117.392 71.8959 115.309 67.5678 116.213 61.7963C116.595 59.3612 116.499 57.0599 116.403 54.7522C116.215 50.2228 116.025 45.6691 119.441 40.0323L122 36.6443L122.067 36.9823Z" fill="url(#paint5_linear_21_16877)"/>
<path d="M97.2181 165.986C98.3223 163.986 101.865 151.312 103.499 145.225L101.547 145.792C89.9639 156.082 89.1195 164.263 86.686 170.512C84.2525 176.76 75.4351 186.08 80.2336 184.099C85.0321 182.119 95.8379 168.486 97.2181 165.986Z" fill="url(#paint6_linear_21_16877)"/>
<path fill-rule="evenodd" clip-rule="evenodd" d="M103.269 146.078C99.215 152.436 93.5226 161.879 91.3204 167.403C89.2598 172.572 84.4629 179.396 80.5702 183.946C80.455 184.003 80.3428 184.054 80.2336 184.099C77.4481 185.249 79.2508 182.591 81.7296 178.936C83.5209 176.295 85.6652 173.133 86.686 170.512C87.1258 169.382 87.5138 168.19 87.9225 166.933C89.7755 161.237 92.0574 154.222 101.547 145.792L103.499 145.225C103.426 145.497 103.349 145.782 103.269 146.078Z" fill="url(#paint7_linear_21_16877)"/>
<path d="M88.9033 119.815C87.9543 115.69 84.5356 108.107 82.9448 104.832C80.7538 109.751 81.9773 112.167 80.0735 119.06C78.5505 124.574 83.6856 133.898 86.4436 137.871C87.6589 133.571 89.8523 123.94 88.9033 119.815Z" fill="url(#paint8_linear_21_16877)"/>
<path fill-rule="evenodd" clip-rule="evenodd" d="M88.8047 119.401C88.8407 119.543 88.8742 119.681 88.9051 119.815C89.8541 123.94 87.6606 133.571 86.4453 137.871C85.4684 136.463 84.1931 134.385 83.0212 132.042C84.2407 127.189 86.7348 122.555 88.8047 119.401Z" fill="url(#paint9_linear_21_16877)"/>
<path d="M98.496 79.8703C98.2324 77.2594 95.0952 71.4792 93.5596 68.9155C92.1552 73.914 88.7311 79.6805 88.3754 88.2238C88.2284 91.7559 93.7383 104.108 96.9053 109.893L97.9995 106.426C95.8733 97.8054 98.8254 83.1339 98.496 79.8703Z" fill="url(#paint10_linear_21_16877)"/>
<path d="M112.036 104.999C117.369 101.704 120.701 93.3026 121.7 89.5135C112.39 95.4483 109.377 93.7191 101.822 103.722L99.2255 109.85C101.273 109.606 106.702 108.294 112.036 104.999Z" fill="url(#paint11_linear_21_16877)"/>
<path d="M77.9828 172.618C74.7479 162.37 63.0297 155.08 57.5755 153.219C64.0674 171.869 68.2529 167.673 72.2878 173.431C75.5158 178.037 78.304 180.153 78.8059 180.273L77.9828 172.618Z" fill="url(#paint12_linear_21_16877)"/>
<path d="M74.1322 151.144C73.0231 149.114 63.8088 137.791 59.3403 132.384C61.5125 145.316 63.8837 154.622 67.2658 158.889C69.9715 162.303 75.5968 173.198 78.0712 178.219C78.3141 177.224 78.8074 174.688 78.8372 172.496C78.8746 169.755 75.5187 153.681 74.1322 151.144Z" fill="url(#paint13_linear_21_16877)"/>
<path d="M97.1695 192.621C91.1223 198.206 85.5534 209.009 83.5249 213.713L82.9677 223.868C86.6786 219.74 94.4086 210.605 95.6412 207.09C96.8737 203.574 97.1736 195.979 97.1695 192.621Z" fill="url(#paint14_linear_21_16877)"/>
<path d="M74.2181 188.699C73.7924 186.572 69.6663 181.72 67.6565 179.56C66.6028 182.973 64.9777 191.515 66.9065 198.379C68.8353 205.244 75.2089 211.493 78.1546 213.759C78.737 213.1 79.5756 211.34 78.2715 209.568C76.6414 207.354 74.7503 191.358 74.2181 188.699Z" fill="url(#paint15_linear_21_16877)"/>
<path fill-rule="evenodd" clip-rule="evenodd" d="M77.7073 213.405C72.5324 203.698 69.1055 188.709 67.5846 179.798C67.6088 179.716 67.6328 179.637 67.6565 179.56C69.6663 181.72 73.7924 186.572 74.2181 188.699C74.3511 189.364 74.5691 190.862 74.8467 192.771C75.6795 198.495 77.0489 207.907 78.2715 209.568C79.5756 211.34 78.737 213.1 78.1546 213.759C78.0131 213.65 77.8637 213.532 77.7073 213.405Z" fill="url(#paint16_linear_21_16877)"/>
<path d="M73.846 249.065C75.7659 248.676 83.1635 249.51 86.6224 249.976L87.1086 248.324C85.8328 247.546 82.3204 245.38 78.4766 242.934C74.6329 240.489 67.7357 243.028 64.7676 244.603C66.9937 246.252 71.9261 249.454 73.846 249.065Z" fill="url(#paint17_linear_21_16877)"/>
<path d="M143.148 28.1564C144.903 25.8333 155.428 22.6614 160.472 21.3658L155.807 33.2589C154.589 34.8722 151.135 38.7045 147.069 41.1272C143.004 43.5499 137.327 48.0833 135.729 50.0867L134.752 49.3625C135.759 41.302 140.954 31.0604 143.148 28.1564Z" fill="url(#paint18_linear_21_16877)"/>
<path fill-rule="evenodd" clip-rule="evenodd" d="M135.89 49.1998C138.543 43.1931 151.906 29.2767 159.961 21.4982C160.137 21.4521 160.307 21.408 160.471 21.3658L155.806 33.2588C154.588 34.8722 151.134 38.7045 147.068 41.1272C143.003 43.5498 137.367 48.3652 135.769 50.3686L135.89 49.1998Z" fill="url(#paint19_linear_21_16877)"/>
<g filter="url(#filter0_d_21_16877)">
<path d="M128.162 59.5786C128.877 58.9007 135.649 52.5449 147.559 51.0527C146.938 53.4444 143.046 59.4348 140.056 62.8555C137.066 66.2763 125.422 70.0456 119.023 71.6785C122.949 66.3681 127.447 60.2564 128.162 59.5786Z" fill="url(#paint20_linear_21_16877)"/>
<path fill-rule="evenodd" clip-rule="evenodd" d="M147.408 51.5339C147.47 51.3608 147.521 51.1999 147.559 51.0527C135.649 52.5448 128.877 58.9007 128.162 59.5785C127.506 60.2008 123.661 65.4027 119.997 70.36C119.67 70.8026 119.344 71.2432 119.023 71.6785C119.505 71.5555 120.017 71.4203 120.552 71.2741C128.959 66.1447 140.715 56.9972 147.408 51.5339Z" fill="url(#paint21_linear_21_16877)"/>
</g>
<path fill-rule="evenodd" clip-rule="evenodd" d="M107.255 63.3069C107.388 64.4123 107.466 65.7214 107.391 67.084C107.192 70.7109 102.753 100.133 101.372 102.633C101.281 102.797 101.192 102.933 101.104 103.043C100.775 102.462 100.449 101.094 100.08 99.5435C99.8512 98.582 99.6056 97.5501 99.3318 96.5914C99.4318 91.5411 99.7346 88.9738 99.9942 86.7727C100.232 84.7586 100.433 83.0511 100.41 80.0282C100.822 74.9684 102.808 71.3889 105.304 66.8905C105.928 65.7659 106.584 64.5838 107.255 63.3069Z" fill="url(#paint22_linear_21_16877)"/>
<path fill-rule="evenodd" clip-rule="evenodd" d="M97.2598 108.77C94.7531 103.693 92.878 96.7379 93.2553 87.814C93.6684 78.0444 93.5841 72.5637 93.3319 69.6793C93.4125 69.4226 93.4886 69.1681 93.5596 68.9155C95.0952 71.4792 98.2324 77.2594 98.496 79.8703C98.6014 80.9145 98.3708 83.1267 98.0782 85.9349C97.4562 91.9032 96.5536 100.564 97.9995 106.426L97.2598 108.77Z" fill="url(#paint23_linear_21_16877)"/>
<path fill-rule="evenodd" clip-rule="evenodd" d="M121.636 89.5534C118.608 91.4786 116.247 92.5924 114.178 93.5689C109.92 95.578 106.895 97.0053 101.822 103.721L99.2257 109.849C99.3203 109.838 99.4222 109.824 99.531 109.808C107.702 105.078 117.157 94.9755 121.636 89.5534Z" fill="url(#paint24_linear_21_16877)"/>
<g filter="url(#filter1_d_21_16877)">
<path d="M95.5744 115.699C96.3884 115.966 96.3663 115.711 98.7079 116.259C107.222 118.253 118.343 111.253 122.902 104.745L114.561 104.353C101.867 104.207 96.7085 111.506 95.5744 115.699Z" fill="url(#paint25_linear_21_16877)"/>
<path fill-rule="evenodd" clip-rule="evenodd" d="M122.694 105.036C122.765 104.939 122.834 104.842 122.902 104.746L114.561 104.353C101.867 104.207 96.7083 111.506 95.5743 115.699C95.6047 115.709 95.6339 115.718 95.6621 115.727C101.249 111.519 115.237 107.056 122.694 105.036Z" fill="url(#paint26_linear_21_16877)"/>
</g>
<g filter="url(#filter2_d_21_16877)">
<path d="M82.0718 122.806C80.7677 121.034 71.3712 111.522 66.8359 106.987C66.3719 126.773 75.2078 132.566 77.0021 135.908C81.2808 141.343 84.3379 146.041 85.4376 146.939L85.9611 142.546C85.208 136.704 83.3759 124.577 82.0718 122.806Z" fill="url(#paint27_linear_21_16877)"/>
<path fill-rule="evenodd" clip-rule="evenodd" d="M66.8318 107.296C66.537 123.032 72.1567 129.824 75.2882 133.609C76.0453 134.524 76.6569 135.263 77.0044 135.91C78.9551 138.388 80.6519 140.713 82.0251 142.594C83.4187 144.503 84.479 145.956 85.1329 146.648C84.3792 137.055 73.5044 117.84 66.8318 107.296Z" fill="url(#paint28_linear_21_16877)"/>
</g>
<path fill-rule="evenodd" clip-rule="evenodd" d="M78.724 174.346C74.602 164.35 65.2541 144.593 59.3955 132.446C63.8834 137.879 73.0297 149.121 74.1345 151.143C75.5209 153.68 78.8768 169.754 78.8395 172.494C78.8312 173.099 78.7878 173.729 78.724 174.346Z" fill="url(#paint29_linear_21_16877)"/>
<g filter="url(#filter3_d_21_16877)">
<path d="M80.2574 168.261C80.8324 159.428 85.446 152.647 87.6809 150.361L87.9718 155.357C91.9587 168.376 83.9055 179.352 79.3805 183.212C79.4332 181.909 79.6823 177.095 80.2574 168.261Z" fill="url(#paint30_linear_21_16877)"/>
<path fill-rule="evenodd" clip-rule="evenodd" d="M87.6243 150.42C85.2635 155.035 83.0929 163.539 82.6288 178.576C81.4631 180.307 80.4497 181.791 79.5707 183.049C79.5067 183.105 79.4433 183.16 79.3805 183.213C79.4332 181.91 79.6823 177.096 80.2574 168.262C80.8276 159.503 85.369 152.762 87.6243 150.42Z" fill="url(#paint31_linear_21_16877)"/>
</g>
<path fill-rule="evenodd" clip-rule="evenodd" d="M78.5931 180.176C75.6858 171.466 64.1029 159.334 57.647 153.414C62.03 165.928 65.36 168.029 68.3053 169.887C69.6961 170.765 71.0011 171.588 72.2908 173.429C75.1977 177.577 77.748 179.705 78.5931 180.176Z" fill="url(#paint32_linear_21_16877)"/>
<path d="M135.729 49.0794C129.905 55.3324 114.627 74.4593 103.035 97.0715C94.7151 113.301 90.9203 119.296 82.7577 150.489C80.8274 157.865 77.0776 176.777 77.5211 193.411C76.8694 203.916 78.642 231.683 90.9459 258.715C94.4545 266.515 103.199 283.797 110.107 290.527" stroke="#FADA81" stroke-width="0.844684"/>
<g filter="url(#filter4_d_21_16877)">
<path d="M81.6321 195.702C83.8228 190.531 83.9943 186.632 84.6711 185.624C88.6302 195.855 89.4968 205.807 89.784 207.781C90.0138 209.361 84.6033 218.789 81.8693 223.305L78.6328 205.055C79.8862 198.686 79.0357 201.83 81.6321 195.702Z" fill="url(#paint33_linear_21_16877)"/>
<path fill-rule="evenodd" clip-rule="evenodd" d="M85.0789 186.706C84.9467 186.346 84.8109 185.985 84.6711 185.624C84.4025 186.024 84.2134 186.88 83.9461 188.09C83.54 189.928 82.9532 192.584 81.6321 195.702C80.3209 198.797 79.8888 199.527 79.6208 200.311C79.3582 201.081 79.2533 201.902 78.6328 205.055L81.7929 222.874C85.2298 214.915 85.4693 196.799 85.0789 186.706Z" fill="url(#paint34_linear_21_16877)"/>
</g>
<g filter="url(#filter5_d_21_16877)">
<path d="M66.8688 198.098C64.0646 194.007 57.2864 191.837 54.2479 191.263C53.273 192.553 57.8687 202.165 60.2884 206.81C61.2927 207.386 64.1727 209.134 67.6583 211.516C71.1439 213.897 76.4088 214.057 78.6056 213.84C75.8617 210.297 69.673 202.189 66.8688 198.098Z" fill="url(#paint35_linear_21_16877)"/>
<path fill-rule="evenodd" clip-rule="evenodd" d="M77.0829 213.91C77.6767 213.908 78.1948 213.88 78.6056 213.84C75.8618 210.297 69.673 202.189 66.8688 198.098C64.0646 194.007 57.2864 191.836 54.2479 191.263C54.2211 191.298 54.1986 191.34 54.1801 191.387C56.5048 195.87 62.92 203.741 77.0829 213.91Z" fill="url(#paint36_linear_21_16877)"/>
</g>
<g filter="url(#filter6_d_21_16877)">
<path d="M82.0892 236.805C78.2783 234.585 66.8556 233.989 61.6207 233.969C68.4272 243.793 69.5228 241.333 74.8572 245.034C79.1247 247.995 83.9311 245.802 85.8008 244.336C86.1515 242.751 85.9001 239.025 82.0892 236.805Z" fill="url(#paint37_linear_21_16877)"/>
<path fill-rule="evenodd" clip-rule="evenodd" d="M85.8765 243.874C75.1511 237.264 66.3549 234.72 61.6743 234.046C66.3701 240.809 68.3361 241.697 70.8833 242.847C72.0021 243.352 73.2331 243.908 74.8567 245.034C75.2132 245.281 75.5734 245.493 75.9353 245.671C76.803 245.937 77.657 246.193 78.4912 246.438C81.5851 246.824 84.454 245.392 85.8003 244.336C85.8309 244.197 85.857 244.043 85.8765 243.874Z" fill="url(#paint38_linear_21_16877)"/>
</g>
<path d="M377.093 225.112C376.311 225.691 371.545 236.603 369.26 241.987L367.91 248.271C372.267 245.295 381.397 238.479 383.061 235.032C384.725 231.585 384.662 223.361 384.423 219.681L377.093 225.112Z" fill="url(#paint39_linear_21_16877)"/>
<path d="M353.591 80.983C353.63 75.9218 350.023 70.5419 346.614 64.0101C345.573 63.9766 341.398 70.8942 348.488 95.0806L351.775 102.459C352.827 107.215 353.484 101.695 354.669 97.5462C354.478 87.8748 353.543 87.3095 353.591 80.983Z" fill="url(#paint40_linear_21_16877)"/>
<path d="M328.299 69.0252C326.672 68.2173 319.76 64.7838 309.386 64.1669L309.386 64.167C310.361 65.4577 313.164 69.1684 323.165 75.3456C324.71 75.7101 332.196 76.2027 335.981 75.1595C336.827 75.7408 335.887 74.4744 335.617 73.6681C333.044 70.0383 329.925 69.8331 328.299 69.0252Z" fill="url(#paint41_linear_21_16877)"/>
<path fill-rule="evenodd" clip-rule="evenodd" d="M371.499 151.705C361.187 107.845 336.91 70.9818 318.262 49.6834L317.448 50.2869C335.814 71.2636 358.158 109.174 368.329 152.436C378.489 195.654 375.517 244.839 341.491 290.074L344.102 292C378.833 245.828 381.821 195.608 371.499 151.705Z" fill="url(#paint42_linear_21_16877)"/>
<path d="M328.151 57.0573L332 37.5986L334.559 40.9866C339.715 49.4954 336.657 55.5363 337.787 62.7507C338.691 68.5223 336.608 72.8504 335.495 73.5072L331.597 67.3371L328.151 57.0573Z" fill="url(#paint43_linear_21_16877)"/>
<path fill-rule="evenodd" clip-rule="evenodd" d="M331.933 37.937C332.928 46.6334 334.002 57.0955 333.274 59.8039C332.611 62.2683 333.751 67.8758 335.104 72.8869L335.495 73.5072C336.608 72.8504 338.691 68.5223 337.787 62.7507C337.405 60.3157 337.501 58.0143 337.597 55.7066C337.786 51.1772 337.975 46.6235 334.559 40.9866L332 37.5986L331.933 37.937Z" fill="url(#paint44_linear_21_16877)"/>
<path d="M356.781 166.94C355.676 164.94 352.133 152.266 350.5 146.18L352.452 146.746C364.035 157.036 364.879 165.217 367.313 171.466C369.746 177.715 378.564 187.034 373.765 185.053C368.967 183.073 358.161 169.44 356.781 166.94Z" fill="url(#paint45_linear_21_16877)"/>
<path fill-rule="evenodd" clip-rule="evenodd" d="M350.73 147.036C354.785 153.394 360.475 162.834 362.677 168.357C364.737 173.526 369.534 180.349 373.426 184.899C373.542 184.957 373.655 185.008 373.765 185.053C376.551 186.203 374.748 183.545 372.269 179.89C370.478 177.249 368.334 174.087 367.313 171.466C366.873 170.336 366.485 169.144 366.076 167.887C364.223 162.191 361.941 155.176 352.452 146.746L350.5 146.18C350.573 146.452 350.65 146.738 350.73 147.036Z" fill="url(#paint46_linear_21_16877)"/>
<path d="M365.095 120.77C366.044 116.645 369.463 109.063 371.054 105.787C373.245 110.706 372.021 113.122 373.925 120.015C375.448 125.53 370.313 134.853 367.555 138.826C366.34 134.526 364.147 124.896 365.095 120.77Z" fill="url(#paint47_linear_21_16877)"/>
<path fill-rule="evenodd" clip-rule="evenodd" d="M365.196 120.357C365.16 120.498 365.126 120.636 365.095 120.77C364.146 124.896 366.34 134.526 367.555 138.826C368.532 137.419 369.807 135.34 370.979 132.997C369.76 128.145 367.266 123.511 365.196 120.357Z" fill="url(#paint48_linear_21_16877)"/>
<path d="M355.503 80.8248C355.766 78.2139 358.904 72.4338 360.439 69.8701C361.844 74.8686 365.268 80.6351 365.623 89.1783C365.77 92.7104 360.261 105.062 357.094 110.848L355.999 107.381C358.125 98.7599 355.173 84.0884 355.503 80.8248Z" fill="url(#paint49_linear_21_16877)"/>
<path d="M341.966 105.953C336.632 102.659 333.3 94.2569 332.301 90.4678C341.611 96.4026 344.624 94.6735 352.179 104.676L354.776 110.804C352.728 110.56 347.3 109.248 341.966 105.953Z" fill="url(#paint50_linear_21_16877)"/>
<path d="M376.016 173.572C379.251 163.325 390.969 156.034 396.423 154.174C389.931 172.823 385.746 168.627 381.711 174.385C378.483 178.991 375.694 181.107 375.193 181.227L376.016 173.572Z" fill="url(#paint51_linear_21_16877)"/>
<path d="M379.868 152.098C380.977 150.068 390.191 138.745 394.66 133.338C392.487 146.27 390.116 155.576 386.734 159.843C384.028 163.257 378.403 174.152 375.929 179.173C375.686 178.178 375.193 175.642 375.163 173.45C375.125 170.709 378.481 154.635 379.868 152.098Z" fill="url(#paint52_linear_21_16877)"/>
<path d="M356.829 193.576C362.877 199.16 368.445 209.964 370.474 214.667L371.031 224.823C367.32 220.694 359.59 211.559 358.358 208.044C357.125 204.529 356.825 196.934 356.829 193.576Z" fill="url(#paint53_linear_21_16877)"/>
<path d="M379.782 189.655C380.208 187.528 384.334 182.676 386.344 180.516C387.397 183.929 389.023 192.471 387.094 199.335C385.165 206.199 378.791 212.448 375.846 214.715C375.263 214.056 374.425 212.295 375.729 210.524C377.359 208.309 379.25 192.314 379.782 189.655Z" fill="url(#paint54_linear_21_16877)"/>
<path fill-rule="evenodd" clip-rule="evenodd" d="M376.293 214.361C381.468 204.653 384.895 189.664 386.416 180.753C386.391 180.672 386.367 180.592 386.344 180.516C384.334 182.676 380.208 187.528 379.782 189.655C379.649 190.32 379.431 191.818 379.154 193.726C378.321 199.45 376.951 208.863 375.729 210.524C374.425 212.295 375.263 214.056 375.846 214.715C375.987 214.606 376.137 214.488 376.293 214.361Z" fill="url(#paint55_linear_21_16877)"/>
<path d="M380.154 250.019C378.234 249.63 370.836 250.464 367.377 250.93L366.891 249.278C368.167 248.5 371.679 246.334 375.523 243.888C379.367 241.443 386.264 243.982 389.232 245.557C387.006 247.206 382.074 250.408 380.154 250.019Z" fill="url(#paint56_linear_21_16877)"/>
<path d="M310.851 29.1106C309.096 26.7874 298.57 23.6155 293.527 22.3199L298.191 34.213C299.41 35.8264 302.863 39.6587 306.929 42.0814C310.995 44.504 316.672 49.0375 318.269 51.0408L319.247 50.3167C318.239 42.2561 313.044 32.0145 310.851 29.1106Z" fill="url(#paint57_linear_21_16877)"/>
<path fill-rule="evenodd" clip-rule="evenodd" d="M318.109 50.1539C315.456 44.1472 302.092 30.2308 294.038 22.4523C293.862 22.4062 293.692 22.3621 293.528 22.3199L298.192 34.2129C299.411 35.8263 302.865 39.6586 306.93 42.0813C310.996 44.5039 316.632 49.3193 318.23 51.3227L318.109 50.1539Z" fill="url(#paint58_linear_21_16877)"/>
<g filter="url(#filter7_d_21_16877)">
<path d="M325.838 60.5329C325.123 59.8551 318.351 53.4992 306.441 52.0071C307.062 54.3987 310.954 60.3891 313.944 63.8099C316.935 67.2306 328.578 70.9999 334.978 72.6329C331.051 67.3225 326.553 61.2108 325.838 60.5329Z" fill="url(#paint59_linear_21_16877)"/>
<path fill-rule="evenodd" clip-rule="evenodd" d="M306.592 52.4883C306.53 52.3152 306.48 52.1543 306.441 52.007C318.351 53.4992 325.123 59.855 325.838 60.5329C326.495 61.1552 330.339 66.357 334.003 71.3143C334.33 71.7569 334.656 72.1976 334.978 72.6328C334.496 72.5098 333.984 72.3747 333.448 72.2285C325.041 67.0992 313.286 57.9518 306.592 52.4883Z" fill="url(#paint60_linear_21_16877)"/>
</g>
<path fill-rule="evenodd" clip-rule="evenodd" d="M346.747 64.2639C346.614 65.3692 346.536 66.6779 346.611 68.0401C346.81 71.667 351.249 101.089 352.63 103.589C352.72 103.753 352.809 103.888 352.897 103.997C353.226 103.416 353.552 102.049 353.921 100.498C354.15 99.5369 354.395 98.505 354.669 97.5463C354.569 92.496 354.266 89.9287 354.007 87.7276C353.769 85.7135 353.568 84.006 353.591 80.9831C353.179 75.9233 351.193 72.3438 348.697 67.8453C348.073 66.7214 347.418 65.54 346.747 64.2639Z" fill="url(#paint61_linear_21_16877)"/>
<path fill-rule="evenodd" clip-rule="evenodd" d="M356.738 109.722C359.245 104.646 361.119 97.691 360.742 88.7684C360.329 78.9944 360.413 73.5132 360.666 70.6298C360.585 70.3745 360.51 70.1213 360.439 69.8701C358.904 72.4338 355.766 78.2139 355.503 80.8248C355.397 81.8691 355.628 84.0812 355.921 86.8894C356.543 92.8577 357.445 101.518 355.999 107.381L356.738 109.722Z" fill="url(#paint62_linear_21_16877)"/>
<path fill-rule="evenodd" clip-rule="evenodd" d="M332.37 90.5116C335.397 92.4355 337.757 93.549 339.826 94.5251C344.084 96.5341 347.109 97.9615 352.181 104.677L354.778 110.805C354.685 110.794 354.585 110.781 354.478 110.765C346.308 106.038 336.852 95.9362 332.37 90.5116Z" fill="url(#paint63_linear_21_16877)"/>
<g filter="url(#filter8_d_21_16877)">
<path d="M358.43 116.651C357.616 116.919 357.639 116.663 355.297 117.212C346.783 119.205 335.662 112.206 331.103 105.698L339.444 105.305C352.138 105.159 357.296 112.459 358.43 116.651Z" fill="url(#paint64_linear_21_16877)"/>
<path fill-rule="evenodd" clip-rule="evenodd" d="M331.309 105.987C331.239 105.891 331.17 105.795 331.103 105.698L339.444 105.305C352.138 105.16 357.296 112.459 358.43 116.652C358.4 116.661 358.371 116.671 358.343 116.679C352.757 112.472 338.768 108.007 331.309 105.987Z" fill="url(#paint65_linear_21_16877)"/>
</g>
<g filter="url(#filter9_d_21_16877)">
<path d="M371.929 123.76C373.233 121.988 382.63 112.476 387.165 107.942C387.629 127.728 378.793 133.52 376.999 136.862C372.72 142.297 369.663 146.995 368.563 147.894L368.04 143.501C368.793 137.659 370.625 125.531 371.929 123.76Z" fill="url(#paint66_linear_21_16877)"/>
<path fill-rule="evenodd" clip-rule="evenodd" d="M387.17 108.251C387.464 123.984 381.845 130.775 378.714 134.56C377.957 135.475 377.345 136.214 376.997 136.861C375.047 139.339 373.35 141.664 371.977 143.545C370.584 145.453 369.524 146.905 368.87 147.598C369.626 138.004 380.498 118.793 387.17 108.251Z" fill="url(#paint67_linear_21_16877)"/>
</g>
<path fill-rule="evenodd" clip-rule="evenodd" d="M375.28 175.302C379.402 165.305 388.749 145.549 394.608 133.403C390.12 138.835 380.974 150.077 379.869 152.099C378.483 154.636 375.127 170.71 375.164 173.45C375.173 174.054 375.216 174.685 375.28 175.302Z" fill="url(#paint68_linear_21_16877)"/>
<g filter="url(#filter10_d_21_16877)">
<path d="M373.744 169.215C373.169 160.382 368.555 153.601 366.32 151.315L366.029 156.311C362.043 169.33 370.096 180.306 374.621 184.166C374.568 182.863 374.319 178.049 373.744 169.215Z" fill="url(#paint69_linear_21_16877)"/>
<path fill-rule="evenodd" clip-rule="evenodd" d="M366.376 151.374C368.737 155.99 370.907 164.493 371.371 179.529C372.537 181.261 373.551 182.745 374.43 184.003C374.494 184.059 374.557 184.114 374.619 184.167C374.567 182.864 374.317 178.05 373.742 169.216C373.172 160.457 368.631 153.716 366.376 151.374Z" fill="url(#paint70_linear_21_16877)"/>
</g>
<path fill-rule="evenodd" clip-rule="evenodd" d="M375.408 181.131C378.316 172.421 389.899 160.289 396.354 154.369C391.971 166.883 388.641 168.984 385.696 170.843C384.305 171.72 383 172.544 381.711 174.384C378.804 178.532 376.254 180.661 375.408 181.131Z" fill="url(#paint71_linear_21_16877)"/>
<path d="M318.271 50.0335C324.095 56.2865 339.373 75.4134 350.965 98.0256C359.285 114.255 363.08 120.25 371.242 151.443C373.173 158.819 376.922 177.731 376.479 194.365C377.131 204.87 375.358 232.637 363.054 259.67C359.546 267.469 350.801 284.752 343.893 291.481" stroke="#FADA81" stroke-width="0.844684"/>
<g filter="url(#filter11_d_21_16877)">
<path d="M372.369 196.657C370.178 191.486 370.007 187.587 369.33 186.579C365.371 196.81 364.504 206.762 364.217 208.736C363.987 210.315 369.398 219.743 372.132 224.26L375.368 206.009C374.115 199.641 374.965 202.785 372.369 196.657Z" fill="url(#paint72_linear_21_16877)"/>
<path fill-rule="evenodd" clip-rule="evenodd" d="M368.921 187.665C369.053 187.304 369.19 186.942 369.33 186.579C369.599 186.979 369.788 187.835 370.055 189.045C370.461 190.883 371.048 193.539 372.369 196.657C373.68 199.751 374.112 200.482 374.38 201.266C374.643 202.035 374.748 202.857 375.368 206.009L372.208 223.831C368.77 215.874 368.53 197.76 368.921 187.665Z" fill="url(#paint73_linear_21_16877)"/>
</g>
<g filter="url(#filter12_d_21_16877)">
<path d="M387.132 199.052C389.937 194.961 396.715 192.791 399.753 192.217C400.728 193.508 396.133 203.12 393.713 207.764C392.709 208.341 389.829 210.089 386.343 212.47C382.857 214.851 377.592 215.012 375.396 214.794C378.139 211.251 384.328 203.143 387.132 199.052Z" fill="url(#paint74_linear_21_16877)"/>
<path fill-rule="evenodd" clip-rule="evenodd" d="M376.919 214.864C376.325 214.862 375.807 214.835 375.396 214.794C378.139 211.251 384.328 203.143 387.132 199.052C389.937 194.961 396.715 192.791 399.753 192.217C399.78 192.252 399.803 192.294 399.821 192.342C397.496 196.825 391.081 204.696 376.919 214.864Z" fill="url(#paint75_linear_21_16877)"/>
</g>
<g filter="url(#filter13_d_21_16877)">
<path d="M371.91 237.759C375.721 235.539 387.143 234.943 392.378 234.923C385.572 244.747 384.476 242.288 379.142 245.988C374.874 248.949 370.068 246.757 368.198 245.29C367.848 243.705 368.099 239.979 371.91 237.759Z" fill="url(#paint76_linear_21_16877)"/>
<path fill-rule="evenodd" clip-rule="evenodd" d="M368.123 244.828C378.848 238.219 387.644 235.674 392.325 235.001C387.629 241.763 385.663 242.651 383.116 243.801C381.998 244.306 380.767 244.861 379.143 245.988C378.786 246.236 378.425 246.447 378.063 246.626C377.196 246.891 376.343 247.147 375.51 247.392C372.416 247.778 369.546 246.346 368.199 245.29C368.169 245.151 368.143 244.997 368.123 244.828Z" fill="url(#paint77_linear_21_16877)"/>
</g>
<g filter="url(#filter14_d_21_16877)">
<path d="M322.378 187.288L322.378 147.889L416.304 147.889C416.304 172.513 398.727 187.288 384.446 187.288L322.378 187.288Z" fill="url(#paint78_linear_21_16877)"/>
<path d="M322.378 187.288L322.378 147.889L416.304 147.889C416.304 172.513 398.727 187.288 384.446 187.288L322.378 187.288Z" stroke="url(#paint79_linear_21_16877)" stroke-width="2.29412"/>
<path d="M289.228 222.31L289.228 182.91L383.153 182.91C383.153 207.535 365.577 222.31 351.296 222.31L289.228 222.31Z" fill="url(#paint80_linear_21_16877)"/>
<path d="M289.228 222.31L289.228 182.91L383.153 182.91C383.153 207.535 365.577 222.31 351.296 222.31L289.228 222.31Z" stroke="url(#paint81_linear_21_16877)" stroke-width="2.29412"/>
<path d="M112.456 187.288L112.456 147.889L18.5303 147.889C18.5303 172.513 36.107 187.288 50.3881 187.288L112.456 187.288Z" fill="url(#paint82_linear_21_16877)"/>
<path d="M112.456 187.288L112.456 147.889L18.5303 147.889C18.5303 172.513 36.107 187.288 50.3881 187.288L112.456 187.288Z" stroke="url(#paint83_linear_21_16877)" stroke-width="2.29412"/>
<path d="M145.606 222.31L145.606 182.91L51.6805 182.91C51.6805 207.535 69.2572 222.31 83.5382 222.31L145.606 222.31Z" fill="url(#paint84_linear_21_16877)"/>
<path d="M145.606 222.31L145.606 182.91L51.6805 182.91C51.6805 207.535 69.2572 222.31 83.5382 222.31L145.606 222.31Z" stroke="url(#paint85_linear_21_16877)" stroke-width="2.29412"/>
<path d="M219.509 59.6836L116.092 115.403C110.587 118.369 107.155 124.117 107.155 130.369L107.155 257.486C107.155 263.738 110.587 269.486 116.092 272.452L219.509 328.172C224.543 330.884 230.602 330.884 235.636 328.172L339.053 272.452C344.558 269.486 347.99 263.738 347.99 257.486L347.99 130.369C347.99 124.117 344.558 118.369 339.053 115.403L235.636 59.6836C230.602 56.9716 224.543 56.9716 219.509 59.6836Z" fill="url(#paint86_linear_21_16877)"/>
<path d="M219.395 80.6577L134.361 126.472C128.878 129.427 125.459 135.153 125.459 141.382L125.458 245.991C125.458 252.22 128.878 257.946 134.361 260.9L219.395 306.715C224.41 309.417 230.446 309.417 235.461 306.715L320.495 260.9C325.978 257.946 329.397 252.22 329.397 245.991L329.397 141.382C329.397 135.153 325.978 129.427 320.495 126.472L235.461 80.6577C230.446 77.9559 224.41 77.9559 219.395 80.6577Z" fill="url(#paint87_linear_21_16877)"/>
<g filter="url(#filter15_f_21_16877)">
<path d="M219.395 80.6577L134.361 126.472C128.878 129.427 125.459 135.153 125.459 141.382L125.458 245.991C125.458 252.22 128.878 257.946 134.361 260.9L219.395 306.715C224.41 309.417 230.446 309.417 235.461 306.715L320.495 260.9C325.978 257.946 329.397 252.22 329.397 245.991L329.397 141.382C329.397 135.153 325.978 129.427 320.495 126.472L235.461 80.6577C230.446 77.9559 224.41 77.9559 219.395 80.6577Z" stroke="url(#paint88_linear_21_16877)"/>
</g>
<g opacity="0.5">
<mask id="mask0_21_16877" style="mask-type:alpha" maskUnits="userSpaceOnUse" x="134" y="88" width="188" height="212">
<path d="M220.418 89.9813L142.603 131.869C137.384 134.679 134.129 140.127 134.129 146.055L134.129 241.691C134.129 247.618 137.383 253.066 142.603 255.876L220.418 297.764C225.185 300.33 230.923 300.33 235.69 297.764L313.506 255.876C318.725 253.066 321.98 247.618 321.98 241.691L321.98 146.055C321.98 140.127 318.725 134.679 313.506 131.869L235.69 89.9813C230.923 87.4151 225.185 87.4151 220.418 89.9813Z" fill="#A6D3DE"/>
</mask>
<g mask="url(#mask0_21_16877)">
<path d="M220.418 89.9813L142.603 131.869C137.384 134.679 134.129 140.127 134.129 146.055L134.129 241.691C134.129 247.618 137.383 253.066 142.603 255.876L220.418 297.764C225.185 300.33 230.923 300.33 235.69 297.764L313.506 255.876C318.725 253.066 321.98 247.618 321.98 241.691L321.98 146.055C321.98 140.127 318.725 134.679 313.506 131.869L235.69 89.9813C230.923 87.4151 225.185 87.4151 220.418 89.9813Z" fill="url(#paint89_radial_21_16877)"/>
<path opacity="0.5" d="M212.352 306.141L208.621 81.5935H247.487L243.756 306.141H212.352Z" fill="url(#paint90_linear_21_16877)"/>
<path opacity="0.5" d="M211.853 304.149L95.2632 111.533L128.922 92.2865L239.049 288.598L211.853 304.149Z" fill="url(#paint91_linear_21_16877)"/>
<path opacity="0.5" d="M208.614 288.598L318.741 92.2861L352.399 111.533L235.81 304.149L208.614 288.598Z" fill="url(#paint92_linear_21_16877)"/>
<rect x="134.129" y="181.036" width="187.851" height="120.828" fill="url(#paint93_linear_21_16877)"/>
<g filter="url(#filter16_i_21_16877)">
<path d="M220.418 89.9813L142.603 131.869C137.384 134.679 134.129 140.127 134.129 146.055L134.129 241.691C134.129 247.618 137.383 253.066 142.603 255.876L220.418 297.764C225.185 300.33 230.923 300.33 235.69 297.764L313.506 255.876C318.725 253.066 321.98 247.618 321.98 241.691L321.98 146.055C321.98 140.127 318.725 134.679 313.506 131.869L235.69 89.9813C230.923 87.4151 225.185 87.4151 220.418 89.9813Z" fill="#AFF5F1" fill-opacity="0.03"/>
</g>
</g>
</g>
<g filter="url(#filter17_i_21_16877)">
<path d="M177.368 164.013C177.368 165.733 176.895 167.281 175.949 168.657C175.032 170.033 173.684 171.137 171.907 171.968C170.13 172.799 167.994 173.244 165.5 173.301V176.741H162.834V173.215C159.509 172.9 156.814 171.896 154.75 170.205C152.686 168.514 151.554 166.192 151.353 163.239H161.501C161.587 164.414 162.031 165.217 162.834 165.647V161.433C160.34 160.745 158.362 160.114 156.9 159.541C155.467 158.968 154.162 158.022 152.987 156.703C151.84 155.384 151.267 153.593 151.267 151.328C151.267 149.465 151.783 147.859 152.815 146.512C153.847 145.136 155.237 144.075 156.986 143.33C158.735 142.585 160.684 142.169 162.834 142.083V138.6H165.5V142.083C168.911 142.312 171.606 143.273 173.584 144.964C175.562 146.627 176.651 148.934 176.852 151.887H166.575C166.46 150.798 166.102 150.067 165.5 149.694V153.865C166.503 154.152 166.976 154.295 166.919 154.295C169.069 154.954 170.832 155.614 172.208 156.273C173.613 156.904 174.817 157.85 175.82 159.111C176.852 160.372 177.368 162.006 177.368 164.013ZM161.501 150.898C161.501 151.643 161.945 152.274 162.834 152.79V149.35C161.945 149.522 161.501 150.038 161.501 150.898ZM165.5 166.034C166.618 165.805 167.177 165.203 167.177 164.228C167.177 163.483 166.618 162.852 165.5 162.336V166.034ZM178.574 150.511V141.567H193.151V173H183.132V150.511H178.574ZM196.264 156.832C196.264 151.873 197.311 147.974 199.403 145.136C201.525 142.298 204.778 140.879 209.164 140.879C213.522 140.879 216.761 142.312 218.882 145.179C221.004 148.017 222.064 151.901 222.064 156.832C222.064 161.791 221.004 165.704 218.882 168.571C216.761 171.409 213.522 172.828 209.164 172.828C204.778 172.828 201.525 171.409 199.403 168.571C197.311 165.704 196.264 161.791 196.264 156.832ZM212.647 156.832C212.647 154.539 212.418 152.819 211.959 151.672C211.501 150.497 210.569 149.909 209.164 149.909C207.731 149.909 206.785 150.497 206.326 151.672C205.868 152.819 205.638 154.539 205.638 156.832C205.638 159.154 205.868 160.903 206.326 162.078C206.785 163.225 207.731 163.798 209.164 163.798C210.569 163.798 211.501 163.225 211.959 162.078C212.418 160.903 212.647 159.154 212.647 156.832ZM224.305 156.832C224.305 151.873 225.351 147.974 227.444 145.136C229.565 142.298 232.819 140.879 237.205 140.879C241.562 140.879 244.802 142.312 246.923 145.179C249.044 148.017 250.105 151.901 250.105 156.832C250.105 161.791 249.044 165.704 246.923 168.571C244.802 171.409 241.562 172.828 237.205 172.828C232.819 172.828 229.565 171.409 227.444 168.571C225.351 165.704 224.305 161.791 224.305 156.832ZM240.688 156.832C240.688 154.539 240.459 152.819 240 151.672C239.541 150.497 238.61 149.909 237.205 149.909C235.772 149.909 234.826 150.497 234.367 151.672C233.908 152.819 233.679 154.539 233.679 156.832C233.679 159.154 233.908 160.903 234.367 162.078C234.826 163.225 235.772 163.798 237.205 163.798C238.61 163.798 239.541 163.225 240 162.078C240.459 160.903 240.688 159.154 240.688 156.832ZM252.346 156.832C252.346 151.873 253.392 147.974 255.485 145.136C257.606 142.298 260.86 140.879 265.246 140.879C269.603 140.879 272.842 142.312 274.964 145.179C277.085 148.017 278.146 151.901 278.146 156.832C278.146 161.791 277.085 165.704 274.964 168.571C272.842 171.409 269.603 172.828 265.246 172.828C260.86 172.828 257.606 171.409 255.485 168.571C253.392 165.704 252.346 161.791 252.346 156.832ZM268.729 156.832C268.729 154.539 268.499 152.819 268.041 151.672C267.582 150.497 266.65 149.909 265.246 149.909C263.812 149.909 262.866 150.497 262.408 151.672C261.949 152.819 261.72 154.539 261.72 156.832C261.72 159.154 261.949 160.903 262.408 162.078C262.866 163.225 263.812 163.798 265.246 163.798C266.65 163.798 267.582 163.225 268.041 162.078C268.499 160.903 268.729 159.154 268.729 156.832ZM280.386 156.832C280.386 151.873 281.433 147.974 283.525 145.136C285.647 142.298 288.9 140.879 293.286 140.879C297.644 140.879 300.883 142.312 303.004 145.179C305.126 148.017 306.186 151.901 306.186 156.832C306.186 161.791 305.126 165.704 303.004 168.571C300.883 171.409 297.644 172.828 293.286 172.828C288.9 172.828 285.647 171.409 283.525 168.571C281.433 165.704 280.386 161.791 280.386 156.832ZM296.769 156.832C296.769 154.539 296.54 152.819 296.081 151.672C295.623 150.497 294.691 149.909 293.286 149.909C291.853 149.909 290.907 150.497 290.448 151.672C289.99 152.819 289.76 154.539 289.76 156.832C289.76 159.154 289.99 160.903 290.448 162.078C290.907 163.225 291.853 163.798 293.286 163.798C294.691 163.798 295.623 163.225 296.081 162.078C296.54 160.903 296.769 159.154 296.769 156.832ZM173.868 193.836C175.063 194.116 175.987 194.695 176.64 195.572C177.312 196.431 177.648 197.429 177.648 198.568C177.648 200.304 177.069 201.648 175.912 202.6C174.773 203.533 173.131 204 170.984 204H160.596V184.176H170.704C172.72 184.176 174.307 184.615 175.464 185.492C176.621 186.369 177.2 187.648 177.2 189.328C177.2 190.485 176.892 191.465 176.276 192.268C175.679 193.052 174.876 193.575 173.868 193.836ZM166.812 191.904H169.22C169.78 191.904 170.191 191.792 170.452 191.568C170.732 191.344 170.872 190.999 170.872 190.532C170.872 190.047 170.732 189.692 170.452 189.468C170.191 189.225 169.78 189.104 169.22 189.104H166.812V191.904ZM169.64 199.016C170.2 199.016 170.611 198.913 170.872 198.708C171.152 198.484 171.292 198.129 171.292 197.644C171.292 196.692 170.741 196.216 169.64 196.216H166.812V199.016H169.64ZM194.745 195.964C194.745 196.393 194.717 196.804 194.661 197.196H184.665C184.758 198.559 185.327 199.24 186.373 199.24C187.045 199.24 187.53 198.932 187.829 198.316H194.409C194.185 199.436 193.709 200.444 192.981 201.34C192.271 202.217 191.366 202.917 190.265 203.44C189.182 203.944 187.987 204.196 186.681 204.196C185.113 204.196 183.713 203.869 182.481 203.216C181.267 202.563 180.315 201.629 179.625 200.416C178.953 199.184 178.617 197.747 178.617 196.104C178.617 194.461 178.953 193.033 179.625 191.82C180.315 190.588 181.267 189.645 182.481 188.992C183.713 188.339 185.113 188.012 186.681 188.012C188.249 188.012 189.639 188.339 190.853 188.992C192.085 189.627 193.037 190.541 193.709 191.736C194.399 192.931 194.745 194.34 194.745 195.964ZM188.445 194.48C188.445 193.957 188.277 193.565 187.941 193.304C187.605 193.024 187.185 192.884 186.681 192.884C185.579 192.884 184.935 193.416 184.749 194.48H188.445ZM203.459 204.196C201.965 204.196 200.64 203.953 199.483 203.468C198.344 202.983 197.439 202.311 196.767 201.452C196.095 200.593 195.712 199.623 195.619 198.54H201.583C201.657 199.007 201.853 199.352 202.171 199.576C202.507 199.8 202.927 199.912 203.431 199.912C203.748 199.912 204 199.847 204.187 199.716C204.373 199.567 204.467 199.389 204.467 199.184C204.467 198.829 204.271 198.577 203.879 198.428C203.487 198.279 202.824 198.111 201.891 197.924C200.752 197.7 199.809 197.457 199.063 197.196C198.335 196.935 197.691 196.487 197.131 195.852C196.589 195.217 196.319 194.34 196.319 193.22C196.319 192.249 196.571 191.372 197.075 190.588C197.597 189.785 198.363 189.16 199.371 188.712C200.379 188.245 201.601 188.012 203.039 188.012C205.167 188.012 206.828 188.535 208.023 189.58C209.236 190.625 209.964 191.988 210.207 193.668H204.691C204.597 193.239 204.401 192.912 204.103 192.688C203.804 192.445 203.403 192.324 202.899 192.324C202.581 192.324 202.339 192.389 202.171 192.52C202.003 192.632 201.919 192.809 201.919 193.052C201.919 193.369 202.115 193.612 202.507 193.78C202.899 193.929 203.524 194.088 204.383 194.256C205.521 194.48 206.483 194.732 207.267 195.012C208.051 195.292 208.732 195.777 209.311 196.468C209.889 197.14 210.179 198.073 210.179 199.268C210.179 200.201 209.908 201.041 209.367 201.788C208.825 202.535 208.041 203.123 207.015 203.552C206.007 203.981 204.821 204.196 203.459 204.196ZM222.193 198.708V204H219.841C215.511 204 213.345 201.844 213.345 197.532V193.388H211.385V188.208H213.345V184.4H219.561V188.208H222.137V193.388H219.561V197.644C219.561 198.017 219.645 198.288 219.813 198.456C220 198.624 220.299 198.708 220.709 198.708H222.193ZM244.971 190.98C244.971 192.231 244.681 193.369 244.103 194.396C243.524 195.404 242.665 196.207 241.527 196.804C240.407 197.401 239.044 197.7 237.439 197.7H234.975V204H228.759V184.176H237.439C239.865 184.176 241.723 184.792 243.011 186.024C244.317 187.256 244.971 188.908 244.971 190.98ZM236.739 192.8C238.027 192.8 238.671 192.193 238.671 190.98C238.671 189.767 238.027 189.16 236.739 189.16H234.975V192.8H236.739ZM252.878 191.12C253.513 190.205 254.287 189.477 255.202 188.936C256.117 188.376 257.069 188.096 258.058 188.096V194.732H256.294C255.118 194.732 254.25 194.937 253.69 195.348C253.149 195.759 252.878 196.487 252.878 197.532V204H246.662V188.208H252.878V191.12ZM262.588 186.948C261.506 186.948 260.638 186.659 259.984 186.08C259.331 185.501 259.004 184.773 259.004 183.896C259.004 183 259.331 182.263 259.984 181.684C260.638 181.087 261.506 180.788 262.588 180.788C263.652 180.788 264.511 181.087 265.164 181.684C265.818 182.263 266.144 183 266.144 183.896C266.144 184.773 265.818 185.501 265.164 186.08C264.511 186.659 263.652 186.948 262.588 186.948ZM265.668 188.208V204H259.452V188.208H265.668ZM274.16 198.848H280.74V204H267.356V199.128L273.376 193.36H267.44V188.208H280.46V193.08L274.16 198.848ZM297.696 195.964C297.696 196.393 297.668 196.804 297.612 197.196H287.616C287.709 198.559 288.279 199.24 289.324 199.24C289.996 199.24 290.481 198.932 290.78 198.316H297.36C297.136 199.436 296.66 200.444 295.932 201.34C295.223 202.217 294.317 202.917 293.216 203.44C292.133 203.944 290.939 204.196 289.632 204.196C288.064 204.196 286.664 203.869 285.432 203.216C284.219 202.563 283.267 201.629 282.576 200.416C281.904 199.184 281.568 197.747 281.568 196.104C281.568 194.461 281.904 193.033 282.576 191.82C283.267 190.588 284.219 189.645 285.432 188.992C286.664 188.339 288.064 188.012 289.632 188.012C291.2 188.012 292.591 188.339 293.804 188.992C295.036 189.627 295.988 190.541 296.66 191.736C297.351 192.931 297.696 194.34 297.696 195.964ZM291.396 194.48C291.396 193.957 291.228 193.565 290.892 193.304C290.556 193.024 290.136 192.884 289.632 192.884C288.531 192.884 287.887 193.416 287.7 194.48H291.396ZM163.706 211.84C165.186 211.84 166.48 212.14 167.586 212.74C168.706 213.34 169.566 214.173 170.166 215.24C170.766 216.307 171.066 217.52 171.066 218.88C171.066 220.227 170.766 221.44 170.166 222.52C169.566 223.6 168.706 224.453 167.586 225.08C166.48 225.693 165.186 226 163.706 226H157.806V211.84H163.706ZM163.306 222.04C164.306 222.04 165.1 221.767 165.686 221.22C166.273 220.673 166.566 219.893 166.566 218.88C166.566 217.867 166.273 217.087 165.686 216.54C165.1 215.993 164.306 215.72 163.306 215.72H162.246V222.04H163.306ZM183.39 220.26C183.39 220.567 183.37 220.86 183.33 221.14H176.19C176.256 222.113 176.663 222.6 177.41 222.6C177.89 222.6 178.236 222.38 178.45 221.94H183.15C182.99 222.74 182.65 223.46 182.13 224.1C181.623 224.727 180.976 225.227 180.19 225.6C179.416 225.96 178.563 226.14 177.63 226.14C176.51 226.14 175.51 225.907 174.63 225.44C173.763 224.973 173.083 224.307 172.59 223.44C172.11 222.56 171.87 221.533 171.87 220.36C171.87 219.187 172.11 218.167 172.59 217.3C173.083 216.42 173.763 215.747 174.63 215.28C175.51 214.813 176.51 214.58 177.63 214.58C178.75 214.58 179.743 214.813 180.61 215.28C181.49 215.733 182.17 216.387 182.65 217.24C183.143 218.093 183.39 219.1 183.39 220.26ZM178.89 219.2C178.89 218.827 178.77 218.547 178.53 218.36C178.29 218.16 177.99 218.06 177.63 218.06C176.843 218.06 176.383 218.44 176.25 219.2H178.89ZM183.994 220.36C183.994 219.187 184.234 218.167 184.714 217.3C185.207 216.42 185.887 215.747 186.754 215.28C187.634 214.813 188.634 214.58 189.754 214.58C191.221 214.58 192.454 214.993 193.454 215.82C194.467 216.647 195.107 217.793 195.374 219.26H190.674C190.501 218.673 190.161 218.38 189.654 218.38C189.294 218.38 189.007 218.547 188.794 218.88C188.594 219.213 188.494 219.707 188.494 220.36C188.494 221.013 188.594 221.507 188.794 221.84C189.007 222.173 189.294 222.34 189.654 222.34C190.161 222.34 190.501 222.047 190.674 221.46H195.374C195.107 222.927 194.467 224.073 193.454 224.9C192.454 225.727 191.221 226.14 189.754 226.14C188.634 226.14 187.634 225.907 186.754 225.44C185.887 224.973 185.207 224.307 184.714 223.44C184.234 222.56 183.994 221.533 183.994 220.36ZM207.501 220.26C207.501 220.567 207.481 220.86 207.441 221.14H200.301C200.368 222.113 200.775 222.6 201.521 222.6C202.001 222.6 202.348 222.38 202.561 221.94H207.261C207.101 222.74 206.761 223.46 206.241 224.1C205.735 224.727 205.088 225.227 204.301 225.6C203.528 225.96 202.675 226.14 201.741 226.14C200.621 226.14 199.621 225.907 198.741 225.44C197.875 224.973 197.195 224.307 196.701 223.44C196.221 222.56 195.981 221.533 195.981 220.36C195.981 219.187 196.221 218.167 196.701 217.3C197.195 216.42 197.875 215.747 198.741 215.28C199.621 214.813 200.621 214.58 201.741 214.58C202.861 214.58 203.855 214.813 204.721 215.28C205.601 215.733 206.281 216.387 206.761 217.24C207.255 218.093 207.501 219.1 207.501 220.26ZM203.001 219.2C203.001 218.827 202.881 218.547 202.641 218.36C202.401 218.16 202.101 218.06 201.741 218.06C200.955 218.06 200.495 218.44 200.361 219.2H203.001ZM216.606 214.64C217.899 214.64 218.906 215.073 219.626 215.94C220.359 216.807 220.726 217.98 220.726 219.46V226H216.306V220.02C216.306 219.487 216.159 219.067 215.866 218.76C215.586 218.44 215.206 218.28 214.726 218.28C214.232 218.28 213.846 218.44 213.566 218.76C213.286 219.067 213.146 219.487 213.146 220.02V226H208.706V214.72H213.146V216.44C213.492 215.907 213.952 215.473 214.526 215.14C215.112 214.807 215.806 214.64 216.606 214.64ZM229.471 222.22V226H227.791C224.698 226 223.151 224.46 223.151 221.38V218.42H221.751V214.72H223.151V212H227.591V214.72H229.431V218.42H227.591V221.46C227.591 221.727 227.651 221.92 227.771 222.04C227.904 222.16 228.118 222.22 228.411 222.22H229.471ZM235.402 216.8C235.855 216.147 236.408 215.627 237.062 215.24C237.715 214.84 238.395 214.64 239.102 214.64V219.38H237.842C237.002 219.38 236.382 219.527 235.982 219.82C235.595 220.113 235.402 220.633 235.402 221.38V226H230.962V214.72H235.402V216.8ZM239.498 220.36C239.498 219.173 239.698 218.147 240.098 217.28C240.511 216.4 241.071 215.733 241.778 215.28C242.484 214.813 243.278 214.58 244.158 214.58C244.891 214.58 245.524 214.733 246.058 215.04C246.591 215.333 246.998 215.74 247.278 216.26V214.72H251.698V226H247.278V224.46C246.998 224.98 246.591 225.393 246.058 225.7C245.524 225.993 244.891 226.14 244.158 226.14C243.278 226.14 242.484 225.913 241.778 225.46C241.071 224.993 240.511 224.327 240.098 223.46C239.698 222.58 239.498 221.547 239.498 220.36ZM247.278 220.36C247.278 219.76 247.124 219.293 246.818 218.96C246.511 218.627 246.118 218.46 245.638 218.46C245.158 218.46 244.764 218.627 244.458 218.96C244.151 219.293 243.998 219.76 243.998 220.36C243.998 220.96 244.151 221.427 244.458 221.76C244.764 222.093 245.158 222.26 245.638 222.26C246.118 222.26 246.511 222.093 246.818 221.76C247.124 221.427 247.278 220.96 247.278 220.36ZM257.932 211.2V226H253.492V211.2H257.932ZM261.977 213.82C261.203 213.82 260.583 213.613 260.117 213.2C259.65 212.787 259.417 212.267 259.417 211.64C259.417 211 259.65 210.473 260.117 210.06C260.583 209.633 261.203 209.42 261.977 209.42C262.737 209.42 263.35 209.633 263.817 210.06C264.283 210.473 264.517 211 264.517 211.64C264.517 212.267 264.283 212.787 263.817 213.2C263.35 213.613 262.737 213.82 261.977 213.82ZM264.177 214.72V226H259.737V214.72H264.177ZM270.242 222.32H274.942V226H265.382V222.52L269.682 218.4H265.442V214.72H274.742V218.2L270.242 222.32ZM287.054 220.26C287.054 220.567 287.034 220.86 286.994 221.14H279.854C279.92 222.113 280.327 222.6 281.074 222.6C281.554 222.6 281.9 222.38 282.114 221.94H286.814C286.654 222.74 286.314 223.46 285.794 224.1C285.287 224.727 284.64 225.227 283.854 225.6C283.08 225.96 282.227 226.14 281.294 226.14C280.174 226.14 279.174 225.907 278.294 225.44C277.427 224.973 276.747 224.307 276.254 223.44C275.774 222.56 275.534 221.533 275.534 220.36C275.534 219.187 275.774 218.167 276.254 217.3C276.747 216.42 277.427 215.747 278.294 215.28C279.174 214.813 280.174 214.58 281.294 214.58C282.414 214.58 283.407 214.813 284.274 215.28C285.154 215.733 285.834 216.387 286.314 217.24C286.807 218.093 287.054 219.1 287.054 220.26ZM282.554 219.2C282.554 218.827 282.434 218.547 282.194 218.36C281.954 218.16 281.654 218.06 281.294 218.06C280.507 218.06 280.047 218.44 279.914 219.2H282.554ZM287.658 220.36C287.658 219.173 287.858 218.147 288.258 217.28C288.671 216.4 289.231 215.733 289.938 215.28C290.645 214.813 291.438 214.58 292.318 214.58C293.051 214.58 293.678 214.733 294.198 215.04C294.731 215.333 295.138 215.74 295.418 216.26V211.2H299.858V226H295.418V224.46C295.138 224.98 294.731 225.393 294.198 225.7C293.678 225.993 293.051 226.14 292.318 226.14C291.438 226.14 290.645 225.913 289.938 225.46C289.231 224.993 288.671 224.327 288.258 223.46C287.858 222.58 287.658 221.547 287.658 220.36ZM295.438 220.36C295.438 219.76 295.285 219.293 294.978 218.96C294.671 218.627 294.278 218.46 293.798 218.46C293.318 218.46 292.925 218.627 292.618 218.96C292.311 219.293 292.158 219.76 292.158 220.36C292.158 220.96 292.311 221.427 292.618 221.76C292.925 222.093 293.318 222.26 293.798 222.26C294.278 222.26 294.671 222.093 294.978 221.76C295.285 221.427 295.438 220.96 295.438 220.36ZM184.805 233.84V248H180.365V233.84H184.805ZM186.011 242.36C186.011 241.173 186.211 240.147 186.611 239.28C187.024 238.4 187.584 237.733 188.291 237.28C188.997 236.813 189.791 236.58 190.671 236.58C191.404 236.58 192.031 236.733 192.551 237.04C193.084 237.333 193.491 237.74 193.771 238.26V233.2H198.211V248H193.771V246.46C193.491 246.98 193.084 247.393 192.551 247.7C192.031 247.993 191.404 248.14 190.671 248.14C189.791 248.14 188.997 247.913 188.291 247.46C187.584 246.993 187.024 246.327 186.611 245.46C186.211 244.58 186.011 243.547 186.011 242.36ZM193.791 242.36C193.791 241.76 193.637 241.293 193.331 240.96C193.024 240.627 192.631 240.46 192.151 240.46C191.671 240.46 191.277 240.627 190.971 240.96C190.664 241.293 190.511 241.76 190.511 242.36C190.511 242.96 190.664 243.427 190.971 243.76C191.277 244.093 191.671 244.26 192.151 244.26C192.631 244.26 193.024 244.093 193.331 243.76C193.637 243.427 193.791 242.96 193.791 242.36ZM210.924 242.26C210.924 242.567 210.904 242.86 210.864 243.14H203.724C203.791 244.113 204.198 244.6 204.944 244.6C205.424 244.6 205.771 244.38 205.984 243.94H210.684C210.524 244.74 210.184 245.46 209.664 246.1C209.158 246.727 208.511 247.227 207.724 247.6C206.951 247.96 206.098 248.14 205.164 248.14C204.044 248.14 203.044 247.907 202.164 247.44C201.298 246.973 200.618 246.307 200.124 245.44C199.644 244.56 199.404 243.533 199.404 242.36C199.404 241.187 199.644 240.167 200.124 239.3C200.618 238.42 201.298 237.747 202.164 237.28C203.044 236.813 204.044 236.58 205.164 236.58C206.284 236.58 207.278 236.813 208.144 237.28C209.024 237.733 209.704 238.387 210.184 239.24C210.678 240.093 210.924 241.1 210.924 242.26ZM206.424 241.2C206.424 240.827 206.304 240.547 206.064 240.36C205.824 240.16 205.524 240.06 205.164 240.06C204.378 240.06 203.918 240.44 203.784 241.2H206.424ZM220.029 236.64C221.322 236.64 222.329 237.073 223.049 237.94C223.782 238.807 224.149 239.98 224.149 241.46V248H219.729V242.02C219.729 241.487 219.582 241.067 219.289 240.76C219.009 240.44 218.629 240.28 218.149 240.28C217.655 240.28 217.269 240.44 216.989 240.76C216.709 241.067 216.569 241.487 216.569 242.02V248H212.129V236.72H216.569V238.44C216.915 237.907 217.375 237.473 217.949 237.14C218.535 236.807 219.229 236.64 220.029 236.64ZM232.894 244.22V248H231.214C228.121 248 226.574 246.46 226.574 243.38V240.42H225.174V236.72H226.574V234H231.014V236.72H232.854V240.42H231.014V243.46C231.014 243.727 231.074 243.92 231.194 244.04C231.327 244.16 231.541 244.22 231.834 244.22H232.894ZM236.625 235.82C235.852 235.82 235.232 235.613 234.765 235.2C234.298 234.787 234.065 234.267 234.065 233.64C234.065 233 234.298 232.473 234.765 232.06C235.232 231.633 235.852 231.42 236.625 231.42C237.385 231.42 237.998 231.633 238.465 232.06C238.932 232.473 239.165 233 239.165 233.64C239.165 234.267 238.932 234.787 238.465 235.2C237.998 235.613 237.385 235.82 236.625 235.82ZM238.825 236.72V248H234.385V236.72H238.825ZM247.65 244.22V248H245.97C242.877 248 241.33 246.46 241.33 243.38V240.42H239.93V236.72H241.33V234H245.77V236.72H247.61V240.42H245.77V243.46C245.77 243.727 245.83 243.92 245.95 244.04C246.084 244.16 246.297 244.22 246.59 244.22H247.65ZM251.381 235.82C250.608 235.82 249.988 235.613 249.521 235.2C249.054 234.787 248.821 234.267 248.821 233.64C248.821 233 249.054 232.473 249.521 232.06C249.988 231.633 250.608 231.42 251.381 231.42C252.141 231.42 252.754 231.633 253.221 232.06C253.688 232.473 253.921 233 253.921 233.64C253.921 234.267 253.688 234.787 253.221 235.2C252.754 235.613 252.141 235.82 251.381 235.82ZM253.581 236.72V248H249.141V236.72H253.581ZM266.306 242.26C266.306 242.567 266.286 242.86 266.246 243.14H259.106C259.173 244.113 259.58 244.6 260.326 244.6C260.806 244.6 261.153 244.38 261.366 243.94H266.066C265.906 244.74 265.566 245.46 265.046 246.1C264.54 246.727 263.893 247.227 263.106 247.6C262.333 247.96 261.48 248.14 260.546 248.14C259.426 248.14 258.426 247.907 257.546 247.44C256.68 246.973 256 246.307 255.506 245.44C255.026 244.56 254.786 243.533 254.786 242.36C254.786 241.187 255.026 240.167 255.506 239.3C256 238.42 256.68 237.747 257.546 237.28C258.426 236.813 259.426 236.58 260.546 236.58C261.666 236.58 262.66 236.813 263.526 237.28C264.406 237.733 265.086 238.387 265.566 239.24C266.06 240.093 266.306 241.1 266.306 242.26ZM261.806 241.2C261.806 240.827 261.686 240.547 261.446 240.36C261.206 240.16 260.906 240.06 260.546 240.06C259.76 240.06 259.3 240.44 259.166 241.2H261.806ZM272.531 248.14C271.464 248.14 270.517 247.967 269.691 247.62C268.877 247.273 268.231 246.793 267.751 246.18C267.271 245.567 266.997 244.873 266.931 244.1H271.191C271.244 244.433 271.384 244.68 271.611 244.84C271.851 245 272.151 245.08 272.511 245.08C272.737 245.08 272.917 245.033 273.051 244.94C273.184 244.833 273.251 244.707 273.251 244.56C273.251 244.307 273.111 244.127 272.831 244.02C272.551 243.913 272.077 243.793 271.411 243.66C270.597 243.5 269.924 243.327 269.391 243.14C268.871 242.953 268.411 242.633 268.011 242.18C267.624 241.727 267.431 241.1 267.431 240.3C267.431 239.607 267.611 238.98 267.971 238.42C268.344 237.847 268.891 237.4 269.611 237.08C270.331 236.747 271.204 236.58 272.231 236.58C273.751 236.58 274.937 236.953 275.791 237.7C276.657 238.447 277.177 239.42 277.351 240.62H273.411C273.344 240.313 273.204 240.08 272.991 239.92C272.777 239.747 272.491 239.66 272.131 239.66C271.904 239.66 271.731 239.707 271.611 239.8C271.491 239.88 271.431 240.007 271.431 240.18C271.431 240.407 271.571 240.58 271.851 240.7C272.131 240.807 272.577 240.92 273.191 241.04C274.004 241.2 274.691 241.38 275.251 241.58C275.811 241.78 276.297 242.127 276.711 242.62C277.124 243.1 277.331 243.767 277.331 244.62C277.331 245.287 277.137 245.887 276.751 246.42C276.364 246.953 275.804 247.373 275.071 247.68C274.351 247.987 273.504 248.14 272.531 248.14Z" fill="url(#paint94_linear_21_16877)"/>
</g>
</g>
<defs>
<filter id="filter0_d_21_16877" x="117.907" y="51.0527" width="30.7674" height="23.9726" filterUnits="userSpaceOnUse" color-interpolation-filters="sRGB">
<feFlood flood-opacity="0" result="BackgroundImageFix"/>
<feColorMatrix in="SourceAlpha" type="matrix" values="0 0 0 0 0 0 0 0 0 0 0 0 0 0 0 0 0 0 127 0" result="hardAlpha"/>
<feOffset dy="2.23124"/>
<feGaussianBlur stdDeviation="0.557811"/>
<feColorMatrix type="matrix" values="0 0 0 0 0.541667 0 0 0 0 0.336104 0 0 0 0 0.0947917 0 0 0 0.25 0"/>
<feBlend mode="normal" in2="BackgroundImageFix" result="effect1_dropShadow_21_16877"/>
<feBlend mode="normal" in="SourceGraphic" in2="effect1_dropShadow_21_16877" result="shape"/>
</filter>
<filter id="filter1_d_21_16877" x="94.4586" y="104.35" width="29.5589" height="15.6013" filterUnits="userSpaceOnUse" color-interpolation-filters="sRGB">
<feFlood flood-opacity="0" result="BackgroundImageFix"/>
<feColorMatrix in="SourceAlpha" type="matrix" values="0 0 0 0 0 0 0 0 0 0 0 0 0 0 0 0 0 0 127 0" result="hardAlpha"/>
<feOffset dy="2.23124"/>
<feGaussianBlur stdDeviation="0.557811"/>
<feColorMatrix type="matrix" values="0 0 0 0 0.541667 0 0 0 0 0.336104 0 0 0 0 0.0947917 0 0 0 0.25 0"/>
<feBlend mode="normal" in2="BackgroundImageFix" result="effect1_dropShadow_21_16877"/>
<feBlend mode="normal" in="SourceGraphic" in2="effect1_dropShadow_21_16877" result="shape"/>
</filter>
<filter id="filter2_d_21_16877" x="66.8184" y="106.987" width="22.4897" height="43.2988" filterUnits="userSpaceOnUse" color-interpolation-filters="sRGB">
<feFlood flood-opacity="0" result="BackgroundImageFix"/>
<feColorMatrix in="SourceAlpha" type="matrix" values="0 0 0 0 0 0 0 0 0 0 0 0 0 0 0 0 0 0 127 0" result="hardAlpha"/>
<feOffset dx="2.23124" dy="2.23124"/>
<feGaussianBlur stdDeviation="0.557811"/>
<feColorMatrix type="matrix" values="0 0 0 0 0.541667 0 0 0 0 0.336104 0 0 0 0 0.0947917 0 0 0 0.25 0"/>
<feBlend mode="normal" in2="BackgroundImageFix" result="effect1_dropShadow_21_16877"/>
<feBlend mode="normal" in="SourceGraphic" in2="effect1_dropShadow_21_16877" result="shape"/>
</filter>
<filter id="filter3_d_21_16877" x="78.265" y="150.361" width="11.8977" height="36.1994" filterUnits="userSpaceOnUse" color-interpolation-filters="sRGB">
<feFlood flood-opacity="0" result="BackgroundImageFix"/>
<feColorMatrix in="SourceAlpha" type="matrix" values="0 0 0 0 0 0 0 0 0 0 0 0 0 0 0 0 0 0 127 0" result="hardAlpha"/>
<feOffset dy="2.23124"/>
<feGaussianBlur stdDeviation="0.557811"/>
<feColorMatrix type="matrix" values="0 0 0 0 0.541667 0 0 0 0 0.336104 0 0 0 0 0.0947917 0 0 0 0.25 0"/>
<feBlend mode="normal" in2="BackgroundImageFix" result="effect1_dropShadow_21_16877"/>
<feBlend mode="normal" in="SourceGraphic" in2="effect1_dropShadow_21_16877" result="shape"/>
</filter>
<filter id="filter4_d_21_16877" x="77.5172" y="185.624" width="13.3894" height="41.0275" filterUnits="userSpaceOnUse" color-interpolation-filters="sRGB">
<feFlood flood-opacity="0" result="BackgroundImageFix"/>
<feColorMatrix in="SourceAlpha" type="matrix" values="0 0 0 0 0 0 0 0 0 0 0 0 0 0 0 0 0 0 127 0" result="hardAlpha"/>
<feOffset dy="2.23124"/>
<feGaussianBlur stdDeviation="0.557811"/>
<feColorMatrix type="matrix" values="0 0 0 0 0.541667 0 0 0 0 0.336104 0 0 0 0 0.0947917 0 0 0 0.25 0"/>
<feBlend mode="normal" in2="BackgroundImageFix" result="effect1_dropShadow_21_16877"/>
<feBlend mode="normal" in="SourceGraphic" in2="effect1_dropShadow_21_16877" result="shape"/>
</filter>
<filter id="filter5_d_21_16877" x="54.1143" y="191.262" width="27.8383" height="25.9946" filterUnits="userSpaceOnUse" color-interpolation-filters="sRGB">
<feFlood flood-opacity="0" result="BackgroundImageFix"/>
<feColorMatrix in="SourceAlpha" type="matrix" values="0 0 0 0 0 0 0 0 0 0 0 0 0 0 0 0 0 0 127 0" result="hardAlpha"/>
<feOffset dx="2.23124" dy="2.23124"/>
<feGaussianBlur stdDeviation="0.557811"/>
<feColorMatrix type="matrix" values="0 0 0 0 0.541667 0 0 0 0 0.336104 0 0 0 0 0.0947917 0 0 0 0.25 0"/>
<feBlend mode="normal" in2="BackgroundImageFix" result="effect1_dropShadow_21_16877"/>
<feBlend mode="normal" in="SourceGraphic" in2="effect1_dropShadow_21_16877" result="shape"/>
</filter>
<filter id="filter6_d_21_16877" x="60.505" y="233.969" width="26.5259" height="15.8808" filterUnits="userSpaceOnUse" color-interpolation-filters="sRGB">
<feFlood flood-opacity="0" result="BackgroundImageFix"/>
<feColorMatrix in="SourceAlpha" type="matrix" values="0 0 0 0 0 0 0 0 0 0 0 0 0 0 0 0 0 0 127 0" result="hardAlpha"/>
<feOffset dy="2.23124"/>
<feGaussianBlur stdDeviation="0.557811"/>
<feColorMatrix type="matrix" values="0 0 0 0 0.541667 0 0 0 0 0.336104 0 0 0 0 0.0947917 0 0 0 0.25 0"/>
<feBlend mode="normal" in2="BackgroundImageFix" result="effect1_dropShadow_21_16877"/>
<feBlend mode="normal" in="SourceGraphic" in2="effect1_dropShadow_21_16877" result="shape"/>
</filter>
<filter id="filter7_d_21_16877" x="305.326" y="52.0071" width="30.7674" height="23.9726" filterUnits="userSpaceOnUse" color-interpolation-filters="sRGB">
<feFlood flood-opacity="0" result="BackgroundImageFix"/>
<feColorMatrix in="SourceAlpha" type="matrix" values="0 0 0 0 0 0 0 0 0 0 0 0 0 0 0 0 0 0 127 0" result="hardAlpha"/>
<feOffset dy="2.23124"/>
<feGaussianBlur stdDeviation="0.557811"/>
<feColorMatrix type="matrix" values="0 0 0 0 0.541667 0 0 0 0 0.336104 0 0 0 0 0.0947917 0 0 0 0.25 0"/>
<feBlend mode="normal" in2="BackgroundImageFix" result="effect1_dropShadow_21_16877"/>
<feBlend mode="normal" in="SourceGraphic" in2="effect1_dropShadow_21_16877" result="shape"/>
</filter>
<filter id="filter8_d_21_16877" x="329.987" y="105.303" width="29.5589" height="15.601" filterUnits="userSpaceOnUse" color-interpolation-filters="sRGB">
<feFlood flood-opacity="0" result="BackgroundImageFix"/>
<feColorMatrix in="SourceAlpha" type="matrix" values="0 0 0 0 0 0 0 0 0 0 0 0 0 0 0 0 0 0 127 0" result="hardAlpha"/>
<feOffset dy="2.23124"/>
<feGaussianBlur stdDeviation="0.557811"/>
<feColorMatrix type="matrix" values="0 0 0 0 0.541667 0 0 0 0 0.336104 0 0 0 0 0.0947917 0 0 0 0.25 0"/>
<feBlend mode="normal" in2="BackgroundImageFix" result="effect1_dropShadow_21_16877"/>
<feBlend mode="normal" in="SourceGraphic" in2="effect1_dropShadow_21_16877" result="shape"/>
</filter>
<filter id="filter9_d_21_16877" x="368.04" y="107.942" width="22.4897" height="43.2988" filterUnits="userSpaceOnUse" color-interpolation-filters="sRGB">
<feFlood flood-opacity="0" result="BackgroundImageFix"/>
<feColorMatrix in="SourceAlpha" type="matrix" values="0 0 0 0 0 0 0 0 0 0 0 0 0 0 0 0 0 0 127 0" result="hardAlpha"/>
<feOffset dx="2.23124" dy="2.23124"/>
<feGaussianBlur stdDeviation="0.557811"/>
<feColorMatrix type="matrix" values="0 0 0 0 0.541667 0 0 0 0 0.336104 0 0 0 0 0.0947917 0 0 0 0.25 0"/>
<feBlend mode="normal" in2="BackgroundImageFix" result="effect1_dropShadow_21_16877"/>
<feBlend mode="normal" in="SourceGraphic" in2="effect1_dropShadow_21_16877" result="shape"/>
</filter>
<filter id="filter10_d_21_16877" x="363.838" y="151.315" width="11.8977" height="36.1992" filterUnits="userSpaceOnUse" color-interpolation-filters="sRGB">
<feFlood flood-opacity="0" result="BackgroundImageFix"/>
<feColorMatrix in="SourceAlpha" type="matrix" values="0 0 0 0 0 0 0 0 0 0 0 0 0 0 0 0 0 0 127 0" result="hardAlpha"/>
<feOffset dy="2.23124"/>
<feGaussianBlur stdDeviation="0.557811"/>
<feColorMatrix type="matrix" values="0 0 0 0 0.541667 0 0 0 0 0.336104 0 0 0 0 0.0947917 0 0 0 0.25 0"/>
<feBlend mode="normal" in2="BackgroundImageFix" result="effect1_dropShadow_21_16877"/>
<feBlend mode="normal" in="SourceGraphic" in2="effect1_dropShadow_21_16877" result="shape"/>
</filter>
<filter id="filter11_d_21_16877" x="363.094" y="186.579" width="13.3894" height="41.0275" filterUnits="userSpaceOnUse" color-interpolation-filters="sRGB">
<feFlood flood-opacity="0" result="BackgroundImageFix"/>
<feColorMatrix in="SourceAlpha" type="matrix" values="0 0 0 0 0 0 0 0 0 0 0 0 0 0 0 0 0 0 127 0" result="hardAlpha"/>
<feOffset dy="2.23124"/>
<feGaussianBlur stdDeviation="0.557811"/>
<feColorMatrix type="matrix" values="0 0 0 0 0.541667 0 0 0 0 0.336104 0 0 0 0 0.0947917 0 0 0 0.25 0"/>
<feBlend mode="normal" in2="BackgroundImageFix" result="effect1_dropShadow_21_16877"/>
<feBlend mode="normal" in="SourceGraphic" in2="effect1_dropShadow_21_16877" result="shape"/>
</filter>
<filter id="filter12_d_21_16877" x="375.396" y="192.217" width="27.8383" height="25.9946" filterUnits="userSpaceOnUse" color-interpolation-filters="sRGB">
<feFlood flood-opacity="0" result="BackgroundImageFix"/>
<feColorMatrix in="SourceAlpha" type="matrix" values="0 0 0 0 0 0 0 0 0 0 0 0 0 0 0 0 0 0 127 0" result="hardAlpha"/>
<feOffset dx="2.23124" dy="2.23124"/>
<feGaussianBlur stdDeviation="0.557811"/>
<feColorMatrix type="matrix" values="0 0 0 0 0.541667 0 0 0 0 0.336104 0 0 0 0 0.0947917 0 0 0 0.25 0"/>
<feBlend mode="normal" in2="BackgroundImageFix" result="effect1_dropShadow_21_16877"/>
<feBlend mode="normal" in="SourceGraphic" in2="effect1_dropShadow_21_16877" result="shape"/>
</filter>
<filter id="filter13_d_21_16877" x="366.968" y="234.923" width="26.5259" height="15.8808" filterUnits="userSpaceOnUse" color-interpolation-filters="sRGB">
<feFlood flood-opacity="0" result="BackgroundImageFix"/>
<feColorMatrix in="SourceAlpha" type="matrix" values="0 0 0 0 0 0 0 0 0 0 0 0 0 0 0 0 0 0 127 0" result="hardAlpha"/>
<feOffset dy="2.23124"/>
<feGaussianBlur stdDeviation="0.557811"/>
<feColorMatrix type="matrix" values="0 0 0 0 0.541667 0 0 0 0 0.336104 0 0 0 0 0.0947917 0 0 0 0.25 0"/>
<feBlend mode="normal" in2="BackgroundImageFix" result="effect1_dropShadow_21_16877"/>
<feBlend mode="normal" in="SourceGraphic" in2="effect1_dropShadow_21_16877" result="shape"/>
</filter>
<filter id="filter14_d_21_16877" x="11.3833" y="57.6497" width="412.068" height="286.556" filterUnits="userSpaceOnUse" color-interpolation-filters="sRGB">
<feFlood flood-opacity="0" result="BackgroundImageFix"/>
<feColorMatrix in="SourceAlpha" type="matrix" values="0 0 0 0 0 0 0 0 0 0 0 0 0 0 0 0 0 0 127 0" result="hardAlpha"/>
<feOffset dy="8"/>
<feGaussianBlur stdDeviation="3"/>
<feColorMatrix type="matrix" values="0 0 0 0 0.208958 0 0 0 0 0.389892 0 0 0 0 0.491667 0 0 0 0.54 0"/>
<feBlend mode="normal" in2="BackgroundImageFix" result="effect1_dropShadow_21_16877"/>
<feBlend mode="normal" in="SourceGraphic" in2="effect1_dropShadow_21_16877" result="shape"/>
</filter>
<filter id="filter15_f_21_16877" x="124.658" y="77.8313" width="205.539" height="231.71" filterUnits="userSpaceOnUse" color-interpolation-filters="sRGB">
<feFlood flood-opacity="0" result="BackgroundImageFix"/>
<feBlend mode="normal" in="SourceGraphic" in2="BackgroundImageFix" result="shape"/>
<feGaussianBlur stdDeviation="0.15" result="effect1_foregroundBlur_21_16877"/>
</filter>
<filter id="filter16_i_21_16877" x="134.129" y="88.0566" width="187.851" height="211.632" filterUnits="userSpaceOnUse" color-interpolation-filters="sRGB">
<feFlood flood-opacity="0" result="BackgroundImageFix"/>
<feBlend mode="normal" in="SourceGraphic" in2="BackgroundImageFix" result="shape"/>
<feColorMatrix in="SourceAlpha" type="matrix" values="0 0 0 0 0 0 0 0 0 0 0 0 0 0 0 0 0 0 127 0" result="hardAlpha"/>
<feOffset/>
<feGaussianBlur stdDeviation="6.72414"/>
<feComposite in2="hardAlpha" operator="arithmetic" k2="-1" k3="1"/>
<feColorMatrix type="matrix" values="0 0 0 0 0.37849 0 0 0 0 0.586923 0 0 0 0 0.704167 0 0 0 1 0"/>
<feBlend mode="normal" in2="shape" result="effect1_innerShadow_21_16877"/>
</filter>
<filter id="filter17_i_21_16877" x="151.267" y="138.6" width="154.92" height="113.54" filterUnits="userSpaceOnUse" color-interpolation-filters="sRGB">
<feFlood flood-opacity="0" result="BackgroundImageFix"/>
<feBlend mode="normal" in="SourceGraphic" in2="BackgroundImageFix" result="shape"/>
<feColorMatrix in="SourceAlpha" type="matrix" values="0 0 0 0 0 0 0 0 0 0 0 0 0 0 0 0 0 0 127 0" result="hardAlpha"/>
<feOffset dy="4"/>
<feGaussianBlur stdDeviation="2"/>
<feComposite in2="hardAlpha" operator="arithmetic" k2="-1" k3="1"/>
<feColorMatrix type="matrix" values="0 0 0 0 0 0 0 0 0 0 0 0 0 0 0 0 0 0 0.25 0"/>
<feBlend mode="normal" in2="shape" result="effect1_innerShadow_21_16877"/>
</filter>
<linearGradient id="paint0_linear_21_16877" x1="81.794" y1="227.778" x2="73.9211" y2="238.404" gradientUnits="userSpaceOnUse">
<stop stop-color="#D2AB68"/>
<stop offset="1" stop-color="#B67D3F"/>
</linearGradient>
<linearGradient id="paint1_linear_21_16877" x1="115.22" y1="68.8257" x2="92.7735" y2="99.119" gradientUnits="userSpaceOnUse">
<stop stop-color="#D2AB68"/>
<stop offset="1" stop-color="#B67D3F"/>
</linearGradient>
<linearGradient id="paint2_linear_21_16877" x1="138.555" y1="59.2263" x2="122.95" y2="80.2871" gradientUnits="userSpaceOnUse">
<stop stop-color="#D2AB68"/>
<stop offset="1" stop-color="#B67D3F"/>
</linearGradient>
<linearGradient id="paint3_linear_21_16877" x1="80.8811" y1="147.589" x2="89.2023" y2="151.06" gradientUnits="userSpaceOnUse">
<stop stop-color="#D2AB68"/>
<stop offset="1" stop-color="#B67D3F"/>
</linearGradient>
<linearGradient id="paint4_linear_21_16877" x1="133.885" y1="73.3805" x2="121.194" y2="47.6297" gradientUnits="userSpaceOnUse">
<stop stop-color="#D2AB68"/>
<stop offset="1" stop-color="#B67D3F"/>
</linearGradient>
<linearGradient id="paint5_linear_21_16877" x1="124.322" y1="44.3336" x2="117.348" y2="71.5865" gradientUnits="userSpaceOnUse">
<stop stop-color="#F7E6B3"/>
<stop offset="1" stop-color="#F7E6B3" stop-opacity="0"/>
</linearGradient>
<linearGradient id="paint6_linear_21_16877" x1="105.65" y1="146.82" x2="78.2606" y2="183.785" gradientUnits="userSpaceOnUse">
<stop stop-color="#D2AB68"/>
<stop offset="1" stop-color="#B67D3F"/>
</linearGradient>
<linearGradient id="paint7_linear_21_16877" x1="99.4317" y1="151.088" x2="107.873" y2="174.221" gradientUnits="userSpaceOnUse">
<stop stop-color="#F7E6B3"/>
<stop offset="1" stop-color="#F7E6B3" stop-opacity="0"/>
</linearGradient>
<linearGradient id="paint8_linear_21_16877" x1="92.0667" y1="111.591" x2="77.5029" y2="131.246" gradientUnits="userSpaceOnUse">
<stop stop-color="#D2AB68"/>
<stop offset="1" stop-color="#B67D3F"/>
</linearGradient>
<linearGradient id="paint9_linear_21_16877" x1="89.3563" y1="122.916" x2="82.8276" y2="135.17" gradientUnits="userSpaceOnUse">
<stop stop-color="#C18E42"/>
<stop offset="1" stop-color="#D2AB68"/>
</linearGradient>
<linearGradient id="paint10_linear_21_16877" x1="104.555" y1="77.0624" x2="86.1393" y2="101.916" gradientUnits="userSpaceOnUse">
<stop stop-color="#D2AB68"/>
<stop offset="1" stop-color="#8E573C"/>
</linearGradient>
<linearGradient id="paint11_linear_21_16877" x1="119.305" y1="87.7392" x2="101.612" y2="111.618" gradientUnits="userSpaceOnUse">
<stop stop-color="#D2AB68"/>
<stop offset="1" stop-color="#B67D3F"/>
</linearGradient>
<linearGradient id="paint12_linear_21_16877" x1="71.477" y1="161.386" x2="64.9908" y2="170.14" gradientUnits="userSpaceOnUse">
<stop stop-color="#D2AB68"/>
<stop offset="1" stop-color="#B67D3F"/>
</linearGradient>
<linearGradient id="paint13_linear_21_16877" x1="76.4439" y1="145.056" x2="61.1579" y2="165.687" gradientUnits="userSpaceOnUse">
<stop stop-color="#C28766"/>
<stop offset="1" stop-color="#8E573C"/>
</linearGradient>
<linearGradient id="paint14_linear_21_16877" x1="100.233" y1="194.891" x2="80.2531" y2="221.857" gradientUnits="userSpaceOnUse">
<stop stop-color="#D2AB68"/>
<stop offset="1" stop-color="#B67D3F"/>
</linearGradient>
<linearGradient id="paint15_linear_21_16877" x1="79.306" y1="188.192" x2="66.668" y2="205.248" gradientUnits="userSpaceOnUse">
<stop stop-color="#D2AB68"/>
<stop offset="1" stop-color="#B67D3F"/>
</linearGradient>
<linearGradient id="paint16_linear_21_16877" x1="81.5562" y1="187.091" x2="66.6847" y2="207.162" gradientUnits="userSpaceOnUse">
<stop stop-color="#FADA81"/>
<stop offset="1" stop-color="#B67D3F"/>
</linearGradient>
<linearGradient id="paint17_linear_21_16877" x1="79.2899" y1="242.53" x2="73.1514" y2="250.815" gradientUnits="userSpaceOnUse">
<stop stop-color="#D2AB68"/>
<stop offset="1" stop-color="#B67D3F"/>
</linearGradient>
<linearGradient id="paint18_linear_21_16877" x1="157.947" y1="19.4951" x2="135.921" y2="49.2221" gradientUnits="userSpaceOnUse">
<stop stop-color="#FCF1D5"/>
<stop offset="1" stop-color="#EBCE6A"/>
</linearGradient>
<linearGradient id="paint19_linear_21_16877" x1="160.482" y1="21.374" x2="138.456" y2="51.1011" gradientUnits="userSpaceOnUse">
<stop stop-color="#D2AB68"/>
<stop offset="1" stop-color="#B67D3F"/>
</linearGradient>
<linearGradient id="paint20_linear_21_16877" x1="144.362" y1="48.6839" x2="124.382" y2="75.6494" gradientUnits="userSpaceOnUse">
<stop stop-color="#D2AB68"/>
<stop offset="1" stop-color="#B67D3F"/>
</linearGradient>
<linearGradient id="paint21_linear_21_16877" x1="138.974" y1="51.1666" x2="139.678" y2="77.0002" gradientUnits="userSpaceOnUse">
<stop stop-color="#F7E6B3"/>
<stop offset="1" stop-color="#F7E6B3" stop-opacity="0"/>
</linearGradient>
<linearGradient id="paint22_linear_21_16877" x1="109.195" y1="71.6102" x2="102.803" y2="102.64" gradientUnits="userSpaceOnUse">
<stop stop-color="#F7E6B3"/>
<stop offset="1" stop-color="#F7E6B3" stop-opacity="0"/>
</linearGradient>
<linearGradient id="paint23_linear_21_16877" x1="98.231" y1="78.1299" x2="88.0275" y2="104.491" gradientUnits="userSpaceOnUse">
<stop stop-color="#F7E6B3"/>
<stop offset="1" stop-color="#F7E6B3" stop-opacity="0"/>
</linearGradient>
<linearGradient id="paint24_linear_21_16877" x1="115.034" y1="90.3814" x2="115.453" y2="107.958" gradientUnits="userSpaceOnUse">
<stop stop-color="#FFDD78"/>
<stop offset="1" stop-color="#FFF1C8" stop-opacity="0.38"/>
</linearGradient>
<linearGradient id="paint25_linear_21_16877" x1="116.584" y1="100.064" x2="101.057" y2="121.019" gradientUnits="userSpaceOnUse">
<stop stop-color="#D2AB68"/>
<stop offset="1" stop-color="#B67D3F"/>
</linearGradient>
<linearGradient id="paint26_linear_21_16877" x1="116.843" y1="99.7528" x2="97.9605" y2="119.021" gradientUnits="userSpaceOnUse">
<stop stop-color="#FFDA92"/>
<stop offset="1" stop-color="#DCBA84"/>
</linearGradient>
<linearGradient id="paint27_linear_21_16877" x1="72.5371" y1="111.212" x2="82.8513" y2="141.442" gradientUnits="userSpaceOnUse">
<stop stop-color="#F7E6B3"/>
<stop offset="1" stop-color="#BC8647"/>
</linearGradient>
<linearGradient id="paint28_linear_21_16877" x1="82.2277" y1="118.704" x2="69.8906" y2="135.354" gradientUnits="userSpaceOnUse">
<stop stop-color="#D2AB68"/>
<stop offset="1" stop-color="#8E573C"/>
</linearGradient>
<linearGradient id="paint29_linear_21_16877" x1="68.5714" y1="143.52" x2="58.1551" y2="162.46" gradientUnits="userSpaceOnUse">
<stop stop-color="#F7E6B3"/>
<stop offset="1" stop-color="#F7E6B3" stop-opacity="0"/>
</linearGradient>
<linearGradient id="paint30_linear_21_16877" x1="93.1443" y1="154.409" x2="74.4882" y2="179.587" gradientUnits="userSpaceOnUse">
<stop stop-color="#D2AB68"/>
<stop offset="1" stop-color="#B67D3F"/>
</linearGradient>
<linearGradient id="paint31_linear_21_16877" x1="87.7147" y1="149.985" x2="79.3481" y2="181.547" gradientUnits="userSpaceOnUse">
<stop stop-color="#E0C087"/>
<stop offset="0.28125" stop-color="#FFE49E"/>
<stop offset="1" stop-color="#753C1D"/>
</linearGradient>
<linearGradient id="paint32_linear_21_16877" x1="65.6365" y1="161.681" x2="58.6114" y2="168.659" gradientUnits="userSpaceOnUse">
<stop stop-color="#B18253"/>
<stop offset="1" stop-color="#F7E6B3" stop-opacity="0"/>
</linearGradient>
<linearGradient id="paint33_linear_21_16877" x1="92.8971" y1="191.719" x2="73.8798" y2="217.385" gradientUnits="userSpaceOnUse">
<stop stop-color="#D2AB68"/>
<stop offset="1" stop-color="#B67D3F"/>
</linearGradient>
<linearGradient id="paint34_linear_21_16877" x1="87.2869" y1="193.667" x2="79.685" y2="221.603" gradientUnits="userSpaceOnUse">
<stop stop-color="#F7E6B3"/>
<stop offset="1" stop-color="#F7E6B3" stop-opacity="0"/>
</linearGradient>
<linearGradient id="paint35_linear_21_16877" x1="69.0774" y1="199.042" x2="62.2466" y2="208.261" gradientUnits="userSpaceOnUse">
<stop stop-color="#D2AB68"/>
<stop offset="1" stop-color="#B67D3F"/>
</linearGradient>
<linearGradient id="paint36_linear_21_16877" x1="66.298" y1="197.172" x2="71.958" y2="210.784" gradientUnits="userSpaceOnUse">
<stop stop-color="#FADA81"/>
<stop offset="1" stop-color="#9A5E33"/>
</linearGradient>
<linearGradient id="paint37_linear_21_16877" x1="77.8872" y1="233.623" x2="70.7211" y2="243.295" gradientUnits="userSpaceOnUse">
<stop stop-color="#FADA81"/>
<stop offset="1" stop-color="#B67D3F"/>
</linearGradient>
<linearGradient id="paint38_linear_21_16877" x1="78.212" y1="237.872" x2="70.1061" y2="248.812" gradientUnits="userSpaceOnUse">
<stop stop-color="#D2AB68"/>
<stop offset="1" stop-color="#B67D3F"/>
</linearGradient>
<linearGradient id="paint39_linear_21_16877" x1="372.206" y1="228.733" x2="380.079" y2="239.358" gradientUnits="userSpaceOnUse">
<stop stop-color="#D2AB68"/>
<stop offset="1" stop-color="#B67D3F"/>
</linearGradient>
<linearGradient id="paint40_linear_21_16877" x1="338.781" y1="69.78" x2="361.227" y2="100.073" gradientUnits="userSpaceOnUse">
<stop stop-color="#D2AB68"/>
<stop offset="1" stop-color="#B67D3F"/>
</linearGradient>
<linearGradient id="paint41_linear_21_16877" x1="315.445" y1="60.1804" x2="331.05" y2="81.2412" gradientUnits="userSpaceOnUse">
<stop stop-color="#D2AB68"/>
<stop offset="1" stop-color="#B67D3F"/>
</linearGradient>
<linearGradient id="paint42_linear_21_16877" x1="373.119" y1="148.544" x2="364.798" y2="152.016" gradientUnits="userSpaceOnUse">
<stop stop-color="#D2AB68"/>
<stop offset="1" stop-color="#B67D3F"/>
</linearGradient>
<linearGradient id="paint43_linear_21_16877" x1="320.115" y1="74.335" x2="332.806" y2="48.5842" gradientUnits="userSpaceOnUse">
<stop stop-color="#D2AB68"/>
<stop offset="1" stop-color="#B67D3F"/>
</linearGradient>
<linearGradient id="paint44_linear_21_16877" x1="329.678" y1="45.288" x2="336.652" y2="72.541" gradientUnits="userSpaceOnUse">
<stop stop-color="#F7E6B3"/>
<stop offset="1" stop-color="#F7E6B3" stop-opacity="0"/>
</linearGradient>
<linearGradient id="paint45_linear_21_16877" x1="348.348" y1="147.774" x2="375.738" y2="184.74" gradientUnits="userSpaceOnUse">
<stop stop-color="#D2AB68"/>
<stop offset="1" stop-color="#B67D3F"/>
</linearGradient>
<linearGradient id="paint46_linear_21_16877" x1="354.567" y1="152.042" x2="346.127" y2="175.178" gradientUnits="userSpaceOnUse">
<stop stop-color="#F7E6B3"/>
<stop offset="1" stop-color="#F7E6B3" stop-opacity="0"/>
</linearGradient>
<linearGradient id="paint47_linear_21_16877" x1="361.932" y1="112.546" x2="376.496" y2="132.202" gradientUnits="userSpaceOnUse">
<stop stop-color="#D2AB68"/>
<stop offset="1" stop-color="#B67D3F"/>
</linearGradient>
<linearGradient id="paint48_linear_21_16877" x1="364.644" y1="123.872" x2="371.173" y2="136.125" gradientUnits="userSpaceOnUse">
<stop stop-color="#C18E42"/>
<stop offset="1" stop-color="#D2AB68"/>
</linearGradient>
<linearGradient id="paint49_linear_21_16877" x1="349.444" y1="78.0169" x2="367.859" y2="102.871" gradientUnits="userSpaceOnUse">
<stop stop-color="#D2AB68"/>
<stop offset="1" stop-color="#8E573C"/>
</linearGradient>
<linearGradient id="paint50_linear_21_16877" x1="334.696" y1="88.6935" x2="352.389" y2="112.572" gradientUnits="userSpaceOnUse">
<stop stop-color="#D2AB68"/>
<stop offset="1" stop-color="#B67D3F"/>
</linearGradient>
<linearGradient id="paint51_linear_21_16877" x1="382.521" y1="162.341" x2="389.008" y2="171.095" gradientUnits="userSpaceOnUse">
<stop stop-color="#D2AB68"/>
<stop offset="1" stop-color="#B67D3F"/>
</linearGradient>
<linearGradient id="paint52_linear_21_16877" x1="377.556" y1="146.011" x2="392.842" y2="166.641" gradientUnits="userSpaceOnUse">
<stop stop-color="#C28766"/>
<stop offset="1" stop-color="#8E573C"/>
</linearGradient>
<linearGradient id="paint53_linear_21_16877" x1="353.766" y1="195.846" x2="373.746" y2="222.811" gradientUnits="userSpaceOnUse">
<stop stop-color="#D2AB68"/>
<stop offset="1" stop-color="#B67D3F"/>
</linearGradient>
<linearGradient id="paint54_linear_21_16877" x1="374.694" y1="189.147" x2="387.332" y2="206.204" gradientUnits="userSpaceOnUse">
<stop stop-color="#D2AB68"/>
<stop offset="1" stop-color="#B67D3F"/>
</linearGradient>
<linearGradient id="paint55_linear_21_16877" x1="372.444" y1="188.047" x2="387.316" y2="208.118" gradientUnits="userSpaceOnUse">
<stop stop-color="#FADA81"/>
<stop offset="1" stop-color="#B67D3F"/>
</linearGradient>
<linearGradient id="paint56_linear_21_16877" x1="374.71" y1="243.484" x2="380.848" y2="251.769" gradientUnits="userSpaceOnUse">
<stop stop-color="#D2AB68"/>
<stop offset="1" stop-color="#B67D3F"/>
</linearGradient>
<linearGradient id="paint57_linear_21_16877" x1="296.052" y1="20.4492" x2="318.078" y2="50.1761" gradientUnits="userSpaceOnUse">
<stop stop-color="#FCF1D5"/>
<stop offset="1" stop-color="#EBCE6A"/>
</linearGradient>
<linearGradient id="paint58_linear_21_16877" x1="293.517" y1="22.3281" x2="315.543" y2="52.0552" gradientUnits="userSpaceOnUse">
<stop stop-color="#D2AB68"/>
<stop offset="1" stop-color="#B67D3F"/>
</linearGradient>
<linearGradient id="paint59_linear_21_16877" x1="309.638" y1="49.6383" x2="329.619" y2="76.6037" gradientUnits="userSpaceOnUse">
<stop stop-color="#D2AB68"/>
<stop offset="1" stop-color="#B67D3F"/>
</linearGradient>
<linearGradient id="paint60_linear_21_16877" x1="315.026" y1="52.1209" x2="314.322" y2="77.9545" gradientUnits="userSpaceOnUse">
<stop stop-color="#F7E6B3"/>
<stop offset="1" stop-color="#F7E6B3" stop-opacity="0"/>
</linearGradient>
<linearGradient id="paint61_linear_21_16877" x1="344.807" y1="72.5667" x2="351.199" y2="103.595" gradientUnits="userSpaceOnUse">
<stop stop-color="#F7E6B3"/>
<stop offset="1" stop-color="#F7E6B3" stop-opacity="0"/>
</linearGradient>
<linearGradient id="paint62_linear_21_16877" x1="355.768" y1="79.0841" x2="365.971" y2="105.443" gradientUnits="userSpaceOnUse">
<stop stop-color="#F7E6B3"/>
<stop offset="1" stop-color="#F7E6B3" stop-opacity="0"/>
</linearGradient>
<linearGradient id="paint63_linear_21_16877" x1="338.972" y1="91.3397" x2="338.553" y2="108.914" gradientUnits="userSpaceOnUse">
<stop stop-color="#FFDD78"/>
<stop offset="1" stop-color="#FFF1C8" stop-opacity="0.38"/>
</linearGradient>
<linearGradient id="paint64_linear_21_16877" x1="337.421" y1="101.017" x2="352.947" y2="121.972" gradientUnits="userSpaceOnUse">
<stop stop-color="#D2AB68"/>
<stop offset="1" stop-color="#B67D3F"/>
</linearGradient>
<linearGradient id="paint65_linear_21_16877" x1="337.162" y1="100.706" x2="356.044" y2="119.974" gradientUnits="userSpaceOnUse">
<stop stop-color="#FFDA92"/>
<stop offset="1" stop-color="#DCBA84"/>
</linearGradient>
<linearGradient id="paint66_linear_21_16877" x1="381.464" y1="112.166" x2="371.15" y2="142.397" gradientUnits="userSpaceOnUse">
<stop stop-color="#F7E6B3"/>
<stop offset="1" stop-color="#BC8647"/>
</linearGradient>
<linearGradient id="paint67_linear_21_16877" x1="371.776" y1="119.657" x2="384.111" y2="136.305" gradientUnits="userSpaceOnUse">
<stop stop-color="#D2AB68"/>
<stop offset="1" stop-color="#8E573C"/>
</linearGradient>
<linearGradient id="paint68_linear_21_16877" x1="385.432" y1="144.476" x2="395.848" y2="163.416" gradientUnits="userSpaceOnUse">
<stop stop-color="#F7E6B3"/>
<stop offset="1" stop-color="#F7E6B3" stop-opacity="0"/>
</linearGradient>
<linearGradient id="paint69_linear_21_16877" x1="360.857" y1="155.363" x2="379.513" y2="180.541" gradientUnits="userSpaceOnUse">
<stop stop-color="#D2AB68"/>
<stop offset="1" stop-color="#B67D3F"/>
</linearGradient>
<linearGradient id="paint70_linear_21_16877" x1="366.286" y1="150.939" x2="374.652" y2="182.501" gradientUnits="userSpaceOnUse">
<stop stop-color="#E0C087"/>
<stop offset="0.28125" stop-color="#FFE49E"/>
<stop offset="1" stop-color="#753C1D"/>
</linearGradient>
<linearGradient id="paint71_linear_21_16877" x1="388.365" y1="162.636" x2="395.39" y2="169.614" gradientUnits="userSpaceOnUse">
<stop stop-color="#B18253"/>
<stop offset="1" stop-color="#F7E6B3" stop-opacity="0"/>
</linearGradient>
<linearGradient id="paint72_linear_21_16877" x1="361.104" y1="192.674" x2="380.121" y2="218.34" gradientUnits="userSpaceOnUse">
<stop stop-color="#D2AB68"/>
<stop offset="1" stop-color="#B67D3F"/>
</linearGradient>
<linearGradient id="paint73_linear_21_16877" x1="366.714" y1="194.623" x2="374.316" y2="222.559" gradientUnits="userSpaceOnUse">
<stop stop-color="#F7E6B3"/>
<stop offset="1" stop-color="#F7E6B3" stop-opacity="0"/>
</linearGradient>
<linearGradient id="paint74_linear_21_16877" x1="384.924" y1="199.996" x2="391.755" y2="209.215" gradientUnits="userSpaceOnUse">
<stop stop-color="#D2AB68"/>
<stop offset="1" stop-color="#B67D3F"/>
</linearGradient>
<linearGradient id="paint75_linear_21_16877" x1="387.703" y1="198.126" x2="382.043" y2="211.738" gradientUnits="userSpaceOnUse">
<stop stop-color="#FADA81"/>
<stop offset="1" stop-color="#9A5E33"/>
</linearGradient>
<linearGradient id="paint76_linear_21_16877" x1="376.112" y1="234.577" x2="383.278" y2="244.249" gradientUnits="userSpaceOnUse">
<stop stop-color="#FADA81"/>
<stop offset="1" stop-color="#B67D3F"/>
</linearGradient>
<linearGradient id="paint77_linear_21_16877" x1="375.788" y1="238.826" x2="383.893" y2="249.766" gradientUnits="userSpaceOnUse">
<stop stop-color="#D2AB68"/>
<stop offset="1" stop-color="#B67D3F"/>
</linearGradient>
<linearGradient id="paint78_linear_21_16877" x1="358.844" y1="187.288" x2="392.222" y2="153.587" gradientUnits="userSpaceOnUse">
<stop stop-color="#C3C5D1"/>
<stop offset="0.875" stop-color="#F9F9F9"/>
</linearGradient>
<linearGradient id="paint79_linear_21_16877" x1="410.779" y1="147.889" x2="379.107" y2="187.586" gradientUnits="userSpaceOnUse">
<stop stop-color="#F9F9F9"/>
<stop offset="0.378992" stop-color="#F9F9F9"/>
<stop offset="0.480868" stop-color="#DFDFE6"/>
<stop offset="0.729174" stop-color="#B8BAC6"/>
</linearGradient>
<linearGradient id="paint80_linear_21_16877" x1="335.638" y1="217.385" x2="369.007" y2="182.59" gradientUnits="userSpaceOnUse">
<stop stop-color="#C3C5D1"/>
<stop offset="0.875" stop-color="#F9F9F9"/>
</linearGradient>
<linearGradient id="paint81_linear_21_16877" x1="378.181" y1="182.91" x2="361.317" y2="217.514" gradientUnits="userSpaceOnUse">
<stop stop-color="#F4F4F5"/>
<stop offset="0.306027" stop-color="#F4F4F5"/>
<stop offset="0.462087" stop-color="#E8E9EC"/>
<stop offset="0.682292" stop-color="#DFDFE6"/>
<stop offset="1" stop-color="#B8BAC6"/>
</linearGradient>
<linearGradient id="paint82_linear_21_16877" x1="75.9906" y1="187.288" x2="42.612" y2="153.587" gradientUnits="userSpaceOnUse">
<stop stop-color="#C3C5D1"/>
<stop offset="0.875" stop-color="#F9F9F9"/>
</linearGradient>
<linearGradient id="paint83_linear_21_16877" x1="24.0554" y1="147.889" x2="55.7276" y2="187.586" gradientUnits="userSpaceOnUse">
<stop stop-color="#F9F9F9"/>
<stop offset="0.378992" stop-color="#F9F9F9"/>
<stop offset="0.480868" stop-color="#DFDFE6"/>
<stop offset="0.729174" stop-color="#B8BAC6"/>
</linearGradient>
<linearGradient id="paint84_linear_21_16877" x1="99.1957" y1="217.385" x2="65.8274" y2="182.59" gradientUnits="userSpaceOnUse">
<stop stop-color="#C3C5D1"/>
<stop offset="0.875" stop-color="#F9F9F9"/>
</linearGradient>
<linearGradient id="paint85_linear_21_16877" x1="56.653" y1="182.91" x2="73.517" y2="217.514" gradientUnits="userSpaceOnUse">
<stop stop-color="#F4F4F5"/>
<stop offset="0.306027" stop-color="#F4F4F5"/>
<stop offset="0.462087" stop-color="#E8E9EC"/>
<stop offset="0.682292" stop-color="#DFDFE6"/>
<stop offset="1" stop-color="#B8BAC6"/>
</linearGradient>
<linearGradient id="paint86_linear_21_16877" x1="176.997" y1="88.7333" x2="283.72" y2="302.803" gradientUnits="userSpaceOnUse">
<stop stop-color="#D8ECF1"/>
<stop offset="1" stop-color="#82B3BF"/>
</linearGradient>
<linearGradient id="paint87_linear_21_16877" x1="176.034" y1="106.384" x2="268.096" y2="277.914" gradientUnits="userSpaceOnUse">
<stop stop-color="#A1C9D3"/>
<stop offset="1" stop-color="#D0ECF2"/>
</linearGradient>
<linearGradient id="paint88_linear_21_16877" x1="186.149" y1="100.183" x2="285.346" y2="280.367" gradientUnits="userSpaceOnUse">
<stop stop-color="#D0ECF2"/>
<stop offset="1" stop-color="#E6F8FC"/>
</linearGradient>
<radialGradient id="paint89_radial_21_16877" cx="0" cy="0" r="1" gradientUnits="userSpaceOnUse" gradientTransform="translate(228.054 193.873) rotate(90) scale(108.002 93.9255)">
<stop stop-color="#D0EBF2"/>
<stop offset="1" stop-color="#8DD3E2"/>
</radialGradient>
<linearGradient id="paint90_linear_21_16877" x1="228.054" y1="81.5935" x2="228.054" y2="306.141" gradientUnits="userSpaceOnUse">
<stop stop-color="white"/>
<stop offset="1" stop-color="#F2EDED" stop-opacity="0"/>
</linearGradient>
<linearGradient id="paint91_linear_21_16877" x1="112.093" y1="101.91" x2="223.824" y2="297.304" gradientUnits="userSpaceOnUse">
<stop stop-color="white"/>
<stop offset="1" stop-color="#F2EDED" stop-opacity="0"/>
</linearGradient>
<linearGradient id="paint92_linear_21_16877" x1="335.57" y1="101.91" x2="223.839" y2="297.304" gradientUnits="userSpaceOnUse">
<stop stop-color="white"/>
<stop offset="1" stop-color="#F2EDED" stop-opacity="0"/>
</linearGradient>
<linearGradient id="paint93_linear_21_16877" x1="228.054" y1="233.43" x2="227.498" y2="294.378" gradientUnits="userSpaceOnUse">
<stop stop-color="#EEFFFF" stop-opacity="0"/>
<stop offset="1" stop-color="#B5EBFB"/>
</linearGradient>
<linearGradient id="paint94_linear_21_16877" x1="316.407" y1="223.797" x2="150.713" y2="174.249" gradientUnits="userSpaceOnUse">
<stop stop-color="#5EA6B7"/>
<stop offset="1" stop-color="#5F9CAA"/>
</linearGradient>
</defs>
</svg>
