<svg width="454" height="378" viewBox="0 0 454 378" fill="none" xmlns="http://www.w3.org/2000/svg">
<path d="M134.128 323.076V217.502H321.979V322.152C321.979 323.189 321.423 324.145 320.522 324.658L228.289 377.08C227.403 377.584 226.316 377.582 225.432 377.075L135.577 325.576C134.681 325.062 134.128 324.109 134.128 323.076Z" fill="#84B7C4"/>
<path fill-rule="evenodd" clip-rule="evenodd" d="M188.725 217.502V356.037L135.577 325.576C134.681 325.062 134.128 324.109 134.128 323.076V217.502H188.725Z" fill="#6B9BAA"/>
<path fill-rule="evenodd" clip-rule="evenodd" d="M186.875 354.977V217.502H188.725V356.037L186.875 354.977Z" fill="#B0D2DD"/>
<path fill-rule="evenodd" clip-rule="evenodd" d="M267.382 216.585V355.121L320.531 324.659C321.427 324.146 321.979 323.192 321.979 322.159V216.585H267.382Z" fill="#6B9BAA"/>
<path fill-rule="evenodd" clip-rule="evenodd" d="M269.233 354.06V216.585H267.383V355.121L269.233 354.06Z" fill="#B0D2DD"/>
<path d="M76.9068 224.158C77.6886 224.737 82.4541 235.649 84.7391 241.032L86.0894 247.317C81.7324 244.34 72.6023 237.525 70.9381 234.078C69.2739 230.63 69.337 222.407 69.5767 218.726L76.9068 224.158Z" fill="url(#paint0_linear_21_16670)"/>
<path d="M100.409 80.0287C100.37 74.9675 103.976 69.5876 107.386 63.0558C108.427 63.0222 112.602 69.9399 105.512 94.1264L102.225 101.505C101.173 106.261 100.515 100.741 99.3305 96.592C99.5221 86.9206 100.457 86.3553 100.409 80.0287Z" fill="url(#paint1_linear_21_16670)"/>
<path d="M125.701 68.0711C127.327 67.2632 134.24 63.8297 144.614 63.2128L144.614 63.2129C143.639 64.5036 140.836 68.2143 130.835 74.3915C129.29 74.756 121.804 75.2486 118.019 74.2054C117.173 74.7867 118.113 73.5203 118.383 72.714C120.956 69.0842 124.075 68.879 125.701 68.0711Z" fill="url(#paint2_linear_21_16670)"/>
<path fill-rule="evenodd" clip-rule="evenodd" d="M82.5009 150.749C92.8125 106.889 117.09 70.0263 135.737 48.7278L136.552 49.3313C118.186 70.308 95.8418 108.219 85.671 151.48C75.5103 194.698 78.4823 243.884 112.508 289.118L109.898 291.044C75.1671 244.872 72.1791 194.653 82.5009 150.749Z" fill="url(#paint3_linear_21_16670)"/>
<path d="M125.848 56.1029L122 36.6443L119.441 40.0323C114.284 48.541 117.343 54.5818 116.213 61.7963C115.308 67.5678 117.391 71.8959 118.504 72.5527L122.403 66.3827L125.848 56.1029Z" fill="url(#paint4_linear_21_16670)"/>
<path fill-rule="evenodd" clip-rule="evenodd" d="M122.067 36.9824C121.071 45.6788 119.998 56.1409 120.726 58.8493C121.388 61.3137 120.248 66.9212 118.896 71.9324L118.504 72.5527C117.391 71.8959 115.308 67.5678 116.213 61.7963C116.594 59.3612 116.499 57.0599 116.403 54.7522C116.214 50.2228 116.025 45.6691 119.441 40.0323L122 36.6443L122.067 36.9824Z" fill="url(#paint5_linear_21_16670)"/>
<path d="M97.2179 165.986C98.3221 163.986 101.865 151.312 103.499 145.225L101.547 145.792C89.9637 156.082 89.1193 164.263 86.6858 170.512C84.2523 176.76 75.4349 186.08 80.2334 184.099C85.0319 182.119 95.8376 168.486 97.2179 165.986Z" fill="url(#paint6_linear_21_16670)"/>
<path fill-rule="evenodd" clip-rule="evenodd" d="M103.269 146.078C99.2147 152.437 93.5224 161.879 91.3202 167.403C89.2596 172.572 84.4628 179.396 80.5701 183.946C80.4549 184.003 80.3426 184.054 80.2334 184.099C77.4478 185.249 79.2506 182.591 81.7293 178.936C83.5206 176.295 85.6649 173.133 86.6858 170.512C87.1256 169.382 87.5135 168.19 87.9223 166.933C89.7753 161.237 92.0571 154.222 101.547 145.792L103.499 145.225C103.426 145.497 103.349 145.782 103.269 146.078Z" fill="url(#paint7_linear_21_16670)"/>
<path d="M88.9028 119.815C87.9538 115.689 84.5351 108.107 82.9443 104.832C80.7533 109.75 81.9769 112.167 80.0731 119.06C78.55 124.574 83.6851 133.898 86.4431 137.871C87.6584 133.571 89.8518 123.94 88.9028 119.815Z" fill="url(#paint8_linear_21_16670)"/>
<path fill-rule="evenodd" clip-rule="evenodd" d="M88.8042 119.401C88.8402 119.543 88.8737 119.681 88.9046 119.815C89.8535 123.94 87.6601 133.571 86.4448 137.871C85.4678 136.463 84.1926 134.385 83.0207 132.042C84.2403 127.189 86.7343 122.555 88.8042 119.401Z" fill="url(#paint9_linear_21_16670)"/>
<path d="M98.4955 79.8703C98.2319 77.2594 95.0947 71.4792 93.5591 68.9155C92.1548 73.914 88.7307 79.6805 88.3749 88.2238C88.2279 91.7559 93.7378 104.108 96.9048 109.893L97.9991 106.426C95.8728 97.8054 98.825 83.1339 98.4955 79.8703Z" fill="url(#paint10_linear_21_16670)"/>
<path d="M112.035 104.999C117.369 101.704 120.701 93.3026 121.7 89.5135C112.39 95.4483 109.377 93.7191 101.822 103.722L99.2254 109.85C101.273 109.606 106.701 108.294 112.035 104.999Z" fill="url(#paint11_linear_21_16670)"/>
<path d="M77.9825 172.618C74.7477 162.37 63.0294 155.08 57.5753 153.219C64.0671 171.869 68.2527 167.673 72.2876 173.431C75.5155 178.037 78.3038 180.153 78.8057 180.273L77.9825 172.618Z" fill="url(#paint12_linear_21_16670)"/>
<path d="M74.1318 151.144C73.0226 149.114 63.8083 137.791 59.3398 132.384C61.512 145.316 63.8832 154.622 67.2653 158.889C69.971 162.303 75.5963 173.198 78.0707 178.219C78.3136 177.224 78.8069 174.688 78.8368 172.496C78.8741 169.755 75.5182 153.681 74.1318 151.144Z" fill="url(#paint13_linear_21_16670)"/>
<path d="M97.1693 192.621C91.122 198.206 85.5532 209.009 83.5246 213.713L82.9675 223.868C86.6784 219.74 94.4084 210.605 95.6409 207.09C96.8735 203.574 97.1734 195.979 97.1693 192.621Z" fill="url(#paint14_linear_21_16670)"/>
<path d="M74.2176 188.699C73.7919 186.572 69.6658 181.72 67.656 179.56C66.6023 182.973 64.9772 191.515 66.906 198.379C68.8348 205.244 75.2084 211.493 78.1541 213.759C78.7365 213.1 79.5752 211.34 78.271 209.568C76.6409 207.354 74.7498 191.358 74.2176 188.699Z" fill="url(#paint15_linear_21_16670)"/>
<path fill-rule="evenodd" clip-rule="evenodd" d="M77.7069 213.406C72.532 203.698 69.105 188.709 67.5842 179.798C67.6084 179.716 67.6323 179.637 67.656 179.56C69.6658 181.72 73.7919 186.572 74.2176 188.699C74.3507 189.364 74.5686 190.862 74.8462 192.771C75.679 198.495 77.0484 207.907 78.271 209.568C79.5752 211.34 78.7365 213.1 78.1541 213.759C78.0127 213.65 77.8633 213.532 77.7069 213.406Z" fill="url(#paint16_linear_21_16670)"/>
<path d="M73.8457 249.065C75.7656 248.676 83.1633 249.51 86.6222 249.976L87.1084 248.324C85.8326 247.546 82.3201 245.38 78.4764 242.934C74.6327 240.489 67.7355 243.028 64.7673 244.603C66.9935 246.252 71.9258 249.454 73.8457 249.065Z" fill="url(#paint17_linear_21_16670)"/>
<path d="M143.148 28.1564C144.902 25.8333 155.428 22.6614 160.471 21.3658L155.807 33.2589C154.589 34.8722 151.135 38.7045 147.069 41.1272C143.004 43.5499 137.327 48.0833 135.729 50.0867L134.752 49.3625C135.759 41.302 140.954 31.0604 143.148 28.1564Z" fill="url(#paint18_linear_21_16670)"/>
<path fill-rule="evenodd" clip-rule="evenodd" d="M135.889 49.1998C138.542 43.1931 151.906 29.2767 159.961 21.4982C160.136 21.4521 160.306 21.408 160.47 21.3658L155.806 33.2588C154.587 34.8722 151.134 38.7045 147.068 41.1272C143.002 43.5498 137.366 48.3652 135.769 50.3686L135.889 49.1998Z" fill="url(#paint19_linear_21_16670)"/>
<g filter="url(#filter0_d_21_16670)">
<path d="M128.162 59.5786C128.877 58.9007 135.649 52.5449 147.558 51.0527C146.937 53.4444 143.046 59.4348 140.055 62.8555C137.065 66.2763 125.421 70.0456 119.022 71.6785C122.949 66.3681 127.446 60.2564 128.162 59.5786Z" fill="url(#paint20_linear_21_16670)"/>
<path fill-rule="evenodd" clip-rule="evenodd" d="M147.407 51.534C147.469 51.3608 147.52 51.1999 147.558 51.0527C135.649 52.5448 128.877 58.9007 128.162 59.5785C127.505 60.2008 123.661 65.4027 119.997 70.36C119.67 70.8026 119.344 71.2432 119.022 71.6785C119.504 71.5555 120.016 71.4203 120.552 71.2741C128.959 66.1447 140.714 56.9973 147.407 51.534Z" fill="url(#paint21_linear_21_16670)"/>
</g>
<path fill-rule="evenodd" clip-rule="evenodd" d="M107.255 63.3069C107.388 64.4123 107.466 65.7214 107.391 67.084C107.192 70.7109 102.752 100.133 101.372 102.633C101.281 102.797 101.192 102.933 101.104 103.043C100.775 102.462 100.449 101.094 100.08 99.5435C99.851 98.582 99.6053 97.5501 99.3315 96.5914C99.4316 91.5411 99.7344 88.9738 99.994 86.7727C100.232 84.7586 100.433 83.0511 100.41 80.0282C100.821 74.9684 102.808 71.3889 105.304 66.8905C105.928 65.7659 106.584 64.5838 107.255 63.3069Z" fill="url(#paint22_linear_21_16670)"/>
<path fill-rule="evenodd" clip-rule="evenodd" d="M97.2593 108.77C94.7527 103.693 92.8776 96.7378 93.2549 87.814C93.668 78.0442 93.5837 72.5635 93.3315 69.6791C93.4121 69.4224 93.4881 69.168 93.5591 68.9155C95.0947 71.4792 98.2319 77.2594 98.4955 79.8703C98.6009 80.9145 98.3704 83.1267 98.0777 85.9349C97.4557 91.9032 96.5532 100.564 97.9991 106.426L97.2593 108.77Z" fill="url(#paint23_linear_21_16670)"/>
<path fill-rule="evenodd" clip-rule="evenodd" d="M121.634 89.5543C118.607 91.479 116.246 92.5926 114.177 93.5689C109.919 95.578 106.894 97.0053 101.821 103.721L99.2251 109.849C99.3193 109.838 99.4208 109.825 99.529 109.809C107.699 105.079 117.155 94.9769 121.634 89.5543Z" fill="url(#paint24_linear_21_16670)"/>
<g filter="url(#filter1_d_21_16670)">
<path d="M95.5738 115.699C96.3878 115.966 96.3656 115.711 98.7073 116.259C107.221 118.253 118.342 111.253 122.901 104.745L114.56 104.353C101.866 104.207 96.7078 111.506 95.5738 115.699Z" fill="url(#paint25_linear_21_16670)"/>
<path fill-rule="evenodd" clip-rule="evenodd" d="M122.694 105.036C122.764 104.939 122.833 104.842 122.901 104.746L114.56 104.353C101.866 104.207 96.7077 111.506 95.5737 115.699C95.6041 115.709 95.6334 115.718 95.6617 115.727C101.249 111.519 115.236 107.056 122.694 105.036Z" fill="url(#paint26_linear_21_16670)"/>
</g>
<g filter="url(#filter2_d_21_16670)">
<path d="M82.0713 122.806C80.7672 121.034 71.3707 111.522 66.8354 106.987C66.3714 126.773 75.2073 132.566 77.0016 135.908C81.2803 141.343 84.3375 146.041 85.4371 146.939L85.9606 142.546C85.2076 136.704 83.3754 124.577 82.0713 122.806Z" fill="url(#paint27_linear_21_16670)"/>
<path fill-rule="evenodd" clip-rule="evenodd" d="M66.8313 107.295C66.5366 123.031 72.1562 129.823 75.2878 133.607C76.0448 134.522 76.6564 135.262 77.0039 135.909C78.9546 138.387 80.6514 140.711 82.0246 142.593C83.4182 144.502 84.4785 145.954 85.1324 146.647C84.3785 137.054 73.5039 117.839 66.8313 107.295Z" fill="url(#paint28_linear_21_16670)"/>
</g>
<path fill-rule="evenodd" clip-rule="evenodd" d="M78.7238 174.347C74.6017 164.35 65.2539 144.593 59.3953 132.447C63.8832 137.879 73.0295 149.121 74.1342 151.143C75.5207 153.68 78.8766 169.754 78.8392 172.494C78.831 173.099 78.7875 173.729 78.7238 174.347Z" fill="url(#paint29_linear_21_16670)"/>
<g filter="url(#filter3_d_21_16670)">
<path d="M80.2571 168.261C80.8322 159.427 85.4458 152.647 87.6807 150.361L87.9716 155.357C91.9584 168.376 83.9052 179.352 79.3803 183.212C79.4329 181.909 79.6821 177.095 80.2571 168.261Z" fill="url(#paint30_linear_21_16670)"/>
<path fill-rule="evenodd" clip-rule="evenodd" d="M87.6243 150.42C85.2635 155.035 83.0929 163.538 82.6287 178.575C81.4631 180.307 80.4497 181.791 79.5707 183.048C79.5067 183.104 79.4432 183.159 79.3805 183.213C79.4331 181.91 79.6823 177.096 80.2573 168.262C80.8276 159.502 85.3691 152.761 87.6243 150.42Z" fill="url(#paint31_linear_21_16670)"/>
</g>
<path fill-rule="evenodd" clip-rule="evenodd" d="M78.5926 180.176C75.6854 171.466 64.1022 159.334 57.6462 153.413C62.0294 165.928 65.3593 168.029 68.3047 169.887C69.6955 170.765 71.0005 171.588 72.2902 173.429C75.1972 177.577 77.7476 179.706 78.5926 180.176Z" fill="url(#paint32_linear_21_16670)"/>
<path d="M135.728 49.0794C129.904 55.3324 114.627 74.4593 103.035 97.0715C94.7148 113.301 90.92 119.296 82.7575 150.489C80.8271 157.865 77.0773 176.777 77.5208 193.411C76.8691 203.916 78.6418 231.683 90.9457 258.715C94.4542 266.515 103.198 283.797 110.107 290.527" stroke="#FADA81" stroke-width="0.844684"/>
<g filter="url(#filter4_d_21_16670)">
<path d="M81.6316 195.702C83.8223 190.531 83.9938 186.632 84.6707 185.624C88.6297 195.855 89.4963 205.807 89.7835 207.781C90.0133 209.361 84.6028 218.789 81.8688 223.305L78.6323 205.055C79.8857 198.686 79.0352 201.83 81.6316 195.702Z" fill="url(#paint33_linear_21_16670)"/>
<path fill-rule="evenodd" clip-rule="evenodd" d="M85.0788 186.707C84.9465 186.347 84.8105 185.986 84.6707 185.624C84.402 186.024 84.2129 186.88 83.9456 188.09C83.5395 189.928 82.9527 192.584 81.6316 195.702C80.3205 198.797 79.8883 199.527 79.6204 200.311C79.3577 201.081 79.2528 201.902 78.6323 205.055L81.7925 222.875C85.2295 214.916 85.4691 196.801 85.0788 186.707Z" fill="url(#paint34_linear_21_16670)"/>
</g>
<g filter="url(#filter5_d_21_16670)">
<path d="M66.8688 198.098C64.0646 194.007 57.2864 191.837 54.2479 191.263C53.273 192.553 57.8687 202.165 60.2884 206.81C61.2927 207.386 64.1727 209.134 67.6583 211.516C71.1439 213.897 76.4088 214.057 78.6056 213.84C75.8617 210.297 69.673 202.189 66.8688 198.098Z" fill="url(#paint35_linear_21_16670)"/>
<path fill-rule="evenodd" clip-rule="evenodd" d="M77.0828 213.91C77.6766 213.908 78.1947 213.88 78.6056 213.84C75.8618 210.297 69.673 202.189 66.8688 198.098C64.0646 194.007 57.2864 191.836 54.2479 191.263C54.2211 191.298 54.1985 191.34 54.18 191.387C56.5048 195.87 62.9201 203.741 77.0828 213.91Z" fill="url(#paint36_linear_21_16670)"/>
</g>
<g filter="url(#filter6_d_21_16670)">
<path d="M82.0887 236.805C78.2778 234.585 66.8551 233.989 61.6202 233.969C68.4267 243.793 69.5223 241.333 74.8567 245.034C79.1242 247.995 83.9306 245.802 85.8003 244.336C86.151 242.751 85.8996 239.025 82.0887 236.805Z" fill="url(#paint37_linear_21_16670)"/>
<path fill-rule="evenodd" clip-rule="evenodd" d="M85.8757 243.874C75.1504 237.264 66.3541 234.72 61.6736 234.046C66.3694 240.809 68.3354 241.697 70.8826 242.847C72.0014 243.352 73.2323 243.908 74.856 245.034C75.2124 245.281 75.5726 245.493 75.9346 245.671C76.8023 245.937 77.6563 246.193 78.4904 246.438C81.5844 246.824 84.4533 245.392 85.7996 244.336C85.8302 244.197 85.8562 244.043 85.8757 243.874Z" fill="url(#paint38_linear_21_16670)"/>
</g>
<path d="M377.092 225.112C376.31 225.691 371.545 236.603 369.26 241.987L367.91 248.271C372.267 245.295 381.397 238.479 383.061 235.032C384.725 231.585 384.662 223.361 384.422 219.681L377.092 225.112Z" fill="url(#paint39_linear_21_16670)"/>
<path d="M353.591 80.983C353.629 75.9218 350.023 70.5419 346.614 64.0101C345.572 63.9766 341.397 70.8942 348.488 95.0806L351.774 102.459C352.826 107.215 353.484 101.695 354.669 97.5462C354.477 87.8748 353.542 87.3095 353.591 80.983Z" fill="url(#paint40_linear_21_16670)"/>
<path d="M328.298 69.0252C326.672 68.2173 319.76 64.7838 309.385 64.1669L309.385 64.167C310.36 65.4577 313.163 69.1684 323.164 75.3456C324.71 75.7101 332.195 76.2027 335.981 75.1595C336.826 75.7408 335.886 74.4744 335.616 73.6681C333.044 70.0383 329.925 69.8331 328.298 69.0252Z" fill="url(#paint41_linear_21_16670)"/>
<path fill-rule="evenodd" clip-rule="evenodd" d="M371.498 151.705C361.187 107.845 336.909 70.9818 318.262 49.6834L317.447 50.2869C335.813 71.2636 358.157 109.174 368.328 152.436C378.489 195.654 375.517 244.839 341.491 290.074L344.101 292C378.832 245.828 381.82 195.608 371.498 151.705Z" fill="url(#paint42_linear_21_16670)"/>
<path d="M328.151 57.0573L331.999 37.5986L334.558 40.9866C339.715 49.4954 336.656 55.5363 337.787 62.7507C338.691 68.5223 336.608 72.8504 335.495 73.5072L331.597 67.3371L328.151 57.0573Z" fill="url(#paint43_linear_21_16670)"/>
<path fill-rule="evenodd" clip-rule="evenodd" d="M331.932 37.9371C332.928 46.6334 334.001 57.0952 333.273 59.8037C332.611 62.2681 333.751 67.8757 335.103 72.887L335.495 73.5072C336.608 72.8504 338.691 68.5223 337.787 62.7507C337.405 60.3157 337.501 58.0143 337.597 55.7066C337.785 51.1772 337.975 46.6235 334.558 40.9866L331.999 37.5986L331.932 37.9371Z" fill="url(#paint44_linear_21_16670)"/>
<path d="M356.78 166.94C355.676 164.94 352.133 152.266 350.499 146.18L352.451 146.746C364.034 157.036 364.879 165.217 367.312 171.466C369.746 177.715 378.563 187.034 373.765 185.053C368.966 183.073 358.16 169.44 356.78 166.94Z" fill="url(#paint45_linear_21_16670)"/>
<path fill-rule="evenodd" clip-rule="evenodd" d="M350.73 147.036C354.784 153.394 360.475 162.834 362.676 168.357C364.737 173.526 369.533 180.349 373.426 184.899C373.542 184.957 373.655 185.008 373.765 185.053C376.55 186.203 374.747 183.545 372.269 179.89C370.477 177.249 368.333 174.087 367.312 171.466C366.872 170.336 366.485 169.144 366.076 167.887C364.223 162.191 361.941 155.176 352.451 146.746L350.499 146.18C350.572 146.452 350.649 146.738 350.73 147.036Z" fill="url(#paint46_linear_21_16670)"/>
<path d="M365.095 120.77C366.044 116.645 369.463 109.063 371.054 105.787C373.245 110.706 372.021 113.122 373.925 120.015C375.448 125.53 370.313 134.853 367.555 138.826C366.34 134.526 364.146 124.896 365.095 120.77Z" fill="url(#paint47_linear_21_16670)"/>
<path fill-rule="evenodd" clip-rule="evenodd" d="M365.195 120.357C365.159 120.498 365.126 120.636 365.095 120.77C364.146 124.896 366.339 134.526 367.555 138.826C368.532 137.419 369.807 135.34 370.979 132.997C369.759 128.145 367.265 123.511 365.195 120.357Z" fill="url(#paint48_linear_21_16670)"/>
<path d="M355.503 80.8246C355.766 78.2137 358.903 72.4336 360.439 69.8699C361.843 74.8683 365.267 80.6348 365.623 89.1781C365.77 92.7102 360.26 105.062 357.093 110.847L355.999 107.381C358.125 98.7596 355.173 84.0882 355.503 80.8246Z" fill="url(#paint49_linear_21_16670)"/>
<path d="M341.965 105.953C336.631 102.659 333.3 94.2569 332.301 90.4678C341.611 96.4026 344.624 94.6735 352.179 104.676L354.775 110.804C352.728 110.56 347.299 109.248 341.965 105.953Z" fill="url(#paint50_linear_21_16670)"/>
<path d="M376.015 173.572C379.25 163.325 390.968 156.034 396.423 154.174C389.931 172.823 385.745 168.627 381.71 174.385C378.482 178.991 375.694 181.107 375.192 181.227L376.015 173.572Z" fill="url(#paint51_linear_21_16670)"/>
<path d="M379.867 152.098C380.977 150.068 390.191 138.745 394.659 133.338C392.487 146.27 390.116 155.576 386.734 159.843C384.028 163.257 378.403 174.152 375.928 179.173C375.686 178.178 375.192 175.642 375.162 173.45C375.125 170.709 378.481 154.635 379.867 152.098Z" fill="url(#paint52_linear_21_16670)"/>
<path d="M356.829 193.575C362.876 199.16 368.445 209.963 370.474 214.667L371.031 224.822C367.32 220.694 359.59 211.559 358.357 208.044C357.125 204.528 356.825 196.934 356.829 193.575Z" fill="url(#paint53_linear_21_16670)"/>
<path d="M379.782 189.655C380.207 187.528 384.333 182.676 386.343 180.516C387.397 183.929 389.022 192.471 387.093 199.335C385.164 206.199 378.791 212.448 375.845 214.715C375.263 214.056 374.424 212.295 375.728 210.524C377.358 208.309 379.249 192.314 379.782 189.655Z" fill="url(#paint54_linear_21_16670)"/>
<path fill-rule="evenodd" clip-rule="evenodd" d="M376.293 214.361C381.467 204.653 384.894 189.665 386.415 180.754C386.391 180.672 386.367 180.592 386.343 180.516C384.333 182.676 380.207 187.528 379.782 189.655C379.649 190.32 379.431 191.818 379.153 193.726C378.32 199.45 376.951 208.863 375.728 210.524C374.424 212.295 375.263 214.056 375.845 214.715C375.987 214.606 376.136 214.488 376.293 214.361Z" fill="url(#paint55_linear_21_16670)"/>
<path d="M380.154 250.019C378.234 249.63 370.836 250.464 367.377 250.93L366.891 249.278C368.167 248.5 371.679 246.334 375.523 243.888C379.367 241.443 386.264 243.982 389.232 245.557C387.006 247.206 382.073 250.408 380.154 250.019Z" fill="url(#paint56_linear_21_16670)"/>
<path d="M310.851 29.1106C309.096 26.7874 298.57 23.6155 293.527 22.3199L298.191 34.213C299.41 35.8264 302.863 39.6587 306.929 42.0814C310.994 44.504 316.671 49.0375 318.269 51.0408L319.247 50.3167C318.239 42.2561 313.044 32.0145 310.851 29.1106Z" fill="url(#paint57_linear_21_16670)"/>
<path fill-rule="evenodd" clip-rule="evenodd" d="M318.109 50.1539C315.455 44.1472 302.092 30.2308 294.037 22.4523C293.862 22.4062 293.692 22.3621 293.527 22.3199L298.192 34.2129C299.41 35.8263 302.864 39.6586 306.93 42.0813C310.995 44.5039 316.631 49.3193 318.229 51.3227L318.109 50.1539Z" fill="url(#paint58_linear_21_16670)"/>
<g filter="url(#filter7_d_21_16670)">
<path d="M325.838 60.5329C325.122 59.8551 318.351 53.4992 306.441 52.0071C307.062 54.3987 310.954 60.3891 313.944 63.8099C316.934 67.2306 328.578 70.9999 334.977 72.6329C331.051 67.3225 326.553 61.2108 325.838 60.5329Z" fill="url(#paint59_linear_21_16670)"/>
<path fill-rule="evenodd" clip-rule="evenodd" d="M306.592 52.4882C306.53 52.3151 306.479 52.1543 306.441 52.007C318.351 53.4992 325.122 59.855 325.838 60.5329C326.494 61.1552 330.339 66.357 334.002 71.3143C334.33 71.7569 334.655 72.1976 334.977 72.6328C334.495 72.5098 333.983 72.3747 333.448 72.2286C325.041 67.0992 313.285 57.9517 306.592 52.4882Z" fill="url(#paint60_linear_21_16670)"/>
</g>
<path fill-rule="evenodd" clip-rule="evenodd" d="M346.746 64.2635C346.613 65.3689 346.536 66.6776 346.611 68.0399C346.81 71.6669 351.249 101.089 352.629 103.589C352.72 103.753 352.809 103.888 352.896 103.997C353.226 103.416 353.551 102.049 353.92 100.498C354.149 99.5368 354.395 98.5049 354.669 97.5461C354.569 92.4958 354.266 89.9286 354.006 87.7274C353.769 85.7134 353.567 84.0058 353.591 80.983C353.179 75.9231 351.193 72.3436 348.697 67.8452C348.073 66.7211 347.417 65.5397 346.746 64.2635Z" fill="url(#paint61_linear_21_16670)"/>
<path fill-rule="evenodd" clip-rule="evenodd" d="M356.738 109.722C359.244 104.646 361.119 97.691 360.742 88.7684C360.328 78.9941 360.413 73.5128 360.665 70.6295C360.585 70.3742 360.51 70.121 360.439 69.8699C358.903 72.4336 355.766 78.2137 355.503 80.8246C355.397 81.8688 355.628 84.081 355.92 86.8891C356.542 92.8574 357.445 101.518 355.999 107.381L356.738 109.722Z" fill="url(#paint62_linear_21_16670)"/>
<path fill-rule="evenodd" clip-rule="evenodd" d="M332.369 90.5111C335.396 92.4354 337.756 93.549 339.825 94.5252C344.083 96.5342 347.108 97.9616 352.181 104.677L354.777 110.806C354.684 110.794 354.584 110.781 354.477 110.765C346.307 106.038 336.85 95.9354 332.369 90.5111Z" fill="url(#paint63_linear_21_16670)"/>
<g filter="url(#filter8_d_21_16670)">
<path d="M358.43 116.651C357.616 116.919 357.638 116.663 355.296 117.212C346.783 119.205 335.661 112.205 331.102 105.698L339.443 105.305C352.138 105.159 357.296 112.459 358.43 116.651Z" fill="url(#paint64_linear_21_16670)"/>
<path fill-rule="evenodd" clip-rule="evenodd" d="M331.309 105.987C331.239 105.891 331.17 105.794 331.102 105.698L339.443 105.305C352.138 105.159 357.296 112.459 358.43 116.651C358.4 116.661 358.37 116.67 358.342 116.679C352.757 112.472 338.768 108.007 331.309 105.987Z" fill="url(#paint65_linear_21_16670)"/>
</g>
<g filter="url(#filter9_d_21_16670)">
<path d="M371.929 123.76C373.233 121.988 382.629 112.476 387.165 107.942C387.629 127.728 378.793 133.52 376.999 136.862C372.72 142.297 369.663 146.995 368.563 147.894L368.04 143.501C368.793 137.659 370.625 125.531 371.929 123.76Z" fill="url(#paint66_linear_21_16670)"/>
<path fill-rule="evenodd" clip-rule="evenodd" d="M387.17 108.251C387.463 123.984 381.844 130.775 378.713 134.56C377.956 135.475 377.344 136.214 376.997 136.861C375.046 139.339 373.349 141.664 371.976 143.545C370.583 145.453 369.524 146.905 368.87 147.598C369.626 138.004 380.498 118.794 387.17 108.251Z" fill="url(#paint67_linear_21_16670)"/>
</g>
<path fill-rule="evenodd" clip-rule="evenodd" d="M375.279 175.302C379.401 165.305 388.749 145.549 394.608 133.402C390.12 138.835 380.974 150.077 379.869 152.098C378.482 154.635 375.126 170.71 375.164 173.45C375.172 174.054 375.215 174.685 375.279 175.302Z" fill="url(#paint68_linear_21_16670)"/>
<g filter="url(#filter10_d_21_16670)">
<path d="M373.743 169.215C373.168 160.382 368.555 153.601 366.32 151.315L366.029 156.311C362.042 169.33 370.095 180.306 374.62 184.166C374.568 182.863 374.318 178.049 373.743 169.215Z" fill="url(#paint69_linear_21_16670)"/>
<path fill-rule="evenodd" clip-rule="evenodd" d="M366.376 151.374C368.736 155.989 370.907 164.493 371.371 179.53C372.537 181.261 373.55 182.745 374.429 184.003C374.493 184.059 374.556 184.114 374.619 184.167C374.566 182.864 374.317 178.05 373.742 169.216C373.172 160.457 368.631 153.716 366.376 151.374Z" fill="url(#paint70_linear_21_16670)"/>
</g>
<path fill-rule="evenodd" clip-rule="evenodd" d="M375.408 181.131C378.315 172.421 389.898 160.289 396.354 154.369C391.971 166.883 388.641 168.984 385.696 170.843C384.305 171.72 383 172.544 381.71 174.384C378.804 178.532 376.253 180.661 375.408 181.131Z" fill="url(#paint71_linear_21_16670)"/>
<path d="M318.271 50.0335C324.095 56.2865 339.372 75.4134 350.964 98.0256C359.284 114.255 363.079 120.25 371.242 151.443C373.172 158.819 376.922 177.731 376.478 194.365C377.13 204.87 375.358 232.637 363.054 259.67C359.545 267.469 350.801 284.752 343.892 291.481" stroke="#FADA81" stroke-width="0.844684"/>
<g filter="url(#filter11_d_21_16670)">
<path d="M372.368 196.657C370.178 191.486 370.006 187.587 369.329 186.579C365.37 196.81 364.504 206.762 364.216 208.736C363.987 210.315 369.397 219.743 372.131 224.26L375.368 206.009C374.114 199.641 374.965 202.785 372.368 196.657Z" fill="url(#paint72_linear_21_16670)"/>
<path fill-rule="evenodd" clip-rule="evenodd" d="M368.92 187.664C369.053 187.303 369.189 186.941 369.329 186.579C369.598 186.979 369.787 187.835 370.054 189.045C370.46 190.883 371.047 193.539 372.368 196.657C373.679 199.751 374.112 200.482 374.38 201.266C374.642 202.035 374.747 202.857 375.368 206.009L372.207 223.83C368.77 215.873 368.53 197.759 368.92 187.664Z" fill="url(#paint73_linear_21_16670)"/>
</g>
<g filter="url(#filter12_d_21_16670)">
<path d="M387.132 199.052C389.936 194.961 396.715 192.791 399.753 192.217C400.728 193.507 396.132 203.119 393.713 207.764C392.708 208.34 389.828 210.088 386.343 212.47C382.857 214.851 377.592 215.011 375.395 214.794C378.139 211.251 384.328 203.143 387.132 199.052Z" fill="url(#paint74_linear_21_16670)"/>
<path fill-rule="evenodd" clip-rule="evenodd" d="M376.918 214.864C376.324 214.862 375.806 214.835 375.395 214.794C378.139 211.251 384.328 203.143 387.132 199.052C389.936 194.961 396.715 192.791 399.753 192.217C399.78 192.252 399.802 192.294 399.821 192.342C397.496 196.824 391.081 204.695 376.918 214.864Z" fill="url(#paint75_linear_21_16670)"/>
</g>
<g filter="url(#filter13_d_21_16670)">
<path d="M371.909 237.759C375.72 235.539 387.143 234.943 392.378 234.923C385.571 244.747 384.476 242.288 379.141 245.988C374.874 248.949 370.067 246.757 368.198 245.29C367.847 243.705 368.098 239.979 371.909 237.759Z" fill="url(#paint76_linear_21_16670)"/>
<path fill-rule="evenodd" clip-rule="evenodd" d="M368.123 244.828C378.848 238.218 387.644 235.674 392.325 235C387.629 241.763 385.663 242.651 383.116 243.801C381.997 244.306 380.766 244.862 379.143 245.988C378.786 246.235 378.426 246.447 378.064 246.626C377.196 246.891 376.342 247.147 375.508 247.392C372.414 247.778 369.545 246.346 368.199 245.29C368.168 245.151 368.142 244.997 368.123 244.828Z" fill="url(#paint77_linear_21_16670)"/>
</g>
<g filter="url(#filter14_d_21_16670)">
<path d="M322.378 187.288L322.378 147.889L416.303 147.889C416.303 172.513 398.727 187.288 384.446 187.288L322.378 187.288Z" fill="url(#paint78_linear_21_16670)"/>
<path d="M322.378 187.288L322.378 147.889L416.303 147.889C416.303 172.513 398.727 187.288 384.446 187.288L322.378 187.288Z" stroke="url(#paint79_linear_21_16670)" stroke-width="2.29412"/>
<path d="M289.228 222.31L289.228 182.91L383.153 182.91C383.153 207.535 365.577 222.31 351.296 222.31L289.228 222.31Z" fill="url(#paint80_linear_21_16670)"/>
<path d="M289.228 222.31L289.228 182.91L383.153 182.91C383.153 207.535 365.577 222.31 351.296 222.31L289.228 222.31Z" stroke="url(#paint81_linear_21_16670)" stroke-width="2.29412"/>
<path d="M112.455 187.288L112.455 147.889L18.5299 147.889C18.5299 172.513 36.1065 187.288 50.3876 187.288L112.455 187.288Z" fill="url(#paint82_linear_21_16670)"/>
<path d="M112.455 187.288L112.455 147.889L18.5299 147.889C18.5299 172.513 36.1065 187.288 50.3876 187.288L112.455 187.288Z" stroke="url(#paint83_linear_21_16670)" stroke-width="2.29412"/>
<path d="M145.605 222.31L145.605 182.91L51.68 182.91C51.68 207.535 69.2567 222.31 83.5378 222.31L145.605 222.31Z" fill="url(#paint84_linear_21_16670)"/>
<path d="M145.605 222.31L145.605 182.91L51.68 182.91C51.68 207.535 69.2567 222.31 83.5378 222.31L145.605 222.31Z" stroke="url(#paint85_linear_21_16670)" stroke-width="2.29412"/>
<path d="M219.509 59.6833L116.091 115.403C110.587 118.369 107.155 124.116 107.155 130.369L107.155 257.486C107.155 263.738 110.587 269.486 116.091 272.452L219.509 328.171C224.542 330.883 230.602 330.883 235.635 328.171L339.053 272.452C344.557 269.486 347.989 263.738 347.989 257.486L347.989 130.369C347.989 124.116 344.557 118.369 339.053 115.403L235.635 59.6833C230.602 56.9713 224.542 56.9713 219.509 59.6833Z" fill="url(#paint86_linear_21_16670)"/>
<path d="M219.395 80.6577L134.361 126.472C128.877 129.427 125.458 135.153 125.458 141.382L125.458 245.991C125.458 252.22 128.877 257.946 134.361 260.9L219.395 306.715C224.409 309.417 230.446 309.417 235.461 306.715L320.494 260.9C325.978 257.946 329.397 252.22 329.397 245.991L329.397 141.382C329.397 135.153 325.978 129.427 320.494 126.472L235.461 80.6577C230.446 77.9559 224.409 77.9559 219.395 80.6577Z" fill="url(#paint87_linear_21_16670)"/>
<g filter="url(#filter15_f_21_16670)">
<path d="M219.395 80.6577L134.361 126.472C128.877 129.427 125.458 135.153 125.458 141.382L125.458 245.991C125.458 252.22 128.877 257.946 134.361 260.9L219.395 306.715C224.409 309.417 230.446 309.417 235.461 306.715L320.494 260.9C325.978 257.946 329.397 252.22 329.397 245.991L329.397 141.382C329.397 135.153 325.978 129.427 320.494 126.472L235.461 80.6577C230.446 77.9559 224.409 77.9559 219.395 80.6577Z" stroke="url(#paint88_linear_21_16670)"/>
</g>
<g opacity="0.5">
<mask id="mask0_21_16670" style="mask-type:alpha" maskUnits="userSpaceOnUse" x="134" y="88" width="188" height="212">
<path d="M220.418 89.9813L142.602 131.869C137.383 134.679 134.128 140.127 134.128 146.055L134.128 241.691C134.128 247.618 137.383 253.066 142.602 255.876L220.418 297.764C225.185 300.33 230.922 300.33 235.69 297.764L313.505 255.876C318.724 253.066 321.979 247.618 321.979 241.691L321.979 146.055C321.979 140.127 318.724 134.679 313.505 131.869L235.69 89.9813C230.922 87.4151 225.185 87.4151 220.418 89.9813Z" fill="#A6D3DE"/>
</mask>
<g mask="url(#mask0_21_16670)">
<path d="M220.418 89.9813L142.602 131.869C137.383 134.679 134.128 140.127 134.128 146.055L134.128 241.691C134.128 247.618 137.383 253.066 142.602 255.876L220.418 297.764C225.185 300.33 230.922 300.33 235.69 297.764L313.505 255.876C318.724 253.066 321.979 247.618 321.979 241.691L321.979 146.055C321.979 140.127 318.724 134.679 313.505 131.869L235.69 89.9813C230.922 87.4151 225.185 87.4151 220.418 89.9813Z" fill="url(#paint89_radial_21_16670)"/>
<path opacity="0.5" d="M212.352 306.141L208.621 81.5935H247.487L243.756 306.141H212.352Z" fill="url(#paint90_linear_21_16670)"/>
<path opacity="0.5" d="M211.852 304.149L95.2629 111.533L128.922 92.2865L239.049 288.598L211.852 304.149Z" fill="url(#paint91_linear_21_16670)"/>
<path opacity="0.5" d="M208.614 288.598L318.741 92.2861L352.399 111.533L235.81 304.149L208.614 288.598Z" fill="url(#paint92_linear_21_16670)"/>
<rect x="134.129" y="181.036" width="187.851" height="120.828" fill="url(#paint93_linear_21_16670)"/>
<g filter="url(#filter16_i_21_16670)">
<path d="M220.418 89.9813L142.602 131.869C137.383 134.679 134.128 140.127 134.128 146.055L134.128 241.691C134.128 247.618 137.383 253.066 142.602 255.876L220.418 297.764C225.185 300.33 230.922 300.33 235.69 297.764L313.505 255.876C318.724 253.066 321.979 247.618 321.979 241.691L321.979 146.055C321.979 140.127 318.724 134.679 313.505 131.869L235.69 89.9813C230.922 87.4151 225.185 87.4151 220.418 89.9813Z" fill="#AFF5F1" fill-opacity="0.03"/>
</g>
</g>
</g>
<g filter="url(#filter17_i_21_16670)">
<path d="M186.248 174.013C186.248 175.733 185.775 177.281 184.829 178.657C183.912 180.033 182.564 181.137 180.787 181.968C179.01 182.799 176.874 183.244 174.38 183.301V186.741H171.714V183.215C168.389 182.9 165.694 181.896 163.63 180.205C161.566 178.514 160.434 176.192 160.233 173.239H170.381C170.467 174.414 170.911 175.217 171.714 175.647V171.433C169.22 170.745 167.242 170.114 165.78 169.541C164.347 168.968 163.042 168.022 161.867 166.703C160.72 165.384 160.147 163.593 160.147 161.328C160.147 159.465 160.663 157.859 161.695 156.512C162.727 155.136 164.117 154.075 165.866 153.33C167.615 152.585 169.564 152.169 171.714 152.083V148.6H174.38V152.083C177.791 152.312 180.486 153.273 182.464 154.964C184.442 156.627 185.531 158.934 185.732 161.887H175.455C175.34 160.798 174.982 160.067 174.38 159.694V163.865C175.383 164.152 175.856 164.295 175.799 164.295C177.949 164.954 179.712 165.614 181.088 166.273C182.493 166.904 183.697 167.85 184.7 169.111C185.732 170.372 186.248 172.006 186.248 174.013ZM170.381 160.898C170.381 161.643 170.825 162.274 171.714 162.79V159.35C170.825 159.522 170.381 160.038 170.381 160.898ZM174.38 176.034C175.498 175.805 176.057 175.203 176.057 174.228C176.057 173.483 175.498 172.852 174.38 172.336V176.034ZM188.959 161.414C189.045 158.003 190.034 155.394 191.926 153.588C193.846 151.782 196.555 150.879 200.053 150.879C202.317 150.879 204.252 151.266 205.858 152.04C207.463 152.814 208.667 153.86 209.47 155.179C210.301 156.498 210.717 157.988 210.717 159.651C210.717 161.658 210.244 163.234 209.298 164.381C208.352 165.499 207.291 166.259 206.116 166.66V166.832C209.556 168.122 211.276 170.516 211.276 174.013C211.276 175.848 210.846 177.467 209.986 178.872C209.126 180.277 207.893 181.366 206.288 182.14C204.711 182.914 202.833 183.301 200.655 183.301C196.928 183.301 194.004 182.412 191.883 180.635C189.761 178.858 188.672 176.077 188.615 172.293H197.903C197.845 173.325 197.989 174.113 198.333 174.658C198.705 175.174 199.336 175.432 200.225 175.432C200.741 175.432 201.171 175.246 201.515 174.873C201.859 174.472 202.031 173.956 202.031 173.325C202.031 172.522 201.758 171.92 201.214 171.519C200.698 171.089 199.809 170.874 198.548 170.874H196.957V163.177H198.505C200.454 163.292 201.429 162.518 201.429 160.855C201.429 160.138 201.271 159.608 200.956 159.264C200.669 158.92 200.296 158.748 199.838 158.748C198.777 158.748 198.247 159.637 198.247 161.414H188.959ZM214.425 166.832C214.425 161.873 215.471 157.974 217.564 155.136C219.685 152.298 222.939 150.879 227.325 150.879C231.682 150.879 234.921 152.312 237.043 155.179C239.164 158.017 240.225 161.901 240.225 166.832C240.225 171.791 239.164 175.704 237.043 178.571C234.921 181.409 231.682 182.828 227.325 182.828C222.939 182.828 219.685 181.409 217.564 178.571C215.471 175.704 214.425 171.791 214.425 166.832ZM230.808 166.832C230.808 164.539 230.578 162.819 230.12 161.672C229.661 160.497 228.729 159.909 227.325 159.909C225.891 159.909 224.945 160.497 224.487 161.672C224.028 162.819 223.799 164.539 223.799 166.832C223.799 169.154 224.028 170.903 224.487 172.078C224.945 173.225 225.891 173.798 227.325 173.798C228.729 173.798 229.661 173.225 230.12 172.078C230.578 170.903 230.808 169.154 230.808 166.832ZM242.466 166.832C242.466 161.873 243.512 157.974 245.605 155.136C247.726 152.298 250.98 150.879 255.366 150.879C259.723 150.879 262.962 152.312 265.084 155.179C267.205 158.017 268.266 161.901 268.266 166.832C268.266 171.791 267.205 175.704 265.084 178.571C262.962 181.409 259.723 182.828 255.366 182.828C250.98 182.828 247.726 181.409 245.605 178.571C243.512 175.704 242.466 171.791 242.466 166.832ZM258.849 166.832C258.849 164.539 258.619 162.819 258.161 161.672C257.702 160.497 256.77 159.909 255.366 159.909C253.932 159.909 252.986 160.497 252.528 161.672C252.069 162.819 251.84 164.539 251.84 166.832C251.84 169.154 252.069 170.903 252.528 172.078C252.986 173.225 253.932 173.798 255.366 173.798C256.77 173.798 257.702 173.225 258.161 172.078C258.619 170.903 258.849 169.154 258.849 166.832ZM270.506 166.832C270.506 161.873 271.553 157.974 273.645 155.136C275.767 152.298 279.02 150.879 283.406 150.879C287.764 150.879 291.003 152.312 293.124 155.179C295.246 158.017 296.306 161.901 296.306 166.832C296.306 171.791 295.246 175.704 293.124 178.571C291.003 181.409 287.764 182.828 283.406 182.828C279.02 182.828 275.767 181.409 273.645 178.571C271.553 175.704 270.506 171.791 270.506 166.832ZM286.889 166.832C286.889 164.539 286.66 162.819 286.201 161.672C285.743 160.497 284.811 159.909 283.406 159.909C281.973 159.909 281.027 160.497 280.568 161.672C280.11 162.819 279.88 164.539 279.88 166.832C279.88 169.154 280.11 170.903 280.568 172.078C281.027 173.225 281.973 173.798 283.406 173.798C284.811 173.798 285.743 173.225 286.201 172.078C286.66 170.903 286.889 169.154 286.889 166.832ZM173.368 203.836C174.563 204.116 175.487 204.695 176.14 205.572C176.812 206.431 177.148 207.429 177.148 208.568C177.148 210.304 176.569 211.648 175.412 212.6C174.273 213.533 172.631 214 170.484 214H160.096V194.176H170.204C172.22 194.176 173.807 194.615 174.964 195.492C176.121 196.369 176.7 197.648 176.7 199.328C176.7 200.485 176.392 201.465 175.776 202.268C175.179 203.052 174.376 203.575 173.368 203.836ZM166.312 201.904H168.72C169.28 201.904 169.691 201.792 169.952 201.568C170.232 201.344 170.372 200.999 170.372 200.532C170.372 200.047 170.232 199.692 169.952 199.468C169.691 199.225 169.28 199.104 168.72 199.104H166.312V201.904ZM169.14 209.016C169.7 209.016 170.111 208.913 170.372 208.708C170.652 208.484 170.792 208.129 170.792 207.644C170.792 206.692 170.241 206.216 169.14 206.216H166.312V209.016H169.14ZM194.245 205.964C194.245 206.393 194.217 206.804 194.161 207.196H184.165C184.258 208.559 184.827 209.24 185.873 209.24C186.545 209.24 187.03 208.932 187.329 208.316H193.909C193.685 209.436 193.209 210.444 192.481 211.34C191.771 212.217 190.866 212.917 189.765 213.44C188.682 213.944 187.487 214.196 186.181 214.196C184.613 214.196 183.213 213.869 181.981 213.216C180.767 212.563 179.815 211.629 179.125 210.416C178.453 209.184 178.117 207.747 178.117 206.104C178.117 204.461 178.453 203.033 179.125 201.82C179.815 200.588 180.767 199.645 181.981 198.992C183.213 198.339 184.613 198.012 186.181 198.012C187.749 198.012 189.139 198.339 190.353 198.992C191.585 199.627 192.537 200.541 193.209 201.736C193.899 202.931 194.245 204.34 194.245 205.964ZM187.945 204.48C187.945 203.957 187.777 203.565 187.441 203.304C187.105 203.024 186.685 202.884 186.181 202.884C185.079 202.884 184.435 203.416 184.249 204.48H187.945ZM202.959 214.196C201.465 214.196 200.14 213.953 198.983 213.468C197.844 212.983 196.939 212.311 196.267 211.452C195.595 210.593 195.212 209.623 195.119 208.54H201.083C201.157 209.007 201.353 209.352 201.671 209.576C202.007 209.8 202.427 209.912 202.931 209.912C203.248 209.912 203.5 209.847 203.687 209.716C203.873 209.567 203.967 209.389 203.967 209.184C203.967 208.829 203.771 208.577 203.379 208.428C202.987 208.279 202.324 208.111 201.391 207.924C200.252 207.7 199.309 207.457 198.563 207.196C197.835 206.935 197.191 206.487 196.631 205.852C196.089 205.217 195.819 204.34 195.819 203.22C195.819 202.249 196.071 201.372 196.575 200.588C197.097 199.785 197.863 199.16 198.871 198.712C199.879 198.245 201.101 198.012 202.539 198.012C204.667 198.012 206.328 198.535 207.523 199.58C208.736 200.625 209.464 201.988 209.707 203.668H204.191C204.097 203.239 203.901 202.912 203.603 202.688C203.304 202.445 202.903 202.324 202.399 202.324C202.081 202.324 201.839 202.389 201.671 202.52C201.503 202.632 201.419 202.809 201.419 203.052C201.419 203.369 201.615 203.612 202.007 203.78C202.399 203.929 203.024 204.088 203.883 204.256C205.021 204.48 205.983 204.732 206.767 205.012C207.551 205.292 208.232 205.777 208.811 206.468C209.389 207.14 209.679 208.073 209.679 209.268C209.679 210.201 209.408 211.041 208.867 211.788C208.325 212.535 207.541 213.123 206.515 213.552C205.507 213.981 204.321 214.196 202.959 214.196ZM221.693 208.708V214H219.341C215.011 214 212.845 211.844 212.845 207.532V203.388H210.885V198.208H212.845V194.4H219.061V198.208H221.637V203.388H219.061V207.644C219.061 208.017 219.145 208.288 219.313 208.456C219.5 208.624 219.799 208.708 220.209 208.708H221.693ZM244.471 200.98C244.471 202.231 244.181 203.369 243.603 204.396C243.024 205.404 242.165 206.207 241.027 206.804C239.907 207.401 238.544 207.7 236.939 207.7H234.475V214H228.259V194.176H236.939C239.365 194.176 241.223 194.792 242.511 196.024C243.817 197.256 244.471 198.908 244.471 200.98ZM236.239 202.8C237.527 202.8 238.171 202.193 238.171 200.98C238.171 199.767 237.527 199.16 236.239 199.16H234.475V202.8H236.239ZM252.378 201.12C253.013 200.205 253.787 199.477 254.702 198.936C255.617 198.376 256.569 198.096 257.558 198.096V204.732H255.794C254.618 204.732 253.75 204.937 253.19 205.348C252.649 205.759 252.378 206.487 252.378 207.532V214H246.162V198.208H252.378V201.12ZM262.088 196.948C261.006 196.948 260.138 196.659 259.484 196.08C258.831 195.501 258.504 194.773 258.504 193.896C258.504 193 258.831 192.263 259.484 191.684C260.138 191.087 261.006 190.788 262.088 190.788C263.152 190.788 264.011 191.087 264.664 191.684C265.318 192.263 265.644 193 265.644 193.896C265.644 194.773 265.318 195.501 264.664 196.08C264.011 196.659 263.152 196.948 262.088 196.948ZM265.168 198.208V214H258.952V198.208H265.168ZM273.66 208.848H280.24V214H266.856V209.128L272.876 203.36H266.94V198.208H279.96V203.08L273.66 208.848ZM297.196 205.964C297.196 206.393 297.168 206.804 297.112 207.196H287.116C287.209 208.559 287.779 209.24 288.824 209.24C289.496 209.24 289.981 208.932 290.28 208.316H296.86C296.636 209.436 296.16 210.444 295.432 211.34C294.723 212.217 293.817 212.917 292.716 213.44C291.633 213.944 290.439 214.196 289.132 214.196C287.564 214.196 286.164 213.869 284.932 213.216C283.719 212.563 282.767 211.629 282.076 210.416C281.404 209.184 281.068 207.747 281.068 206.104C281.068 204.461 281.404 203.033 282.076 201.82C282.767 200.588 283.719 199.645 284.932 198.992C286.164 198.339 287.564 198.012 289.132 198.012C290.7 198.012 292.091 198.339 293.304 198.992C294.536 199.627 295.488 200.541 296.16 201.736C296.851 202.931 297.196 204.34 297.196 205.964ZM290.896 204.48C290.896 203.957 290.728 203.565 290.392 203.304C290.056 203.024 289.636 202.884 289.132 202.884C288.031 202.884 287.387 203.416 287.2 204.48H290.896ZM143.652 228.9C143.652 227.5 143.932 226.253 144.492 225.16C145.065 224.067 145.879 223.22 146.932 222.62C147.985 222.007 149.225 221.7 150.652 221.7C151.879 221.7 152.972 221.933 153.932 222.4C154.905 222.853 155.692 223.5 156.292 224.34C156.905 225.18 157.312 226.16 157.512 227.28H152.832C152.619 226.813 152.312 226.453 151.912 226.2C151.525 225.933 151.079 225.8 150.572 225.8C149.825 225.8 149.232 226.08 148.792 226.64C148.365 227.2 148.152 227.953 148.152 228.9C148.152 229.847 148.365 230.6 148.792 231.16C149.232 231.72 149.825 232 150.572 232C151.079 232 151.525 231.873 151.912 231.62C152.312 231.353 152.619 230.987 152.832 230.52H157.512C157.312 231.64 156.905 232.62 156.292 233.46C155.692 234.3 154.905 234.953 153.932 235.42C152.972 235.873 151.879 236.1 150.652 236.1C149.225 236.1 147.985 235.8 146.932 235.2C145.879 234.587 145.065 233.733 144.492 232.64C143.932 231.547 143.652 230.3 143.652 228.9ZM164.271 236.14C163.137 236.14 162.117 235.907 161.211 235.44C160.304 234.973 159.591 234.307 159.071 233.44C158.564 232.56 158.311 231.533 158.311 230.36C158.311 229.187 158.564 228.167 159.071 227.3C159.591 226.42 160.304 225.747 161.211 225.28C162.117 224.813 163.137 224.58 164.271 224.58C165.404 224.58 166.424 224.813 167.331 225.28C168.237 225.747 168.944 226.42 169.451 227.3C169.971 228.167 170.231 229.187 170.231 230.36C170.231 231.533 169.971 232.56 169.451 233.44C168.944 234.307 168.237 234.973 167.331 235.44C166.424 235.907 165.404 236.14 164.271 236.14ZM164.271 232.3C164.684 232.3 165.031 232.14 165.311 231.82C165.591 231.487 165.731 231 165.731 230.36C165.731 229.72 165.591 229.24 165.311 228.92C165.031 228.587 164.684 228.42 164.271 228.42C163.857 228.42 163.511 228.587 163.231 228.92C162.951 229.24 162.811 229.72 162.811 230.36C162.811 231 162.944 231.487 163.211 231.82C163.491 232.14 163.844 232.3 164.271 232.3ZM186.485 224.64C187.925 224.64 189.039 225.073 189.825 225.94C190.625 226.807 191.025 227.98 191.025 229.46V236H186.605V230.02C186.605 229.54 186.459 229.167 186.165 228.9C185.885 228.62 185.505 228.48 185.025 228.48C184.532 228.48 184.145 228.62 183.865 228.9C183.585 229.167 183.445 229.54 183.445 230.02V236H179.025V230.02C179.025 229.54 178.879 229.167 178.585 228.9C178.305 228.62 177.925 228.48 177.445 228.48C176.952 228.48 176.565 228.62 176.285 228.9C176.005 229.167 175.865 229.54 175.865 230.02V236H171.425V224.72H175.865V226.24C176.185 225.76 176.619 225.373 177.165 225.08C177.725 224.787 178.379 224.64 179.125 224.64C179.939 224.64 180.659 224.82 181.285 225.18C181.912 225.527 182.412 226.02 182.785 226.66C183.199 226.073 183.725 225.593 184.365 225.22C185.005 224.833 185.712 224.64 186.485 224.64ZM207.809 224.64C209.249 224.64 210.362 225.073 211.149 225.94C211.949 226.807 212.349 227.98 212.349 229.46V236H207.929V230.02C207.929 229.54 207.782 229.167 207.489 228.9C207.209 228.62 206.829 228.48 206.349 228.48C205.856 228.48 205.469 228.62 205.189 228.9C204.909 229.167 204.769 229.54 204.769 230.02V236H200.349V230.02C200.349 229.54 200.202 229.167 199.909 228.9C199.629 228.62 199.249 228.48 198.769 228.48C198.276 228.48 197.889 228.62 197.609 228.9C197.329 229.167 197.189 229.54 197.189 230.02V236H192.749V224.72H197.189V226.24C197.509 225.76 197.942 225.373 198.489 225.08C199.049 224.787 199.702 224.64 200.449 224.64C201.262 224.64 201.982 224.82 202.609 225.18C203.236 225.527 203.736 226.02 204.109 226.66C204.522 226.073 205.049 225.593 205.689 225.22C206.329 224.833 207.036 224.64 207.809 224.64ZM226.012 224.72V236H221.572V234.28C221.226 234.813 220.759 235.247 220.172 235.58C219.599 235.913 218.912 236.08 218.112 236.08C216.819 236.08 215.806 235.647 215.072 234.78C214.352 233.913 213.992 232.74 213.992 231.26V224.72H218.412V230.7C218.412 231.233 218.552 231.66 218.832 231.98C219.126 232.287 219.512 232.44 219.992 232.44C220.486 232.44 220.872 232.287 221.152 231.98C221.432 231.66 221.572 231.233 221.572 230.7V224.72H226.012ZM235.718 224.64C237.011 224.64 238.018 225.073 238.738 225.94C239.471 226.807 239.838 227.98 239.838 229.46V236H235.418V230.02C235.418 229.487 235.271 229.067 234.978 228.76C234.698 228.44 234.318 228.28 233.838 228.28C233.344 228.28 232.958 228.44 232.678 228.76C232.398 229.067 232.258 229.487 232.258 230.02V236H227.818V224.72H232.258V226.44C232.604 225.907 233.064 225.473 233.638 225.14C234.224 224.807 234.918 224.64 235.718 224.64ZM243.803 223.82C243.03 223.82 242.41 223.613 241.943 223.2C241.476 222.787 241.243 222.267 241.243 221.64C241.243 221 241.476 220.473 241.943 220.06C242.41 219.633 243.03 219.42 243.803 219.42C244.563 219.42 245.176 219.633 245.643 220.06C246.11 220.473 246.343 221 246.343 221.64C246.343 222.267 246.11 222.787 245.643 223.2C245.176 223.613 244.563 223.82 243.803 223.82ZM246.003 224.72V236H241.563V224.72H246.003ZM247.208 230.36C247.208 229.187 247.448 228.167 247.928 227.3C248.422 226.42 249.102 225.747 249.968 225.28C250.848 224.813 251.848 224.58 252.968 224.58C254.435 224.58 255.668 224.993 256.668 225.82C257.682 226.647 258.322 227.793 258.588 229.26H253.888C253.715 228.673 253.375 228.38 252.868 228.38C252.508 228.38 252.222 228.547 252.008 228.88C251.808 229.213 251.708 229.707 251.708 230.36C251.708 231.013 251.808 231.507 252.008 231.84C252.222 232.173 252.508 232.34 252.868 232.34C253.375 232.34 253.715 232.047 253.888 231.46H258.588C258.322 232.927 257.682 234.073 256.668 234.9C255.668 235.727 254.435 236.14 252.968 236.14C251.848 236.14 250.848 235.907 249.968 235.44C249.102 234.973 248.422 234.307 247.928 233.44C247.448 232.56 247.208 231.533 247.208 230.36ZM259.196 230.36C259.196 229.173 259.396 228.147 259.796 227.28C260.209 226.4 260.769 225.733 261.476 225.28C262.182 224.813 262.976 224.58 263.856 224.58C264.589 224.58 265.222 224.733 265.756 225.04C266.289 225.333 266.696 225.74 266.976 226.26V224.72H271.396V236H266.976V234.46C266.696 234.98 266.289 235.393 265.756 235.7C265.222 235.993 264.589 236.14 263.856 236.14C262.976 236.14 262.182 235.913 261.476 235.46C260.769 234.993 260.209 234.327 259.796 233.46C259.396 232.58 259.196 231.547 259.196 230.36ZM266.976 230.36C266.976 229.76 266.822 229.293 266.516 228.96C266.209 228.627 265.816 228.46 265.336 228.46C264.856 228.46 264.462 228.627 264.156 228.96C263.849 229.293 263.696 229.76 263.696 230.36C263.696 230.96 263.849 231.427 264.156 231.76C264.462 232.093 264.856 232.26 265.336 232.26C265.816 232.26 266.209 232.093 266.516 231.76C266.822 231.427 266.976 230.96 266.976 230.36ZM280.21 232.22V236H278.53C275.436 236 273.89 234.46 273.89 231.38V228.42H272.49V224.72H273.89V222H278.33V224.72H280.17V228.42H278.33V231.46C278.33 231.727 278.39 231.92 278.51 232.04C278.643 232.16 278.856 232.22 279.15 232.22H280.21ZM283.94 223.82C283.167 223.82 282.547 223.613 282.08 223.2C281.614 222.787 281.38 222.267 281.38 221.64C281.38 221 281.614 220.473 282.08 220.06C282.547 219.633 283.167 219.42 283.94 219.42C284.7 219.42 285.314 219.633 285.78 220.06C286.247 220.473 286.48 221 286.48 221.64C286.48 222.267 286.247 222.787 285.78 223.2C285.314 223.613 284.7 223.82 283.94 223.82ZM286.14 224.72V236H281.7V224.72H286.14ZM293.306 236.14C292.172 236.14 291.152 235.907 290.246 235.44C289.339 234.973 288.626 234.307 288.106 233.44C287.599 232.56 287.346 231.533 287.346 230.36C287.346 229.187 287.599 228.167 288.106 227.3C288.626 226.42 289.339 225.747 290.246 225.28C291.152 224.813 292.172 224.58 293.306 224.58C294.439 224.58 295.459 224.813 296.366 225.28C297.272 225.747 297.979 226.42 298.486 227.3C299.006 228.167 299.266 229.187 299.266 230.36C299.266 231.533 299.006 232.56 298.486 233.44C297.979 234.307 297.272 234.973 296.366 235.44C295.459 235.907 294.439 236.14 293.306 236.14ZM293.306 232.3C293.719 232.3 294.066 232.14 294.346 231.82C294.626 231.487 294.766 231 294.766 230.36C294.766 229.72 294.626 229.24 294.346 228.92C294.066 228.587 293.719 228.42 293.306 228.42C292.892 228.42 292.546 228.587 292.266 228.92C291.986 229.24 291.846 229.72 291.846 230.36C291.846 231 291.979 231.487 292.246 231.82C292.526 232.14 292.879 232.3 293.306 232.3ZM308.361 224.64C309.654 224.64 310.661 225.073 311.381 225.94C312.114 226.807 312.481 227.98 312.481 229.46V236H308.061V230.02C308.061 229.487 307.914 229.067 307.621 228.76C307.341 228.44 306.961 228.28 306.481 228.28C305.987 228.28 305.601 228.44 305.321 228.76C305.041 229.067 304.901 229.487 304.901 230.02V236H300.461V224.72H304.901V226.44C305.247 225.907 305.707 225.473 306.281 225.14C306.867 224.807 307.561 224.64 308.361 224.64Z" fill="url(#paint94_linear_21_16670)"/>
</g>
</g>
<defs>
<filter id="filter0_d_21_16670" x="117.907" y="51.0527" width="30.7674" height="23.9727" filterUnits="userSpaceOnUse" color-interpolation-filters="sRGB">
<feFlood flood-opacity="0" result="BackgroundImageFix"/>
<feColorMatrix in="SourceAlpha" type="matrix" values="0 0 0 0 0 0 0 0 0 0 0 0 0 0 0 0 0 0 127 0" result="hardAlpha"/>
<feOffset dy="2.23124"/>
<feGaussianBlur stdDeviation="0.557811"/>
<feColorMatrix type="matrix" values="0 0 0 0 0.541667 0 0 0 0 0.336104 0 0 0 0 0.0947917 0 0 0 0.25 0"/>
<feBlend mode="normal" in2="BackgroundImageFix" result="effect1_dropShadow_21_16670"/>
<feBlend mode="normal" in="SourceGraphic" in2="effect1_dropShadow_21_16670" result="shape"/>
</filter>
<filter id="filter1_d_21_16670" x="94.4581" y="104.35" width="29.5588" height="15.6013" filterUnits="userSpaceOnUse" color-interpolation-filters="sRGB">
<feFlood flood-opacity="0" result="BackgroundImageFix"/>
<feColorMatrix in="SourceAlpha" type="matrix" values="0 0 0 0 0 0 0 0 0 0 0 0 0 0 0 0 0 0 127 0" result="hardAlpha"/>
<feOffset dy="2.23124"/>
<feGaussianBlur stdDeviation="0.557811"/>
<feColorMatrix type="matrix" values="0 0 0 0 0.541667 0 0 0 0 0.336104 0 0 0 0 0.0947917 0 0 0 0.25 0"/>
<feBlend mode="normal" in2="BackgroundImageFix" result="effect1_dropShadow_21_16670"/>
<feBlend mode="normal" in="SourceGraphic" in2="effect1_dropShadow_21_16670" result="shape"/>
</filter>
<filter id="filter2_d_21_16670" x="66.8179" y="106.987" width="22.4897" height="43.2988" filterUnits="userSpaceOnUse" color-interpolation-filters="sRGB">
<feFlood flood-opacity="0" result="BackgroundImageFix"/>
<feColorMatrix in="SourceAlpha" type="matrix" values="0 0 0 0 0 0 0 0 0 0 0 0 0 0 0 0 0 0 127 0" result="hardAlpha"/>
<feOffset dx="2.23124" dy="2.23124"/>
<feGaussianBlur stdDeviation="0.557811"/>
<feColorMatrix type="matrix" values="0 0 0 0 0.541667 0 0 0 0 0.336104 0 0 0 0 0.0947917 0 0 0 0.25 0"/>
<feBlend mode="normal" in2="BackgroundImageFix" result="effect1_dropShadow_21_16670"/>
<feBlend mode="normal" in="SourceGraphic" in2="effect1_dropShadow_21_16670" result="shape"/>
</filter>
<filter id="filter3_d_21_16670" x="78.2647" y="150.361" width="11.8977" height="36.1992" filterUnits="userSpaceOnUse" color-interpolation-filters="sRGB">
<feFlood flood-opacity="0" result="BackgroundImageFix"/>
<feColorMatrix in="SourceAlpha" type="matrix" values="0 0 0 0 0 0 0 0 0 0 0 0 0 0 0 0 0 0 127 0" result="hardAlpha"/>
<feOffset dy="2.23124"/>
<feGaussianBlur stdDeviation="0.557811"/>
<feColorMatrix type="matrix" values="0 0 0 0 0.541667 0 0 0 0 0.336104 0 0 0 0 0.0947917 0 0 0 0.25 0"/>
<feBlend mode="normal" in2="BackgroundImageFix" result="effect1_dropShadow_21_16670"/>
<feBlend mode="normal" in="SourceGraphic" in2="effect1_dropShadow_21_16670" result="shape"/>
</filter>
<filter id="filter4_d_21_16670" x="77.5167" y="185.624" width="13.3894" height="41.0275" filterUnits="userSpaceOnUse" color-interpolation-filters="sRGB">
<feFlood flood-opacity="0" result="BackgroundImageFix"/>
<feColorMatrix in="SourceAlpha" type="matrix" values="0 0 0 0 0 0 0 0 0 0 0 0 0 0 0 0 0 0 127 0" result="hardAlpha"/>
<feOffset dy="2.23124"/>
<feGaussianBlur stdDeviation="0.557811"/>
<feColorMatrix type="matrix" values="0 0 0 0 0.541667 0 0 0 0 0.336104 0 0 0 0 0.0947917 0 0 0 0.25 0"/>
<feBlend mode="normal" in2="BackgroundImageFix" result="effect1_dropShadow_21_16670"/>
<feBlend mode="normal" in="SourceGraphic" in2="effect1_dropShadow_21_16670" result="shape"/>
</filter>
<filter id="filter5_d_21_16670" x="54.1143" y="191.262" width="27.8383" height="25.9946" filterUnits="userSpaceOnUse" color-interpolation-filters="sRGB">
<feFlood flood-opacity="0" result="BackgroundImageFix"/>
<feColorMatrix in="SourceAlpha" type="matrix" values="0 0 0 0 0 0 0 0 0 0 0 0 0 0 0 0 0 0 127 0" result="hardAlpha"/>
<feOffset dx="2.23124" dy="2.23124"/>
<feGaussianBlur stdDeviation="0.557811"/>
<feColorMatrix type="matrix" values="0 0 0 0 0.541667 0 0 0 0 0.336104 0 0 0 0 0.0947917 0 0 0 0.25 0"/>
<feBlend mode="normal" in2="BackgroundImageFix" result="effect1_dropShadow_21_16670"/>
<feBlend mode="normal" in="SourceGraphic" in2="effect1_dropShadow_21_16670" result="shape"/>
</filter>
<filter id="filter6_d_21_16670" x="60.5045" y="233.969" width="26.5259" height="15.8808" filterUnits="userSpaceOnUse" color-interpolation-filters="sRGB">
<feFlood flood-opacity="0" result="BackgroundImageFix"/>
<feColorMatrix in="SourceAlpha" type="matrix" values="0 0 0 0 0 0 0 0 0 0 0 0 0 0 0 0 0 0 127 0" result="hardAlpha"/>
<feOffset dy="2.23124"/>
<feGaussianBlur stdDeviation="0.557811"/>
<feColorMatrix type="matrix" values="0 0 0 0 0.541667 0 0 0 0 0.336104 0 0 0 0 0.0947917 0 0 0 0.25 0"/>
<feBlend mode="normal" in2="BackgroundImageFix" result="effect1_dropShadow_21_16670"/>
<feBlend mode="normal" in="SourceGraphic" in2="effect1_dropShadow_21_16670" result="shape"/>
</filter>
<filter id="filter7_d_21_16670" x="305.325" y="52.0071" width="30.7674" height="23.9727" filterUnits="userSpaceOnUse" color-interpolation-filters="sRGB">
<feFlood flood-opacity="0" result="BackgroundImageFix"/>
<feColorMatrix in="SourceAlpha" type="matrix" values="0 0 0 0 0 0 0 0 0 0 0 0 0 0 0 0 0 0 127 0" result="hardAlpha"/>
<feOffset dy="2.23124"/>
<feGaussianBlur stdDeviation="0.557811"/>
<feColorMatrix type="matrix" values="0 0 0 0 0.541667 0 0 0 0 0.336104 0 0 0 0 0.0947917 0 0 0 0.25 0"/>
<feBlend mode="normal" in2="BackgroundImageFix" result="effect1_dropShadow_21_16670"/>
<feBlend mode="normal" in="SourceGraphic" in2="effect1_dropShadow_21_16670" result="shape"/>
</filter>
<filter id="filter8_d_21_16670" x="329.987" y="105.303" width="29.5589" height="15.601" filterUnits="userSpaceOnUse" color-interpolation-filters="sRGB">
<feFlood flood-opacity="0" result="BackgroundImageFix"/>
<feColorMatrix in="SourceAlpha" type="matrix" values="0 0 0 0 0 0 0 0 0 0 0 0 0 0 0 0 0 0 127 0" result="hardAlpha"/>
<feOffset dy="2.23124"/>
<feGaussianBlur stdDeviation="0.557811"/>
<feColorMatrix type="matrix" values="0 0 0 0 0.541667 0 0 0 0 0.336104 0 0 0 0 0.0947917 0 0 0 0.25 0"/>
<feBlend mode="normal" in2="BackgroundImageFix" result="effect1_dropShadow_21_16670"/>
<feBlend mode="normal" in="SourceGraphic" in2="effect1_dropShadow_21_16670" result="shape"/>
</filter>
<filter id="filter9_d_21_16670" x="368.04" y="107.942" width="22.4896" height="43.2988" filterUnits="userSpaceOnUse" color-interpolation-filters="sRGB">
<feFlood flood-opacity="0" result="BackgroundImageFix"/>
<feColorMatrix in="SourceAlpha" type="matrix" values="0 0 0 0 0 0 0 0 0 0 0 0 0 0 0 0 0 0 127 0" result="hardAlpha"/>
<feOffset dx="2.23124" dy="2.23124"/>
<feGaussianBlur stdDeviation="0.557811"/>
<feColorMatrix type="matrix" values="0 0 0 0 0.541667 0 0 0 0 0.336104 0 0 0 0 0.0947917 0 0 0 0.25 0"/>
<feBlend mode="normal" in2="BackgroundImageFix" result="effect1_dropShadow_21_16670"/>
<feBlend mode="normal" in="SourceGraphic" in2="effect1_dropShadow_21_16670" result="shape"/>
</filter>
<filter id="filter10_d_21_16670" x="363.838" y="151.315" width="11.898" height="36.1994" filterUnits="userSpaceOnUse" color-interpolation-filters="sRGB">
<feFlood flood-opacity="0" result="BackgroundImageFix"/>
<feColorMatrix in="SourceAlpha" type="matrix" values="0 0 0 0 0 0 0 0 0 0 0 0 0 0 0 0 0 0 127 0" result="hardAlpha"/>
<feOffset dy="2.23124"/>
<feGaussianBlur stdDeviation="0.557811"/>
<feColorMatrix type="matrix" values="0 0 0 0 0.541667 0 0 0 0 0.336104 0 0 0 0 0.0947917 0 0 0 0.25 0"/>
<feBlend mode="normal" in2="BackgroundImageFix" result="effect1_dropShadow_21_16670"/>
<feBlend mode="normal" in="SourceGraphic" in2="effect1_dropShadow_21_16670" result="shape"/>
</filter>
<filter id="filter11_d_21_16670" x="363.094" y="186.579" width="13.3896" height="41.0275" filterUnits="userSpaceOnUse" color-interpolation-filters="sRGB">
<feFlood flood-opacity="0" result="BackgroundImageFix"/>
<feColorMatrix in="SourceAlpha" type="matrix" values="0 0 0 0 0 0 0 0 0 0 0 0 0 0 0 0 0 0 127 0" result="hardAlpha"/>
<feOffset dy="2.23124"/>
<feGaussianBlur stdDeviation="0.557811"/>
<feColorMatrix type="matrix" values="0 0 0 0 0.541667 0 0 0 0 0.336104 0 0 0 0 0.0947917 0 0 0 0.25 0"/>
<feBlend mode="normal" in2="BackgroundImageFix" result="effect1_dropShadow_21_16670"/>
<feBlend mode="normal" in="SourceGraphic" in2="effect1_dropShadow_21_16670" result="shape"/>
</filter>
<filter id="filter12_d_21_16670" x="375.395" y="192.217" width="27.8383" height="25.9946" filterUnits="userSpaceOnUse" color-interpolation-filters="sRGB">
<feFlood flood-opacity="0" result="BackgroundImageFix"/>
<feColorMatrix in="SourceAlpha" type="matrix" values="0 0 0 0 0 0 0 0 0 0 0 0 0 0 0 0 0 0 127 0" result="hardAlpha"/>
<feOffset dx="2.23124" dy="2.23124"/>
<feGaussianBlur stdDeviation="0.557811"/>
<feColorMatrix type="matrix" values="0 0 0 0 0.541667 0 0 0 0 0.336104 0 0 0 0 0.0947917 0 0 0 0.25 0"/>
<feBlend mode="normal" in2="BackgroundImageFix" result="effect1_dropShadow_21_16670"/>
<feBlend mode="normal" in="SourceGraphic" in2="effect1_dropShadow_21_16670" result="shape"/>
</filter>
<filter id="filter13_d_21_16670" x="366.967" y="234.923" width="26.526" height="15.8808" filterUnits="userSpaceOnUse" color-interpolation-filters="sRGB">
<feFlood flood-opacity="0" result="BackgroundImageFix"/>
<feColorMatrix in="SourceAlpha" type="matrix" values="0 0 0 0 0 0 0 0 0 0 0 0 0 0 0 0 0 0 127 0" result="hardAlpha"/>
<feOffset dy="2.23124"/>
<feGaussianBlur stdDeviation="0.557811"/>
<feColorMatrix type="matrix" values="0 0 0 0 0.541667 0 0 0 0 0.336104 0 0 0 0 0.0947917 0 0 0 0.25 0"/>
<feBlend mode="normal" in2="BackgroundImageFix" result="effect1_dropShadow_21_16670"/>
<feBlend mode="normal" in="SourceGraphic" in2="effect1_dropShadow_21_16670" result="shape"/>
</filter>
<filter id="filter14_d_21_16670" x="11.3828" y="57.6493" width="412.068" height="286.556" filterUnits="userSpaceOnUse" color-interpolation-filters="sRGB">
<feFlood flood-opacity="0" result="BackgroundImageFix"/>
<feColorMatrix in="SourceAlpha" type="matrix" values="0 0 0 0 0 0 0 0 0 0 0 0 0 0 0 0 0 0 127 0" result="hardAlpha"/>
<feOffset dy="8"/>
<feGaussianBlur stdDeviation="3"/>
<feColorMatrix type="matrix" values="0 0 0 0 0.208958 0 0 0 0 0.389892 0 0 0 0 0.491667 0 0 0 0.54 0"/>
<feBlend mode="normal" in2="BackgroundImageFix" result="effect1_dropShadow_21_16670"/>
<feBlend mode="normal" in="SourceGraphic" in2="effect1_dropShadow_21_16670" result="shape"/>
</filter>
<filter id="filter15_f_21_16670" x="124.658" y="77.8313" width="205.539" height="231.71" filterUnits="userSpaceOnUse" color-interpolation-filters="sRGB">
<feFlood flood-opacity="0" result="BackgroundImageFix"/>
<feBlend mode="normal" in="SourceGraphic" in2="BackgroundImageFix" result="shape"/>
<feGaussianBlur stdDeviation="0.15" result="effect1_foregroundBlur_21_16670"/>
</filter>
<filter id="filter16_i_21_16670" x="134.128" y="88.0566" width="187.851" height="211.632" filterUnits="userSpaceOnUse" color-interpolation-filters="sRGB">
<feFlood flood-opacity="0" result="BackgroundImageFix"/>
<feBlend mode="normal" in="SourceGraphic" in2="BackgroundImageFix" result="shape"/>
<feColorMatrix in="SourceAlpha" type="matrix" values="0 0 0 0 0 0 0 0 0 0 0 0 0 0 0 0 0 0 127 0" result="hardAlpha"/>
<feOffset/>
<feGaussianBlur stdDeviation="6.72414"/>
<feComposite in2="hardAlpha" operator="arithmetic" k2="-1" k3="1"/>
<feColorMatrix type="matrix" values="0 0 0 0 0.37849 0 0 0 0 0.586923 0 0 0 0 0.704167 0 0 0 1 0"/>
<feBlend mode="normal" in2="shape" result="effect1_innerShadow_21_16670"/>
</filter>
<filter id="filter17_i_21_16670" x="143.652" y="148.6" width="168.828" height="91.5398" filterUnits="userSpaceOnUse" color-interpolation-filters="sRGB">
<feFlood flood-opacity="0" result="BackgroundImageFix"/>
<feBlend mode="normal" in="SourceGraphic" in2="BackgroundImageFix" result="shape"/>
<feColorMatrix in="SourceAlpha" type="matrix" values="0 0 0 0 0 0 0 0 0 0 0 0 0 0 0 0 0 0 127 0" result="hardAlpha"/>
<feOffset dy="4"/>
<feGaussianBlur stdDeviation="2"/>
<feComposite in2="hardAlpha" operator="arithmetic" k2="-1" k3="1"/>
<feColorMatrix type="matrix" values="0 0 0 0 0 0 0 0 0 0 0 0 0 0 0 0 0 0 0.25 0"/>
<feBlend mode="normal" in2="shape" result="effect1_innerShadow_21_16670"/>
</filter>
<linearGradient id="paint0_linear_21_16670" x1="81.7935" y1="227.778" x2="73.9206" y2="238.404" gradientUnits="userSpaceOnUse">
<stop stop-color="#D2AB68"/>
<stop offset="1" stop-color="#B67D3F"/>
</linearGradient>
<linearGradient id="paint1_linear_21_16670" x1="115.219" y1="68.8257" x2="92.773" y2="99.119" gradientUnits="userSpaceOnUse">
<stop stop-color="#D2AB68"/>
<stop offset="1" stop-color="#B67D3F"/>
</linearGradient>
<linearGradient id="paint2_linear_21_16670" x1="138.554" y1="59.2263" x2="122.949" y2="80.2871" gradientUnits="userSpaceOnUse">
<stop stop-color="#D2AB68"/>
<stop offset="1" stop-color="#B67D3F"/>
</linearGradient>
<linearGradient id="paint3_linear_21_16670" x1="80.8807" y1="147.589" x2="89.202" y2="151.06" gradientUnits="userSpaceOnUse">
<stop stop-color="#D2AB68"/>
<stop offset="1" stop-color="#B67D3F"/>
</linearGradient>
<linearGradient id="paint4_linear_21_16670" x1="133.885" y1="73.3805" x2="121.194" y2="47.6297" gradientUnits="userSpaceOnUse">
<stop stop-color="#D2AB68"/>
<stop offset="1" stop-color="#B67D3F"/>
</linearGradient>
<linearGradient id="paint5_linear_21_16670" x1="124.322" y1="44.3336" x2="117.348" y2="71.5865" gradientUnits="userSpaceOnUse">
<stop stop-color="#F7E6B3"/>
<stop offset="1" stop-color="#F7E6B3" stop-opacity="0"/>
</linearGradient>
<linearGradient id="paint6_linear_21_16670" x1="105.65" y1="146.82" x2="78.2604" y2="183.785" gradientUnits="userSpaceOnUse">
<stop stop-color="#D2AB68"/>
<stop offset="1" stop-color="#B67D3F"/>
</linearGradient>
<linearGradient id="paint7_linear_21_16670" x1="99.4315" y1="151.088" x2="107.872" y2="174.221" gradientUnits="userSpaceOnUse">
<stop stop-color="#F7E6B3"/>
<stop offset="1" stop-color="#F7E6B3" stop-opacity="0"/>
</linearGradient>
<linearGradient id="paint8_linear_21_16670" x1="92.0662" y1="111.59" x2="77.5024" y2="131.246" gradientUnits="userSpaceOnUse">
<stop stop-color="#D2AB68"/>
<stop offset="1" stop-color="#B67D3F"/>
</linearGradient>
<linearGradient id="paint9_linear_21_16670" x1="89.3558" y1="122.917" x2="82.8272" y2="135.17" gradientUnits="userSpaceOnUse">
<stop stop-color="#C18E42"/>
<stop offset="1" stop-color="#D2AB68"/>
</linearGradient>
<linearGradient id="paint10_linear_21_16670" x1="104.554" y1="77.0624" x2="86.1388" y2="101.916" gradientUnits="userSpaceOnUse">
<stop stop-color="#D2AB68"/>
<stop offset="1" stop-color="#8E573C"/>
</linearGradient>
<linearGradient id="paint11_linear_21_16670" x1="119.305" y1="87.7392" x2="101.612" y2="111.618" gradientUnits="userSpaceOnUse">
<stop stop-color="#D2AB68"/>
<stop offset="1" stop-color="#B67D3F"/>
</linearGradient>
<linearGradient id="paint12_linear_21_16670" x1="71.4768" y1="161.386" x2="64.9906" y2="170.14" gradientUnits="userSpaceOnUse">
<stop stop-color="#D2AB68"/>
<stop offset="1" stop-color="#B67D3F"/>
</linearGradient>
<linearGradient id="paint13_linear_21_16670" x1="76.4434" y1="145.056" x2="61.1574" y2="165.687" gradientUnits="userSpaceOnUse">
<stop stop-color="#C28766"/>
<stop offset="1" stop-color="#8E573C"/>
</linearGradient>
<linearGradient id="paint14_linear_21_16670" x1="100.233" y1="194.891" x2="80.2528" y2="221.857" gradientUnits="userSpaceOnUse">
<stop stop-color="#D2AB68"/>
<stop offset="1" stop-color="#B67D3F"/>
</linearGradient>
<linearGradient id="paint15_linear_21_16670" x1="79.3055" y1="188.192" x2="66.6675" y2="205.248" gradientUnits="userSpaceOnUse">
<stop stop-color="#D2AB68"/>
<stop offset="1" stop-color="#B67D3F"/>
</linearGradient>
<linearGradient id="paint16_linear_21_16670" x1="81.5557" y1="187.091" x2="66.6842" y2="207.162" gradientUnits="userSpaceOnUse">
<stop stop-color="#FADA81"/>
<stop offset="1" stop-color="#B67D3F"/>
</linearGradient>
<linearGradient id="paint17_linear_21_16670" x1="79.2896" y1="242.53" x2="73.1511" y2="250.815" gradientUnits="userSpaceOnUse">
<stop stop-color="#D2AB68"/>
<stop offset="1" stop-color="#B67D3F"/>
</linearGradient>
<linearGradient id="paint18_linear_21_16670" x1="157.947" y1="19.4951" x2="135.92" y2="49.2221" gradientUnits="userSpaceOnUse">
<stop stop-color="#FCF1D5"/>
<stop offset="1" stop-color="#EBCE6A"/>
</linearGradient>
<linearGradient id="paint19_linear_21_16670" x1="160.481" y1="21.374" x2="138.455" y2="51.1011" gradientUnits="userSpaceOnUse">
<stop stop-color="#D2AB68"/>
<stop offset="1" stop-color="#B67D3F"/>
</linearGradient>
<linearGradient id="paint20_linear_21_16670" x1="144.361" y1="48.6839" x2="124.381" y2="75.6494" gradientUnits="userSpaceOnUse">
<stop stop-color="#D2AB68"/>
<stop offset="1" stop-color="#B67D3F"/>
</linearGradient>
<linearGradient id="paint21_linear_21_16670" x1="138.973" y1="51.1666" x2="139.678" y2="77.0002" gradientUnits="userSpaceOnUse">
<stop stop-color="#F7E6B3"/>
<stop offset="1" stop-color="#F7E6B3" stop-opacity="0"/>
</linearGradient>
<linearGradient id="paint22_linear_21_16670" x1="109.194" y1="71.6102" x2="102.802" y2="102.64" gradientUnits="userSpaceOnUse">
<stop stop-color="#F7E6B3"/>
<stop offset="1" stop-color="#F7E6B3" stop-opacity="0"/>
</linearGradient>
<linearGradient id="paint23_linear_21_16670" x1="98.2305" y1="78.1299" x2="88.027" y2="104.491" gradientUnits="userSpaceOnUse">
<stop stop-color="#F7E6B3"/>
<stop offset="1" stop-color="#F7E6B3" stop-opacity="0"/>
</linearGradient>
<linearGradient id="paint24_linear_21_16670" x1="115.032" y1="90.3823" x2="115.451" y2="107.958" gradientUnits="userSpaceOnUse">
<stop stop-color="#FFDD78"/>
<stop offset="1" stop-color="#FFF1C8" stop-opacity="0.38"/>
</linearGradient>
<linearGradient id="paint25_linear_21_16670" x1="116.583" y1="100.064" x2="101.057" y2="121.019" gradientUnits="userSpaceOnUse">
<stop stop-color="#D2AB68"/>
<stop offset="1" stop-color="#B67D3F"/>
</linearGradient>
<linearGradient id="paint26_linear_21_16670" x1="116.842" y1="99.7528" x2="97.9598" y2="119.021" gradientUnits="userSpaceOnUse">
<stop stop-color="#FFDA92"/>
<stop offset="1" stop-color="#DCBA84"/>
</linearGradient>
<linearGradient id="paint27_linear_21_16670" x1="72.5366" y1="111.212" x2="82.8508" y2="141.442" gradientUnits="userSpaceOnUse">
<stop stop-color="#F7E6B3"/>
<stop offset="1" stop-color="#BC8647"/>
</linearGradient>
<linearGradient id="paint28_linear_21_16670" x1="82.2272" y1="118.703" x2="69.8901" y2="135.353" gradientUnits="userSpaceOnUse">
<stop stop-color="#D2AB68"/>
<stop offset="1" stop-color="#8E573C"/>
</linearGradient>
<linearGradient id="paint29_linear_21_16670" x1="68.5712" y1="143.521" x2="58.1549" y2="162.461" gradientUnits="userSpaceOnUse">
<stop stop-color="#F7E6B3"/>
<stop offset="1" stop-color="#F7E6B3" stop-opacity="0"/>
</linearGradient>
<linearGradient id="paint30_linear_21_16670" x1="93.1441" y1="154.409" x2="74.488" y2="179.587" gradientUnits="userSpaceOnUse">
<stop stop-color="#D2AB68"/>
<stop offset="1" stop-color="#B67D3F"/>
</linearGradient>
<linearGradient id="paint31_linear_21_16670" x1="87.7147" y1="149.985" x2="79.3481" y2="181.547" gradientUnits="userSpaceOnUse">
<stop stop-color="#E0C087"/>
<stop offset="0.28125" stop-color="#FFE49E"/>
<stop offset="1" stop-color="#753C1D"/>
</linearGradient>
<linearGradient id="paint32_linear_21_16670" x1="65.6358" y1="161.681" x2="58.6106" y2="168.659" gradientUnits="userSpaceOnUse">
<stop stop-color="#B18253"/>
<stop offset="1" stop-color="#F7E6B3" stop-opacity="0"/>
</linearGradient>
<linearGradient id="paint33_linear_21_16670" x1="92.8966" y1="191.719" x2="73.8793" y2="217.385" gradientUnits="userSpaceOnUse">
<stop stop-color="#D2AB68"/>
<stop offset="1" stop-color="#B67D3F"/>
</linearGradient>
<linearGradient id="paint34_linear_21_16670" x1="87.2864" y1="193.667" x2="79.6845" y2="221.603" gradientUnits="userSpaceOnUse">
<stop stop-color="#F7E6B3"/>
<stop offset="1" stop-color="#F7E6B3" stop-opacity="0"/>
</linearGradient>
<linearGradient id="paint35_linear_21_16670" x1="69.0774" y1="199.042" x2="62.2466" y2="208.261" gradientUnits="userSpaceOnUse">
<stop stop-color="#D2AB68"/>
<stop offset="1" stop-color="#B67D3F"/>
</linearGradient>
<linearGradient id="paint36_linear_21_16670" x1="66.298" y1="197.172" x2="71.958" y2="210.784" gradientUnits="userSpaceOnUse">
<stop stop-color="#FADA81"/>
<stop offset="1" stop-color="#9A5E33"/>
</linearGradient>
<linearGradient id="paint37_linear_21_16670" x1="77.8867" y1="233.623" x2="70.7206" y2="243.295" gradientUnits="userSpaceOnUse">
<stop stop-color="#FADA81"/>
<stop offset="1" stop-color="#B67D3F"/>
</linearGradient>
<linearGradient id="paint38_linear_21_16670" x1="78.2112" y1="237.872" x2="70.1054" y2="248.812" gradientUnits="userSpaceOnUse">
<stop stop-color="#D2AB68"/>
<stop offset="1" stop-color="#B67D3F"/>
</linearGradient>
<linearGradient id="paint39_linear_21_16670" x1="372.206" y1="228.733" x2="380.078" y2="239.358" gradientUnits="userSpaceOnUse">
<stop stop-color="#D2AB68"/>
<stop offset="1" stop-color="#B67D3F"/>
</linearGradient>
<linearGradient id="paint40_linear_21_16670" x1="338.78" y1="69.78" x2="361.226" y2="100.073" gradientUnits="userSpaceOnUse">
<stop stop-color="#D2AB68"/>
<stop offset="1" stop-color="#B67D3F"/>
</linearGradient>
<linearGradient id="paint41_linear_21_16670" x1="315.445" y1="60.1804" x2="331.05" y2="81.2412" gradientUnits="userSpaceOnUse">
<stop stop-color="#D2AB68"/>
<stop offset="1" stop-color="#B67D3F"/>
</linearGradient>
<linearGradient id="paint42_linear_21_16670" x1="373.118" y1="148.544" x2="364.797" y2="152.016" gradientUnits="userSpaceOnUse">
<stop stop-color="#D2AB68"/>
<stop offset="1" stop-color="#B67D3F"/>
</linearGradient>
<linearGradient id="paint43_linear_21_16670" x1="320.115" y1="74.335" x2="332.806" y2="48.5842" gradientUnits="userSpaceOnUse">
<stop stop-color="#D2AB68"/>
<stop offset="1" stop-color="#B67D3F"/>
</linearGradient>
<linearGradient id="paint44_linear_21_16670" x1="329.678" y1="45.288" x2="336.652" y2="72.541" gradientUnits="userSpaceOnUse">
<stop stop-color="#F7E6B3"/>
<stop offset="1" stop-color="#F7E6B3" stop-opacity="0"/>
</linearGradient>
<linearGradient id="paint45_linear_21_16670" x1="348.348" y1="147.774" x2="375.738" y2="184.74" gradientUnits="userSpaceOnUse">
<stop stop-color="#D2AB68"/>
<stop offset="1" stop-color="#B67D3F"/>
</linearGradient>
<linearGradient id="paint46_linear_21_16670" x1="354.566" y1="152.042" x2="346.126" y2="175.178" gradientUnits="userSpaceOnUse">
<stop stop-color="#F7E6B3"/>
<stop offset="1" stop-color="#F7E6B3" stop-opacity="0"/>
</linearGradient>
<linearGradient id="paint47_linear_21_16670" x1="361.932" y1="112.546" x2="376.496" y2="132.202" gradientUnits="userSpaceOnUse">
<stop stop-color="#D2AB68"/>
<stop offset="1" stop-color="#B67D3F"/>
</linearGradient>
<linearGradient id="paint48_linear_21_16670" x1="364.644" y1="123.872" x2="371.172" y2="136.125" gradientUnits="userSpaceOnUse">
<stop stop-color="#C18E42"/>
<stop offset="1" stop-color="#D2AB68"/>
</linearGradient>
<linearGradient id="paint49_linear_21_16670" x1="349.444" y1="78.0167" x2="367.859" y2="102.87" gradientUnits="userSpaceOnUse">
<stop stop-color="#D2AB68"/>
<stop offset="1" stop-color="#8E573C"/>
</linearGradient>
<linearGradient id="paint50_linear_21_16670" x1="334.696" y1="88.6935" x2="352.389" y2="112.572" gradientUnits="userSpaceOnUse">
<stop stop-color="#D2AB68"/>
<stop offset="1" stop-color="#B67D3F"/>
</linearGradient>
<linearGradient id="paint51_linear_21_16670" x1="382.521" y1="162.341" x2="389.007" y2="171.095" gradientUnits="userSpaceOnUse">
<stop stop-color="#D2AB68"/>
<stop offset="1" stop-color="#B67D3F"/>
</linearGradient>
<linearGradient id="paint52_linear_21_16670" x1="377.556" y1="146.011" x2="392.842" y2="166.641" gradientUnits="userSpaceOnUse">
<stop stop-color="#C28766"/>
<stop offset="1" stop-color="#8E573C"/>
</linearGradient>
<linearGradient id="paint53_linear_21_16670" x1="353.765" y1="195.846" x2="373.745" y2="222.811" gradientUnits="userSpaceOnUse">
<stop stop-color="#D2AB68"/>
<stop offset="1" stop-color="#B67D3F"/>
</linearGradient>
<linearGradient id="paint54_linear_21_16670" x1="374.694" y1="189.147" x2="387.332" y2="206.204" gradientUnits="userSpaceOnUse">
<stop stop-color="#D2AB68"/>
<stop offset="1" stop-color="#B67D3F"/>
</linearGradient>
<linearGradient id="paint55_linear_21_16670" x1="372.444" y1="188.047" x2="387.315" y2="208.118" gradientUnits="userSpaceOnUse">
<stop stop-color="#FADA81"/>
<stop offset="1" stop-color="#B67D3F"/>
</linearGradient>
<linearGradient id="paint56_linear_21_16670" x1="374.71" y1="243.484" x2="380.848" y2="251.769" gradientUnits="userSpaceOnUse">
<stop stop-color="#D2AB68"/>
<stop offset="1" stop-color="#B67D3F"/>
</linearGradient>
<linearGradient id="paint57_linear_21_16670" x1="296.052" y1="20.4492" x2="318.078" y2="50.1761" gradientUnits="userSpaceOnUse">
<stop stop-color="#FCF1D5"/>
<stop offset="1" stop-color="#EBCE6A"/>
</linearGradient>
<linearGradient id="paint58_linear_21_16670" x1="293.516" y1="22.3281" x2="315.543" y2="52.0552" gradientUnits="userSpaceOnUse">
<stop stop-color="#D2AB68"/>
<stop offset="1" stop-color="#B67D3F"/>
</linearGradient>
<linearGradient id="paint59_linear_21_16670" x1="309.638" y1="49.6383" x2="329.618" y2="76.6037" gradientUnits="userSpaceOnUse">
<stop stop-color="#D2AB68"/>
<stop offset="1" stop-color="#B67D3F"/>
</linearGradient>
<linearGradient id="paint60_linear_21_16670" x1="315.026" y1="52.1209" x2="314.321" y2="77.9545" gradientUnits="userSpaceOnUse">
<stop stop-color="#F7E6B3"/>
<stop offset="1" stop-color="#F7E6B3" stop-opacity="0"/>
</linearGradient>
<linearGradient id="paint61_linear_21_16670" x1="344.807" y1="72.5664" x2="351.199" y2="103.595" gradientUnits="userSpaceOnUse">
<stop stop-color="#F7E6B3"/>
<stop offset="1" stop-color="#F7E6B3" stop-opacity="0"/>
</linearGradient>
<linearGradient id="paint62_linear_21_16670" x1="355.768" y1="79.0838" x2="365.971" y2="105.443" gradientUnits="userSpaceOnUse">
<stop stop-color="#F7E6B3"/>
<stop offset="1" stop-color="#F7E6B3" stop-opacity="0"/>
</linearGradient>
<linearGradient id="paint63_linear_21_16670" x1="338.971" y1="91.3391" x2="338.552" y2="108.914" gradientUnits="userSpaceOnUse">
<stop stop-color="#FFDD78"/>
<stop offset="1" stop-color="#FFF1C8" stop-opacity="0.38"/>
</linearGradient>
<linearGradient id="paint64_linear_21_16670" x1="337.42" y1="101.017" x2="352.947" y2="121.972" gradientUnits="userSpaceOnUse">
<stop stop-color="#D2AB68"/>
<stop offset="1" stop-color="#B67D3F"/>
</linearGradient>
<linearGradient id="paint65_linear_21_16670" x1="337.161" y1="100.705" x2="356.044" y2="119.973" gradientUnits="userSpaceOnUse">
<stop stop-color="#FFDA92"/>
<stop offset="1" stop-color="#DCBA84"/>
</linearGradient>
<linearGradient id="paint66_linear_21_16670" x1="381.463" y1="112.166" x2="371.149" y2="142.397" gradientUnits="userSpaceOnUse">
<stop stop-color="#F7E6B3"/>
<stop offset="1" stop-color="#BC8647"/>
</linearGradient>
<linearGradient id="paint67_linear_21_16670" x1="371.775" y1="119.658" x2="384.11" y2="136.305" gradientUnits="userSpaceOnUse">
<stop stop-color="#D2AB68"/>
<stop offset="1" stop-color="#8E573C"/>
</linearGradient>
<linearGradient id="paint68_linear_21_16670" x1="385.432" y1="144.476" x2="395.848" y2="163.416" gradientUnits="userSpaceOnUse">
<stop stop-color="#F7E6B3"/>
<stop offset="1" stop-color="#F7E6B3" stop-opacity="0"/>
</linearGradient>
<linearGradient id="paint69_linear_21_16670" x1="360.856" y1="155.363" x2="379.513" y2="180.541" gradientUnits="userSpaceOnUse">
<stop stop-color="#D2AB68"/>
<stop offset="1" stop-color="#B67D3F"/>
</linearGradient>
<linearGradient id="paint70_linear_21_16670" x1="366.285" y1="150.939" x2="374.652" y2="182.501" gradientUnits="userSpaceOnUse">
<stop stop-color="#E0C087"/>
<stop offset="0.28125" stop-color="#FFE49E"/>
<stop offset="1" stop-color="#753C1D"/>
</linearGradient>
<linearGradient id="paint71_linear_21_16670" x1="388.365" y1="162.636" x2="395.39" y2="169.614" gradientUnits="userSpaceOnUse">
<stop stop-color="#B18253"/>
<stop offset="1" stop-color="#F7E6B3" stop-opacity="0"/>
</linearGradient>
<linearGradient id="paint72_linear_21_16670" x1="361.103" y1="192.674" x2="380.12" y2="218.34" gradientUnits="userSpaceOnUse">
<stop stop-color="#D2AB68"/>
<stop offset="1" stop-color="#B67D3F"/>
</linearGradient>
<linearGradient id="paint73_linear_21_16670" x1="366.713" y1="194.622" x2="374.316" y2="222.558" gradientUnits="userSpaceOnUse">
<stop stop-color="#F7E6B3"/>
<stop offset="1" stop-color="#F7E6B3" stop-opacity="0"/>
</linearGradient>
<linearGradient id="paint74_linear_21_16670" x1="384.924" y1="199.996" x2="391.754" y2="209.215" gradientUnits="userSpaceOnUse">
<stop stop-color="#D2AB68"/>
<stop offset="1" stop-color="#B67D3F"/>
</linearGradient>
<linearGradient id="paint75_linear_21_16670" x1="387.703" y1="198.126" x2="382.043" y2="211.738" gradientUnits="userSpaceOnUse">
<stop stop-color="#FADA81"/>
<stop offset="1" stop-color="#9A5E33"/>
</linearGradient>
<linearGradient id="paint76_linear_21_16670" x1="376.111" y1="234.577" x2="383.277" y2="244.249" gradientUnits="userSpaceOnUse">
<stop stop-color="#FADA81"/>
<stop offset="1" stop-color="#B67D3F"/>
</linearGradient>
<linearGradient id="paint77_linear_21_16670" x1="375.787" y1="238.826" x2="383.893" y2="249.766" gradientUnits="userSpaceOnUse">
<stop stop-color="#D2AB68"/>
<stop offset="1" stop-color="#B67D3F"/>
</linearGradient>
<linearGradient id="paint78_linear_21_16670" x1="358.843" y1="187.288" x2="392.222" y2="153.587" gradientUnits="userSpaceOnUse">
<stop stop-color="#C3C5D1"/>
<stop offset="0.875" stop-color="#F9F9F9"/>
</linearGradient>
<linearGradient id="paint79_linear_21_16670" x1="410.778" y1="147.889" x2="379.106" y2="187.586" gradientUnits="userSpaceOnUse">
<stop stop-color="#F9F9F9"/>
<stop offset="0.378992" stop-color="#F9F9F9"/>
<stop offset="0.480868" stop-color="#DFDFE6"/>
<stop offset="0.729174" stop-color="#B8BAC6"/>
</linearGradient>
<linearGradient id="paint80_linear_21_16670" x1="335.638" y1="217.385" x2="369.006" y2="182.59" gradientUnits="userSpaceOnUse">
<stop stop-color="#C3C5D1"/>
<stop offset="0.875" stop-color="#F9F9F9"/>
</linearGradient>
<linearGradient id="paint81_linear_21_16670" x1="378.181" y1="182.91" x2="361.317" y2="217.514" gradientUnits="userSpaceOnUse">
<stop stop-color="#F4F4F5"/>
<stop offset="0.306027" stop-color="#F4F4F5"/>
<stop offset="0.462087" stop-color="#E8E9EC"/>
<stop offset="0.682292" stop-color="#DFDFE6"/>
<stop offset="1" stop-color="#B8BAC6"/>
</linearGradient>
<linearGradient id="paint82_linear_21_16670" x1="75.9901" y1="187.288" x2="42.6115" y2="153.587" gradientUnits="userSpaceOnUse">
<stop stop-color="#C3C5D1"/>
<stop offset="0.875" stop-color="#F9F9F9"/>
</linearGradient>
<linearGradient id="paint83_linear_21_16670" x1="24.0549" y1="147.889" x2="55.7271" y2="187.586" gradientUnits="userSpaceOnUse">
<stop stop-color="#F9F9F9"/>
<stop offset="0.378992" stop-color="#F9F9F9"/>
<stop offset="0.480868" stop-color="#DFDFE6"/>
<stop offset="0.729174" stop-color="#B8BAC6"/>
</linearGradient>
<linearGradient id="paint84_linear_21_16670" x1="99.1952" y1="217.385" x2="65.8269" y2="182.59" gradientUnits="userSpaceOnUse">
<stop stop-color="#C3C5D1"/>
<stop offset="0.875" stop-color="#F9F9F9"/>
</linearGradient>
<linearGradient id="paint85_linear_21_16670" x1="56.6525" y1="182.91" x2="73.5165" y2="217.514" gradientUnits="userSpaceOnUse">
<stop stop-color="#F4F4F5"/>
<stop offset="0.306027" stop-color="#F4F4F5"/>
<stop offset="0.462087" stop-color="#E8E9EC"/>
<stop offset="0.682292" stop-color="#DFDFE6"/>
<stop offset="1" stop-color="#B8BAC6"/>
</linearGradient>
<linearGradient id="paint86_linear_21_16670" x1="176.997" y1="88.7331" x2="283.719" y2="302.803" gradientUnits="userSpaceOnUse">
<stop stop-color="#D8ECF1"/>
<stop offset="1" stop-color="#82B3BF"/>
</linearGradient>
<linearGradient id="paint87_linear_21_16670" x1="176.033" y1="106.384" x2="268.096" y2="277.914" gradientUnits="userSpaceOnUse">
<stop stop-color="#A1C9D3"/>
<stop offset="1" stop-color="#D0ECF2"/>
</linearGradient>
<linearGradient id="paint88_linear_21_16670" x1="186.148" y1="100.183" x2="285.346" y2="280.367" gradientUnits="userSpaceOnUse">
<stop stop-color="#D0ECF2"/>
<stop offset="1" stop-color="#E6F8FC"/>
</linearGradient>
<radialGradient id="paint89_radial_21_16670" cx="0" cy="0" r="1" gradientUnits="userSpaceOnUse" gradientTransform="translate(228.054 193.873) rotate(90) scale(108.002 93.9255)">
<stop stop-color="#D0EBF2"/>
<stop offset="1" stop-color="#8DD3E2"/>
</radialGradient>
<linearGradient id="paint90_linear_21_16670" x1="228.054" y1="81.5935" x2="228.054" y2="306.141" gradientUnits="userSpaceOnUse">
<stop stop-color="white"/>
<stop offset="1" stop-color="#F2EDED" stop-opacity="0"/>
</linearGradient>
<linearGradient id="paint91_linear_21_16670" x1="112.092" y1="101.91" x2="223.824" y2="297.304" gradientUnits="userSpaceOnUse">
<stop stop-color="white"/>
<stop offset="1" stop-color="#F2EDED" stop-opacity="0"/>
</linearGradient>
<linearGradient id="paint92_linear_21_16670" x1="335.57" y1="101.91" x2="223.839" y2="297.304" gradientUnits="userSpaceOnUse">
<stop stop-color="white"/>
<stop offset="1" stop-color="#F2EDED" stop-opacity="0"/>
</linearGradient>
<linearGradient id="paint93_linear_21_16670" x1="228.054" y1="233.43" x2="227.498" y2="294.378" gradientUnits="userSpaceOnUse">
<stop stop-color="#EEFFFF" stop-opacity="0"/>
<stop offset="1" stop-color="#B5EBFB"/>
</linearGradient>
<linearGradient id="paint94_linear_21_16670" x1="315.438" y1="230.326" x2="145.838" y2="189.257" gradientUnits="userSpaceOnUse">
<stop stop-color="#5EA6B7"/>
<stop offset="1" stop-color="#5F9CAA"/>
</linearGradient>
</defs>
</svg>
