<svg width="454" height="378" viewBox="0 0 454 378" fill="none" xmlns="http://www.w3.org/2000/svg">
<path d="M134.128 323.076V217.502H321.979V322.152C321.979 323.189 321.423 324.145 320.522 324.658L228.289 377.08C227.403 377.584 226.316 377.582 225.432 377.075L135.577 325.576C134.681 325.062 134.128 324.109 134.128 323.076Z" fill="#84B7C4"/>
<path fill-rule="evenodd" clip-rule="evenodd" d="M188.725 217.502V356.037L135.577 325.576C134.681 325.062 134.128 324.109 134.128 323.076V217.502H188.725Z" fill="#6B9BAA"/>
<path fill-rule="evenodd" clip-rule="evenodd" d="M186.875 354.977V217.502H188.725V356.037L186.875 354.977Z" fill="#B0D2DD"/>
<path fill-rule="evenodd" clip-rule="evenodd" d="M267.382 216.585V355.121L320.531 324.659C321.427 324.146 321.979 323.192 321.979 322.159V216.585H267.382Z" fill="#6B9BAA"/>
<path fill-rule="evenodd" clip-rule="evenodd" d="M269.233 354.06V216.585H267.383V355.121L269.233 354.06Z" fill="#B0D2DD"/>
<path d="M76.9068 224.157C77.6886 224.737 82.4541 235.649 84.7391 241.032L86.0894 247.317C81.7324 244.34 72.6023 237.525 70.9381 234.078C69.2739 230.63 69.337 222.407 69.5767 218.726L76.9068 224.157Z" fill="url(#paint0_linear_21_17084)"/>
<path d="M100.409 80.0287C100.37 74.9675 103.976 69.5876 107.386 63.0558C108.427 63.0222 112.602 69.9399 105.512 94.1264L102.225 101.505C101.173 106.261 100.515 100.741 99.3305 96.592C99.5221 86.9206 100.457 86.3553 100.409 80.0287Z" fill="url(#paint1_linear_21_17084)"/>
<path d="M125.701 68.0711C127.327 67.2632 134.24 63.8297 144.614 63.2128L144.614 63.2129C143.639 64.5036 140.836 68.2143 130.835 74.3915C129.29 74.756 121.804 75.2486 118.019 74.2054C117.173 74.7867 118.113 73.5203 118.383 72.714C120.956 69.0842 124.075 68.879 125.701 68.0711Z" fill="url(#paint2_linear_21_17084)"/>
<path fill-rule="evenodd" clip-rule="evenodd" d="M82.5009 150.749C92.8125 106.889 117.09 70.0264 135.737 48.7279L136.552 49.3314C118.186 70.3082 95.8418 108.219 85.671 151.481C75.5103 194.698 78.4823 243.884 112.508 289.118L109.898 291.044C75.1671 244.872 72.1791 194.653 82.5009 150.749Z" fill="url(#paint3_linear_21_17084)"/>
<path d="M125.848 56.1028L122 36.6442L119.441 40.0321C114.284 48.5409 117.343 54.5817 116.213 61.7962C115.308 67.5677 117.391 71.8957 118.504 72.5526L122.403 66.3825L125.848 56.1028Z" fill="url(#paint4_linear_21_17084)"/>
<path fill-rule="evenodd" clip-rule="evenodd" d="M122.067 36.9824C121.071 45.6788 119.998 56.141 120.726 58.8495C121.388 61.3138 120.248 66.921 118.896 71.9321L118.504 72.5526C117.391 71.8957 115.308 67.5677 116.213 61.7962C116.594 59.3611 116.499 57.0598 116.403 54.7521C116.214 50.2227 116.025 45.669 119.441 40.0321L122 36.6442L122.067 36.9824Z" fill="url(#paint5_linear_21_17084)"/>
<path d="M97.2179 165.986C98.3221 163.986 101.865 151.312 103.499 145.225L101.547 145.792C89.9637 156.082 89.1193 164.263 86.6858 170.512C84.2523 176.76 75.4349 186.08 80.2334 184.099C85.0319 182.119 95.8376 168.486 97.2179 165.986Z" fill="url(#paint6_linear_21_17084)"/>
<path fill-rule="evenodd" clip-rule="evenodd" d="M103.269 146.078C99.2147 152.437 93.5224 161.879 91.3202 167.403C89.2596 172.572 84.4628 179.396 80.5701 183.946C80.4549 184.003 80.3426 184.054 80.2334 184.099C77.4478 185.249 79.2506 182.591 81.7293 178.936C83.5206 176.295 85.6649 173.133 86.6858 170.512C87.1256 169.382 87.5135 168.19 87.9223 166.933C89.7753 161.237 92.0571 154.222 101.547 145.792L103.499 145.225C103.426 145.497 103.349 145.782 103.269 146.078Z" fill="url(#paint7_linear_21_17084)"/>
<path d="M88.9028 119.815C87.9538 115.69 84.5351 108.107 82.9443 104.832C80.7533 109.751 81.9769 112.167 80.0731 119.06C78.55 124.574 83.6851 133.898 86.4431 137.871C87.6584 133.571 89.8518 123.94 88.9028 119.815Z" fill="url(#paint8_linear_21_17084)"/>
<path fill-rule="evenodd" clip-rule="evenodd" d="M88.8042 119.401C88.8402 119.543 88.8736 119.681 88.9045 119.815C89.8535 123.94 87.6601 133.571 86.4447 137.87C85.4678 136.463 84.1926 134.385 83.0208 132.042C84.2403 127.189 86.7343 122.555 88.8042 119.401Z" fill="url(#paint9_linear_21_17084)"/>
<path d="M98.4955 79.8704C98.2319 77.2595 95.0947 71.4794 93.5591 68.9156C92.1548 73.9141 88.7307 79.6806 88.3749 88.2239C88.2279 91.756 93.7378 104.108 96.9048 109.893L97.9991 106.426C95.8728 97.8055 98.825 83.134 98.4955 79.8704Z" fill="url(#paint10_linear_21_17084)"/>
<path d="M112.035 104.999C117.369 101.704 120.701 93.3026 121.7 89.5135C112.39 95.4483 109.377 93.7191 101.822 103.722L99.2254 109.85C101.273 109.606 106.701 108.294 112.035 104.999Z" fill="url(#paint11_linear_21_17084)"/>
<path d="M77.9825 172.618C74.7477 162.371 63.0294 155.08 57.5753 153.22C64.0671 171.869 68.2527 167.673 72.2876 173.431C75.5155 178.037 78.3038 180.153 78.8057 180.273L77.9825 172.618Z" fill="url(#paint12_linear_21_17084)"/>
<path d="M74.1318 151.144C73.0226 149.114 63.8083 137.791 59.3398 132.384C61.512 145.316 63.8832 154.622 67.2653 158.889C69.971 162.303 75.5963 173.198 78.0707 178.219C78.3136 177.224 78.8069 174.688 78.8368 172.496C78.8741 169.755 75.5182 153.681 74.1318 151.144Z" fill="url(#paint13_linear_21_17084)"/>
<path d="M97.1693 192.622C91.122 198.206 85.5532 209.009 83.5246 213.713L82.9675 223.868C86.6784 219.74 94.4084 210.605 95.6409 207.09C96.8735 203.574 97.1734 195.98 97.1693 192.622Z" fill="url(#paint14_linear_21_17084)"/>
<path d="M74.2176 188.7C73.7919 186.572 69.6658 181.72 67.656 179.56C66.6023 182.973 64.9772 191.515 66.906 198.38C68.8348 205.244 75.2084 211.493 78.1541 213.759C78.7365 213.1 79.5752 211.34 78.271 209.568C76.6409 207.354 74.7498 191.359 74.2176 188.7Z" fill="url(#paint15_linear_21_17084)"/>
<path fill-rule="evenodd" clip-rule="evenodd" d="M77.7071 213.406C72.5321 203.698 69.1051 188.709 67.5842 179.798C67.6084 179.716 67.6323 179.637 67.656 179.56C69.6658 181.72 73.7919 186.572 74.2176 188.7C74.3507 189.364 74.5686 190.863 74.8462 192.771C75.679 198.495 77.0484 207.908 78.271 209.568C79.5752 211.34 78.7365 213.1 78.1541 213.759C78.0127 213.651 77.8634 213.533 77.7071 213.406Z" fill="url(#paint16_linear_21_17084)"/>
<path d="M73.8457 249.065C75.7656 248.676 83.1633 249.51 86.6222 249.976L87.1084 248.324C85.8326 247.546 82.3201 245.38 78.4764 242.934C74.6327 240.489 67.7355 243.028 64.7673 244.603C66.9935 246.252 71.9258 249.454 73.8457 249.065Z" fill="url(#paint17_linear_21_17084)"/>
<path d="M143.148 28.1563C144.902 25.8331 155.428 22.6612 160.471 21.3657L155.807 33.2588C154.589 34.8721 151.135 38.7044 147.069 41.1271C143.004 43.5498 137.327 48.0832 135.729 50.0865L134.752 49.3624C135.759 41.3019 140.954 31.0603 143.148 28.1563Z" fill="url(#paint18_linear_21_17084)"/>
<path fill-rule="evenodd" clip-rule="evenodd" d="M135.889 49.1998C138.542 43.1931 151.906 29.2767 159.961 21.4982C160.136 21.4521 160.306 21.408 160.47 21.3658L155.806 33.2588C154.587 34.8722 151.134 38.7045 147.068 41.1272C143.002 43.5498 137.366 48.3652 135.769 50.3686L135.889 49.1998Z" fill="url(#paint19_linear_21_17084)"/>
<g filter="url(#filter0_d_21_17084)">
<path d="M128.162 59.5786C128.877 58.9007 135.649 52.5449 147.558 51.0527C146.937 53.4444 143.046 59.4348 140.055 62.8555C137.065 66.2763 125.421 70.0456 119.022 71.6785C122.949 66.3681 127.446 60.2564 128.162 59.5786Z" fill="url(#paint20_linear_21_17084)"/>
<path fill-rule="evenodd" clip-rule="evenodd" d="M147.407 51.5341C147.469 51.361 147.52 51.2 147.558 51.0527C135.649 52.5448 128.877 58.9007 128.162 59.5785C127.505 60.2008 123.661 65.4027 119.997 70.36C119.67 70.8026 119.344 71.2432 119.022 71.6785C119.504 71.5554 120.016 71.4202 120.552 71.274C128.959 66.1446 140.714 56.9974 147.407 51.5341Z" fill="url(#paint21_linear_21_17084)"/>
</g>
<path fill-rule="evenodd" clip-rule="evenodd" d="M107.255 63.3069C107.388 64.4123 107.466 65.7214 107.391 67.084C107.192 70.7109 102.752 100.133 101.372 102.633C101.281 102.797 101.192 102.933 101.104 103.043C100.775 102.462 100.449 101.094 100.08 99.5435C99.851 98.582 99.6053 97.5501 99.3315 96.5914C99.4316 91.5411 99.7344 88.9738 99.994 86.7727C100.232 84.7586 100.433 83.0511 100.41 80.0282C100.821 74.9684 102.808 71.3889 105.304 66.8905C105.928 65.7659 106.584 64.5838 107.255 63.3069Z" fill="url(#paint22_linear_21_17084)"/>
<path fill-rule="evenodd" clip-rule="evenodd" d="M97.2594 108.77C94.7527 103.693 92.8776 96.7379 93.2549 87.814C93.668 78.0443 93.5837 72.5636 93.3315 69.6792C93.4121 69.4225 93.4882 69.1681 93.5591 68.9156C95.0947 71.4794 98.2319 77.2595 98.4955 79.8704C98.6009 80.9147 98.3704 83.1268 98.0777 85.935C97.4557 91.9033 96.5532 100.564 97.9991 106.426L97.2594 108.77Z" fill="url(#paint23_linear_21_17084)"/>
<path fill-rule="evenodd" clip-rule="evenodd" d="M121.635 89.5541C118.607 91.4788 116.246 92.5925 114.177 93.5688C109.919 95.5779 106.894 97.0052 101.822 103.721L99.2252 109.849C99.3196 109.838 99.4211 109.824 99.5295 109.809C107.7 105.079 117.155 94.9766 121.635 89.5541Z" fill="url(#paint24_linear_21_17084)"/>
<g filter="url(#filter1_d_21_17084)">
<path d="M95.5738 115.699C96.3878 115.966 96.3656 115.711 98.7073 116.259C107.221 118.253 118.342 111.253 122.901 104.745L114.56 104.353C101.866 104.207 96.7078 111.506 95.5738 115.699Z" fill="url(#paint25_linear_21_17084)"/>
<path fill-rule="evenodd" clip-rule="evenodd" d="M122.694 105.036C122.764 104.939 122.833 104.842 122.901 104.746L114.56 104.353C101.866 104.207 96.7077 111.506 95.5737 115.699C95.6041 115.709 95.6334 115.718 95.6617 115.727C101.249 111.519 115.236 107.056 122.694 105.036Z" fill="url(#paint26_linear_21_17084)"/>
</g>
<g filter="url(#filter2_d_21_17084)">
<path d="M82.0713 122.806C80.7672 121.034 71.3707 111.522 66.8354 106.987C66.3714 126.773 75.2073 132.566 77.0016 135.908C81.2803 141.343 84.3375 146.041 85.4371 146.939L85.9606 142.546C85.2076 136.704 83.3754 124.577 82.0713 122.806Z" fill="url(#paint27_linear_21_17084)"/>
<path fill-rule="evenodd" clip-rule="evenodd" d="M66.8313 107.295C66.5366 123.03 72.1562 129.823 75.2878 133.607C76.0448 134.522 76.6564 135.262 77.0039 135.909C78.9546 138.387 80.6514 140.711 82.0246 142.593C83.4182 144.502 84.4785 145.954 85.1324 146.647C84.3784 137.054 73.5039 117.839 66.8313 107.295Z" fill="url(#paint28_linear_21_17084)"/>
</g>
<path fill-rule="evenodd" clip-rule="evenodd" d="M78.7238 174.347C74.6017 164.35 65.2539 144.593 59.3953 132.447C63.8832 137.879 73.0295 149.121 74.1342 151.143C75.5207 153.68 78.8766 169.754 78.8392 172.495C78.831 173.099 78.7875 173.73 78.7238 174.347Z" fill="url(#paint29_linear_21_17084)"/>
<g filter="url(#filter3_d_21_17084)">
<path d="M80.2571 168.261C80.8322 159.427 85.4458 152.647 87.6807 150.361L87.9716 155.357C91.9584 168.376 83.9052 179.352 79.3803 183.212C79.4329 181.909 79.6821 177.095 80.2571 168.261Z" fill="url(#paint30_linear_21_17084)"/>
<path fill-rule="evenodd" clip-rule="evenodd" d="M87.6243 150.42C85.2635 155.035 83.0929 163.538 82.6287 178.575C81.4631 180.307 80.4497 181.791 79.5707 183.048C79.5067 183.104 79.4432 183.159 79.3805 183.213C79.4331 181.91 79.6823 177.096 80.2573 168.262C80.8276 159.502 85.3691 152.761 87.6243 150.42Z" fill="url(#paint31_linear_21_17084)"/>
</g>
<path fill-rule="evenodd" clip-rule="evenodd" d="M78.5926 180.176C75.6853 171.466 64.1024 159.334 57.6465 153.414C62.0295 165.928 65.3595 168.029 68.3048 169.887C69.6956 170.765 71.0006 171.588 72.2903 173.429C75.1972 177.577 77.7475 179.705 78.5926 180.176Z" fill="url(#paint32_linear_21_17084)"/>
<path d="M135.728 49.0792C129.904 55.3322 114.627 74.4591 103.035 97.0713C94.7148 113.301 90.92 119.296 82.7575 150.489C80.8271 157.865 77.0773 176.777 77.5208 193.411C76.8691 203.915 78.6418 231.683 90.9457 258.715C94.4542 266.515 103.198 283.797 110.107 290.527" stroke="#FADA81" stroke-width="0.844684"/>
<g filter="url(#filter4_d_21_17084)">
<path d="M81.6316 195.702C83.8223 190.531 83.9938 186.632 84.6707 185.624C88.6297 195.855 89.4963 205.807 89.7835 207.781C90.0133 209.361 84.6028 218.788 81.8688 223.305L78.6323 205.054C79.8857 198.686 79.0352 201.83 81.6316 195.702Z" fill="url(#paint33_linear_21_17084)"/>
<path fill-rule="evenodd" clip-rule="evenodd" d="M85.0787 186.707C84.9465 186.347 84.8105 185.986 84.6707 185.624C84.402 186.024 84.2129 186.88 83.9456 188.09C83.5395 189.928 82.9527 192.584 81.6316 195.702C80.3205 198.797 79.8883 199.527 79.6204 200.311C79.3577 201.08 79.2528 201.902 78.6323 205.054L81.7925 222.875C85.2296 214.916 85.4691 196.8 85.0787 186.707Z" fill="url(#paint34_linear_21_17084)"/>
</g>
<g filter="url(#filter5_d_21_17084)">
<path d="M66.8688 198.098C64.0646 194.007 57.2864 191.837 54.2479 191.263C53.273 192.553 57.8687 202.165 60.2884 206.81C61.2927 207.386 64.1727 209.134 67.6583 211.516C71.1439 213.897 76.4088 214.057 78.6056 213.84C75.8617 210.297 69.673 202.189 66.8688 198.098Z" fill="url(#paint35_linear_21_17084)"/>
<path fill-rule="evenodd" clip-rule="evenodd" d="M77.0828 213.91C77.6766 213.908 78.1947 213.881 78.6056 213.84C75.8618 210.297 69.673 202.189 66.8688 198.098C64.0646 194.007 57.2864 191.837 54.2479 191.263C54.2211 191.298 54.1985 191.34 54.18 191.388C56.5048 195.87 62.9201 203.741 77.0828 213.91Z" fill="url(#paint36_linear_21_17084)"/>
</g>
<g filter="url(#filter6_d_21_17084)">
<path d="M82.0887 236.805C78.2778 234.585 66.8551 233.989 61.6202 233.969C68.4267 243.793 69.5223 241.333 74.8567 245.034C79.1242 247.995 83.9306 245.802 85.8003 244.336C86.151 242.751 85.8996 239.025 82.0887 236.805Z" fill="url(#paint37_linear_21_17084)"/>
<path fill-rule="evenodd" clip-rule="evenodd" d="M85.8758 243.874C75.1506 237.264 66.3545 234.72 61.6739 234.046C66.3695 240.809 68.3355 241.697 70.8827 242.846C72.0015 243.352 73.2324 243.907 74.8561 245.034C75.213 245.281 75.5736 245.493 75.936 245.672C76.8028 245.937 77.6558 246.193 78.4891 246.438C81.5836 246.824 84.4532 245.392 85.7997 244.336C85.8303 244.197 85.8563 244.042 85.8758 243.874Z" fill="url(#paint38_linear_21_17084)"/>
</g>
<path d="M377.092 225.112C376.31 225.691 371.545 236.603 369.26 241.987L367.91 248.272C372.267 245.295 381.397 238.48 383.061 235.032C384.725 231.585 384.662 223.361 384.422 219.681L377.092 225.112Z" fill="url(#paint39_linear_21_17084)"/>
<path d="M353.591 80.983C353.629 75.9218 350.023 70.5419 346.614 64.0101C345.572 63.9766 341.397 70.8942 348.488 95.0806L351.774 102.459C352.826 107.215 353.484 101.695 354.669 97.5462C354.477 87.8748 353.542 87.3095 353.591 80.983Z" fill="url(#paint40_linear_21_17084)"/>
<path d="M328.298 69.0253C326.672 68.2175 319.76 64.784 309.385 64.1671L309.385 64.1671C310.36 65.4579 313.163 69.1685 323.164 75.3457C324.71 75.7103 332.195 76.2028 335.981 75.1596C336.826 75.7409 335.886 74.4745 335.616 73.6682C333.044 70.0385 329.925 69.8332 328.298 69.0253Z" fill="url(#paint41_linear_21_17084)"/>
<path fill-rule="evenodd" clip-rule="evenodd" d="M371.498 151.705C361.187 107.845 336.909 70.982 318.262 49.6835L317.447 50.287C335.813 71.2637 358.157 109.175 368.328 152.436C378.489 195.654 375.517 244.839 341.491 290.074L344.101 292C378.832 245.828 381.82 195.609 371.498 151.705Z" fill="url(#paint42_linear_21_17084)"/>
<path d="M328.151 57.0572L331.999 37.5985L334.558 40.9865C339.715 49.4953 336.656 55.5361 337.787 62.7506C338.691 68.5222 336.608 72.8503 335.495 73.5071L331.597 67.337L328.151 57.0572Z" fill="url(#paint43_linear_21_17084)"/>
<path fill-rule="evenodd" clip-rule="evenodd" d="M331.932 37.937C332.928 46.6334 334.001 57.0954 333.273 59.8038C332.611 62.2682 333.751 67.8755 335.103 72.8867L335.495 73.5071C336.608 72.8503 338.691 68.5222 337.787 62.7506C337.405 60.3156 337.501 58.0142 337.597 55.7065C337.785 51.1771 337.975 46.6234 334.558 40.9865L331.999 37.5985L331.932 37.937Z" fill="url(#paint44_linear_21_17084)"/>
<path d="M356.78 166.94C355.676 164.94 352.133 152.266 350.499 146.18L352.451 146.746C364.034 157.036 364.879 165.217 367.312 171.466C369.746 177.715 378.563 187.034 373.765 185.053C368.966 183.073 358.16 169.44 356.78 166.94Z" fill="url(#paint45_linear_21_17084)"/>
<path fill-rule="evenodd" clip-rule="evenodd" d="M350.73 147.036C354.784 153.394 360.475 162.834 362.676 168.357C364.737 173.526 369.533 180.349 373.426 184.899C373.542 184.957 373.655 185.008 373.765 185.053C376.55 186.203 374.747 183.545 372.269 179.89C370.477 177.249 368.333 174.087 367.312 171.466C366.872 170.336 366.485 169.144 366.076 167.887C364.223 162.191 361.941 155.176 352.451 146.746L350.499 146.18C350.572 146.452 350.649 146.738 350.73 147.036Z" fill="url(#paint46_linear_21_17084)"/>
<path d="M365.095 120.77C366.044 116.645 369.463 109.063 371.054 105.787C373.245 110.706 372.021 113.122 373.925 120.015C375.448 125.53 370.313 134.853 367.555 138.826C366.34 134.526 364.146 124.896 365.095 120.77Z" fill="url(#paint47_linear_21_17084)"/>
<path fill-rule="evenodd" clip-rule="evenodd" d="M365.195 120.357C365.159 120.498 365.126 120.636 365.095 120.77C364.146 124.896 366.339 134.526 367.555 138.826C368.532 137.419 369.807 135.34 370.979 132.997C369.759 128.145 367.265 123.511 365.195 120.357Z" fill="url(#paint48_linear_21_17084)"/>
<path d="M355.503 80.8246C355.766 78.2137 358.903 72.4336 360.439 69.8699C361.843 74.8683 365.267 80.6348 365.623 89.1781C365.77 92.7102 360.26 105.062 357.093 110.847L355.999 107.381C358.125 98.7596 355.173 84.0882 355.503 80.8246Z" fill="url(#paint49_linear_21_17084)"/>
<path d="M341.965 105.953C336.631 102.659 333.3 94.2569 332.301 90.4678C341.611 96.4026 344.624 94.6735 352.179 104.676L354.775 110.804C352.728 110.56 347.299 109.248 341.965 105.953Z" fill="url(#paint50_linear_21_17084)"/>
<path d="M376.015 173.572C379.25 163.325 390.968 156.034 396.423 154.174C389.931 172.823 385.745 168.627 381.71 174.385C378.482 178.991 375.694 181.107 375.192 181.228L376.015 173.572Z" fill="url(#paint51_linear_21_17084)"/>
<path d="M379.867 152.098C380.977 150.068 390.191 138.745 394.659 133.338C392.487 146.27 390.116 155.576 386.734 159.843C384.028 163.257 378.403 174.152 375.928 179.173C375.686 178.178 375.192 175.642 375.162 173.45C375.125 170.709 378.481 154.635 379.867 152.098Z" fill="url(#paint52_linear_21_17084)"/>
<path d="M356.829 193.576C362.876 199.16 368.445 209.963 370.474 214.667L371.031 224.823C367.32 220.694 359.59 211.559 358.357 208.044C357.125 204.529 356.825 196.934 356.829 193.576Z" fill="url(#paint53_linear_21_17084)"/>
<path d="M379.782 189.655C380.207 187.528 384.333 182.676 386.343 180.516C387.397 183.929 389.022 192.471 387.093 199.335C385.164 206.199 378.791 212.448 375.845 214.715C375.263 214.056 374.424 212.295 375.728 210.524C377.358 208.309 379.249 192.314 379.782 189.655Z" fill="url(#paint54_linear_21_17084)"/>
<path fill-rule="evenodd" clip-rule="evenodd" d="M376.293 214.361C381.467 204.653 384.894 189.664 386.415 180.753C386.391 180.672 386.367 180.592 386.343 180.516C384.333 182.676 380.207 187.528 379.782 189.655C379.649 190.32 379.431 191.818 379.153 193.726C378.32 199.45 376.951 208.863 375.728 210.524C374.424 212.295 375.263 214.056 375.845 214.715C375.987 214.606 376.136 214.488 376.293 214.361Z" fill="url(#paint55_linear_21_17084)"/>
<path d="M380.154 250.019C378.234 249.63 370.836 250.464 367.377 250.93L366.891 249.278C368.167 248.5 371.679 246.334 375.523 243.888C379.367 241.443 386.264 243.982 389.232 245.557C387.006 247.206 382.073 250.408 380.154 250.019Z" fill="url(#paint56_linear_21_17084)"/>
<path d="M310.851 29.1107C309.096 26.7875 298.57 23.6156 293.527 22.3201L298.191 34.2132C299.41 35.8265 302.863 39.6588 306.929 42.0815C310.994 44.5042 316.671 49.0376 318.269 51.0409L319.247 50.3168C318.239 42.2562 313.044 32.0147 310.851 29.1107Z" fill="url(#paint57_linear_21_17084)"/>
<path fill-rule="evenodd" clip-rule="evenodd" d="M318.109 50.1541C315.455 44.1475 302.092 30.2311 294.037 22.4525C293.862 22.4065 293.692 22.3623 293.527 22.3201L298.192 34.2132C299.41 35.8265 302.864 39.6588 306.93 42.0815C310.995 44.5042 316.631 49.3196 318.229 51.3229L318.109 50.1541Z" fill="url(#paint58_linear_21_17084)"/>
<g filter="url(#filter7_d_21_17084)">
<path d="M325.838 60.5328C325.122 59.855 318.351 53.4991 306.441 52.007C307.062 54.3986 310.954 60.389 313.944 63.8098C316.934 67.2305 328.578 70.9998 334.977 72.6328C331.051 67.3223 326.553 61.2107 325.838 60.5328Z" fill="url(#paint59_linear_21_17084)"/>
<path fill-rule="evenodd" clip-rule="evenodd" d="M306.592 52.4884C306.53 52.3152 306.479 52.1542 306.441 52.0069C318.351 53.4991 325.122 59.8549 325.838 60.5328C326.494 61.155 330.339 66.3569 334.002 71.3142C334.33 71.7568 334.655 72.1974 334.977 72.6327C334.495 72.5097 333.983 72.3745 333.447 72.2283C325.04 67.0989 313.285 57.9518 306.592 52.4884Z" fill="url(#paint60_linear_21_17084)"/>
</g>
<path fill-rule="evenodd" clip-rule="evenodd" d="M346.746 64.2638C346.613 65.3691 346.536 66.6779 346.61 68.0403C346.809 71.6672 351.249 101.089 352.629 103.589C352.72 103.753 352.809 103.888 352.896 103.998C353.226 103.417 353.551 102.049 353.92 100.498C354.149 99.537 354.395 98.5051 354.669 97.5464C354.569 92.496 354.266 89.9288 354.006 87.7276C353.769 85.7136 353.567 84.006 353.59 80.9832C353.179 75.9234 351.193 72.3438 348.696 67.8454C348.073 66.7214 347.417 65.54 346.746 64.2638Z" fill="url(#paint61_linear_21_17084)"/>
<path fill-rule="evenodd" clip-rule="evenodd" d="M356.738 109.722C359.244 104.645 361.119 97.6909 360.742 88.7683C360.328 78.994 360.413 73.5128 360.665 70.6294C360.585 70.3741 360.51 70.121 360.439 69.8699C358.903 72.4336 355.766 78.2137 355.503 80.8246C355.397 81.8688 355.628 84.081 355.92 86.8891C356.542 92.8574 357.445 101.518 355.999 107.381L356.738 109.722Z" fill="url(#paint62_linear_21_17084)"/>
<path fill-rule="evenodd" clip-rule="evenodd" d="M332.369 90.511C335.397 92.4353 337.757 93.5489 339.826 94.5251C344.084 96.5342 347.109 97.9615 352.181 104.677L354.778 110.805C354.684 110.794 354.584 110.781 354.477 110.765C346.307 106.038 336.85 95.9353 332.369 90.511Z" fill="url(#paint63_linear_21_17084)"/>
<g filter="url(#filter8_d_21_17084)">
<path d="M358.43 116.651C357.616 116.919 357.638 116.663 355.296 117.212C346.783 119.205 335.661 112.205 331.102 105.698L339.443 105.305C352.138 105.159 357.296 112.459 358.43 116.651Z" fill="url(#paint64_linear_21_17084)"/>
<path fill-rule="evenodd" clip-rule="evenodd" d="M331.309 105.987C331.239 105.891 331.17 105.795 331.102 105.698L339.443 105.305C352.138 105.159 357.296 112.459 358.43 116.651C358.4 116.661 358.37 116.671 358.342 116.679C352.757 112.472 338.768 108.007 331.309 105.987Z" fill="url(#paint65_linear_21_17084)"/>
</g>
<g filter="url(#filter9_d_21_17084)">
<path d="M371.929 123.76C373.233 121.988 382.629 112.476 387.165 107.942C387.629 127.728 378.793 133.52 376.999 136.862C372.72 142.297 369.663 146.995 368.563 147.894L368.04 143.501C368.793 137.659 370.625 125.531 371.929 123.76Z" fill="url(#paint66_linear_21_17084)"/>
<path fill-rule="evenodd" clip-rule="evenodd" d="M387.17 108.252C387.463 123.984 381.844 130.775 378.713 134.56C377.956 135.475 377.344 136.214 376.997 136.861C375.046 139.339 373.349 141.664 371.976 143.545C370.583 145.453 369.524 146.905 368.87 147.598C369.626 138.004 380.498 118.794 387.17 108.252Z" fill="url(#paint67_linear_21_17084)"/>
</g>
<path fill-rule="evenodd" clip-rule="evenodd" d="M375.279 175.302C379.401 165.305 388.749 145.549 394.608 133.402C390.12 138.835 380.974 150.077 379.869 152.098C378.482 154.635 375.126 170.71 375.164 173.45C375.172 174.054 375.215 174.685 375.279 175.302Z" fill="url(#paint68_linear_21_17084)"/>
<g filter="url(#filter10_d_21_17084)">
<path d="M373.743 169.215C373.168 160.382 368.555 153.601 366.32 151.315L366.029 156.311C362.042 169.33 370.095 180.306 374.62 184.166C374.568 182.863 374.318 178.049 373.743 169.215Z" fill="url(#paint69_linear_21_17084)"/>
<path fill-rule="evenodd" clip-rule="evenodd" d="M366.376 151.374C368.736 155.989 370.907 164.493 371.371 179.529C372.537 181.261 373.55 182.745 374.429 184.003C374.493 184.059 374.556 184.113 374.619 184.167C374.566 182.864 374.317 178.049 373.742 169.216C373.172 160.457 368.631 153.716 366.376 151.374Z" fill="url(#paint70_linear_21_17084)"/>
</g>
<path fill-rule="evenodd" clip-rule="evenodd" d="M375.408 181.131C378.316 172.421 389.898 160.289 396.354 154.369C391.971 166.883 388.641 168.984 385.696 170.842C384.305 171.72 383 172.543 381.71 174.384C378.804 178.531 376.254 180.66 375.408 181.131Z" fill="url(#paint71_linear_21_17084)"/>
<path d="M318.271 50.0337C324.095 56.2866 339.372 75.4136 350.964 98.0258C359.284 114.256 363.079 120.251 371.242 151.443C373.172 158.82 376.922 177.731 376.478 194.365C377.13 204.87 375.358 232.637 363.054 259.67C359.545 267.47 350.801 284.752 343.892 291.481" stroke="#FADA81" stroke-width="0.844684"/>
<g filter="url(#filter11_d_21_17084)">
<path d="M372.368 196.657C370.178 191.486 370.006 187.587 369.329 186.579C365.37 196.81 364.504 206.762 364.216 208.736C363.987 210.315 369.397 219.743 372.131 224.26L375.368 206.009C374.114 199.641 374.965 202.785 372.368 196.657Z" fill="url(#paint72_linear_21_17084)"/>
<path fill-rule="evenodd" clip-rule="evenodd" d="M368.92 187.664C369.053 187.303 369.189 186.941 369.329 186.579C369.598 186.979 369.787 187.835 370.054 189.045C370.46 190.883 371.047 193.538 372.368 196.657C373.679 199.751 374.112 200.481 374.38 201.266C374.642 202.035 374.747 202.857 375.368 206.009L372.207 223.83C368.77 215.873 368.53 197.759 368.92 187.664Z" fill="url(#paint73_linear_21_17084)"/>
</g>
<g filter="url(#filter12_d_21_17084)">
<path d="M387.132 199.052C389.936 194.961 396.715 192.791 399.753 192.217C400.728 193.507 396.132 203.119 393.713 207.764C392.708 208.34 389.828 210.089 386.343 212.47C382.857 214.851 377.592 215.012 375.395 214.794C378.139 211.251 384.328 203.143 387.132 199.052Z" fill="url(#paint74_linear_21_17084)"/>
<path fill-rule="evenodd" clip-rule="evenodd" d="M376.918 214.864C376.324 214.862 375.806 214.835 375.395 214.794C378.139 211.251 384.328 203.143 387.132 199.052C389.936 194.961 396.715 192.791 399.753 192.217C399.78 192.252 399.802 192.294 399.821 192.342C397.496 196.824 391.081 204.695 376.918 214.864Z" fill="url(#paint75_linear_21_17084)"/>
</g>
<g filter="url(#filter13_d_21_17084)">
<path d="M371.909 237.759C375.72 235.539 387.143 234.943 392.378 234.923C385.571 244.747 384.476 242.288 379.141 245.988C374.874 248.949 370.067 246.757 368.198 245.29C367.847 243.705 368.098 239.979 371.909 237.759Z" fill="url(#paint76_linear_21_17084)"/>
<path fill-rule="evenodd" clip-rule="evenodd" d="M368.123 244.828C378.848 238.219 387.644 235.674 392.325 235.001C387.629 241.763 385.663 242.651 383.116 243.801C381.997 244.306 380.766 244.862 379.142 245.988C378.786 246.236 378.425 246.447 378.063 246.626C377.196 246.891 376.343 247.147 375.509 247.392C372.415 247.779 369.545 246.346 368.199 245.29C368.168 245.152 368.142 244.997 368.123 244.828Z" fill="url(#paint77_linear_21_17084)"/>
</g>
<g filter="url(#filter14_d_21_17084)">
<path d="M322.378 187.288L322.378 147.889L416.303 147.889C416.303 172.513 398.727 187.288 384.446 187.288L322.378 187.288Z" fill="url(#paint78_linear_21_17084)"/>
<path d="M322.378 187.288L322.378 147.889L416.303 147.889C416.303 172.513 398.727 187.288 384.446 187.288L322.378 187.288Z" stroke="url(#paint79_linear_21_17084)" stroke-width="2.29412"/>
<path d="M289.228 222.31L289.228 182.911L383.153 182.911C383.153 207.535 365.577 222.31 351.296 222.31L289.228 222.31Z" fill="url(#paint80_linear_21_17084)"/>
<path d="M289.228 222.31L289.228 182.911L383.153 182.911C383.153 207.535 365.577 222.31 351.296 222.31L289.228 222.31Z" stroke="url(#paint81_linear_21_17084)" stroke-width="2.29412"/>
<path d="M112.455 187.288L112.455 147.889L18.5299 147.889C18.5299 172.513 36.1065 187.288 50.3876 187.288L112.455 187.288Z" fill="url(#paint82_linear_21_17084)"/>
<path d="M112.455 187.288L112.455 147.889L18.5299 147.889C18.5299 172.513 36.1065 187.288 50.3876 187.288L112.455 187.288Z" stroke="url(#paint83_linear_21_17084)" stroke-width="2.29412"/>
<path d="M145.605 222.31L145.605 182.911L51.68 182.911C51.68 207.535 69.2567 222.31 83.5378 222.31L145.605 222.31Z" fill="url(#paint84_linear_21_17084)"/>
<path d="M145.605 222.31L145.605 182.911L51.68 182.911C51.68 207.535 69.2567 222.31 83.5378 222.31L145.605 222.31Z" stroke="url(#paint85_linear_21_17084)" stroke-width="2.29412"/>
<path d="M219.509 59.6834L116.091 115.403C110.587 118.369 107.155 124.117 107.155 130.369L107.155 257.486C107.155 263.738 110.587 269.486 116.091 272.452L219.509 328.171C224.542 330.883 230.602 330.883 235.635 328.171L339.053 272.452C344.557 269.486 347.989 263.738 347.989 257.486L347.989 130.369C347.989 124.117 344.557 118.369 339.053 115.403L235.635 59.6834C230.602 56.9714 224.542 56.9714 219.509 59.6834Z" fill="url(#paint86_linear_21_17084)"/>
<path d="M219.395 80.6577L134.361 126.472C128.877 129.427 125.458 135.153 125.458 141.382L125.458 245.991C125.458 252.22 128.877 257.946 134.361 260.9L219.395 306.715C224.409 309.417 230.446 309.417 235.461 306.715L320.494 260.9C325.978 257.946 329.397 252.22 329.397 245.991L329.397 141.382C329.397 135.153 325.978 129.427 320.494 126.472L235.461 80.6577C230.446 77.9559 224.409 77.9559 219.395 80.6577Z" fill="url(#paint87_linear_21_17084)"/>
<g filter="url(#filter15_f_21_17084)">
<path d="M219.395 80.6577L134.361 126.472C128.877 129.427 125.458 135.153 125.458 141.382L125.458 245.991C125.458 252.22 128.877 257.946 134.361 260.9L219.395 306.715C224.409 309.417 230.446 309.417 235.461 306.715L320.494 260.9C325.978 257.946 329.397 252.22 329.397 245.991L329.397 141.382C329.397 135.153 325.978 129.427 320.494 126.472L235.461 80.6577C230.446 77.9559 224.409 77.9559 219.395 80.6577Z" stroke="url(#paint88_linear_21_17084)"/>
</g>
<g opacity="0.5">
<mask id="mask0_21_17084" style="mask-type:alpha" maskUnits="userSpaceOnUse" x="134" y="88" width="188" height="212">
<path d="M220.418 89.9813L142.602 131.869C137.383 134.679 134.128 140.127 134.128 146.055L134.128 241.691C134.128 247.618 137.383 253.066 142.602 255.876L220.418 297.764C225.185 300.33 230.922 300.33 235.69 297.764L313.505 255.876C318.724 253.066 321.979 247.618 321.979 241.691L321.979 146.055C321.979 140.127 318.724 134.679 313.505 131.869L235.69 89.9813C230.922 87.4151 225.185 87.4151 220.418 89.9813Z" fill="#A6D3DE"/>
</mask>
<g mask="url(#mask0_21_17084)">
<path d="M220.418 89.9813L142.602 131.869C137.383 134.679 134.128 140.127 134.128 146.055L134.128 241.691C134.128 247.618 137.383 253.066 142.602 255.876L220.418 297.764C225.185 300.33 230.922 300.33 235.69 297.764L313.505 255.876C318.724 253.066 321.979 247.618 321.979 241.691L321.979 146.055C321.979 140.127 318.724 134.679 313.505 131.869L235.69 89.9813C230.922 87.4151 225.185 87.4151 220.418 89.9813Z" fill="url(#paint89_radial_21_17084)"/>
<path opacity="0.5" d="M212.352 306.141L208.621 81.5938H247.487L243.756 306.141H212.352Z" fill="url(#paint90_linear_21_17084)"/>
<path opacity="0.5" d="M211.852 304.149L95.2629 111.533L128.922 92.2864L239.049 288.598L211.852 304.149Z" fill="url(#paint91_linear_21_17084)"/>
<path opacity="0.5" d="M208.614 288.598L318.741 92.2864L352.399 111.533L235.81 304.149L208.614 288.598Z" fill="url(#paint92_linear_21_17084)"/>
<rect x="134.129" y="181.036" width="187.851" height="120.828" fill="url(#paint93_linear_21_17084)"/>
<g filter="url(#filter16_i_21_17084)">
<path d="M220.418 89.9813L142.602 131.869C137.383 134.679 134.128 140.127 134.128 146.055L134.128 241.691C134.128 247.618 137.383 253.066 142.602 255.876L220.418 297.764C225.185 300.33 230.922 300.33 235.69 297.764L313.505 255.876C318.724 253.066 321.979 247.618 321.979 241.691L321.979 146.055C321.979 140.127 318.724 134.679 313.505 131.869L235.69 89.9813C230.922 87.4151 225.185 87.4151 220.418 89.9813Z" fill="#AFF5F1" fill-opacity="0.03"/>
</g>
</g>
</g>
<g filter="url(#filter17_i_21_17084)">
<path d="M184.782 173.013C184.782 174.733 184.309 176.281 183.363 177.657C182.446 179.033 181.099 180.137 179.321 180.968C177.544 181.799 175.408 182.244 172.914 182.301V185.741H170.248V182.215C166.923 181.9 164.228 180.896 162.164 179.205C160.1 177.514 158.968 175.192 158.767 172.239H168.915C169.001 173.414 169.446 174.217 170.248 174.647V170.433C167.754 169.745 165.776 169.114 164.314 168.541C162.881 167.968 161.577 167.022 160.401 165.703C159.255 164.384 158.681 162.593 158.681 160.328C158.681 158.465 159.197 156.859 160.229 155.512C161.261 154.136 162.652 153.075 164.4 152.33C166.149 151.585 168.098 151.169 170.248 151.083V147.6H172.914V151.083C176.326 151.312 179.02 152.273 180.998 153.964C182.976 155.627 184.066 157.934 184.266 160.887H173.989C173.875 159.798 173.516 159.067 172.914 158.694V162.865C173.918 163.152 174.391 163.295 174.333 163.295C176.483 163.954 178.246 164.614 179.622 165.273C181.027 165.904 182.231 166.85 183.234 168.111C184.266 169.372 184.782 171.006 184.782 173.013ZM168.915 159.898C168.915 160.643 169.36 161.274 170.248 161.79V158.35C169.36 158.522 168.915 159.038 168.915 159.898ZM172.914 175.034C174.032 174.805 174.591 174.203 174.591 173.228C174.591 172.483 174.032 171.852 172.914 171.336V175.034ZM210.67 158.952H198.2V162.564C198.745 162.077 199.447 161.69 200.307 161.403C201.196 161.116 202.185 160.973 203.274 160.973C205.223 160.973 206.872 161.432 208.219 162.349C209.566 163.266 210.57 164.499 211.229 166.047C211.888 167.566 212.218 169.258 212.218 171.121C212.218 174.561 211.243 177.241 209.294 179.162C207.373 181.054 204.722 182 201.339 182C198.874 182 196.738 181.57 194.932 180.71C193.155 179.85 191.793 178.66 190.847 177.141C189.93 175.622 189.5 173.887 189.557 171.938H198.845C198.845 172.397 199.003 172.827 199.318 173.228C199.633 173.629 200.149 173.83 200.866 173.83C201.583 173.83 202.113 173.572 202.457 173.056C202.801 172.54 202.973 171.838 202.973 170.949C202.973 170.118 202.772 169.487 202.371 169.057C201.998 168.627 201.454 168.412 200.737 168.412C200.135 168.412 199.676 168.555 199.361 168.842C199.046 169.129 198.888 169.458 198.888 169.831H189.6V150.567H210.67V158.952ZM214.891 165.832C214.891 160.873 215.937 156.974 218.03 154.136C220.151 151.298 223.405 149.879 227.791 149.879C232.148 149.879 235.387 151.312 237.509 154.179C239.63 157.017 240.691 160.901 240.691 165.832C240.691 170.791 239.63 174.704 237.509 177.571C235.387 180.409 232.148 181.828 227.791 181.828C223.405 181.828 220.151 180.409 218.03 177.571C215.937 174.704 214.891 170.791 214.891 165.832ZM231.274 165.832C231.274 163.539 231.044 161.819 230.586 160.672C230.127 159.497 229.195 158.909 227.791 158.909C226.357 158.909 225.411 159.497 224.953 160.672C224.494 161.819 224.265 163.539 224.265 165.832C224.265 168.154 224.494 169.903 224.953 171.078C225.411 172.225 226.357 172.798 227.791 172.798C229.195 172.798 230.127 172.225 230.586 171.078C231.044 169.903 231.274 168.154 231.274 165.832ZM242.931 165.832C242.931 160.873 243.978 156.974 246.07 154.136C248.192 151.298 251.445 149.879 255.831 149.879C260.189 149.879 263.428 151.312 265.549 154.179C267.671 157.017 268.731 160.901 268.731 165.832C268.731 170.791 267.671 174.704 265.549 177.571C263.428 180.409 260.189 181.828 255.831 181.828C251.445 181.828 248.192 180.409 246.07 177.571C243.978 174.704 242.931 170.791 242.931 165.832ZM259.314 165.832C259.314 163.539 259.085 161.819 258.626 160.672C258.168 159.497 257.236 158.909 255.831 158.909C254.398 158.909 253.452 159.497 252.993 160.672C252.535 161.819 252.305 163.539 252.305 165.832C252.305 168.154 252.535 169.903 252.993 171.078C253.452 172.225 254.398 172.798 255.831 172.798C257.236 172.798 258.168 172.225 258.626 171.078C259.085 169.903 259.314 168.154 259.314 165.832ZM270.972 165.832C270.972 160.873 272.018 156.974 274.111 154.136C276.232 151.298 279.486 149.879 283.872 149.879C288.229 149.879 291.469 151.312 293.59 154.179C295.711 157.017 296.772 160.901 296.772 165.832C296.772 170.791 295.711 174.704 293.59 177.571C291.469 180.409 288.229 181.828 283.872 181.828C279.486 181.828 276.232 180.409 274.111 177.571C272.018 174.704 270.972 170.791 270.972 165.832ZM287.355 165.832C287.355 163.539 287.126 161.819 286.667 160.672C286.208 159.497 285.277 158.909 283.872 158.909C282.439 158.909 281.493 159.497 281.034 160.672C280.575 161.819 280.346 163.539 280.346 165.832C280.346 168.154 280.575 169.903 281.034 171.078C281.493 172.225 282.439 172.798 283.872 172.798C285.277 172.798 286.208 172.225 286.667 171.078C287.126 169.903 287.355 168.154 287.355 165.832ZM172.868 202.836C174.063 203.116 174.987 203.695 175.64 204.572C176.312 205.431 176.648 206.429 176.648 207.568C176.648 209.304 176.069 210.648 174.912 211.6C173.773 212.533 172.131 213 169.984 213H159.596V193.176H169.704C171.72 193.176 173.307 193.615 174.464 194.492C175.621 195.369 176.2 196.648 176.2 198.328C176.2 199.485 175.892 200.465 175.276 201.268C174.679 202.052 173.876 202.575 172.868 202.836ZM165.812 200.904H168.22C168.78 200.904 169.191 200.792 169.452 200.568C169.732 200.344 169.872 199.999 169.872 199.532C169.872 199.047 169.732 198.692 169.452 198.468C169.191 198.225 168.78 198.104 168.22 198.104H165.812V200.904ZM168.64 208.016C169.2 208.016 169.611 207.913 169.872 207.708C170.152 207.484 170.292 207.129 170.292 206.644C170.292 205.692 169.741 205.216 168.64 205.216H165.812V208.016H168.64ZM193.745 204.964C193.745 205.393 193.717 205.804 193.661 206.196H183.665C183.758 207.559 184.327 208.24 185.373 208.24C186.045 208.24 186.53 207.932 186.829 207.316H193.409C193.185 208.436 192.709 209.444 191.981 210.34C191.271 211.217 190.366 211.917 189.265 212.44C188.182 212.944 186.987 213.196 185.681 213.196C184.113 213.196 182.713 212.869 181.481 212.216C180.267 211.563 179.315 210.629 178.625 209.416C177.953 208.184 177.617 206.747 177.617 205.104C177.617 203.461 177.953 202.033 178.625 200.82C179.315 199.588 180.267 198.645 181.481 197.992C182.713 197.339 184.113 197.012 185.681 197.012C187.249 197.012 188.639 197.339 189.853 197.992C191.085 198.627 192.037 199.541 192.709 200.736C193.399 201.931 193.745 203.34 193.745 204.964ZM187.445 203.48C187.445 202.957 187.277 202.565 186.941 202.304C186.605 202.024 186.185 201.884 185.681 201.884C184.579 201.884 183.935 202.416 183.749 203.48H187.445ZM202.459 213.196C200.965 213.196 199.64 212.953 198.483 212.468C197.344 211.983 196.439 211.311 195.767 210.452C195.095 209.593 194.712 208.623 194.619 207.54H200.583C200.657 208.007 200.853 208.352 201.171 208.576C201.507 208.8 201.927 208.912 202.431 208.912C202.748 208.912 203 208.847 203.187 208.716C203.373 208.567 203.467 208.389 203.467 208.184C203.467 207.829 203.271 207.577 202.879 207.428C202.487 207.279 201.824 207.111 200.891 206.924C199.752 206.7 198.809 206.457 198.063 206.196C197.335 205.935 196.691 205.487 196.131 204.852C195.589 204.217 195.319 203.34 195.319 202.22C195.319 201.249 195.571 200.372 196.075 199.588C196.597 198.785 197.363 198.16 198.371 197.712C199.379 197.245 200.601 197.012 202.039 197.012C204.167 197.012 205.828 197.535 207.023 198.58C208.236 199.625 208.964 200.988 209.207 202.668H203.691C203.597 202.239 203.401 201.912 203.103 201.688C202.804 201.445 202.403 201.324 201.899 201.324C201.581 201.324 201.339 201.389 201.171 201.52C201.003 201.632 200.919 201.809 200.919 202.052C200.919 202.369 201.115 202.612 201.507 202.78C201.899 202.929 202.524 203.088 203.383 203.256C204.521 203.48 205.483 203.732 206.267 204.012C207.051 204.292 207.732 204.777 208.311 205.468C208.889 206.14 209.179 207.073 209.179 208.268C209.179 209.201 208.908 210.041 208.367 210.788C207.825 211.535 207.041 212.123 206.015 212.552C205.007 212.981 203.821 213.196 202.459 213.196ZM221.193 207.708V213H218.841C214.511 213 212.345 210.844 212.345 206.532V202.388H210.385V197.208H212.345V193.4H218.561V197.208H221.137V202.388H218.561V206.644C218.561 207.017 218.645 207.288 218.813 207.456C219 207.624 219.299 207.708 219.709 207.708H221.193ZM243.971 199.98C243.971 201.231 243.681 202.369 243.103 203.396C242.524 204.404 241.665 205.207 240.527 205.804C239.407 206.401 238.044 206.7 236.439 206.7H233.975V213H227.759V193.176H236.439C238.865 193.176 240.723 193.792 242.011 195.024C243.317 196.256 243.971 197.908 243.971 199.98ZM235.739 201.8C237.027 201.8 237.671 201.193 237.671 199.98C237.671 198.767 237.027 198.16 235.739 198.16H233.975V201.8H235.739ZM251.878 200.12C252.513 199.205 253.287 198.477 254.202 197.936C255.117 197.376 256.069 197.096 257.058 197.096V203.732H255.294C254.118 203.732 253.25 203.937 252.69 204.348C252.149 204.759 251.878 205.487 251.878 206.532V213H245.662V197.208H251.878V200.12ZM261.588 195.948C260.506 195.948 259.638 195.659 258.984 195.08C258.331 194.501 258.004 193.773 258.004 192.896C258.004 192 258.331 191.263 258.984 190.684C259.638 190.087 260.506 189.788 261.588 189.788C262.652 189.788 263.511 190.087 264.164 190.684C264.818 191.263 265.144 192 265.144 192.896C265.144 193.773 264.818 194.501 264.164 195.08C263.511 195.659 262.652 195.948 261.588 195.948ZM264.668 197.208V213H258.452V197.208H264.668ZM273.16 207.848H279.74V213H266.356V208.128L272.376 202.36H266.44V197.208H279.46V202.08L273.16 207.848ZM296.696 204.964C296.696 205.393 296.668 205.804 296.612 206.196H286.616C286.709 207.559 287.279 208.24 288.324 208.24C288.996 208.24 289.481 207.932 289.78 207.316H296.36C296.136 208.436 295.66 209.444 294.932 210.34C294.223 211.217 293.317 211.917 292.216 212.44C291.133 212.944 289.939 213.196 288.632 213.196C287.064 213.196 285.664 212.869 284.432 212.216C283.219 211.563 282.267 210.629 281.576 209.416C280.904 208.184 280.568 206.747 280.568 205.104C280.568 203.461 280.904 202.033 281.576 200.82C282.267 199.588 283.219 198.645 284.432 197.992C285.664 197.339 287.064 197.012 288.632 197.012C290.2 197.012 291.591 197.339 292.804 197.992C294.036 198.627 294.988 199.541 295.66 200.736C296.351 201.931 296.696 203.34 296.696 204.964ZM290.396 203.48C290.396 202.957 290.228 202.565 289.892 202.304C289.556 202.024 289.136 201.884 288.632 201.884C287.531 201.884 286.887 202.416 286.7 203.48H290.396ZM153.536 234.646H148.344L147.574 237H142.448L148.146 221.424H153.778L159.454 237H154.306L153.536 234.646ZM152.348 230.972L150.94 226.638L149.532 230.972H152.348ZM159.684 230.796C159.684 229.505 159.948 228.383 160.476 227.43C161.018 226.462 161.766 225.721 162.72 225.208C163.688 224.695 164.788 224.438 166.02 224.438C167.633 224.438 168.99 224.893 170.09 225.802C171.204 226.711 171.908 227.973 172.202 229.586H167.032C166.841 228.941 166.467 228.618 165.91 228.618C165.514 228.618 165.198 228.801 164.964 229.168C164.744 229.535 164.634 230.077 164.634 230.796C164.634 231.515 164.744 232.057 164.964 232.424C165.198 232.791 165.514 232.974 165.91 232.974C166.467 232.974 166.841 232.651 167.032 232.006H172.202C171.908 233.619 171.204 234.881 170.09 235.79C168.99 236.699 167.633 237.154 166.02 237.154C164.788 237.154 163.688 236.897 162.72 236.384C161.766 235.871 161.018 235.137 160.476 234.184C159.948 233.216 159.684 232.087 159.684 230.796ZM172.87 230.796C172.87 229.505 173.134 228.383 173.662 227.43C174.205 226.462 174.953 225.721 175.906 225.208C176.874 224.695 177.974 224.438 179.206 224.438C180.819 224.438 182.176 224.893 183.276 225.802C184.391 226.711 185.095 227.973 185.388 229.586H180.218C180.027 228.941 179.653 228.618 179.096 228.618C178.7 228.618 178.385 228.801 178.15 229.168C177.93 229.535 177.82 230.077 177.82 230.796C177.82 231.515 177.93 232.057 178.15 232.424C178.385 232.791 178.7 232.974 179.096 232.974C179.653 232.974 180.027 232.651 180.218 232.006H185.388C185.095 233.619 184.391 234.881 183.276 235.79C182.176 236.699 180.819 237.154 179.206 237.154C177.974 237.154 176.874 236.897 175.906 236.384C174.953 235.871 174.205 235.137 173.662 234.184C173.134 233.216 172.87 232.087 172.87 230.796ZM198.728 230.686C198.728 231.023 198.706 231.346 198.662 231.654H190.808C190.882 232.725 191.329 233.26 192.15 233.26C192.678 233.26 193.06 233.018 193.294 232.534H198.464C198.288 233.414 197.914 234.206 197.342 234.91C196.785 235.599 196.074 236.149 195.208 236.56C194.358 236.956 193.419 237.154 192.392 237.154C191.16 237.154 190.06 236.897 189.092 236.384C188.139 235.871 187.391 235.137 186.848 234.184C186.32 233.216 186.056 232.087 186.056 230.796C186.056 229.505 186.32 228.383 186.848 227.43C187.391 226.462 188.139 225.721 189.092 225.208C190.06 224.695 191.16 224.438 192.392 224.438C193.624 224.438 194.717 224.695 195.67 225.208C196.638 225.707 197.386 226.425 197.914 227.364C198.457 228.303 198.728 229.41 198.728 230.686ZM193.778 229.52C193.778 229.109 193.646 228.801 193.382 228.596C193.118 228.376 192.788 228.266 192.392 228.266C191.527 228.266 191.021 228.684 190.874 229.52H193.778ZM205.575 237.154C204.402 237.154 203.36 236.963 202.451 236.582C201.556 236.201 200.845 235.673 200.317 234.998C199.789 234.323 199.488 233.561 199.415 232.71H204.101C204.16 233.077 204.314 233.348 204.563 233.524C204.827 233.7 205.157 233.788 205.553 233.788C205.802 233.788 206 233.737 206.147 233.634C206.294 233.517 206.367 233.377 206.367 233.216C206.367 232.937 206.213 232.739 205.905 232.622C205.597 232.505 205.076 232.373 204.343 232.226C203.448 232.05 202.708 231.859 202.121 231.654C201.549 231.449 201.043 231.097 200.603 230.598C200.178 230.099 199.965 229.41 199.965 228.53C199.965 227.767 200.163 227.078 200.559 226.462C200.97 225.831 201.571 225.34 202.363 224.988C203.155 224.621 204.116 224.438 205.245 224.438C206.917 224.438 208.222 224.849 209.161 225.67C210.114 226.491 210.686 227.562 210.877 228.882H206.543C206.47 228.545 206.316 228.288 206.081 228.112C205.846 227.921 205.531 227.826 205.135 227.826C204.886 227.826 204.695 227.877 204.563 227.98C204.431 228.068 204.365 228.207 204.365 228.398C204.365 228.647 204.519 228.838 204.827 228.97C205.135 229.087 205.626 229.212 206.301 229.344C207.196 229.52 207.951 229.718 208.567 229.938C209.183 230.158 209.718 230.539 210.173 231.082C210.628 231.61 210.855 232.343 210.855 233.282C210.855 234.015 210.642 234.675 210.217 235.262C209.792 235.849 209.176 236.311 208.369 236.648C207.577 236.985 206.646 237.154 205.575 237.154ZM218.095 237.154C216.922 237.154 215.88 236.963 214.971 236.582C214.076 236.201 213.365 235.673 212.837 234.998C212.309 234.323 212.008 233.561 211.935 232.71H216.621C216.68 233.077 216.834 233.348 217.083 233.524C217.347 233.7 217.677 233.788 218.073 233.788C218.322 233.788 218.52 233.737 218.667 233.634C218.814 233.517 218.887 233.377 218.887 233.216C218.887 232.937 218.733 232.739 218.425 232.622C218.117 232.505 217.596 232.373 216.863 232.226C215.968 232.05 215.228 231.859 214.641 231.654C214.069 231.449 213.563 231.097 213.123 230.598C212.698 230.099 212.485 229.41 212.485 228.53C212.485 227.767 212.683 227.078 213.079 226.462C213.49 225.831 214.091 225.34 214.883 224.988C215.675 224.621 216.636 224.438 217.765 224.438C219.437 224.438 220.742 224.849 221.681 225.67C222.634 226.491 223.206 227.562 223.397 228.882H219.063C218.99 228.545 218.836 228.288 218.601 228.112C218.366 227.921 218.051 227.826 217.655 227.826C217.406 227.826 217.215 227.877 217.083 227.98C216.951 228.068 216.885 228.207 216.885 228.398C216.885 228.647 217.039 228.838 217.347 228.97C217.655 229.087 218.146 229.212 218.821 229.344C219.716 229.52 220.471 229.718 221.087 229.938C221.703 230.158 222.238 230.539 222.693 231.082C223.148 231.61 223.375 232.343 223.375 233.282C223.375 234.015 223.162 234.675 222.737 235.262C222.312 235.849 221.696 236.311 220.889 236.648C220.097 236.985 219.166 237.154 218.095 237.154ZM228.172 229.19C228.172 227.65 228.48 226.279 229.096 225.076C229.726 223.873 230.621 222.942 231.78 222.282C232.938 221.607 234.302 221.27 235.872 221.27C237.221 221.27 238.424 221.527 239.48 222.04C240.55 222.539 241.416 223.25 242.076 224.174C242.75 225.098 243.198 226.176 243.418 227.408H238.27C238.035 226.895 237.698 226.499 237.258 226.22C236.832 225.927 236.341 225.78 235.784 225.78C234.962 225.78 234.31 226.088 233.826 226.704C233.356 227.32 233.122 228.149 233.122 229.19C233.122 230.231 233.356 231.06 233.826 231.676C234.31 232.292 234.962 232.6 235.784 232.6C236.341 232.6 236.832 232.461 237.258 232.182C237.698 231.889 238.035 231.485 238.27 230.972H243.418C243.198 232.204 242.75 233.282 242.076 234.206C241.416 235.13 240.55 235.849 239.48 236.362C238.424 236.861 237.221 237.11 235.872 237.11C234.302 237.11 232.938 236.78 231.78 236.12C230.621 235.445 229.726 234.507 229.096 233.304C228.48 232.101 228.172 230.73 228.172 229.19ZM250.852 237.154C249.605 237.154 248.483 236.897 247.486 236.384C246.489 235.871 245.704 235.137 245.132 234.184C244.575 233.216 244.296 232.087 244.296 230.796C244.296 229.505 244.575 228.383 245.132 227.43C245.704 226.462 246.489 225.721 247.486 225.208C248.483 224.695 249.605 224.438 250.852 224.438C252.099 224.438 253.221 224.695 254.218 225.208C255.215 225.721 255.993 226.462 256.55 227.43C257.122 228.383 257.408 229.505 257.408 230.796C257.408 232.087 257.122 233.216 256.55 234.184C255.993 235.137 255.215 235.871 254.218 236.384C253.221 236.897 252.099 237.154 250.852 237.154ZM250.852 232.93C251.307 232.93 251.688 232.754 251.996 232.402C252.304 232.035 252.458 231.5 252.458 230.796C252.458 230.092 252.304 229.564 251.996 229.212C251.688 228.845 251.307 228.662 250.852 228.662C250.397 228.662 250.016 228.845 249.708 229.212C249.4 229.564 249.246 230.092 249.246 230.796C249.246 231.5 249.393 232.035 249.686 232.402C249.994 232.754 250.383 232.93 250.852 232.93ZM267.412 224.504C268.835 224.504 269.942 224.981 270.734 225.934C271.541 226.887 271.944 228.178 271.944 229.806V237H267.082V230.422C267.082 229.835 266.921 229.373 266.598 229.036C266.29 228.684 265.872 228.508 265.344 228.508C264.802 228.508 264.376 228.684 264.068 229.036C263.76 229.373 263.606 229.835 263.606 230.422V237H258.722V224.592H263.606V226.484C263.988 225.897 264.494 225.421 265.124 225.054C265.77 224.687 266.532 224.504 267.412 224.504ZM281.564 232.842V237H279.716C276.314 237 274.612 235.306 274.612 231.918V228.662H273.072V224.592H274.612V221.6H279.496V224.592H281.52V228.662H279.496V232.006C279.496 232.299 279.562 232.512 279.694 232.644C279.841 232.776 280.076 232.842 280.398 232.842H281.564ZM288.088 226.88C288.587 226.161 289.196 225.589 289.914 225.164C290.633 224.724 291.381 224.504 292.158 224.504V229.718H290.772C289.848 229.718 289.166 229.879 288.726 230.202C288.301 230.525 288.088 231.097 288.088 231.918V237H283.204V224.592H288.088V226.88ZM299.15 237.154C297.903 237.154 296.781 236.897 295.784 236.384C294.786 235.871 294.002 235.137 293.43 234.184C292.872 233.216 292.594 232.087 292.594 230.796C292.594 229.505 292.872 228.383 293.43 227.43C294.002 226.462 294.786 225.721 295.784 225.208C296.781 224.695 297.903 224.438 299.15 224.438C300.396 224.438 301.518 224.695 302.516 225.208C303.513 225.721 304.29 226.462 304.848 227.43C305.42 228.383 305.706 229.505 305.706 230.796C305.706 232.087 305.42 233.216 304.848 234.184C304.29 235.137 303.513 235.871 302.516 236.384C301.518 236.897 300.396 237.154 299.15 237.154ZM299.15 232.93C299.604 232.93 299.986 232.754 300.294 232.402C300.602 232.035 300.756 231.5 300.756 230.796C300.756 230.092 300.602 229.564 300.294 229.212C299.986 228.845 299.604 228.662 299.15 228.662C298.695 228.662 298.314 228.845 298.006 229.212C297.698 229.564 297.544 230.092 297.544 230.796C297.544 231.5 297.69 232.035 297.984 232.402C298.292 232.754 298.68 232.93 299.15 232.93ZM311.904 220.72V237H307.02V220.72H311.904Z" fill="url(#paint94_linear_21_17084)"/>
</g>
</g>
<defs>
<filter id="filter0_d_21_17084" x="117.907" y="51.0527" width="30.7674" height="23.9727" filterUnits="userSpaceOnUse" color-interpolation-filters="sRGB">
<feFlood flood-opacity="0" result="BackgroundImageFix"/>
<feColorMatrix in="SourceAlpha" type="matrix" values="0 0 0 0 0 0 0 0 0 0 0 0 0 0 0 0 0 0 127 0" result="hardAlpha"/>
<feOffset dy="2.23124"/>
<feGaussianBlur stdDeviation="0.557811"/>
<feColorMatrix type="matrix" values="0 0 0 0 0.541667 0 0 0 0 0.336104 0 0 0 0 0.0947917 0 0 0 0.25 0"/>
<feBlend mode="normal" in2="BackgroundImageFix" result="effect1_dropShadow_21_17084"/>
<feBlend mode="normal" in="SourceGraphic" in2="effect1_dropShadow_21_17084" result="shape"/>
</filter>
<filter id="filter1_d_21_17084" x="94.4581" y="104.35" width="29.5588" height="15.6013" filterUnits="userSpaceOnUse" color-interpolation-filters="sRGB">
<feFlood flood-opacity="0" result="BackgroundImageFix"/>
<feColorMatrix in="SourceAlpha" type="matrix" values="0 0 0 0 0 0 0 0 0 0 0 0 0 0 0 0 0 0 127 0" result="hardAlpha"/>
<feOffset dy="2.23124"/>
<feGaussianBlur stdDeviation="0.557811"/>
<feColorMatrix type="matrix" values="0 0 0 0 0.541667 0 0 0 0 0.336104 0 0 0 0 0.0947917 0 0 0 0.25 0"/>
<feBlend mode="normal" in2="BackgroundImageFix" result="effect1_dropShadow_21_17084"/>
<feBlend mode="normal" in="SourceGraphic" in2="effect1_dropShadow_21_17084" result="shape"/>
</filter>
<filter id="filter2_d_21_17084" x="66.8179" y="106.987" width="22.4897" height="43.2988" filterUnits="userSpaceOnUse" color-interpolation-filters="sRGB">
<feFlood flood-opacity="0" result="BackgroundImageFix"/>
<feColorMatrix in="SourceAlpha" type="matrix" values="0 0 0 0 0 0 0 0 0 0 0 0 0 0 0 0 0 0 127 0" result="hardAlpha"/>
<feOffset dx="2.23124" dy="2.23124"/>
<feGaussianBlur stdDeviation="0.557811"/>
<feColorMatrix type="matrix" values="0 0 0 0 0.541667 0 0 0 0 0.336104 0 0 0 0 0.0947917 0 0 0 0.25 0"/>
<feBlend mode="normal" in2="BackgroundImageFix" result="effect1_dropShadow_21_17084"/>
<feBlend mode="normal" in="SourceGraphic" in2="effect1_dropShadow_21_17084" result="shape"/>
</filter>
<filter id="filter3_d_21_17084" x="78.2647" y="150.361" width="11.8977" height="36.1992" filterUnits="userSpaceOnUse" color-interpolation-filters="sRGB">
<feFlood flood-opacity="0" result="BackgroundImageFix"/>
<feColorMatrix in="SourceAlpha" type="matrix" values="0 0 0 0 0 0 0 0 0 0 0 0 0 0 0 0 0 0 127 0" result="hardAlpha"/>
<feOffset dy="2.23124"/>
<feGaussianBlur stdDeviation="0.557811"/>
<feColorMatrix type="matrix" values="0 0 0 0 0.541667 0 0 0 0 0.336104 0 0 0 0 0.0947917 0 0 0 0.25 0"/>
<feBlend mode="normal" in2="BackgroundImageFix" result="effect1_dropShadow_21_17084"/>
<feBlend mode="normal" in="SourceGraphic" in2="effect1_dropShadow_21_17084" result="shape"/>
</filter>
<filter id="filter4_d_21_17084" x="77.5167" y="185.624" width="13.3894" height="41.0277" filterUnits="userSpaceOnUse" color-interpolation-filters="sRGB">
<feFlood flood-opacity="0" result="BackgroundImageFix"/>
<feColorMatrix in="SourceAlpha" type="matrix" values="0 0 0 0 0 0 0 0 0 0 0 0 0 0 0 0 0 0 127 0" result="hardAlpha"/>
<feOffset dy="2.23124"/>
<feGaussianBlur stdDeviation="0.557811"/>
<feColorMatrix type="matrix" values="0 0 0 0 0.541667 0 0 0 0 0.336104 0 0 0 0 0.0947917 0 0 0 0.25 0"/>
<feBlend mode="normal" in2="BackgroundImageFix" result="effect1_dropShadow_21_17084"/>
<feBlend mode="normal" in="SourceGraphic" in2="effect1_dropShadow_21_17084" result="shape"/>
</filter>
<filter id="filter5_d_21_17084" x="54.1143" y="191.263" width="27.8383" height="25.9944" filterUnits="userSpaceOnUse" color-interpolation-filters="sRGB">
<feFlood flood-opacity="0" result="BackgroundImageFix"/>
<feColorMatrix in="SourceAlpha" type="matrix" values="0 0 0 0 0 0 0 0 0 0 0 0 0 0 0 0 0 0 127 0" result="hardAlpha"/>
<feOffset dx="2.23124" dy="2.23124"/>
<feGaussianBlur stdDeviation="0.557811"/>
<feColorMatrix type="matrix" values="0 0 0 0 0.541667 0 0 0 0 0.336104 0 0 0 0 0.0947917 0 0 0 0.25 0"/>
<feBlend mode="normal" in2="BackgroundImageFix" result="effect1_dropShadow_21_17084"/>
<feBlend mode="normal" in="SourceGraphic" in2="effect1_dropShadow_21_17084" result="shape"/>
</filter>
<filter id="filter6_d_21_17084" x="60.5045" y="233.969" width="26.5259" height="15.8807" filterUnits="userSpaceOnUse" color-interpolation-filters="sRGB">
<feFlood flood-opacity="0" result="BackgroundImageFix"/>
<feColorMatrix in="SourceAlpha" type="matrix" values="0 0 0 0 0 0 0 0 0 0 0 0 0 0 0 0 0 0 127 0" result="hardAlpha"/>
<feOffset dy="2.23124"/>
<feGaussianBlur stdDeviation="0.557811"/>
<feColorMatrix type="matrix" values="0 0 0 0 0.541667 0 0 0 0 0.336104 0 0 0 0 0.0947917 0 0 0 0.25 0"/>
<feBlend mode="normal" in2="BackgroundImageFix" result="effect1_dropShadow_21_17084"/>
<feBlend mode="normal" in="SourceGraphic" in2="effect1_dropShadow_21_17084" result="shape"/>
</filter>
<filter id="filter7_d_21_17084" x="305.325" y="52.007" width="30.7674" height="23.9727" filterUnits="userSpaceOnUse" color-interpolation-filters="sRGB">
<feFlood flood-opacity="0" result="BackgroundImageFix"/>
<feColorMatrix in="SourceAlpha" type="matrix" values="0 0 0 0 0 0 0 0 0 0 0 0 0 0 0 0 0 0 127 0" result="hardAlpha"/>
<feOffset dy="2.23124"/>
<feGaussianBlur stdDeviation="0.557811"/>
<feColorMatrix type="matrix" values="0 0 0 0 0.541667 0 0 0 0 0.336104 0 0 0 0 0.0947917 0 0 0 0.25 0"/>
<feBlend mode="normal" in2="BackgroundImageFix" result="effect1_dropShadow_21_17084"/>
<feBlend mode="normal" in="SourceGraphic" in2="effect1_dropShadow_21_17084" result="shape"/>
</filter>
<filter id="filter8_d_21_17084" x="329.987" y="105.303" width="29.5589" height="15.601" filterUnits="userSpaceOnUse" color-interpolation-filters="sRGB">
<feFlood flood-opacity="0" result="BackgroundImageFix"/>
<feColorMatrix in="SourceAlpha" type="matrix" values="0 0 0 0 0 0 0 0 0 0 0 0 0 0 0 0 0 0 127 0" result="hardAlpha"/>
<feOffset dy="2.23124"/>
<feGaussianBlur stdDeviation="0.557811"/>
<feColorMatrix type="matrix" values="0 0 0 0 0.541667 0 0 0 0 0.336104 0 0 0 0 0.0947917 0 0 0 0.25 0"/>
<feBlend mode="normal" in2="BackgroundImageFix" result="effect1_dropShadow_21_17084"/>
<feBlend mode="normal" in="SourceGraphic" in2="effect1_dropShadow_21_17084" result="shape"/>
</filter>
<filter id="filter9_d_21_17084" x="368.04" y="107.942" width="22.4896" height="43.2988" filterUnits="userSpaceOnUse" color-interpolation-filters="sRGB">
<feFlood flood-opacity="0" result="BackgroundImageFix"/>
<feColorMatrix in="SourceAlpha" type="matrix" values="0 0 0 0 0 0 0 0 0 0 0 0 0 0 0 0 0 0 127 0" result="hardAlpha"/>
<feOffset dx="2.23124" dy="2.23124"/>
<feGaussianBlur stdDeviation="0.557811"/>
<feColorMatrix type="matrix" values="0 0 0 0 0.541667 0 0 0 0 0.336104 0 0 0 0 0.0947917 0 0 0 0.25 0"/>
<feBlend mode="normal" in2="BackgroundImageFix" result="effect1_dropShadow_21_17084"/>
<feBlend mode="normal" in="SourceGraphic" in2="effect1_dropShadow_21_17084" result="shape"/>
</filter>
<filter id="filter10_d_21_17084" x="363.838" y="151.315" width="11.898" height="36.199" filterUnits="userSpaceOnUse" color-interpolation-filters="sRGB">
<feFlood flood-opacity="0" result="BackgroundImageFix"/>
<feColorMatrix in="SourceAlpha" type="matrix" values="0 0 0 0 0 0 0 0 0 0 0 0 0 0 0 0 0 0 127 0" result="hardAlpha"/>
<feOffset dy="2.23124"/>
<feGaussianBlur stdDeviation="0.557811"/>
<feColorMatrix type="matrix" values="0 0 0 0 0.541667 0 0 0 0 0.336104 0 0 0 0 0.0947917 0 0 0 0.25 0"/>
<feBlend mode="normal" in2="BackgroundImageFix" result="effect1_dropShadow_21_17084"/>
<feBlend mode="normal" in="SourceGraphic" in2="effect1_dropShadow_21_17084" result="shape"/>
</filter>
<filter id="filter11_d_21_17084" x="363.094" y="186.579" width="13.3896" height="41.0274" filterUnits="userSpaceOnUse" color-interpolation-filters="sRGB">
<feFlood flood-opacity="0" result="BackgroundImageFix"/>
<feColorMatrix in="SourceAlpha" type="matrix" values="0 0 0 0 0 0 0 0 0 0 0 0 0 0 0 0 0 0 127 0" result="hardAlpha"/>
<feOffset dy="2.23124"/>
<feGaussianBlur stdDeviation="0.557811"/>
<feColorMatrix type="matrix" values="0 0 0 0 0.541667 0 0 0 0 0.336104 0 0 0 0 0.0947917 0 0 0 0.25 0"/>
<feBlend mode="normal" in2="BackgroundImageFix" result="effect1_dropShadow_21_17084"/>
<feBlend mode="normal" in="SourceGraphic" in2="effect1_dropShadow_21_17084" result="shape"/>
</filter>
<filter id="filter12_d_21_17084" x="375.395" y="192.217" width="27.8383" height="25.9946" filterUnits="userSpaceOnUse" color-interpolation-filters="sRGB">
<feFlood flood-opacity="0" result="BackgroundImageFix"/>
<feColorMatrix in="SourceAlpha" type="matrix" values="0 0 0 0 0 0 0 0 0 0 0 0 0 0 0 0 0 0 127 0" result="hardAlpha"/>
<feOffset dx="2.23124" dy="2.23124"/>
<feGaussianBlur stdDeviation="0.557811"/>
<feColorMatrix type="matrix" values="0 0 0 0 0.541667 0 0 0 0 0.336104 0 0 0 0 0.0947917 0 0 0 0.25 0"/>
<feBlend mode="normal" in2="BackgroundImageFix" result="effect1_dropShadow_21_17084"/>
<feBlend mode="normal" in="SourceGraphic" in2="effect1_dropShadow_21_17084" result="shape"/>
</filter>
<filter id="filter13_d_21_17084" x="366.967" y="234.923" width="26.526" height="15.8807" filterUnits="userSpaceOnUse" color-interpolation-filters="sRGB">
<feFlood flood-opacity="0" result="BackgroundImageFix"/>
<feColorMatrix in="SourceAlpha" type="matrix" values="0 0 0 0 0 0 0 0 0 0 0 0 0 0 0 0 0 0 127 0" result="hardAlpha"/>
<feOffset dy="2.23124"/>
<feGaussianBlur stdDeviation="0.557811"/>
<feColorMatrix type="matrix" values="0 0 0 0 0.541667 0 0 0 0 0.336104 0 0 0 0 0.0947917 0 0 0 0.25 0"/>
<feBlend mode="normal" in2="BackgroundImageFix" result="effect1_dropShadow_21_17084"/>
<feBlend mode="normal" in="SourceGraphic" in2="effect1_dropShadow_21_17084" result="shape"/>
</filter>
<filter id="filter14_d_21_17084" x="11.3828" y="57.6494" width="412.068" height="286.556" filterUnits="userSpaceOnUse" color-interpolation-filters="sRGB">
<feFlood flood-opacity="0" result="BackgroundImageFix"/>
<feColorMatrix in="SourceAlpha" type="matrix" values="0 0 0 0 0 0 0 0 0 0 0 0 0 0 0 0 0 0 127 0" result="hardAlpha"/>
<feOffset dy="8"/>
<feGaussianBlur stdDeviation="3"/>
<feColorMatrix type="matrix" values="0 0 0 0 0.208958 0 0 0 0 0.389892 0 0 0 0 0.491667 0 0 0 0.54 0"/>
<feBlend mode="normal" in2="BackgroundImageFix" result="effect1_dropShadow_21_17084"/>
<feBlend mode="normal" in="SourceGraphic" in2="effect1_dropShadow_21_17084" result="shape"/>
</filter>
<filter id="filter15_f_21_17084" x="124.658" y="77.8313" width="205.539" height="231.71" filterUnits="userSpaceOnUse" color-interpolation-filters="sRGB">
<feFlood flood-opacity="0" result="BackgroundImageFix"/>
<feBlend mode="normal" in="SourceGraphic" in2="BackgroundImageFix" result="shape"/>
<feGaussianBlur stdDeviation="0.15" result="effect1_foregroundBlur_21_17084"/>
</filter>
<filter id="filter16_i_21_17084" x="134.128" y="88.0566" width="187.851" height="211.632" filterUnits="userSpaceOnUse" color-interpolation-filters="sRGB">
<feFlood flood-opacity="0" result="BackgroundImageFix"/>
<feBlend mode="normal" in="SourceGraphic" in2="BackgroundImageFix" result="shape"/>
<feColorMatrix in="SourceAlpha" type="matrix" values="0 0 0 0 0 0 0 0 0 0 0 0 0 0 0 0 0 0 127 0" result="hardAlpha"/>
<feOffset/>
<feGaussianBlur stdDeviation="6.72414"/>
<feComposite in2="hardAlpha" operator="arithmetic" k2="-1" k3="1"/>
<feColorMatrix type="matrix" values="0 0 0 0 0.37849 0 0 0 0 0.586923 0 0 0 0 0.704167 0 0 0 1 0"/>
<feBlend mode="normal" in2="shape" result="effect1_innerShadow_21_17084"/>
</filter>
<filter id="filter17_i_21_17084" x="142.448" y="147.6" width="169.456" height="93.5541" filterUnits="userSpaceOnUse" color-interpolation-filters="sRGB">
<feFlood flood-opacity="0" result="BackgroundImageFix"/>
<feBlend mode="normal" in="SourceGraphic" in2="BackgroundImageFix" result="shape"/>
<feColorMatrix in="SourceAlpha" type="matrix" values="0 0 0 0 0 0 0 0 0 0 0 0 0 0 0 0 0 0 127 0" result="hardAlpha"/>
<feOffset dy="4"/>
<feGaussianBlur stdDeviation="2"/>
<feComposite in2="hardAlpha" operator="arithmetic" k2="-1" k3="1"/>
<feColorMatrix type="matrix" values="0 0 0 0 0 0 0 0 0 0 0 0 0 0 0 0 0 0 0.25 0"/>
<feBlend mode="normal" in2="shape" result="effect1_innerShadow_21_17084"/>
</filter>
<linearGradient id="paint0_linear_21_17084" x1="81.7935" y1="227.778" x2="73.9206" y2="238.404" gradientUnits="userSpaceOnUse">
<stop stop-color="#D2AB68"/>
<stop offset="1" stop-color="#B67D3F"/>
</linearGradient>
<linearGradient id="paint1_linear_21_17084" x1="115.219" y1="68.8257" x2="92.773" y2="99.119" gradientUnits="userSpaceOnUse">
<stop stop-color="#D2AB68"/>
<stop offset="1" stop-color="#B67D3F"/>
</linearGradient>
<linearGradient id="paint2_linear_21_17084" x1="138.554" y1="59.2263" x2="122.949" y2="80.2871" gradientUnits="userSpaceOnUse">
<stop stop-color="#D2AB68"/>
<stop offset="1" stop-color="#B67D3F"/>
</linearGradient>
<linearGradient id="paint3_linear_21_17084" x1="80.8807" y1="147.589" x2="89.202" y2="151.06" gradientUnits="userSpaceOnUse">
<stop stop-color="#D2AB68"/>
<stop offset="1" stop-color="#B67D3F"/>
</linearGradient>
<linearGradient id="paint4_linear_21_17084" x1="133.885" y1="73.3803" x2="121.194" y2="47.6296" gradientUnits="userSpaceOnUse">
<stop stop-color="#D2AB68"/>
<stop offset="1" stop-color="#B67D3F"/>
</linearGradient>
<linearGradient id="paint5_linear_21_17084" x1="124.322" y1="44.3335" x2="117.348" y2="71.5864" gradientUnits="userSpaceOnUse">
<stop stop-color="#F7E6B3"/>
<stop offset="1" stop-color="#F7E6B3" stop-opacity="0"/>
</linearGradient>
<linearGradient id="paint6_linear_21_17084" x1="105.65" y1="146.82" x2="78.2604" y2="183.785" gradientUnits="userSpaceOnUse">
<stop stop-color="#D2AB68"/>
<stop offset="1" stop-color="#B67D3F"/>
</linearGradient>
<linearGradient id="paint7_linear_21_17084" x1="99.4315" y1="151.088" x2="107.872" y2="174.221" gradientUnits="userSpaceOnUse">
<stop stop-color="#F7E6B3"/>
<stop offset="1" stop-color="#F7E6B3" stop-opacity="0"/>
</linearGradient>
<linearGradient id="paint8_linear_21_17084" x1="92.0662" y1="111.591" x2="77.5024" y2="131.246" gradientUnits="userSpaceOnUse">
<stop stop-color="#D2AB68"/>
<stop offset="1" stop-color="#B67D3F"/>
</linearGradient>
<linearGradient id="paint9_linear_21_17084" x1="89.3558" y1="122.917" x2="82.8272" y2="135.17" gradientUnits="userSpaceOnUse">
<stop stop-color="#C18E42"/>
<stop offset="1" stop-color="#D2AB68"/>
</linearGradient>
<linearGradient id="paint10_linear_21_17084" x1="104.554" y1="77.0625" x2="86.1388" y2="101.916" gradientUnits="userSpaceOnUse">
<stop stop-color="#D2AB68"/>
<stop offset="1" stop-color="#8E573C"/>
</linearGradient>
<linearGradient id="paint11_linear_21_17084" x1="119.305" y1="87.7392" x2="101.612" y2="111.618" gradientUnits="userSpaceOnUse">
<stop stop-color="#D2AB68"/>
<stop offset="1" stop-color="#B67D3F"/>
</linearGradient>
<linearGradient id="paint12_linear_21_17084" x1="71.4768" y1="161.387" x2="64.9906" y2="170.14" gradientUnits="userSpaceOnUse">
<stop stop-color="#D2AB68"/>
<stop offset="1" stop-color="#B67D3F"/>
</linearGradient>
<linearGradient id="paint13_linear_21_17084" x1="76.4434" y1="145.056" x2="61.1574" y2="165.687" gradientUnits="userSpaceOnUse">
<stop stop-color="#C28766"/>
<stop offset="1" stop-color="#8E573C"/>
</linearGradient>
<linearGradient id="paint14_linear_21_17084" x1="100.233" y1="194.892" x2="80.2528" y2="221.857" gradientUnits="userSpaceOnUse">
<stop stop-color="#D2AB68"/>
<stop offset="1" stop-color="#B67D3F"/>
</linearGradient>
<linearGradient id="paint15_linear_21_17084" x1="79.3055" y1="188.192" x2="66.6675" y2="205.248" gradientUnits="userSpaceOnUse">
<stop stop-color="#D2AB68"/>
<stop offset="1" stop-color="#B67D3F"/>
</linearGradient>
<linearGradient id="paint16_linear_21_17084" x1="81.5557" y1="187.091" x2="66.6842" y2="207.162" gradientUnits="userSpaceOnUse">
<stop stop-color="#FADA81"/>
<stop offset="1" stop-color="#B67D3F"/>
</linearGradient>
<linearGradient id="paint17_linear_21_17084" x1="79.2896" y1="242.53" x2="73.1511" y2="250.815" gradientUnits="userSpaceOnUse">
<stop stop-color="#D2AB68"/>
<stop offset="1" stop-color="#B67D3F"/>
</linearGradient>
<linearGradient id="paint18_linear_21_17084" x1="157.947" y1="19.4949" x2="135.92" y2="49.222" gradientUnits="userSpaceOnUse">
<stop stop-color="#FCF1D5"/>
<stop offset="1" stop-color="#EBCE6A"/>
</linearGradient>
<linearGradient id="paint19_linear_21_17084" x1="160.481" y1="21.374" x2="138.455" y2="51.1011" gradientUnits="userSpaceOnUse">
<stop stop-color="#D2AB68"/>
<stop offset="1" stop-color="#B67D3F"/>
</linearGradient>
<linearGradient id="paint20_linear_21_17084" x1="144.361" y1="48.6839" x2="124.381" y2="75.6494" gradientUnits="userSpaceOnUse">
<stop stop-color="#D2AB68"/>
<stop offset="1" stop-color="#B67D3F"/>
</linearGradient>
<linearGradient id="paint21_linear_21_17084" x1="138.973" y1="51.1666" x2="139.678" y2="77.0002" gradientUnits="userSpaceOnUse">
<stop stop-color="#F7E6B3"/>
<stop offset="1" stop-color="#F7E6B3" stop-opacity="0"/>
</linearGradient>
<linearGradient id="paint22_linear_21_17084" x1="109.194" y1="71.6102" x2="102.802" y2="102.64" gradientUnits="userSpaceOnUse">
<stop stop-color="#F7E6B3"/>
<stop offset="1" stop-color="#F7E6B3" stop-opacity="0"/>
</linearGradient>
<linearGradient id="paint23_linear_21_17084" x1="98.2305" y1="78.13" x2="88.027" y2="104.491" gradientUnits="userSpaceOnUse">
<stop stop-color="#F7E6B3"/>
<stop offset="1" stop-color="#F7E6B3" stop-opacity="0"/>
</linearGradient>
<linearGradient id="paint24_linear_21_17084" x1="115.032" y1="90.3821" x2="115.451" y2="107.958" gradientUnits="userSpaceOnUse">
<stop stop-color="#FFDD78"/>
<stop offset="1" stop-color="#FFF1C8" stop-opacity="0.38"/>
</linearGradient>
<linearGradient id="paint25_linear_21_17084" x1="116.583" y1="100.064" x2="101.057" y2="121.019" gradientUnits="userSpaceOnUse">
<stop stop-color="#D2AB68"/>
<stop offset="1" stop-color="#B67D3F"/>
</linearGradient>
<linearGradient id="paint26_linear_21_17084" x1="116.842" y1="99.7528" x2="97.9598" y2="119.021" gradientUnits="userSpaceOnUse">
<stop stop-color="#FFDA92"/>
<stop offset="1" stop-color="#DCBA84"/>
</linearGradient>
<linearGradient id="paint27_linear_21_17084" x1="72.5366" y1="111.212" x2="82.8508" y2="141.442" gradientUnits="userSpaceOnUse">
<stop stop-color="#F7E6B3"/>
<stop offset="1" stop-color="#BC8647"/>
</linearGradient>
<linearGradient id="paint28_linear_21_17084" x1="82.2271" y1="118.703" x2="69.8902" y2="135.353" gradientUnits="userSpaceOnUse">
<stop stop-color="#D2AB68"/>
<stop offset="1" stop-color="#8E573C"/>
</linearGradient>
<linearGradient id="paint29_linear_21_17084" x1="68.5712" y1="143.521" x2="58.1549" y2="162.461" gradientUnits="userSpaceOnUse">
<stop stop-color="#F7E6B3"/>
<stop offset="1" stop-color="#F7E6B3" stop-opacity="0"/>
</linearGradient>
<linearGradient id="paint30_linear_21_17084" x1="93.1441" y1="154.409" x2="74.488" y2="179.587" gradientUnits="userSpaceOnUse">
<stop stop-color="#D2AB68"/>
<stop offset="1" stop-color="#B67D3F"/>
</linearGradient>
<linearGradient id="paint31_linear_21_17084" x1="87.7147" y1="149.985" x2="79.3481" y2="181.547" gradientUnits="userSpaceOnUse">
<stop stop-color="#E0C087"/>
<stop offset="0.28125" stop-color="#FFE49E"/>
<stop offset="1" stop-color="#753C1D"/>
</linearGradient>
<linearGradient id="paint32_linear_21_17084" x1="65.636" y1="161.681" x2="58.6109" y2="168.659" gradientUnits="userSpaceOnUse">
<stop stop-color="#B18253"/>
<stop offset="1" stop-color="#F7E6B3" stop-opacity="0"/>
</linearGradient>
<linearGradient id="paint33_linear_21_17084" x1="92.8966" y1="191.719" x2="73.8793" y2="217.385" gradientUnits="userSpaceOnUse">
<stop stop-color="#D2AB68"/>
<stop offset="1" stop-color="#B67D3F"/>
</linearGradient>
<linearGradient id="paint34_linear_21_17084" x1="87.2864" y1="193.667" x2="79.6844" y2="221.603" gradientUnits="userSpaceOnUse">
<stop stop-color="#F7E6B3"/>
<stop offset="1" stop-color="#F7E6B3" stop-opacity="0"/>
</linearGradient>
<linearGradient id="paint35_linear_21_17084" x1="69.0774" y1="199.042" x2="62.2466" y2="208.261" gradientUnits="userSpaceOnUse">
<stop stop-color="#D2AB68"/>
<stop offset="1" stop-color="#B67D3F"/>
</linearGradient>
<linearGradient id="paint36_linear_21_17084" x1="66.298" y1="197.172" x2="71.958" y2="210.784" gradientUnits="userSpaceOnUse">
<stop stop-color="#FADA81"/>
<stop offset="1" stop-color="#9A5E33"/>
</linearGradient>
<linearGradient id="paint37_linear_21_17084" x1="77.8867" y1="233.623" x2="70.7206" y2="243.295" gradientUnits="userSpaceOnUse">
<stop stop-color="#FADA81"/>
<stop offset="1" stop-color="#B67D3F"/>
</linearGradient>
<linearGradient id="paint38_linear_21_17084" x1="78.2113" y1="237.872" x2="70.1057" y2="248.811" gradientUnits="userSpaceOnUse">
<stop stop-color="#D2AB68"/>
<stop offset="1" stop-color="#B67D3F"/>
</linearGradient>
<linearGradient id="paint39_linear_21_17084" x1="372.206" y1="228.733" x2="380.078" y2="239.358" gradientUnits="userSpaceOnUse">
<stop stop-color="#D2AB68"/>
<stop offset="1" stop-color="#B67D3F"/>
</linearGradient>
<linearGradient id="paint40_linear_21_17084" x1="338.78" y1="69.78" x2="361.226" y2="100.073" gradientUnits="userSpaceOnUse">
<stop stop-color="#D2AB68"/>
<stop offset="1" stop-color="#B67D3F"/>
</linearGradient>
<linearGradient id="paint41_linear_21_17084" x1="315.445" y1="60.1805" x2="331.05" y2="81.2413" gradientUnits="userSpaceOnUse">
<stop stop-color="#D2AB68"/>
<stop offset="1" stop-color="#B67D3F"/>
</linearGradient>
<linearGradient id="paint42_linear_21_17084" x1="373.118" y1="148.544" x2="364.797" y2="152.016" gradientUnits="userSpaceOnUse">
<stop stop-color="#D2AB68"/>
<stop offset="1" stop-color="#B67D3F"/>
</linearGradient>
<linearGradient id="paint43_linear_21_17084" x1="320.115" y1="74.3349" x2="332.806" y2="48.5841" gradientUnits="userSpaceOnUse">
<stop stop-color="#D2AB68"/>
<stop offset="1" stop-color="#B67D3F"/>
</linearGradient>
<linearGradient id="paint44_linear_21_17084" x1="329.678" y1="45.2879" x2="336.652" y2="72.5409" gradientUnits="userSpaceOnUse">
<stop stop-color="#F7E6B3"/>
<stop offset="1" stop-color="#F7E6B3" stop-opacity="0"/>
</linearGradient>
<linearGradient id="paint45_linear_21_17084" x1="348.348" y1="147.774" x2="375.738" y2="184.74" gradientUnits="userSpaceOnUse">
<stop stop-color="#D2AB68"/>
<stop offset="1" stop-color="#B67D3F"/>
</linearGradient>
<linearGradient id="paint46_linear_21_17084" x1="354.566" y1="152.042" x2="346.126" y2="175.178" gradientUnits="userSpaceOnUse">
<stop stop-color="#F7E6B3"/>
<stop offset="1" stop-color="#F7E6B3" stop-opacity="0"/>
</linearGradient>
<linearGradient id="paint47_linear_21_17084" x1="361.932" y1="112.546" x2="376.496" y2="132.202" gradientUnits="userSpaceOnUse">
<stop stop-color="#D2AB68"/>
<stop offset="1" stop-color="#B67D3F"/>
</linearGradient>
<linearGradient id="paint48_linear_21_17084" x1="364.644" y1="123.872" x2="371.172" y2="136.125" gradientUnits="userSpaceOnUse">
<stop stop-color="#C18E42"/>
<stop offset="1" stop-color="#D2AB68"/>
</linearGradient>
<linearGradient id="paint49_linear_21_17084" x1="349.444" y1="78.0167" x2="367.859" y2="102.87" gradientUnits="userSpaceOnUse">
<stop stop-color="#D2AB68"/>
<stop offset="1" stop-color="#8E573C"/>
</linearGradient>
<linearGradient id="paint50_linear_21_17084" x1="334.696" y1="88.6935" x2="352.389" y2="112.572" gradientUnits="userSpaceOnUse">
<stop stop-color="#D2AB68"/>
<stop offset="1" stop-color="#B67D3F"/>
</linearGradient>
<linearGradient id="paint51_linear_21_17084" x1="382.521" y1="162.341" x2="389.007" y2="171.095" gradientUnits="userSpaceOnUse">
<stop stop-color="#D2AB68"/>
<stop offset="1" stop-color="#B67D3F"/>
</linearGradient>
<linearGradient id="paint52_linear_21_17084" x1="377.556" y1="146.011" x2="392.842" y2="166.641" gradientUnits="userSpaceOnUse">
<stop stop-color="#C28766"/>
<stop offset="1" stop-color="#8E573C"/>
</linearGradient>
<linearGradient id="paint53_linear_21_17084" x1="353.765" y1="195.846" x2="373.745" y2="222.811" gradientUnits="userSpaceOnUse">
<stop stop-color="#D2AB68"/>
<stop offset="1" stop-color="#B67D3F"/>
</linearGradient>
<linearGradient id="paint54_linear_21_17084" x1="374.694" y1="189.147" x2="387.332" y2="206.204" gradientUnits="userSpaceOnUse">
<stop stop-color="#D2AB68"/>
<stop offset="1" stop-color="#B67D3F"/>
</linearGradient>
<linearGradient id="paint55_linear_21_17084" x1="372.444" y1="188.047" x2="387.315" y2="208.117" gradientUnits="userSpaceOnUse">
<stop stop-color="#FADA81"/>
<stop offset="1" stop-color="#B67D3F"/>
</linearGradient>
<linearGradient id="paint56_linear_21_17084" x1="374.71" y1="243.484" x2="380.848" y2="251.769" gradientUnits="userSpaceOnUse">
<stop stop-color="#D2AB68"/>
<stop offset="1" stop-color="#B67D3F"/>
</linearGradient>
<linearGradient id="paint57_linear_21_17084" x1="296.052" y1="20.4493" x2="318.078" y2="50.1763" gradientUnits="userSpaceOnUse">
<stop stop-color="#FCF1D5"/>
<stop offset="1" stop-color="#EBCE6A"/>
</linearGradient>
<linearGradient id="paint58_linear_21_17084" x1="293.516" y1="22.3284" x2="315.543" y2="52.0554" gradientUnits="userSpaceOnUse">
<stop stop-color="#D2AB68"/>
<stop offset="1" stop-color="#B67D3F"/>
</linearGradient>
<linearGradient id="paint59_linear_21_17084" x1="309.638" y1="49.6382" x2="329.618" y2="76.6036" gradientUnits="userSpaceOnUse">
<stop stop-color="#D2AB68"/>
<stop offset="1" stop-color="#B67D3F"/>
</linearGradient>
<linearGradient id="paint60_linear_21_17084" x1="315.026" y1="52.1208" x2="314.321" y2="77.9544" gradientUnits="userSpaceOnUse">
<stop stop-color="#F7E6B3"/>
<stop offset="1" stop-color="#F7E6B3" stop-opacity="0"/>
</linearGradient>
<linearGradient id="paint61_linear_21_17084" x1="344.807" y1="72.5667" x2="351.199" y2="103.595" gradientUnits="userSpaceOnUse">
<stop stop-color="#F7E6B3"/>
<stop offset="1" stop-color="#F7E6B3" stop-opacity="0"/>
</linearGradient>
<linearGradient id="paint62_linear_21_17084" x1="355.768" y1="79.0838" x2="365.971" y2="105.443" gradientUnits="userSpaceOnUse">
<stop stop-color="#F7E6B3"/>
<stop offset="1" stop-color="#F7E6B3" stop-opacity="0"/>
</linearGradient>
<linearGradient id="paint63_linear_21_17084" x1="338.971" y1="91.3391" x2="338.552" y2="108.914" gradientUnits="userSpaceOnUse">
<stop stop-color="#FFDD78"/>
<stop offset="1" stop-color="#FFF1C8" stop-opacity="0.38"/>
</linearGradient>
<linearGradient id="paint64_linear_21_17084" x1="337.42" y1="101.017" x2="352.947" y2="121.972" gradientUnits="userSpaceOnUse">
<stop stop-color="#D2AB68"/>
<stop offset="1" stop-color="#B67D3F"/>
</linearGradient>
<linearGradient id="paint65_linear_21_17084" x1="337.161" y1="100.706" x2="356.044" y2="119.973" gradientUnits="userSpaceOnUse">
<stop stop-color="#FFDA92"/>
<stop offset="1" stop-color="#DCBA84"/>
</linearGradient>
<linearGradient id="paint66_linear_21_17084" x1="381.463" y1="112.166" x2="371.149" y2="142.397" gradientUnits="userSpaceOnUse">
<stop stop-color="#F7E6B3"/>
<stop offset="1" stop-color="#BC8647"/>
</linearGradient>
<linearGradient id="paint67_linear_21_17084" x1="371.775" y1="119.658" x2="384.11" y2="136.305" gradientUnits="userSpaceOnUse">
<stop stop-color="#D2AB68"/>
<stop offset="1" stop-color="#8E573C"/>
</linearGradient>
<linearGradient id="paint68_linear_21_17084" x1="385.432" y1="144.476" x2="395.848" y2="163.416" gradientUnits="userSpaceOnUse">
<stop stop-color="#F7E6B3"/>
<stop offset="1" stop-color="#F7E6B3" stop-opacity="0"/>
</linearGradient>
<linearGradient id="paint69_linear_21_17084" x1="360.856" y1="155.363" x2="379.513" y2="180.541" gradientUnits="userSpaceOnUse">
<stop stop-color="#D2AB68"/>
<stop offset="1" stop-color="#B67D3F"/>
</linearGradient>
<linearGradient id="paint70_linear_21_17084" x1="366.285" y1="150.939" x2="374.652" y2="182.501" gradientUnits="userSpaceOnUse">
<stop stop-color="#E0C087"/>
<stop offset="0.28125" stop-color="#FFE49E"/>
<stop offset="1" stop-color="#753C1D"/>
</linearGradient>
<linearGradient id="paint71_linear_21_17084" x1="388.365" y1="162.636" x2="395.39" y2="169.614" gradientUnits="userSpaceOnUse">
<stop stop-color="#B18253"/>
<stop offset="1" stop-color="#F7E6B3" stop-opacity="0"/>
</linearGradient>
<linearGradient id="paint72_linear_21_17084" x1="361.103" y1="192.674" x2="380.12" y2="218.34" gradientUnits="userSpaceOnUse">
<stop stop-color="#D2AB68"/>
<stop offset="1" stop-color="#B67D3F"/>
</linearGradient>
<linearGradient id="paint73_linear_21_17084" x1="366.713" y1="194.622" x2="374.316" y2="222.558" gradientUnits="userSpaceOnUse">
<stop stop-color="#F7E6B3"/>
<stop offset="1" stop-color="#F7E6B3" stop-opacity="0"/>
</linearGradient>
<linearGradient id="paint74_linear_21_17084" x1="384.924" y1="199.996" x2="391.754" y2="209.215" gradientUnits="userSpaceOnUse">
<stop stop-color="#D2AB68"/>
<stop offset="1" stop-color="#B67D3F"/>
</linearGradient>
<linearGradient id="paint75_linear_21_17084" x1="387.703" y1="198.126" x2="382.043" y2="211.738" gradientUnits="userSpaceOnUse">
<stop stop-color="#FADA81"/>
<stop offset="1" stop-color="#9A5E33"/>
</linearGradient>
<linearGradient id="paint76_linear_21_17084" x1="376.111" y1="234.577" x2="383.277" y2="244.249" gradientUnits="userSpaceOnUse">
<stop stop-color="#FADA81"/>
<stop offset="1" stop-color="#B67D3F"/>
</linearGradient>
<linearGradient id="paint77_linear_21_17084" x1="375.787" y1="238.826" x2="383.893" y2="249.766" gradientUnits="userSpaceOnUse">
<stop stop-color="#D2AB68"/>
<stop offset="1" stop-color="#B67D3F"/>
</linearGradient>
<linearGradient id="paint78_linear_21_17084" x1="358.843" y1="187.288" x2="392.222" y2="153.587" gradientUnits="userSpaceOnUse">
<stop stop-color="#C3C5D1"/>
<stop offset="0.875" stop-color="#F9F9F9"/>
</linearGradient>
<linearGradient id="paint79_linear_21_17084" x1="410.778" y1="147.889" x2="379.106" y2="187.586" gradientUnits="userSpaceOnUse">
<stop stop-color="#F9F9F9"/>
<stop offset="0.378992" stop-color="#F9F9F9"/>
<stop offset="0.480868" stop-color="#DFDFE6"/>
<stop offset="0.729174" stop-color="#B8BAC6"/>
</linearGradient>
<linearGradient id="paint80_linear_21_17084" x1="335.638" y1="217.385" x2="369.006" y2="182.59" gradientUnits="userSpaceOnUse">
<stop stop-color="#C3C5D1"/>
<stop offset="0.875" stop-color="#F9F9F9"/>
</linearGradient>
<linearGradient id="paint81_linear_21_17084" x1="378.181" y1="182.911" x2="361.317" y2="217.514" gradientUnits="userSpaceOnUse">
<stop stop-color="#F4F4F5"/>
<stop offset="0.306027" stop-color="#F4F4F5"/>
<stop offset="0.462087" stop-color="#E8E9EC"/>
<stop offset="0.682292" stop-color="#DFDFE6"/>
<stop offset="1" stop-color="#B8BAC6"/>
</linearGradient>
<linearGradient id="paint82_linear_21_17084" x1="75.9901" y1="187.288" x2="42.6115" y2="153.587" gradientUnits="userSpaceOnUse">
<stop stop-color="#C3C5D1"/>
<stop offset="0.875" stop-color="#F9F9F9"/>
</linearGradient>
<linearGradient id="paint83_linear_21_17084" x1="24.0549" y1="147.889" x2="55.7271" y2="187.586" gradientUnits="userSpaceOnUse">
<stop stop-color="#F9F9F9"/>
<stop offset="0.378992" stop-color="#F9F9F9"/>
<stop offset="0.480868" stop-color="#DFDFE6"/>
<stop offset="0.729174" stop-color="#B8BAC6"/>
</linearGradient>
<linearGradient id="paint84_linear_21_17084" x1="99.1952" y1="217.385" x2="65.8269" y2="182.59" gradientUnits="userSpaceOnUse">
<stop stop-color="#C3C5D1"/>
<stop offset="0.875" stop-color="#F9F9F9"/>
</linearGradient>
<linearGradient id="paint85_linear_21_17084" x1="56.6525" y1="182.911" x2="73.5165" y2="217.514" gradientUnits="userSpaceOnUse">
<stop stop-color="#F4F4F5"/>
<stop offset="0.306027" stop-color="#F4F4F5"/>
<stop offset="0.462087" stop-color="#E8E9EC"/>
<stop offset="0.682292" stop-color="#DFDFE6"/>
<stop offset="1" stop-color="#B8BAC6"/>
</linearGradient>
<linearGradient id="paint86_linear_21_17084" x1="176.997" y1="88.7332" x2="283.719" y2="302.803" gradientUnits="userSpaceOnUse">
<stop stop-color="#D8ECF1"/>
<stop offset="1" stop-color="#82B3BF"/>
</linearGradient>
<linearGradient id="paint87_linear_21_17084" x1="176.033" y1="106.384" x2="268.096" y2="277.914" gradientUnits="userSpaceOnUse">
<stop stop-color="#A1C9D3"/>
<stop offset="1" stop-color="#D0ECF2"/>
</linearGradient>
<linearGradient id="paint88_linear_21_17084" x1="186.148" y1="100.183" x2="285.346" y2="280.367" gradientUnits="userSpaceOnUse">
<stop stop-color="#D0ECF2"/>
<stop offset="1" stop-color="#E6F8FC"/>
</linearGradient>
<radialGradient id="paint89_radial_21_17084" cx="0" cy="0" r="1" gradientUnits="userSpaceOnUse" gradientTransform="translate(228.054 193.873) rotate(90) scale(108.002 93.9255)">
<stop stop-color="#D0EBF2"/>
<stop offset="1" stop-color="#8DD3E2"/>
</radialGradient>
<linearGradient id="paint90_linear_21_17084" x1="228.054" y1="81.5938" x2="228.054" y2="306.141" gradientUnits="userSpaceOnUse">
<stop stop-color="white"/>
<stop offset="1" stop-color="#F2EDED" stop-opacity="0"/>
</linearGradient>
<linearGradient id="paint91_linear_21_17084" x1="112.092" y1="101.91" x2="223.824" y2="297.304" gradientUnits="userSpaceOnUse">
<stop stop-color="white"/>
<stop offset="1" stop-color="#F2EDED" stop-opacity="0"/>
</linearGradient>
<linearGradient id="paint92_linear_21_17084" x1="335.57" y1="101.91" x2="223.839" y2="297.304" gradientUnits="userSpaceOnUse">
<stop stop-color="white"/>
<stop offset="1" stop-color="#F2EDED" stop-opacity="0"/>
</linearGradient>
<linearGradient id="paint93_linear_21_17084" x1="228.054" y1="233.43" x2="227.498" y2="294.378" gradientUnits="userSpaceOnUse">
<stop stop-color="#EEFFFF" stop-opacity="0"/>
<stop offset="1" stop-color="#B5EBFB"/>
</linearGradient>
<linearGradient id="paint94_linear_21_17084" x1="315.407" y1="223.631" x2="149.421" y2="174.53" gradientUnits="userSpaceOnUse">
<stop stop-color="#5EA6B7"/>
<stop offset="1" stop-color="#5F9CAA"/>
</linearGradient>
</defs>
</svg>
