<svg width="454" height="379" viewBox="0 0 454 379" fill="none" xmlns="http://www.w3.org/2000/svg">
<path d="M134.129 323.351V217.777H321.98V322.428C321.98 323.464 321.423 324.421 320.522 324.933L228.289 377.356C227.403 377.859 226.317 377.857 225.432 377.35L135.578 325.851C134.682 325.338 134.129 324.384 134.129 323.351Z" fill="#84B7C4"/>
<path fill-rule="evenodd" clip-rule="evenodd" d="M188.726 217.777V356.313L135.578 325.851C134.682 325.338 134.129 324.384 134.129 323.351V217.777H188.726Z" fill="#6B9BAA"/>
<path fill-rule="evenodd" clip-rule="evenodd" d="M186.875 355.252V217.777H188.726V356.313L186.875 355.252Z" fill="#B0D2DD"/>
<path fill-rule="evenodd" clip-rule="evenodd" d="M267.383 216.861V355.396L320.531 324.935C321.427 324.421 321.98 323.467 321.98 322.435V216.861H267.383Z" fill="#6B9BAA"/>
<path fill-rule="evenodd" clip-rule="evenodd" d="M269.234 354.335V216.861H267.383V355.396L269.234 354.335Z" fill="#B0D2DD"/>
<path d="M76.9072 224.433C77.6891 225.012 82.4546 235.924 84.7396 241.308L86.0899 247.592C81.7329 244.616 72.6028 237.8 70.9386 234.353C69.2744 230.906 69.3375 222.682 69.5771 219.002L76.9072 224.433Z" fill="url(#paint0_linear_21_16256)"/>
<path d="M100.409 80.3041C100.37 75.2429 103.977 69.863 107.386 63.3312C108.427 63.2976 112.602 70.2153 105.512 94.4018L102.225 101.781C101.173 106.536 100.516 101.017 99.3308 96.8674C99.5224 87.196 100.457 86.6307 100.409 80.3041Z" fill="url(#paint1_linear_21_16256)"/>
<path d="M125.701 68.3465C127.328 67.5386 134.24 64.1051 144.614 63.4882L144.614 63.4883C143.639 64.779 140.836 68.4897 130.835 74.6669C129.29 75.0314 121.804 75.524 118.019 74.4808C117.173 75.0621 118.113 73.7957 118.383 72.9894C120.956 69.3596 124.075 69.1544 125.701 68.3465Z" fill="url(#paint2_linear_21_16256)"/>
<path fill-rule="evenodd" clip-rule="evenodd" d="M82.5013 151.025C92.8129 107.165 117.09 70.3017 135.738 49.0032L136.552 49.6067C118.187 70.5834 95.8422 108.494 85.6713 151.756C75.5107 194.974 78.4827 244.159 112.509 289.394L109.898 291.32C75.1675 245.148 72.1794 194.928 82.5013 151.025Z" fill="url(#paint3_linear_21_16256)"/>
<path d="M125.849 56.3783L122 36.9197L119.441 40.3077C114.284 48.8164 117.343 54.8572 116.213 62.0717C115.309 67.8432 117.392 72.1713 118.505 72.8281L122.403 66.658L125.849 56.3783Z" fill="url(#paint4_linear_21_16256)"/>
<path fill-rule="evenodd" clip-rule="evenodd" d="M122.067 37.2573C121.071 45.9538 119.998 56.4162 120.726 59.1247C121.389 61.5892 120.248 67.1969 118.896 72.2082L118.505 72.8281C117.392 72.1712 115.309 67.8432 116.213 62.0717C116.594 59.6366 116.499 57.3353 116.403 55.0276C116.214 50.4982 116.025 45.9445 119.441 40.3077L122 36.9197L122.067 37.2573Z" fill="url(#paint5_linear_21_16256)"/>
<path d="M97.2179 166.261C98.3221 164.261 101.865 151.588 103.499 145.501L101.547 146.067C89.9637 156.357 89.1193 164.538 86.6858 170.787C84.2523 177.036 75.4349 186.355 80.2334 184.375C85.0319 182.394 95.8376 168.761 97.2179 166.261Z" fill="url(#paint6_linear_21_16256)"/>
<path fill-rule="evenodd" clip-rule="evenodd" d="M103.269 146.354C99.2146 152.712 93.5224 162.154 91.3203 167.679C89.2597 172.848 84.463 179.671 80.5703 184.222C80.455 184.278 80.3426 184.33 80.2334 184.375C77.4478 185.524 79.2506 182.866 81.7293 179.211C83.5206 176.57 85.6649 173.408 86.6858 170.787C87.1256 169.658 87.5135 168.465 87.9223 167.208C89.7753 161.512 92.0571 154.497 101.547 146.067L103.499 145.501C103.426 145.773 103.349 146.057 103.269 146.354Z" fill="url(#paint7_linear_21_16256)"/>
<path d="M88.903 120.09C87.9541 115.965 84.5353 108.382 82.9446 105.107C80.7536 110.026 81.9771 112.442 80.0733 119.335C78.5503 124.849 83.6854 134.173 86.4433 138.146C87.6586 133.846 89.852 124.215 88.903 120.09Z" fill="url(#paint8_linear_21_16256)"/>
<path fill-rule="evenodd" clip-rule="evenodd" d="M88.8044 119.676C88.8404 119.818 88.8739 119.956 88.9048 120.09C89.8538 124.215 87.6604 133.846 86.445 138.146C85.4681 136.738 84.1928 134.66 83.0209 132.317C84.2405 127.464 86.7345 122.83 88.8044 119.676Z" fill="url(#paint9_linear_21_16256)"/>
<path d="M98.496 80.1457C98.2324 77.5348 95.0952 71.7546 93.5596 69.1909C92.1552 74.1894 88.7311 79.9559 88.3754 88.4992C88.2284 92.0313 93.7383 104.383 96.9053 110.169L97.9995 106.702C95.8733 98.0808 98.8254 83.4093 98.496 80.1457Z" fill="url(#paint10_linear_21_16256)"/>
<path d="M112.036 105.274C117.369 101.98 120.701 93.578 121.7 89.7889C112.39 95.7236 109.377 93.9945 101.822 103.997L99.2255 110.125C101.273 109.881 106.702 108.569 112.036 105.274Z" fill="url(#paint11_linear_21_16256)"/>
<path d="M77.9828 172.893C74.7479 162.646 63.0297 155.355 57.5755 153.495C64.0674 172.144 68.2529 167.948 72.2878 173.706C75.5158 178.312 78.304 180.428 78.8059 180.549L77.9828 172.893Z" fill="url(#paint12_linear_21_16256)"/>
<path d="M74.1322 151.419C73.0231 149.39 63.8088 138.067 59.3403 132.659C61.5125 145.592 63.8837 154.897 67.2658 159.165C69.9715 162.578 75.5968 173.473 78.0712 178.494C78.3141 177.5 78.8074 174.963 78.8372 172.771C78.8746 170.031 75.5187 153.956 74.1322 151.419Z" fill="url(#paint13_linear_21_16256)"/>
<path d="M97.1693 192.897C91.122 198.481 85.5532 209.285 83.5246 213.988L82.9675 224.144C86.6784 220.016 94.4084 210.88 95.6409 207.365C96.8735 203.85 97.1734 196.255 97.1693 192.897Z" fill="url(#paint14_linear_21_16256)"/>
<path d="M74.2181 188.975C73.7924 186.848 69.6663 181.996 67.6565 179.835C66.6028 183.248 64.9777 191.791 66.9065 198.655C68.8353 205.519 75.2089 211.768 78.1546 214.035C78.737 213.376 79.5756 211.615 78.2715 209.844C76.6414 207.629 74.7503 191.634 74.2181 188.975Z" fill="url(#paint15_linear_21_16256)"/>
<path fill-rule="evenodd" clip-rule="evenodd" d="M77.7067 213.68C72.5321 203.973 69.1053 188.985 67.5844 180.074C67.6087 179.992 67.6327 179.912 67.6565 179.835C69.6663 181.996 73.7924 186.848 74.2181 188.975C74.3511 189.64 74.5691 191.138 74.8467 193.046C75.6795 198.77 77.0489 208.183 78.2715 209.844C79.5756 211.615 78.737 213.376 78.1546 214.035C78.0129 213.926 77.8633 213.807 77.7067 213.68Z" fill="url(#paint16_linear_21_16256)"/>
<path d="M73.846 249.34C75.7659 248.951 83.1635 249.786 86.6224 250.252L87.1086 248.599C85.8328 247.821 82.3204 245.655 78.4766 243.21C74.6329 240.764 67.7357 243.303 64.7676 244.878C66.9937 246.528 71.9261 249.729 73.846 249.34Z" fill="url(#paint17_linear_21_16256)"/>
<path d="M143.148 28.4318C144.903 26.1086 155.428 22.9368 160.472 21.6412L155.807 33.5343C154.589 35.1476 151.135 38.9799 147.069 41.4026C143.004 43.8253 137.327 48.3587 135.729 50.362L134.752 49.6379C135.759 41.5774 140.954 31.3358 143.148 28.4318Z" fill="url(#paint18_linear_21_16256)"/>
<path fill-rule="evenodd" clip-rule="evenodd" d="M135.889 49.4752C138.543 43.4685 151.906 29.5521 159.961 21.7736C160.136 21.7275 160.306 21.6833 160.47 21.6412L155.806 33.5342C154.587 35.1476 151.134 38.9799 147.068 41.4025C143.003 43.8252 137.367 48.6406 135.769 50.6439L135.889 49.4752Z" fill="url(#paint19_linear_21_16256)"/>
<g filter="url(#filter0_d_21_16256)">
<path d="M128.162 59.854C128.877 59.1761 135.649 52.8203 147.559 51.3281C146.938 53.7198 143.046 59.7102 140.056 63.1309C137.066 66.5517 125.422 70.3209 119.023 71.9539C122.949 66.6435 127.447 60.5318 128.162 59.854Z" fill="url(#paint20_linear_21_16256)"/>
<path fill-rule="evenodd" clip-rule="evenodd" d="M147.408 51.8092C147.47 51.6361 147.521 51.4753 147.559 51.3281C135.649 52.8202 128.877 59.1761 128.162 59.8539C127.506 60.4762 123.661 65.6781 119.997 70.6354C119.67 71.078 119.344 71.5186 119.023 71.9539C119.505 71.8309 120.017 71.6957 120.552 71.5495C128.959 66.4201 140.715 57.2726 147.408 51.8092Z" fill="url(#paint21_linear_21_16256)"/>
</g>
<path fill-rule="evenodd" clip-rule="evenodd" d="M107.255 63.5823C107.388 64.6878 107.466 65.997 107.391 67.3597C107.192 70.9867 102.752 100.408 101.372 102.908C101.281 103.073 101.192 103.209 101.104 103.318C100.774 102.738 100.449 101.37 100.08 99.8192C99.8508 98.8578 99.6051 97.8259 99.3313 96.8672C99.4314 91.8168 99.7342 89.2496 99.9938 87.0485C100.231 85.0344 100.433 83.3269 100.41 80.304C100.821 75.2442 102.807 71.6646 105.304 67.1662C105.928 66.0415 106.584 64.8594 107.255 63.5823Z" fill="url(#paint22_linear_21_16256)"/>
<path fill-rule="evenodd" clip-rule="evenodd" d="M97.2598 109.045C94.7531 103.969 92.878 97.0133 93.2553 88.0894C93.6683 78.32 93.584 72.8394 93.3319 69.9548C93.4125 69.6981 93.4886 69.4435 93.5596 69.1909C95.0952 71.7546 98.2324 77.5348 98.496 80.1457C98.6014 81.1899 98.3708 83.4021 98.0782 86.2102C97.4562 92.1786 96.5536 100.839 97.9995 106.702L97.2598 109.045Z" fill="url(#paint23_linear_21_16256)"/>
<path fill-rule="evenodd" clip-rule="evenodd" d="M121.636 89.8292C118.607 91.7543 116.247 92.8681 114.177 93.8445C109.919 95.8536 106.894 97.2809 101.822 103.997L99.2253 110.125C99.3199 110.114 99.4216 110.1 99.5302 110.084C107.701 105.354 117.157 95.2515 121.636 89.8292Z" fill="url(#paint24_linear_21_16256)"/>
<g filter="url(#filter1_d_21_16256)">
<path d="M95.5741 115.974C96.3882 116.242 96.366 115.986 98.7076 116.534C107.221 118.528 118.343 111.528 122.902 105.021L114.56 104.628C101.866 104.482 96.7082 111.782 95.5741 115.974Z" fill="url(#paint25_linear_21_16256)"/>
<path fill-rule="evenodd" clip-rule="evenodd" d="M122.694 105.312C122.765 105.215 122.834 105.118 122.902 105.021L114.561 104.628C101.866 104.482 96.7081 111.782 95.574 115.974C95.6045 115.984 95.6337 115.993 95.662 116.002C101.249 111.795 115.236 107.331 122.694 105.312Z" fill="url(#paint26_linear_21_16256)"/>
</g>
<g filter="url(#filter2_d_21_16256)">
<path d="M82.0715 123.081C80.7674 121.309 71.3709 111.797 66.8357 107.263C66.3717 127.049 75.2076 132.841 77.0018 136.183C81.2805 141.618 84.3377 146.316 85.4373 147.215L85.9609 142.822C85.2078 136.979 83.3757 124.852 82.0715 123.081Z" fill="url(#paint27_linear_21_16256)"/>
<path fill-rule="evenodd" clip-rule="evenodd" d="M66.8315 107.572C66.5368 123.307 72.1565 130.099 75.288 133.884C76.045 134.799 76.6567 135.538 77.0042 136.185C78.9549 138.663 80.6517 140.988 82.0248 142.869C83.4185 144.778 84.4787 146.231 85.1327 146.923C84.379 137.33 73.5042 118.115 66.8315 107.572Z" fill="url(#paint28_linear_21_16256)"/>
</g>
<path fill-rule="evenodd" clip-rule="evenodd" d="M78.724 174.622C74.602 164.625 65.2541 144.869 59.3955 132.722C63.8834 138.155 73.0297 149.397 74.1345 151.418C75.5209 153.955 78.8768 170.03 78.8395 172.77C78.8312 173.374 78.7878 174.005 78.724 174.622Z" fill="url(#paint29_linear_21_16256)"/>
<g filter="url(#filter3_d_21_16256)">
<path d="M80.2576 168.537C80.8327 159.703 85.4463 152.922 87.6812 150.636L87.9721 155.632C91.9589 168.651 83.9057 179.627 79.3808 183.488C79.4334 182.185 79.6825 177.37 80.2576 168.537Z" fill="url(#paint30_linear_21_16256)"/>
<path fill-rule="evenodd" clip-rule="evenodd" d="M87.624 150.696C85.2633 155.311 83.0929 163.815 82.6287 178.851C81.4629 180.582 80.4494 182.067 79.5703 183.324C79.5065 183.38 79.4433 183.435 79.3808 183.488C79.4335 182.185 79.6826 177.371 80.2576 168.537C80.8278 159.778 85.3685 153.038 87.624 150.696Z" fill="url(#paint31_linear_21_16256)"/>
</g>
<path fill-rule="evenodd" clip-rule="evenodd" d="M78.5928 180.451C75.6857 171.741 64.1025 159.61 57.6465 153.689C62.0296 166.204 65.3596 168.305 68.3049 170.163C69.6957 171.041 71.0008 171.864 72.2904 173.704C75.1974 177.852 77.7478 179.981 78.5928 180.451Z" fill="url(#paint32_linear_21_16256)"/>
<path d="M135.728 49.3548C129.904 55.6078 114.627 74.7347 103.035 97.3469C94.7148 113.577 90.92 119.572 82.7575 150.764C80.8271 158.141 77.0773 177.052 77.5208 193.686C76.8691 204.191 78.6418 231.959 90.9457 258.991C94.4542 266.791 103.198 284.073 110.107 290.802" stroke="#FADA81" stroke-width="0.844684"/>
<g filter="url(#filter4_d_21_16256)">
<path d="M81.6318 195.977C83.8225 190.807 83.994 186.908 84.6709 185.9C88.6299 196.13 89.4965 206.083 89.7837 208.057C90.0135 209.636 84.603 219.064 81.869 223.58L78.6325 205.33C79.886 198.962 79.0354 202.106 81.6318 195.977Z" fill="url(#paint33_linear_21_16256)"/>
<path fill-rule="evenodd" clip-rule="evenodd" d="M85.0788 186.982C84.9466 186.622 84.8107 186.261 84.6709 185.9C84.4022 186.3 84.2132 187.155 83.9459 188.365C83.5397 190.203 82.953 192.859 81.6318 195.977C80.3207 199.072 79.8886 199.802 79.6206 200.587C79.3579 201.356 79.253 202.177 78.6325 205.33L81.7927 223.15C85.2297 215.191 85.4692 197.075 85.0788 186.982Z" fill="url(#paint34_linear_21_16256)"/>
</g>
<g filter="url(#filter5_d_21_16256)">
<path d="M66.8688 198.373C64.0646 194.282 57.2864 192.112 54.2479 191.538C53.273 192.829 57.8687 202.441 60.2884 207.085C61.2927 207.662 64.1727 209.41 67.6583 211.791C71.1439 214.172 76.4088 214.333 78.6056 214.115C75.8617 210.572 69.673 202.464 66.8688 198.373Z" fill="url(#paint35_linear_21_16256)"/>
<path fill-rule="evenodd" clip-rule="evenodd" d="M77.0829 214.185C77.6766 214.183 78.1948 214.156 78.6056 214.115C75.8618 210.572 69.673 202.464 66.8688 198.373C64.0646 194.282 57.2864 192.112 54.2479 191.538C54.2211 191.573 54.1986 191.615 54.18 191.663C56.5048 196.145 62.9201 204.016 77.0829 214.185Z" fill="url(#paint36_linear_21_16256)"/>
</g>
<g filter="url(#filter6_d_21_16256)">
<path d="M82.0889 237.081C78.278 234.861 66.8554 234.265 61.6204 234.244C68.427 244.068 69.5225 241.609 74.8569 245.31C79.1244 248.27 83.9308 246.078 85.8006 244.612C86.1513 243.026 85.8999 239.3 82.0889 237.081Z" fill="url(#paint37_linear_21_16256)"/>
<path fill-rule="evenodd" clip-rule="evenodd" d="M85.8762 244.149C75.1509 237.54 66.3546 234.995 61.6741 234.322C66.3699 241.085 68.3358 241.972 70.883 243.122C72.0019 243.627 73.2328 244.183 74.8565 245.309C75.2129 245.557 75.5731 245.768 75.9351 245.947C76.8028 246.212 77.6568 246.468 78.4909 246.713C81.5849 247.099 84.4537 245.667 85.8001 244.611C85.8307 244.473 85.8567 244.318 85.8762 244.149Z" fill="url(#paint38_linear_21_16256)"/>
</g>
<path d="M377.093 225.387C376.311 225.967 371.545 236.879 369.26 242.262L367.91 248.547C372.267 245.57 381.397 238.755 383.061 235.307C384.725 231.86 384.662 223.637 384.423 219.956L377.093 225.387Z" fill="url(#paint39_linear_21_16256)"/>
<path d="M353.591 81.2584C353.629 76.1972 350.023 70.8173 346.614 64.2855C345.572 64.252 341.397 71.1696 348.488 95.356L351.774 102.735C352.826 107.491 353.484 101.971 354.669 97.8216C354.477 88.1502 353.542 87.5849 353.591 81.2584Z" fill="url(#paint40_linear_21_16256)"/>
<path d="M328.299 69.3006C326.672 68.4927 319.76 65.0592 309.386 64.4423L309.386 64.4424C310.361 65.7331 313.163 69.4438 323.164 75.621C324.71 75.9855 332.196 76.4781 335.981 75.4349C336.826 76.0162 335.887 74.7498 335.616 73.9435C333.044 70.3137 329.925 70.1085 328.299 69.3006Z" fill="url(#paint41_linear_21_16256)"/>
<path fill-rule="evenodd" clip-rule="evenodd" d="M371.499 151.98C361.187 108.12 336.909 71.2572 318.262 49.9588L317.448 50.5622C335.813 71.539 358.158 109.45 368.328 152.711C378.489 195.929 375.517 245.114 341.491 290.349L344.101 292.275C378.832 246.103 381.82 195.884 371.499 151.98Z" fill="url(#paint42_linear_21_16256)"/>
<path d="M328.151 57.3327L332 37.874L334.559 41.262C339.715 49.7708 336.656 55.8117 337.787 63.0261C338.691 68.7977 336.608 73.1258 335.495 73.7826L331.597 67.6125L328.151 57.3327Z" fill="url(#paint43_linear_21_16256)"/>
<path fill-rule="evenodd" clip-rule="evenodd" d="M331.933 38.2118C332.928 46.9082 334.002 57.3706 333.274 60.0791C332.611 62.5436 333.751 68.1516 335.104 73.163L335.495 73.7826C336.608 73.1258 338.691 68.7977 337.787 63.0261C337.405 60.5911 337.501 58.2897 337.597 55.982C337.785 51.4526 337.975 46.8989 334.559 41.262L332 37.874L331.933 38.2118Z" fill="url(#paint44_linear_21_16256)"/>
<path d="M356.78 167.215C355.676 165.215 352.133 152.542 350.5 146.455L352.452 147.021C364.035 157.311 364.879 165.492 367.313 171.741C369.746 177.99 378.563 187.309 373.765 185.329C368.966 183.348 358.161 169.715 356.78 167.215Z" fill="url(#paint45_linear_21_16256)"/>
<path fill-rule="evenodd" clip-rule="evenodd" d="M350.73 147.311C354.784 153.669 360.475 163.109 362.677 168.633C364.737 173.801 369.534 180.624 373.426 185.175C373.542 185.232 373.655 185.283 373.765 185.329C376.55 186.478 374.748 183.82 372.269 180.165C370.478 177.524 368.333 174.363 367.313 171.741C366.873 170.612 366.485 169.419 366.076 168.163C364.223 162.466 361.941 155.451 352.452 147.021L350.5 146.455C350.573 146.728 350.65 147.013 350.73 147.311Z" fill="url(#paint46_linear_21_16256)"/>
<path d="M365.095 121.046C366.044 116.92 369.463 109.338 371.054 106.062C373.245 110.981 372.021 113.398 373.925 120.291C375.448 125.805 370.313 135.129 367.555 139.102C366.34 134.802 364.147 125.171 365.095 121.046Z" fill="url(#paint47_linear_21_16256)"/>
<path fill-rule="evenodd" clip-rule="evenodd" d="M365.196 120.632C365.16 120.774 365.126 120.912 365.095 121.046C364.146 125.171 366.34 134.802 367.555 139.102C368.532 137.694 369.807 135.616 370.979 133.273C369.76 128.42 367.266 123.786 365.196 120.632Z" fill="url(#paint48_linear_21_16256)"/>
<path d="M355.503 81.1C355.766 78.4891 358.904 72.709 360.439 70.1453C361.844 75.1437 365.268 80.9102 365.623 89.4535C365.77 92.9856 360.261 105.337 357.094 111.123L355.999 107.656C358.125 99.035 355.173 84.3636 355.503 81.1Z" fill="url(#paint49_linear_21_16256)"/>
<path d="M341.966 106.229C336.632 102.934 333.3 94.5323 332.301 90.7432C341.611 96.678 344.624 94.9488 352.179 104.951L354.776 111.08C352.728 110.835 347.3 109.523 341.966 106.229Z" fill="url(#paint50_linear_21_16256)"/>
<path d="M376.016 173.848C379.251 163.6 390.969 156.31 396.423 154.449C389.931 173.099 385.746 168.903 381.711 174.66C378.483 179.266 375.694 181.383 375.193 181.503L376.016 173.848Z" fill="url(#paint51_linear_21_16256)"/>
<path d="M379.868 152.373C380.977 150.344 390.191 139.021 394.659 133.613C392.487 146.546 390.116 155.851 386.734 160.119C384.028 163.533 378.403 174.427 375.929 179.448C375.686 178.454 375.192 175.917 375.163 173.725C375.125 170.985 378.481 154.911 379.868 152.373Z" fill="url(#paint52_linear_21_16256)"/>
<path d="M356.829 193.851C362.876 199.435 368.445 210.239 370.474 214.943L371.031 225.098C367.32 220.97 359.59 211.835 358.357 208.319C357.125 204.804 356.825 197.209 356.829 193.851Z" fill="url(#paint53_linear_21_16256)"/>
<path d="M379.782 189.93C380.207 187.803 384.333 182.951 386.343 180.791C387.397 184.204 389.022 192.746 387.093 199.61C385.164 206.475 378.791 212.724 375.845 214.99C375.263 214.331 374.424 212.571 375.728 210.799C377.358 208.585 379.249 192.589 379.782 189.93Z" fill="url(#paint54_linear_21_16256)"/>
<path fill-rule="evenodd" clip-rule="evenodd" d="M376.293 214.636C381.468 204.928 384.894 189.941 386.415 181.03C386.391 180.948 386.367 180.868 386.343 180.791C384.333 182.951 380.207 187.803 379.782 189.93C379.649 190.595 379.431 192.093 379.153 194.002C378.32 199.726 376.951 209.138 375.728 210.799C374.424 212.571 375.263 214.331 375.845 214.99C375.987 214.881 376.137 214.763 376.293 214.636Z" fill="url(#paint55_linear_21_16256)"/>
<path d="M380.154 250.294C378.234 249.905 370.836 250.74 367.377 251.206L366.891 249.553C368.167 248.775 371.679 246.609 375.523 244.164C379.367 241.718 386.264 244.257 389.232 245.832C387.006 247.482 382.074 250.683 380.154 250.294Z" fill="url(#paint56_linear_21_16256)"/>
<path d="M310.851 29.3859C309.096 27.0628 298.57 23.8909 293.527 22.5953L298.191 34.4884C299.41 36.1018 302.863 39.9341 306.929 42.3568C310.995 44.7794 316.672 49.3129 318.269 51.3162L319.247 50.592C318.239 42.5315 313.044 32.2899 310.851 29.3859Z" fill="url(#paint57_linear_21_16256)"/>
<path fill-rule="evenodd" clip-rule="evenodd" d="M318.109 50.4293C315.456 44.4226 302.092 30.5062 294.038 22.7277C293.862 22.6816 293.692 22.6374 293.528 22.5953L298.192 34.4883C299.411 36.1017 302.865 39.934 306.93 42.3566C310.996 44.7793 316.632 49.5947 318.23 51.598L318.109 50.4293Z" fill="url(#paint58_linear_21_16256)"/>
<g filter="url(#filter7_d_21_16256)">
<path d="M325.838 60.8083C325.123 60.1305 318.351 53.7746 306.441 52.2825C307.062 54.6741 310.954 60.6645 313.944 64.0853C316.934 67.506 328.578 71.2753 334.977 72.9083C331.051 67.5978 326.553 61.4862 325.838 60.8083Z" fill="url(#paint59_linear_21_16256)"/>
<path fill-rule="evenodd" clip-rule="evenodd" d="M306.592 52.7638C306.53 52.5906 306.479 52.4297 306.441 52.2824C318.351 53.7746 325.123 60.1304 325.838 60.8083C326.494 61.4306 330.339 66.6324 334.003 71.5897C334.33 72.0323 334.656 72.473 334.977 72.9082C334.495 72.7852 333.984 72.6501 333.448 72.5039C325.041 67.3746 313.285 58.2272 306.592 52.7638Z" fill="url(#paint60_linear_21_16256)"/>
</g>
<path fill-rule="evenodd" clip-rule="evenodd" d="M346.747 64.5396C346.614 65.6447 346.536 66.9533 346.611 68.3153C346.81 71.9423 351.249 101.364 352.63 103.864C352.72 104.028 352.809 104.163 352.896 104.272C353.226 103.691 353.551 102.324 353.921 100.774C354.149 99.8122 354.395 98.7803 354.669 97.8216C354.569 92.7712 354.266 90.204 354.006 88.0028C353.769 85.9888 353.567 84.2812 353.591 81.2584C353.179 76.1986 351.193 72.619 348.697 68.1206C348.073 66.9967 347.418 65.8155 346.747 64.5396Z" fill="url(#paint61_linear_21_16256)"/>
<path fill-rule="evenodd" clip-rule="evenodd" d="M356.738 109.998C359.245 104.921 361.119 97.9663 360.742 89.0438C360.329 79.2694 360.413 73.7881 360.666 70.9048C360.585 70.6495 360.51 70.3964 360.439 70.1453C358.904 72.709 355.766 78.4891 355.503 81.1C355.397 82.1442 355.628 84.3564 355.921 87.1645C356.543 93.1328 357.445 101.793 355.999 107.656L356.738 109.998Z" fill="url(#paint62_linear_21_16256)"/>
<path fill-rule="evenodd" clip-rule="evenodd" d="M332.37 90.7869C335.397 92.7109 337.757 93.8243 339.826 94.8005C344.084 96.8095 347.109 98.2369 352.181 104.953L354.778 111.081C354.685 111.07 354.585 111.056 354.478 111.041C346.308 106.313 336.852 96.2115 332.37 90.7869Z" fill="url(#paint63_linear_21_16256)"/>
<g filter="url(#filter8_d_21_16256)">
<path d="M358.43 116.927C357.616 117.194 357.639 116.939 355.297 117.487C346.783 119.48 335.662 112.481 331.103 105.973L339.444 105.58C352.138 105.435 357.296 112.734 358.43 116.927Z" fill="url(#paint64_linear_21_16256)"/>
<path fill-rule="evenodd" clip-rule="evenodd" d="M331.309 106.263C331.239 106.166 331.17 106.07 331.103 105.974L339.444 105.581C352.138 105.435 357.296 112.735 358.43 116.927C358.4 116.937 358.371 116.946 358.343 116.954C352.757 112.747 338.768 108.283 331.309 106.263Z" fill="url(#paint65_linear_21_16256)"/>
</g>
<g filter="url(#filter9_d_21_16256)">
<path d="M371.929 124.035C373.233 122.264 382.63 112.752 387.165 108.217C387.629 128.003 378.793 133.795 376.999 137.138C372.72 142.573 369.663 147.27 368.563 148.169L368.04 143.776C368.793 137.934 370.625 125.807 371.929 124.035Z" fill="url(#paint66_linear_21_16256)"/>
<path fill-rule="evenodd" clip-rule="evenodd" d="M387.17 108.527C387.464 124.259 381.845 131.051 378.713 134.835C377.956 135.75 377.345 136.489 376.997 137.137C375.047 139.614 373.35 141.939 371.977 143.82C370.584 145.728 369.524 147.18 368.87 147.873C369.626 138.279 380.498 119.069 387.17 108.527Z" fill="url(#paint67_linear_21_16256)"/>
</g>
<path fill-rule="evenodd" clip-rule="evenodd" d="M375.279 175.577C379.402 165.58 388.749 145.825 394.608 133.678C390.12 139.111 380.974 150.352 379.869 152.374C378.483 154.911 375.127 170.985 375.164 173.725C375.172 174.33 375.216 174.96 375.279 175.577Z" fill="url(#paint68_linear_21_16256)"/>
<g filter="url(#filter10_d_21_16256)">
<path d="M373.744 169.491C373.169 160.657 368.555 153.876 366.32 151.59L366.029 156.586C362.042 169.606 370.095 180.581 374.62 184.442C374.568 183.139 374.319 178.324 373.744 169.491Z" fill="url(#paint69_linear_21_16256)"/>
<path fill-rule="evenodd" clip-rule="evenodd" d="M366.376 151.65C368.737 156.265 370.907 164.769 371.371 179.805C372.537 181.537 373.551 183.021 374.43 184.278C374.494 184.334 374.557 184.389 374.619 184.442C374.567 183.139 374.317 178.325 373.742 169.491C373.172 160.732 368.631 153.992 366.376 151.65Z" fill="url(#paint70_linear_21_16256)"/>
</g>
<path fill-rule="evenodd" clip-rule="evenodd" d="M375.408 181.406C378.316 172.696 389.899 160.565 396.354 154.644C391.971 167.159 388.641 169.26 385.696 171.118C384.305 171.996 383 172.819 381.711 174.659C378.804 178.807 376.254 180.936 375.408 181.406Z" fill="url(#paint71_linear_21_16256)"/>
<path d="M318.271 50.3089C324.095 56.5619 339.373 75.6888 350.965 98.301C359.285 114.531 363.08 120.526 371.242 151.718C373.173 159.095 376.922 178.007 376.479 194.64C377.131 205.145 375.358 232.913 363.054 259.945C359.546 267.745 350.801 285.027 343.893 291.756" stroke="#FADA81" stroke-width="0.844684"/>
<g filter="url(#filter11_d_21_16256)">
<path d="M372.369 196.932C370.178 191.762 370.006 187.863 369.33 186.854C365.371 197.085 364.504 207.037 364.217 209.011C363.987 210.591 369.398 220.019 372.132 224.535L375.368 206.285C374.115 199.916 374.965 203.06 372.369 196.932Z" fill="url(#paint72_linear_21_16256)"/>
<path fill-rule="evenodd" clip-rule="evenodd" d="M368.921 187.94C369.053 187.579 369.189 187.217 369.33 186.854C369.598 187.255 369.787 188.11 370.055 189.32C370.461 191.158 371.048 193.814 372.369 196.932C373.68 200.027 374.112 200.757 374.38 201.542C374.643 202.311 374.748 203.132 375.368 206.285L372.208 224.106C368.77 216.149 368.53 198.035 368.921 187.94Z" fill="url(#paint73_linear_21_16256)"/>
</g>
<g filter="url(#filter12_d_21_16256)">
<path d="M387.132 199.327C389.937 195.237 396.715 193.066 399.753 192.492C400.728 193.783 396.133 203.395 393.713 208.039C392.709 208.616 389.829 210.364 386.343 212.745C382.857 215.127 377.592 215.287 375.396 215.069C378.139 211.526 384.328 203.418 387.132 199.327Z" fill="url(#paint74_linear_21_16256)"/>
<path fill-rule="evenodd" clip-rule="evenodd" d="M376.918 215.14C376.325 215.137 375.806 215.11 375.396 215.069C378.139 211.526 384.328 203.418 387.132 199.327C389.937 195.237 396.715 193.066 399.753 192.492C399.78 192.527 399.803 192.569 399.821 192.617C397.496 197.1 391.081 204.97 376.918 215.14Z" fill="url(#paint75_linear_21_16256)"/>
</g>
<g filter="url(#filter13_d_21_16256)">
<path d="M371.91 238.035C375.721 235.815 387.143 235.219 392.378 235.198C385.572 245.022 384.476 242.563 379.142 246.264C374.874 249.224 370.068 247.032 368.198 245.566C367.847 243.98 368.099 240.254 371.91 238.035Z" fill="url(#paint76_linear_21_16256)"/>
<path fill-rule="evenodd" clip-rule="evenodd" d="M368.123 245.103C378.849 238.494 387.645 235.949 392.325 235.276C387.63 242.039 385.664 242.926 383.116 244.076C381.998 244.581 380.767 245.137 379.143 246.263C378.787 246.511 378.426 246.722 378.064 246.901C377.197 247.166 376.343 247.422 375.509 247.667C372.415 248.054 369.546 246.621 368.199 245.565C368.169 245.427 368.143 245.272 368.123 245.103Z" fill="url(#paint77_linear_21_16256)"/>
</g>
<g filter="url(#filter14_d_21_16256)">
<path d="M322.378 187.564L322.378 148.164L416.303 148.164C416.303 172.789 398.727 187.564 384.446 187.564L322.378 187.564Z" fill="url(#paint78_linear_21_16256)"/>
<path d="M322.378 187.564L322.378 148.164L416.303 148.164C416.303 172.789 398.727 187.564 384.446 187.564L322.378 187.564Z" stroke="url(#paint79_linear_21_16256)" stroke-width="2.29412"/>
<path d="M289.228 222.585L289.228 183.186L383.153 183.186C383.153 207.811 365.577 222.585 351.295 222.585L289.228 222.585Z" fill="url(#paint80_linear_21_16256)"/>
<path d="M289.228 222.585L289.228 183.186L383.153 183.186C383.153 207.811 365.577 222.585 351.295 222.585L289.228 222.585Z" stroke="url(#paint81_linear_21_16256)" stroke-width="2.29412"/>
<path d="M112.456 187.564L112.456 148.164L18.5301 148.164C18.5301 172.789 36.1068 187.564 50.3879 187.564L112.456 187.564Z" fill="url(#paint82_linear_21_16256)"/>
<path d="M112.456 187.564L112.456 148.164L18.5301 148.164C18.5301 172.789 36.1068 187.564 50.3879 187.564L112.456 187.564Z" stroke="url(#paint83_linear_21_16256)" stroke-width="2.29412"/>
<path d="M145.606 222.585L145.606 183.186L51.6805 183.186C51.6805 207.811 69.2572 222.585 83.5382 222.585L145.606 222.585Z" fill="url(#paint84_linear_21_16256)"/>
<path d="M145.606 222.585L145.606 183.186L51.6805 183.186C51.6805 207.811 69.2572 222.585 83.5382 222.585L145.606 222.585Z" stroke="url(#paint85_linear_21_16256)" stroke-width="2.29412"/>
<path d="M219.509 59.9587L116.092 115.678C110.587 118.644 107.155 124.392 107.155 130.644L107.155 257.761C107.155 264.014 110.587 269.761 116.092 272.727L219.509 328.447C224.543 331.159 230.602 331.159 235.636 328.447L339.053 272.727C344.558 269.761 347.99 264.014 347.99 257.761L347.99 130.644C347.99 124.392 344.558 118.644 339.053 115.678L235.636 59.9587C230.602 57.2467 224.543 57.2467 219.509 59.9587Z" fill="url(#paint86_linear_21_16256)"/>
<path d="M219.395 80.9331L134.361 126.748C128.878 129.702 125.459 135.429 125.459 141.657L125.458 246.266C125.458 252.495 128.878 258.221 134.361 261.176L219.395 306.991C224.41 309.692 230.446 309.692 235.461 306.991L320.495 261.176C325.978 258.221 329.397 252.495 329.397 246.266L329.397 141.657C329.397 135.429 325.978 129.702 320.495 126.748L235.461 80.9331C230.446 78.2313 224.41 78.2313 219.395 80.9331Z" fill="url(#paint87_linear_21_16256)"/>
<g filter="url(#filter15_f_21_16256)">
<path d="M219.395 80.9331L134.361 126.748C128.878 129.702 125.459 135.429 125.459 141.657L125.458 246.266C125.458 252.495 128.878 258.221 134.361 261.176L219.395 306.991C224.41 309.692 230.446 309.692 235.461 306.991L320.495 261.176C325.978 258.221 329.397 252.495 329.397 246.266L329.397 141.657C329.397 135.429 325.978 129.702 320.495 126.748L235.461 80.9331C230.446 78.2313 224.41 78.2313 219.395 80.9331Z" stroke="url(#paint88_linear_21_16256)"/>
</g>
<g opacity="0.5">
<mask id="mask0_21_16256" style="mask-type:alpha" maskUnits="userSpaceOnUse" x="134" y="88" width="188" height="212">
<path d="M220.418 90.2567L142.603 132.145C137.384 134.954 134.129 140.403 134.129 146.33L134.129 241.966C134.129 247.893 137.383 253.342 142.603 256.151L220.418 298.039C225.185 300.606 230.923 300.606 235.69 298.039L313.506 256.151C318.725 253.342 321.98 247.893 321.98 241.966L321.98 146.33C321.98 140.403 318.725 134.954 313.506 132.145L235.69 90.2567C230.923 87.6905 225.185 87.6905 220.418 90.2567Z" fill="#A6D3DE"/>
</mask>
<g mask="url(#mask0_21_16256)">
<path d="M220.418 90.2567L142.603 132.145C137.384 134.954 134.129 140.403 134.129 146.33L134.129 241.966C134.129 247.893 137.383 253.342 142.603 256.151L220.418 298.039C225.185 300.606 230.923 300.606 235.69 298.039L313.506 256.151C318.725 253.342 321.98 247.893 321.98 241.966L321.98 146.33C321.98 140.403 318.725 134.954 313.506 132.145L235.69 90.2567C230.923 87.6905 225.185 87.6905 220.418 90.2567Z" fill="url(#paint89_radial_21_16256)"/>
<path opacity="0.5" d="M212.352 306.416L208.621 81.8689H247.487L243.756 306.416H212.352Z" fill="url(#paint90_linear_21_16256)"/>
<path opacity="0.5" d="M211.852 304.425L95.2629 111.809L128.922 92.5619L239.049 288.873L211.852 304.425Z" fill="url(#paint91_linear_21_16256)"/>
<path opacity="0.5" d="M208.614 288.873L318.741 92.5615L352.399 111.808L235.81 304.424L208.614 288.873Z" fill="url(#paint92_linear_21_16256)"/>
<rect x="134.129" y="181.311" width="187.851" height="120.828" fill="url(#paint93_linear_21_16256)"/>
<g filter="url(#filter16_i_21_16256)">
<path d="M220.418 90.2567L142.603 132.145C137.384 134.954 134.129 140.403 134.129 146.33L134.129 241.966C134.129 247.893 137.383 253.342 142.603 256.151L220.418 298.039C225.185 300.606 230.923 300.606 235.69 298.039L313.506 256.151C318.725 253.342 321.98 247.893 321.98 241.966L321.98 146.33C321.98 140.403 318.725 134.954 313.506 132.145L235.69 90.2567C230.923 87.6905 225.185 87.6905 220.418 90.2567Z" fill="#AFF5F1" fill-opacity="0.03"/>
</g>
</g>
</g>
<g filter="url(#filter17_i_21_16256)">
<path d="M185.282 178.013C185.282 179.733 184.809 181.281 183.863 182.657C182.946 184.033 181.599 185.137 179.821 185.968C178.044 186.799 175.908 187.244 173.414 187.301V190.741H170.748V187.215C167.423 186.9 164.728 185.896 162.664 184.205C160.6 182.514 159.468 180.192 159.267 177.239H169.415C169.501 178.414 169.946 179.217 170.748 179.647V175.433C168.254 174.745 166.276 174.114 164.814 173.541C163.381 172.968 162.077 172.022 160.901 170.703C159.755 169.384 159.181 167.593 159.181 165.328C159.181 163.465 159.697 161.859 160.729 160.512C161.761 159.136 163.152 158.075 164.9 157.33C166.649 156.585 168.598 156.169 170.748 156.083V152.6H173.414V156.083C176.826 156.312 179.52 157.273 181.498 158.964C183.476 160.627 184.566 162.934 184.766 165.887H174.489C174.375 164.798 174.016 164.067 173.414 163.694V167.865C174.418 168.152 174.891 168.295 174.833 168.295C176.983 168.954 178.746 169.614 180.122 170.273C181.527 170.904 182.731 171.85 183.734 173.111C184.766 174.372 185.282 176.006 185.282 178.013ZM169.415 164.898C169.415 165.643 169.86 166.274 170.748 166.79V163.35C169.86 163.522 169.415 164.038 169.415 164.898ZM173.414 180.034C174.532 179.805 175.091 179.203 175.091 178.228C175.091 177.483 174.532 176.852 173.414 176.336V180.034ZM211.17 163.952H198.7V167.564C199.245 167.077 199.947 166.69 200.807 166.403C201.696 166.116 202.685 165.973 203.774 165.973C205.723 165.973 207.372 166.432 208.719 167.349C210.066 168.266 211.07 169.499 211.729 171.047C212.388 172.566 212.718 174.258 212.718 176.121C212.718 179.561 211.743 182.241 209.794 184.162C207.873 186.054 205.222 187 201.839 187C199.374 187 197.238 186.57 195.432 185.71C193.655 184.85 192.293 183.66 191.347 182.141C190.43 180.622 190 178.887 190.057 176.938H199.345C199.345 177.397 199.503 177.827 199.818 178.228C200.133 178.629 200.649 178.83 201.366 178.83C202.083 178.83 202.613 178.572 202.957 178.056C203.301 177.54 203.473 176.838 203.473 175.949C203.473 175.118 203.272 174.487 202.871 174.057C202.498 173.627 201.954 173.412 201.237 173.412C200.635 173.412 200.176 173.555 199.861 173.842C199.546 174.129 199.388 174.458 199.388 174.831H190.1V155.567H211.17V163.952ZM215.391 170.832C215.391 165.873 216.437 161.974 218.53 159.136C220.651 156.298 223.905 154.879 228.291 154.879C232.648 154.879 235.887 156.312 238.009 159.179C240.13 162.017 241.191 165.901 241.191 170.832C241.191 175.791 240.13 179.704 238.009 182.571C235.887 185.409 232.648 186.828 228.291 186.828C223.905 186.828 220.651 185.409 218.53 182.571C216.437 179.704 215.391 175.791 215.391 170.832ZM231.774 170.832C231.774 168.539 231.544 166.819 231.086 165.672C230.627 164.497 229.695 163.909 228.291 163.909C226.857 163.909 225.911 164.497 225.453 165.672C224.994 166.819 224.765 168.539 224.765 170.832C224.765 173.154 224.994 174.903 225.453 176.078C225.911 177.225 226.857 177.798 228.291 177.798C229.695 177.798 230.627 177.225 231.086 176.078C231.544 174.903 231.774 173.154 231.774 170.832ZM243.431 170.832C243.431 165.873 244.478 161.974 246.57 159.136C248.692 156.298 251.945 154.879 256.331 154.879C260.689 154.879 263.928 156.312 266.049 159.179C268.171 162.017 269.231 165.901 269.231 170.832C269.231 175.791 268.171 179.704 266.049 182.571C263.928 185.409 260.689 186.828 256.331 186.828C251.945 186.828 248.692 185.409 246.57 182.571C244.478 179.704 243.431 175.791 243.431 170.832ZM259.814 170.832C259.814 168.539 259.585 166.819 259.126 165.672C258.668 164.497 257.736 163.909 256.331 163.909C254.898 163.909 253.952 164.497 253.493 165.672C253.035 166.819 252.805 168.539 252.805 170.832C252.805 173.154 253.035 174.903 253.493 176.078C253.952 177.225 254.898 177.798 256.331 177.798C257.736 177.798 258.668 177.225 259.126 176.078C259.585 174.903 259.814 173.154 259.814 170.832ZM271.472 170.832C271.472 165.873 272.518 161.974 274.611 159.136C276.732 156.298 279.986 154.879 284.372 154.879C288.729 154.879 291.969 156.312 294.09 159.179C296.211 162.017 297.272 165.901 297.272 170.832C297.272 175.791 296.211 179.704 294.09 182.571C291.969 185.409 288.729 186.828 284.372 186.828C279.986 186.828 276.732 185.409 274.611 182.571C272.518 179.704 271.472 175.791 271.472 170.832ZM287.855 170.832C287.855 168.539 287.626 166.819 287.167 165.672C286.708 164.497 285.777 163.909 284.372 163.909C282.939 163.909 281.993 164.497 281.534 165.672C281.075 166.819 280.846 168.539 280.846 170.832C280.846 173.154 281.075 174.903 281.534 176.078C281.993 177.225 282.939 177.798 284.372 177.798C285.777 177.798 286.708 177.225 287.167 176.078C287.626 174.903 287.855 173.154 287.855 170.832ZM173.368 207.836C174.563 208.116 175.487 208.695 176.14 209.572C176.812 210.431 177.148 211.429 177.148 212.568C177.148 214.304 176.569 215.648 175.412 216.6C174.273 217.533 172.631 218 170.484 218H160.096V198.176H170.204C172.22 198.176 173.807 198.615 174.964 199.492C176.121 200.369 176.7 201.648 176.7 203.328C176.7 204.485 176.392 205.465 175.776 206.268C175.179 207.052 174.376 207.575 173.368 207.836ZM166.312 205.904H168.72C169.28 205.904 169.691 205.792 169.952 205.568C170.232 205.344 170.372 204.999 170.372 204.532C170.372 204.047 170.232 203.692 169.952 203.468C169.691 203.225 169.28 203.104 168.72 203.104H166.312V205.904ZM169.14 213.016C169.7 213.016 170.111 212.913 170.372 212.708C170.652 212.484 170.792 212.129 170.792 211.644C170.792 210.692 170.241 210.216 169.14 210.216H166.312V213.016H169.14ZM194.245 209.964C194.245 210.393 194.217 210.804 194.161 211.196H184.165C184.258 212.559 184.827 213.24 185.873 213.24C186.545 213.24 187.03 212.932 187.329 212.316H193.909C193.685 213.436 193.209 214.444 192.481 215.34C191.771 216.217 190.866 216.917 189.765 217.44C188.682 217.944 187.487 218.196 186.181 218.196C184.613 218.196 183.213 217.869 181.981 217.216C180.767 216.563 179.815 215.629 179.125 214.416C178.453 213.184 178.117 211.747 178.117 210.104C178.117 208.461 178.453 207.033 179.125 205.82C179.815 204.588 180.767 203.645 181.981 202.992C183.213 202.339 184.613 202.012 186.181 202.012C187.749 202.012 189.139 202.339 190.353 202.992C191.585 203.627 192.537 204.541 193.209 205.736C193.899 206.931 194.245 208.34 194.245 209.964ZM187.945 208.48C187.945 207.957 187.777 207.565 187.441 207.304C187.105 207.024 186.685 206.884 186.181 206.884C185.079 206.884 184.435 207.416 184.249 208.48H187.945ZM202.959 218.196C201.465 218.196 200.14 217.953 198.983 217.468C197.844 216.983 196.939 216.311 196.267 215.452C195.595 214.593 195.212 213.623 195.119 212.54H201.083C201.157 213.007 201.353 213.352 201.671 213.576C202.007 213.8 202.427 213.912 202.931 213.912C203.248 213.912 203.5 213.847 203.687 213.716C203.873 213.567 203.967 213.389 203.967 213.184C203.967 212.829 203.771 212.577 203.379 212.428C202.987 212.279 202.324 212.111 201.391 211.924C200.252 211.7 199.309 211.457 198.563 211.196C197.835 210.935 197.191 210.487 196.631 209.852C196.089 209.217 195.819 208.34 195.819 207.22C195.819 206.249 196.071 205.372 196.575 204.588C197.097 203.785 197.863 203.16 198.871 202.712C199.879 202.245 201.101 202.012 202.539 202.012C204.667 202.012 206.328 202.535 207.523 203.58C208.736 204.625 209.464 205.988 209.707 207.668H204.191C204.097 207.239 203.901 206.912 203.603 206.688C203.304 206.445 202.903 206.324 202.399 206.324C202.081 206.324 201.839 206.389 201.671 206.52C201.503 206.632 201.419 206.809 201.419 207.052C201.419 207.369 201.615 207.612 202.007 207.78C202.399 207.929 203.024 208.088 203.883 208.256C205.021 208.48 205.983 208.732 206.767 209.012C207.551 209.292 208.232 209.777 208.811 210.468C209.389 211.14 209.679 212.073 209.679 213.268C209.679 214.201 209.408 215.041 208.867 215.788C208.325 216.535 207.541 217.123 206.515 217.552C205.507 217.981 204.321 218.196 202.959 218.196ZM221.693 212.708V218H219.341C215.011 218 212.845 215.844 212.845 211.532V207.388H210.885V202.208H212.845V198.4H219.061V202.208H221.637V207.388H219.061V211.644C219.061 212.017 219.145 212.288 219.313 212.456C219.5 212.624 219.799 212.708 220.209 212.708H221.693ZM244.471 204.98C244.471 206.231 244.181 207.369 243.603 208.396C243.024 209.404 242.165 210.207 241.027 210.804C239.907 211.401 238.544 211.7 236.939 211.7H234.475V218H228.259V198.176H236.939C239.365 198.176 241.223 198.792 242.511 200.024C243.817 201.256 244.471 202.908 244.471 204.98ZM236.239 206.8C237.527 206.8 238.171 206.193 238.171 204.98C238.171 203.767 237.527 203.16 236.239 203.16H234.475V206.8H236.239ZM252.378 205.12C253.013 204.205 253.787 203.477 254.702 202.936C255.617 202.376 256.569 202.096 257.558 202.096V208.732H255.794C254.618 208.732 253.75 208.937 253.19 209.348C252.649 209.759 252.378 210.487 252.378 211.532V218H246.162V202.208H252.378V205.12ZM262.088 200.948C261.006 200.948 260.138 200.659 259.484 200.08C258.831 199.501 258.504 198.773 258.504 197.896C258.504 197 258.831 196.263 259.484 195.684C260.138 195.087 261.006 194.788 262.088 194.788C263.152 194.788 264.011 195.087 264.664 195.684C265.318 196.263 265.644 197 265.644 197.896C265.644 198.773 265.318 199.501 264.664 200.08C264.011 200.659 263.152 200.948 262.088 200.948ZM265.168 202.208V218H258.952V202.208H265.168ZM273.66 212.848H280.24V218H266.856V213.128L272.876 207.36H266.94V202.208H279.96V207.08L273.66 212.848ZM297.196 209.964C297.196 210.393 297.168 210.804 297.112 211.196H287.116C287.209 212.559 287.779 213.24 288.824 213.24C289.496 213.24 289.981 212.932 290.28 212.316H296.86C296.636 213.436 296.16 214.444 295.432 215.34C294.723 216.217 293.817 216.917 292.716 217.44C291.633 217.944 290.439 218.196 289.132 218.196C287.564 218.196 286.164 217.869 284.932 217.216C283.719 216.563 282.767 215.629 282.076 214.416C281.404 213.184 281.068 211.747 281.068 210.104C281.068 208.461 281.404 207.033 282.076 205.82C282.767 204.588 283.719 203.645 284.932 202.992C286.164 202.339 287.564 202.012 289.132 202.012C290.7 202.012 292.091 202.339 293.304 202.992C294.536 203.627 295.488 204.541 296.16 205.736C296.851 206.931 297.196 208.34 297.196 209.964ZM290.896 208.48C290.896 207.957 290.728 207.565 290.392 207.304C290.056 207.024 289.636 206.884 289.132 206.884C288.031 206.884 287.387 207.416 287.2 208.48H290.896ZM165.213 224.672L162.621 236H158.205L156.893 229.568L155.581 236H151.165L148.573 224.672H152.397L153.421 231.808L154.957 224.672H158.829L160.365 231.808L161.389 224.672H165.213ZM175.063 231.408C175.063 231.653 175.047 231.888 175.015 232.112H169.303C169.356 232.891 169.681 233.28 170.279 233.28C170.663 233.28 170.94 233.104 171.111 232.752H174.871C174.743 233.392 174.471 233.968 174.055 234.48C173.649 234.981 173.132 235.381 172.503 235.68C171.884 235.968 171.201 236.112 170.455 236.112C169.559 236.112 168.759 235.925 168.055 235.552C167.361 235.179 166.817 234.645 166.423 233.952C166.039 233.248 165.847 232.427 165.847 231.488C165.847 230.549 166.039 229.733 166.423 229.04C166.817 228.336 167.361 227.797 168.055 227.424C168.759 227.051 169.559 226.864 170.455 226.864C171.351 226.864 172.145 227.051 172.839 227.424C173.543 227.787 174.087 228.309 174.471 228.992C174.865 229.675 175.063 230.48 175.063 231.408ZM171.463 230.56C171.463 230.261 171.367 230.037 171.175 229.888C170.983 229.728 170.743 229.648 170.455 229.648C169.825 229.648 169.457 229.952 169.351 230.56H171.463ZM179.578 228.208C179.802 227.792 180.122 227.467 180.538 227.232C180.965 226.987 181.472 226.864 182.058 226.864C182.762 226.864 183.397 227.051 183.962 227.424C184.528 227.787 184.97 228.32 185.29 229.024C185.621 229.717 185.786 230.539 185.786 231.488C185.786 232.437 185.621 233.264 185.29 233.968C184.97 234.661 184.528 235.195 183.962 235.568C183.397 235.931 182.762 236.112 182.058 236.112C181.472 236.112 180.965 235.995 180.538 235.76C180.122 235.515 179.802 235.184 179.578 234.768V236H176.026V224.16H179.578V228.208ZM182.186 231.488C182.186 231.008 182.064 230.635 181.818 230.368C181.573 230.101 181.258 229.968 180.874 229.968C180.49 229.968 180.176 230.101 179.93 230.368C179.685 230.635 179.562 231.008 179.562 231.488C179.562 231.968 179.685 232.341 179.93 232.608C180.176 232.875 180.49 233.008 180.874 233.008C181.258 233.008 181.573 232.875 181.818 232.608C182.064 232.341 182.186 231.968 182.186 231.488ZM186.389 233.168C187.819 232.101 188.949 231.136 189.781 230.272C190.613 229.397 191.029 228.581 191.029 227.824C191.029 227.568 190.971 227.371 190.853 227.232C190.747 227.093 190.603 227.024 190.421 227.024C190.208 227.024 190.037 227.136 189.909 227.36C189.792 227.573 189.749 227.904 189.781 228.352H186.341C186.373 227.36 186.587 226.544 186.981 225.904C187.387 225.264 187.909 224.795 188.549 224.496C189.189 224.197 189.893 224.048 190.661 224.048C192.027 224.048 193.024 224.379 193.653 225.04C194.293 225.691 194.613 226.528 194.613 227.552C194.613 228.629 194.267 229.643 193.573 230.592C192.891 231.531 192.032 232.325 190.997 232.976H194.661V235.84H186.389V233.168ZM202.62 229.072V232H195.164V229.072H202.62ZM221.022 224.672L218.43 236H214.014L212.702 229.568L211.39 236H206.974L204.382 224.672H208.206L209.23 231.808L210.766 224.672H214.638L216.174 231.808L217.198 224.672H221.022ZM230.872 231.408C230.872 231.653 230.856 231.888 230.824 232.112H225.112C225.166 232.891 225.491 233.28 226.088 233.28C226.472 233.28 226.75 233.104 226.92 232.752H230.68C230.552 233.392 230.28 233.968 229.864 234.48C229.459 234.981 228.942 235.381 228.312 235.68C227.694 235.968 227.011 236.112 226.264 236.112C225.368 236.112 224.568 235.925 223.864 235.552C223.171 235.179 222.627 234.645 222.232 233.952C221.848 233.248 221.656 232.427 221.656 231.488C221.656 230.549 221.848 229.733 222.232 229.04C222.627 228.336 223.171 227.797 223.864 227.424C224.568 227.051 225.368 226.864 226.264 226.864C227.16 226.864 227.955 227.051 228.648 227.424C229.352 227.787 229.896 228.309 230.28 228.992C230.675 229.675 230.872 230.48 230.872 231.408ZM227.272 230.56C227.272 230.261 227.176 230.037 226.984 229.888C226.792 229.728 226.552 229.648 226.264 229.648C225.635 229.648 225.267 229.952 225.16 230.56H227.272ZM235.388 228.208C235.612 227.792 235.932 227.467 236.348 227.232C236.774 226.987 237.281 226.864 237.868 226.864C238.572 226.864 239.206 227.051 239.772 227.424C240.337 227.787 240.78 228.32 241.1 229.024C241.43 229.717 241.596 230.539 241.596 231.488C241.596 232.437 241.43 233.264 241.1 233.968C240.78 234.661 240.337 235.195 239.772 235.568C239.206 235.931 238.572 236.112 237.868 236.112C237.281 236.112 236.774 235.995 236.348 235.76C235.932 235.515 235.612 235.184 235.388 234.768V236H231.836V224.16H235.388V228.208ZM237.996 231.488C237.996 231.008 237.873 230.635 237.628 230.368C237.382 230.101 237.068 229.968 236.684 229.968C236.3 229.968 235.985 230.101 235.74 230.368C235.494 230.635 235.372 231.008 235.372 231.488C235.372 231.968 235.494 232.341 235.74 232.608C235.985 232.875 236.3 233.008 236.684 233.008C237.068 233.008 237.382 232.875 237.628 232.608C237.873 232.341 237.996 231.968 237.996 231.488ZM242.471 227.968C242.503 226.699 242.871 225.728 243.575 225.056C244.289 224.384 245.297 224.048 246.599 224.048C247.441 224.048 248.161 224.192 248.759 224.48C249.356 224.768 249.804 225.157 250.103 225.648C250.412 226.139 250.567 226.693 250.567 227.312C250.567 228.059 250.391 228.645 250.039 229.072C249.687 229.488 249.292 229.771 248.855 229.92V229.984C250.135 230.464 250.775 231.355 250.775 232.656C250.775 233.339 250.615 233.941 250.295 234.464C249.975 234.987 249.516 235.392 248.919 235.68C248.332 235.968 247.633 236.112 246.823 236.112C245.436 236.112 244.348 235.781 243.559 235.12C242.769 234.459 242.364 233.424 242.343 232.016H245.799C245.777 232.4 245.831 232.693 245.959 232.896C246.097 233.088 246.332 233.184 246.663 233.184C246.855 233.184 247.015 233.115 247.143 232.976C247.271 232.827 247.335 232.635 247.335 232.4C247.335 232.101 247.233 231.877 247.031 231.728C246.839 231.568 246.508 231.488 246.039 231.488H245.447V228.624H246.023C246.748 228.667 247.111 228.379 247.111 227.76C247.111 227.493 247.052 227.296 246.935 227.168C246.828 227.04 246.689 226.976 246.519 226.976C246.124 226.976 245.927 227.307 245.927 227.968H242.471ZM262.377 230.192C263.06 230.352 263.588 230.683 263.961 231.184C264.345 231.675 264.537 232.245 264.537 232.896C264.537 233.888 264.206 234.656 263.545 235.2C262.894 235.733 261.956 236 260.729 236H254.793V224.672H260.569C261.721 224.672 262.628 224.923 263.289 225.424C263.95 225.925 264.281 226.656 264.281 227.616C264.281 228.277 264.105 228.837 263.753 229.296C263.412 229.744 262.953 230.043 262.377 230.192ZM258.345 229.088H259.721C260.041 229.088 260.276 229.024 260.425 228.896C260.585 228.768 260.665 228.571 260.665 228.304C260.665 228.027 260.585 227.824 260.425 227.696C260.276 227.557 260.041 227.488 259.721 227.488H258.345V229.088ZM259.961 233.152C260.281 233.152 260.516 233.093 260.665 232.976C260.825 232.848 260.905 232.645 260.905 232.368C260.905 231.824 260.59 231.552 259.961 231.552H258.345V233.152H259.961ZM269.123 228.64C269.485 228.117 269.928 227.701 270.451 227.392C270.973 227.072 271.517 226.912 272.083 226.912V230.704H271.075C270.403 230.704 269.907 230.821 269.587 231.056C269.277 231.291 269.123 231.707 269.123 232.304V236H265.571V226.976H269.123V228.64ZM274.671 226.256C274.053 226.256 273.557 226.091 273.183 225.76C272.81 225.429 272.623 225.013 272.623 224.512C272.623 224 272.81 223.579 273.183 223.248C273.557 222.907 274.053 222.736 274.671 222.736C275.279 222.736 275.77 222.907 276.143 223.248C276.517 223.579 276.703 224 276.703 224.512C276.703 225.013 276.517 225.429 276.143 225.76C275.77 226.091 275.279 226.256 274.671 226.256ZM276.431 226.976V236H272.879V226.976H276.431ZM277.396 231.488C277.396 230.539 277.556 229.717 277.876 229.024C278.206 228.32 278.654 227.787 279.22 227.424C279.785 227.051 280.42 226.864 281.124 226.864C281.71 226.864 282.212 226.987 282.628 227.232C283.054 227.467 283.38 227.792 283.604 228.208V224.16H287.156V236H283.604V234.768C283.38 235.184 283.054 235.515 282.628 235.76C282.212 235.995 281.71 236.112 281.124 236.112C280.42 236.112 279.785 235.931 279.22 235.568C278.654 235.195 278.206 234.661 277.876 233.968C277.556 233.264 277.396 232.437 277.396 231.488ZM283.62 231.488C283.62 231.008 283.497 230.635 283.252 230.368C283.006 230.101 282.692 229.968 282.308 229.968C281.924 229.968 281.609 230.101 281.364 230.368C281.118 230.635 280.996 231.008 280.996 231.488C280.996 231.968 281.118 232.341 281.364 232.608C281.609 232.875 281.924 233.008 282.308 233.008C282.692 233.008 283.006 232.875 283.252 232.608C283.497 232.341 283.62 231.968 283.62 231.488ZM291.839 226.864C292.425 226.864 292.932 226.987 293.359 227.232C293.785 227.467 294.111 227.792 294.335 228.208V226.976H297.871V235.84C297.871 236.683 297.716 237.451 297.407 238.144C297.097 238.837 296.596 239.392 295.903 239.808C295.22 240.224 294.34 240.432 293.263 240.432C291.812 240.432 290.66 240.091 289.807 239.408C288.964 238.736 288.484 237.819 288.367 236.656H291.855C291.951 237.125 292.335 237.36 293.007 237.36C293.423 237.36 293.748 237.253 293.983 237.04C294.217 236.827 294.335 236.427 294.335 235.84V234.768C294.111 235.184 293.785 235.515 293.359 235.76C292.932 235.995 292.425 236.112 291.839 236.112C291.135 236.112 290.5 235.931 289.935 235.568C289.369 235.195 288.921 234.661 288.591 233.968C288.271 233.264 288.111 232.437 288.111 231.488C288.111 230.539 288.271 229.717 288.591 229.024C288.921 228.32 289.369 227.787 289.935 227.424C290.5 227.051 291.135 226.864 291.839 226.864ZM294.335 231.488C294.335 231.008 294.212 230.635 293.967 230.368C293.721 230.101 293.407 229.968 293.023 229.968C292.639 229.968 292.324 230.101 292.079 230.368C291.833 230.635 291.711 231.008 291.711 231.488C291.711 231.968 291.833 232.341 292.079 232.608C292.324 232.875 292.639 233.008 293.023 233.008C293.407 233.008 293.721 232.875 293.967 232.608C294.212 232.341 294.335 231.968 294.335 231.488ZM308.042 231.408C308.042 231.653 308.026 231.888 307.994 232.112H302.282C302.335 232.891 302.66 233.28 303.258 233.28C303.642 233.28 303.919 233.104 304.09 232.752H307.85C307.722 233.392 307.45 233.968 307.034 234.48C306.628 234.981 306.111 235.381 305.482 235.68C304.863 235.968 304.18 236.112 303.434 236.112C302.538 236.112 301.738 235.925 301.034 235.552C300.34 235.179 299.796 234.645 299.402 233.952C299.018 233.248 298.826 232.427 298.826 231.488C298.826 230.549 299.018 229.733 299.402 229.04C299.796 228.336 300.34 227.797 301.034 227.424C301.738 227.051 302.538 226.864 303.434 226.864C304.33 226.864 305.124 227.051 305.818 227.424C306.522 227.787 307.066 228.309 307.45 228.992C307.844 229.675 308.042 230.48 308.042 231.408ZM304.442 230.56C304.442 230.261 304.346 230.037 304.154 229.888C303.962 229.728 303.722 229.648 303.434 229.648C302.804 229.648 302.436 229.952 302.33 230.56H304.442Z" fill="url(#paint94_linear_21_16256)"/>
</g>
</g>
<defs>
<filter id="filter0_d_21_16256" x="117.907" y="51.3281" width="30.7674" height="23.9727" filterUnits="userSpaceOnUse" color-interpolation-filters="sRGB">
<feFlood flood-opacity="0" result="BackgroundImageFix"/>
<feColorMatrix in="SourceAlpha" type="matrix" values="0 0 0 0 0 0 0 0 0 0 0 0 0 0 0 0 0 0 127 0" result="hardAlpha"/>
<feOffset dy="2.23124"/>
<feGaussianBlur stdDeviation="0.557811"/>
<feColorMatrix type="matrix" values="0 0 0 0 0.541667 0 0 0 0 0.336104 0 0 0 0 0.0947917 0 0 0 0.25 0"/>
<feBlend mode="normal" in2="BackgroundImageFix" result="effect1_dropShadow_21_16256"/>
<feBlend mode="normal" in="SourceGraphic" in2="effect1_dropShadow_21_16256" result="shape"/>
</filter>
<filter id="filter1_d_21_16256" x="94.4584" y="104.626" width="29.5589" height="15.6013" filterUnits="userSpaceOnUse" color-interpolation-filters="sRGB">
<feFlood flood-opacity="0" result="BackgroundImageFix"/>
<feColorMatrix in="SourceAlpha" type="matrix" values="0 0 0 0 0 0 0 0 0 0 0 0 0 0 0 0 0 0 127 0" result="hardAlpha"/>
<feOffset dy="2.23124"/>
<feGaussianBlur stdDeviation="0.557811"/>
<feColorMatrix type="matrix" values="0 0 0 0 0.541667 0 0 0 0 0.336104 0 0 0 0 0.0947917 0 0 0 0.25 0"/>
<feBlend mode="normal" in2="BackgroundImageFix" result="effect1_dropShadow_21_16256"/>
<feBlend mode="normal" in="SourceGraphic" in2="effect1_dropShadow_21_16256" result="shape"/>
</filter>
<filter id="filter2_d_21_16256" x="66.8181" y="107.263" width="22.4897" height="43.2988" filterUnits="userSpaceOnUse" color-interpolation-filters="sRGB">
<feFlood flood-opacity="0" result="BackgroundImageFix"/>
<feColorMatrix in="SourceAlpha" type="matrix" values="0 0 0 0 0 0 0 0 0 0 0 0 0 0 0 0 0 0 127 0" result="hardAlpha"/>
<feOffset dx="2.23124" dy="2.23124"/>
<feGaussianBlur stdDeviation="0.557811"/>
<feColorMatrix type="matrix" values="0 0 0 0 0.541667 0 0 0 0 0.336104 0 0 0 0 0.0947917 0 0 0 0.25 0"/>
<feBlend mode="normal" in2="BackgroundImageFix" result="effect1_dropShadow_21_16256"/>
<feBlend mode="normal" in="SourceGraphic" in2="effect1_dropShadow_21_16256" result="shape"/>
</filter>
<filter id="filter3_d_21_16256" x="78.2652" y="150.636" width="11.8977" height="36.1992" filterUnits="userSpaceOnUse" color-interpolation-filters="sRGB">
<feFlood flood-opacity="0" result="BackgroundImageFix"/>
<feColorMatrix in="SourceAlpha" type="matrix" values="0 0 0 0 0 0 0 0 0 0 0 0 0 0 0 0 0 0 127 0" result="hardAlpha"/>
<feOffset dy="2.23124"/>
<feGaussianBlur stdDeviation="0.557811"/>
<feColorMatrix type="matrix" values="0 0 0 0 0.541667 0 0 0 0 0.336104 0 0 0 0 0.0947917 0 0 0 0.25 0"/>
<feBlend mode="normal" in2="BackgroundImageFix" result="effect1_dropShadow_21_16256"/>
<feBlend mode="normal" in="SourceGraphic" in2="effect1_dropShadow_21_16256" result="shape"/>
</filter>
<filter id="filter4_d_21_16256" x="77.5169" y="185.9" width="13.3894" height="41.0275" filterUnits="userSpaceOnUse" color-interpolation-filters="sRGB">
<feFlood flood-opacity="0" result="BackgroundImageFix"/>
<feColorMatrix in="SourceAlpha" type="matrix" values="0 0 0 0 0 0 0 0 0 0 0 0 0 0 0 0 0 0 127 0" result="hardAlpha"/>
<feOffset dy="2.23124"/>
<feGaussianBlur stdDeviation="0.557811"/>
<feColorMatrix type="matrix" values="0 0 0 0 0.541667 0 0 0 0 0.336104 0 0 0 0 0.0947917 0 0 0 0.25 0"/>
<feBlend mode="normal" in2="BackgroundImageFix" result="effect1_dropShadow_21_16256"/>
<feBlend mode="normal" in="SourceGraphic" in2="effect1_dropShadow_21_16256" result="shape"/>
</filter>
<filter id="filter5_d_21_16256" x="54.1143" y="191.538" width="27.8383" height="25.9946" filterUnits="userSpaceOnUse" color-interpolation-filters="sRGB">
<feFlood flood-opacity="0" result="BackgroundImageFix"/>
<feColorMatrix in="SourceAlpha" type="matrix" values="0 0 0 0 0 0 0 0 0 0 0 0 0 0 0 0 0 0 127 0" result="hardAlpha"/>
<feOffset dx="2.23124" dy="2.23124"/>
<feGaussianBlur stdDeviation="0.557811"/>
<feColorMatrix type="matrix" values="0 0 0 0 0.541667 0 0 0 0 0.336104 0 0 0 0 0.0947917 0 0 0 0.25 0"/>
<feBlend mode="normal" in2="BackgroundImageFix" result="effect1_dropShadow_21_16256"/>
<feBlend mode="normal" in="SourceGraphic" in2="effect1_dropShadow_21_16256" result="shape"/>
</filter>
<filter id="filter6_d_21_16256" x="60.5047" y="234.244" width="26.5259" height="15.8808" filterUnits="userSpaceOnUse" color-interpolation-filters="sRGB">
<feFlood flood-opacity="0" result="BackgroundImageFix"/>
<feColorMatrix in="SourceAlpha" type="matrix" values="0 0 0 0 0 0 0 0 0 0 0 0 0 0 0 0 0 0 127 0" result="hardAlpha"/>
<feOffset dy="2.23124"/>
<feGaussianBlur stdDeviation="0.557811"/>
<feColorMatrix type="matrix" values="0 0 0 0 0.541667 0 0 0 0 0.336104 0 0 0 0 0.0947917 0 0 0 0.25 0"/>
<feBlend mode="normal" in2="BackgroundImageFix" result="effect1_dropShadow_21_16256"/>
<feBlend mode="normal" in="SourceGraphic" in2="effect1_dropShadow_21_16256" result="shape"/>
</filter>
<filter id="filter7_d_21_16256" x="305.326" y="52.2825" width="30.7674" height="23.9727" filterUnits="userSpaceOnUse" color-interpolation-filters="sRGB">
<feFlood flood-opacity="0" result="BackgroundImageFix"/>
<feColorMatrix in="SourceAlpha" type="matrix" values="0 0 0 0 0 0 0 0 0 0 0 0 0 0 0 0 0 0 127 0" result="hardAlpha"/>
<feOffset dy="2.23124"/>
<feGaussianBlur stdDeviation="0.557811"/>
<feColorMatrix type="matrix" values="0 0 0 0 0.541667 0 0 0 0 0.336104 0 0 0 0 0.0947917 0 0 0 0.25 0"/>
<feBlend mode="normal" in2="BackgroundImageFix" result="effect1_dropShadow_21_16256"/>
<feBlend mode="normal" in="SourceGraphic" in2="effect1_dropShadow_21_16256" result="shape"/>
</filter>
<filter id="filter8_d_21_16256" x="329.987" y="105.578" width="29.5589" height="15.601" filterUnits="userSpaceOnUse" color-interpolation-filters="sRGB">
<feFlood flood-opacity="0" result="BackgroundImageFix"/>
<feColorMatrix in="SourceAlpha" type="matrix" values="0 0 0 0 0 0 0 0 0 0 0 0 0 0 0 0 0 0 127 0" result="hardAlpha"/>
<feOffset dy="2.23124"/>
<feGaussianBlur stdDeviation="0.557811"/>
<feColorMatrix type="matrix" values="0 0 0 0 0.541667 0 0 0 0 0.336104 0 0 0 0 0.0947917 0 0 0 0.25 0"/>
<feBlend mode="normal" in2="BackgroundImageFix" result="effect1_dropShadow_21_16256"/>
<feBlend mode="normal" in="SourceGraphic" in2="effect1_dropShadow_21_16256" result="shape"/>
</filter>
<filter id="filter9_d_21_16256" x="368.04" y="108.217" width="22.4897" height="43.2988" filterUnits="userSpaceOnUse" color-interpolation-filters="sRGB">
<feFlood flood-opacity="0" result="BackgroundImageFix"/>
<feColorMatrix in="SourceAlpha" type="matrix" values="0 0 0 0 0 0 0 0 0 0 0 0 0 0 0 0 0 0 127 0" result="hardAlpha"/>
<feOffset dx="2.23124" dy="2.23124"/>
<feGaussianBlur stdDeviation="0.557811"/>
<feColorMatrix type="matrix" values="0 0 0 0 0.541667 0 0 0 0 0.336104 0 0 0 0 0.0947917 0 0 0 0.25 0"/>
<feBlend mode="normal" in2="BackgroundImageFix" result="effect1_dropShadow_21_16256"/>
<feBlend mode="normal" in="SourceGraphic" in2="effect1_dropShadow_21_16256" result="shape"/>
</filter>
<filter id="filter10_d_21_16256" x="363.838" y="151.59" width="11.8977" height="36.1992" filterUnits="userSpaceOnUse" color-interpolation-filters="sRGB">
<feFlood flood-opacity="0" result="BackgroundImageFix"/>
<feColorMatrix in="SourceAlpha" type="matrix" values="0 0 0 0 0 0 0 0 0 0 0 0 0 0 0 0 0 0 127 0" result="hardAlpha"/>
<feOffset dy="2.23124"/>
<feGaussianBlur stdDeviation="0.557811"/>
<feColorMatrix type="matrix" values="0 0 0 0 0.541667 0 0 0 0 0.336104 0 0 0 0 0.0947917 0 0 0 0.25 0"/>
<feBlend mode="normal" in2="BackgroundImageFix" result="effect1_dropShadow_21_16256"/>
<feBlend mode="normal" in="SourceGraphic" in2="effect1_dropShadow_21_16256" result="shape"/>
</filter>
<filter id="filter11_d_21_16256" x="363.094" y="186.854" width="13.3894" height="41.0275" filterUnits="userSpaceOnUse" color-interpolation-filters="sRGB">
<feFlood flood-opacity="0" result="BackgroundImageFix"/>
<feColorMatrix in="SourceAlpha" type="matrix" values="0 0 0 0 0 0 0 0 0 0 0 0 0 0 0 0 0 0 127 0" result="hardAlpha"/>
<feOffset dy="2.23124"/>
<feGaussianBlur stdDeviation="0.557811"/>
<feColorMatrix type="matrix" values="0 0 0 0 0.541667 0 0 0 0 0.336104 0 0 0 0 0.0947917 0 0 0 0.25 0"/>
<feBlend mode="normal" in2="BackgroundImageFix" result="effect1_dropShadow_21_16256"/>
<feBlend mode="normal" in="SourceGraphic" in2="effect1_dropShadow_21_16256" result="shape"/>
</filter>
<filter id="filter12_d_21_16256" x="375.396" y="192.492" width="27.8383" height="25.9946" filterUnits="userSpaceOnUse" color-interpolation-filters="sRGB">
<feFlood flood-opacity="0" result="BackgroundImageFix"/>
<feColorMatrix in="SourceAlpha" type="matrix" values="0 0 0 0 0 0 0 0 0 0 0 0 0 0 0 0 0 0 127 0" result="hardAlpha"/>
<feOffset dx="2.23124" dy="2.23124"/>
<feGaussianBlur stdDeviation="0.557811"/>
<feColorMatrix type="matrix" values="0 0 0 0 0.541667 0 0 0 0 0.336104 0 0 0 0 0.0947917 0 0 0 0.25 0"/>
<feBlend mode="normal" in2="BackgroundImageFix" result="effect1_dropShadow_21_16256"/>
<feBlend mode="normal" in="SourceGraphic" in2="effect1_dropShadow_21_16256" result="shape"/>
</filter>
<filter id="filter13_d_21_16256" x="366.968" y="235.198" width="26.5259" height="15.8808" filterUnits="userSpaceOnUse" color-interpolation-filters="sRGB">
<feFlood flood-opacity="0" result="BackgroundImageFix"/>
<feColorMatrix in="SourceAlpha" type="matrix" values="0 0 0 0 0 0 0 0 0 0 0 0 0 0 0 0 0 0 127 0" result="hardAlpha"/>
<feOffset dy="2.23124"/>
<feGaussianBlur stdDeviation="0.557811"/>
<feColorMatrix type="matrix" values="0 0 0 0 0.541667 0 0 0 0 0.336104 0 0 0 0 0.0947917 0 0 0 0.25 0"/>
<feBlend mode="normal" in2="BackgroundImageFix" result="effect1_dropShadow_21_16256"/>
<feBlend mode="normal" in="SourceGraphic" in2="effect1_dropShadow_21_16256" result="shape"/>
</filter>
<filter id="filter14_d_21_16256" x="11.3831" y="57.9247" width="412.067" height="286.556" filterUnits="userSpaceOnUse" color-interpolation-filters="sRGB">
<feFlood flood-opacity="0" result="BackgroundImageFix"/>
<feColorMatrix in="SourceAlpha" type="matrix" values="0 0 0 0 0 0 0 0 0 0 0 0 0 0 0 0 0 0 127 0" result="hardAlpha"/>
<feOffset dy="8"/>
<feGaussianBlur stdDeviation="3"/>
<feColorMatrix type="matrix" values="0 0 0 0 0.208958 0 0 0 0 0.389892 0 0 0 0 0.491667 0 0 0 0.54 0"/>
<feBlend mode="normal" in2="BackgroundImageFix" result="effect1_dropShadow_21_16256"/>
<feBlend mode="normal" in="SourceGraphic" in2="effect1_dropShadow_21_16256" result="shape"/>
</filter>
<filter id="filter15_f_21_16256" x="124.658" y="78.1067" width="205.539" height="231.71" filterUnits="userSpaceOnUse" color-interpolation-filters="sRGB">
<feFlood flood-opacity="0" result="BackgroundImageFix"/>
<feBlend mode="normal" in="SourceGraphic" in2="BackgroundImageFix" result="shape"/>
<feGaussianBlur stdDeviation="0.15" result="effect1_foregroundBlur_21_16256"/>
</filter>
<filter id="filter16_i_21_16256" x="134.129" y="88.332" width="187.851" height="211.632" filterUnits="userSpaceOnUse" color-interpolation-filters="sRGB">
<feFlood flood-opacity="0" result="BackgroundImageFix"/>
<feBlend mode="normal" in="SourceGraphic" in2="BackgroundImageFix" result="shape"/>
<feColorMatrix in="SourceAlpha" type="matrix" values="0 0 0 0 0 0 0 0 0 0 0 0 0 0 0 0 0 0 127 0" result="hardAlpha"/>
<feOffset/>
<feGaussianBlur stdDeviation="6.72414"/>
<feComposite in2="hardAlpha" operator="arithmetic" k2="-1" k3="1"/>
<feColorMatrix type="matrix" values="0 0 0 0 0.37849 0 0 0 0 0.586923 0 0 0 0 0.704167 0 0 0 1 0"/>
<feBlend mode="normal" in2="shape" result="effect1_innerShadow_21_16256"/>
</filter>
<filter id="filter17_i_21_16256" x="148.573" y="152.6" width="159.469" height="91.8318" filterUnits="userSpaceOnUse" color-interpolation-filters="sRGB">
<feFlood flood-opacity="0" result="BackgroundImageFix"/>
<feBlend mode="normal" in="SourceGraphic" in2="BackgroundImageFix" result="shape"/>
<feColorMatrix in="SourceAlpha" type="matrix" values="0 0 0 0 0 0 0 0 0 0 0 0 0 0 0 0 0 0 127 0" result="hardAlpha"/>
<feOffset dy="4"/>
<feGaussianBlur stdDeviation="2"/>
<feComposite in2="hardAlpha" operator="arithmetic" k2="-1" k3="1"/>
<feColorMatrix type="matrix" values="0 0 0 0 0 0 0 0 0 0 0 0 0 0 0 0 0 0 0.25 0"/>
<feBlend mode="normal" in2="shape" result="effect1_innerShadow_21_16256"/>
</filter>
<linearGradient id="paint0_linear_21_16256" x1="81.794" y1="228.054" x2="73.9211" y2="238.679" gradientUnits="userSpaceOnUse">
<stop stop-color="#D2AB68"/>
<stop offset="1" stop-color="#B67D3F"/>
</linearGradient>
<linearGradient id="paint1_linear_21_16256" x1="115.219" y1="69.101" x2="92.7733" y2="99.3943" gradientUnits="userSpaceOnUse">
<stop stop-color="#D2AB68"/>
<stop offset="1" stop-color="#B67D3F"/>
</linearGradient>
<linearGradient id="paint2_linear_21_16256" x1="138.555" y1="59.5017" x2="122.95" y2="80.5625" gradientUnits="userSpaceOnUse">
<stop stop-color="#D2AB68"/>
<stop offset="1" stop-color="#B67D3F"/>
</linearGradient>
<linearGradient id="paint3_linear_21_16256" x1="80.8811" y1="147.864" x2="89.2023" y2="151.336" gradientUnits="userSpaceOnUse">
<stop stop-color="#D2AB68"/>
<stop offset="1" stop-color="#B67D3F"/>
</linearGradient>
<linearGradient id="paint4_linear_21_16256" x1="133.885" y1="73.6559" x2="121.194" y2="47.9051" gradientUnits="userSpaceOnUse">
<stop stop-color="#D2AB68"/>
<stop offset="1" stop-color="#B67D3F"/>
</linearGradient>
<linearGradient id="paint5_linear_21_16256" x1="124.322" y1="44.609" x2="117.348" y2="71.8619" gradientUnits="userSpaceOnUse">
<stop stop-color="#F7E6B3"/>
<stop offset="1" stop-color="#F7E6B3" stop-opacity="0"/>
</linearGradient>
<linearGradient id="paint6_linear_21_16256" x1="105.65" y1="147.095" x2="78.2604" y2="184.061" gradientUnits="userSpaceOnUse">
<stop stop-color="#D2AB68"/>
<stop offset="1" stop-color="#B67D3F"/>
</linearGradient>
<linearGradient id="paint7_linear_21_16256" x1="99.4315" y1="151.363" x2="107.872" y2="174.496" gradientUnits="userSpaceOnUse">
<stop stop-color="#F7E6B3"/>
<stop offset="1" stop-color="#F7E6B3" stop-opacity="0"/>
</linearGradient>
<linearGradient id="paint8_linear_21_16256" x1="92.0665" y1="111.866" x2="77.5027" y2="131.521" gradientUnits="userSpaceOnUse">
<stop stop-color="#D2AB68"/>
<stop offset="1" stop-color="#B67D3F"/>
</linearGradient>
<linearGradient id="paint9_linear_21_16256" x1="89.3561" y1="123.192" x2="82.8274" y2="135.445" gradientUnits="userSpaceOnUse">
<stop stop-color="#C18E42"/>
<stop offset="1" stop-color="#D2AB68"/>
</linearGradient>
<linearGradient id="paint10_linear_21_16256" x1="104.555" y1="77.3378" x2="86.1393" y2="102.191" gradientUnits="userSpaceOnUse">
<stop stop-color="#D2AB68"/>
<stop offset="1" stop-color="#8E573C"/>
</linearGradient>
<linearGradient id="paint11_linear_21_16256" x1="119.305" y1="88.0146" x2="101.612" y2="111.894" gradientUnits="userSpaceOnUse">
<stop stop-color="#D2AB68"/>
<stop offset="1" stop-color="#B67D3F"/>
</linearGradient>
<linearGradient id="paint12_linear_21_16256" x1="71.477" y1="161.662" x2="64.9908" y2="170.416" gradientUnits="userSpaceOnUse">
<stop stop-color="#D2AB68"/>
<stop offset="1" stop-color="#B67D3F"/>
</linearGradient>
<linearGradient id="paint13_linear_21_16256" x1="76.4439" y1="145.332" x2="61.1579" y2="165.962" gradientUnits="userSpaceOnUse">
<stop stop-color="#C28766"/>
<stop offset="1" stop-color="#8E573C"/>
</linearGradient>
<linearGradient id="paint14_linear_21_16256" x1="100.233" y1="195.167" x2="80.2528" y2="222.132" gradientUnits="userSpaceOnUse">
<stop stop-color="#D2AB68"/>
<stop offset="1" stop-color="#B67D3F"/>
</linearGradient>
<linearGradient id="paint15_linear_21_16256" x1="79.306" y1="188.467" x2="66.668" y2="205.524" gradientUnits="userSpaceOnUse">
<stop stop-color="#D2AB68"/>
<stop offset="1" stop-color="#B67D3F"/>
</linearGradient>
<linearGradient id="paint16_linear_21_16256" x1="81.5562" y1="187.367" x2="66.6847" y2="207.437" gradientUnits="userSpaceOnUse">
<stop stop-color="#FADA81"/>
<stop offset="1" stop-color="#B67D3F"/>
</linearGradient>
<linearGradient id="paint17_linear_21_16256" x1="79.2899" y1="242.806" x2="73.1514" y2="251.09" gradientUnits="userSpaceOnUse">
<stop stop-color="#D2AB68"/>
<stop offset="1" stop-color="#B67D3F"/>
</linearGradient>
<linearGradient id="paint18_linear_21_16256" x1="157.947" y1="19.7705" x2="135.921" y2="49.4975" gradientUnits="userSpaceOnUse">
<stop stop-color="#FCF1D5"/>
<stop offset="1" stop-color="#EBCE6A"/>
</linearGradient>
<linearGradient id="paint19_linear_21_16256" x1="160.482" y1="21.6494" x2="138.455" y2="51.3765" gradientUnits="userSpaceOnUse">
<stop stop-color="#D2AB68"/>
<stop offset="1" stop-color="#B67D3F"/>
</linearGradient>
<linearGradient id="paint20_linear_21_16256" x1="144.362" y1="48.9593" x2="124.382" y2="75.9248" gradientUnits="userSpaceOnUse">
<stop stop-color="#D2AB68"/>
<stop offset="1" stop-color="#B67D3F"/>
</linearGradient>
<linearGradient id="paint21_linear_21_16256" x1="138.974" y1="51.442" x2="139.678" y2="77.2756" gradientUnits="userSpaceOnUse">
<stop stop-color="#F7E6B3"/>
<stop offset="1" stop-color="#F7E6B3" stop-opacity="0"/>
</linearGradient>
<linearGradient id="paint22_linear_21_16256" x1="109.194" y1="71.8856" x2="102.802" y2="102.916" gradientUnits="userSpaceOnUse">
<stop stop-color="#F7E6B3"/>
<stop offset="1" stop-color="#F7E6B3" stop-opacity="0"/>
</linearGradient>
<linearGradient id="paint23_linear_21_16256" x1="98.231" y1="78.4053" x2="88.0275" y2="104.767" gradientUnits="userSpaceOnUse">
<stop stop-color="#F7E6B3"/>
<stop offset="1" stop-color="#F7E6B3" stop-opacity="0"/>
</linearGradient>
<linearGradient id="paint24_linear_21_16256" x1="115.033" y1="90.6572" x2="115.452" y2="108.234" gradientUnits="userSpaceOnUse">
<stop stop-color="#FFDD78"/>
<stop offset="1" stop-color="#FFF1C8" stop-opacity="0.38"/>
</linearGradient>
<linearGradient id="paint25_linear_21_16256" x1="116.584" y1="100.34" x2="101.057" y2="121.295" gradientUnits="userSpaceOnUse">
<stop stop-color="#D2AB68"/>
<stop offset="1" stop-color="#B67D3F"/>
</linearGradient>
<linearGradient id="paint26_linear_21_16256" x1="116.843" y1="100.028" x2="97.9602" y2="119.296" gradientUnits="userSpaceOnUse">
<stop stop-color="#FFDA92"/>
<stop offset="1" stop-color="#DCBA84"/>
</linearGradient>
<linearGradient id="paint27_linear_21_16256" x1="72.5369" y1="111.487" x2="82.851" y2="141.718" gradientUnits="userSpaceOnUse">
<stop stop-color="#F7E6B3"/>
<stop offset="1" stop-color="#BC8647"/>
</linearGradient>
<linearGradient id="paint28_linear_21_16256" x1="82.2274" y1="118.979" x2="69.8904" y2="135.63" gradientUnits="userSpaceOnUse">
<stop stop-color="#D2AB68"/>
<stop offset="1" stop-color="#8E573C"/>
</linearGradient>
<linearGradient id="paint29_linear_21_16256" x1="68.5714" y1="143.796" x2="58.1551" y2="162.736" gradientUnits="userSpaceOnUse">
<stop stop-color="#F7E6B3"/>
<stop offset="1" stop-color="#F7E6B3" stop-opacity="0"/>
</linearGradient>
<linearGradient id="paint30_linear_21_16256" x1="93.1446" y1="154.684" x2="74.4884" y2="179.863" gradientUnits="userSpaceOnUse">
<stop stop-color="#D2AB68"/>
<stop offset="1" stop-color="#B67D3F"/>
</linearGradient>
<linearGradient id="paint31_linear_21_16256" x1="87.7145" y1="150.261" x2="79.3479" y2="181.822" gradientUnits="userSpaceOnUse">
<stop stop-color="#E0C087"/>
<stop offset="0.28125" stop-color="#FFE49E"/>
<stop offset="1" stop-color="#753C1D"/>
</linearGradient>
<linearGradient id="paint32_linear_21_16256" x1="65.6361" y1="161.957" x2="58.6109" y2="168.934" gradientUnits="userSpaceOnUse">
<stop stop-color="#B18253"/>
<stop offset="1" stop-color="#F7E6B3" stop-opacity="0"/>
</linearGradient>
<linearGradient id="paint33_linear_21_16256" x1="92.8969" y1="191.995" x2="73.8796" y2="217.661" gradientUnits="userSpaceOnUse">
<stop stop-color="#D2AB68"/>
<stop offset="1" stop-color="#B67D3F"/>
</linearGradient>
<linearGradient id="paint34_linear_21_16256" x1="87.2866" y1="193.943" x2="79.6848" y2="221.878" gradientUnits="userSpaceOnUse">
<stop stop-color="#F7E6B3"/>
<stop offset="1" stop-color="#F7E6B3" stop-opacity="0"/>
</linearGradient>
<linearGradient id="paint35_linear_21_16256" x1="69.0774" y1="199.317" x2="62.2466" y2="208.536" gradientUnits="userSpaceOnUse">
<stop stop-color="#D2AB68"/>
<stop offset="1" stop-color="#B67D3F"/>
</linearGradient>
<linearGradient id="paint36_linear_21_16256" x1="66.298" y1="197.447" x2="71.958" y2="211.059" gradientUnits="userSpaceOnUse">
<stop stop-color="#FADA81"/>
<stop offset="1" stop-color="#9A5E33"/>
</linearGradient>
<linearGradient id="paint37_linear_21_16256" x1="77.8869" y1="233.899" x2="70.7208" y2="243.57" gradientUnits="userSpaceOnUse">
<stop stop-color="#FADA81"/>
<stop offset="1" stop-color="#B67D3F"/>
</linearGradient>
<linearGradient id="paint38_linear_21_16256" x1="78.2117" y1="238.147" x2="70.1058" y2="249.087" gradientUnits="userSpaceOnUse">
<stop stop-color="#D2AB68"/>
<stop offset="1" stop-color="#B67D3F"/>
</linearGradient>
<linearGradient id="paint39_linear_21_16256" x1="372.206" y1="229.008" x2="380.079" y2="239.634" gradientUnits="userSpaceOnUse">
<stop stop-color="#D2AB68"/>
<stop offset="1" stop-color="#B67D3F"/>
</linearGradient>
<linearGradient id="paint40_linear_21_16256" x1="338.78" y1="70.0554" x2="361.226" y2="100.349" gradientUnits="userSpaceOnUse">
<stop stop-color="#D2AB68"/>
<stop offset="1" stop-color="#B67D3F"/>
</linearGradient>
<linearGradient id="paint41_linear_21_16256" x1="315.445" y1="60.4558" x2="331.05" y2="81.5166" gradientUnits="userSpaceOnUse">
<stop stop-color="#D2AB68"/>
<stop offset="1" stop-color="#B67D3F"/>
</linearGradient>
<linearGradient id="paint42_linear_21_16256" x1="373.119" y1="148.819" x2="364.797" y2="152.291" gradientUnits="userSpaceOnUse">
<stop stop-color="#D2AB68"/>
<stop offset="1" stop-color="#B67D3F"/>
</linearGradient>
<linearGradient id="paint43_linear_21_16256" x1="320.115" y1="74.6104" x2="332.806" y2="48.8596" gradientUnits="userSpaceOnUse">
<stop stop-color="#D2AB68"/>
<stop offset="1" stop-color="#B67D3F"/>
</linearGradient>
<linearGradient id="paint44_linear_21_16256" x1="329.678" y1="45.5634" x2="336.652" y2="72.8164" gradientUnits="userSpaceOnUse">
<stop stop-color="#F7E6B3"/>
<stop offset="1" stop-color="#F7E6B3" stop-opacity="0"/>
</linearGradient>
<linearGradient id="paint45_linear_21_16256" x1="348.348" y1="148.049" x2="375.738" y2="185.015" gradientUnits="userSpaceOnUse">
<stop stop-color="#D2AB68"/>
<stop offset="1" stop-color="#B67D3F"/>
</linearGradient>
<linearGradient id="paint46_linear_21_16256" x1="354.567" y1="152.318" x2="346.126" y2="175.454" gradientUnits="userSpaceOnUse">
<stop stop-color="#F7E6B3"/>
<stop offset="1" stop-color="#F7E6B3" stop-opacity="0"/>
</linearGradient>
<linearGradient id="paint47_linear_21_16256" x1="361.932" y1="112.821" x2="376.496" y2="132.477" gradientUnits="userSpaceOnUse">
<stop stop-color="#D2AB68"/>
<stop offset="1" stop-color="#B67D3F"/>
</linearGradient>
<linearGradient id="paint48_linear_21_16256" x1="364.644" y1="124.148" x2="371.173" y2="136.401" gradientUnits="userSpaceOnUse">
<stop stop-color="#C18E42"/>
<stop offset="1" stop-color="#D2AB68"/>
</linearGradient>
<linearGradient id="paint49_linear_21_16256" x1="349.444" y1="78.2921" x2="367.859" y2="103.146" gradientUnits="userSpaceOnUse">
<stop stop-color="#D2AB68"/>
<stop offset="1" stop-color="#8E573C"/>
</linearGradient>
<linearGradient id="paint50_linear_21_16256" x1="334.696" y1="88.9689" x2="352.389" y2="112.848" gradientUnits="userSpaceOnUse">
<stop stop-color="#D2AB68"/>
<stop offset="1" stop-color="#B67D3F"/>
</linearGradient>
<linearGradient id="paint51_linear_21_16256" x1="382.521" y1="162.616" x2="389.008" y2="171.37" gradientUnits="userSpaceOnUse">
<stop stop-color="#D2AB68"/>
<stop offset="1" stop-color="#B67D3F"/>
</linearGradient>
<linearGradient id="paint52_linear_21_16256" x1="377.556" y1="146.286" x2="392.842" y2="166.916" gradientUnits="userSpaceOnUse">
<stop stop-color="#C28766"/>
<stop offset="1" stop-color="#8E573C"/>
</linearGradient>
<linearGradient id="paint53_linear_21_16256" x1="353.765" y1="196.121" x2="373.745" y2="223.087" gradientUnits="userSpaceOnUse">
<stop stop-color="#D2AB68"/>
<stop offset="1" stop-color="#B67D3F"/>
</linearGradient>
<linearGradient id="paint54_linear_21_16256" x1="374.694" y1="189.423" x2="387.332" y2="206.479" gradientUnits="userSpaceOnUse">
<stop stop-color="#D2AB68"/>
<stop offset="1" stop-color="#B67D3F"/>
</linearGradient>
<linearGradient id="paint55_linear_21_16256" x1="372.444" y1="188.322" x2="387.315" y2="208.393" gradientUnits="userSpaceOnUse">
<stop stop-color="#FADA81"/>
<stop offset="1" stop-color="#B67D3F"/>
</linearGradient>
<linearGradient id="paint56_linear_21_16256" x1="374.71" y1="243.76" x2="380.848" y2="252.044" gradientUnits="userSpaceOnUse">
<stop stop-color="#D2AB68"/>
<stop offset="1" stop-color="#B67D3F"/>
</linearGradient>
<linearGradient id="paint57_linear_21_16256" x1="296.052" y1="20.7246" x2="318.078" y2="50.4515" gradientUnits="userSpaceOnUse">
<stop stop-color="#FCF1D5"/>
<stop offset="1" stop-color="#EBCE6A"/>
</linearGradient>
<linearGradient id="paint58_linear_21_16256" x1="293.517" y1="22.6035" x2="315.543" y2="52.3306" gradientUnits="userSpaceOnUse">
<stop stop-color="#D2AB68"/>
<stop offset="1" stop-color="#B67D3F"/>
</linearGradient>
<linearGradient id="paint59_linear_21_16256" x1="309.638" y1="49.9137" x2="329.618" y2="76.8791" gradientUnits="userSpaceOnUse">
<stop stop-color="#D2AB68"/>
<stop offset="1" stop-color="#B67D3F"/>
</linearGradient>
<linearGradient id="paint60_linear_21_16256" x1="315.026" y1="52.3963" x2="314.322" y2="78.2299" gradientUnits="userSpaceOnUse">
<stop stop-color="#F7E6B3"/>
<stop offset="1" stop-color="#F7E6B3" stop-opacity="0"/>
</linearGradient>
<linearGradient id="paint61_linear_21_16256" x1="344.807" y1="72.8423" x2="351.199" y2="103.87" gradientUnits="userSpaceOnUse">
<stop stop-color="#F7E6B3"/>
<stop offset="1" stop-color="#F7E6B3" stop-opacity="0"/>
</linearGradient>
<linearGradient id="paint62_linear_21_16256" x1="355.768" y1="79.3592" x2="365.971" y2="105.719" gradientUnits="userSpaceOnUse">
<stop stop-color="#F7E6B3"/>
<stop offset="1" stop-color="#F7E6B3" stop-opacity="0"/>
</linearGradient>
<linearGradient id="paint63_linear_21_16256" x1="338.972" y1="91.615" x2="338.552" y2="109.189" gradientUnits="userSpaceOnUse">
<stop stop-color="#FFDD78"/>
<stop offset="1" stop-color="#FFF1C8" stop-opacity="0.38"/>
</linearGradient>
<linearGradient id="paint64_linear_21_16256" x1="337.421" y1="101.292" x2="352.947" y2="122.247" gradientUnits="userSpaceOnUse">
<stop stop-color="#D2AB68"/>
<stop offset="1" stop-color="#B67D3F"/>
</linearGradient>
<linearGradient id="paint65_linear_21_16256" x1="337.162" y1="100.981" x2="356.044" y2="120.249" gradientUnits="userSpaceOnUse">
<stop stop-color="#FFDA92"/>
<stop offset="1" stop-color="#DCBA84"/>
</linearGradient>
<linearGradient id="paint66_linear_21_16256" x1="381.464" y1="112.441" x2="371.15" y2="142.672" gradientUnits="userSpaceOnUse">
<stop stop-color="#F7E6B3"/>
<stop offset="1" stop-color="#BC8647"/>
</linearGradient>
<linearGradient id="paint67_linear_21_16256" x1="371.776" y1="119.933" x2="384.111" y2="136.581" gradientUnits="userSpaceOnUse">
<stop stop-color="#D2AB68"/>
<stop offset="1" stop-color="#8E573C"/>
</linearGradient>
<linearGradient id="paint68_linear_21_16256" x1="385.432" y1="144.752" x2="395.848" y2="163.691" gradientUnits="userSpaceOnUse">
<stop stop-color="#F7E6B3"/>
<stop offset="1" stop-color="#F7E6B3" stop-opacity="0"/>
</linearGradient>
<linearGradient id="paint69_linear_21_16256" x1="360.857" y1="155.638" x2="379.513" y2="180.817" gradientUnits="userSpaceOnUse">
<stop stop-color="#D2AB68"/>
<stop offset="1" stop-color="#B67D3F"/>
</linearGradient>
<linearGradient id="paint70_linear_21_16256" x1="366.286" y1="151.215" x2="374.652" y2="182.776" gradientUnits="userSpaceOnUse">
<stop stop-color="#E0C087"/>
<stop offset="0.28125" stop-color="#FFE49E"/>
<stop offset="1" stop-color="#753C1D"/>
</linearGradient>
<linearGradient id="paint71_linear_21_16256" x1="388.365" y1="162.912" x2="395.39" y2="169.889" gradientUnits="userSpaceOnUse">
<stop stop-color="#B18253"/>
<stop offset="1" stop-color="#F7E6B3" stop-opacity="0"/>
</linearGradient>
<linearGradient id="paint72_linear_21_16256" x1="361.104" y1="192.95" x2="380.121" y2="218.615" gradientUnits="userSpaceOnUse">
<stop stop-color="#D2AB68"/>
<stop offset="1" stop-color="#B67D3F"/>
</linearGradient>
<linearGradient id="paint73_linear_21_16256" x1="366.714" y1="194.898" x2="374.316" y2="222.834" gradientUnits="userSpaceOnUse">
<stop stop-color="#F7E6B3"/>
<stop offset="1" stop-color="#F7E6B3" stop-opacity="0"/>
</linearGradient>
<linearGradient id="paint74_linear_21_16256" x1="384.924" y1="200.271" x2="391.755" y2="209.49" gradientUnits="userSpaceOnUse">
<stop stop-color="#D2AB68"/>
<stop offset="1" stop-color="#B67D3F"/>
</linearGradient>
<linearGradient id="paint75_linear_21_16256" x1="387.703" y1="198.401" x2="382.043" y2="212.013" gradientUnits="userSpaceOnUse">
<stop stop-color="#FADA81"/>
<stop offset="1" stop-color="#9A5E33"/>
</linearGradient>
<linearGradient id="paint76_linear_21_16256" x1="376.112" y1="234.853" x2="383.278" y2="244.524" gradientUnits="userSpaceOnUse">
<stop stop-color="#FADA81"/>
<stop offset="1" stop-color="#B67D3F"/>
</linearGradient>
<linearGradient id="paint77_linear_21_16256" x1="375.788" y1="239.102" x2="383.894" y2="250.041" gradientUnits="userSpaceOnUse">
<stop stop-color="#D2AB68"/>
<stop offset="1" stop-color="#B67D3F"/>
</linearGradient>
<linearGradient id="paint78_linear_21_16256" x1="358.843" y1="187.564" x2="392.222" y2="153.863" gradientUnits="userSpaceOnUse">
<stop stop-color="#C3C5D1"/>
<stop offset="0.875" stop-color="#F9F9F9"/>
</linearGradient>
<linearGradient id="paint79_linear_21_16256" x1="410.778" y1="148.164" x2="379.106" y2="187.861" gradientUnits="userSpaceOnUse">
<stop stop-color="#F9F9F9"/>
<stop offset="0.378992" stop-color="#F9F9F9"/>
<stop offset="0.480868" stop-color="#DFDFE6"/>
<stop offset="0.729174" stop-color="#B8BAC6"/>
</linearGradient>
<linearGradient id="paint80_linear_21_16256" x1="335.638" y1="217.661" x2="369.006" y2="182.865" gradientUnits="userSpaceOnUse">
<stop stop-color="#C3C5D1"/>
<stop offset="0.875" stop-color="#F9F9F9"/>
</linearGradient>
<linearGradient id="paint81_linear_21_16256" x1="378.181" y1="183.186" x2="361.317" y2="217.789" gradientUnits="userSpaceOnUse">
<stop stop-color="#F4F4F5"/>
<stop offset="0.306027" stop-color="#F4F4F5"/>
<stop offset="0.462087" stop-color="#E8E9EC"/>
<stop offset="0.682292" stop-color="#DFDFE6"/>
<stop offset="1" stop-color="#B8BAC6"/>
</linearGradient>
<linearGradient id="paint82_linear_21_16256" x1="75.9904" y1="187.564" x2="42.6117" y2="153.863" gradientUnits="userSpaceOnUse">
<stop stop-color="#C3C5D1"/>
<stop offset="0.875" stop-color="#F9F9F9"/>
</linearGradient>
<linearGradient id="paint83_linear_21_16256" x1="24.0551" y1="148.164" x2="55.7274" y2="187.861" gradientUnits="userSpaceOnUse">
<stop stop-color="#F9F9F9"/>
<stop offset="0.378992" stop-color="#F9F9F9"/>
<stop offset="0.480868" stop-color="#DFDFE6"/>
<stop offset="0.729174" stop-color="#B8BAC6"/>
</linearGradient>
<linearGradient id="paint84_linear_21_16256" x1="99.1957" y1="217.661" x2="65.8274" y2="182.865" gradientUnits="userSpaceOnUse">
<stop stop-color="#C3C5D1"/>
<stop offset="0.875" stop-color="#F9F9F9"/>
</linearGradient>
<linearGradient id="paint85_linear_21_16256" x1="56.653" y1="183.186" x2="73.517" y2="217.789" gradientUnits="userSpaceOnUse">
<stop stop-color="#F4F4F5"/>
<stop offset="0.306027" stop-color="#F4F4F5"/>
<stop offset="0.462087" stop-color="#E8E9EC"/>
<stop offset="0.682292" stop-color="#DFDFE6"/>
<stop offset="1" stop-color="#B8BAC6"/>
</linearGradient>
<linearGradient id="paint86_linear_21_16256" x1="176.997" y1="89.0085" x2="283.72" y2="303.079" gradientUnits="userSpaceOnUse">
<stop stop-color="#D8ECF1"/>
<stop offset="1" stop-color="#82B3BF"/>
</linearGradient>
<linearGradient id="paint87_linear_21_16256" x1="176.034" y1="106.66" x2="268.096" y2="278.189" gradientUnits="userSpaceOnUse">
<stop stop-color="#A1C9D3"/>
<stop offset="1" stop-color="#D0ECF2"/>
</linearGradient>
<linearGradient id="paint88_linear_21_16256" x1="186.149" y1="100.458" x2="285.346" y2="280.643" gradientUnits="userSpaceOnUse">
<stop stop-color="#D0ECF2"/>
<stop offset="1" stop-color="#E6F8FC"/>
</linearGradient>
<radialGradient id="paint89_radial_21_16256" cx="0" cy="0" r="1" gradientUnits="userSpaceOnUse" gradientTransform="translate(228.054 194.148) rotate(90) scale(108.002 93.9255)">
<stop stop-color="#D0EBF2"/>
<stop offset="1" stop-color="#8DD3E2"/>
</radialGradient>
<linearGradient id="paint90_linear_21_16256" x1="228.054" y1="81.8689" x2="228.054" y2="306.416" gradientUnits="userSpaceOnUse">
<stop stop-color="white"/>
<stop offset="1" stop-color="#F2EDED" stop-opacity="0"/>
</linearGradient>
<linearGradient id="paint91_linear_21_16256" x1="112.092" y1="102.185" x2="223.824" y2="297.579" gradientUnits="userSpaceOnUse">
<stop stop-color="white"/>
<stop offset="1" stop-color="#F2EDED" stop-opacity="0"/>
</linearGradient>
<linearGradient id="paint92_linear_21_16256" x1="335.57" y1="102.185" x2="223.839" y2="297.579" gradientUnits="userSpaceOnUse">
<stop stop-color="white"/>
<stop offset="1" stop-color="#F2EDED" stop-opacity="0"/>
</linearGradient>
<linearGradient id="paint93_linear_21_16256" x1="228.054" y1="233.706" x2="227.498" y2="294.653" gradientUnits="userSpaceOnUse">
<stop stop-color="#EEFFFF" stop-opacity="0"/>
<stop offset="1" stop-color="#B5EBFB"/>
</linearGradient>
<linearGradient id="paint94_linear_21_16256" x1="316.376" y1="222.623" x2="151.557" y2="170.226" gradientUnits="userSpaceOnUse">
<stop stop-color="#5EA6B7"/>
<stop offset="1" stop-color="#5F9CAA"/>
</linearGradient>
</defs>
</svg>
