<svg width="454" height="379" viewBox="0 0 454 379" fill="none" xmlns="http://www.w3.org/2000/svg">
<path d="M134.129 323.281V217.708H321.98V322.358C321.98 323.395 321.423 324.351 320.522 324.863L228.289 377.286C227.403 377.79 226.317 377.788 225.432 377.281L135.578 325.782C134.682 325.268 134.129 324.314 134.129 323.281Z" fill="#84B7C4"/>
<path fill-rule="evenodd" clip-rule="evenodd" d="M188.726 217.708V356.243L135.578 325.782C134.682 325.268 134.129 324.314 134.129 323.281V217.708H188.726Z" fill="#6B9BAA"/>
<path fill-rule="evenodd" clip-rule="evenodd" d="M186.875 355.182V217.708H188.726V356.243L186.875 355.182Z" fill="#B0D2DD"/>
<path fill-rule="evenodd" clip-rule="evenodd" d="M267.383 216.791V355.326L320.531 324.865C321.427 324.351 321.98 323.398 321.98 322.365V216.791H267.383Z" fill="#6B9BAA"/>
<path fill-rule="evenodd" clip-rule="evenodd" d="M269.234 354.266V216.791H267.383V355.326L269.234 354.266Z" fill="#B0D2DD"/>
<path d="M76.9072 224.363C77.6891 224.943 82.4546 235.855 84.7396 241.238L86.0899 247.523C81.7329 244.546 72.6028 237.731 70.9386 234.283C69.2744 230.836 69.3375 222.613 69.5771 218.932L76.9072 224.363Z" fill="url(#paint0_linear_21_16049)"/>
<path d="M100.409 80.2344C100.37 75.1732 103.977 69.7933 107.386 63.2614C108.427 63.2279 112.602 70.1456 105.512 94.3321L102.225 101.711C101.173 106.467 100.516 100.947 99.3308 96.7977C99.5224 87.1263 100.457 86.561 100.409 80.2344Z" fill="url(#paint1_linear_21_16049)"/>
<path d="M125.701 68.2768C127.328 67.4689 134.24 64.0354 144.614 63.4185L144.614 63.4186C143.639 64.7093 140.836 68.42 130.835 74.5972C129.29 74.9617 121.804 75.4543 118.019 74.4111C117.173 74.9924 118.113 73.726 118.383 72.9197C120.956 69.2899 124.075 69.0847 125.701 68.2768Z" fill="url(#paint2_linear_21_16049)"/>
<path fill-rule="evenodd" clip-rule="evenodd" d="M82.5013 150.955C92.8129 107.095 117.09 70.2321 135.738 48.9336L136.552 49.5371C118.187 70.5139 95.8422 108.425 85.6713 151.686C75.5107 194.904 78.4827 244.089 112.509 289.324L109.898 291.25C75.1675 245.078 72.1794 194.859 82.5013 150.955Z" fill="url(#paint3_linear_21_16049)"/>
<path d="M125.849 56.3085L122 36.8499L119.441 40.2378C114.284 48.7466 117.343 54.7874 116.213 62.0018C115.309 67.7734 117.392 72.1014 118.505 72.7583L122.403 66.5882L125.849 56.3085Z" fill="url(#paint4_linear_21_16049)"/>
<path fill-rule="evenodd" clip-rule="evenodd" d="M122.067 37.1876C121.071 45.8841 119.998 56.3466 120.726 59.0551C121.389 61.5195 120.249 67.127 118.896 72.1382L118.505 72.7583C117.392 72.1014 115.309 67.7734 116.213 62.0018C116.594 59.5668 116.499 57.2654 116.403 54.9578C116.214 50.4284 116.025 45.8747 119.441 40.2378L122 36.8499L122.067 37.1876Z" fill="url(#paint5_linear_21_16049)"/>
<path d="M97.2179 166.191C98.3221 164.191 101.865 151.518 103.499 145.431L101.547 145.998C89.9637 156.287 89.1193 164.468 86.6858 170.717C84.2523 176.966 75.4349 186.285 80.2334 184.305C85.0319 182.325 95.8376 168.691 97.2179 166.191Z" fill="url(#paint6_linear_21_16049)"/>
<path fill-rule="evenodd" clip-rule="evenodd" d="M103.269 146.284C99.2146 152.643 93.5224 162.085 91.3203 167.609C89.2597 172.778 84.463 179.601 80.5703 184.152C80.455 184.209 80.3426 184.26 80.2334 184.305C77.4478 185.455 79.2506 182.796 81.7293 179.142C83.5206 176.5 85.6649 173.339 86.6858 170.717C87.1256 169.588 87.5135 168.395 87.9223 167.139C89.7753 161.442 92.0571 154.428 101.547 145.998L103.499 145.431C103.426 145.703 103.349 145.988 103.269 146.284Z" fill="url(#paint7_linear_21_16049)"/>
<path d="M88.903 120.021C87.9541 115.895 84.5353 108.313 82.9446 105.037C80.7536 109.956 81.9771 112.373 80.0733 119.266C78.5503 124.78 83.6854 134.104 86.4433 138.076C87.6586 133.777 89.852 124.146 88.903 120.021Z" fill="url(#paint8_linear_21_16049)"/>
<path fill-rule="evenodd" clip-rule="evenodd" d="M88.8044 119.607C88.8404 119.748 88.8739 119.886 88.9048 120.02C89.8538 124.146 87.6604 133.776 86.4451 138.076C85.4681 136.669 84.1928 134.59 83.0209 132.247C84.2405 127.395 86.7345 122.761 88.8044 119.607Z" fill="url(#paint9_linear_21_16049)"/>
<path d="M98.496 80.0761C98.2324 77.4652 95.0952 71.685 93.5596 69.1213C92.1552 74.1198 88.7311 79.8863 88.3754 88.4296C88.2284 91.9617 93.7383 104.313 96.9053 110.099L97.9995 106.632C95.8733 98.0112 98.8254 83.3397 98.496 80.0761Z" fill="url(#paint10_linear_21_16049)"/>
<path d="M112.036 105.205C117.369 101.91 120.701 93.5084 121.7 89.7193C112.39 95.6541 109.377 93.9249 101.822 103.928L99.2255 110.056C101.273 109.812 106.702 108.499 112.036 105.205Z" fill="url(#paint11_linear_21_16049)"/>
<path d="M77.9828 172.824C74.7479 162.576 63.0297 155.286 57.5755 153.425C64.0674 172.075 68.2529 167.879 72.2878 173.636C75.5158 178.243 78.304 180.359 78.8059 180.479L77.9828 172.824Z" fill="url(#paint12_linear_21_16049)"/>
<path d="M74.1322 151.35C73.0231 149.32 63.8088 137.997 59.3403 132.589C61.5125 145.522 63.8837 154.827 67.2658 159.095C69.9715 162.509 75.5968 173.404 78.0712 178.424C78.3141 177.43 78.8074 174.893 78.8372 172.701C78.8746 169.961 75.5187 153.887 74.1322 151.35Z" fill="url(#paint13_linear_21_16049)"/>
<path d="M97.1693 192.827C91.122 198.412 85.5532 209.215 83.5246 213.919L82.9675 224.074C86.6784 219.946 94.4084 210.811 95.6409 207.296C96.8735 203.78 97.1734 196.185 97.1693 192.827Z" fill="url(#paint14_linear_21_16049)"/>
<path d="M74.2181 188.905C73.7924 186.778 69.6663 181.926 67.6565 179.766C66.6028 183.179 64.9777 191.721 66.9065 198.585C68.8353 205.449 75.2089 211.699 78.1546 213.965C78.737 213.306 79.5756 211.546 78.2715 209.774C76.6414 207.56 74.7503 191.564 74.2181 188.905Z" fill="url(#paint15_linear_21_16049)"/>
<path fill-rule="evenodd" clip-rule="evenodd" d="M77.7069 213.611C72.5323 203.903 69.1054 188.916 67.5844 180.004C67.6087 179.922 67.6327 179.843 67.6565 179.766C69.6663 181.926 73.7924 186.778 74.2181 188.905C74.3511 189.57 74.5691 191.068 74.8467 192.976C75.6795 198.701 77.0489 208.113 78.2715 209.774C79.5756 211.546 78.737 213.306 78.1546 213.965C78.013 213.856 77.8635 213.738 77.7069 213.611Z" fill="url(#paint16_linear_21_16049)"/>
<path d="M73.846 249.27C75.7659 248.881 83.1635 249.716 86.6224 250.182L87.1086 248.529C85.8328 247.752 82.3204 245.585 78.4766 243.14C74.6329 240.694 67.7357 243.233 64.7676 244.808C66.9937 246.458 71.9261 249.659 73.846 249.27Z" fill="url(#paint17_linear_21_16049)"/>
<path d="M143.148 28.362C144.903 26.0388 155.428 22.8669 160.472 21.5714L155.807 33.4645C154.589 35.0778 151.135 38.9101 147.069 41.3328C143.004 43.7555 137.327 48.2889 135.729 50.2922L134.752 49.5681C135.759 41.5075 140.954 31.266 143.148 28.362Z" fill="url(#paint18_linear_21_16049)"/>
<path fill-rule="evenodd" clip-rule="evenodd" d="M135.889 49.4055C138.543 43.3988 151.906 29.4824 159.961 21.7039C160.136 21.6578 160.306 21.6136 160.47 21.5715L155.806 33.4645C154.587 35.0779 151.134 38.9102 147.068 41.3328C143.003 43.7555 137.367 48.5709 135.769 50.5742L135.889 49.4055Z" fill="url(#paint19_linear_21_16049)"/>
<g filter="url(#filter0_d_21_16049)">
<path d="M128.162 59.7843C128.877 59.1064 135.649 52.7506 147.559 51.2584C146.938 53.6501 143.046 59.6405 140.056 63.0612C137.066 66.482 125.422 70.2512 119.023 71.8842C122.949 66.5738 127.447 60.4621 128.162 59.7843Z" fill="url(#paint20_linear_21_16049)"/>
<path fill-rule="evenodd" clip-rule="evenodd" d="M147.408 51.7397C147.47 51.5665 147.521 51.4056 147.559 51.2584C135.649 52.7505 128.877 59.1064 128.162 59.7842C127.506 60.4065 123.661 65.6084 119.997 70.5657C119.67 71.0083 119.344 71.4489 119.023 71.8842C119.505 71.7611 120.017 71.626 120.553 71.4797C128.96 66.3503 140.715 57.203 147.408 51.7397Z" fill="url(#paint21_linear_21_16049)"/>
</g>
<path fill-rule="evenodd" clip-rule="evenodd" d="M107.255 63.5122C107.388 64.6177 107.466 65.9269 107.391 67.2897C107.192 70.9166 102.753 100.338 101.372 102.838C101.281 103.003 101.192 103.139 101.104 103.248C100.775 102.668 100.449 101.3 100.08 99.7492C99.851 98.7878 99.6054 97.7558 99.3316 96.7971C99.4316 91.7468 99.7344 89.1795 99.994 86.9784C100.232 84.9643 100.433 83.2568 100.41 80.2339C100.821 75.1741 102.808 71.5946 105.304 67.0962C105.928 65.9714 106.584 64.7893 107.255 63.5122Z" fill="url(#paint22_linear_21_16049)"/>
<path fill-rule="evenodd" clip-rule="evenodd" d="M97.2598 108.976C94.7531 103.899 92.878 96.9436 93.2553 88.0197C93.6683 78.2504 93.584 72.7698 93.3319 69.8852C93.4125 69.6285 93.4886 69.3739 93.5596 69.1213C95.0952 71.685 98.2324 77.4652 98.496 80.0761C98.6014 81.1203 98.3708 83.3325 98.0782 86.1407C97.4562 92.109 96.5536 100.77 97.9995 106.632L97.2598 108.976Z" fill="url(#paint23_linear_21_16049)"/>
<path fill-rule="evenodd" clip-rule="evenodd" d="M121.636 89.7594C118.607 91.6845 116.247 92.7983 114.177 93.7747C109.919 95.7838 106.894 97.2111 101.822 103.927L99.2253 110.055C99.3199 110.044 99.4216 110.03 99.5302 110.014C107.701 105.284 117.157 95.1817 121.636 89.7594Z" fill="url(#paint24_linear_21_16049)"/>
<g filter="url(#filter1_d_21_16049)">
<path d="M95.5741 115.904C96.3882 116.172 96.366 115.916 98.7076 116.465C107.221 118.458 118.343 111.459 122.902 104.951L114.56 104.558C101.866 104.412 96.7082 111.712 95.5741 115.904Z" fill="url(#paint25_linear_21_16049)"/>
<path fill-rule="evenodd" clip-rule="evenodd" d="M122.694 105.242C122.765 105.145 122.834 105.048 122.902 104.951L114.561 104.558C101.866 104.412 96.7081 111.712 95.574 115.904C95.6045 115.914 95.6337 115.924 95.662 115.932C101.249 111.725 115.236 107.261 122.694 105.242Z" fill="url(#paint26_linear_21_16049)"/>
</g>
<g filter="url(#filter2_d_21_16049)">
<path d="M82.0715 123.011C80.7674 121.24 71.3709 111.728 66.8357 107.193C66.3717 126.979 75.2076 132.771 77.0018 136.114C81.2805 141.549 84.3377 146.246 85.4373 147.145L85.9609 142.752C85.2078 136.91 83.3757 124.783 82.0715 123.011Z" fill="url(#paint27_linear_21_16049)"/>
<path fill-rule="evenodd" clip-rule="evenodd" d="M66.8315 107.502C66.5369 123.237 72.1565 130.029 75.288 133.814C76.045 134.729 76.6567 135.468 77.0042 136.115C78.9549 138.593 80.6517 140.918 82.0248 142.799C83.4185 144.708 84.4787 146.161 85.1327 146.853C84.3787 137.26 73.5041 118.045 66.8315 107.502Z" fill="url(#paint28_linear_21_16049)"/>
</g>
<path fill-rule="evenodd" clip-rule="evenodd" d="M78.724 174.553C74.602 164.556 65.2541 144.799 59.3955 132.652C63.8834 138.085 73.0297 149.327 74.1345 151.349C75.5209 153.886 78.8768 169.96 78.8395 172.7C78.8312 173.305 78.7878 173.935 78.724 174.553Z" fill="url(#paint29_linear_21_16049)"/>
<g filter="url(#filter3_d_21_16049)">
<path d="M80.2576 168.467C80.8327 159.633 85.4463 152.852 87.6812 150.566L87.9721 155.563C91.9589 168.582 83.9057 179.557 79.3808 183.418C79.4334 182.115 79.6825 177.301 80.2576 168.467Z" fill="url(#paint30_linear_21_16049)"/>
<path fill-rule="evenodd" clip-rule="evenodd" d="M87.624 150.626C85.2633 155.241 83.0929 163.745 82.6288 178.781C81.4629 180.513 80.4494 181.997 79.5703 183.255C79.5065 183.311 79.4433 183.365 79.3808 183.419C79.4335 182.116 79.6826 177.301 80.2576 168.468C80.8278 159.709 85.3685 152.968 87.624 150.626Z" fill="url(#paint31_linear_21_16049)"/>
</g>
<path fill-rule="evenodd" clip-rule="evenodd" d="M78.5926 180.381C75.6853 171.671 64.1024 159.54 57.6465 153.619C62.0295 166.134 65.3595 168.235 68.3048 170.093C69.6956 170.971 71.0006 171.794 72.2903 173.634C75.1972 177.782 77.7475 179.911 78.5926 180.381Z" fill="url(#paint32_linear_21_16049)"/>
<path d="M135.728 49.2849C129.904 55.5378 114.627 74.6648 103.035 97.277C94.7148 113.507 90.92 119.502 82.7575 150.694C80.8271 158.071 77.0773 176.982 77.5208 193.616C76.8691 204.121 78.6418 231.889 90.9457 258.921C94.4542 266.721 103.198 284.003 110.107 290.732" stroke="#FADA81" stroke-width="0.844684"/>
<g filter="url(#filter4_d_21_16049)">
<path d="M81.6318 195.908C83.8225 190.737 83.994 186.838 84.6709 185.83C88.6299 196.06 89.4965 206.013 89.7837 207.987C90.0135 209.566 84.603 218.994 81.869 223.511L78.6325 205.26C79.886 198.892 79.0354 202.036 81.6318 195.908Z" fill="url(#paint33_linear_21_16049)"/>
<path fill-rule="evenodd" clip-rule="evenodd" d="M85.0788 186.912C84.9466 186.552 84.8107 186.191 84.6709 185.83C84.4022 186.23 84.2132 187.086 83.9459 188.295C83.5397 190.134 82.953 192.789 81.6318 195.908C80.3207 199.002 79.8886 199.732 79.6206 200.517C79.3579 201.286 79.253 202.108 78.6325 205.26L81.7927 223.08C85.2297 215.122 85.4692 197.005 85.0788 186.912Z" fill="url(#paint34_linear_21_16049)"/>
</g>
<g filter="url(#filter5_d_21_16049)">
<path d="M66.8688 198.304C64.0646 194.213 57.2864 192.042 54.2479 191.468C53.273 192.759 57.8687 202.371 60.2884 207.016C61.2927 207.592 64.1727 209.34 67.6583 211.721C71.1439 214.103 76.4088 214.263 78.6056 214.046C75.8617 210.503 69.673 202.394 66.8688 198.304Z" fill="url(#paint35_linear_21_16049)"/>
<path fill-rule="evenodd" clip-rule="evenodd" d="M77.0829 214.116C77.6766 214.114 78.1948 214.086 78.6056 214.046C75.8618 210.503 69.673 202.394 66.8688 198.304C64.0646 194.213 57.2864 192.042 54.2479 191.468C54.2211 191.504 54.1986 191.545 54.18 191.593C56.5048 196.076 62.9201 203.947 77.0829 214.116Z" fill="url(#paint36_linear_21_16049)"/>
</g>
<g filter="url(#filter6_d_21_16049)">
<path d="M82.0889 237.011C78.278 234.791 66.8554 234.195 61.6204 234.174C68.427 243.999 69.5225 241.539 74.8569 245.24C79.1244 248.201 83.9308 246.008 85.8006 244.542C86.1513 242.956 85.8999 239.231 82.0889 237.011Z" fill="url(#paint37_linear_21_16049)"/>
<path fill-rule="evenodd" clip-rule="evenodd" d="M85.8763 244.08C75.1511 237.47 66.355 234.926 61.6744 234.252C66.37 241.015 68.336 241.902 70.8832 243.052C72.002 243.558 73.2329 244.113 74.8566 245.24C75.2134 245.487 75.5741 245.699 75.9365 245.878C76.8033 246.143 77.6563 246.399 78.4896 246.643C81.5841 247.03 84.4536 245.598 85.8002 244.542C85.8308 244.403 85.8568 244.248 85.8763 244.08Z" fill="url(#paint38_linear_21_16049)"/>
</g>
<path d="M377.093 225.318C376.311 225.897 371.545 236.809 369.26 242.193L367.91 248.477C372.267 245.5 381.397 238.685 383.061 235.238C384.725 231.79 384.662 223.567 384.423 219.886L377.093 225.318Z" fill="url(#paint39_linear_21_16049)"/>
<path d="M353.591 81.1887C353.629 76.1275 350.023 70.7476 346.614 64.2158C345.572 64.1823 341.397 71.0999 348.488 95.2863L351.774 102.665C352.826 107.421 353.484 101.901 354.669 97.7519C354.477 88.0805 353.542 87.5152 353.591 81.1887Z" fill="url(#paint40_linear_21_16049)"/>
<path d="M328.299 69.231C326.672 68.4231 319.76 64.9896 309.386 64.3727L309.386 64.3728C310.361 65.6636 313.163 69.3742 323.164 75.5514C324.71 75.9159 332.196 76.4085 335.981 75.3653C336.826 75.9466 335.887 74.6802 335.616 73.8739C333.044 70.2442 329.925 70.0389 328.299 69.231Z" fill="url(#paint41_linear_21_16049)"/>
<path fill-rule="evenodd" clip-rule="evenodd" d="M371.499 151.911C361.187 108.05 336.909 71.1876 318.262 49.8892L317.448 50.4927C335.813 71.4694 358.158 109.38 368.328 152.642C378.489 195.859 375.517 245.045 341.491 290.279L344.101 292.205C378.832 246.033 381.82 195.814 371.499 151.911Z" fill="url(#paint42_linear_21_16049)"/>
<path d="M328.151 57.2629L332 37.8042L334.559 41.1922C339.715 49.701 336.656 55.7418 337.787 62.9563C338.691 68.7279 336.608 73.0559 335.495 73.7128L331.597 67.5427L328.151 57.2629Z" fill="url(#paint43_linear_21_16049)"/>
<path fill-rule="evenodd" clip-rule="evenodd" d="M331.933 38.142C332.928 46.8385 334.002 57.301 333.274 60.0095C332.611 62.4739 333.751 68.0817 335.104 73.093L335.495 73.7128C336.608 73.0559 338.691 68.7279 337.787 62.9563C337.405 60.5212 337.501 58.2199 337.597 55.9122C337.785 51.3828 337.975 46.8291 334.559 41.1922L332 37.8042L331.933 38.142Z" fill="url(#paint44_linear_21_16049)"/>
<path d="M356.78 167.146C355.676 165.146 352.133 152.472 350.5 146.385L352.452 146.952C364.035 157.241 364.879 165.423 367.313 171.671C369.746 177.92 378.563 187.239 373.765 185.259C368.966 183.279 358.161 169.646 356.78 167.146Z" fill="url(#paint45_linear_21_16049)"/>
<path fill-rule="evenodd" clip-rule="evenodd" d="M350.73 147.241C354.784 153.599 360.475 163.04 362.677 168.563C364.737 173.732 369.534 180.554 373.426 185.105C373.542 185.162 373.655 185.214 373.765 185.259C376.55 186.409 374.748 183.751 372.269 180.096C370.478 177.455 368.333 174.293 367.313 171.671C366.873 170.542 366.485 169.349 366.076 168.093C364.223 162.396 361.941 155.382 352.452 146.952L350.5 146.385C350.573 146.658 350.65 146.944 350.73 147.241Z" fill="url(#paint46_linear_21_16049)"/>
<path d="M365.095 120.976C366.044 116.851 369.463 109.268 371.054 105.993C373.245 110.912 372.021 113.328 373.925 120.221C375.448 125.735 370.313 135.059 367.555 139.032C366.34 134.732 364.147 125.101 365.095 120.976Z" fill="url(#paint47_linear_21_16049)"/>
<path fill-rule="evenodd" clip-rule="evenodd" d="M365.196 120.562C365.16 120.704 365.126 120.842 365.095 120.976C364.146 125.101 366.34 134.732 367.555 139.032C368.532 137.625 369.807 135.546 370.979 133.203C369.76 128.35 367.266 123.716 365.196 120.562Z" fill="url(#paint48_linear_21_16049)"/>
<path d="M355.503 81.0303C355.766 78.4194 358.904 72.6393 360.439 70.0756C361.844 75.074 365.268 80.8405 365.623 89.3838C365.77 92.9159 360.261 105.268 357.094 111.053L355.999 107.586C358.125 98.9653 355.173 84.2939 355.503 81.0303Z" fill="url(#paint49_linear_21_16049)"/>
<path d="M341.966 106.159C336.632 102.864 333.3 94.4626 332.301 90.6735C341.611 96.6083 344.624 94.8791 352.179 104.882L354.776 111.01C352.728 110.766 347.3 109.454 341.966 106.159Z" fill="url(#paint50_linear_21_16049)"/>
<path d="M376.016 173.778C379.251 163.53 390.969 156.24 396.423 154.38C389.931 173.029 385.746 168.833 381.711 174.591C378.483 179.197 375.694 181.313 375.193 181.433L376.016 173.778Z" fill="url(#paint51_linear_21_16049)"/>
<path d="M379.868 152.304C380.977 150.274 390.191 138.951 394.659 133.543C392.487 146.476 390.116 155.782 386.734 160.049C384.028 163.463 378.403 174.358 375.929 179.378C375.686 178.384 375.192 175.847 375.163 173.655C375.125 170.915 378.481 154.841 379.868 152.304Z" fill="url(#paint52_linear_21_16049)"/>
<path d="M356.829 193.781C362.876 199.366 368.445 210.169 370.474 214.873L371.031 225.028C367.32 220.9 359.59 211.765 358.357 208.25C357.125 204.734 356.825 197.139 356.829 193.781Z" fill="url(#paint53_linear_21_16049)"/>
<path d="M379.782 189.861C380.207 187.733 384.333 182.881 386.343 180.721C387.397 184.134 389.022 192.676 387.093 199.541C385.164 206.405 378.791 212.654 375.845 214.92C375.263 214.261 374.424 212.501 375.728 210.729C377.358 208.515 379.249 192.52 379.782 189.861Z" fill="url(#paint54_linear_21_16049)"/>
<path fill-rule="evenodd" clip-rule="evenodd" d="M376.293 214.566C381.468 204.858 384.894 189.871 386.415 180.96C386.391 180.878 386.367 180.798 386.343 180.721C384.333 182.881 380.207 187.733 379.782 189.861C379.649 190.525 379.431 192.024 379.153 193.932C378.32 199.656 376.951 209.069 375.728 210.729C374.424 212.501 375.263 214.261 375.845 214.92C375.987 214.811 376.137 214.693 376.293 214.566Z" fill="url(#paint55_linear_21_16049)"/>
<path d="M380.154 250.225C378.234 249.836 370.836 250.67 367.377 251.136L366.891 249.483C368.167 248.706 371.679 246.539 375.523 244.094C379.367 241.649 386.264 244.188 389.232 245.763C387.006 247.412 382.074 250.614 380.154 250.225Z" fill="url(#paint56_linear_21_16049)"/>
<path d="M310.851 29.3164C309.096 26.9932 298.57 23.8213 293.527 22.5258L298.191 34.4189C299.41 36.0322 302.863 39.8645 306.929 42.2872C310.995 44.7099 316.672 49.2433 318.269 51.2466L319.247 50.5225C318.239 42.4619 313.044 32.2204 310.851 29.3164Z" fill="url(#paint57_linear_21_16049)"/>
<path fill-rule="evenodd" clip-rule="evenodd" d="M318.109 50.3598C315.456 44.3532 302.092 30.4368 294.038 22.6582C293.862 22.6121 293.692 22.568 293.528 22.5258L298.192 34.4189C299.411 36.0322 302.865 39.8645 306.93 42.2872C310.996 44.7099 316.632 49.5253 318.23 51.5286L318.109 50.3598Z" fill="url(#paint58_linear_21_16049)"/>
<g filter="url(#filter7_d_21_16049)">
<path d="M325.838 60.7385C325.123 60.0607 318.351 53.7048 306.441 52.2126C307.062 54.6043 310.954 60.5947 313.944 64.0155C316.934 67.4362 328.578 71.2055 334.977 72.8385C331.051 67.528 326.553 61.4163 325.838 60.7385Z" fill="url(#paint59_linear_21_16049)"/>
<path fill-rule="evenodd" clip-rule="evenodd" d="M306.592 52.6943C306.53 52.521 306.479 52.36 306.441 52.2126C318.351 53.7047 325.123 60.0606 325.838 60.7384C326.494 61.3607 330.339 66.5626 334.003 71.5199C334.33 71.9625 334.656 72.4031 334.977 72.8384C334.495 72.7153 333.983 72.5801 333.447 72.4339C325.04 67.3045 313.285 58.1576 306.592 52.6943Z" fill="url(#paint60_linear_21_16049)"/>
</g>
<path fill-rule="evenodd" clip-rule="evenodd" d="M346.747 64.47C346.614 65.5752 346.536 66.8838 346.611 68.2459C346.81 71.8728 351.249 101.295 352.63 103.795C352.72 103.959 352.809 104.094 352.896 104.203C353.226 103.622 353.551 102.255 353.921 100.704C354.149 99.7426 354.395 98.7107 354.669 97.752C354.569 92.7016 354.266 90.1344 354.006 87.9332C353.769 85.9192 353.567 84.2116 353.591 81.1888C353.179 76.129 351.193 72.5494 348.697 68.051C348.073 66.9271 347.417 65.7459 346.747 64.47Z" fill="url(#paint61_linear_21_16049)"/>
<path fill-rule="evenodd" clip-rule="evenodd" d="M356.738 109.928C359.245 104.851 361.119 97.8965 360.742 88.9739C360.329 79.1997 360.413 73.7184 360.666 70.8351C360.585 70.5798 360.51 70.3267 360.439 70.0756C358.904 72.6393 355.766 78.4194 355.503 81.0303C355.397 82.0745 355.628 84.2867 355.921 87.0948C356.543 93.0631 357.445 101.724 355.999 107.586L356.738 109.928Z" fill="url(#paint62_linear_21_16049)"/>
<path fill-rule="evenodd" clip-rule="evenodd" d="M332.37 90.717C335.397 92.6411 337.757 93.7546 339.826 94.7308C344.084 96.7398 347.109 98.1672 352.181 104.883L354.778 111.011C354.685 111 354.584 110.987 354.477 110.971C346.308 106.244 336.851 96.1413 332.37 90.717Z" fill="url(#paint63_linear_21_16049)"/>
<g filter="url(#filter8_d_21_16049)">
<path d="M358.43 116.857C357.616 117.125 357.639 116.869 355.297 117.417C346.783 119.411 335.662 112.411 331.103 105.904L339.444 105.511C352.138 105.365 357.296 112.665 358.43 116.857Z" fill="url(#paint64_linear_21_16049)"/>
<path fill-rule="evenodd" clip-rule="evenodd" d="M331.309 106.193C331.239 106.097 331.17 106 331.103 105.904L339.444 105.511C352.138 105.365 357.296 112.665 358.43 116.857C358.4 116.867 358.371 116.876 358.343 116.885C352.757 112.677 338.768 108.213 331.309 106.193Z" fill="url(#paint65_linear_21_16049)"/>
</g>
<g filter="url(#filter9_d_21_16049)">
<path d="M371.929 123.966C373.233 122.194 382.63 112.682 387.165 108.147C387.629 127.934 378.793 133.726 376.999 137.068C372.72 142.503 369.663 147.201 368.563 148.099L368.04 143.706C368.793 137.864 370.625 125.737 371.929 123.966Z" fill="url(#paint66_linear_21_16049)"/>
<path fill-rule="evenodd" clip-rule="evenodd" d="M387.17 108.457C387.464 124.19 381.845 130.981 378.713 134.765C377.956 135.68 377.345 136.42 376.997 137.067C375.047 139.545 373.35 141.869 371.977 143.751C370.584 145.659 369.524 147.11 368.87 147.803C369.627 138.21 380.498 119 387.17 108.457Z" fill="url(#paint67_linear_21_16049)"/>
</g>
<path fill-rule="evenodd" clip-rule="evenodd" d="M375.279 175.507C379.402 165.511 388.749 145.755 394.608 133.608C390.12 139.041 380.974 150.282 379.869 152.304C378.483 154.841 375.127 170.915 375.164 173.656C375.172 174.26 375.216 174.89 375.279 175.507Z" fill="url(#paint68_linear_21_16049)"/>
<g filter="url(#filter10_d_21_16049)">
<path d="M373.744 169.421C373.169 160.587 368.555 153.807 366.32 151.52L366.029 156.517C362.042 169.536 370.095 180.512 374.62 184.372C374.568 183.069 374.319 178.255 373.744 169.421Z" fill="url(#paint69_linear_21_16049)"/>
<path fill-rule="evenodd" clip-rule="evenodd" d="M366.376 151.58C368.737 156.195 370.907 164.699 371.371 179.735C372.537 181.467 373.551 182.951 374.43 184.209C374.494 184.265 374.557 184.319 374.619 184.373C374.567 183.07 374.317 178.255 373.742 169.422C373.172 160.663 368.631 153.922 366.376 151.58Z" fill="url(#paint70_linear_21_16049)"/>
</g>
<path fill-rule="evenodd" clip-rule="evenodd" d="M375.408 181.336C378.316 172.626 389.898 160.495 396.354 154.574C391.971 167.089 388.641 169.19 385.696 171.048C384.305 171.926 383 172.749 381.71 174.589C378.804 178.737 376.254 180.866 375.408 181.336Z" fill="url(#paint71_linear_21_16049)"/>
<path d="M318.271 50.2394C324.095 56.4923 339.373 75.6192 350.965 98.2315C359.285 114.461 363.08 120.456 371.242 151.649C373.173 159.025 376.922 177.937 376.479 194.571C377.131 205.076 375.358 232.843 363.054 259.875C359.546 267.675 350.801 284.957 343.893 291.687" stroke="#FADA81" stroke-width="0.844684"/>
<g filter="url(#filter11_d_21_16049)">
<path d="M372.369 196.862C370.178 191.692 370.006 187.793 369.33 186.785C365.371 197.015 364.504 206.967 364.217 208.942C363.987 210.521 369.398 219.949 372.132 224.465L375.368 206.215C374.115 199.846 374.965 202.991 372.369 196.862Z" fill="url(#paint72_linear_21_16049)"/>
<path fill-rule="evenodd" clip-rule="evenodd" d="M368.921 187.87C369.053 187.509 369.189 187.147 369.33 186.785C369.598 187.185 369.787 188.04 370.055 189.25C370.461 191.088 371.048 193.744 372.369 196.862C373.68 199.957 374.112 200.687 374.38 201.472C374.643 202.241 374.748 203.062 375.368 206.215L372.208 224.036C368.77 216.079 368.53 197.965 368.921 187.87Z" fill="url(#paint73_linear_21_16049)"/>
</g>
<g filter="url(#filter12_d_21_16049)">
<path d="M387.132 199.258C389.937 195.167 396.715 192.996 399.753 192.422C400.728 193.713 396.133 203.325 393.713 207.97C392.709 208.546 389.829 210.294 386.343 212.676C382.857 215.057 377.592 215.217 375.396 215C378.139 211.457 384.328 203.349 387.132 199.258Z" fill="url(#paint74_linear_21_16049)"/>
<path fill-rule="evenodd" clip-rule="evenodd" d="M376.918 215.07C376.325 215.068 375.806 215.04 375.396 215C378.139 211.457 384.328 203.349 387.132 199.258C389.937 195.167 396.715 192.996 399.753 192.422C399.78 192.458 399.803 192.5 399.821 192.547C397.496 197.03 391.081 204.901 376.918 215.07Z" fill="url(#paint75_linear_21_16049)"/>
</g>
<g filter="url(#filter13_d_21_16049)">
<path d="M371.91 237.965C375.721 235.745 387.143 235.149 392.378 235.128C385.572 244.953 384.476 242.493 379.142 246.194C374.874 249.155 370.068 246.962 368.198 245.496C367.847 243.91 368.099 240.185 371.91 237.965Z" fill="url(#paint76_linear_21_16049)"/>
<path fill-rule="evenodd" clip-rule="evenodd" d="M368.123 245.034C378.849 238.424 387.645 235.88 392.325 235.206C387.63 241.969 385.664 242.856 383.117 244.006C381.998 244.511 380.767 245.067 379.143 246.194C378.786 246.441 378.426 246.653 378.063 246.832C377.197 247.097 376.343 247.353 375.51 247.597C372.416 247.984 369.546 246.551 368.2 245.495C368.169 245.357 368.143 245.202 368.123 245.034Z" fill="url(#paint77_linear_21_16049)"/>
</g>
<g filter="url(#filter14_d_21_16049)">
<path d="M322.378 187.494L322.378 148.094L416.303 148.094C416.303 172.719 398.727 187.494 384.446 187.494L322.378 187.494Z" fill="url(#paint78_linear_21_16049)"/>
<path d="M322.378 187.494L322.378 148.094L416.303 148.094C416.303 172.719 398.727 187.494 384.446 187.494L322.378 187.494Z" stroke="url(#paint79_linear_21_16049)" stroke-width="2.29412"/>
<path d="M289.228 222.516L289.228 183.116L383.153 183.116C383.153 207.741 365.577 222.516 351.295 222.516L289.228 222.516Z" fill="url(#paint80_linear_21_16049)"/>
<path d="M289.228 222.516L289.228 183.116L383.153 183.116C383.153 207.741 365.577 222.516 351.295 222.516L289.228 222.516Z" stroke="url(#paint81_linear_21_16049)" stroke-width="2.29412"/>
<path d="M112.456 187.494L112.456 148.094L18.5301 148.094C18.5301 172.719 36.1068 187.494 50.3879 187.494L112.456 187.494Z" fill="url(#paint82_linear_21_16049)"/>
<path d="M112.456 187.494L112.456 148.094L18.5301 148.094C18.5301 172.719 36.1068 187.494 50.3879 187.494L112.456 187.494Z" stroke="url(#paint83_linear_21_16049)" stroke-width="2.29412"/>
<path d="M145.606 222.516L145.606 183.116L51.6805 183.116C51.6805 207.741 69.2572 222.516 83.5382 222.516L145.606 222.516Z" fill="url(#paint84_linear_21_16049)"/>
<path d="M145.606 222.516L145.606 183.116L51.6805 183.116C51.6805 207.741 69.2572 222.516 83.5382 222.516L145.606 222.516Z" stroke="url(#paint85_linear_21_16049)" stroke-width="2.29412"/>
<path d="M219.509 59.8891L116.092 115.609C110.587 118.574 107.155 124.322 107.155 130.575L107.155 257.691C107.155 263.944 110.587 269.692 116.092 272.657L219.509 328.377C224.543 331.089 230.602 331.089 235.636 328.377L339.053 272.657C344.558 269.692 347.99 263.944 347.99 257.691L347.99 130.575C347.99 124.322 344.558 118.574 339.053 115.609L235.636 59.8891C230.602 57.1771 224.543 57.1771 219.509 59.8891Z" fill="url(#paint86_linear_21_16049)"/>
<path d="M219.395 80.8634L134.361 126.678C128.878 129.633 125.459 135.359 125.459 141.588L125.458 246.196C125.458 252.425 128.878 258.152 134.361 261.106L219.395 306.921C224.41 309.623 230.446 309.623 235.461 306.921L320.495 261.106C325.978 258.152 329.397 252.425 329.397 246.196L329.397 141.588C329.397 135.359 325.978 129.633 320.495 126.678L235.461 80.8634C230.446 78.1616 224.41 78.1616 219.395 80.8634Z" fill="url(#paint87_linear_21_16049)"/>
<g filter="url(#filter15_f_21_16049)">
<path d="M219.395 80.8634L134.361 126.678C128.878 129.633 125.459 135.359 125.459 141.588L125.458 246.196C125.458 252.425 128.878 258.152 134.361 261.106L219.395 306.921C224.41 309.623 230.446 309.623 235.461 306.921L320.495 261.106C325.978 258.152 329.397 252.425 329.397 246.196L329.397 141.588C329.397 135.359 325.978 129.633 320.495 126.678L235.461 80.8634C230.446 78.1616 224.41 78.1616 219.395 80.8634Z" stroke="url(#paint88_linear_21_16049)"/>
</g>
<g opacity="0.5">
<mask id="mask0_21_16049" style="mask-type:alpha" maskUnits="userSpaceOnUse" x="134" y="88" width="188" height="212">
<path d="M220.418 90.187L142.603 132.075C137.384 134.885 134.129 140.333 134.129 146.26L134.129 241.896C134.129 247.824 137.383 253.272 142.603 256.082L220.418 297.97C225.185 300.536 230.923 300.536 235.69 297.97L313.506 256.082C318.725 253.272 321.98 247.824 321.98 241.896L321.98 146.26C321.98 140.333 318.725 134.885 313.506 132.075L235.69 90.187C230.923 87.6208 225.185 87.6208 220.418 90.187Z" fill="#A6D3DE"/>
</mask>
<g mask="url(#mask0_21_16049)">
<path d="M220.418 90.187L142.603 132.075C137.384 134.885 134.129 140.333 134.129 146.26L134.129 241.896C134.129 247.824 137.383 253.272 142.603 256.082L220.418 297.97C225.185 300.536 230.923 300.536 235.69 297.97L313.506 256.082C318.725 253.272 321.98 247.824 321.98 241.896L321.98 146.26C321.98 140.333 318.725 134.885 313.506 132.075L235.69 90.187C230.923 87.6208 225.185 87.6208 220.418 90.187Z" fill="url(#paint89_radial_21_16049)"/>
<path opacity="0.5" d="M212.352 306.347L208.621 81.7994H247.487L243.756 306.347H212.352Z" fill="url(#paint90_linear_21_16049)"/>
<path opacity="0.5" d="M211.852 304.355L95.2629 111.739L128.922 92.4921L239.049 288.804L211.852 304.355Z" fill="url(#paint91_linear_21_16049)"/>
<path opacity="0.5" d="M208.614 288.803L318.741 92.4921L352.399 111.739L235.81 304.355L208.614 288.803Z" fill="url(#paint92_linear_21_16049)"/>
<rect x="134.129" y="181.242" width="187.851" height="120.828" fill="url(#paint93_linear_21_16049)"/>
<g filter="url(#filter16_i_21_16049)">
<path d="M220.418 90.187L142.603 132.075C137.384 134.885 134.129 140.333 134.129 146.26L134.129 241.896C134.129 247.824 137.383 253.272 142.603 256.082L220.418 297.97C225.185 300.536 230.923 300.536 235.69 297.97L313.506 256.082C318.725 253.272 321.98 247.824 321.98 241.896L321.98 146.26C321.98 140.333 318.725 134.885 313.506 132.075L235.69 90.187C230.923 87.6208 225.185 87.6208 220.418 90.187Z" fill="#AFF5F1" fill-opacity="0.03"/>
</g>
</g>
</g>
<g filter="url(#filter17_i_21_16049)">
<path d="M185.282 166.013C185.282 167.733 184.809 169.281 183.863 170.657C182.946 172.033 181.599 173.137 179.821 173.968C178.044 174.799 175.908 175.244 173.414 175.301V178.741H170.748V175.215C167.423 174.9 164.728 173.896 162.664 172.205C160.6 170.514 159.468 168.192 159.267 165.239H169.415C169.501 166.414 169.946 167.217 170.748 167.647V163.433C168.254 162.745 166.276 162.114 164.814 161.541C163.381 160.968 162.077 160.022 160.901 158.703C159.755 157.384 159.181 155.593 159.181 153.328C159.181 151.465 159.697 149.859 160.729 148.512C161.761 147.136 163.152 146.075 164.9 145.33C166.649 144.585 168.598 144.169 170.748 144.083V140.6H173.414V144.083C176.826 144.312 179.52 145.273 181.498 146.964C183.476 148.627 184.566 150.934 184.766 153.887H174.489C174.375 152.798 174.016 152.067 173.414 151.694V155.865C174.418 156.152 174.891 156.295 174.833 156.295C176.983 156.954 178.746 157.614 180.122 158.273C181.527 158.904 182.731 159.85 183.734 161.111C184.766 162.372 185.282 164.006 185.282 166.013ZM169.415 152.898C169.415 153.643 169.86 154.274 170.748 154.79V151.35C169.86 151.522 169.415 152.038 169.415 152.898ZM173.414 168.034C174.532 167.805 175.091 167.203 175.091 166.228C175.091 165.483 174.532 164.852 173.414 164.336V168.034ZM211.17 151.952H198.7V155.564C199.245 155.077 199.947 154.69 200.807 154.403C201.696 154.116 202.685 153.973 203.774 153.973C205.723 153.973 207.372 154.432 208.719 155.349C210.066 156.266 211.07 157.499 211.729 159.047C212.388 160.566 212.718 162.258 212.718 164.121C212.718 167.561 211.743 170.241 209.794 172.162C207.873 174.054 205.222 175 201.839 175C199.374 175 197.238 174.57 195.432 173.71C193.655 172.85 192.293 171.66 191.347 170.141C190.43 168.622 190 166.887 190.057 164.938H199.345C199.345 165.397 199.503 165.827 199.818 166.228C200.133 166.629 200.649 166.83 201.366 166.83C202.083 166.83 202.613 166.572 202.957 166.056C203.301 165.54 203.473 164.838 203.473 163.949C203.473 163.118 203.272 162.487 202.871 162.057C202.498 161.627 201.954 161.412 201.237 161.412C200.635 161.412 200.176 161.555 199.861 161.842C199.546 162.129 199.388 162.458 199.388 162.831H190.1V143.567H211.17V151.952ZM215.391 158.832C215.391 153.873 216.437 149.974 218.53 147.136C220.651 144.298 223.905 142.879 228.291 142.879C232.648 142.879 235.887 144.312 238.009 147.179C240.13 150.017 241.191 153.901 241.191 158.832C241.191 163.791 240.13 167.704 238.009 170.571C235.887 173.409 232.648 174.828 228.291 174.828C223.905 174.828 220.651 173.409 218.53 170.571C216.437 167.704 215.391 163.791 215.391 158.832ZM231.774 158.832C231.774 156.539 231.544 154.819 231.086 153.672C230.627 152.497 229.695 151.909 228.291 151.909C226.857 151.909 225.911 152.497 225.453 153.672C224.994 154.819 224.765 156.539 224.765 158.832C224.765 161.154 224.994 162.903 225.453 164.078C225.911 165.225 226.857 165.798 228.291 165.798C229.695 165.798 230.627 165.225 231.086 164.078C231.544 162.903 231.774 161.154 231.774 158.832ZM243.431 158.832C243.431 153.873 244.478 149.974 246.57 147.136C248.692 144.298 251.945 142.879 256.331 142.879C260.689 142.879 263.928 144.312 266.049 147.179C268.171 150.017 269.231 153.901 269.231 158.832C269.231 163.791 268.171 167.704 266.049 170.571C263.928 173.409 260.689 174.828 256.331 174.828C251.945 174.828 248.692 173.409 246.57 170.571C244.478 167.704 243.431 163.791 243.431 158.832ZM259.814 158.832C259.814 156.539 259.585 154.819 259.126 153.672C258.668 152.497 257.736 151.909 256.331 151.909C254.898 151.909 253.952 152.497 253.493 153.672C253.035 154.819 252.805 156.539 252.805 158.832C252.805 161.154 253.035 162.903 253.493 164.078C253.952 165.225 254.898 165.798 256.331 165.798C257.736 165.798 258.668 165.225 259.126 164.078C259.585 162.903 259.814 161.154 259.814 158.832ZM271.472 158.832C271.472 153.873 272.518 149.974 274.611 147.136C276.732 144.298 279.986 142.879 284.372 142.879C288.729 142.879 291.969 144.312 294.09 147.179C296.211 150.017 297.272 153.901 297.272 158.832C297.272 163.791 296.211 167.704 294.09 170.571C291.969 173.409 288.729 174.828 284.372 174.828C279.986 174.828 276.732 173.409 274.611 170.571C272.518 167.704 271.472 163.791 271.472 158.832ZM287.855 158.832C287.855 156.539 287.626 154.819 287.167 153.672C286.708 152.497 285.777 151.909 284.372 151.909C282.939 151.909 281.993 152.497 281.534 153.672C281.075 154.819 280.846 156.539 280.846 158.832C280.846 161.154 281.075 162.903 281.534 164.078C281.993 165.225 282.939 165.798 284.372 165.798C285.777 165.798 286.708 165.225 287.167 164.078C287.626 162.903 287.855 161.154 287.855 158.832ZM173.368 195.836C174.563 196.116 175.487 196.695 176.14 197.572C176.812 198.431 177.148 199.429 177.148 200.568C177.148 202.304 176.569 203.648 175.412 204.6C174.273 205.533 172.631 206 170.484 206H160.096V186.176H170.204C172.22 186.176 173.807 186.615 174.964 187.492C176.121 188.369 176.7 189.648 176.7 191.328C176.7 192.485 176.392 193.465 175.776 194.268C175.179 195.052 174.376 195.575 173.368 195.836ZM166.312 193.904H168.72C169.28 193.904 169.691 193.792 169.952 193.568C170.232 193.344 170.372 192.999 170.372 192.532C170.372 192.047 170.232 191.692 169.952 191.468C169.691 191.225 169.28 191.104 168.72 191.104H166.312V193.904ZM169.14 201.016C169.7 201.016 170.111 200.913 170.372 200.708C170.652 200.484 170.792 200.129 170.792 199.644C170.792 198.692 170.241 198.216 169.14 198.216H166.312V201.016H169.14ZM194.245 197.964C194.245 198.393 194.217 198.804 194.161 199.196H184.165C184.258 200.559 184.827 201.24 185.873 201.24C186.545 201.24 187.03 200.932 187.329 200.316H193.909C193.685 201.436 193.209 202.444 192.481 203.34C191.771 204.217 190.866 204.917 189.765 205.44C188.682 205.944 187.487 206.196 186.181 206.196C184.613 206.196 183.213 205.869 181.981 205.216C180.767 204.563 179.815 203.629 179.125 202.416C178.453 201.184 178.117 199.747 178.117 198.104C178.117 196.461 178.453 195.033 179.125 193.82C179.815 192.588 180.767 191.645 181.981 190.992C183.213 190.339 184.613 190.012 186.181 190.012C187.749 190.012 189.139 190.339 190.353 190.992C191.585 191.627 192.537 192.541 193.209 193.736C193.899 194.931 194.245 196.34 194.245 197.964ZM187.945 196.48C187.945 195.957 187.777 195.565 187.441 195.304C187.105 195.024 186.685 194.884 186.181 194.884C185.079 194.884 184.435 195.416 184.249 196.48H187.945ZM202.959 206.196C201.465 206.196 200.14 205.953 198.983 205.468C197.844 204.983 196.939 204.311 196.267 203.452C195.595 202.593 195.212 201.623 195.119 200.54H201.083C201.157 201.007 201.353 201.352 201.671 201.576C202.007 201.8 202.427 201.912 202.931 201.912C203.248 201.912 203.5 201.847 203.687 201.716C203.873 201.567 203.967 201.389 203.967 201.184C203.967 200.829 203.771 200.577 203.379 200.428C202.987 200.279 202.324 200.111 201.391 199.924C200.252 199.7 199.309 199.457 198.563 199.196C197.835 198.935 197.191 198.487 196.631 197.852C196.089 197.217 195.819 196.34 195.819 195.22C195.819 194.249 196.071 193.372 196.575 192.588C197.097 191.785 197.863 191.16 198.871 190.712C199.879 190.245 201.101 190.012 202.539 190.012C204.667 190.012 206.328 190.535 207.523 191.58C208.736 192.625 209.464 193.988 209.707 195.668H204.191C204.097 195.239 203.901 194.912 203.603 194.688C203.304 194.445 202.903 194.324 202.399 194.324C202.081 194.324 201.839 194.389 201.671 194.52C201.503 194.632 201.419 194.809 201.419 195.052C201.419 195.369 201.615 195.612 202.007 195.78C202.399 195.929 203.024 196.088 203.883 196.256C205.021 196.48 205.983 196.732 206.767 197.012C207.551 197.292 208.232 197.777 208.811 198.468C209.389 199.14 209.679 200.073 209.679 201.268C209.679 202.201 209.408 203.041 208.867 203.788C208.325 204.535 207.541 205.123 206.515 205.552C205.507 205.981 204.321 206.196 202.959 206.196ZM221.693 200.708V206H219.341C215.011 206 212.845 203.844 212.845 199.532V195.388H210.885V190.208H212.845V186.4H219.061V190.208H221.637V195.388H219.061V199.644C219.061 200.017 219.145 200.288 219.313 200.456C219.5 200.624 219.799 200.708 220.209 200.708H221.693ZM244.471 192.98C244.471 194.231 244.181 195.369 243.603 196.396C243.024 197.404 242.165 198.207 241.027 198.804C239.907 199.401 238.544 199.7 236.939 199.7H234.475V206H228.259V186.176H236.939C239.365 186.176 241.223 186.792 242.511 188.024C243.817 189.256 244.471 190.908 244.471 192.98ZM236.239 194.8C237.527 194.8 238.171 194.193 238.171 192.98C238.171 191.767 237.527 191.16 236.239 191.16H234.475V194.8H236.239ZM252.378 193.12C253.013 192.205 253.787 191.477 254.702 190.936C255.617 190.376 256.569 190.096 257.558 190.096V196.732H255.794C254.618 196.732 253.75 196.937 253.19 197.348C252.649 197.759 252.378 198.487 252.378 199.532V206H246.162V190.208H252.378V193.12ZM262.088 188.948C261.006 188.948 260.138 188.659 259.484 188.08C258.831 187.501 258.504 186.773 258.504 185.896C258.504 185 258.831 184.263 259.484 183.684C260.138 183.087 261.006 182.788 262.088 182.788C263.152 182.788 264.011 183.087 264.664 183.684C265.318 184.263 265.644 185 265.644 185.896C265.644 186.773 265.318 187.501 264.664 188.08C264.011 188.659 263.152 188.948 262.088 188.948ZM265.168 190.208V206H258.952V190.208H265.168ZM273.66 200.848H280.24V206H266.856V201.128L272.876 195.36H266.94V190.208H279.96V195.08L273.66 200.848ZM297.196 197.964C297.196 198.393 297.168 198.804 297.112 199.196H287.116C287.209 200.559 287.779 201.24 288.824 201.24C289.496 201.24 289.981 200.932 290.28 200.316H296.86C296.636 201.436 296.16 202.444 295.432 203.34C294.723 204.217 293.817 204.917 292.716 205.44C291.633 205.944 290.439 206.196 289.132 206.196C287.564 206.196 286.164 205.869 284.932 205.216C283.719 204.563 282.767 203.629 282.076 202.416C281.404 201.184 281.068 199.747 281.068 198.104C281.068 196.461 281.404 195.033 282.076 193.82C282.767 192.588 283.719 191.645 284.932 190.992C286.164 190.339 287.564 190.012 289.132 190.012C290.7 190.012 292.091 190.339 293.304 190.992C294.536 191.627 295.488 192.541 296.16 193.736C296.851 194.931 297.196 196.34 297.196 197.964ZM290.896 196.48C290.896 195.957 290.728 195.565 290.392 195.304C290.056 195.024 289.636 194.884 289.132 194.884C288.031 194.884 287.387 195.416 287.2 196.48H290.896ZM195.392 224.074H191.144L190.514 226H186.32L190.982 213.256H195.59L200.234 226H196.022L195.392 224.074ZM194.42 221.068L193.268 217.522L192.116 221.068H194.42ZM204.958 217.72C205.366 217.132 205.864 216.664 206.452 216.316C207.04 215.956 207.652 215.776 208.288 215.776V220.042H207.154C206.398 220.042 205.84 220.174 205.48 220.438C205.132 220.702 204.958 221.17 204.958 221.842V226H200.962V215.848H204.958V217.72ZM224.592 215.848L222.18 226H217.68L216.456 220.276L215.16 226H210.66L208.266 215.848H212.226L213.072 222.022L214.386 215.848H218.652L220.038 222.094L220.902 215.848H224.592ZM235.092 220.834C235.092 221.11 235.074 221.374 235.038 221.626H228.612C228.672 222.502 229.038 222.94 229.71 222.94C230.142 222.94 230.454 222.742 230.646 222.346H234.876C234.732 223.066 234.426 223.714 233.958 224.29C233.502 224.854 232.92 225.304 232.212 225.64C231.516 225.964 230.748 226.126 229.908 226.126C228.9 226.126 228 225.916 227.208 225.496C226.428 225.076 225.816 224.476 225.372 223.696C224.94 222.904 224.724 221.98 224.724 220.924C224.724 219.868 224.94 218.95 225.372 218.17C225.816 217.378 226.428 216.772 227.208 216.352C228 215.932 228.9 215.722 229.908 215.722C230.916 215.722 231.81 215.932 232.59 216.352C233.382 216.76 233.994 217.348 234.426 218.116C234.87 218.884 235.092 219.79 235.092 220.834ZM231.042 219.88C231.042 219.544 230.934 219.292 230.718 219.124C230.502 218.944 230.232 218.854 229.908 218.854C229.2 218.854 228.786 219.196 228.666 219.88H231.042ZM235.636 220.924C235.636 219.856 235.816 218.932 236.176 218.152C236.548 217.36 237.052 216.76 237.688 216.352C238.324 215.932 239.038 215.722 239.83 215.722C240.49 215.722 241.06 215.86 241.54 216.136C242.02 216.4 242.386 216.766 242.638 217.234V215.848H246.616V226H242.638V224.614C242.386 225.082 242.02 225.454 241.54 225.73C241.06 225.994 240.49 226.126 239.83 226.126C239.038 226.126 238.324 225.922 237.688 225.514C237.052 225.094 236.548 224.494 236.176 223.714C235.816 222.922 235.636 221.992 235.636 220.924ZM242.638 220.924C242.638 220.384 242.5 219.964 242.224 219.664C241.948 219.364 241.594 219.214 241.162 219.214C240.73 219.214 240.376 219.364 240.1 219.664C239.824 219.964 239.686 220.384 239.686 220.924C239.686 221.464 239.824 221.884 240.1 222.184C240.376 222.484 240.73 222.634 241.162 222.634C241.594 222.634 241.948 222.484 242.224 222.184C242.5 221.884 242.638 221.464 242.638 220.924ZM253.378 222.202L254.998 215.848H259.246L255.862 226H250.876L247.492 215.848H251.74L253.378 222.202ZM269.954 220.834C269.954 221.11 269.936 221.374 269.9 221.626H263.474C263.534 222.502 263.9 222.94 264.572 222.94C265.004 222.94 265.316 222.742 265.508 222.346H269.738C269.594 223.066 269.288 223.714 268.82 224.29C268.364 224.854 267.782 225.304 267.074 225.64C266.378 225.964 265.61 226.126 264.77 226.126C263.762 226.126 262.862 225.916 262.07 225.496C261.29 225.076 260.678 224.476 260.234 223.696C259.802 222.904 259.586 221.98 259.586 220.924C259.586 219.868 259.802 218.95 260.234 218.17C260.678 217.378 261.29 216.772 262.07 216.352C262.862 215.932 263.762 215.722 264.77 215.722C265.778 215.722 266.672 215.932 267.452 216.352C268.244 216.76 268.856 217.348 269.288 218.116C269.732 218.884 269.954 219.79 269.954 220.834ZM265.904 219.88C265.904 219.544 265.796 219.292 265.58 219.124C265.364 218.944 265.094 218.854 264.77 218.854C264.062 218.854 263.648 219.196 263.528 219.88H265.904ZM181.972 236.442V238.008H185.932V241.014H181.972V242.814H186.472V246H177.976V233.256H186.472V236.442H181.972ZM187.258 240.924C187.258 239.868 187.474 238.95 187.906 238.17C188.35 237.378 188.962 236.772 189.742 236.352C190.534 235.932 191.434 235.722 192.442 235.722C193.762 235.722 194.872 236.094 195.772 236.838C196.684 237.582 197.26 238.614 197.5 239.934H193.27C193.114 239.406 192.808 239.142 192.352 239.142C192.028 239.142 191.77 239.292 191.578 239.592C191.398 239.892 191.308 240.336 191.308 240.924C191.308 241.512 191.398 241.956 191.578 242.256C191.77 242.556 192.028 242.706 192.352 242.706C192.808 242.706 193.114 242.442 193.27 241.914H197.5C197.26 243.234 196.684 244.266 195.772 245.01C194.872 245.754 193.762 246.126 192.442 246.126C191.434 246.126 190.534 245.916 189.742 245.496C188.962 245.076 188.35 244.476 187.906 243.696C187.474 242.904 187.258 241.98 187.258 240.924ZM203.411 246.126C202.391 246.126 201.473 245.916 200.657 245.496C199.841 245.076 199.199 244.476 198.731 243.696C198.275 242.904 198.047 241.98 198.047 240.924C198.047 239.868 198.275 238.95 198.731 238.17C199.199 237.378 199.841 236.772 200.657 236.352C201.473 235.932 202.391 235.722 203.411 235.722C204.431 235.722 205.349 235.932 206.165 236.352C206.981 236.772 207.617 237.378 208.073 238.17C208.541 238.95 208.775 239.868 208.775 240.924C208.775 241.98 208.541 242.904 208.073 243.696C207.617 244.476 206.981 245.076 206.165 245.496C205.349 245.916 204.431 246.126 203.411 246.126ZM203.411 242.67C203.783 242.67 204.095 242.526 204.347 242.238C204.599 241.938 204.725 241.5 204.725 240.924C204.725 240.348 204.599 239.916 204.347 239.628C204.095 239.328 203.783 239.178 203.411 239.178C203.039 239.178 202.727 239.328 202.475 239.628C202.223 239.916 202.097 240.348 202.097 240.924C202.097 241.5 202.217 241.938 202.457 242.238C202.709 242.526 203.027 242.67 203.411 242.67ZM214.368 246.126C213.408 246.126 212.556 245.97 211.812 245.658C211.08 245.346 210.498 244.914 210.066 244.362C209.634 243.81 209.388 243.186 209.328 242.49H213.162C213.21 242.79 213.336 243.012 213.54 243.156C213.756 243.3 214.026 243.372 214.35 243.372C214.554 243.372 214.716 243.33 214.836 243.246C214.956 243.15 215.016 243.036 215.016 242.904C215.016 242.676 214.89 242.514 214.638 242.418C214.386 242.322 213.96 242.214 213.36 242.094C212.628 241.95 212.022 241.794 211.542 241.626C211.074 241.458 210.66 241.17 210.3 240.762C209.952 240.354 209.778 239.79 209.778 239.07C209.778 238.446 209.94 237.882 210.264 237.378C210.6 236.862 211.092 236.46 211.74 236.172C212.388 235.872 213.174 235.722 214.098 235.722C215.466 235.722 216.534 236.058 217.302 236.73C218.082 237.402 218.55 238.278 218.706 239.358H215.16C215.1 239.082 214.974 238.872 214.782 238.728C214.59 238.572 214.332 238.494 214.008 238.494C213.804 238.494 213.648 238.536 213.54 238.62C213.432 238.692 213.378 238.806 213.378 238.962C213.378 239.166 213.504 239.322 213.756 239.43C214.008 239.526 214.41 239.628 214.962 239.736C215.694 239.88 216.312 240.042 216.816 240.222C217.32 240.402 217.758 240.714 218.13 241.158C218.502 241.59 218.688 242.19 218.688 242.958C218.688 243.558 218.514 244.098 218.166 244.578C217.818 245.058 217.314 245.436 216.654 245.712C216.006 245.988 215.244 246.126 214.368 246.126ZM231.56 235.848L225.062 250.86H220.688L223.244 245.496L219.014 235.848H223.46L225.368 240.996L227.15 235.848H231.56ZM236.613 246.126C235.653 246.126 234.801 245.97 234.057 245.658C233.325 245.346 232.743 244.914 232.311 244.362C231.879 243.81 231.633 243.186 231.573 242.49H235.407C235.455 242.79 235.581 243.012 235.785 243.156C236.001 243.3 236.271 243.372 236.595 243.372C236.799 243.372 236.961 243.33 237.081 243.246C237.201 243.15 237.261 243.036 237.261 242.904C237.261 242.676 237.135 242.514 236.883 242.418C236.631 242.322 236.205 242.214 235.605 242.094C234.873 241.95 234.267 241.794 233.787 241.626C233.319 241.458 232.905 241.17 232.545 240.762C232.197 240.354 232.023 239.79 232.023 239.07C232.023 238.446 232.185 237.882 232.509 237.378C232.845 236.862 233.337 236.46 233.985 236.172C234.633 235.872 235.419 235.722 236.343 235.722C237.711 235.722 238.779 236.058 239.547 236.73C240.327 237.402 240.795 238.278 240.951 239.358H237.405C237.345 239.082 237.219 238.872 237.027 238.728C236.835 238.572 236.577 238.494 236.253 238.494C236.049 238.494 235.893 238.536 235.785 238.62C235.677 238.692 235.623 238.806 235.623 238.962C235.623 239.166 235.749 239.322 236.001 239.43C236.253 239.526 236.655 239.628 237.207 239.736C237.939 239.88 238.557 240.042 239.061 240.222C239.565 240.402 240.003 240.714 240.375 241.158C240.747 241.59 240.933 242.19 240.933 242.958C240.933 243.558 240.759 244.098 240.411 244.578C240.063 245.058 239.559 245.436 238.899 245.712C238.251 245.988 237.489 246.126 236.613 246.126ZM248.657 242.598V246H247.145C244.361 246 242.969 244.614 242.969 241.842V239.178H241.709V235.848H242.969V233.4H246.965V235.848H248.621V239.178H246.965V241.914C246.965 242.154 247.019 242.328 247.127 242.436C247.247 242.544 247.439 242.598 247.703 242.598H248.657ZM259.827 240.834C259.827 241.11 259.809 241.374 259.773 241.626H253.347C253.407 242.502 253.773 242.94 254.445 242.94C254.877 242.94 255.189 242.742 255.381 242.346H259.611C259.467 243.066 259.161 243.714 258.693 244.29C258.237 244.854 257.655 245.304 256.947 245.64C256.251 245.964 255.483 246.126 254.643 246.126C253.635 246.126 252.735 245.916 251.943 245.496C251.163 245.076 250.551 244.476 250.107 243.696C249.675 242.904 249.459 241.98 249.459 240.924C249.459 239.868 249.675 238.95 250.107 238.17C250.551 237.378 251.163 236.772 251.943 236.352C252.735 235.932 253.635 235.722 254.643 235.722C255.651 235.722 256.545 235.932 257.325 236.352C258.117 236.76 258.729 237.348 259.161 238.116C259.605 238.884 259.827 239.79 259.827 240.834ZM255.777 239.88C255.777 239.544 255.669 239.292 255.453 239.124C255.237 238.944 254.967 238.854 254.643 238.854C253.935 238.854 253.521 239.196 253.401 239.88H255.777ZM274.465 235.776C275.761 235.776 276.763 236.166 277.471 236.946C278.191 237.726 278.551 238.782 278.551 240.114V246H274.573V240.618C274.573 240.186 274.441 239.85 274.177 239.61C273.925 239.358 273.583 239.232 273.151 239.232C272.707 239.232 272.359 239.358 272.107 239.61C271.855 239.85 271.729 240.186 271.729 240.618V246H267.751V240.618C267.751 240.186 267.619 239.85 267.355 239.61C267.103 239.358 266.761 239.232 266.329 239.232C265.885 239.232 265.537 239.358 265.285 239.61C265.033 239.85 264.907 240.186 264.907 240.618V246H260.911V235.848H264.907V237.216C265.195 236.784 265.585 236.436 266.077 236.172C266.581 235.908 267.169 235.776 267.841 235.776C268.573 235.776 269.221 235.938 269.785 236.262C270.349 236.574 270.799 237.018 271.135 237.594C271.507 237.066 271.981 236.634 272.557 236.298C273.133 235.95 273.769 235.776 274.465 235.776Z" fill="url(#paint94_linear_21_16049)"/>
</g>
</g>
<defs>
<filter id="filter0_d_21_16049" x="117.907" y="51.2584" width="30.7674" height="23.9727" filterUnits="userSpaceOnUse" color-interpolation-filters="sRGB">
<feFlood flood-opacity="0" result="BackgroundImageFix"/>
<feColorMatrix in="SourceAlpha" type="matrix" values="0 0 0 0 0 0 0 0 0 0 0 0 0 0 0 0 0 0 127 0" result="hardAlpha"/>
<feOffset dy="2.23124"/>
<feGaussianBlur stdDeviation="0.557811"/>
<feColorMatrix type="matrix" values="0 0 0 0 0.541667 0 0 0 0 0.336104 0 0 0 0 0.0947917 0 0 0 0.25 0"/>
<feBlend mode="normal" in2="BackgroundImageFix" result="effect1_dropShadow_21_16049"/>
<feBlend mode="normal" in="SourceGraphic" in2="effect1_dropShadow_21_16049" result="shape"/>
</filter>
<filter id="filter1_d_21_16049" x="94.4584" y="104.556" width="29.5589" height="15.6013" filterUnits="userSpaceOnUse" color-interpolation-filters="sRGB">
<feFlood flood-opacity="0" result="BackgroundImageFix"/>
<feColorMatrix in="SourceAlpha" type="matrix" values="0 0 0 0 0 0 0 0 0 0 0 0 0 0 0 0 0 0 127 0" result="hardAlpha"/>
<feOffset dy="2.23124"/>
<feGaussianBlur stdDeviation="0.557811"/>
<feColorMatrix type="matrix" values="0 0 0 0 0.541667 0 0 0 0 0.336104 0 0 0 0 0.0947917 0 0 0 0.25 0"/>
<feBlend mode="normal" in2="BackgroundImageFix" result="effect1_dropShadow_21_16049"/>
<feBlend mode="normal" in="SourceGraphic" in2="effect1_dropShadow_21_16049" result="shape"/>
</filter>
<filter id="filter2_d_21_16049" x="66.8181" y="107.193" width="22.4897" height="43.2988" filterUnits="userSpaceOnUse" color-interpolation-filters="sRGB">
<feFlood flood-opacity="0" result="BackgroundImageFix"/>
<feColorMatrix in="SourceAlpha" type="matrix" values="0 0 0 0 0 0 0 0 0 0 0 0 0 0 0 0 0 0 127 0" result="hardAlpha"/>
<feOffset dx="2.23124" dy="2.23124"/>
<feGaussianBlur stdDeviation="0.557811"/>
<feColorMatrix type="matrix" values="0 0 0 0 0.541667 0 0 0 0 0.336104 0 0 0 0 0.0947917 0 0 0 0.25 0"/>
<feBlend mode="normal" in2="BackgroundImageFix" result="effect1_dropShadow_21_16049"/>
<feBlend mode="normal" in="SourceGraphic" in2="effect1_dropShadow_21_16049" result="shape"/>
</filter>
<filter id="filter3_d_21_16049" x="78.2652" y="150.566" width="11.8977" height="36.1992" filterUnits="userSpaceOnUse" color-interpolation-filters="sRGB">
<feFlood flood-opacity="0" result="BackgroundImageFix"/>
<feColorMatrix in="SourceAlpha" type="matrix" values="0 0 0 0 0 0 0 0 0 0 0 0 0 0 0 0 0 0 127 0" result="hardAlpha"/>
<feOffset dy="2.23124"/>
<feGaussianBlur stdDeviation="0.557811"/>
<feColorMatrix type="matrix" values="0 0 0 0 0.541667 0 0 0 0 0.336104 0 0 0 0 0.0947917 0 0 0 0.25 0"/>
<feBlend mode="normal" in2="BackgroundImageFix" result="effect1_dropShadow_21_16049"/>
<feBlend mode="normal" in="SourceGraphic" in2="effect1_dropShadow_21_16049" result="shape"/>
</filter>
<filter id="filter4_d_21_16049" x="77.5169" y="185.83" width="13.3894" height="41.0277" filterUnits="userSpaceOnUse" color-interpolation-filters="sRGB">
<feFlood flood-opacity="0" result="BackgroundImageFix"/>
<feColorMatrix in="SourceAlpha" type="matrix" values="0 0 0 0 0 0 0 0 0 0 0 0 0 0 0 0 0 0 127 0" result="hardAlpha"/>
<feOffset dy="2.23124"/>
<feGaussianBlur stdDeviation="0.557811"/>
<feColorMatrix type="matrix" values="0 0 0 0 0.541667 0 0 0 0 0.336104 0 0 0 0 0.0947917 0 0 0 0.25 0"/>
<feBlend mode="normal" in2="BackgroundImageFix" result="effect1_dropShadow_21_16049"/>
<feBlend mode="normal" in="SourceGraphic" in2="effect1_dropShadow_21_16049" result="shape"/>
</filter>
<filter id="filter5_d_21_16049" x="54.1143" y="191.468" width="27.8383" height="25.9944" filterUnits="userSpaceOnUse" color-interpolation-filters="sRGB">
<feFlood flood-opacity="0" result="BackgroundImageFix"/>
<feColorMatrix in="SourceAlpha" type="matrix" values="0 0 0 0 0 0 0 0 0 0 0 0 0 0 0 0 0 0 127 0" result="hardAlpha"/>
<feOffset dx="2.23124" dy="2.23124"/>
<feGaussianBlur stdDeviation="0.557811"/>
<feColorMatrix type="matrix" values="0 0 0 0 0.541667 0 0 0 0 0.336104 0 0 0 0 0.0947917 0 0 0 0.25 0"/>
<feBlend mode="normal" in2="BackgroundImageFix" result="effect1_dropShadow_21_16049"/>
<feBlend mode="normal" in="SourceGraphic" in2="effect1_dropShadow_21_16049" result="shape"/>
</filter>
<filter id="filter6_d_21_16049" x="60.5047" y="234.174" width="26.5259" height="15.8807" filterUnits="userSpaceOnUse" color-interpolation-filters="sRGB">
<feFlood flood-opacity="0" result="BackgroundImageFix"/>
<feColorMatrix in="SourceAlpha" type="matrix" values="0 0 0 0 0 0 0 0 0 0 0 0 0 0 0 0 0 0 127 0" result="hardAlpha"/>
<feOffset dy="2.23124"/>
<feGaussianBlur stdDeviation="0.557811"/>
<feColorMatrix type="matrix" values="0 0 0 0 0.541667 0 0 0 0 0.336104 0 0 0 0 0.0947917 0 0 0 0.25 0"/>
<feBlend mode="normal" in2="BackgroundImageFix" result="effect1_dropShadow_21_16049"/>
<feBlend mode="normal" in="SourceGraphic" in2="effect1_dropShadow_21_16049" result="shape"/>
</filter>
<filter id="filter7_d_21_16049" x="305.326" y="52.2126" width="30.7674" height="23.9727" filterUnits="userSpaceOnUse" color-interpolation-filters="sRGB">
<feFlood flood-opacity="0" result="BackgroundImageFix"/>
<feColorMatrix in="SourceAlpha" type="matrix" values="0 0 0 0 0 0 0 0 0 0 0 0 0 0 0 0 0 0 127 0" result="hardAlpha"/>
<feOffset dy="2.23124"/>
<feGaussianBlur stdDeviation="0.557811"/>
<feColorMatrix type="matrix" values="0 0 0 0 0.541667 0 0 0 0 0.336104 0 0 0 0 0.0947917 0 0 0 0.25 0"/>
<feBlend mode="normal" in2="BackgroundImageFix" result="effect1_dropShadow_21_16049"/>
<feBlend mode="normal" in="SourceGraphic" in2="effect1_dropShadow_21_16049" result="shape"/>
</filter>
<filter id="filter8_d_21_16049" x="329.987" y="105.509" width="29.5589" height="15.601" filterUnits="userSpaceOnUse" color-interpolation-filters="sRGB">
<feFlood flood-opacity="0" result="BackgroundImageFix"/>
<feColorMatrix in="SourceAlpha" type="matrix" values="0 0 0 0 0 0 0 0 0 0 0 0 0 0 0 0 0 0 127 0" result="hardAlpha"/>
<feOffset dy="2.23124"/>
<feGaussianBlur stdDeviation="0.557811"/>
<feColorMatrix type="matrix" values="0 0 0 0 0.541667 0 0 0 0 0.336104 0 0 0 0 0.0947917 0 0 0 0.25 0"/>
<feBlend mode="normal" in2="BackgroundImageFix" result="effect1_dropShadow_21_16049"/>
<feBlend mode="normal" in="SourceGraphic" in2="effect1_dropShadow_21_16049" result="shape"/>
</filter>
<filter id="filter9_d_21_16049" x="368.04" y="108.147" width="22.4897" height="43.2988" filterUnits="userSpaceOnUse" color-interpolation-filters="sRGB">
<feFlood flood-opacity="0" result="BackgroundImageFix"/>
<feColorMatrix in="SourceAlpha" type="matrix" values="0 0 0 0 0 0 0 0 0 0 0 0 0 0 0 0 0 0 127 0" result="hardAlpha"/>
<feOffset dx="2.23124" dy="2.23124"/>
<feGaussianBlur stdDeviation="0.557811"/>
<feColorMatrix type="matrix" values="0 0 0 0 0.541667 0 0 0 0 0.336104 0 0 0 0 0.0947917 0 0 0 0.25 0"/>
<feBlend mode="normal" in2="BackgroundImageFix" result="effect1_dropShadow_21_16049"/>
<feBlend mode="normal" in="SourceGraphic" in2="effect1_dropShadow_21_16049" result="shape"/>
</filter>
<filter id="filter10_d_21_16049" x="363.838" y="151.52" width="11.8977" height="36.199" filterUnits="userSpaceOnUse" color-interpolation-filters="sRGB">
<feFlood flood-opacity="0" result="BackgroundImageFix"/>
<feColorMatrix in="SourceAlpha" type="matrix" values="0 0 0 0 0 0 0 0 0 0 0 0 0 0 0 0 0 0 127 0" result="hardAlpha"/>
<feOffset dy="2.23124"/>
<feGaussianBlur stdDeviation="0.557811"/>
<feColorMatrix type="matrix" values="0 0 0 0 0.541667 0 0 0 0 0.336104 0 0 0 0 0.0947917 0 0 0 0.25 0"/>
<feBlend mode="normal" in2="BackgroundImageFix" result="effect1_dropShadow_21_16049"/>
<feBlend mode="normal" in="SourceGraphic" in2="effect1_dropShadow_21_16049" result="shape"/>
</filter>
<filter id="filter11_d_21_16049" x="363.094" y="186.785" width="13.3894" height="41.0274" filterUnits="userSpaceOnUse" color-interpolation-filters="sRGB">
<feFlood flood-opacity="0" result="BackgroundImageFix"/>
<feColorMatrix in="SourceAlpha" type="matrix" values="0 0 0 0 0 0 0 0 0 0 0 0 0 0 0 0 0 0 127 0" result="hardAlpha"/>
<feOffset dy="2.23124"/>
<feGaussianBlur stdDeviation="0.557811"/>
<feColorMatrix type="matrix" values="0 0 0 0 0.541667 0 0 0 0 0.336104 0 0 0 0 0.0947917 0 0 0 0.25 0"/>
<feBlend mode="normal" in2="BackgroundImageFix" result="effect1_dropShadow_21_16049"/>
<feBlend mode="normal" in="SourceGraphic" in2="effect1_dropShadow_21_16049" result="shape"/>
</filter>
<filter id="filter12_d_21_16049" x="375.396" y="192.422" width="27.8383" height="25.9946" filterUnits="userSpaceOnUse" color-interpolation-filters="sRGB">
<feFlood flood-opacity="0" result="BackgroundImageFix"/>
<feColorMatrix in="SourceAlpha" type="matrix" values="0 0 0 0 0 0 0 0 0 0 0 0 0 0 0 0 0 0 127 0" result="hardAlpha"/>
<feOffset dx="2.23124" dy="2.23124"/>
<feGaussianBlur stdDeviation="0.557811"/>
<feColorMatrix type="matrix" values="0 0 0 0 0.541667 0 0 0 0 0.336104 0 0 0 0 0.0947917 0 0 0 0.25 0"/>
<feBlend mode="normal" in2="BackgroundImageFix" result="effect1_dropShadow_21_16049"/>
<feBlend mode="normal" in="SourceGraphic" in2="effect1_dropShadow_21_16049" result="shape"/>
</filter>
<filter id="filter13_d_21_16049" x="366.968" y="235.129" width="26.5259" height="15.8807" filterUnits="userSpaceOnUse" color-interpolation-filters="sRGB">
<feFlood flood-opacity="0" result="BackgroundImageFix"/>
<feColorMatrix in="SourceAlpha" type="matrix" values="0 0 0 0 0 0 0 0 0 0 0 0 0 0 0 0 0 0 127 0" result="hardAlpha"/>
<feOffset dy="2.23124"/>
<feGaussianBlur stdDeviation="0.557811"/>
<feColorMatrix type="matrix" values="0 0 0 0 0.541667 0 0 0 0 0.336104 0 0 0 0 0.0947917 0 0 0 0.25 0"/>
<feBlend mode="normal" in2="BackgroundImageFix" result="effect1_dropShadow_21_16049"/>
<feBlend mode="normal" in="SourceGraphic" in2="effect1_dropShadow_21_16049" result="shape"/>
</filter>
<filter id="filter14_d_21_16049" x="11.3831" y="57.8551" width="412.067" height="286.556" filterUnits="userSpaceOnUse" color-interpolation-filters="sRGB">
<feFlood flood-opacity="0" result="BackgroundImageFix"/>
<feColorMatrix in="SourceAlpha" type="matrix" values="0 0 0 0 0 0 0 0 0 0 0 0 0 0 0 0 0 0 127 0" result="hardAlpha"/>
<feOffset dy="8"/>
<feGaussianBlur stdDeviation="3"/>
<feColorMatrix type="matrix" values="0 0 0 0 0.208958 0 0 0 0 0.389892 0 0 0 0 0.491667 0 0 0 0.54 0"/>
<feBlend mode="normal" in2="BackgroundImageFix" result="effect1_dropShadow_21_16049"/>
<feBlend mode="normal" in="SourceGraphic" in2="effect1_dropShadow_21_16049" result="shape"/>
</filter>
<filter id="filter15_f_21_16049" x="124.658" y="78.037" width="205.539" height="231.71" filterUnits="userSpaceOnUse" color-interpolation-filters="sRGB">
<feFlood flood-opacity="0" result="BackgroundImageFix"/>
<feBlend mode="normal" in="SourceGraphic" in2="BackgroundImageFix" result="shape"/>
<feGaussianBlur stdDeviation="0.15" result="effect1_foregroundBlur_21_16049"/>
</filter>
<filter id="filter16_i_21_16049" x="134.129" y="88.2623" width="187.851" height="211.632" filterUnits="userSpaceOnUse" color-interpolation-filters="sRGB">
<feFlood flood-opacity="0" result="BackgroundImageFix"/>
<feBlend mode="normal" in="SourceGraphic" in2="BackgroundImageFix" result="shape"/>
<feColorMatrix in="SourceAlpha" type="matrix" values="0 0 0 0 0 0 0 0 0 0 0 0 0 0 0 0 0 0 127 0" result="hardAlpha"/>
<feOffset/>
<feGaussianBlur stdDeviation="6.72414"/>
<feComposite in2="hardAlpha" operator="arithmetic" k2="-1" k3="1"/>
<feColorMatrix type="matrix" values="0 0 0 0 0.37849 0 0 0 0 0.586923 0 0 0 0 0.704167 0 0 0 1 0"/>
<feBlend mode="normal" in2="shape" result="effect1_innerShadow_21_16049"/>
</filter>
<filter id="filter17_i_21_16049" x="159.181" y="140.6" width="138.091" height="114.26" filterUnits="userSpaceOnUse" color-interpolation-filters="sRGB">
<feFlood flood-opacity="0" result="BackgroundImageFix"/>
<feBlend mode="normal" in="SourceGraphic" in2="BackgroundImageFix" result="shape"/>
<feColorMatrix in="SourceAlpha" type="matrix" values="0 0 0 0 0 0 0 0 0 0 0 0 0 0 0 0 0 0 127 0" result="hardAlpha"/>
<feOffset dy="4"/>
<feGaussianBlur stdDeviation="2"/>
<feComposite in2="hardAlpha" operator="arithmetic" k2="-1" k3="1"/>
<feColorMatrix type="matrix" values="0 0 0 0 0 0 0 0 0 0 0 0 0 0 0 0 0 0 0.25 0"/>
<feBlend mode="normal" in2="shape" result="effect1_innerShadow_21_16049"/>
</filter>
<linearGradient id="paint0_linear_21_16049" x1="81.794" y1="227.984" x2="73.9211" y2="238.61" gradientUnits="userSpaceOnUse">
<stop stop-color="#D2AB68"/>
<stop offset="1" stop-color="#B67D3F"/>
</linearGradient>
<linearGradient id="paint1_linear_21_16049" x1="115.219" y1="69.0313" x2="92.7733" y2="99.3246" gradientUnits="userSpaceOnUse">
<stop stop-color="#D2AB68"/>
<stop offset="1" stop-color="#B67D3F"/>
</linearGradient>
<linearGradient id="paint2_linear_21_16049" x1="138.555" y1="59.432" x2="122.95" y2="80.4928" gradientUnits="userSpaceOnUse">
<stop stop-color="#D2AB68"/>
<stop offset="1" stop-color="#B67D3F"/>
</linearGradient>
<linearGradient id="paint3_linear_21_16049" x1="80.8811" y1="147.794" x2="89.2023" y2="151.266" gradientUnits="userSpaceOnUse">
<stop stop-color="#D2AB68"/>
<stop offset="1" stop-color="#B67D3F"/>
</linearGradient>
<linearGradient id="paint4_linear_21_16049" x1="133.885" y1="73.586" x2="121.194" y2="47.8353" gradientUnits="userSpaceOnUse">
<stop stop-color="#D2AB68"/>
<stop offset="1" stop-color="#B67D3F"/>
</linearGradient>
<linearGradient id="paint5_linear_21_16049" x1="124.322" y1="44.5392" x2="117.348" y2="71.7921" gradientUnits="userSpaceOnUse">
<stop stop-color="#F7E6B3"/>
<stop offset="1" stop-color="#F7E6B3" stop-opacity="0"/>
</linearGradient>
<linearGradient id="paint6_linear_21_16049" x1="105.65" y1="147.025" x2="78.2604" y2="183.991" gradientUnits="userSpaceOnUse">
<stop stop-color="#D2AB68"/>
<stop offset="1" stop-color="#B67D3F"/>
</linearGradient>
<linearGradient id="paint7_linear_21_16049" x1="99.4315" y1="151.294" x2="107.872" y2="174.427" gradientUnits="userSpaceOnUse">
<stop stop-color="#F7E6B3"/>
<stop offset="1" stop-color="#F7E6B3" stop-opacity="0"/>
</linearGradient>
<linearGradient id="paint8_linear_21_16049" x1="92.0665" y1="111.796" x2="77.5027" y2="131.452" gradientUnits="userSpaceOnUse">
<stop stop-color="#D2AB68"/>
<stop offset="1" stop-color="#B67D3F"/>
</linearGradient>
<linearGradient id="paint9_linear_21_16049" x1="89.3561" y1="123.122" x2="82.8274" y2="135.375" gradientUnits="userSpaceOnUse">
<stop stop-color="#C18E42"/>
<stop offset="1" stop-color="#D2AB68"/>
</linearGradient>
<linearGradient id="paint10_linear_21_16049" x1="104.555" y1="77.2682" x2="86.1393" y2="102.122" gradientUnits="userSpaceOnUse">
<stop stop-color="#D2AB68"/>
<stop offset="1" stop-color="#8E573C"/>
</linearGradient>
<linearGradient id="paint11_linear_21_16049" x1="119.305" y1="87.945" x2="101.612" y2="111.824" gradientUnits="userSpaceOnUse">
<stop stop-color="#D2AB68"/>
<stop offset="1" stop-color="#B67D3F"/>
</linearGradient>
<linearGradient id="paint12_linear_21_16049" x1="71.477" y1="161.592" x2="64.9908" y2="170.346" gradientUnits="userSpaceOnUse">
<stop stop-color="#D2AB68"/>
<stop offset="1" stop-color="#B67D3F"/>
</linearGradient>
<linearGradient id="paint13_linear_21_16049" x1="76.4439" y1="145.262" x2="61.1579" y2="165.892" gradientUnits="userSpaceOnUse">
<stop stop-color="#C28766"/>
<stop offset="1" stop-color="#8E573C"/>
</linearGradient>
<linearGradient id="paint14_linear_21_16049" x1="100.233" y1="195.097" x2="80.2528" y2="222.063" gradientUnits="userSpaceOnUse">
<stop stop-color="#D2AB68"/>
<stop offset="1" stop-color="#B67D3F"/>
</linearGradient>
<linearGradient id="paint15_linear_21_16049" x1="79.306" y1="188.398" x2="66.668" y2="205.454" gradientUnits="userSpaceOnUse">
<stop stop-color="#D2AB68"/>
<stop offset="1" stop-color="#B67D3F"/>
</linearGradient>
<linearGradient id="paint16_linear_21_16049" x1="81.5562" y1="187.297" x2="66.6847" y2="207.368" gradientUnits="userSpaceOnUse">
<stop stop-color="#FADA81"/>
<stop offset="1" stop-color="#B67D3F"/>
</linearGradient>
<linearGradient id="paint17_linear_21_16049" x1="79.2899" y1="242.736" x2="73.1514" y2="251.02" gradientUnits="userSpaceOnUse">
<stop stop-color="#D2AB68"/>
<stop offset="1" stop-color="#B67D3F"/>
</linearGradient>
<linearGradient id="paint18_linear_21_16049" x1="157.947" y1="19.7006" x2="135.921" y2="49.4276" gradientUnits="userSpaceOnUse">
<stop stop-color="#FCF1D5"/>
<stop offset="1" stop-color="#EBCE6A"/>
</linearGradient>
<linearGradient id="paint19_linear_21_16049" x1="160.482" y1="21.5797" x2="138.455" y2="51.3067" gradientUnits="userSpaceOnUse">
<stop stop-color="#D2AB68"/>
<stop offset="1" stop-color="#B67D3F"/>
</linearGradient>
<linearGradient id="paint20_linear_21_16049" x1="144.362" y1="48.8896" x2="124.382" y2="75.855" gradientUnits="userSpaceOnUse">
<stop stop-color="#D2AB68"/>
<stop offset="1" stop-color="#B67D3F"/>
</linearGradient>
<linearGradient id="paint21_linear_21_16049" x1="138.974" y1="51.3723" x2="139.678" y2="77.2059" gradientUnits="userSpaceOnUse">
<stop stop-color="#F7E6B3"/>
<stop offset="1" stop-color="#F7E6B3" stop-opacity="0"/>
</linearGradient>
<linearGradient id="paint22_linear_21_16049" x1="109.195" y1="71.8156" x2="102.803" y2="102.846" gradientUnits="userSpaceOnUse">
<stop stop-color="#F7E6B3"/>
<stop offset="1" stop-color="#F7E6B3" stop-opacity="0"/>
</linearGradient>
<linearGradient id="paint23_linear_21_16049" x1="98.231" y1="78.3357" x2="88.0275" y2="104.697" gradientUnits="userSpaceOnUse">
<stop stop-color="#F7E6B3"/>
<stop offset="1" stop-color="#F7E6B3" stop-opacity="0"/>
</linearGradient>
<linearGradient id="paint24_linear_21_16049" x1="115.033" y1="90.5873" x2="115.452" y2="108.164" gradientUnits="userSpaceOnUse">
<stop stop-color="#FFDD78"/>
<stop offset="1" stop-color="#FFF1C8" stop-opacity="0.38"/>
</linearGradient>
<linearGradient id="paint25_linear_21_16049" x1="116.584" y1="100.27" x2="101.057" y2="121.225" gradientUnits="userSpaceOnUse">
<stop stop-color="#D2AB68"/>
<stop offset="1" stop-color="#B67D3F"/>
</linearGradient>
<linearGradient id="paint26_linear_21_16049" x1="116.843" y1="99.9584" x2="97.9602" y2="119.226" gradientUnits="userSpaceOnUse">
<stop stop-color="#FFDA92"/>
<stop offset="1" stop-color="#DCBA84"/>
</linearGradient>
<linearGradient id="paint27_linear_21_16049" x1="72.5369" y1="111.417" x2="82.851" y2="141.648" gradientUnits="userSpaceOnUse">
<stop stop-color="#F7E6B3"/>
<stop offset="1" stop-color="#BC8647"/>
</linearGradient>
<linearGradient id="paint28_linear_21_16049" x1="82.2274" y1="118.909" x2="69.8904" y2="135.56" gradientUnits="userSpaceOnUse">
<stop stop-color="#D2AB68"/>
<stop offset="1" stop-color="#8E573C"/>
</linearGradient>
<linearGradient id="paint29_linear_21_16049" x1="68.5714" y1="143.726" x2="58.1551" y2="162.666" gradientUnits="userSpaceOnUse">
<stop stop-color="#F7E6B3"/>
<stop offset="1" stop-color="#F7E6B3" stop-opacity="0"/>
</linearGradient>
<linearGradient id="paint30_linear_21_16049" x1="93.1446" y1="154.614" x2="74.4884" y2="179.793" gradientUnits="userSpaceOnUse">
<stop stop-color="#D2AB68"/>
<stop offset="1" stop-color="#B67D3F"/>
</linearGradient>
<linearGradient id="paint31_linear_21_16049" x1="87.7145" y1="150.191" x2="79.3479" y2="181.753" gradientUnits="userSpaceOnUse">
<stop stop-color="#E0C087"/>
<stop offset="0.28125" stop-color="#FFE49E"/>
<stop offset="1" stop-color="#753C1D"/>
</linearGradient>
<linearGradient id="paint32_linear_21_16049" x1="65.636" y1="161.887" x2="58.6109" y2="168.865" gradientUnits="userSpaceOnUse">
<stop stop-color="#B18253"/>
<stop offset="1" stop-color="#F7E6B3" stop-opacity="0"/>
</linearGradient>
<linearGradient id="paint33_linear_21_16049" x1="92.8969" y1="191.925" x2="73.8796" y2="217.591" gradientUnits="userSpaceOnUse">
<stop stop-color="#D2AB68"/>
<stop offset="1" stop-color="#B67D3F"/>
</linearGradient>
<linearGradient id="paint34_linear_21_16049" x1="87.2866" y1="193.873" x2="79.6848" y2="221.808" gradientUnits="userSpaceOnUse">
<stop stop-color="#F7E6B3"/>
<stop offset="1" stop-color="#F7E6B3" stop-opacity="0"/>
</linearGradient>
<linearGradient id="paint35_linear_21_16049" x1="69.0774" y1="199.248" x2="62.2466" y2="208.467" gradientUnits="userSpaceOnUse">
<stop stop-color="#D2AB68"/>
<stop offset="1" stop-color="#B67D3F"/>
</linearGradient>
<linearGradient id="paint36_linear_21_16049" x1="66.298" y1="197.378" x2="71.958" y2="210.989" gradientUnits="userSpaceOnUse">
<stop stop-color="#FADA81"/>
<stop offset="1" stop-color="#9A5E33"/>
</linearGradient>
<linearGradient id="paint37_linear_21_16049" x1="77.8869" y1="233.829" x2="70.7208" y2="243.501" gradientUnits="userSpaceOnUse">
<stop stop-color="#FADA81"/>
<stop offset="1" stop-color="#B67D3F"/>
</linearGradient>
<linearGradient id="paint38_linear_21_16049" x1="78.2118" y1="238.078" x2="70.1062" y2="249.017" gradientUnits="userSpaceOnUse">
<stop stop-color="#D2AB68"/>
<stop offset="1" stop-color="#B67D3F"/>
</linearGradient>
<linearGradient id="paint39_linear_21_16049" x1="372.206" y1="228.939" x2="380.079" y2="239.564" gradientUnits="userSpaceOnUse">
<stop stop-color="#D2AB68"/>
<stop offset="1" stop-color="#B67D3F"/>
</linearGradient>
<linearGradient id="paint40_linear_21_16049" x1="338.78" y1="69.9857" x2="361.226" y2="100.279" gradientUnits="userSpaceOnUse">
<stop stop-color="#D2AB68"/>
<stop offset="1" stop-color="#B67D3F"/>
</linearGradient>
<linearGradient id="paint41_linear_21_16049" x1="315.445" y1="60.3862" x2="331.05" y2="81.447" gradientUnits="userSpaceOnUse">
<stop stop-color="#D2AB68"/>
<stop offset="1" stop-color="#B67D3F"/>
</linearGradient>
<linearGradient id="paint42_linear_21_16049" x1="373.119" y1="148.75" x2="364.797" y2="152.222" gradientUnits="userSpaceOnUse">
<stop stop-color="#D2AB68"/>
<stop offset="1" stop-color="#B67D3F"/>
</linearGradient>
<linearGradient id="paint43_linear_21_16049" x1="320.115" y1="74.5406" x2="332.806" y2="48.7897" gradientUnits="userSpaceOnUse">
<stop stop-color="#D2AB68"/>
<stop offset="1" stop-color="#B67D3F"/>
</linearGradient>
<linearGradient id="paint44_linear_21_16049" x1="329.678" y1="45.4936" x2="336.652" y2="72.7466" gradientUnits="userSpaceOnUse">
<stop stop-color="#F7E6B3"/>
<stop offset="1" stop-color="#F7E6B3" stop-opacity="0"/>
</linearGradient>
<linearGradient id="paint45_linear_21_16049" x1="348.348" y1="147.979" x2="375.738" y2="184.945" gradientUnits="userSpaceOnUse">
<stop stop-color="#D2AB68"/>
<stop offset="1" stop-color="#B67D3F"/>
</linearGradient>
<linearGradient id="paint46_linear_21_16049" x1="354.567" y1="152.248" x2="346.126" y2="175.384" gradientUnits="userSpaceOnUse">
<stop stop-color="#F7E6B3"/>
<stop offset="1" stop-color="#F7E6B3" stop-opacity="0"/>
</linearGradient>
<linearGradient id="paint47_linear_21_16049" x1="361.932" y1="112.752" x2="376.496" y2="132.407" gradientUnits="userSpaceOnUse">
<stop stop-color="#D2AB68"/>
<stop offset="1" stop-color="#B67D3F"/>
</linearGradient>
<linearGradient id="paint48_linear_21_16049" x1="364.644" y1="124.078" x2="371.173" y2="136.331" gradientUnits="userSpaceOnUse">
<stop stop-color="#C18E42"/>
<stop offset="1" stop-color="#D2AB68"/>
</linearGradient>
<linearGradient id="paint49_linear_21_16049" x1="349.444" y1="78.2224" x2="367.859" y2="103.076" gradientUnits="userSpaceOnUse">
<stop stop-color="#D2AB68"/>
<stop offset="1" stop-color="#8E573C"/>
</linearGradient>
<linearGradient id="paint50_linear_21_16049" x1="334.696" y1="88.8992" x2="352.389" y2="112.778" gradientUnits="userSpaceOnUse">
<stop stop-color="#D2AB68"/>
<stop offset="1" stop-color="#B67D3F"/>
</linearGradient>
<linearGradient id="paint51_linear_21_16049" x1="382.521" y1="162.547" x2="389.008" y2="171.3" gradientUnits="userSpaceOnUse">
<stop stop-color="#D2AB68"/>
<stop offset="1" stop-color="#B67D3F"/>
</linearGradient>
<linearGradient id="paint52_linear_21_16049" x1="377.556" y1="146.216" x2="392.842" y2="166.846" gradientUnits="userSpaceOnUse">
<stop stop-color="#C28766"/>
<stop offset="1" stop-color="#8E573C"/>
</linearGradient>
<linearGradient id="paint53_linear_21_16049" x1="353.765" y1="196.051" x2="373.745" y2="223.017" gradientUnits="userSpaceOnUse">
<stop stop-color="#D2AB68"/>
<stop offset="1" stop-color="#B67D3F"/>
</linearGradient>
<linearGradient id="paint54_linear_21_16049" x1="374.694" y1="189.353" x2="387.332" y2="206.409" gradientUnits="userSpaceOnUse">
<stop stop-color="#D2AB68"/>
<stop offset="1" stop-color="#B67D3F"/>
</linearGradient>
<linearGradient id="paint55_linear_21_16049" x1="372.444" y1="188.252" x2="387.315" y2="208.323" gradientUnits="userSpaceOnUse">
<stop stop-color="#FADA81"/>
<stop offset="1" stop-color="#B67D3F"/>
</linearGradient>
<linearGradient id="paint56_linear_21_16049" x1="374.71" y1="243.69" x2="380.848" y2="251.975" gradientUnits="userSpaceOnUse">
<stop stop-color="#D2AB68"/>
<stop offset="1" stop-color="#B67D3F"/>
</linearGradient>
<linearGradient id="paint57_linear_21_16049" x1="296.052" y1="20.655" x2="318.078" y2="50.3819" gradientUnits="userSpaceOnUse">
<stop stop-color="#FCF1D5"/>
<stop offset="1" stop-color="#EBCE6A"/>
</linearGradient>
<linearGradient id="paint58_linear_21_16049" x1="293.517" y1="22.5341" x2="315.543" y2="52.2611" gradientUnits="userSpaceOnUse">
<stop stop-color="#D2AB68"/>
<stop offset="1" stop-color="#B67D3F"/>
</linearGradient>
<linearGradient id="paint59_linear_21_16049" x1="309.638" y1="49.8438" x2="329.618" y2="76.8093" gradientUnits="userSpaceOnUse">
<stop stop-color="#D2AB68"/>
<stop offset="1" stop-color="#B67D3F"/>
</linearGradient>
<linearGradient id="paint60_linear_21_16049" x1="315.026" y1="52.3265" x2="314.322" y2="78.1601" gradientUnits="userSpaceOnUse">
<stop stop-color="#F7E6B3"/>
<stop offset="1" stop-color="#F7E6B3" stop-opacity="0"/>
</linearGradient>
<linearGradient id="paint61_linear_21_16049" x1="344.807" y1="72.7727" x2="351.199" y2="103.8" gradientUnits="userSpaceOnUse">
<stop stop-color="#F7E6B3"/>
<stop offset="1" stop-color="#F7E6B3" stop-opacity="0"/>
</linearGradient>
<linearGradient id="paint62_linear_21_16049" x1="355.768" y1="79.2895" x2="365.971" y2="105.649" gradientUnits="userSpaceOnUse">
<stop stop-color="#F7E6B3"/>
<stop offset="1" stop-color="#F7E6B3" stop-opacity="0"/>
</linearGradient>
<linearGradient id="paint63_linear_21_16049" x1="338.972" y1="91.545" x2="338.552" y2="109.12" gradientUnits="userSpaceOnUse">
<stop stop-color="#FFDD78"/>
<stop offset="1" stop-color="#FFF1C8" stop-opacity="0.38"/>
</linearGradient>
<linearGradient id="paint64_linear_21_16049" x1="337.421" y1="101.223" x2="352.947" y2="122.178" gradientUnits="userSpaceOnUse">
<stop stop-color="#D2AB68"/>
<stop offset="1" stop-color="#B67D3F"/>
</linearGradient>
<linearGradient id="paint65_linear_21_16049" x1="337.162" y1="100.911" x2="356.044" y2="120.179" gradientUnits="userSpaceOnUse">
<stop stop-color="#FFDA92"/>
<stop offset="1" stop-color="#DCBA84"/>
</linearGradient>
<linearGradient id="paint66_linear_21_16049" x1="381.464" y1="112.372" x2="371.15" y2="142.602" gradientUnits="userSpaceOnUse">
<stop stop-color="#F7E6B3"/>
<stop offset="1" stop-color="#BC8647"/>
</linearGradient>
<linearGradient id="paint67_linear_21_16049" x1="371.776" y1="119.864" x2="384.111" y2="136.511" gradientUnits="userSpaceOnUse">
<stop stop-color="#D2AB68"/>
<stop offset="1" stop-color="#8E573C"/>
</linearGradient>
<linearGradient id="paint68_linear_21_16049" x1="385.432" y1="144.682" x2="395.848" y2="163.621" gradientUnits="userSpaceOnUse">
<stop stop-color="#F7E6B3"/>
<stop offset="1" stop-color="#F7E6B3" stop-opacity="0"/>
</linearGradient>
<linearGradient id="paint69_linear_21_16049" x1="360.857" y1="155.568" x2="379.513" y2="180.747" gradientUnits="userSpaceOnUse">
<stop stop-color="#D2AB68"/>
<stop offset="1" stop-color="#B67D3F"/>
</linearGradient>
<linearGradient id="paint70_linear_21_16049" x1="366.286" y1="151.145" x2="374.652" y2="182.707" gradientUnits="userSpaceOnUse">
<stop stop-color="#E0C087"/>
<stop offset="0.28125" stop-color="#FFE49E"/>
<stop offset="1" stop-color="#753C1D"/>
</linearGradient>
<linearGradient id="paint71_linear_21_16049" x1="388.365" y1="162.842" x2="395.39" y2="169.82" gradientUnits="userSpaceOnUse">
<stop stop-color="#B18253"/>
<stop offset="1" stop-color="#F7E6B3" stop-opacity="0"/>
</linearGradient>
<linearGradient id="paint72_linear_21_16049" x1="361.104" y1="192.88" x2="380.121" y2="218.546" gradientUnits="userSpaceOnUse">
<stop stop-color="#D2AB68"/>
<stop offset="1" stop-color="#B67D3F"/>
</linearGradient>
<linearGradient id="paint73_linear_21_16049" x1="366.714" y1="194.828" x2="374.316" y2="222.764" gradientUnits="userSpaceOnUse">
<stop stop-color="#F7E6B3"/>
<stop offset="1" stop-color="#F7E6B3" stop-opacity="0"/>
</linearGradient>
<linearGradient id="paint74_linear_21_16049" x1="384.924" y1="200.202" x2="391.755" y2="209.421" gradientUnits="userSpaceOnUse">
<stop stop-color="#D2AB68"/>
<stop offset="1" stop-color="#B67D3F"/>
</linearGradient>
<linearGradient id="paint75_linear_21_16049" x1="387.703" y1="198.332" x2="382.043" y2="211.944" gradientUnits="userSpaceOnUse">
<stop stop-color="#FADA81"/>
<stop offset="1" stop-color="#9A5E33"/>
</linearGradient>
<linearGradient id="paint76_linear_21_16049" x1="376.112" y1="234.783" x2="383.278" y2="244.455" gradientUnits="userSpaceOnUse">
<stop stop-color="#FADA81"/>
<stop offset="1" stop-color="#B67D3F"/>
</linearGradient>
<linearGradient id="paint77_linear_21_16049" x1="375.788" y1="239.032" x2="383.894" y2="249.971" gradientUnits="userSpaceOnUse">
<stop stop-color="#D2AB68"/>
<stop offset="1" stop-color="#B67D3F"/>
</linearGradient>
<linearGradient id="paint78_linear_21_16049" x1="358.843" y1="187.494" x2="392.222" y2="153.793" gradientUnits="userSpaceOnUse">
<stop stop-color="#C3C5D1"/>
<stop offset="0.875" stop-color="#F9F9F9"/>
</linearGradient>
<linearGradient id="paint79_linear_21_16049" x1="410.778" y1="148.094" x2="379.106" y2="187.791" gradientUnits="userSpaceOnUse">
<stop stop-color="#F9F9F9"/>
<stop offset="0.378992" stop-color="#F9F9F9"/>
<stop offset="0.480868" stop-color="#DFDFE6"/>
<stop offset="0.729174" stop-color="#B8BAC6"/>
</linearGradient>
<linearGradient id="paint80_linear_21_16049" x1="335.638" y1="217.591" x2="369.006" y2="182.796" gradientUnits="userSpaceOnUse">
<stop stop-color="#C3C5D1"/>
<stop offset="0.875" stop-color="#F9F9F9"/>
</linearGradient>
<linearGradient id="paint81_linear_21_16049" x1="378.181" y1="183.116" x2="361.317" y2="217.719" gradientUnits="userSpaceOnUse">
<stop stop-color="#F4F4F5"/>
<stop offset="0.306027" stop-color="#F4F4F5"/>
<stop offset="0.462087" stop-color="#E8E9EC"/>
<stop offset="0.682292" stop-color="#DFDFE6"/>
<stop offset="1" stop-color="#B8BAC6"/>
</linearGradient>
<linearGradient id="paint82_linear_21_16049" x1="75.9904" y1="187.494" x2="42.6117" y2="153.793" gradientUnits="userSpaceOnUse">
<stop stop-color="#C3C5D1"/>
<stop offset="0.875" stop-color="#F9F9F9"/>
</linearGradient>
<linearGradient id="paint83_linear_21_16049" x1="24.0551" y1="148.094" x2="55.7274" y2="187.791" gradientUnits="userSpaceOnUse">
<stop stop-color="#F9F9F9"/>
<stop offset="0.378992" stop-color="#F9F9F9"/>
<stop offset="0.480868" stop-color="#DFDFE6"/>
<stop offset="0.729174" stop-color="#B8BAC6"/>
</linearGradient>
<linearGradient id="paint84_linear_21_16049" x1="99.1957" y1="217.591" x2="65.8274" y2="182.796" gradientUnits="userSpaceOnUse">
<stop stop-color="#C3C5D1"/>
<stop offset="0.875" stop-color="#F9F9F9"/>
</linearGradient>
<linearGradient id="paint85_linear_21_16049" x1="56.653" y1="183.116" x2="73.517" y2="217.719" gradientUnits="userSpaceOnUse">
<stop stop-color="#F4F4F5"/>
<stop offset="0.306027" stop-color="#F4F4F5"/>
<stop offset="0.462087" stop-color="#E8E9EC"/>
<stop offset="0.682292" stop-color="#DFDFE6"/>
<stop offset="1" stop-color="#B8BAC6"/>
</linearGradient>
<linearGradient id="paint86_linear_21_16049" x1="176.997" y1="88.9389" x2="283.72" y2="303.009" gradientUnits="userSpaceOnUse">
<stop stop-color="#D8ECF1"/>
<stop offset="1" stop-color="#82B3BF"/>
</linearGradient>
<linearGradient id="paint87_linear_21_16049" x1="176.034" y1="106.59" x2="268.096" y2="278.119" gradientUnits="userSpaceOnUse">
<stop stop-color="#A1C9D3"/>
<stop offset="1" stop-color="#D0ECF2"/>
</linearGradient>
<linearGradient id="paint88_linear_21_16049" x1="186.149" y1="100.388" x2="285.346" y2="280.573" gradientUnits="userSpaceOnUse">
<stop stop-color="#D0ECF2"/>
<stop offset="1" stop-color="#E6F8FC"/>
</linearGradient>
<radialGradient id="paint89_radial_21_16049" cx="0" cy="0" r="1" gradientUnits="userSpaceOnUse" gradientTransform="translate(228.054 194.078) rotate(90) scale(108.002 93.9255)">
<stop stop-color="#D0EBF2"/>
<stop offset="1" stop-color="#8DD3E2"/>
</radialGradient>
<linearGradient id="paint90_linear_21_16049" x1="228.054" y1="81.7994" x2="228.054" y2="306.347" gradientUnits="userSpaceOnUse">
<stop stop-color="white"/>
<stop offset="1" stop-color="#F2EDED" stop-opacity="0"/>
</linearGradient>
<linearGradient id="paint91_linear_21_16049" x1="112.092" y1="102.116" x2="223.824" y2="297.51" gradientUnits="userSpaceOnUse">
<stop stop-color="white"/>
<stop offset="1" stop-color="#F2EDED" stop-opacity="0"/>
</linearGradient>
<linearGradient id="paint92_linear_21_16049" x1="335.57" y1="102.116" x2="223.839" y2="297.51" gradientUnits="userSpaceOnUse">
<stop stop-color="white"/>
<stop offset="1" stop-color="#F2EDED" stop-opacity="0"/>
</linearGradient>
<linearGradient id="paint93_linear_21_16049" x1="228.054" y1="233.636" x2="227.498" y2="294.583" gradientUnits="userSpaceOnUse">
<stop stop-color="#EEFFFF" stop-opacity="0"/>
<stop offset="1" stop-color="#B5EBFB"/>
</linearGradient>
<linearGradient id="paint94_linear_21_16049" x1="315.438" y1="223.127" x2="151.086" y2="173.157" gradientUnits="userSpaceOnUse">
<stop stop-color="#5EA6B7"/>
<stop offset="1" stop-color="#5F9CAA"/>
</linearGradient>
</defs>
</svg>
