<svg width="454" height="378" viewBox="0 0 454 378" fill="none" xmlns="http://www.w3.org/2000/svg">
<path d="M134.129 323.076V217.502H321.98V322.153C321.98 323.189 321.423 324.146 320.522 324.658L228.289 377.08C227.403 377.584 226.317 377.582 225.432 377.075L135.578 325.576C134.682 325.063 134.129 324.109 134.129 323.076Z" fill="#84B7C4"/>
<path fill-rule="evenodd" clip-rule="evenodd" d="M188.726 217.502V356.037L135.578 325.576C134.682 325.063 134.129 324.109 134.129 323.076V217.502H188.726Z" fill="#6B9BAA"/>
<path fill-rule="evenodd" clip-rule="evenodd" d="M186.875 354.977V217.502H188.726V356.037L186.875 354.977Z" fill="#B0D2DD"/>
<path fill-rule="evenodd" clip-rule="evenodd" d="M267.383 216.585V355.121L320.531 324.659C321.427 324.146 321.98 323.192 321.98 322.159V216.585H267.383Z" fill="#6B9BAA"/>
<path fill-rule="evenodd" clip-rule="evenodd" d="M269.234 354.06V216.585H267.383V355.121L269.234 354.06Z" fill="#B0D2DD"/>
<path d="M76.9072 224.158C77.6891 224.737 82.4546 235.649 84.7396 241.032L86.0899 247.317C81.7329 244.34 72.6028 237.525 70.9386 234.078C69.2744 230.63 69.3375 222.407 69.5771 218.726L76.9072 224.158Z" fill="url(#paint0_linear_21_16463)"/>
<path d="M100.409 80.029C100.37 74.9678 103.977 69.5879 107.386 63.056C108.427 63.0225 112.603 69.9402 105.512 94.1267L102.225 101.505C101.174 106.261 100.516 100.741 99.331 96.5923C99.5226 86.9208 100.458 86.3555 100.409 80.029Z" fill="url(#paint1_linear_21_16463)"/>
<path d="M125.701 68.0711C127.328 67.2632 134.24 63.8297 144.614 63.2128L144.614 63.2129C143.639 64.5036 140.837 68.2143 130.836 74.3915C129.29 74.756 121.804 75.2486 118.019 74.2054C117.174 74.7867 118.113 73.5203 118.384 72.714C120.956 69.0842 124.075 68.879 125.701 68.0711Z" fill="url(#paint2_linear_21_16463)"/>
<path fill-rule="evenodd" clip-rule="evenodd" d="M82.5013 150.749C92.8129 106.889 117.09 70.0263 135.738 48.7278L136.552 49.3313C118.187 70.308 95.8422 108.219 85.6713 151.48C75.5107 194.698 78.4827 243.884 112.509 289.118L109.898 291.044C75.1675 244.872 72.1794 194.653 82.5013 150.749Z" fill="url(#paint3_linear_21_16463)"/>
<path d="M125.849 56.1029L122 36.6443L119.441 40.0323C114.285 48.541 117.344 54.5818 116.213 61.7963C115.309 67.5678 117.392 71.8959 118.505 72.5527L122.403 66.3827L125.849 56.1029Z" fill="url(#paint4_linear_21_16463)"/>
<path fill-rule="evenodd" clip-rule="evenodd" d="M122.067 36.9823C121.072 45.6787 119.998 56.1411 120.726 58.8496C121.389 61.3139 120.249 66.9213 118.897 71.9325L118.505 72.5527C117.392 71.8959 115.309 67.5678 116.213 61.7963C116.595 59.3612 116.499 57.0599 116.403 54.7522C116.215 50.2228 116.025 45.6691 119.441 40.0323L122 36.6443L122.067 36.9823Z" fill="url(#paint5_linear_21_16463)"/>
<path d="M97.2181 165.986C98.3223 163.986 101.865 151.312 103.499 145.225L101.547 145.792C89.9639 156.082 89.1195 164.263 86.686 170.512C84.2525 176.76 75.4351 186.08 80.2336 184.099C85.0321 182.119 95.8379 168.486 97.2181 165.986Z" fill="url(#paint6_linear_21_16463)"/>
<path fill-rule="evenodd" clip-rule="evenodd" d="M103.269 146.078C99.215 152.436 93.5226 161.879 91.3204 167.403C89.2598 172.572 84.4629 179.396 80.5702 183.946C80.455 184.003 80.3428 184.054 80.2336 184.099C77.4481 185.249 79.2508 182.591 81.7296 178.936C83.5209 176.295 85.6652 173.133 86.686 170.512C87.1258 169.382 87.5138 168.19 87.9225 166.933C89.7755 161.237 92.0574 154.222 101.547 145.792L103.499 145.225C103.426 145.497 103.349 145.782 103.269 146.078Z" fill="url(#paint7_linear_21_16463)"/>
<path d="M88.9033 119.815C87.9543 115.69 84.5356 108.107 82.9448 104.832C80.7538 109.751 81.9773 112.167 80.0735 119.06C78.5505 124.574 83.6856 133.898 86.4436 137.871C87.6589 133.571 89.8523 123.94 88.9033 119.815Z" fill="url(#paint8_linear_21_16463)"/>
<path fill-rule="evenodd" clip-rule="evenodd" d="M88.8044 119.401C88.8404 119.543 88.874 119.681 88.9049 119.815C89.8538 123.94 87.6604 133.571 86.4451 137.871C85.4681 136.464 84.1928 134.385 83.0209 132.042C84.2405 127.189 86.7345 122.555 88.8044 119.401Z" fill="url(#paint9_linear_21_16463)"/>
<path d="M98.496 79.8705C98.2324 77.2596 95.0952 71.4795 93.5596 68.9158C92.1552 73.9142 88.7311 79.6808 88.3754 88.2241C88.2284 91.7562 93.7383 104.108 96.9053 109.893L97.9995 106.427C95.8733 97.8057 98.8254 83.1342 98.496 79.8705Z" fill="url(#paint10_linear_21_16463)"/>
<path d="M112.036 104.999C117.369 101.705 120.701 93.3028 121.7 89.5137C112.39 95.4485 109.377 93.7193 101.822 103.722L99.2255 109.85C101.273 109.606 106.702 108.294 112.036 104.999Z" fill="url(#paint11_linear_21_16463)"/>
<path d="M77.9828 172.618C74.7479 162.371 63.0297 155.08 57.5755 153.22C64.0674 171.869 68.2529 167.673 72.2878 173.431C75.5158 178.037 78.304 180.153 78.8059 180.273L77.9828 172.618Z" fill="url(#paint12_linear_21_16463)"/>
<path d="M74.1322 151.144C73.0231 149.114 63.8088 137.791 59.3403 132.384C61.5125 145.316 63.8837 154.622 67.2658 158.889C69.9715 162.303 75.5968 173.198 78.0712 178.219C78.3141 177.224 78.8074 174.688 78.8372 172.496C78.8746 169.755 75.5187 153.681 74.1322 151.144Z" fill="url(#paint13_linear_21_16463)"/>
<path d="M97.1695 192.622C91.1223 198.206 85.5534 209.009 83.5249 213.713L82.9677 223.869C86.6786 219.74 94.4086 210.605 95.6412 207.09C96.8737 203.575 97.1736 195.98 97.1695 192.622Z" fill="url(#paint14_linear_21_16463)"/>
<path d="M74.2181 188.699C73.7924 186.572 69.6663 181.72 67.6565 179.56C66.6028 182.973 64.9777 191.515 66.9065 198.379C68.8353 205.244 75.2089 211.493 78.1546 213.759C78.737 213.1 79.5756 211.34 78.2715 209.568C76.6414 207.354 74.7503 191.358 74.2181 188.699Z" fill="url(#paint15_linear_21_16463)"/>
<path fill-rule="evenodd" clip-rule="evenodd" d="M77.7073 213.405C72.5324 203.698 69.1055 188.709 67.5846 179.798C67.6088 179.716 67.6328 179.637 67.6565 179.56C69.6663 181.72 73.7924 186.572 74.2181 188.699C74.3511 189.364 74.5691 190.862 74.8467 192.771C75.6795 198.495 77.0489 207.907 78.2715 209.568C79.5756 211.34 78.737 213.1 78.1546 213.759C78.0131 213.65 77.8637 213.532 77.7073 213.405Z" fill="url(#paint16_linear_21_16463)"/>
<path d="M73.846 249.065C75.7659 248.676 83.1635 249.51 86.6224 249.976L87.1086 248.324C85.8328 247.546 82.3204 245.38 78.4766 242.934C74.6329 240.489 67.7357 243.028 64.7676 244.603C66.9937 246.252 71.9261 249.454 73.846 249.065Z" fill="url(#paint17_linear_21_16463)"/>
<path d="M143.148 28.1564C144.903 25.8333 155.428 22.6614 160.472 21.3658L155.807 33.2589C154.589 34.8722 151.135 38.7045 147.069 41.1272C143.004 43.5499 137.327 48.0833 135.729 50.0867L134.752 49.3625C135.759 41.302 140.954 31.0604 143.148 28.1564Z" fill="url(#paint18_linear_21_16463)"/>
<path fill-rule="evenodd" clip-rule="evenodd" d="M135.89 49.1998C138.543 43.1931 151.906 29.2767 159.961 21.4982C160.137 21.4521 160.307 21.408 160.471 21.3658L155.806 33.2588C154.588 34.8722 151.134 38.7045 147.068 41.1272C143.003 43.5498 137.367 48.3652 135.769 50.3686L135.89 49.1998Z" fill="url(#paint19_linear_21_16463)"/>
<g filter="url(#filter0_d_21_16463)">
<path d="M128.162 59.5786C128.877 58.9007 135.649 52.5449 147.559 51.0527C146.938 53.4444 143.046 59.4348 140.056 62.8555C137.066 66.2763 125.422 70.0456 119.023 71.6785C122.949 66.3681 127.447 60.2564 128.162 59.5786Z" fill="url(#paint20_linear_21_16463)"/>
<path fill-rule="evenodd" clip-rule="evenodd" d="M147.408 51.5342C147.47 51.361 147.521 51.2 147.559 51.0527C135.649 52.5448 128.877 58.9007 128.162 59.5785C127.506 60.2008 123.661 65.4027 119.997 70.36C119.67 70.8026 119.344 71.2432 119.023 71.6785C119.505 71.5554 120.017 71.4202 120.553 71.2739C128.96 66.1444 140.715 56.9974 147.408 51.5342Z" fill="url(#paint21_linear_21_16463)"/>
</g>
<path fill-rule="evenodd" clip-rule="evenodd" d="M107.255 63.3069C107.388 64.4123 107.466 65.7214 107.391 67.084C107.192 70.7109 102.753 100.133 101.372 102.633C101.281 102.797 101.192 102.933 101.104 103.043C100.775 102.462 100.449 101.094 100.08 99.5435C99.8512 98.582 99.6056 97.5501 99.3318 96.5914C99.4318 91.5411 99.7346 88.9738 99.9942 86.7727C100.232 84.7586 100.433 83.0511 100.41 80.0282C100.822 74.9684 102.808 71.3889 105.304 66.8905C105.928 65.7659 106.584 64.5838 107.255 63.3069Z" fill="url(#paint22_linear_21_16463)"/>
<path fill-rule="evenodd" clip-rule="evenodd" d="M97.2598 108.77C94.7531 103.693 92.878 96.7381 93.2553 87.8143C93.6684 78.0446 93.5841 72.564 93.3319 69.6795C93.4125 69.4228 93.4886 69.1683 93.5596 68.9158C95.0952 71.4795 98.2324 77.2596 98.496 79.8705C98.6014 80.9148 98.3708 83.1269 98.0782 85.9351C97.4562 91.9034 96.5536 100.564 97.9995 106.427L97.2598 108.77Z" fill="url(#paint23_linear_21_16463)"/>
<path fill-rule="evenodd" clip-rule="evenodd" d="M121.636 89.5533C118.608 91.4784 116.247 92.5922 114.178 93.5686C109.92 95.5777 106.895 97.005 101.822 103.721L99.2256 109.849C99.3201 109.838 99.4218 109.824 99.5304 109.808C107.701 105.078 117.157 94.9757 121.636 89.5533Z" fill="url(#paint24_linear_21_16463)"/>
<g filter="url(#filter1_d_21_16463)">
<path d="M95.5744 115.699C96.3884 115.966 96.3663 115.711 98.7079 116.259C107.222 118.253 118.343 111.253 122.902 104.745L114.561 104.353C101.867 104.207 96.7085 111.506 95.5744 115.699Z" fill="url(#paint25_linear_21_16463)"/>
<path fill-rule="evenodd" clip-rule="evenodd" d="M122.694 105.036C122.765 104.939 122.834 104.842 122.902 104.746L114.561 104.353C101.867 104.207 96.7083 111.506 95.5743 115.699C95.6047 115.709 95.6339 115.718 95.6621 115.727C101.249 111.519 115.237 107.056 122.694 105.036Z" fill="url(#paint26_linear_21_16463)"/>
</g>
<g filter="url(#filter2_d_21_16463)">
<path d="M82.0718 122.806C80.7677 121.034 71.3712 111.522 66.8359 106.987C66.3719 126.773 75.2078 132.566 77.0021 135.908C81.2808 141.343 84.3379 146.041 85.4376 146.939L85.9611 142.546C85.208 136.704 83.3759 124.577 82.0718 122.806Z" fill="url(#paint27_linear_21_16463)"/>
<path fill-rule="evenodd" clip-rule="evenodd" d="M66.8318 107.295C66.537 123.031 72.1567 129.823 75.2882 133.608C76.0453 134.523 76.6569 135.262 77.0044 135.909C78.9551 138.387 80.6519 140.712 82.0251 142.593C83.4187 144.502 84.479 145.955 85.1329 146.647C84.3792 137.054 73.5044 117.839 66.8318 107.295Z" fill="url(#paint28_linear_21_16463)"/>
</g>
<path fill-rule="evenodd" clip-rule="evenodd" d="M78.724 174.347C74.602 164.35 65.2541 144.594 59.3955 132.447C63.8834 137.879 73.0297 149.122 74.1345 151.143C75.5209 153.68 78.8768 169.754 78.8395 172.495C78.8312 173.099 78.7878 173.73 78.724 174.347Z" fill="url(#paint29_linear_21_16463)"/>
<g filter="url(#filter3_d_21_16463)">
<path d="M80.2574 168.261C80.8324 159.427 85.446 152.647 87.6809 150.361L87.9718 155.357C91.9587 168.376 83.9055 179.352 79.3805 183.212C79.4332 181.909 79.6823 177.095 80.2574 168.261Z" fill="url(#paint30_linear_21_16463)"/>
<path fill-rule="evenodd" clip-rule="evenodd" d="M87.6246 150.419C85.2637 155.034 83.093 163.538 82.6289 178.575C81.4633 180.307 80.45 181.791 79.571 183.048C79.507 183.104 79.4435 183.159 79.3808 183.213C79.4334 181.91 79.6825 177.095 80.2576 168.262C80.8279 159.502 85.3693 152.761 87.6246 150.419Z" fill="url(#paint31_linear_21_16463)"/>
</g>
<path fill-rule="evenodd" clip-rule="evenodd" d="M78.5931 180.176C75.6858 171.466 64.1029 159.334 57.647 153.414C62.03 165.928 65.36 168.029 68.3053 169.887C69.6961 170.765 71.0011 171.588 72.2908 173.429C75.1977 177.577 77.748 179.705 78.5931 180.176Z" fill="url(#paint32_linear_21_16463)"/>
<path d="M135.729 49.0794C129.905 55.3324 114.627 74.4593 103.035 97.0715C94.7151 113.301 90.9203 119.296 82.7577 150.489C80.8274 157.865 77.0776 176.777 77.5211 193.411C76.8694 203.916 78.642 231.683 90.9459 258.715C94.4545 266.515 103.199 283.797 110.107 290.527" stroke="#FADA81" stroke-width="0.844684"/>
<g filter="url(#filter4_d_21_16463)">
<path d="M81.6321 195.702C83.8228 190.531 83.9943 186.632 84.6711 185.624C88.6302 195.855 89.4968 205.807 89.784 207.781C90.0138 209.361 84.6033 218.789 81.8693 223.305L78.6328 205.055C79.8862 198.686 79.0357 201.83 81.6321 195.702Z" fill="url(#paint33_linear_21_16463)"/>
<path fill-rule="evenodd" clip-rule="evenodd" d="M85.0789 186.706C84.9467 186.346 84.8109 185.985 84.6711 185.624C84.4025 186.024 84.2134 186.88 83.9461 188.09C83.54 189.928 82.9532 192.584 81.6321 195.702C80.3209 198.797 79.8888 199.527 79.6208 200.311C79.3582 201.081 79.2533 201.902 78.6328 205.055L81.7929 222.874C85.2298 214.915 85.4693 196.799 85.0789 186.706Z" fill="url(#paint34_linear_21_16463)"/>
</g>
<g filter="url(#filter5_d_21_16463)">
<path d="M66.8688 198.098C64.0646 194.007 57.2864 191.837 54.2479 191.263C53.273 192.553 57.8687 202.165 60.2884 206.81C61.2927 207.386 64.1727 209.135 67.6583 211.516C71.1439 213.897 76.4088 214.058 78.6056 213.84C75.8617 210.297 69.673 202.189 66.8688 198.098Z" fill="url(#paint35_linear_21_16463)"/>
<path fill-rule="evenodd" clip-rule="evenodd" d="M77.0829 213.91C77.6767 213.908 78.1948 213.881 78.6056 213.84C75.8618 210.297 69.673 202.189 66.8688 198.098C64.0646 194.007 57.2864 191.837 54.2479 191.263C54.2211 191.298 54.1986 191.34 54.1801 191.387C56.5048 195.87 62.92 203.741 77.0829 213.91Z" fill="url(#paint36_linear_21_16463)"/>
</g>
<g filter="url(#filter6_d_21_16463)">
<path d="M82.0892 236.805C78.2783 234.585 66.8556 233.989 61.6207 233.969C68.4272 243.793 69.5228 241.333 74.8572 245.034C79.1247 247.995 83.9311 245.802 85.8008 244.336C86.1515 242.751 85.9001 239.025 82.0892 236.805Z" fill="url(#paint37_linear_21_16463)"/>
<path fill-rule="evenodd" clip-rule="evenodd" d="M85.8763 243.874C75.1511 237.264 66.355 234.72 61.6744 234.046C66.37 240.809 68.336 241.697 70.8832 242.847C72.002 243.352 73.2329 243.907 74.8566 245.034C75.2134 245.282 75.5741 245.493 75.9365 245.672C76.8033 245.937 77.6563 246.193 78.4896 246.438C81.5841 246.824 84.4536 245.392 85.8002 244.336C85.8308 244.197 85.8568 244.043 85.8763 243.874Z" fill="url(#paint38_linear_21_16463)"/>
</g>
<path d="M377.093 225.112C376.311 225.691 371.545 236.603 369.26 241.987L367.91 248.271C372.267 245.295 381.397 238.479 383.061 235.032C384.725 231.585 384.662 223.361 384.423 219.681L377.093 225.112Z" fill="url(#paint39_linear_21_16463)"/>
<path d="M353.591 80.983C353.63 75.9218 350.023 70.5419 346.614 64.0101C345.573 63.9766 341.398 70.8942 348.488 95.0806L351.775 102.459C352.827 107.215 353.484 101.695 354.669 97.5462C354.478 87.8748 353.543 87.3095 353.591 80.983Z" fill="url(#paint40_linear_21_16463)"/>
<path d="M328.299 69.0255C326.672 68.2176 319.76 64.7841 309.386 64.1672L309.386 64.1673C310.361 65.458 313.164 69.1687 323.165 75.3458C324.71 75.7104 332.196 76.2029 335.981 75.1597C336.827 75.741 335.887 74.4746 335.617 73.6684C333.044 70.0386 329.925 69.8334 328.299 69.0255Z" fill="url(#paint41_linear_21_16463)"/>
<path fill-rule="evenodd" clip-rule="evenodd" d="M371.499 151.705C361.187 107.845 336.909 70.9818 318.262 49.6834L317.448 50.2869C335.813 71.2636 358.158 109.174 368.328 152.436C378.489 195.654 375.517 244.839 341.491 290.074L344.101 292C378.832 245.828 381.82 195.608 371.499 151.705Z" fill="url(#paint42_linear_21_16463)"/>
<path d="M328.151 57.0573L332 37.5986L334.559 40.9866C339.715 49.4954 336.657 55.5363 337.787 62.7507C338.691 68.5223 336.608 72.8504 335.495 73.5072L331.597 67.3371L328.151 57.0573Z" fill="url(#paint43_linear_21_16463)"/>
<path fill-rule="evenodd" clip-rule="evenodd" d="M331.933 37.937C332.928 46.6334 334.002 57.0955 333.274 59.8039C332.611 62.2683 333.751 67.8758 335.104 72.8869L335.495 73.5072C336.608 72.8504 338.691 68.5223 337.787 62.7507C337.405 60.3157 337.501 58.0143 337.597 55.7066C337.786 51.1772 337.975 46.6235 334.559 40.9866L332 37.5986L331.933 37.937Z" fill="url(#paint44_linear_21_16463)"/>
<path d="M356.781 166.94C355.676 164.94 352.133 152.266 350.5 146.18L352.452 146.746C364.035 157.036 364.879 165.217 367.313 171.466C369.746 177.715 378.564 187.034 373.765 185.053C368.967 183.073 358.161 169.44 356.781 166.94Z" fill="url(#paint45_linear_21_16463)"/>
<path fill-rule="evenodd" clip-rule="evenodd" d="M350.73 147.036C354.785 153.394 360.475 162.834 362.677 168.357C364.737 173.526 369.534 180.349 373.426 184.899C373.542 184.957 373.655 185.008 373.765 185.053C376.551 186.203 374.748 183.545 372.269 179.89C370.478 177.249 368.334 174.087 367.313 171.466C366.873 170.336 366.485 169.144 366.076 167.887C364.223 162.191 361.941 155.176 352.452 146.746L350.5 146.18C350.573 146.452 350.65 146.738 350.73 147.036Z" fill="url(#paint46_linear_21_16463)"/>
<path d="M365.095 120.771C366.044 116.645 369.463 109.063 371.054 105.787C373.245 110.706 372.021 113.122 373.925 120.015C375.448 125.53 370.313 134.854 367.555 138.826C366.34 134.527 364.147 124.896 365.095 120.771Z" fill="url(#paint47_linear_21_16463)"/>
<path fill-rule="evenodd" clip-rule="evenodd" d="M365.196 120.357C365.16 120.498 365.126 120.636 365.095 120.77C364.146 124.896 366.34 134.526 367.555 138.826C368.532 137.419 369.807 135.34 370.979 132.997C369.76 128.145 367.266 123.511 365.196 120.357Z" fill="url(#paint48_linear_21_16463)"/>
<path d="M355.503 80.8248C355.766 78.2139 358.904 72.4338 360.439 69.8701C361.844 74.8686 365.268 80.6351 365.623 89.1783C365.77 92.7104 360.261 105.062 357.094 110.848L355.999 107.381C358.125 98.7599 355.173 84.0884 355.503 80.8248Z" fill="url(#paint49_linear_21_16463)"/>
<path d="M341.966 105.954C336.632 102.659 333.3 94.2572 332.301 90.4681C341.611 96.4028 344.624 94.6737 352.179 104.676L354.776 110.805C352.728 110.56 347.3 109.248 341.966 105.954Z" fill="url(#paint50_linear_21_16463)"/>
<path d="M376.016 173.572C379.251 163.325 390.969 156.035 396.423 154.174C389.931 172.823 385.746 168.628 381.711 174.385C378.483 178.991 375.694 181.107 375.193 181.228L376.016 173.572Z" fill="url(#paint51_linear_21_16463)"/>
<path d="M379.868 152.098C380.977 150.068 390.191 138.745 394.66 133.338C392.487 146.27 390.116 155.576 386.734 159.843C384.028 163.257 378.403 174.152 375.929 179.173C375.686 178.178 375.193 175.642 375.163 173.45C375.125 170.709 378.481 154.635 379.868 152.098Z" fill="url(#paint52_linear_21_16463)"/>
<path d="M356.829 193.576C362.877 199.16 368.445 209.964 370.474 214.667L371.031 224.823C367.32 220.694 359.59 211.559 358.358 208.044C357.125 204.529 356.825 196.934 356.829 193.576Z" fill="url(#paint53_linear_21_16463)"/>
<path d="M379.782 189.655C380.208 187.528 384.334 182.676 386.344 180.516C387.397 183.929 389.023 192.471 387.094 199.335C385.165 206.199 378.791 212.448 375.846 214.715C375.263 214.056 374.425 212.295 375.729 210.524C377.359 208.309 379.25 192.314 379.782 189.655Z" fill="url(#paint54_linear_21_16463)"/>
<path fill-rule="evenodd" clip-rule="evenodd" d="M376.293 214.361C381.468 204.653 384.895 189.664 386.416 180.753C386.391 180.672 386.367 180.592 386.344 180.516C384.334 182.676 380.208 187.528 379.782 189.655C379.649 190.32 379.431 191.818 379.154 193.726C378.321 199.45 376.951 208.863 375.729 210.524C374.425 212.295 375.263 214.056 375.846 214.715C375.987 214.606 376.137 214.488 376.293 214.361Z" fill="url(#paint55_linear_21_16463)"/>
<path d="M380.154 250.019C378.234 249.63 370.836 250.464 367.377 250.93L366.891 249.278C368.167 248.5 371.679 246.334 375.523 243.888C379.367 241.443 386.264 243.982 389.232 245.557C387.006 247.206 382.074 250.408 380.154 250.019Z" fill="url(#paint56_linear_21_16463)"/>
<path d="M310.851 29.1106C309.096 26.7874 298.57 23.6155 293.527 22.3199L298.191 34.213C299.41 35.8264 302.863 39.6587 306.929 42.0814C310.995 44.504 316.672 49.0375 318.269 51.0408L319.247 50.3167C318.239 42.2561 313.044 32.0145 310.851 29.1106Z" fill="url(#paint57_linear_21_16463)"/>
<path fill-rule="evenodd" clip-rule="evenodd" d="M318.109 50.1539C315.456 44.1472 302.092 30.2308 294.038 22.4523C293.862 22.4062 293.692 22.3621 293.528 22.3199L298.192 34.2129C299.411 35.8263 302.865 39.6586 306.93 42.0813C310.996 44.5039 316.632 49.3193 318.23 51.3227L318.109 50.1539Z" fill="url(#paint58_linear_21_16463)"/>
<g filter="url(#filter7_d_21_16463)">
<path d="M325.838 60.5329C325.123 59.8551 318.351 53.4992 306.441 52.0071C307.062 54.3987 310.954 60.3891 313.944 63.8099C316.935 67.2306 328.578 70.9999 334.978 72.6329C331.051 67.3225 326.553 61.2108 325.838 60.5329Z" fill="url(#paint59_linear_21_16463)"/>
<path fill-rule="evenodd" clip-rule="evenodd" d="M306.592 52.4887C306.53 52.3154 306.48 52.1544 306.441 52.007C318.351 53.4992 325.123 59.855 325.838 60.5329C326.495 61.1552 330.339 66.357 334.003 71.3143C334.33 71.7569 334.656 72.1976 334.978 72.6328C334.495 72.5098 333.983 72.3746 333.448 72.2283C325.041 67.099 313.286 57.952 306.592 52.4887Z" fill="url(#paint60_linear_21_16463)"/>
</g>
<path fill-rule="evenodd" clip-rule="evenodd" d="M346.747 64.2639C346.614 65.3692 346.536 66.6779 346.611 68.0401C346.81 71.667 351.249 101.089 352.63 103.589C352.72 103.753 352.809 103.888 352.897 103.997C353.226 103.416 353.552 102.049 353.921 100.498C354.15 99.5369 354.395 98.505 354.669 97.5463C354.569 92.496 354.266 89.9287 354.007 87.7276C353.769 85.7135 353.568 84.006 353.591 80.9831C353.179 75.9233 351.193 72.3438 348.697 67.8453C348.073 66.7214 347.418 65.54 346.747 64.2639Z" fill="url(#paint61_linear_21_16463)"/>
<path fill-rule="evenodd" clip-rule="evenodd" d="M356.738 109.722C359.245 104.646 361.119 97.6912 360.742 88.7686C360.329 78.9944 360.413 73.5132 360.666 70.6298C360.585 70.3745 360.51 70.1213 360.439 69.8701C358.904 72.4338 355.766 78.2139 355.503 80.8248C355.397 81.8691 355.628 84.0812 355.921 86.8894C356.543 92.8577 357.445 101.518 355.999 107.381L356.738 109.722Z" fill="url(#paint62_linear_21_16463)"/>
<path fill-rule="evenodd" clip-rule="evenodd" d="M332.37 90.5119C335.397 92.4358 337.757 93.5492 339.826 94.5253C344.084 96.5344 347.109 97.9617 352.181 104.677L354.778 110.806C354.685 110.795 354.585 110.781 354.478 110.766C346.308 106.038 336.852 95.9364 332.37 90.5119Z" fill="url(#paint63_linear_21_16463)"/>
<g filter="url(#filter8_d_21_16463)">
<path d="M358.43 116.651C357.616 116.919 357.639 116.663 355.297 117.212C346.783 119.205 335.662 112.206 331.103 105.698L339.444 105.305C352.138 105.159 357.296 112.459 358.43 116.651Z" fill="url(#paint64_linear_21_16463)"/>
<path fill-rule="evenodd" clip-rule="evenodd" d="M331.309 105.988C331.239 105.891 331.17 105.795 331.103 105.698L339.444 105.305C352.138 105.16 357.296 112.459 358.43 116.652C358.4 116.661 358.371 116.671 358.343 116.679C352.757 112.472 338.768 108.007 331.309 105.988Z" fill="url(#paint65_linear_21_16463)"/>
</g>
<g filter="url(#filter9_d_21_16463)">
<path d="M371.929 123.76C373.233 121.988 382.63 112.476 387.165 107.942C387.629 127.728 378.793 133.52 376.999 136.862C372.72 142.297 369.663 146.995 368.563 147.894L368.04 143.501C368.793 137.659 370.625 125.531 371.929 123.76Z" fill="url(#paint66_linear_21_16463)"/>
<path fill-rule="evenodd" clip-rule="evenodd" d="M387.17 108.251C387.464 123.984 381.845 130.775 378.714 134.56C377.957 135.475 377.345 136.214 376.997 136.861C375.047 139.339 373.35 141.664 371.977 143.545C370.584 145.453 369.524 146.905 368.87 147.598C369.626 138.005 380.498 118.794 387.17 108.251Z" fill="url(#paint67_linear_21_16463)"/>
</g>
<path fill-rule="evenodd" clip-rule="evenodd" d="M375.28 175.302C379.402 165.305 388.749 145.549 394.608 133.402C390.12 138.835 380.974 150.077 379.869 152.098C378.483 154.635 375.127 170.71 375.164 173.45C375.173 174.054 375.216 174.685 375.28 175.302Z" fill="url(#paint68_linear_21_16463)"/>
<g filter="url(#filter10_d_21_16463)">
<path d="M373.744 169.216C373.169 160.382 368.555 153.601 366.32 151.315L366.029 156.311C362.043 169.33 370.096 180.306 374.621 184.167C374.568 182.864 374.319 178.049 373.744 169.216Z" fill="url(#paint69_linear_21_16463)"/>
<path fill-rule="evenodd" clip-rule="evenodd" d="M366.376 151.374C368.737 155.989 370.907 164.493 371.371 179.53C372.537 181.261 373.55 182.745 374.429 184.002C374.493 184.058 374.557 184.113 374.619 184.167C374.567 182.864 374.317 178.049 373.742 169.216C373.172 160.456 368.631 153.715 366.376 151.374Z" fill="url(#paint70_linear_21_16463)"/>
</g>
<path fill-rule="evenodd" clip-rule="evenodd" d="M375.409 181.131C378.316 172.421 389.899 160.289 396.354 154.369C391.971 166.883 388.641 168.984 385.696 170.842C384.305 171.72 383 172.543 381.711 174.384C378.804 178.531 376.254 180.66 375.409 181.131Z" fill="url(#paint71_linear_21_16463)"/>
<path d="M318.271 50.0335C324.095 56.2865 339.373 75.4134 350.965 98.0256C359.285 114.255 363.08 120.25 371.242 151.443C373.173 158.819 376.922 177.731 376.479 194.365C377.131 204.87 375.358 232.637 363.054 259.67C359.546 267.469 350.801 284.752 343.893 291.481" stroke="#FADA81" stroke-width="0.844684"/>
<g filter="url(#filter11_d_21_16463)">
<path d="M372.369 196.657C370.178 191.486 370.007 187.587 369.33 186.579C365.371 196.81 364.504 206.762 364.217 208.736C363.987 210.315 369.398 219.743 372.132 224.26L375.368 206.009C374.115 199.641 374.965 202.785 372.369 196.657Z" fill="url(#paint72_linear_21_16463)"/>
<path fill-rule="evenodd" clip-rule="evenodd" d="M368.921 187.665C369.053 187.304 369.19 186.942 369.33 186.579C369.599 186.979 369.788 187.835 370.055 189.045C370.461 190.883 371.048 193.539 372.369 196.657C373.68 199.751 374.112 200.482 374.38 201.266C374.643 202.035 374.748 202.857 375.368 206.009L372.208 223.831C368.77 215.874 368.53 197.76 368.921 187.665Z" fill="url(#paint73_linear_21_16463)"/>
</g>
<g filter="url(#filter12_d_21_16463)">
<path d="M387.132 199.052C389.937 194.961 396.715 192.791 399.753 192.217C400.728 193.508 396.133 203.12 393.713 207.764C392.709 208.341 389.829 210.089 386.343 212.47C382.857 214.851 377.592 215.012 375.396 214.794C378.139 211.251 384.328 203.143 387.132 199.052Z" fill="url(#paint74_linear_21_16463)"/>
<path fill-rule="evenodd" clip-rule="evenodd" d="M376.919 214.864C376.325 214.862 375.807 214.835 375.396 214.794C378.139 211.251 384.328 203.143 387.132 199.052C389.937 194.961 396.715 192.791 399.753 192.217C399.78 192.252 399.803 192.294 399.821 192.342C397.496 196.825 391.081 204.696 376.919 214.864Z" fill="url(#paint75_linear_21_16463)"/>
</g>
<g filter="url(#filter13_d_21_16463)">
<path d="M371.91 237.759C375.721 235.539 387.143 234.943 392.378 234.923C385.572 244.747 384.476 242.288 379.142 245.988C374.874 248.949 370.068 246.757 368.198 245.29C367.848 243.705 368.099 239.979 371.91 237.759Z" fill="url(#paint76_linear_21_16463)"/>
<path fill-rule="evenodd" clip-rule="evenodd" d="M368.123 244.828C378.849 238.218 387.645 235.674 392.325 235.001C387.63 241.763 385.664 242.651 383.117 243.801C381.998 244.306 380.767 244.862 379.143 245.988C378.786 246.236 378.426 246.447 378.063 246.626C377.197 246.891 376.343 247.147 375.51 247.392C372.416 247.778 369.546 246.346 368.2 245.29C368.169 245.151 368.143 244.997 368.123 244.828Z" fill="url(#paint77_linear_21_16463)"/>
</g>
<g filter="url(#filter14_d_21_16463)">
<path d="M322.378 187.288L322.378 147.889L416.304 147.889C416.304 172.513 398.727 187.288 384.446 187.288L322.378 187.288Z" fill="url(#paint78_linear_21_16463)"/>
<path d="M322.378 187.288L322.378 147.889L416.304 147.889C416.304 172.513 398.727 187.288 384.446 187.288L322.378 187.288Z" stroke="url(#paint79_linear_21_16463)" stroke-width="2.29412"/>
<path d="M289.228 222.31L289.228 182.911L383.153 182.911C383.153 207.535 365.577 222.31 351.296 222.31L289.228 222.31Z" fill="url(#paint80_linear_21_16463)"/>
<path d="M289.228 222.31L289.228 182.911L383.153 182.911C383.153 207.535 365.577 222.31 351.296 222.31L289.228 222.31Z" stroke="url(#paint81_linear_21_16463)" stroke-width="2.29412"/>
<path d="M112.456 187.289L112.456 147.889L18.5303 147.889C18.5303 172.514 36.107 187.289 50.3881 187.289L112.456 187.289Z" fill="url(#paint82_linear_21_16463)"/>
<path d="M112.456 187.289L112.456 147.889L18.5303 147.889C18.5303 172.514 36.107 187.289 50.3881 187.289L112.456 187.289Z" stroke="url(#paint83_linear_21_16463)" stroke-width="2.29412"/>
<path d="M145.606 222.311L145.606 182.911L51.6805 182.911C51.6805 207.536 69.2572 222.311 83.5382 222.311L145.606 222.311Z" fill="url(#paint84_linear_21_16463)"/>
<path d="M145.606 222.311L145.606 182.911L51.6805 182.911C51.6805 207.536 69.2572 222.311 83.5382 222.311L145.606 222.311Z" stroke="url(#paint85_linear_21_16463)" stroke-width="2.29412"/>
<path d="M219.509 59.6836L116.092 115.403C110.587 118.369 107.155 124.117 107.155 130.369L107.155 257.486C107.155 263.738 110.587 269.486 116.092 272.452L219.509 328.172C224.543 330.884 230.602 330.884 235.636 328.172L339.053 272.452C344.558 269.486 347.99 263.738 347.99 257.486L347.99 130.369C347.99 124.117 344.558 118.369 339.053 115.403L235.636 59.6836C230.602 56.9716 224.543 56.9716 219.509 59.6836Z" fill="url(#paint86_linear_21_16463)"/>
<path d="M219.395 80.658L134.361 126.473C128.878 129.427 125.459 135.153 125.459 141.382L125.458 245.991C125.458 252.22 128.878 257.946 134.361 260.901L219.395 306.715C224.41 309.417 230.446 309.417 235.461 306.715L320.495 260.901C325.978 257.946 329.397 252.22 329.397 245.991L329.397 141.382C329.397 135.153 325.978 129.427 320.495 126.473L235.461 80.6579C230.446 77.9561 224.41 77.9561 219.395 80.658Z" fill="url(#paint87_linear_21_16463)"/>
<g filter="url(#filter15_f_21_16463)">
<path d="M219.395 80.658L134.361 126.473C128.878 129.427 125.459 135.153 125.459 141.382L125.458 245.991C125.458 252.22 128.878 257.946 134.361 260.901L219.395 306.715C224.41 309.417 230.446 309.417 235.461 306.715L320.495 260.901C325.978 257.946 329.397 252.22 329.397 245.991L329.397 141.382C329.397 135.153 325.978 129.427 320.495 126.473L235.461 80.6579C230.446 77.9561 224.41 77.9561 219.395 80.658Z" stroke="url(#paint88_linear_21_16463)"/>
</g>
<g opacity="0.5">
<mask id="mask0_21_16463" style="mask-type:alpha" maskUnits="userSpaceOnUse" x="134" y="88" width="188" height="212">
<path d="M220.418 89.9813L142.603 131.869C137.384 134.679 134.129 140.127 134.129 146.055L134.129 241.691C134.129 247.618 137.383 253.066 142.603 255.876L220.418 297.764C225.185 300.33 230.923 300.33 235.69 297.764L313.506 255.876C318.725 253.066 321.98 247.618 321.98 241.691L321.98 146.055C321.98 140.127 318.725 134.679 313.506 131.869L235.69 89.9813C230.923 87.4151 225.185 87.4151 220.418 89.9813Z" fill="#A6D3DE"/>
</mask>
<g mask="url(#mask0_21_16463)">
<path d="M220.418 89.9813L142.603 131.869C137.384 134.679 134.129 140.127 134.129 146.055L134.129 241.691C134.129 247.618 137.383 253.066 142.603 255.876L220.418 297.764C225.185 300.33 230.923 300.33 235.69 297.764L313.506 255.876C318.725 253.066 321.98 247.618 321.98 241.691L321.98 146.055C321.98 140.127 318.725 134.679 313.506 131.869L235.69 89.9813C230.923 87.4151 225.185 87.4151 220.418 89.9813Z" fill="url(#paint89_radial_21_16463)"/>
<path opacity="0.5" d="M212.352 306.141L208.621 81.5938H247.487L243.756 306.141H212.352Z" fill="url(#paint90_linear_21_16463)"/>
<path opacity="0.5" d="M211.853 304.149L95.2632 111.533L128.922 92.2865L239.049 288.598L211.853 304.149Z" fill="url(#paint91_linear_21_16463)"/>
<path opacity="0.5" d="M208.614 288.598L318.741 92.2864L352.399 111.533L235.81 304.149L208.614 288.598Z" fill="url(#paint92_linear_21_16463)"/>
<rect x="134.129" y="181.036" width="187.851" height="120.828" fill="url(#paint93_linear_21_16463)"/>
<g filter="url(#filter16_i_21_16463)">
<path d="M220.418 89.9813L142.603 131.869C137.384 134.679 134.129 140.127 134.129 146.055L134.129 241.691C134.129 247.618 137.383 253.066 142.603 255.876L220.418 297.764C225.185 300.33 230.923 300.33 235.69 297.764L313.506 255.876C318.725 253.066 321.98 247.618 321.98 241.691L321.98 146.055C321.98 140.127 318.725 134.679 313.506 131.869L235.69 89.9813C230.923 87.4151 225.185 87.4151 220.418 89.9813Z" fill="#AFF5F1" fill-opacity="0.03"/>
</g>
</g>
</g>
<g filter="url(#filter17_i_21_16463)">
<path d="M185.282 175.013C185.282 176.733 184.809 178.281 183.863 179.657C182.946 181.033 181.599 182.137 179.821 182.968C178.044 183.799 175.908 184.244 173.414 184.301V187.741H170.748V184.215C167.423 183.9 164.728 182.896 162.664 181.205C160.6 179.514 159.468 177.192 159.267 174.239H169.415C169.501 175.414 169.946 176.217 170.748 176.647V172.433C168.254 171.745 166.276 171.114 164.814 170.541C163.381 169.968 162.077 169.022 160.901 167.703C159.755 166.384 159.181 164.593 159.181 162.328C159.181 160.465 159.697 158.859 160.729 157.512C161.761 156.136 163.152 155.075 164.9 154.33C166.649 153.585 168.598 153.169 170.748 153.083V149.6H173.414V153.083C176.826 153.312 179.52 154.273 181.498 155.964C183.476 157.627 184.566 159.934 184.766 162.887H174.489C174.375 161.798 174.016 161.067 173.414 160.694V164.865C174.418 165.152 174.891 165.295 174.833 165.295C176.983 165.954 178.746 166.614 180.122 167.273C181.527 167.904 182.731 168.85 183.734 170.111C184.766 171.372 185.282 173.006 185.282 175.013ZM169.415 161.898C169.415 162.643 169.86 163.274 170.748 163.79V160.35C169.86 160.522 169.415 161.038 169.415 161.898ZM173.414 177.034C174.532 176.805 175.091 176.203 175.091 175.228C175.091 174.483 174.532 173.852 173.414 173.336V177.034ZM211.17 160.952H198.7V164.564C199.245 164.077 199.947 163.69 200.807 163.403C201.696 163.116 202.685 162.973 203.774 162.973C205.723 162.973 207.372 163.432 208.719 164.349C210.066 165.266 211.07 166.499 211.729 168.047C212.388 169.566 212.718 171.258 212.718 173.121C212.718 176.561 211.743 179.241 209.794 181.162C207.873 183.054 205.222 184 201.839 184C199.374 184 197.238 183.57 195.432 182.71C193.655 181.85 192.293 180.66 191.347 179.141C190.43 177.622 190 175.887 190.057 173.938H199.345C199.345 174.397 199.503 174.827 199.818 175.228C200.133 175.629 200.649 175.83 201.366 175.83C202.083 175.83 202.613 175.572 202.957 175.056C203.301 174.54 203.473 173.838 203.473 172.949C203.473 172.118 203.272 171.487 202.871 171.057C202.498 170.627 201.954 170.412 201.237 170.412C200.635 170.412 200.176 170.555 199.861 170.842C199.546 171.129 199.388 171.458 199.388 171.831H190.1V152.567H211.17V160.952ZM215.391 167.832C215.391 162.873 216.437 158.974 218.53 156.136C220.651 153.298 223.905 151.879 228.291 151.879C232.648 151.879 235.887 153.312 238.009 156.179C240.13 159.017 241.191 162.901 241.191 167.832C241.191 172.791 240.13 176.704 238.009 179.571C235.887 182.409 232.648 183.828 228.291 183.828C223.905 183.828 220.651 182.409 218.53 179.571C216.437 176.704 215.391 172.791 215.391 167.832ZM231.774 167.832C231.774 165.539 231.544 163.819 231.086 162.672C230.627 161.497 229.695 160.909 228.291 160.909C226.857 160.909 225.911 161.497 225.453 162.672C224.994 163.819 224.765 165.539 224.765 167.832C224.765 170.154 224.994 171.903 225.453 173.078C225.911 174.225 226.857 174.798 228.291 174.798C229.695 174.798 230.627 174.225 231.086 173.078C231.544 171.903 231.774 170.154 231.774 167.832ZM243.431 167.832C243.431 162.873 244.478 158.974 246.57 156.136C248.692 153.298 251.945 151.879 256.331 151.879C260.689 151.879 263.928 153.312 266.049 156.179C268.171 159.017 269.231 162.901 269.231 167.832C269.231 172.791 268.171 176.704 266.049 179.571C263.928 182.409 260.689 183.828 256.331 183.828C251.945 183.828 248.692 182.409 246.57 179.571C244.478 176.704 243.431 172.791 243.431 167.832ZM259.814 167.832C259.814 165.539 259.585 163.819 259.126 162.672C258.668 161.497 257.736 160.909 256.331 160.909C254.898 160.909 253.952 161.497 253.493 162.672C253.035 163.819 252.805 165.539 252.805 167.832C252.805 170.154 253.035 171.903 253.493 173.078C253.952 174.225 254.898 174.798 256.331 174.798C257.736 174.798 258.668 174.225 259.126 173.078C259.585 171.903 259.814 170.154 259.814 167.832ZM271.472 167.832C271.472 162.873 272.518 158.974 274.611 156.136C276.732 153.298 279.986 151.879 284.372 151.879C288.729 151.879 291.969 153.312 294.09 156.179C296.211 159.017 297.272 162.901 297.272 167.832C297.272 172.791 296.211 176.704 294.09 179.571C291.969 182.409 288.729 183.828 284.372 183.828C279.986 183.828 276.732 182.409 274.611 179.571C272.518 176.704 271.472 172.791 271.472 167.832ZM287.855 167.832C287.855 165.539 287.626 163.819 287.167 162.672C286.708 161.497 285.777 160.909 284.372 160.909C282.939 160.909 281.993 161.497 281.534 162.672C281.075 163.819 280.846 165.539 280.846 167.832C280.846 170.154 281.075 171.903 281.534 173.078C281.993 174.225 282.939 174.798 284.372 174.798C285.777 174.798 286.708 174.225 287.167 173.078C287.626 171.903 287.855 170.154 287.855 167.832ZM173.368 204.836C174.563 205.116 175.487 205.695 176.14 206.572C176.812 207.431 177.148 208.429 177.148 209.568C177.148 211.304 176.569 212.648 175.412 213.6C174.273 214.533 172.631 215 170.484 215H160.096V195.176H170.204C172.22 195.176 173.807 195.615 174.964 196.492C176.121 197.369 176.7 198.648 176.7 200.328C176.7 201.485 176.392 202.465 175.776 203.268C175.179 204.052 174.376 204.575 173.368 204.836ZM166.312 202.904H168.72C169.28 202.904 169.691 202.792 169.952 202.568C170.232 202.344 170.372 201.999 170.372 201.532C170.372 201.047 170.232 200.692 169.952 200.468C169.691 200.225 169.28 200.104 168.72 200.104H166.312V202.904ZM169.14 210.016C169.7 210.016 170.111 209.913 170.372 209.708C170.652 209.484 170.792 209.129 170.792 208.644C170.792 207.692 170.241 207.216 169.14 207.216H166.312V210.016H169.14ZM194.245 206.964C194.245 207.393 194.217 207.804 194.161 208.196H184.165C184.258 209.559 184.827 210.24 185.873 210.24C186.545 210.24 187.03 209.932 187.329 209.316H193.909C193.685 210.436 193.209 211.444 192.481 212.34C191.771 213.217 190.866 213.917 189.765 214.44C188.682 214.944 187.487 215.196 186.181 215.196C184.613 215.196 183.213 214.869 181.981 214.216C180.767 213.563 179.815 212.629 179.125 211.416C178.453 210.184 178.117 208.747 178.117 207.104C178.117 205.461 178.453 204.033 179.125 202.82C179.815 201.588 180.767 200.645 181.981 199.992C183.213 199.339 184.613 199.012 186.181 199.012C187.749 199.012 189.139 199.339 190.353 199.992C191.585 200.627 192.537 201.541 193.209 202.736C193.899 203.931 194.245 205.34 194.245 206.964ZM187.945 205.48C187.945 204.957 187.777 204.565 187.441 204.304C187.105 204.024 186.685 203.884 186.181 203.884C185.079 203.884 184.435 204.416 184.249 205.48H187.945ZM202.959 215.196C201.465 215.196 200.14 214.953 198.983 214.468C197.844 213.983 196.939 213.311 196.267 212.452C195.595 211.593 195.212 210.623 195.119 209.54H201.083C201.157 210.007 201.353 210.352 201.671 210.576C202.007 210.8 202.427 210.912 202.931 210.912C203.248 210.912 203.5 210.847 203.687 210.716C203.873 210.567 203.967 210.389 203.967 210.184C203.967 209.829 203.771 209.577 203.379 209.428C202.987 209.279 202.324 209.111 201.391 208.924C200.252 208.7 199.309 208.457 198.563 208.196C197.835 207.935 197.191 207.487 196.631 206.852C196.089 206.217 195.819 205.34 195.819 204.22C195.819 203.249 196.071 202.372 196.575 201.588C197.097 200.785 197.863 200.16 198.871 199.712C199.879 199.245 201.101 199.012 202.539 199.012C204.667 199.012 206.328 199.535 207.523 200.58C208.736 201.625 209.464 202.988 209.707 204.668H204.191C204.097 204.239 203.901 203.912 203.603 203.688C203.304 203.445 202.903 203.324 202.399 203.324C202.081 203.324 201.839 203.389 201.671 203.52C201.503 203.632 201.419 203.809 201.419 204.052C201.419 204.369 201.615 204.612 202.007 204.78C202.399 204.929 203.024 205.088 203.883 205.256C205.021 205.48 205.983 205.732 206.767 206.012C207.551 206.292 208.232 206.777 208.811 207.468C209.389 208.14 209.679 209.073 209.679 210.268C209.679 211.201 209.408 212.041 208.867 212.788C208.325 213.535 207.541 214.123 206.515 214.552C205.507 214.981 204.321 215.196 202.959 215.196ZM221.693 209.708V215H219.341C215.011 215 212.845 212.844 212.845 208.532V204.388H210.885V199.208H212.845V195.4H219.061V199.208H221.637V204.388H219.061V208.644C219.061 209.017 219.145 209.288 219.313 209.456C219.5 209.624 219.799 209.708 220.209 209.708H221.693ZM244.471 201.98C244.471 203.231 244.181 204.369 243.603 205.396C243.024 206.404 242.165 207.207 241.027 207.804C239.907 208.401 238.544 208.7 236.939 208.7H234.475V215H228.259V195.176H236.939C239.365 195.176 241.223 195.792 242.511 197.024C243.817 198.256 244.471 199.908 244.471 201.98ZM236.239 203.8C237.527 203.8 238.171 203.193 238.171 201.98C238.171 200.767 237.527 200.16 236.239 200.16H234.475V203.8H236.239ZM252.378 202.12C253.013 201.205 253.787 200.477 254.702 199.936C255.617 199.376 256.569 199.096 257.558 199.096V205.732H255.794C254.618 205.732 253.75 205.937 253.19 206.348C252.649 206.759 252.378 207.487 252.378 208.532V215H246.162V199.208H252.378V202.12ZM262.088 197.948C261.006 197.948 260.138 197.659 259.484 197.08C258.831 196.501 258.504 195.773 258.504 194.896C258.504 194 258.831 193.263 259.484 192.684C260.138 192.087 261.006 191.788 262.088 191.788C263.152 191.788 264.011 192.087 264.664 192.684C265.318 193.263 265.644 194 265.644 194.896C265.644 195.773 265.318 196.501 264.664 197.08C264.011 197.659 263.152 197.948 262.088 197.948ZM265.168 199.208V215H258.952V199.208H265.168ZM273.66 209.848H280.24V215H266.856V210.128L272.876 204.36H266.94V199.208H279.96V204.08L273.66 209.848ZM297.196 206.964C297.196 207.393 297.168 207.804 297.112 208.196H287.116C287.209 209.559 287.779 210.24 288.824 210.24C289.496 210.24 289.981 209.932 290.28 209.316H296.86C296.636 210.436 296.16 211.444 295.432 212.34C294.723 213.217 293.817 213.917 292.716 214.44C291.633 214.944 290.439 215.196 289.132 215.196C287.564 215.196 286.164 214.869 284.932 214.216C283.719 213.563 282.767 212.629 282.076 211.416C281.404 210.184 281.068 208.747 281.068 207.104C281.068 205.461 281.404 204.033 282.076 202.82C282.767 201.588 283.719 200.645 284.932 199.992C286.164 199.339 287.564 199.012 289.132 199.012C290.7 199.012 292.091 199.339 293.304 199.992C294.536 200.627 295.488 201.541 296.16 202.736C296.851 203.931 297.196 205.34 297.196 206.964ZM290.896 205.48C290.896 204.957 290.728 204.565 290.392 204.304C290.056 204.024 289.636 203.884 289.132 203.884C288.031 203.884 287.387 204.416 287.2 205.48H290.896ZM165.195 237.14C163.502 237.14 162.102 236.747 160.995 235.96C159.902 235.16 159.309 233.993 159.215 232.46H163.935C164.002 233.273 164.362 233.68 165.015 233.68C165.255 233.68 165.455 233.627 165.615 233.52C165.789 233.4 165.875 233.22 165.875 232.98C165.875 232.647 165.695 232.38 165.335 232.18C164.975 231.967 164.415 231.727 163.655 231.46C162.749 231.14 161.995 230.827 161.395 230.52C160.809 230.213 160.302 229.767 159.875 229.18C159.449 228.593 159.242 227.84 159.255 226.92C159.255 226 159.489 225.22 159.955 224.58C160.435 223.927 161.082 223.433 161.895 223.1C162.722 222.767 163.649 222.6 164.675 222.6C166.409 222.6 167.782 223 168.795 223.8C169.822 224.6 170.362 225.727 170.415 227.18H165.635C165.622 226.78 165.522 226.493 165.335 226.32C165.149 226.147 164.922 226.06 164.655 226.06C164.469 226.06 164.315 226.127 164.195 226.26C164.075 226.38 164.015 226.553 164.015 226.78C164.015 227.1 164.189 227.367 164.535 227.58C164.895 227.78 165.462 228.027 166.235 228.32C167.129 228.653 167.862 228.973 168.435 229.28C169.022 229.587 169.529 230.013 169.955 230.56C170.382 231.107 170.595 231.793 170.595 232.62C170.595 233.487 170.382 234.267 169.955 234.96C169.529 235.64 168.909 236.173 168.095 236.56C167.282 236.947 166.315 237.14 165.195 237.14ZM177.315 237.14C176.182 237.14 175.162 236.907 174.255 236.44C173.349 235.973 172.635 235.307 172.115 234.44C171.609 233.56 171.355 232.533 171.355 231.36C171.355 230.187 171.609 229.167 172.115 228.3C172.635 227.42 173.349 226.747 174.255 226.28C175.162 225.813 176.182 225.58 177.315 225.58C178.449 225.58 179.469 225.813 180.375 226.28C181.282 226.747 181.989 227.42 182.495 228.3C183.015 229.167 183.275 230.187 183.275 231.36C183.275 232.533 183.015 233.56 182.495 234.44C181.989 235.307 181.282 235.973 180.375 236.44C179.469 236.907 178.449 237.14 177.315 237.14ZM177.315 233.3C177.729 233.3 178.075 233.14 178.355 232.82C178.635 232.487 178.775 232 178.775 231.36C178.775 230.72 178.635 230.24 178.355 229.92C178.075 229.587 177.729 229.42 177.315 229.42C176.902 229.42 176.555 229.587 176.275 229.92C175.995 230.24 175.855 230.72 175.855 231.36C175.855 232 175.989 232.487 176.255 232.82C176.535 233.14 176.889 233.3 177.315 233.3ZM183.87 231.36C183.87 230.187 184.11 229.167 184.59 228.3C185.083 227.42 185.763 226.747 186.63 226.28C187.51 225.813 188.51 225.58 189.63 225.58C191.097 225.58 192.33 225.993 193.33 226.82C194.343 227.647 194.983 228.793 195.25 230.26H190.55C190.377 229.673 190.037 229.38 189.53 229.38C189.17 229.38 188.883 229.547 188.67 229.88C188.47 230.213 188.37 230.707 188.37 231.36C188.37 232.013 188.47 232.507 188.67 232.84C188.883 233.173 189.17 233.34 189.53 233.34C190.037 233.34 190.377 233.047 190.55 232.46H195.25C194.983 233.927 194.343 235.073 193.33 235.9C192.33 236.727 191.097 237.14 189.63 237.14C188.51 237.14 187.51 236.907 186.63 236.44C185.763 235.973 185.083 235.307 184.59 234.44C184.11 233.56 183.87 232.533 183.87 231.36ZM198.698 224.82C197.924 224.82 197.304 224.613 196.838 224.2C196.371 223.787 196.138 223.267 196.138 222.64C196.138 222 196.371 221.473 196.838 221.06C197.304 220.633 197.924 220.42 198.698 220.42C199.458 220.42 200.071 220.633 200.538 221.06C201.004 221.473 201.238 222 201.238 222.64C201.238 223.267 201.004 223.787 200.538 224.2C200.071 224.613 199.458 224.82 198.698 224.82ZM200.898 225.72V237H196.458V225.72H200.898ZM202.103 231.36C202.103 230.173 202.303 229.147 202.703 228.28C203.116 227.4 203.676 226.733 204.383 226.28C205.09 225.813 205.883 225.58 206.763 225.58C207.496 225.58 208.13 225.733 208.663 226.04C209.196 226.333 209.603 226.74 209.883 227.26V225.72H214.303V237H209.883V235.46C209.603 235.98 209.196 236.393 208.663 236.7C208.13 236.993 207.496 237.14 206.763 237.14C205.883 237.14 205.09 236.913 204.383 236.46C203.676 235.993 203.116 235.327 202.703 234.46C202.303 233.58 202.103 232.547 202.103 231.36ZM209.883 231.36C209.883 230.76 209.73 230.293 209.423 229.96C209.116 229.627 208.723 229.46 208.243 229.46C207.763 229.46 207.37 229.627 207.063 229.96C206.756 230.293 206.603 230.76 206.603 231.36C206.603 231.96 206.756 232.427 207.063 232.76C207.37 233.093 207.763 233.26 208.243 233.26C208.723 233.26 209.116 233.093 209.423 232.76C209.73 232.427 209.883 231.96 209.883 231.36ZM220.537 222.2V237H216.097V222.2H220.537ZM234.22 227.68C234.047 227.4 233.8 227.187 233.48 227.04C233.16 226.88 232.774 226.8 232.32 226.8C231.467 226.8 230.807 227.08 230.34 227.64C229.874 228.187 229.64 228.94 229.64 229.9C229.64 231.007 229.9 231.833 230.42 232.38C230.94 232.927 231.74 233.2 232.82 233.2C233.847 233.2 234.674 232.787 235.3 231.96H231.76V228.82H238.98V233.26C238.367 234.313 237.52 235.22 236.44 235.98C235.36 236.727 233.994 237.1 232.34 237.1C230.874 237.1 229.594 236.8 228.5 236.2C227.42 235.587 226.587 234.733 226 233.64C225.427 232.547 225.14 231.3 225.14 229.9C225.14 228.5 225.427 227.253 226 226.16C226.587 225.067 227.42 224.22 228.5 223.62C229.58 223.007 230.847 222.7 232.3 222.7C234.154 222.7 235.66 223.147 236.82 224.04C237.994 224.933 238.687 226.147 238.9 227.68H234.22ZM239.779 231.36C239.779 230.173 239.979 229.147 240.379 228.28C240.793 227.4 241.353 226.733 242.059 226.28C242.766 225.813 243.559 225.58 244.439 225.58C245.173 225.58 245.806 225.733 246.339 226.04C246.873 226.333 247.279 226.74 247.559 227.26V225.72H251.979V237H247.559V235.46C247.279 235.98 246.873 236.393 246.339 236.7C245.806 236.993 245.173 237.14 244.439 237.14C243.559 237.14 242.766 236.913 242.059 236.46C241.353 235.993 240.793 235.327 240.379 234.46C239.979 233.58 239.779 232.547 239.779 231.36ZM247.559 231.36C247.559 230.76 247.406 230.293 247.099 229.96C246.793 229.627 246.399 229.46 245.919 229.46C245.439 229.46 245.046 229.627 244.739 229.96C244.433 230.293 244.279 230.76 244.279 231.36C244.279 231.96 244.433 232.427 244.739 232.76C245.046 233.093 245.439 233.26 245.919 233.26C246.399 233.26 246.793 233.093 247.099 232.76C247.406 232.427 247.559 231.96 247.559 231.36ZM268.833 225.64C270.273 225.64 271.386 226.073 272.173 226.94C272.973 227.807 273.373 228.98 273.373 230.46V237H268.953V231.02C268.953 230.54 268.806 230.167 268.513 229.9C268.233 229.62 267.853 229.48 267.373 229.48C266.88 229.48 266.493 229.62 266.213 229.9C265.933 230.167 265.793 230.54 265.793 231.02V237H261.373V231.02C261.373 230.54 261.226 230.167 260.933 229.9C260.653 229.62 260.273 229.48 259.793 229.48C259.3 229.48 258.913 229.62 258.633 229.9C258.353 230.167 258.213 230.54 258.213 231.02V237H253.773V225.72H258.213V227.24C258.533 226.76 258.966 226.373 259.513 226.08C260.073 225.787 260.726 225.64 261.473 225.64C262.286 225.64 263.006 225.82 263.633 226.18C264.26 226.527 264.76 227.02 265.133 227.66C265.546 227.073 266.073 226.593 266.713 226.22C267.353 225.833 268.06 225.64 268.833 225.64ZM286.017 231.26C286.017 231.567 285.997 231.86 285.957 232.14H278.817C278.883 233.113 279.29 233.6 280.037 233.6C280.517 233.6 280.863 233.38 281.077 232.94H285.777C285.617 233.74 285.277 234.46 284.757 235.1C284.25 235.727 283.603 236.227 282.817 236.6C282.043 236.96 281.19 237.14 280.257 237.14C279.137 237.14 278.137 236.907 277.257 236.44C276.39 235.973 275.71 235.307 275.217 234.44C274.737 233.56 274.497 232.533 274.497 231.36C274.497 230.187 274.737 229.167 275.217 228.3C275.71 227.42 276.39 226.747 277.257 226.28C278.137 225.813 279.137 225.58 280.257 225.58C281.377 225.58 282.37 225.813 283.237 226.28C284.117 226.733 284.797 227.387 285.277 228.24C285.77 229.093 286.017 230.1 286.017 231.26ZM281.517 230.2C281.517 229.827 281.397 229.547 281.157 229.36C280.917 229.16 280.617 229.06 280.257 229.06C279.47 229.06 279.01 229.44 278.877 230.2H281.517ZM292.241 237.14C291.174 237.14 290.227 236.967 289.401 236.62C288.587 236.273 287.941 235.793 287.461 235.18C286.981 234.567 286.707 233.873 286.641 233.1H290.901C290.954 233.433 291.094 233.68 291.321 233.84C291.561 234 291.861 234.08 292.221 234.08C292.447 234.08 292.627 234.033 292.761 233.94C292.894 233.833 292.961 233.707 292.961 233.56C292.961 233.307 292.821 233.127 292.541 233.02C292.261 232.913 291.787 232.793 291.121 232.66C290.307 232.5 289.634 232.327 289.101 232.14C288.581 231.953 288.121 231.633 287.721 231.18C287.334 230.727 287.141 230.1 287.141 229.3C287.141 228.607 287.321 227.98 287.681 227.42C288.054 226.847 288.601 226.4 289.321 226.08C290.041 225.747 290.914 225.58 291.941 225.58C293.461 225.58 294.647 225.953 295.501 226.7C296.367 227.447 296.887 228.42 297.061 229.62H293.121C293.054 229.313 292.914 229.08 292.701 228.92C292.487 228.747 292.201 228.66 291.841 228.66C291.614 228.66 291.441 228.707 291.321 228.8C291.201 228.88 291.141 229.007 291.141 229.18C291.141 229.407 291.281 229.58 291.561 229.7C291.841 229.807 292.287 229.92 292.901 230.04C293.714 230.2 294.401 230.38 294.961 230.58C295.521 230.78 296.007 231.127 296.421 231.62C296.834 232.1 297.041 232.767 297.041 233.62C297.041 234.287 296.847 234.887 296.461 235.42C296.074 235.953 295.514 236.373 294.781 236.68C294.061 236.987 293.214 237.14 292.241 237.14Z" fill="url(#paint94_linear_21_16463)"/>
</g>
</g>
<defs>
<filter id="filter0_d_21_16463" x="117.907" y="51.0527" width="30.7674" height="23.9727" filterUnits="userSpaceOnUse" color-interpolation-filters="sRGB">
<feFlood flood-opacity="0" result="BackgroundImageFix"/>
<feColorMatrix in="SourceAlpha" type="matrix" values="0 0 0 0 0 0 0 0 0 0 0 0 0 0 0 0 0 0 127 0" result="hardAlpha"/>
<feOffset dy="2.23124"/>
<feGaussianBlur stdDeviation="0.557811"/>
<feColorMatrix type="matrix" values="0 0 0 0 0.541667 0 0 0 0 0.336104 0 0 0 0 0.0947917 0 0 0 0.25 0"/>
<feBlend mode="normal" in2="BackgroundImageFix" result="effect1_dropShadow_21_16463"/>
<feBlend mode="normal" in="SourceGraphic" in2="effect1_dropShadow_21_16463" result="shape"/>
</filter>
<filter id="filter1_d_21_16463" x="94.4586" y="104.35" width="29.5589" height="15.6013" filterUnits="userSpaceOnUse" color-interpolation-filters="sRGB">
<feFlood flood-opacity="0" result="BackgroundImageFix"/>
<feColorMatrix in="SourceAlpha" type="matrix" values="0 0 0 0 0 0 0 0 0 0 0 0 0 0 0 0 0 0 127 0" result="hardAlpha"/>
<feOffset dy="2.23124"/>
<feGaussianBlur stdDeviation="0.557811"/>
<feColorMatrix type="matrix" values="0 0 0 0 0.541667 0 0 0 0 0.336104 0 0 0 0 0.0947917 0 0 0 0.25 0"/>
<feBlend mode="normal" in2="BackgroundImageFix" result="effect1_dropShadow_21_16463"/>
<feBlend mode="normal" in="SourceGraphic" in2="effect1_dropShadow_21_16463" result="shape"/>
</filter>
<filter id="filter2_d_21_16463" x="66.8184" y="106.987" width="22.4897" height="43.2988" filterUnits="userSpaceOnUse" color-interpolation-filters="sRGB">
<feFlood flood-opacity="0" result="BackgroundImageFix"/>
<feColorMatrix in="SourceAlpha" type="matrix" values="0 0 0 0 0 0 0 0 0 0 0 0 0 0 0 0 0 0 127 0" result="hardAlpha"/>
<feOffset dx="2.23124" dy="2.23124"/>
<feGaussianBlur stdDeviation="0.557811"/>
<feColorMatrix type="matrix" values="0 0 0 0 0.541667 0 0 0 0 0.336104 0 0 0 0 0.0947917 0 0 0 0.25 0"/>
<feBlend mode="normal" in2="BackgroundImageFix" result="effect1_dropShadow_21_16463"/>
<feBlend mode="normal" in="SourceGraphic" in2="effect1_dropShadow_21_16463" result="shape"/>
</filter>
<filter id="filter3_d_21_16463" x="78.265" y="150.361" width="11.8977" height="36.1989" filterUnits="userSpaceOnUse" color-interpolation-filters="sRGB">
<feFlood flood-opacity="0" result="BackgroundImageFix"/>
<feColorMatrix in="SourceAlpha" type="matrix" values="0 0 0 0 0 0 0 0 0 0 0 0 0 0 0 0 0 0 127 0" result="hardAlpha"/>
<feOffset dy="2.23124"/>
<feGaussianBlur stdDeviation="0.557811"/>
<feColorMatrix type="matrix" values="0 0 0 0 0.541667 0 0 0 0 0.336104 0 0 0 0 0.0947917 0 0 0 0.25 0"/>
<feBlend mode="normal" in2="BackgroundImageFix" result="effect1_dropShadow_21_16463"/>
<feBlend mode="normal" in="SourceGraphic" in2="effect1_dropShadow_21_16463" result="shape"/>
</filter>
<filter id="filter4_d_21_16463" x="77.5172" y="185.624" width="13.3894" height="41.0275" filterUnits="userSpaceOnUse" color-interpolation-filters="sRGB">
<feFlood flood-opacity="0" result="BackgroundImageFix"/>
<feColorMatrix in="SourceAlpha" type="matrix" values="0 0 0 0 0 0 0 0 0 0 0 0 0 0 0 0 0 0 127 0" result="hardAlpha"/>
<feOffset dy="2.23124"/>
<feGaussianBlur stdDeviation="0.557811"/>
<feColorMatrix type="matrix" values="0 0 0 0 0.541667 0 0 0 0 0.336104 0 0 0 0 0.0947917 0 0 0 0.25 0"/>
<feBlend mode="normal" in2="BackgroundImageFix" result="effect1_dropShadow_21_16463"/>
<feBlend mode="normal" in="SourceGraphic" in2="effect1_dropShadow_21_16463" result="shape"/>
</filter>
<filter id="filter5_d_21_16463" x="54.1143" y="191.263" width="27.8383" height="25.9946" filterUnits="userSpaceOnUse" color-interpolation-filters="sRGB">
<feFlood flood-opacity="0" result="BackgroundImageFix"/>
<feColorMatrix in="SourceAlpha" type="matrix" values="0 0 0 0 0 0 0 0 0 0 0 0 0 0 0 0 0 0 127 0" result="hardAlpha"/>
<feOffset dx="2.23124" dy="2.23124"/>
<feGaussianBlur stdDeviation="0.557811"/>
<feColorMatrix type="matrix" values="0 0 0 0 0.541667 0 0 0 0 0.336104 0 0 0 0 0.0947917 0 0 0 0.25 0"/>
<feBlend mode="normal" in2="BackgroundImageFix" result="effect1_dropShadow_21_16463"/>
<feBlend mode="normal" in="SourceGraphic" in2="effect1_dropShadow_21_16463" result="shape"/>
</filter>
<filter id="filter6_d_21_16463" x="60.505" y="233.969" width="26.5259" height="15.8808" filterUnits="userSpaceOnUse" color-interpolation-filters="sRGB">
<feFlood flood-opacity="0" result="BackgroundImageFix"/>
<feColorMatrix in="SourceAlpha" type="matrix" values="0 0 0 0 0 0 0 0 0 0 0 0 0 0 0 0 0 0 127 0" result="hardAlpha"/>
<feOffset dy="2.23124"/>
<feGaussianBlur stdDeviation="0.557811"/>
<feColorMatrix type="matrix" values="0 0 0 0 0.541667 0 0 0 0 0.336104 0 0 0 0 0.0947917 0 0 0 0.25 0"/>
<feBlend mode="normal" in2="BackgroundImageFix" result="effect1_dropShadow_21_16463"/>
<feBlend mode="normal" in="SourceGraphic" in2="effect1_dropShadow_21_16463" result="shape"/>
</filter>
<filter id="filter7_d_21_16463" x="305.326" y="52.0071" width="30.7674" height="23.9727" filterUnits="userSpaceOnUse" color-interpolation-filters="sRGB">
<feFlood flood-opacity="0" result="BackgroundImageFix"/>
<feColorMatrix in="SourceAlpha" type="matrix" values="0 0 0 0 0 0 0 0 0 0 0 0 0 0 0 0 0 0 127 0" result="hardAlpha"/>
<feOffset dy="2.23124"/>
<feGaussianBlur stdDeviation="0.557811"/>
<feColorMatrix type="matrix" values="0 0 0 0 0.541667 0 0 0 0 0.336104 0 0 0 0 0.0947917 0 0 0 0.25 0"/>
<feBlend mode="normal" in2="BackgroundImageFix" result="effect1_dropShadow_21_16463"/>
<feBlend mode="normal" in="SourceGraphic" in2="effect1_dropShadow_21_16463" result="shape"/>
</filter>
<filter id="filter8_d_21_16463" x="329.987" y="105.303" width="29.5589" height="15.601" filterUnits="userSpaceOnUse" color-interpolation-filters="sRGB">
<feFlood flood-opacity="0" result="BackgroundImageFix"/>
<feColorMatrix in="SourceAlpha" type="matrix" values="0 0 0 0 0 0 0 0 0 0 0 0 0 0 0 0 0 0 127 0" result="hardAlpha"/>
<feOffset dy="2.23124"/>
<feGaussianBlur stdDeviation="0.557811"/>
<feColorMatrix type="matrix" values="0 0 0 0 0.541667 0 0 0 0 0.336104 0 0 0 0 0.0947917 0 0 0 0.25 0"/>
<feBlend mode="normal" in2="BackgroundImageFix" result="effect1_dropShadow_21_16463"/>
<feBlend mode="normal" in="SourceGraphic" in2="effect1_dropShadow_21_16463" result="shape"/>
</filter>
<filter id="filter9_d_21_16463" x="368.04" y="107.942" width="22.4897" height="43.2988" filterUnits="userSpaceOnUse" color-interpolation-filters="sRGB">
<feFlood flood-opacity="0" result="BackgroundImageFix"/>
<feColorMatrix in="SourceAlpha" type="matrix" values="0 0 0 0 0 0 0 0 0 0 0 0 0 0 0 0 0 0 127 0" result="hardAlpha"/>
<feOffset dx="2.23124" dy="2.23124"/>
<feGaussianBlur stdDeviation="0.557811"/>
<feColorMatrix type="matrix" values="0 0 0 0 0.541667 0 0 0 0 0.336104 0 0 0 0 0.0947917 0 0 0 0.25 0"/>
<feBlend mode="normal" in2="BackgroundImageFix" result="effect1_dropShadow_21_16463"/>
<feBlend mode="normal" in="SourceGraphic" in2="effect1_dropShadow_21_16463" result="shape"/>
</filter>
<filter id="filter10_d_21_16463" x="363.838" y="151.315" width="11.8977" height="36.1987" filterUnits="userSpaceOnUse" color-interpolation-filters="sRGB">
<feFlood flood-opacity="0" result="BackgroundImageFix"/>
<feColorMatrix in="SourceAlpha" type="matrix" values="0 0 0 0 0 0 0 0 0 0 0 0 0 0 0 0 0 0 127 0" result="hardAlpha"/>
<feOffset dy="2.23124"/>
<feGaussianBlur stdDeviation="0.557811"/>
<feColorMatrix type="matrix" values="0 0 0 0 0.541667 0 0 0 0 0.336104 0 0 0 0 0.0947917 0 0 0 0.25 0"/>
<feBlend mode="normal" in2="BackgroundImageFix" result="effect1_dropShadow_21_16463"/>
<feBlend mode="normal" in="SourceGraphic" in2="effect1_dropShadow_21_16463" result="shape"/>
</filter>
<filter id="filter11_d_21_16463" x="363.094" y="186.579" width="13.3894" height="41.0275" filterUnits="userSpaceOnUse" color-interpolation-filters="sRGB">
<feFlood flood-opacity="0" result="BackgroundImageFix"/>
<feColorMatrix in="SourceAlpha" type="matrix" values="0 0 0 0 0 0 0 0 0 0 0 0 0 0 0 0 0 0 127 0" result="hardAlpha"/>
<feOffset dy="2.23124"/>
<feGaussianBlur stdDeviation="0.557811"/>
<feColorMatrix type="matrix" values="0 0 0 0 0.541667 0 0 0 0 0.336104 0 0 0 0 0.0947917 0 0 0 0.25 0"/>
<feBlend mode="normal" in2="BackgroundImageFix" result="effect1_dropShadow_21_16463"/>
<feBlend mode="normal" in="SourceGraphic" in2="effect1_dropShadow_21_16463" result="shape"/>
</filter>
<filter id="filter12_d_21_16463" x="375.396" y="192.217" width="27.8383" height="25.9946" filterUnits="userSpaceOnUse" color-interpolation-filters="sRGB">
<feFlood flood-opacity="0" result="BackgroundImageFix"/>
<feColorMatrix in="SourceAlpha" type="matrix" values="0 0 0 0 0 0 0 0 0 0 0 0 0 0 0 0 0 0 127 0" result="hardAlpha"/>
<feOffset dx="2.23124" dy="2.23124"/>
<feGaussianBlur stdDeviation="0.557811"/>
<feColorMatrix type="matrix" values="0 0 0 0 0.541667 0 0 0 0 0.336104 0 0 0 0 0.0947917 0 0 0 0.25 0"/>
<feBlend mode="normal" in2="BackgroundImageFix" result="effect1_dropShadow_21_16463"/>
<feBlend mode="normal" in="SourceGraphic" in2="effect1_dropShadow_21_16463" result="shape"/>
</filter>
<filter id="filter13_d_21_16463" x="366.968" y="234.923" width="26.5259" height="15.8808" filterUnits="userSpaceOnUse" color-interpolation-filters="sRGB">
<feFlood flood-opacity="0" result="BackgroundImageFix"/>
<feColorMatrix in="SourceAlpha" type="matrix" values="0 0 0 0 0 0 0 0 0 0 0 0 0 0 0 0 0 0 127 0" result="hardAlpha"/>
<feOffset dy="2.23124"/>
<feGaussianBlur stdDeviation="0.557811"/>
<feColorMatrix type="matrix" values="0 0 0 0 0.541667 0 0 0 0 0.336104 0 0 0 0 0.0947917 0 0 0 0.25 0"/>
<feBlend mode="normal" in2="BackgroundImageFix" result="effect1_dropShadow_21_16463"/>
<feBlend mode="normal" in="SourceGraphic" in2="effect1_dropShadow_21_16463" result="shape"/>
</filter>
<filter id="filter14_d_21_16463" x="11.3833" y="57.6495" width="412.068" height="286.556" filterUnits="userSpaceOnUse" color-interpolation-filters="sRGB">
<feFlood flood-opacity="0" result="BackgroundImageFix"/>
<feColorMatrix in="SourceAlpha" type="matrix" values="0 0 0 0 0 0 0 0 0 0 0 0 0 0 0 0 0 0 127 0" result="hardAlpha"/>
<feOffset dy="8"/>
<feGaussianBlur stdDeviation="3"/>
<feColorMatrix type="matrix" values="0 0 0 0 0.208958 0 0 0 0 0.389892 0 0 0 0 0.491667 0 0 0 0.54 0"/>
<feBlend mode="normal" in2="BackgroundImageFix" result="effect1_dropShadow_21_16463"/>
<feBlend mode="normal" in="SourceGraphic" in2="effect1_dropShadow_21_16463" result="shape"/>
</filter>
<filter id="filter15_f_21_16463" x="124.658" y="77.8316" width="205.539" height="231.71" filterUnits="userSpaceOnUse" color-interpolation-filters="sRGB">
<feFlood flood-opacity="0" result="BackgroundImageFix"/>
<feBlend mode="normal" in="SourceGraphic" in2="BackgroundImageFix" result="shape"/>
<feGaussianBlur stdDeviation="0.15" result="effect1_foregroundBlur_21_16463"/>
</filter>
<filter id="filter16_i_21_16463" x="134.129" y="88.0566" width="187.851" height="211.632" filterUnits="userSpaceOnUse" color-interpolation-filters="sRGB">
<feFlood flood-opacity="0" result="BackgroundImageFix"/>
<feBlend mode="normal" in="SourceGraphic" in2="BackgroundImageFix" result="shape"/>
<feColorMatrix in="SourceAlpha" type="matrix" values="0 0 0 0 0 0 0 0 0 0 0 0 0 0 0 0 0 0 127 0" result="hardAlpha"/>
<feOffset/>
<feGaussianBlur stdDeviation="6.72414"/>
<feComposite in2="hardAlpha" operator="arithmetic" k2="-1" k3="1"/>
<feColorMatrix type="matrix" values="0 0 0 0 0.37849 0 0 0 0 0.586923 0 0 0 0 0.704167 0 0 0 1 0"/>
<feBlend mode="normal" in2="shape" result="effect1_innerShadow_21_16463"/>
</filter>
<filter id="filter17_i_21_16463" x="159.181" y="149.6" width="138.091" height="91.5399" filterUnits="userSpaceOnUse" color-interpolation-filters="sRGB">
<feFlood flood-opacity="0" result="BackgroundImageFix"/>
<feBlend mode="normal" in="SourceGraphic" in2="BackgroundImageFix" result="shape"/>
<feColorMatrix in="SourceAlpha" type="matrix" values="0 0 0 0 0 0 0 0 0 0 0 0 0 0 0 0 0 0 127 0" result="hardAlpha"/>
<feOffset dy="4"/>
<feGaussianBlur stdDeviation="2"/>
<feComposite in2="hardAlpha" operator="arithmetic" k2="-1" k3="1"/>
<feColorMatrix type="matrix" values="0 0 0 0 0 0 0 0 0 0 0 0 0 0 0 0 0 0 0.25 0"/>
<feBlend mode="normal" in2="shape" result="effect1_innerShadow_21_16463"/>
</filter>
<linearGradient id="paint0_linear_21_16463" x1="81.794" y1="227.778" x2="73.9211" y2="238.404" gradientUnits="userSpaceOnUse">
<stop stop-color="#D2AB68"/>
<stop offset="1" stop-color="#B67D3F"/>
</linearGradient>
<linearGradient id="paint1_linear_21_16463" x1="115.22" y1="68.8259" x2="92.7735" y2="99.1192" gradientUnits="userSpaceOnUse">
<stop stop-color="#D2AB68"/>
<stop offset="1" stop-color="#B67D3F"/>
</linearGradient>
<linearGradient id="paint2_linear_21_16463" x1="138.555" y1="59.2263" x2="122.95" y2="80.2871" gradientUnits="userSpaceOnUse">
<stop stop-color="#D2AB68"/>
<stop offset="1" stop-color="#B67D3F"/>
</linearGradient>
<linearGradient id="paint3_linear_21_16463" x1="80.8811" y1="147.589" x2="89.2023" y2="151.06" gradientUnits="userSpaceOnUse">
<stop stop-color="#D2AB68"/>
<stop offset="1" stop-color="#B67D3F"/>
</linearGradient>
<linearGradient id="paint4_linear_21_16463" x1="133.885" y1="73.3805" x2="121.194" y2="47.6297" gradientUnits="userSpaceOnUse">
<stop stop-color="#D2AB68"/>
<stop offset="1" stop-color="#B67D3F"/>
</linearGradient>
<linearGradient id="paint5_linear_21_16463" x1="124.322" y1="44.3336" x2="117.348" y2="71.5865" gradientUnits="userSpaceOnUse">
<stop stop-color="#F7E6B3"/>
<stop offset="1" stop-color="#F7E6B3" stop-opacity="0"/>
</linearGradient>
<linearGradient id="paint6_linear_21_16463" x1="105.65" y1="146.82" x2="78.2606" y2="183.785" gradientUnits="userSpaceOnUse">
<stop stop-color="#D2AB68"/>
<stop offset="1" stop-color="#B67D3F"/>
</linearGradient>
<linearGradient id="paint7_linear_21_16463" x1="99.4317" y1="151.088" x2="107.873" y2="174.221" gradientUnits="userSpaceOnUse">
<stop stop-color="#F7E6B3"/>
<stop offset="1" stop-color="#F7E6B3" stop-opacity="0"/>
</linearGradient>
<linearGradient id="paint8_linear_21_16463" x1="92.0667" y1="111.591" x2="77.5029" y2="131.246" gradientUnits="userSpaceOnUse">
<stop stop-color="#D2AB68"/>
<stop offset="1" stop-color="#B67D3F"/>
</linearGradient>
<linearGradient id="paint9_linear_21_16463" x1="89.3561" y1="122.917" x2="82.8273" y2="135.17" gradientUnits="userSpaceOnUse">
<stop stop-color="#C18E42"/>
<stop offset="1" stop-color="#D2AB68"/>
</linearGradient>
<linearGradient id="paint10_linear_21_16463" x1="104.555" y1="77.0626" x2="86.1393" y2="101.916" gradientUnits="userSpaceOnUse">
<stop stop-color="#D2AB68"/>
<stop offset="1" stop-color="#8E573C"/>
</linearGradient>
<linearGradient id="paint11_linear_21_16463" x1="119.305" y1="87.7394" x2="101.612" y2="111.618" gradientUnits="userSpaceOnUse">
<stop stop-color="#D2AB68"/>
<stop offset="1" stop-color="#B67D3F"/>
</linearGradient>
<linearGradient id="paint12_linear_21_16463" x1="71.477" y1="161.387" x2="64.9908" y2="170.141" gradientUnits="userSpaceOnUse">
<stop stop-color="#D2AB68"/>
<stop offset="1" stop-color="#B67D3F"/>
</linearGradient>
<linearGradient id="paint13_linear_21_16463" x1="76.4439" y1="145.056" x2="61.1579" y2="165.687" gradientUnits="userSpaceOnUse">
<stop stop-color="#C28766"/>
<stop offset="1" stop-color="#8E573C"/>
</linearGradient>
<linearGradient id="paint14_linear_21_16463" x1="100.233" y1="194.892" x2="80.2531" y2="221.857" gradientUnits="userSpaceOnUse">
<stop stop-color="#D2AB68"/>
<stop offset="1" stop-color="#B67D3F"/>
</linearGradient>
<linearGradient id="paint15_linear_21_16463" x1="79.306" y1="188.192" x2="66.668" y2="205.248" gradientUnits="userSpaceOnUse">
<stop stop-color="#D2AB68"/>
<stop offset="1" stop-color="#B67D3F"/>
</linearGradient>
<linearGradient id="paint16_linear_21_16463" x1="81.5562" y1="187.091" x2="66.6847" y2="207.162" gradientUnits="userSpaceOnUse">
<stop stop-color="#FADA81"/>
<stop offset="1" stop-color="#B67D3F"/>
</linearGradient>
<linearGradient id="paint17_linear_21_16463" x1="79.2899" y1="242.53" x2="73.1514" y2="250.815" gradientUnits="userSpaceOnUse">
<stop stop-color="#D2AB68"/>
<stop offset="1" stop-color="#B67D3F"/>
</linearGradient>
<linearGradient id="paint18_linear_21_16463" x1="157.947" y1="19.4951" x2="135.921" y2="49.2221" gradientUnits="userSpaceOnUse">
<stop stop-color="#FCF1D5"/>
<stop offset="1" stop-color="#EBCE6A"/>
</linearGradient>
<linearGradient id="paint19_linear_21_16463" x1="160.482" y1="21.374" x2="138.456" y2="51.1011" gradientUnits="userSpaceOnUse">
<stop stop-color="#D2AB68"/>
<stop offset="1" stop-color="#B67D3F"/>
</linearGradient>
<linearGradient id="paint20_linear_21_16463" x1="144.362" y1="48.6839" x2="124.382" y2="75.6494" gradientUnits="userSpaceOnUse">
<stop stop-color="#D2AB68"/>
<stop offset="1" stop-color="#B67D3F"/>
</linearGradient>
<linearGradient id="paint21_linear_21_16463" x1="138.974" y1="51.1666" x2="139.678" y2="77.0002" gradientUnits="userSpaceOnUse">
<stop stop-color="#F7E6B3"/>
<stop offset="1" stop-color="#F7E6B3" stop-opacity="0"/>
</linearGradient>
<linearGradient id="paint22_linear_21_16463" x1="109.195" y1="71.6102" x2="102.803" y2="102.64" gradientUnits="userSpaceOnUse">
<stop stop-color="#F7E6B3"/>
<stop offset="1" stop-color="#F7E6B3" stop-opacity="0"/>
</linearGradient>
<linearGradient id="paint23_linear_21_16463" x1="98.231" y1="78.1302" x2="88.0275" y2="104.492" gradientUnits="userSpaceOnUse">
<stop stop-color="#F7E6B3"/>
<stop offset="1" stop-color="#F7E6B3" stop-opacity="0"/>
</linearGradient>
<linearGradient id="paint24_linear_21_16463" x1="115.033" y1="90.3813" x2="115.452" y2="107.958" gradientUnits="userSpaceOnUse">
<stop stop-color="#FFDD78"/>
<stop offset="1" stop-color="#FFF1C8" stop-opacity="0.38"/>
</linearGradient>
<linearGradient id="paint25_linear_21_16463" x1="116.584" y1="100.064" x2="101.057" y2="121.019" gradientUnits="userSpaceOnUse">
<stop stop-color="#D2AB68"/>
<stop offset="1" stop-color="#B67D3F"/>
</linearGradient>
<linearGradient id="paint26_linear_21_16463" x1="116.843" y1="99.7528" x2="97.9605" y2="119.021" gradientUnits="userSpaceOnUse">
<stop stop-color="#FFDA92"/>
<stop offset="1" stop-color="#DCBA84"/>
</linearGradient>
<linearGradient id="paint27_linear_21_16463" x1="72.5371" y1="111.212" x2="82.8513" y2="141.442" gradientUnits="userSpaceOnUse">
<stop stop-color="#F7E6B3"/>
<stop offset="1" stop-color="#BC8647"/>
</linearGradient>
<linearGradient id="paint28_linear_21_16463" x1="82.2277" y1="118.703" x2="69.8906" y2="135.353" gradientUnits="userSpaceOnUse">
<stop stop-color="#D2AB68"/>
<stop offset="1" stop-color="#8E573C"/>
</linearGradient>
<linearGradient id="paint29_linear_21_16463" x1="68.5714" y1="143.521" x2="58.1551" y2="162.461" gradientUnits="userSpaceOnUse">
<stop stop-color="#F7E6B3"/>
<stop offset="1" stop-color="#F7E6B3" stop-opacity="0"/>
</linearGradient>
<linearGradient id="paint30_linear_21_16463" x1="93.1443" y1="154.409" x2="74.4882" y2="179.587" gradientUnits="userSpaceOnUse">
<stop stop-color="#D2AB68"/>
<stop offset="1" stop-color="#B67D3F"/>
</linearGradient>
<linearGradient id="paint31_linear_21_16463" x1="87.715" y1="149.984" x2="79.3483" y2="181.547" gradientUnits="userSpaceOnUse">
<stop stop-color="#E0C087"/>
<stop offset="0.28125" stop-color="#FFE49E"/>
<stop offset="1" stop-color="#753C1D"/>
</linearGradient>
<linearGradient id="paint32_linear_21_16463" x1="65.6365" y1="161.681" x2="58.6114" y2="168.659" gradientUnits="userSpaceOnUse">
<stop stop-color="#B18253"/>
<stop offset="1" stop-color="#F7E6B3" stop-opacity="0"/>
</linearGradient>
<linearGradient id="paint33_linear_21_16463" x1="92.8971" y1="191.719" x2="73.8798" y2="217.385" gradientUnits="userSpaceOnUse">
<stop stop-color="#D2AB68"/>
<stop offset="1" stop-color="#B67D3F"/>
</linearGradient>
<linearGradient id="paint34_linear_21_16463" x1="87.2869" y1="193.667" x2="79.685" y2="221.603" gradientUnits="userSpaceOnUse">
<stop stop-color="#F7E6B3"/>
<stop offset="1" stop-color="#F7E6B3" stop-opacity="0"/>
</linearGradient>
<linearGradient id="paint35_linear_21_16463" x1="69.0774" y1="199.042" x2="62.2466" y2="208.261" gradientUnits="userSpaceOnUse">
<stop stop-color="#D2AB68"/>
<stop offset="1" stop-color="#B67D3F"/>
</linearGradient>
<linearGradient id="paint36_linear_21_16463" x1="66.298" y1="197.172" x2="71.958" y2="210.784" gradientUnits="userSpaceOnUse">
<stop stop-color="#FADA81"/>
<stop offset="1" stop-color="#9A5E33"/>
</linearGradient>
<linearGradient id="paint37_linear_21_16463" x1="77.8872" y1="233.623" x2="70.7211" y2="243.295" gradientUnits="userSpaceOnUse">
<stop stop-color="#FADA81"/>
<stop offset="1" stop-color="#B67D3F"/>
</linearGradient>
<linearGradient id="paint38_linear_21_16463" x1="78.2118" y1="237.872" x2="70.1062" y2="248.812" gradientUnits="userSpaceOnUse">
<stop stop-color="#D2AB68"/>
<stop offset="1" stop-color="#B67D3F"/>
</linearGradient>
<linearGradient id="paint39_linear_21_16463" x1="372.206" y1="228.733" x2="380.079" y2="239.358" gradientUnits="userSpaceOnUse">
<stop stop-color="#D2AB68"/>
<stop offset="1" stop-color="#B67D3F"/>
</linearGradient>
<linearGradient id="paint40_linear_21_16463" x1="338.781" y1="69.78" x2="361.227" y2="100.073" gradientUnits="userSpaceOnUse">
<stop stop-color="#D2AB68"/>
<stop offset="1" stop-color="#B67D3F"/>
</linearGradient>
<linearGradient id="paint41_linear_21_16463" x1="315.445" y1="60.1806" x2="331.05" y2="81.2415" gradientUnits="userSpaceOnUse">
<stop stop-color="#D2AB68"/>
<stop offset="1" stop-color="#B67D3F"/>
</linearGradient>
<linearGradient id="paint42_linear_21_16463" x1="373.119" y1="148.544" x2="364.797" y2="152.016" gradientUnits="userSpaceOnUse">
<stop stop-color="#D2AB68"/>
<stop offset="1" stop-color="#B67D3F"/>
</linearGradient>
<linearGradient id="paint43_linear_21_16463" x1="320.115" y1="74.335" x2="332.806" y2="48.5842" gradientUnits="userSpaceOnUse">
<stop stop-color="#D2AB68"/>
<stop offset="1" stop-color="#B67D3F"/>
</linearGradient>
<linearGradient id="paint44_linear_21_16463" x1="329.678" y1="45.288" x2="336.652" y2="72.541" gradientUnits="userSpaceOnUse">
<stop stop-color="#F7E6B3"/>
<stop offset="1" stop-color="#F7E6B3" stop-opacity="0"/>
</linearGradient>
<linearGradient id="paint45_linear_21_16463" x1="348.348" y1="147.774" x2="375.738" y2="184.74" gradientUnits="userSpaceOnUse">
<stop stop-color="#D2AB68"/>
<stop offset="1" stop-color="#B67D3F"/>
</linearGradient>
<linearGradient id="paint46_linear_21_16463" x1="354.567" y1="152.042" x2="346.127" y2="175.178" gradientUnits="userSpaceOnUse">
<stop stop-color="#F7E6B3"/>
<stop offset="1" stop-color="#F7E6B3" stop-opacity="0"/>
</linearGradient>
<linearGradient id="paint47_linear_21_16463" x1="361.932" y1="112.546" x2="376.496" y2="132.202" gradientUnits="userSpaceOnUse">
<stop stop-color="#D2AB68"/>
<stop offset="1" stop-color="#B67D3F"/>
</linearGradient>
<linearGradient id="paint48_linear_21_16463" x1="364.644" y1="123.872" x2="371.173" y2="136.125" gradientUnits="userSpaceOnUse">
<stop stop-color="#C18E42"/>
<stop offset="1" stop-color="#D2AB68"/>
</linearGradient>
<linearGradient id="paint49_linear_21_16463" x1="349.444" y1="78.0169" x2="367.859" y2="102.871" gradientUnits="userSpaceOnUse">
<stop stop-color="#D2AB68"/>
<stop offset="1" stop-color="#8E573C"/>
</linearGradient>
<linearGradient id="paint50_linear_21_16463" x1="334.696" y1="88.6938" x2="352.389" y2="112.573" gradientUnits="userSpaceOnUse">
<stop stop-color="#D2AB68"/>
<stop offset="1" stop-color="#B67D3F"/>
</linearGradient>
<linearGradient id="paint51_linear_21_16463" x1="382.521" y1="162.341" x2="389.008" y2="171.095" gradientUnits="userSpaceOnUse">
<stop stop-color="#D2AB68"/>
<stop offset="1" stop-color="#B67D3F"/>
</linearGradient>
<linearGradient id="paint52_linear_21_16463" x1="377.556" y1="146.011" x2="392.842" y2="166.641" gradientUnits="userSpaceOnUse">
<stop stop-color="#C28766"/>
<stop offset="1" stop-color="#8E573C"/>
</linearGradient>
<linearGradient id="paint53_linear_21_16463" x1="353.766" y1="195.846" x2="373.746" y2="222.811" gradientUnits="userSpaceOnUse">
<stop stop-color="#D2AB68"/>
<stop offset="1" stop-color="#B67D3F"/>
</linearGradient>
<linearGradient id="paint54_linear_21_16463" x1="374.694" y1="189.147" x2="387.332" y2="206.204" gradientUnits="userSpaceOnUse">
<stop stop-color="#D2AB68"/>
<stop offset="1" stop-color="#B67D3F"/>
</linearGradient>
<linearGradient id="paint55_linear_21_16463" x1="372.444" y1="188.047" x2="387.316" y2="208.118" gradientUnits="userSpaceOnUse">
<stop stop-color="#FADA81"/>
<stop offset="1" stop-color="#B67D3F"/>
</linearGradient>
<linearGradient id="paint56_linear_21_16463" x1="374.71" y1="243.484" x2="380.848" y2="251.769" gradientUnits="userSpaceOnUse">
<stop stop-color="#D2AB68"/>
<stop offset="1" stop-color="#B67D3F"/>
</linearGradient>
<linearGradient id="paint57_linear_21_16463" x1="296.052" y1="20.4492" x2="318.078" y2="50.1761" gradientUnits="userSpaceOnUse">
<stop stop-color="#FCF1D5"/>
<stop offset="1" stop-color="#EBCE6A"/>
</linearGradient>
<linearGradient id="paint58_linear_21_16463" x1="293.517" y1="22.3281" x2="315.543" y2="52.0552" gradientUnits="userSpaceOnUse">
<stop stop-color="#D2AB68"/>
<stop offset="1" stop-color="#B67D3F"/>
</linearGradient>
<linearGradient id="paint59_linear_21_16463" x1="309.638" y1="49.6383" x2="329.619" y2="76.6037" gradientUnits="userSpaceOnUse">
<stop stop-color="#D2AB68"/>
<stop offset="1" stop-color="#B67D3F"/>
</linearGradient>
<linearGradient id="paint60_linear_21_16463" x1="315.026" y1="52.1209" x2="314.322" y2="77.9545" gradientUnits="userSpaceOnUse">
<stop stop-color="#F7E6B3"/>
<stop offset="1" stop-color="#F7E6B3" stop-opacity="0"/>
</linearGradient>
<linearGradient id="paint61_linear_21_16463" x1="344.807" y1="72.5667" x2="351.199" y2="103.595" gradientUnits="userSpaceOnUse">
<stop stop-color="#F7E6B3"/>
<stop offset="1" stop-color="#F7E6B3" stop-opacity="0"/>
</linearGradient>
<linearGradient id="paint62_linear_21_16463" x1="355.768" y1="79.0841" x2="365.971" y2="105.443" gradientUnits="userSpaceOnUse">
<stop stop-color="#F7E6B3"/>
<stop offset="1" stop-color="#F7E6B3" stop-opacity="0"/>
</linearGradient>
<linearGradient id="paint63_linear_21_16463" x1="338.972" y1="91.3399" x2="338.553" y2="108.914" gradientUnits="userSpaceOnUse">
<stop stop-color="#FFDD78"/>
<stop offset="1" stop-color="#FFF1C8" stop-opacity="0.38"/>
</linearGradient>
<linearGradient id="paint64_linear_21_16463" x1="337.421" y1="101.017" x2="352.947" y2="121.972" gradientUnits="userSpaceOnUse">
<stop stop-color="#D2AB68"/>
<stop offset="1" stop-color="#B67D3F"/>
</linearGradient>
<linearGradient id="paint65_linear_21_16463" x1="337.162" y1="100.706" x2="356.044" y2="119.974" gradientUnits="userSpaceOnUse">
<stop stop-color="#FFDA92"/>
<stop offset="1" stop-color="#DCBA84"/>
</linearGradient>
<linearGradient id="paint66_linear_21_16463" x1="381.464" y1="112.166" x2="371.15" y2="142.397" gradientUnits="userSpaceOnUse">
<stop stop-color="#F7E6B3"/>
<stop offset="1" stop-color="#BC8647"/>
</linearGradient>
<linearGradient id="paint67_linear_21_16463" x1="371.776" y1="119.658" x2="384.111" y2="136.306" gradientUnits="userSpaceOnUse">
<stop stop-color="#D2AB68"/>
<stop offset="1" stop-color="#8E573C"/>
</linearGradient>
<linearGradient id="paint68_linear_21_16463" x1="385.432" y1="144.476" x2="395.848" y2="163.416" gradientUnits="userSpaceOnUse">
<stop stop-color="#F7E6B3"/>
<stop offset="1" stop-color="#F7E6B3" stop-opacity="0"/>
</linearGradient>
<linearGradient id="paint69_linear_21_16463" x1="360.857" y1="155.363" x2="379.513" y2="180.542" gradientUnits="userSpaceOnUse">
<stop stop-color="#D2AB68"/>
<stop offset="1" stop-color="#B67D3F"/>
</linearGradient>
<linearGradient id="paint70_linear_21_16463" x1="366.285" y1="150.939" x2="374.652" y2="182.501" gradientUnits="userSpaceOnUse">
<stop stop-color="#E0C087"/>
<stop offset="0.28125" stop-color="#FFE49E"/>
<stop offset="1" stop-color="#753C1D"/>
</linearGradient>
<linearGradient id="paint71_linear_21_16463" x1="388.365" y1="162.636" x2="395.39" y2="169.614" gradientUnits="userSpaceOnUse">
<stop stop-color="#B18253"/>
<stop offset="1" stop-color="#F7E6B3" stop-opacity="0"/>
</linearGradient>
<linearGradient id="paint72_linear_21_16463" x1="361.104" y1="192.674" x2="380.121" y2="218.34" gradientUnits="userSpaceOnUse">
<stop stop-color="#D2AB68"/>
<stop offset="1" stop-color="#B67D3F"/>
</linearGradient>
<linearGradient id="paint73_linear_21_16463" x1="366.714" y1="194.622" x2="374.316" y2="222.559" gradientUnits="userSpaceOnUse">
<stop stop-color="#F7E6B3"/>
<stop offset="1" stop-color="#F7E6B3" stop-opacity="0"/>
</linearGradient>
<linearGradient id="paint74_linear_21_16463" x1="384.924" y1="199.996" x2="391.755" y2="209.215" gradientUnits="userSpaceOnUse">
<stop stop-color="#D2AB68"/>
<stop offset="1" stop-color="#B67D3F"/>
</linearGradient>
<linearGradient id="paint75_linear_21_16463" x1="387.703" y1="198.126" x2="382.043" y2="211.738" gradientUnits="userSpaceOnUse">
<stop stop-color="#FADA81"/>
<stop offset="1" stop-color="#9A5E33"/>
</linearGradient>
<linearGradient id="paint76_linear_21_16463" x1="376.112" y1="234.577" x2="383.278" y2="244.249" gradientUnits="userSpaceOnUse">
<stop stop-color="#FADA81"/>
<stop offset="1" stop-color="#B67D3F"/>
</linearGradient>
<linearGradient id="paint77_linear_21_16463" x1="375.788" y1="238.826" x2="383.894" y2="249.766" gradientUnits="userSpaceOnUse">
<stop stop-color="#D2AB68"/>
<stop offset="1" stop-color="#B67D3F"/>
</linearGradient>
<linearGradient id="paint78_linear_21_16463" x1="358.844" y1="187.288" x2="392.222" y2="153.587" gradientUnits="userSpaceOnUse">
<stop stop-color="#C3C5D1"/>
<stop offset="0.875" stop-color="#F9F9F9"/>
</linearGradient>
<linearGradient id="paint79_linear_21_16463" x1="410.779" y1="147.889" x2="379.107" y2="187.586" gradientUnits="userSpaceOnUse">
<stop stop-color="#F9F9F9"/>
<stop offset="0.378992" stop-color="#F9F9F9"/>
<stop offset="0.480868" stop-color="#DFDFE6"/>
<stop offset="0.729174" stop-color="#B8BAC6"/>
</linearGradient>
<linearGradient id="paint80_linear_21_16463" x1="335.638" y1="217.385" x2="369.007" y2="182.59" gradientUnits="userSpaceOnUse">
<stop stop-color="#C3C5D1"/>
<stop offset="0.875" stop-color="#F9F9F9"/>
</linearGradient>
<linearGradient id="paint81_linear_21_16463" x1="378.181" y1="182.911" x2="361.317" y2="217.514" gradientUnits="userSpaceOnUse">
<stop stop-color="#F4F4F5"/>
<stop offset="0.306027" stop-color="#F4F4F5"/>
<stop offset="0.462087" stop-color="#E8E9EC"/>
<stop offset="0.682292" stop-color="#DFDFE6"/>
<stop offset="1" stop-color="#B8BAC6"/>
</linearGradient>
<linearGradient id="paint82_linear_21_16463" x1="75.9906" y1="187.289" x2="42.612" y2="153.587" gradientUnits="userSpaceOnUse">
<stop stop-color="#C3C5D1"/>
<stop offset="0.875" stop-color="#F9F9F9"/>
</linearGradient>
<linearGradient id="paint83_linear_21_16463" x1="24.0554" y1="147.889" x2="55.7276" y2="187.586" gradientUnits="userSpaceOnUse">
<stop stop-color="#F9F9F9"/>
<stop offset="0.378992" stop-color="#F9F9F9"/>
<stop offset="0.480868" stop-color="#DFDFE6"/>
<stop offset="0.729174" stop-color="#B8BAC6"/>
</linearGradient>
<linearGradient id="paint84_linear_21_16463" x1="99.1957" y1="217.386" x2="65.8274" y2="182.59" gradientUnits="userSpaceOnUse">
<stop stop-color="#C3C5D1"/>
<stop offset="0.875" stop-color="#F9F9F9"/>
</linearGradient>
<linearGradient id="paint85_linear_21_16463" x1="56.653" y1="182.911" x2="73.517" y2="217.514" gradientUnits="userSpaceOnUse">
<stop stop-color="#F4F4F5"/>
<stop offset="0.306027" stop-color="#F4F4F5"/>
<stop offset="0.462087" stop-color="#E8E9EC"/>
<stop offset="0.682292" stop-color="#DFDFE6"/>
<stop offset="1" stop-color="#B8BAC6"/>
</linearGradient>
<linearGradient id="paint86_linear_21_16463" x1="176.997" y1="88.7333" x2="283.72" y2="302.803" gradientUnits="userSpaceOnUse">
<stop stop-color="#D8ECF1"/>
<stop offset="1" stop-color="#82B3BF"/>
</linearGradient>
<linearGradient id="paint87_linear_21_16463" x1="176.034" y1="106.385" x2="268.096" y2="277.914" gradientUnits="userSpaceOnUse">
<stop stop-color="#A1C9D3"/>
<stop offset="1" stop-color="#D0ECF2"/>
</linearGradient>
<linearGradient id="paint88_linear_21_16463" x1="186.149" y1="100.183" x2="285.346" y2="280.368" gradientUnits="userSpaceOnUse">
<stop stop-color="#D0ECF2"/>
<stop offset="1" stop-color="#E6F8FC"/>
</linearGradient>
<radialGradient id="paint89_radial_21_16463" cx="0" cy="0" r="1" gradientUnits="userSpaceOnUse" gradientTransform="translate(228.054 193.873) rotate(90) scale(108.002 93.9255)">
<stop stop-color="#D0EBF2"/>
<stop offset="1" stop-color="#8DD3E2"/>
</radialGradient>
<linearGradient id="paint90_linear_21_16463" x1="228.054" y1="81.5938" x2="228.054" y2="306.141" gradientUnits="userSpaceOnUse">
<stop stop-color="white"/>
<stop offset="1" stop-color="#F2EDED" stop-opacity="0"/>
</linearGradient>
<linearGradient id="paint91_linear_21_16463" x1="112.093" y1="101.91" x2="223.824" y2="297.304" gradientUnits="userSpaceOnUse">
<stop stop-color="white"/>
<stop offset="1" stop-color="#F2EDED" stop-opacity="0"/>
</linearGradient>
<linearGradient id="paint92_linear_21_16463" x1="335.57" y1="101.91" x2="223.839" y2="297.304" gradientUnits="userSpaceOnUse">
<stop stop-color="white"/>
<stop offset="1" stop-color="#F2EDED" stop-opacity="0"/>
</linearGradient>
<linearGradient id="paint93_linear_21_16463" x1="228.054" y1="233.431" x2="227.498" y2="294.378" gradientUnits="userSpaceOnUse">
<stop stop-color="#EEFFFF" stop-opacity="0"/>
<stop offset="1" stop-color="#B5EBFB"/>
</linearGradient>
<linearGradient id="paint94_linear_21_16463" x1="315.438" y1="223.797" x2="150.485" y2="174.735" gradientUnits="userSpaceOnUse">
<stop stop-color="#5EA6B7"/>
<stop offset="1" stop-color="#5F9CAA"/>
</linearGradient>
</defs>
</svg>
