<svg width="444" height="405" viewBox="0 0 444 405" fill="none" xmlns="http://www.w3.org/2000/svg">
<path d="M76.9072 224.349C77.6891 224.928 82.4546 235.84 84.7396 241.224L86.0899 247.508C81.7329 244.532 72.6028 237.716 70.9386 234.269C69.2744 230.822 69.3375 222.598 69.5771 218.918L76.9072 224.349Z" fill="url(#paint0_linear_21_15621)"/>
<path d="M100.409 80.2201C100.37 75.1589 103.977 69.779 107.386 63.2472C108.427 63.2137 112.602 70.1313 105.512 94.3178L102.225 101.697C101.174 106.452 100.516 100.933 99.3309 96.7834C99.5225 87.112 100.458 86.5467 100.409 80.2201Z" fill="url(#paint1_linear_21_15621)"/>
<path d="M125.701 68.2626C127.328 67.4548 134.24 64.0213 144.614 63.4044L144.614 63.4044C143.639 64.6952 140.836 68.4058 130.835 74.583C129.29 74.9476 121.804 75.4401 118.019 74.3969C117.173 74.9782 118.113 73.7118 118.383 72.9055C120.956 69.2758 124.075 69.0705 125.701 68.2626Z" fill="url(#paint2_linear_21_15621)"/>
<path fill-rule="evenodd" clip-rule="evenodd" d="M82.5013 150.941C92.8129 107.081 117.09 70.2178 135.738 48.9193L136.552 49.5228C118.187 70.4996 95.8422 108.41 85.6713 151.672C75.5107 194.89 78.4827 244.075 112.509 289.31L109.898 291.236C75.1675 245.064 72.1794 194.845 82.5013 150.941Z" fill="url(#paint3_linear_21_15621)"/>
<path d="M125.848 56.2942L122 36.8356L119.441 40.2236C114.284 48.7323 117.343 54.7731 116.213 61.9876C115.309 67.7591 117.392 72.0871 118.504 72.744L122.403 66.5739L125.848 56.2942Z" fill="url(#paint4_linear_21_15621)"/>
<path fill-rule="evenodd" clip-rule="evenodd" d="M122.067 37.175C121.072 45.8712 119.998 56.3325 120.726 59.0409C121.389 61.505 120.249 67.1117 118.897 72.1225L118.504 72.744C117.392 72.0871 115.309 67.7591 116.213 61.9876C116.594 59.5525 116.499 57.2512 116.403 54.9435C116.214 50.4141 116.025 45.8604 119.441 40.2236L122 36.8356L122.067 37.175Z" fill="url(#paint5_linear_21_15621)"/>
<path d="M97.2182 166.177C98.3225 164.177 101.866 151.504 103.499 145.417L101.547 145.983C89.9641 156.273 89.1197 164.454 86.6862 170.703C84.2526 176.952 75.4352 186.271 80.2337 184.291C85.0322 182.31 95.838 168.677 97.2182 166.177Z" fill="url(#paint6_linear_21_15621)"/>
<path fill-rule="evenodd" clip-rule="evenodd" d="M103.27 146.269C99.2152 152.627 93.5225 162.07 91.3202 167.595C89.2596 172.764 84.4628 179.587 80.57 184.138C80.455 184.195 80.3428 184.246 80.2337 184.291C77.4482 185.44 79.2509 182.782 81.7297 179.127C83.521 176.486 85.6653 173.324 86.6862 170.703C87.126 169.574 87.5139 168.381 87.9227 167.124C89.7756 161.428 92.0575 154.413 101.547 145.983L103.499 145.417C103.426 145.688 103.35 145.973 103.27 146.269Z" fill="url(#paint7_linear_21_15621)"/>
<path d="M88.903 120.006C87.9541 115.881 84.5353 108.299 82.9446 105.023C80.7536 109.942 81.9771 112.358 80.0733 119.251C78.5503 124.766 83.6854 134.09 86.4433 138.062C87.6586 133.762 89.852 124.132 88.903 120.006Z" fill="url(#paint8_linear_21_15621)"/>
<path fill-rule="evenodd" clip-rule="evenodd" d="M88.8035 119.593C88.8394 119.734 88.8729 119.872 88.9038 120.006C89.8527 124.132 87.6593 133.762 86.444 138.062C85.4671 136.655 84.1919 134.576 83.02 132.233C84.2396 127.381 86.7335 122.747 88.8035 119.593Z" fill="url(#paint9_linear_21_15621)"/>
<path d="M98.4957 80.0618C98.2321 77.4509 95.095 71.6708 93.5593 69.1071C92.155 74.1055 88.7309 79.872 88.3752 88.4153C88.2281 91.9474 93.738 104.299 96.905 110.085L97.9993 106.618C95.8731 97.9969 98.8252 83.3254 98.4957 80.0618Z" fill="url(#paint10_linear_21_15621)"/>
<path d="M112.036 105.191C117.369 101.896 120.701 93.4941 121.7 89.705C112.39 95.6398 109.377 93.9106 101.822 103.913L99.2255 110.041C101.273 109.797 106.702 108.485 112.036 105.191Z" fill="url(#paint11_linear_21_15621)"/>
<path d="M77.9828 172.81C74.7479 162.562 63.0297 155.271 57.5755 153.411C64.0674 172.061 68.2529 167.865 72.2878 173.622C75.5158 178.228 78.304 180.344 78.8059 180.465L77.9828 172.81Z" fill="url(#paint12_linear_21_15621)"/>
<path d="M74.1322 151.335C73.0231 149.306 63.8088 137.983 59.3403 132.575C61.5125 145.507 63.8837 154.813 67.2658 159.08C69.9715 162.494 75.5968 173.389 78.0712 178.41C78.3141 177.416 78.8074 174.879 78.8372 172.687C78.8746 169.947 75.5187 153.872 74.1322 151.335Z" fill="url(#paint13_linear_21_15621)"/>
<path d="M97.1695 192.813C91.1223 198.397 85.5534 209.201 83.5249 213.904L82.9677 224.06C86.6786 219.932 94.4086 210.797 95.6412 207.281C96.8737 203.766 97.1736 196.171 97.1695 192.813Z" fill="url(#paint14_linear_21_15621)"/>
<path d="M74.2181 188.891C73.7924 186.764 69.6663 181.912 67.6565 179.751C66.6028 183.165 64.9777 191.707 66.9065 198.571C68.8353 205.435 75.2089 211.684 78.1546 213.951C78.737 213.292 79.5756 211.531 78.2715 209.76C76.6414 207.545 74.7503 191.55 74.2181 188.891Z" fill="url(#paint15_linear_21_15621)"/>
<path fill-rule="evenodd" clip-rule="evenodd" d="M77.7068 213.596C72.5322 203.889 69.1053 188.901 67.5844 179.99C67.6087 179.908 67.6327 179.828 67.6565 179.751C69.6663 181.912 73.7924 186.764 74.2181 188.891C74.3511 189.556 74.5691 191.054 74.8467 192.962C75.6795 198.686 77.0489 208.099 78.2715 209.76C79.5756 211.531 78.737 213.292 78.1546 213.951C78.0129 213.842 77.8634 213.723 77.7068 213.596Z" fill="url(#paint16_linear_21_15621)"/>
<path d="M73.846 249.256C75.7659 248.867 83.1635 249.702 86.6224 250.168L87.1086 248.515C85.8328 247.737 82.3204 245.571 78.4766 243.125C74.6329 240.68 67.7357 243.219 64.7676 244.794C66.9937 246.443 71.9261 249.645 73.846 249.256Z" fill="url(#paint17_linear_21_15621)"/>
<path d="M143.148 28.3477C144.903 26.0245 155.428 22.8527 160.472 21.5571L155.807 33.4502C154.589 35.0635 151.135 38.8958 147.07 41.3185C143.004 43.7412 137.327 48.2746 135.729 50.2779L134.752 49.5538C135.759 41.4933 140.954 31.2517 143.148 28.3477Z" fill="url(#paint18_linear_21_15621)"/>
<path fill-rule="evenodd" clip-rule="evenodd" d="M135.889 49.3912C138.543 43.3845 151.906 29.4681 159.961 21.6896C160.136 21.6435 160.306 21.5994 160.47 21.5572L155.806 33.4503C154.587 35.0636 151.134 38.8959 147.068 41.3186C143.003 43.7412 137.367 48.5566 135.769 50.56L135.889 49.3912Z" fill="url(#paint19_linear_21_15621)"/>
<g filter="url(#filter0_d_21_15621)">
<path d="M128.162 59.77C128.877 59.0922 135.649 52.7363 147.559 51.2441C146.938 53.6358 143.046 59.6262 140.056 63.0469C137.065 66.4677 125.422 70.237 119.023 71.8699C122.949 66.5595 127.447 60.4478 128.162 59.77Z" fill="url(#paint20_linear_21_15621)"/>
<path fill-rule="evenodd" clip-rule="evenodd" d="M147.408 51.7259C147.47 51.5526 147.52 51.3915 147.559 51.2441C135.649 52.7362 128.877 59.0921 128.162 59.7699C127.505 60.3922 123.661 65.5941 119.997 70.5514C119.67 70.994 119.344 71.4346 119.023 71.8699C119.505 71.7468 120.017 71.6115 120.553 71.4652C128.96 66.3358 140.715 57.1891 147.408 51.7259Z" fill="url(#paint21_linear_21_15621)"/>
</g>
<path fill-rule="evenodd" clip-rule="evenodd" d="M107.255 63.4983C107.388 64.6038 107.466 65.9129 107.391 67.2755C107.192 70.9024 102.753 100.324 101.372 102.824C101.281 102.989 101.192 103.125 101.104 103.234C100.775 102.653 100.449 101.286 100.08 99.7349C99.8511 98.7734 99.6055 97.7415 99.3317 96.7828C99.4317 91.7325 99.7345 89.1652 99.9941 86.9641C100.232 84.95 100.433 83.2425 100.41 80.2196C100.821 75.1598 102.808 71.5803 105.304 67.0818C105.928 65.9572 106.584 64.7752 107.255 63.4983Z" fill="url(#paint22_linear_21_15621)"/>
<path fill-rule="evenodd" clip-rule="evenodd" d="M97.2596 108.961C94.7528 103.885 92.8777 96.9293 93.255 88.0054C93.6681 78.236 93.5838 72.7554 93.3316 69.8709C93.4123 69.6141 93.4884 69.3596 93.5593 69.1071C95.095 71.6708 98.2321 77.4509 98.4957 80.0618C98.6011 81.1061 98.3706 83.3182 98.0779 86.1264C97.456 92.0947 96.5534 100.755 97.9993 106.618L97.2596 108.961Z" fill="url(#paint23_linear_21_15621)"/>
<path fill-rule="evenodd" clip-rule="evenodd" d="M121.635 89.7451C118.607 91.6701 116.247 92.7838 114.177 93.7602C109.919 95.7693 106.894 97.1966 101.822 103.912L99.2254 110.041C99.3198 110.029 99.4215 110.016 99.5299 110C107.7 105.27 117.156 95.1675 121.635 89.7451Z" fill="url(#paint24_linear_21_15621)"/>
<g filter="url(#filter1_d_21_15621)">
<path d="M95.5741 115.89C96.3882 116.158 96.366 115.902 98.7076 116.45C107.221 118.444 118.343 111.444 122.902 104.937L114.56 104.544C101.866 104.398 96.7082 111.698 95.5741 115.89Z" fill="url(#paint25_linear_21_15621)"/>
<path fill-rule="evenodd" clip-rule="evenodd" d="M122.694 105.228C122.764 105.131 122.834 105.034 122.902 104.937L114.561 104.544C101.866 104.398 96.7081 111.698 95.574 115.89C95.6045 115.9 95.6338 115.909 95.6621 115.918C101.249 111.711 115.236 107.247 122.694 105.228Z" fill="url(#paint26_linear_21_15621)"/>
</g>
<g filter="url(#filter2_d_21_15621)">
<path d="M82.0718 122.997C80.7677 121.225 71.3712 111.713 66.8359 107.179C66.3719 126.965 75.2078 132.757 77.0021 136.099C81.2808 141.534 84.3379 146.232 85.4376 147.131L85.9611 142.738C85.208 136.896 83.3759 124.768 82.0718 122.997Z" fill="url(#paint27_linear_21_15621)"/>
<path fill-rule="evenodd" clip-rule="evenodd" d="M66.8315 107.487C66.5369 123.222 72.1565 130.014 75.288 133.799C76.045 134.714 76.6567 135.453 77.0042 136.1C78.9549 138.578 80.6517 140.903 82.0248 142.784C83.4185 144.693 84.4787 146.146 85.1327 146.838C84.3787 137.245 73.5041 118.03 66.8315 107.487Z" fill="url(#paint28_linear_21_15621)"/>
</g>
<path fill-rule="evenodd" clip-rule="evenodd" d="M78.7237 174.538C74.6017 164.541 65.2543 144.785 59.3958 132.639C63.8839 138.071 73.0294 149.313 74.1341 151.334C75.5205 153.871 78.8765 169.946 78.8391 172.686C78.8309 173.29 78.7874 173.92 78.7237 174.538Z" fill="url(#paint29_linear_21_15621)"/>
<g filter="url(#filter3_d_21_15621)">
<path d="M80.2576 168.452C80.8327 159.619 85.4463 152.838 87.6812 150.552L87.9721 155.548C91.9589 168.567 83.9057 179.543 79.3808 183.403C79.4334 182.101 79.6825 177.286 80.2576 168.452Z" fill="url(#paint30_linear_21_15621)"/>
<path fill-rule="evenodd" clip-rule="evenodd" d="M87.6243 150.611C85.2635 155.226 83.093 163.73 82.6289 178.766C81.4631 180.498 80.4497 181.982 79.5706 183.24C79.5067 183.296 79.4434 183.351 79.3808 183.404C79.4335 182.101 79.6826 177.287 80.2577 168.453C80.8279 159.694 85.3689 152.953 87.6243 150.611Z" fill="url(#paint31_linear_21_15621)"/>
</g>
<path fill-rule="evenodd" clip-rule="evenodd" d="M78.5928 180.367C75.6855 171.657 64.103 159.526 57.647 153.605C62.03 166.119 65.3599 168.221 68.3052 170.079C69.696 170.956 71.0011 171.78 72.2907 173.62C75.1973 177.768 77.7474 179.896 78.5928 180.367Z" fill="url(#paint32_linear_21_15621)"/>
<path d="M135.729 49.2707C129.905 55.5237 114.628 74.6506 103.035 97.2628C94.7152 113.493 90.9204 119.488 82.7578 150.68C80.8275 158.057 77.0777 176.968 77.5212 193.602C76.8695 204.107 78.6421 231.874 90.9461 258.907C94.4546 266.707 103.199 283.989 110.107 290.718" stroke="#FADA81" stroke-width="0.844684"/>
<g filter="url(#filter4_d_21_15621)">
<path d="M81.6318 195.894C83.8225 190.723 83.994 186.824 84.6709 185.816C88.6299 196.047 89.4965 205.999 89.7837 207.973C90.0135 209.552 84.603 218.98 81.869 223.497L78.6325 205.246C79.886 198.878 79.0354 202.022 81.6318 195.894Z" fill="url(#paint33_linear_21_15621)"/>
<path fill-rule="evenodd" clip-rule="evenodd" d="M85.0789 186.898C84.9467 186.538 84.8107 186.177 84.6709 185.816C84.4022 186.216 84.2132 187.072 83.9459 188.282C83.5397 190.12 82.953 192.775 81.6318 195.894C80.3207 198.988 79.8886 199.718 79.6206 200.503C79.3579 201.272 79.253 202.094 78.6325 205.246L81.7927 223.066C85.2297 215.108 85.4692 196.992 85.0789 186.898Z" fill="url(#paint34_linear_21_15621)"/>
</g>
<g filter="url(#filter5_d_21_15621)">
<path d="M66.8688 198.289C64.0646 194.198 57.2864 192.028 54.2479 191.454C53.273 192.745 57.8687 202.356 60.2884 207.001C61.2927 207.577 64.1727 209.326 67.6583 211.707C71.1439 214.088 76.4088 214.249 78.6056 214.031C75.8617 210.488 69.673 202.38 66.8688 198.289Z" fill="url(#paint35_linear_21_15621)"/>
<path fill-rule="evenodd" clip-rule="evenodd" d="M77.0829 214.101C77.6766 214.099 78.1948 214.072 78.6056 214.031C75.8618 210.488 69.673 202.38 66.8688 198.289C64.0646 194.198 57.2864 192.028 54.2479 191.454C54.2211 191.489 54.1986 191.531 54.1801 191.579C56.5048 196.061 62.92 203.932 77.0829 214.101Z" fill="url(#paint36_linear_21_15621)"/>
</g>
<g filter="url(#filter6_d_21_15621)">
<path d="M82.0889 236.996C78.278 234.777 66.8554 234.181 61.6204 234.16C68.427 243.984 69.5225 241.525 74.8569 245.226C79.1244 248.186 83.9308 245.994 85.8006 244.527C86.1513 242.942 85.8999 239.216 82.0889 236.996Z" fill="url(#paint37_linear_21_15621)"/>
<path fill-rule="evenodd" clip-rule="evenodd" d="M85.8763 244.065C75.1512 237.456 66.3551 234.912 61.6745 234.238C66.3701 241 68.336 241.888 70.8832 243.038C72.002 243.543 73.233 244.099 74.8566 245.225C75.2136 245.473 75.5744 245.685 75.9369 245.864C76.8034 246.128 77.6562 246.384 78.4892 246.629C81.5839 247.016 84.4536 245.583 85.8002 244.527C85.8308 244.389 85.8568 244.234 85.8763 244.065Z" fill="url(#paint38_linear_21_15621)"/>
</g>
<path d="M367.153 224.349C366.372 224.928 361.606 235.84 359.321 241.224L357.971 247.508C362.328 244.532 371.458 237.716 373.122 234.269C374.786 230.822 374.723 222.598 374.484 218.918L367.153 224.349Z" fill="url(#paint39_linear_21_15621)"/>
<path d="M343.652 80.2201C343.69 75.1589 340.084 69.779 336.675 63.2472C335.633 63.2137 331.458 70.1313 338.549 94.3177L341.835 101.696C342.887 106.452 343.545 100.932 344.73 96.7833C344.538 87.1119 343.603 86.5466 343.652 80.2201Z" fill="url(#paint40_linear_21_15621)"/>
<path d="M318.36 68.2625C316.733 67.4546 309.821 64.0211 299.447 63.4042L299.447 63.4043C300.422 64.6951 303.224 68.4057 313.225 74.5829C314.771 74.9474 322.257 75.44 326.042 74.3968C326.887 74.9781 325.948 73.7117 325.677 72.9054C323.105 69.2756 319.986 69.0704 318.36 68.2625Z" fill="url(#paint41_linear_21_15621)"/>
<path fill-rule="evenodd" clip-rule="evenodd" d="M361.559 150.942C351.248 107.082 326.97 70.219 308.323 48.9206L307.508 49.524C325.874 70.5008 348.219 108.412 358.389 151.673C368.55 194.891 365.578 244.076 331.552 289.311L334.162 291.237C368.893 245.065 371.881 194.846 361.559 150.942Z" fill="url(#paint42_linear_21_15621)"/>
<path d="M318.212 56.2943L322.06 36.8356L324.619 40.2236C329.776 48.7324 326.717 54.7732 327.848 61.9877C328.752 67.7593 326.669 72.0873 325.556 72.7442L321.658 66.5741L318.212 56.2943Z" fill="url(#paint43_linear_21_15621)"/>
<path fill-rule="evenodd" clip-rule="evenodd" d="M321.994 37.1737C322.989 45.8701 324.063 56.3324 323.334 59.0409C322.672 61.5053 323.812 67.1128 325.164 72.1241L325.556 72.7442C326.669 72.0873 328.752 67.7593 327.848 61.9877C327.466 59.5526 327.562 57.2513 327.658 54.9436C327.846 50.4142 328.036 45.8604 324.619 40.2236L322.06 36.8356L321.994 37.1737Z" fill="url(#paint44_linear_21_15621)"/>
<path d="M346.841 166.177C345.737 164.177 342.194 151.504 340.56 145.417L342.513 145.983C354.096 156.273 354.94 164.454 357.373 170.703C359.807 176.952 368.624 186.271 363.826 184.291C359.027 182.31 348.222 168.677 346.841 166.177Z" fill="url(#paint45_linear_21_15621)"/>
<path fill-rule="evenodd" clip-rule="evenodd" d="M340.791 146.273C344.845 152.632 350.536 162.071 352.738 167.595C354.798 172.763 359.594 179.586 363.487 184.136C363.603 184.194 363.716 184.245 363.826 184.291C366.611 185.44 364.809 182.782 362.33 179.127C360.539 176.486 358.394 173.324 357.373 170.703C356.934 169.574 356.546 168.381 356.137 167.124C354.284 161.428 352.002 154.413 342.513 145.983L340.56 145.417C340.634 145.69 340.711 145.976 340.791 146.273Z" fill="url(#paint46_linear_21_15621)"/>
<path d="M355.156 120.007C356.105 115.882 359.524 108.3 361.115 105.024C363.306 109.943 362.082 112.359 363.986 119.252C365.509 124.767 360.374 134.091 357.616 138.063C356.401 133.764 354.207 124.133 355.156 120.007Z" fill="url(#paint47_linear_21_15621)"/>
<path fill-rule="evenodd" clip-rule="evenodd" d="M355.256 119.594C355.22 119.735 355.187 119.873 355.156 120.008C354.207 124.133 356.4 133.764 357.616 138.063C358.593 136.656 359.868 134.578 361.04 132.234C359.82 127.382 357.326 122.748 355.256 119.594Z" fill="url(#paint48_linear_21_15621)"/>
<path d="M345.564 80.0616C345.827 77.4507 348.964 71.6706 350.5 69.1069C351.904 74.1054 355.329 79.8719 355.684 88.4152C355.831 91.9472 350.321 104.299 347.154 110.084L346.06 106.618C348.186 97.9967 345.234 83.3253 345.564 80.0616Z" fill="url(#paint49_linear_21_15621)"/>
<path d="M332.026 105.19C326.693 101.896 323.361 93.494 322.362 89.7049C331.672 95.6397 334.685 93.9105 342.24 103.913L344.837 110.041C342.789 109.797 337.36 108.485 332.026 105.19Z" fill="url(#paint50_linear_21_15621)"/>
<path d="M366.076 172.809C369.311 162.562 381.03 155.271 386.484 153.411C379.992 172.06 375.806 167.864 371.771 173.622C368.543 178.228 365.755 180.344 365.253 180.464L366.076 172.809Z" fill="url(#paint51_linear_21_15621)"/>
<path d="M369.929 151.335C371.038 149.306 380.252 137.983 384.72 132.575C382.548 145.507 380.177 154.813 376.795 159.08C374.089 162.494 368.464 173.389 365.99 178.41C365.747 177.416 365.253 174.879 365.224 172.687C365.186 169.947 368.542 153.872 369.929 151.335Z" fill="url(#paint52_linear_21_15621)"/>
<path d="M346.89 192.813C352.937 198.397 358.506 209.201 360.535 213.904L361.092 224.06C357.381 219.932 349.651 210.796 348.418 207.281C347.186 203.766 346.886 196.171 346.89 192.813Z" fill="url(#paint53_linear_21_15621)"/>
<path d="M369.843 188.892C370.269 186.765 374.395 181.913 376.404 179.753C377.458 183.166 379.083 191.708 377.154 198.572C375.226 205.436 368.852 211.685 365.906 213.952C365.324 213.293 364.485 211.532 365.789 209.761C367.42 207.547 369.311 191.551 369.843 188.892Z" fill="url(#paint54_linear_21_15621)"/>
<path fill-rule="evenodd" clip-rule="evenodd" d="M366.354 213.598C371.528 203.89 374.955 188.902 376.476 179.991C376.452 179.909 376.428 179.829 376.404 179.753C374.395 181.913 370.269 186.765 369.843 188.892C369.71 189.557 369.492 191.055 369.214 192.963C368.381 198.687 367.012 208.1 365.789 209.761C364.485 211.532 365.324 213.293 365.906 213.952C366.048 213.843 366.197 213.725 366.354 213.598Z" fill="url(#paint55_linear_21_15621)"/>
<path d="M370.215 249.256C368.295 248.867 360.897 249.702 357.438 250.168L356.952 248.515C358.228 247.737 361.74 245.571 365.584 243.125C369.428 240.68 376.325 243.219 379.293 244.794C377.067 246.443 372.135 249.645 370.215 249.256Z" fill="url(#paint56_linear_21_15621)"/>
<path d="M300.912 28.3477C299.157 26.0246 288.631 22.8527 283.588 21.5571L288.252 33.4502C289.471 35.0636 292.924 38.8959 296.99 41.3185C301.056 43.7412 306.732 48.2747 308.33 50.278L309.308 49.5538C308.3 41.4933 303.105 31.2517 300.912 28.3477Z" fill="url(#paint57_linear_21_15621)"/>
<path fill-rule="evenodd" clip-rule="evenodd" d="M308.17 49.3912C305.516 43.3845 292.153 29.4681 284.098 21.6896C283.923 21.6435 283.753 21.5994 283.589 21.5572L288.253 33.4503C289.471 35.0636 292.925 38.8959 296.991 41.3186C301.056 43.7412 306.692 48.5566 308.29 50.56L308.17 49.3912Z" fill="url(#paint58_linear_21_15621)"/>
<g filter="url(#filter7_d_21_15621)">
<path d="M315.899 59.7699C315.184 59.092 308.412 52.7362 296.502 51.244C297.123 53.6357 301.015 59.6261 304.005 63.0468C306.995 66.4676 318.639 70.2368 325.038 71.8698C321.112 66.5594 316.614 60.4477 315.899 59.7699Z" fill="url(#paint59_linear_21_15621)"/>
<path fill-rule="evenodd" clip-rule="evenodd" d="M296.653 51.7257C296.591 51.5524 296.54 51.3913 296.502 51.244C308.412 52.7361 315.184 59.092 315.899 59.7698C316.555 60.3921 320.4 65.594 324.064 70.5512C324.391 70.9939 324.716 71.4345 325.038 71.8698C324.556 71.7467 324.044 71.6115 323.508 71.4653C315.101 66.3359 303.346 57.1889 296.653 51.7257Z" fill="url(#paint60_linear_21_15621)"/>
</g>
<path fill-rule="evenodd" clip-rule="evenodd" d="M336.807 63.5009C336.674 64.6061 336.597 65.9149 336.672 67.2771C336.871 70.9041 341.31 100.326 342.69 102.826C342.781 102.99 342.87 103.125 342.957 103.234C343.287 102.653 343.612 101.286 343.981 99.7353C344.21 98.7739 344.456 97.7419 344.73 96.7832C344.63 91.7329 344.327 89.1657 344.067 86.9645C343.83 84.9505 343.628 83.2429 343.651 80.22C343.24 75.1602 341.254 71.5807 338.757 67.0823C338.134 65.9583 337.478 64.777 336.807 63.5009Z" fill="url(#paint61_linear_21_15621)"/>
<path fill-rule="evenodd" clip-rule="evenodd" d="M346.799 108.959C349.305 103.883 351.18 96.9279 350.803 88.0053C350.389 78.2311 350.474 72.7499 350.726 69.8665C350.646 69.6112 350.571 69.3581 350.5 69.1069C348.964 71.6706 345.827 77.4507 345.564 80.0616C345.458 81.1059 345.689 83.318 345.982 86.1262C346.603 92.0945 347.506 100.755 346.06 106.618L346.799 108.959Z" fill="url(#paint62_linear_21_15621)"/>
<path fill-rule="evenodd" clip-rule="evenodd" d="M322.43 89.7482C325.458 91.6725 327.818 92.7861 329.887 93.7623C334.145 95.7714 337.17 97.1987 342.242 103.914L344.839 110.043C344.745 110.032 344.645 110.018 344.538 110.003C336.368 105.275 326.912 95.1725 322.43 89.7482Z" fill="url(#paint63_linear_21_15621)"/>
<g filter="url(#filter8_d_21_15621)">
<path d="M348.491 115.888C347.677 116.156 347.699 115.9 345.358 116.449C336.844 118.442 325.722 111.443 321.163 104.935L329.505 104.542C342.199 104.396 347.357 111.696 348.491 115.888Z" fill="url(#paint64_linear_21_15621)"/>
<path fill-rule="evenodd" clip-rule="evenodd" d="M321.37 105.225C321.3 105.128 321.231 105.032 321.163 104.935L329.505 104.542C342.199 104.396 347.357 111.696 348.491 115.888C348.461 115.898 348.432 115.908 348.404 115.916C342.818 111.709 328.829 107.244 321.37 105.225Z" fill="url(#paint65_linear_21_15621)"/>
</g>
<g filter="url(#filter9_d_21_15621)">
<path d="M361.99 122.997C363.294 121.226 372.691 111.713 377.226 107.179C377.69 126.965 368.854 132.757 367.06 136.099C362.781 141.534 359.724 146.232 358.624 147.131L358.101 142.738C358.854 136.896 360.686 124.768 361.99 122.997Z" fill="url(#paint66_linear_21_15621)"/>
<path fill-rule="evenodd" clip-rule="evenodd" d="M377.231 107.489C377.524 123.221 371.905 130.012 368.774 133.797C368.017 134.712 367.406 135.451 367.058 136.098C365.107 138.576 363.41 140.901 362.037 142.782C360.645 144.69 359.585 146.142 358.931 146.835C359.687 137.241 370.559 118.031 377.231 107.489Z" fill="url(#paint67_linear_21_15621)"/>
</g>
<path fill-rule="evenodd" clip-rule="evenodd" d="M365.34 174.539C369.463 164.542 378.81 144.786 384.668 132.64C380.18 138.073 371.035 149.314 369.93 151.336C368.544 153.873 365.188 169.947 365.225 172.687C365.233 173.291 365.277 173.922 365.34 174.539Z" fill="url(#paint68_linear_21_15621)"/>
<g filter="url(#filter10_d_21_15621)">
<path d="M363.805 168.452C363.229 159.619 358.616 152.838 356.381 150.552L356.09 155.548C352.103 168.567 360.156 179.543 364.681 183.404C364.629 182.101 364.38 177.286 363.805 168.452Z" fill="url(#paint69_linear_21_15621)"/>
<path fill-rule="evenodd" clip-rule="evenodd" d="M356.437 150.611C358.797 155.226 360.968 163.73 361.432 178.766C362.598 180.498 363.611 181.982 364.49 183.24C364.554 183.296 364.617 183.35 364.68 183.404C364.627 182.101 364.378 177.286 363.803 168.453C363.233 159.694 358.692 152.953 356.437 150.611Z" fill="url(#paint70_linear_21_15621)"/>
</g>
<path fill-rule="evenodd" clip-rule="evenodd" d="M365.469 180.368C368.377 171.658 379.959 159.526 386.415 153.606C382.032 166.12 378.702 168.221 375.757 170.08C374.366 170.957 373.061 171.781 371.771 173.621C368.865 177.769 366.314 179.897 365.469 180.368Z" fill="url(#paint71_linear_21_15621)"/>
<path d="M308.332 49.2707C314.156 55.5237 329.433 74.6506 341.025 97.2628C349.346 113.493 353.14 119.488 361.303 150.68C363.233 158.057 366.983 176.968 366.54 193.602C367.191 204.107 365.419 231.874 353.115 258.907C349.606 266.707 340.862 283.989 333.953 290.718" stroke="#FADA81" stroke-width="0.844684"/>
<g filter="url(#filter11_d_21_15621)">
<path d="M362.429 195.894C360.239 190.723 360.067 186.825 359.39 185.816C355.431 196.047 354.565 205.999 354.278 207.973C354.048 209.553 359.458 218.98 362.192 223.497L365.429 205.246C364.175 198.878 365.026 202.022 362.429 195.894Z" fill="url(#paint72_linear_21_15621)"/>
<path fill-rule="evenodd" clip-rule="evenodd" d="M358.981 186.902C359.114 186.541 359.25 186.179 359.39 185.816C359.659 186.216 359.848 187.072 360.115 188.282C360.522 190.12 361.108 192.776 362.429 195.894C363.741 198.989 364.173 199.719 364.441 200.503C364.703 201.273 364.808 202.094 365.429 205.246L362.268 223.067C358.831 215.111 358.591 196.997 358.981 186.902Z" fill="url(#paint73_linear_21_15621)"/>
</g>
<g filter="url(#filter12_d_21_15621)">
<path d="M377.193 198.289C379.998 194.198 386.776 192.028 389.814 191.454C390.789 192.744 386.193 202.356 383.774 207.001C382.769 207.577 379.889 209.325 376.404 211.707C372.918 214.088 367.653 214.248 365.457 214.031C368.2 210.488 374.389 202.38 377.193 198.289Z" fill="url(#paint74_linear_21_15621)"/>
<path fill-rule="evenodd" clip-rule="evenodd" d="M366.979 214.101C366.386 214.099 365.867 214.072 365.457 214.031C368.2 210.488 374.389 202.38 377.193 198.289C379.998 194.198 386.776 192.028 389.814 191.454C389.841 191.489 389.864 191.531 389.882 191.578C387.557 196.061 381.142 203.932 366.979 214.101Z" fill="url(#paint75_linear_21_15621)"/>
</g>
<g filter="url(#filter13_d_21_15621)">
<path d="M361.97 236.996C365.781 234.777 377.204 234.181 382.439 234.16C375.632 243.984 374.537 241.525 369.202 245.226C364.935 248.186 360.128 245.994 358.259 244.527C357.908 242.942 358.159 239.216 361.97 236.996Z" fill="url(#paint76_linear_21_15621)"/>
<path fill-rule="evenodd" clip-rule="evenodd" d="M358.184 244.065C368.909 237.456 377.705 234.911 382.386 234.238C377.69 241 375.724 241.888 373.177 243.038C372.058 243.543 370.827 244.099 369.204 245.225C368.847 245.473 368.486 245.684 368.124 245.863C367.257 246.128 366.404 246.384 365.571 246.629C362.476 247.016 359.607 245.583 358.26 244.527C358.229 244.389 358.203 244.234 358.184 244.065Z" fill="url(#paint77_linear_21_15621)"/>
</g>
<path d="M76.3333 170.025H111.013V251.125C89.3383 251.125 76.3333 235.948 76.3333 223.617V170.025Z" fill="url(#paint78_linear_21_15621)"/>
<path d="M76.3333 170.025H111.013V251.125C89.3383 251.125 76.3333 235.948 76.3333 223.617V170.025Z" stroke="url(#paint79_linear_21_15621)" stroke-width="2"/>
<path d="M367.261 170.025H332.581V251.125C354.256 251.125 367.261 235.948 367.261 223.617V170.025Z" fill="url(#paint80_linear_21_15621)"/>
<path d="M367.261 170.025H332.581V251.125C354.256 251.125 367.261 235.948 367.261 223.617V170.025Z" stroke="url(#paint81_linear_21_15621)" stroke-width="2"/>
<path d="M175.558 243.492H269.486V376.855L223.355 403.074C222.469 403.578 221.382 403.576 220.498 403.069L175.558 377.313V243.492Z" fill="#BB9986" stroke="url(#paint82_linear_21_15621)" stroke-width="2"/>
<path fill-rule="evenodd" clip-rule="evenodd" d="M168.815 243.492V374.248L129.787 351.572C128.9 351.056 128.353 350.107 128.353 349.08V243.492H168.815Z" fill="#8C685C" stroke="url(#paint83_linear_21_15621)" stroke-width="2"/>
<path fill-rule="evenodd" clip-rule="evenodd" d="M275.743 243.492V374.248L314.77 351.572C315.658 351.056 316.204 350.107 316.204 349.08V243.492H275.743Z" fill="#8C685C" stroke="url(#paint84_linear_21_15621)" stroke-width="2"/>
<path d="M312.833 300.262V345.583C310.745 345.742 306.475 347.491 306.089 353.216L279.597 368.482V316.482" stroke="url(#paint85_linear_21_15621)"/>
<path fill-rule="evenodd" clip-rule="evenodd" d="M179.892 325.546H178.929V372.702L179.331 372.769C180.75 373.003 181.963 373.342 183.003 374.264C184.047 375.189 184.976 376.755 185.686 379.57L185.737 379.768L221.67 399.968H222.761L223.03 399.888L258.821 379.768L258.871 379.57C259.582 376.755 260.511 375.189 261.555 374.264C262.595 373.342 263.808 373.003 265.227 372.769L265.629 372.702V325.546H264.666V371.898C263.336 372.145 262.047 372.548 260.913 373.553C259.697 374.63 258.717 376.347 257.988 379.14L222.633 399.014H221.924L186.57 379.14C185.84 376.347 184.861 374.63 183.645 373.553C182.511 372.548 181.222 372.145 179.892 371.898V325.546Z" fill="url(#paint86_linear_21_15621)"/>
<path d="M132.207 300.262V345.583C134.294 345.742 138.565 347.491 138.95 353.216L165.442 368.482V316.482" stroke="url(#paint87_linear_21_15621)"/>
<g filter="url(#filter14_d_21_15621)">
<path d="M213.734 77.0488L110.317 132.768C104.812 135.734 101.38 141.482 101.38 147.734L101.38 274.851C101.38 281.104 104.812 286.851 110.317 289.817L213.734 345.537C218.767 348.249 224.827 348.249 229.861 345.537L333.278 289.817C338.782 286.851 342.214 281.104 342.214 274.851L342.215 147.734C342.215 141.482 338.782 135.734 333.278 132.768L229.861 77.0488C224.827 74.3368 218.767 74.3368 213.734 77.0488Z" fill="url(#paint88_linear_21_15621)"/>
<path d="M213.62 98.0232L128.586 143.838C123.103 146.792 119.683 152.519 119.683 158.748L119.683 263.356C119.683 269.585 123.103 275.311 128.586 278.266L213.62 324.081C218.634 326.782 224.671 326.782 229.686 324.081L314.719 278.266C320.203 275.311 323.622 269.585 323.622 263.356L323.622 158.748C323.622 152.519 320.203 146.792 314.719 143.838L229.686 98.0232C224.671 95.3214 218.634 95.3214 213.62 98.0232Z" fill="url(#paint89_linear_21_15621)"/>
<g filter="url(#filter15_f_21_15621)">
<path d="M213.62 98.0232L128.586 143.838C123.103 146.792 119.683 152.519 119.683 158.748L119.683 263.356C119.683 269.585 123.103 275.311 128.586 278.266L213.62 324.081C218.634 326.782 224.671 326.782 229.686 324.081L314.719 278.266C320.203 275.311 323.622 269.585 323.622 263.356L323.622 158.748C323.622 152.519 320.203 146.792 314.719 143.838L229.686 98.0232C224.671 95.3214 218.634 95.3214 213.62 98.0232Z" stroke="url(#paint90_linear_21_15621)"/>
</g>
<g opacity="0.5">
<mask id="mask0_21_15621" style="mask-type:alpha" maskUnits="userSpaceOnUse" x="128" y="105" width="189" height="213">
<path d="M214.643 107.347L136.828 149.235C131.608 152.044 128.354 157.493 128.354 163.42L128.354 259.056C128.354 264.983 131.608 270.432 136.827 273.241L214.643 315.129C219.41 317.696 225.148 317.696 229.915 315.129L307.73 273.241C312.95 270.432 316.204 264.983 316.204 259.056L316.204 163.42C316.204 157.493 312.95 152.044 307.73 149.235L229.915 107.347C225.148 104.78 219.41 104.78 214.643 107.347Z" fill="#A6D3DE"/>
</mask>
<g mask="url(#mask0_21_15621)">
<path d="M214.643 107.347L136.828 149.235C131.608 152.044 128.354 157.493 128.354 163.42L128.354 259.056C128.354 264.983 131.608 270.432 136.827 273.241L214.643 315.129C219.41 317.696 225.148 317.696 229.915 315.129L307.73 273.241C312.95 270.432 316.204 264.983 316.204 259.056L316.204 163.42C316.204 157.493 312.95 152.044 307.73 149.235L229.915 107.347C225.148 104.78 219.41 104.78 214.643 107.347Z" fill="url(#paint91_radial_21_15621)"/>
<path opacity="0.5" d="M206.577 323.506L202.846 98.9591H241.712L237.981 323.506H206.577Z" fill="url(#paint92_linear_21_15621)"/>
<path opacity="0.5" d="M206.078 321.515L89.488 128.899L123.147 109.652L233.274 305.963L206.078 321.515Z" fill="url(#paint93_linear_21_15621)"/>
<path opacity="0.5" d="M202.839 305.963L312.966 109.652L346.624 128.899L230.035 321.515L202.839 305.963Z" fill="url(#paint94_linear_21_15621)"/>
<rect x="128.354" y="198.401" width="187.851" height="120.828" fill="url(#paint95_linear_21_15621)"/>
<g filter="url(#filter16_i_21_15621)">
<path d="M214.643 107.347L136.828 149.235C131.608 152.044 128.354 157.493 128.354 163.42L128.354 259.056C128.354 264.983 131.608 270.432 136.827 273.241L214.643 315.129C219.41 317.696 225.148 317.696 229.915 315.129L307.73 273.241C312.95 270.432 316.204 264.983 316.204 259.056L316.204 163.42C316.204 157.493 312.95 152.044 307.73 149.235L229.915 107.347C225.148 104.78 219.41 104.78 214.643 107.347Z" fill="#F5C4AF" fill-opacity="0.03"/>
</g>
</g>
</g>
</g>
<g filter="url(#filter17_i_21_15621)">
<path d="M183.016 197.013C183.016 198.733 182.543 200.281 181.597 201.657C180.679 203.033 179.332 204.137 177.555 204.968C175.777 205.799 173.642 206.244 171.148 206.301V209.741H168.482V206.215C165.156 205.9 162.462 204.896 160.398 203.205C158.334 201.514 157.201 199.192 157.001 196.239H167.149C167.235 197.414 167.679 198.217 168.482 198.647V194.433C165.988 193.745 164.01 193.114 162.548 192.541C161.114 191.968 159.81 191.022 158.635 189.703C157.488 188.384 156.915 186.593 156.915 184.328C156.915 182.465 157.431 180.859 158.463 179.512C159.495 178.136 160.885 177.075 162.634 176.33C164.382 175.585 166.332 175.169 168.482 175.083V171.6H171.148V175.083C174.559 175.312 177.254 176.273 179.232 177.964C181.21 179.627 182.299 181.934 182.5 184.887H172.223C172.108 183.798 171.75 183.067 171.148 182.694V186.865C172.151 187.152 172.624 187.295 172.567 187.295C174.717 187.954 176.48 188.614 177.856 189.273C179.26 189.904 180.464 190.85 181.468 192.111C182.5 193.372 183.016 195.006 183.016 197.013ZM167.149 183.898C167.149 184.643 167.593 185.274 168.482 185.79V182.35C167.593 182.522 167.149 183.038 167.149 183.898ZM171.148 199.034C172.266 198.805 172.825 198.203 172.825 197.228C172.825 196.483 172.266 195.852 171.148 195.336V199.034ZM205.377 181.576L195.573 206H185.769L195.659 182.737H184.565V174.567H205.377V181.576ZM230.477 182.952H218.007V186.564C218.552 186.077 219.254 185.69 220.114 185.403C221.003 185.116 221.992 184.973 223.081 184.973C225.031 184.973 226.679 185.432 228.026 186.349C229.374 187.266 230.377 188.499 231.036 190.047C231.696 191.566 232.025 193.258 232.025 195.121C232.025 198.561 231.051 201.241 229.101 203.162C227.181 205.054 224.529 206 221.146 206C218.681 206 216.545 205.57 214.739 204.71C212.962 203.85 211.6 202.66 210.654 201.141C209.737 199.622 209.307 197.887 209.364 195.938H218.652C218.652 196.397 218.81 196.827 219.125 197.228C219.441 197.629 219.957 197.83 220.673 197.83C221.39 197.83 221.92 197.572 222.264 197.056C222.608 196.54 222.78 195.838 222.78 194.949C222.78 194.118 222.58 193.487 222.178 193.057C221.806 192.627 221.261 192.412 220.544 192.412C219.942 192.412 219.484 192.555 219.168 192.842C218.853 193.129 218.695 193.458 218.695 193.831H209.407V174.567H230.477V182.952ZM234.698 189.832C234.698 184.873 235.744 180.974 237.837 178.136C239.958 175.298 243.212 173.879 247.598 173.879C251.955 173.879 255.195 175.312 257.316 178.179C259.437 181.017 260.498 184.901 260.498 189.832C260.498 194.791 259.437 198.704 257.316 201.571C255.195 204.409 251.955 205.828 247.598 205.828C243.212 205.828 239.958 204.409 237.837 201.571C235.744 198.704 234.698 194.791 234.698 189.832ZM251.081 189.832C251.081 187.539 250.852 185.819 250.393 184.672C249.934 183.497 249.003 182.909 247.598 182.909C246.165 182.909 245.219 183.497 244.76 184.672C244.301 185.819 244.072 187.539 244.072 189.832C244.072 192.154 244.301 193.903 244.76 195.078C245.219 196.225 246.165 196.798 247.598 196.798C249.003 196.798 249.934 196.225 250.393 195.078C250.852 193.903 251.081 192.154 251.081 189.832ZM262.739 189.832C262.739 184.873 263.785 180.974 265.878 178.136C267.999 175.298 271.253 173.879 275.639 173.879C279.996 173.879 283.235 175.312 285.357 178.179C287.478 181.017 288.539 184.901 288.539 189.832C288.539 194.791 287.478 198.704 285.357 201.571C283.235 204.409 279.996 205.828 275.639 205.828C271.253 205.828 267.999 204.409 265.878 201.571C263.785 198.704 262.739 194.791 262.739 189.832ZM279.122 189.832C279.122 187.539 278.892 185.819 278.434 184.672C277.975 183.497 277.043 182.909 275.639 182.909C274.205 182.909 273.259 183.497 272.801 184.672C272.342 185.819 272.113 187.539 272.113 189.832C272.113 192.154 272.342 193.903 272.801 195.078C273.259 196.225 274.205 196.798 275.639 196.798C277.043 196.798 277.975 196.225 278.434 195.078C278.892 193.903 279.122 192.154 279.122 189.832ZM149.91 226.836C151.104 227.116 152.028 227.695 152.682 228.572C153.354 229.431 153.69 230.429 153.69 231.568C153.69 233.304 153.111 234.648 151.954 235.6C150.815 236.533 149.172 237 147.026 237H136.638V217.176H146.746C148.762 217.176 150.348 217.615 151.506 218.492C152.663 219.369 153.242 220.648 153.242 222.328C153.242 223.485 152.934 224.465 152.318 225.268C151.72 226.052 150.918 226.575 149.91 226.836ZM142.854 224.904H145.262C145.822 224.904 146.232 224.792 146.494 224.568C146.774 224.344 146.914 223.999 146.914 223.532C146.914 223.047 146.774 222.692 146.494 222.468C146.232 222.225 145.822 222.104 145.262 222.104H142.854V224.904ZM145.682 232.016C146.242 232.016 146.652 231.913 146.914 231.708C147.194 231.484 147.334 231.129 147.334 230.644C147.334 229.692 146.783 229.216 145.682 229.216H142.854V232.016H145.682ZM161.714 224.12C162.349 223.205 163.124 222.477 164.038 221.936C164.953 221.376 165.905 221.096 166.894 221.096V227.732H165.13C163.954 227.732 163.086 227.937 162.526 228.348C161.985 228.759 161.714 229.487 161.714 230.532V237H155.498V221.208H161.714V224.12ZM175.793 237.196C174.206 237.196 172.778 236.869 171.509 236.216C170.239 235.563 169.241 234.629 168.513 233.416C167.803 232.184 167.449 230.747 167.449 229.104C167.449 227.461 167.803 226.033 168.513 224.82C169.241 223.588 170.239 222.645 171.509 221.992C172.778 221.339 174.206 221.012 175.793 221.012C177.379 221.012 178.807 221.339 180.077 221.992C181.346 222.645 182.335 223.588 183.045 224.82C183.773 226.033 184.137 227.461 184.137 229.104C184.137 230.747 183.773 232.184 183.045 233.416C182.335 234.629 181.346 235.563 180.077 236.216C178.807 236.869 177.379 237.196 175.793 237.196ZM175.793 231.82C176.371 231.82 176.857 231.596 177.249 231.148C177.641 230.681 177.837 230 177.837 229.104C177.837 228.208 177.641 227.536 177.249 227.088C176.857 226.621 176.371 226.388 175.793 226.388C175.214 226.388 174.729 226.621 174.337 227.088C173.945 227.536 173.749 228.208 173.749 229.104C173.749 230 173.935 230.681 174.309 231.148C174.701 231.596 175.195 231.82 175.793 231.82ZM196.869 221.096C198.68 221.096 200.089 221.703 201.097 222.916C202.124 224.129 202.637 225.772 202.637 227.844V237H196.449V228.628C196.449 227.881 196.244 227.293 195.833 226.864C195.441 226.416 194.909 226.192 194.237 226.192C193.547 226.192 193.005 226.416 192.613 226.864C192.221 227.293 192.025 227.881 192.025 228.628V237H185.809V221.208H192.025V223.616C192.511 222.869 193.155 222.263 193.957 221.796C194.779 221.329 195.749 221.096 196.869 221.096ZM211.017 231.848H217.597V237H204.213V232.128L210.233 226.36H204.297V221.208H217.317V226.08L211.017 231.848ZM234.553 228.964C234.553 229.393 234.525 229.804 234.469 230.196H224.473C224.566 231.559 225.136 232.24 226.181 232.24C226.853 232.24 227.338 231.932 227.637 231.316H234.217C233.993 232.436 233.517 233.444 232.789 234.34C232.08 235.217 231.174 235.917 230.073 236.44C228.99 236.944 227.796 237.196 226.489 237.196C224.921 237.196 223.521 236.869 222.289 236.216C221.076 235.563 220.124 234.629 219.433 233.416C218.761 232.184 218.425 230.747 218.425 229.104C218.425 227.461 218.761 226.033 219.433 224.82C220.124 223.588 221.076 222.645 222.289 221.992C223.521 221.339 224.921 221.012 226.489 221.012C228.057 221.012 229.448 221.339 230.661 221.992C231.893 222.627 232.845 223.541 233.517 224.736C234.208 225.931 234.553 227.34 234.553 228.964ZM228.253 227.48C228.253 226.957 228.085 226.565 227.749 226.304C227.413 226.024 226.993 225.884 226.489 225.884C225.388 225.884 224.744 226.416 224.557 227.48H228.253ZM256.929 223.98C256.929 225.231 256.639 226.369 256.061 227.396C255.482 228.404 254.623 229.207 253.485 229.804C252.365 230.401 251.002 230.7 249.397 230.7H246.933V237H240.717V217.176H249.397C251.823 217.176 253.681 217.792 254.969 219.024C256.275 220.256 256.929 221.908 256.929 223.98ZM248.697 225.8C249.985 225.8 250.629 225.193 250.629 223.98C250.629 222.767 249.985 222.16 248.697 222.16H246.933V225.8H248.697ZM264.836 224.12C265.471 223.205 266.246 222.477 267.16 221.936C268.075 221.376 269.027 221.096 270.016 221.096V227.732H268.252C267.076 227.732 266.208 227.937 265.648 228.348C265.107 228.759 264.836 229.487 264.836 230.532V237H258.62V221.208H264.836V224.12ZM274.547 219.948C273.464 219.948 272.596 219.659 271.943 219.08C271.289 218.501 270.963 217.773 270.963 216.896C270.963 216 271.289 215.263 271.943 214.684C272.596 214.087 273.464 213.788 274.547 213.788C275.611 213.788 276.469 214.087 277.123 214.684C277.776 215.263 278.103 216 278.103 216.896C278.103 217.773 277.776 218.501 277.123 219.08C276.469 219.659 275.611 219.948 274.547 219.948ZM277.627 221.208V237H271.411V221.208H277.627ZM286.118 231.848H292.698V237H279.314V232.128L285.334 226.36H279.398V221.208H292.418V226.08L286.118 231.848ZM309.654 228.964C309.654 229.393 309.626 229.804 309.57 230.196H299.574C299.668 231.559 300.237 232.24 301.282 232.24C301.954 232.24 302.44 231.932 302.738 231.316H309.318C309.094 232.436 308.618 233.444 307.89 234.34C307.181 235.217 306.276 235.917 305.174 236.44C304.092 236.944 302.897 237.196 301.59 237.196C300.022 237.196 298.622 236.869 297.39 236.216C296.177 235.563 295.225 234.629 294.534 233.416C293.862 232.184 293.526 230.747 293.526 229.104C293.526 227.461 293.862 226.033 294.534 224.82C295.225 223.588 296.177 222.645 297.39 221.992C298.622 221.339 300.022 221.012 301.59 221.012C303.158 221.012 304.549 221.339 305.762 221.992C306.994 222.627 307.946 223.541 308.618 224.736C309.309 225.931 309.654 227.34 309.654 228.964ZM303.354 227.48C303.354 226.957 303.186 226.565 302.85 226.304C302.514 226.024 302.094 225.884 301.59 225.884C300.489 225.884 299.845 226.416 299.658 227.48H303.354ZM218.276 268L214.636 262.848L211.612 268H204.528L211.052 257.78L204.248 248.176H211.612L215.112 253.132L218.024 248.176H225.108L218.696 258.2L225.64 268H218.276ZM226.135 263.044C228.636 261.177 230.615 259.488 232.071 257.976C233.527 256.445 234.255 255.017 234.255 253.692C234.255 253.244 234.152 252.899 233.947 252.656C233.76 252.413 233.508 252.292 233.191 252.292C232.817 252.292 232.519 252.488 232.295 252.88C232.089 253.253 232.015 253.832 232.071 254.616H226.051C226.107 252.88 226.48 251.452 227.171 250.332C227.88 249.212 228.795 248.391 229.915 247.868C231.035 247.345 232.267 247.084 233.611 247.084C236 247.084 237.745 247.663 238.847 248.82C239.967 249.959 240.527 251.424 240.527 253.216C240.527 255.101 239.92 256.875 238.707 258.536C237.512 260.179 236.009 261.569 234.199 262.708H240.611V267.72H226.135V263.044Z" fill="url(#paint96_linear_21_15621)"/>
</g>
<defs>
<filter id="filter0_d_21_15621" x="117.907" y="51.2441" width="30.7674" height="23.9727" filterUnits="userSpaceOnUse" color-interpolation-filters="sRGB">
<feFlood flood-opacity="0" result="BackgroundImageFix"/>
<feColorMatrix in="SourceAlpha" type="matrix" values="0 0 0 0 0 0 0 0 0 0 0 0 0 0 0 0 0 0 127 0" result="hardAlpha"/>
<feOffset dy="2.23124"/>
<feGaussianBlur stdDeviation="0.557811"/>
<feColorMatrix type="matrix" values="0 0 0 0 0.541667 0 0 0 0 0.336104 0 0 0 0 0.0947917 0 0 0 0.25 0"/>
<feBlend mode="normal" in2="BackgroundImageFix" result="effect1_dropShadow_21_15621"/>
<feBlend mode="normal" in="SourceGraphic" in2="effect1_dropShadow_21_15621" result="shape"/>
</filter>
<filter id="filter1_d_21_15621" x="94.4584" y="104.542" width="29.5589" height="15.6013" filterUnits="userSpaceOnUse" color-interpolation-filters="sRGB">
<feFlood flood-opacity="0" result="BackgroundImageFix"/>
<feColorMatrix in="SourceAlpha" type="matrix" values="0 0 0 0 0 0 0 0 0 0 0 0 0 0 0 0 0 0 127 0" result="hardAlpha"/>
<feOffset dy="2.23124"/>
<feGaussianBlur stdDeviation="0.557811"/>
<feColorMatrix type="matrix" values="0 0 0 0 0.541667 0 0 0 0 0.336104 0 0 0 0 0.0947917 0 0 0 0.25 0"/>
<feBlend mode="normal" in2="BackgroundImageFix" result="effect1_dropShadow_21_15621"/>
<feBlend mode="normal" in="SourceGraphic" in2="effect1_dropShadow_21_15621" result="shape"/>
</filter>
<filter id="filter2_d_21_15621" x="66.8184" y="107.179" width="22.4897" height="43.2988" filterUnits="userSpaceOnUse" color-interpolation-filters="sRGB">
<feFlood flood-opacity="0" result="BackgroundImageFix"/>
<feColorMatrix in="SourceAlpha" type="matrix" values="0 0 0 0 0 0 0 0 0 0 0 0 0 0 0 0 0 0 127 0" result="hardAlpha"/>
<feOffset dx="2.23124" dy="2.23124"/>
<feGaussianBlur stdDeviation="0.557811"/>
<feColorMatrix type="matrix" values="0 0 0 0 0.541667 0 0 0 0 0.336104 0 0 0 0 0.0947917 0 0 0 0.25 0"/>
<feBlend mode="normal" in2="BackgroundImageFix" result="effect1_dropShadow_21_15621"/>
<feBlend mode="normal" in="SourceGraphic" in2="effect1_dropShadow_21_15621" result="shape"/>
</filter>
<filter id="filter3_d_21_15621" x="78.2652" y="150.552" width="11.8977" height="36.1989" filterUnits="userSpaceOnUse" color-interpolation-filters="sRGB">
<feFlood flood-opacity="0" result="BackgroundImageFix"/>
<feColorMatrix in="SourceAlpha" type="matrix" values="0 0 0 0 0 0 0 0 0 0 0 0 0 0 0 0 0 0 127 0" result="hardAlpha"/>
<feOffset dy="2.23124"/>
<feGaussianBlur stdDeviation="0.557811"/>
<feColorMatrix type="matrix" values="0 0 0 0 0.541667 0 0 0 0 0.336104 0 0 0 0 0.0947917 0 0 0 0.25 0"/>
<feBlend mode="normal" in2="BackgroundImageFix" result="effect1_dropShadow_21_15621"/>
<feBlend mode="normal" in="SourceGraphic" in2="effect1_dropShadow_21_15621" result="shape"/>
</filter>
<filter id="filter4_d_21_15621" x="77.5169" y="185.816" width="13.3894" height="41.0277" filterUnits="userSpaceOnUse" color-interpolation-filters="sRGB">
<feFlood flood-opacity="0" result="BackgroundImageFix"/>
<feColorMatrix in="SourceAlpha" type="matrix" values="0 0 0 0 0 0 0 0 0 0 0 0 0 0 0 0 0 0 127 0" result="hardAlpha"/>
<feOffset dy="2.23124"/>
<feGaussianBlur stdDeviation="0.557811"/>
<feColorMatrix type="matrix" values="0 0 0 0 0.541667 0 0 0 0 0.336104 0 0 0 0 0.0947917 0 0 0 0.25 0"/>
<feBlend mode="normal" in2="BackgroundImageFix" result="effect1_dropShadow_21_15621"/>
<feBlend mode="normal" in="SourceGraphic" in2="effect1_dropShadow_21_15621" result="shape"/>
</filter>
<filter id="filter5_d_21_15621" x="54.1143" y="191.454" width="27.8383" height="25.9944" filterUnits="userSpaceOnUse" color-interpolation-filters="sRGB">
<feFlood flood-opacity="0" result="BackgroundImageFix"/>
<feColorMatrix in="SourceAlpha" type="matrix" values="0 0 0 0 0 0 0 0 0 0 0 0 0 0 0 0 0 0 127 0" result="hardAlpha"/>
<feOffset dx="2.23124" dy="2.23124"/>
<feGaussianBlur stdDeviation="0.557811"/>
<feColorMatrix type="matrix" values="0 0 0 0 0.541667 0 0 0 0 0.336104 0 0 0 0 0.0947917 0 0 0 0.25 0"/>
<feBlend mode="normal" in2="BackgroundImageFix" result="effect1_dropShadow_21_15621"/>
<feBlend mode="normal" in="SourceGraphic" in2="effect1_dropShadow_21_15621" result="shape"/>
</filter>
<filter id="filter6_d_21_15621" x="60.5047" y="234.16" width="26.5259" height="15.8807" filterUnits="userSpaceOnUse" color-interpolation-filters="sRGB">
<feFlood flood-opacity="0" result="BackgroundImageFix"/>
<feColorMatrix in="SourceAlpha" type="matrix" values="0 0 0 0 0 0 0 0 0 0 0 0 0 0 0 0 0 0 127 0" result="hardAlpha"/>
<feOffset dy="2.23124"/>
<feGaussianBlur stdDeviation="0.557811"/>
<feColorMatrix type="matrix" values="0 0 0 0 0.541667 0 0 0 0 0.336104 0 0 0 0 0.0947917 0 0 0 0.25 0"/>
<feBlend mode="normal" in2="BackgroundImageFix" result="effect1_dropShadow_21_15621"/>
<feBlend mode="normal" in="SourceGraphic" in2="effect1_dropShadow_21_15621" result="shape"/>
</filter>
<filter id="filter7_d_21_15621" x="295.386" y="51.244" width="30.7674" height="23.9727" filterUnits="userSpaceOnUse" color-interpolation-filters="sRGB">
<feFlood flood-opacity="0" result="BackgroundImageFix"/>
<feColorMatrix in="SourceAlpha" type="matrix" values="0 0 0 0 0 0 0 0 0 0 0 0 0 0 0 0 0 0 127 0" result="hardAlpha"/>
<feOffset dy="2.23124"/>
<feGaussianBlur stdDeviation="0.557811"/>
<feColorMatrix type="matrix" values="0 0 0 0 0.541667 0 0 0 0 0.336104 0 0 0 0 0.0947917 0 0 0 0.25 0"/>
<feBlend mode="normal" in2="BackgroundImageFix" result="effect1_dropShadow_21_15621"/>
<feBlend mode="normal" in="SourceGraphic" in2="effect1_dropShadow_21_15621" result="shape"/>
</filter>
<filter id="filter8_d_21_15621" x="320.048" y="104.54" width="29.5589" height="15.601" filterUnits="userSpaceOnUse" color-interpolation-filters="sRGB">
<feFlood flood-opacity="0" result="BackgroundImageFix"/>
<feColorMatrix in="SourceAlpha" type="matrix" values="0 0 0 0 0 0 0 0 0 0 0 0 0 0 0 0 0 0 127 0" result="hardAlpha"/>
<feOffset dy="2.23124"/>
<feGaussianBlur stdDeviation="0.557811"/>
<feColorMatrix type="matrix" values="0 0 0 0 0.541667 0 0 0 0 0.336104 0 0 0 0 0.0947917 0 0 0 0.25 0"/>
<feBlend mode="normal" in2="BackgroundImageFix" result="effect1_dropShadow_21_15621"/>
<feBlend mode="normal" in="SourceGraphic" in2="effect1_dropShadow_21_15621" result="shape"/>
</filter>
<filter id="filter9_d_21_15621" x="358.101" y="107.179" width="22.4896" height="43.2988" filterUnits="userSpaceOnUse" color-interpolation-filters="sRGB">
<feFlood flood-opacity="0" result="BackgroundImageFix"/>
<feColorMatrix in="SourceAlpha" type="matrix" values="0 0 0 0 0 0 0 0 0 0 0 0 0 0 0 0 0 0 127 0" result="hardAlpha"/>
<feOffset dx="2.23124" dy="2.23124"/>
<feGaussianBlur stdDeviation="0.557811"/>
<feColorMatrix type="matrix" values="0 0 0 0 0.541667 0 0 0 0 0.336104 0 0 0 0 0.0947917 0 0 0 0.25 0"/>
<feBlend mode="normal" in2="BackgroundImageFix" result="effect1_dropShadow_21_15621"/>
<feBlend mode="normal" in="SourceGraphic" in2="effect1_dropShadow_21_15621" result="shape"/>
</filter>
<filter id="filter10_d_21_15621" x="353.899" y="150.552" width="11.898" height="36.1986" filterUnits="userSpaceOnUse" color-interpolation-filters="sRGB">
<feFlood flood-opacity="0" result="BackgroundImageFix"/>
<feColorMatrix in="SourceAlpha" type="matrix" values="0 0 0 0 0 0 0 0 0 0 0 0 0 0 0 0 0 0 127 0" result="hardAlpha"/>
<feOffset dy="2.23124"/>
<feGaussianBlur stdDeviation="0.557811"/>
<feColorMatrix type="matrix" values="0 0 0 0 0.541667 0 0 0 0 0.336104 0 0 0 0 0.0947917 0 0 0 0.25 0"/>
<feBlend mode="normal" in2="BackgroundImageFix" result="effect1_dropShadow_21_15621"/>
<feBlend mode="normal" in="SourceGraphic" in2="effect1_dropShadow_21_15621" result="shape"/>
</filter>
<filter id="filter11_d_21_15621" x="353.155" y="185.816" width="13.3896" height="41.0274" filterUnits="userSpaceOnUse" color-interpolation-filters="sRGB">
<feFlood flood-opacity="0" result="BackgroundImageFix"/>
<feColorMatrix in="SourceAlpha" type="matrix" values="0 0 0 0 0 0 0 0 0 0 0 0 0 0 0 0 0 0 127 0" result="hardAlpha"/>
<feOffset dy="2.23124"/>
<feGaussianBlur stdDeviation="0.557811"/>
<feColorMatrix type="matrix" values="0 0 0 0 0.541667 0 0 0 0 0.336104 0 0 0 0 0.0947917 0 0 0 0.25 0"/>
<feBlend mode="normal" in2="BackgroundImageFix" result="effect1_dropShadow_21_15621"/>
<feBlend mode="normal" in="SourceGraphic" in2="effect1_dropShadow_21_15621" result="shape"/>
</filter>
<filter id="filter12_d_21_15621" x="365.457" y="191.454" width="27.8383" height="25.9946" filterUnits="userSpaceOnUse" color-interpolation-filters="sRGB">
<feFlood flood-opacity="0" result="BackgroundImageFix"/>
<feColorMatrix in="SourceAlpha" type="matrix" values="0 0 0 0 0 0 0 0 0 0 0 0 0 0 0 0 0 0 127 0" result="hardAlpha"/>
<feOffset dx="2.23124" dy="2.23124"/>
<feGaussianBlur stdDeviation="0.557811"/>
<feColorMatrix type="matrix" values="0 0 0 0 0.541667 0 0 0 0 0.336104 0 0 0 0 0.0947917 0 0 0 0.25 0"/>
<feBlend mode="normal" in2="BackgroundImageFix" result="effect1_dropShadow_21_15621"/>
<feBlend mode="normal" in="SourceGraphic" in2="effect1_dropShadow_21_15621" result="shape"/>
</filter>
<filter id="filter13_d_21_15621" x="357.028" y="234.16" width="26.526" height="15.8807" filterUnits="userSpaceOnUse" color-interpolation-filters="sRGB">
<feFlood flood-opacity="0" result="BackgroundImageFix"/>
<feColorMatrix in="SourceAlpha" type="matrix" values="0 0 0 0 0 0 0 0 0 0 0 0 0 0 0 0 0 0 127 0" result="hardAlpha"/>
<feOffset dy="2.23124"/>
<feGaussianBlur stdDeviation="0.557811"/>
<feColorMatrix type="matrix" values="0 0 0 0 0.541667 0 0 0 0 0.336104 0 0 0 0 0.0947917 0 0 0 0.25 0"/>
<feBlend mode="normal" in2="BackgroundImageFix" result="effect1_dropShadow_21_15621"/>
<feBlend mode="normal" in="SourceGraphic" in2="effect1_dropShadow_21_15621" result="shape"/>
</filter>
<filter id="filter14_d_21_15621" x="95.38" y="75.0148" width="252.835" height="286.556" filterUnits="userSpaceOnUse" color-interpolation-filters="sRGB">
<feFlood flood-opacity="0" result="BackgroundImageFix"/>
<feColorMatrix in="SourceAlpha" type="matrix" values="0 0 0 0 0 0 0 0 0 0 0 0 0 0 0 0 0 0 127 0" result="hardAlpha"/>
<feOffset dy="8"/>
<feGaussianBlur stdDeviation="3"/>
<feColorMatrix type="matrix" values="0 0 0 0 0.491667 0 0 0 0 0.276808 0 0 0 0 0.208958 0 0 0 0.54 0"/>
<feBlend mode="normal" in2="BackgroundImageFix" result="effect1_dropShadow_21_15621"/>
<feBlend mode="normal" in="SourceGraphic" in2="effect1_dropShadow_21_15621" result="shape"/>
</filter>
<filter id="filter15_f_21_15621" x="118.583" y="94.8968" width="206.139" height="232.31" filterUnits="userSpaceOnUse" color-interpolation-filters="sRGB">
<feFlood flood-opacity="0" result="BackgroundImageFix"/>
<feBlend mode="normal" in="SourceGraphic" in2="BackgroundImageFix" result="shape"/>
<feGaussianBlur stdDeviation="0.3" result="effect1_foregroundBlur_21_15621"/>
</filter>
<filter id="filter16_i_21_15621" x="128.354" y="105.422" width="187.851" height="211.632" filterUnits="userSpaceOnUse" color-interpolation-filters="sRGB">
<feFlood flood-opacity="0" result="BackgroundImageFix"/>
<feBlend mode="normal" in="SourceGraphic" in2="BackgroundImageFix" result="shape"/>
<feColorMatrix in="SourceAlpha" type="matrix" values="0 0 0 0 0 0 0 0 0 0 0 0 0 0 0 0 0 0 127 0" result="hardAlpha"/>
<feOffset/>
<feGaussianBlur stdDeviation="6.72414"/>
<feComposite in2="hardAlpha" operator="arithmetic" k2="-1" k3="1"/>
<feColorMatrix type="matrix" values="0 0 0 0 0.283333 0 0 0 0 0.158667 0 0 0 0 0.0566667 0 0 0 1 0"/>
<feBlend mode="normal" in2="shape" result="effect1_innerShadow_21_15621"/>
</filter>
<filter id="filter17_i_21_15621" x="136.638" y="171.6" width="173.017" height="100.4" filterUnits="userSpaceOnUse" color-interpolation-filters="sRGB">
<feFlood flood-opacity="0" result="BackgroundImageFix"/>
<feBlend mode="normal" in="SourceGraphic" in2="BackgroundImageFix" result="shape"/>
<feColorMatrix in="SourceAlpha" type="matrix" values="0 0 0 0 0 0 0 0 0 0 0 0 0 0 0 0 0 0 127 0" result="hardAlpha"/>
<feOffset dy="4"/>
<feGaussianBlur stdDeviation="2"/>
<feComposite in2="hardAlpha" operator="arithmetic" k2="-1" k3="1"/>
<feColorMatrix type="matrix" values="0 0 0 0 0 0 0 0 0 0 0 0 0 0 0 0 0 0 0.25 0"/>
<feBlend mode="normal" in2="shape" result="effect1_innerShadow_21_15621"/>
</filter>
<linearGradient id="paint0_linear_21_15621" x1="81.794" y1="227.97" x2="73.9211" y2="238.595" gradientUnits="userSpaceOnUse">
<stop stop-color="#D2AB68"/>
<stop offset="1" stop-color="#B67D3F"/>
</linearGradient>
<linearGradient id="paint1_linear_21_15621" x1="115.22" y1="69.0171" x2="92.7734" y2="99.3104" gradientUnits="userSpaceOnUse">
<stop stop-color="#D2AB68"/>
<stop offset="1" stop-color="#B67D3F"/>
</linearGradient>
<linearGradient id="paint2_linear_21_15621" x1="138.555" y1="59.4178" x2="122.95" y2="80.4787" gradientUnits="userSpaceOnUse">
<stop stop-color="#D2AB68"/>
<stop offset="1" stop-color="#B67D3F"/>
</linearGradient>
<linearGradient id="paint3_linear_21_15621" x1="80.8811" y1="147.78" x2="89.2023" y2="151.252" gradientUnits="userSpaceOnUse">
<stop stop-color="#D2AB68"/>
<stop offset="1" stop-color="#B67D3F"/>
</linearGradient>
<linearGradient id="paint4_linear_21_15621" x1="133.885" y1="73.5718" x2="121.194" y2="47.821" gradientUnits="userSpaceOnUse">
<stop stop-color="#D2AB68"/>
<stop offset="1" stop-color="#B67D3F"/>
</linearGradient>
<linearGradient id="paint5_linear_21_15621" x1="124.322" y1="44.5249" x2="117.348" y2="71.7778" gradientUnits="userSpaceOnUse">
<stop stop-color="#F7E6B3"/>
<stop offset="1" stop-color="#F7E6B3" stop-opacity="0"/>
</linearGradient>
<linearGradient id="paint6_linear_21_15621" x1="105.651" y1="147.011" x2="78.2607" y2="183.977" gradientUnits="userSpaceOnUse">
<stop stop-color="#D2AB68"/>
<stop offset="1" stop-color="#B67D3F"/>
</linearGradient>
<linearGradient id="paint7_linear_21_15621" x1="99.4318" y1="151.279" x2="107.873" y2="174.412" gradientUnits="userSpaceOnUse">
<stop stop-color="#F7E6B3"/>
<stop offset="1" stop-color="#F7E6B3" stop-opacity="0"/>
</linearGradient>
<linearGradient id="paint8_linear_21_15621" x1="92.0665" y1="111.782" x2="77.5027" y2="131.438" gradientUnits="userSpaceOnUse">
<stop stop-color="#D2AB68"/>
<stop offset="1" stop-color="#B67D3F"/>
</linearGradient>
<linearGradient id="paint9_linear_21_15621" x1="89.3551" y1="123.108" x2="82.8264" y2="135.361" gradientUnits="userSpaceOnUse">
<stop stop-color="#C18E42"/>
<stop offset="1" stop-color="#D2AB68"/>
</linearGradient>
<linearGradient id="paint10_linear_21_15621" x1="104.554" y1="77.2539" x2="86.1391" y2="102.108" gradientUnits="userSpaceOnUse">
<stop stop-color="#D2AB68"/>
<stop offset="1" stop-color="#8E573C"/>
</linearGradient>
<linearGradient id="paint11_linear_21_15621" x1="119.305" y1="87.9307" x2="101.612" y2="111.81" gradientUnits="userSpaceOnUse">
<stop stop-color="#D2AB68"/>
<stop offset="1" stop-color="#B67D3F"/>
</linearGradient>
<linearGradient id="paint12_linear_21_15621" x1="71.477" y1="161.578" x2="64.9908" y2="170.332" gradientUnits="userSpaceOnUse">
<stop stop-color="#D2AB68"/>
<stop offset="1" stop-color="#B67D3F"/>
</linearGradient>
<linearGradient id="paint13_linear_21_15621" x1="76.4439" y1="145.248" x2="61.1579" y2="165.878" gradientUnits="userSpaceOnUse">
<stop stop-color="#C28766"/>
<stop offset="1" stop-color="#8E573C"/>
</linearGradient>
<linearGradient id="paint14_linear_21_15621" x1="100.233" y1="195.083" x2="80.2531" y2="222.048" gradientUnits="userSpaceOnUse">
<stop stop-color="#D2AB68"/>
<stop offset="1" stop-color="#B67D3F"/>
</linearGradient>
<linearGradient id="paint15_linear_21_15621" x1="79.306" y1="188.383" x2="66.668" y2="205.44" gradientUnits="userSpaceOnUse">
<stop stop-color="#D2AB68"/>
<stop offset="1" stop-color="#B67D3F"/>
</linearGradient>
<linearGradient id="paint16_linear_21_15621" x1="81.5562" y1="187.283" x2="66.6847" y2="207.353" gradientUnits="userSpaceOnUse">
<stop stop-color="#FADA81"/>
<stop offset="1" stop-color="#B67D3F"/>
</linearGradient>
<linearGradient id="paint17_linear_21_15621" x1="79.2899" y1="242.721" x2="73.1514" y2="251.006" gradientUnits="userSpaceOnUse">
<stop stop-color="#D2AB68"/>
<stop offset="1" stop-color="#B67D3F"/>
</linearGradient>
<linearGradient id="paint18_linear_21_15621" x1="157.947" y1="19.6864" x2="135.921" y2="49.4134" gradientUnits="userSpaceOnUse">
<stop stop-color="#FCF1D5"/>
<stop offset="1" stop-color="#EBCE6A"/>
</linearGradient>
<linearGradient id="paint19_linear_21_15621" x1="160.482" y1="21.5654" x2="138.455" y2="51.2925" gradientUnits="userSpaceOnUse">
<stop stop-color="#D2AB68"/>
<stop offset="1" stop-color="#B67D3F"/>
</linearGradient>
<linearGradient id="paint20_linear_21_15621" x1="144.362" y1="48.8753" x2="124.382" y2="75.8408" gradientUnits="userSpaceOnUse">
<stop stop-color="#D2AB68"/>
<stop offset="1" stop-color="#B67D3F"/>
</linearGradient>
<linearGradient id="paint21_linear_21_15621" x1="138.974" y1="51.358" x2="139.678" y2="77.1916" gradientUnits="userSpaceOnUse">
<stop stop-color="#F7E6B3"/>
<stop offset="1" stop-color="#F7E6B3" stop-opacity="0"/>
</linearGradient>
<linearGradient id="paint22_linear_21_15621" x1="109.195" y1="71.8016" x2="102.803" y2="102.832" gradientUnits="userSpaceOnUse">
<stop stop-color="#F7E6B3"/>
<stop offset="1" stop-color="#F7E6B3" stop-opacity="0"/>
</linearGradient>
<linearGradient id="paint23_linear_21_15621" x1="98.2308" y1="78.3214" x2="88.0273" y2="104.683" gradientUnits="userSpaceOnUse">
<stop stop-color="#F7E6B3"/>
<stop offset="1" stop-color="#F7E6B3" stop-opacity="0"/>
</linearGradient>
<linearGradient id="paint24_linear_21_15621" x1="115.033" y1="90.5731" x2="115.452" y2="108.149" gradientUnits="userSpaceOnUse">
<stop stop-color="#FFDD78"/>
<stop offset="1" stop-color="#FFF1C8" stop-opacity="0.38"/>
</linearGradient>
<linearGradient id="paint25_linear_21_15621" x1="116.584" y1="100.256" x2="101.057" y2="121.211" gradientUnits="userSpaceOnUse">
<stop stop-color="#D2AB68"/>
<stop offset="1" stop-color="#B67D3F"/>
</linearGradient>
<linearGradient id="paint26_linear_21_15621" x1="116.843" y1="99.9442" x2="97.9602" y2="119.212" gradientUnits="userSpaceOnUse">
<stop stop-color="#FFDA92"/>
<stop offset="1" stop-color="#DCBA84"/>
</linearGradient>
<linearGradient id="paint27_linear_21_15621" x1="72.5371" y1="111.403" x2="82.8513" y2="141.634" gradientUnits="userSpaceOnUse">
<stop stop-color="#F7E6B3"/>
<stop offset="1" stop-color="#BC8647"/>
</linearGradient>
<linearGradient id="paint28_linear_21_15621" x1="82.2274" y1="118.894" x2="69.8904" y2="135.544" gradientUnits="userSpaceOnUse">
<stop stop-color="#D2AB68"/>
<stop offset="1" stop-color="#8E573C"/>
</linearGradient>
<linearGradient id="paint29_linear_21_15621" x1="68.5714" y1="143.712" x2="58.1554" y2="162.652" gradientUnits="userSpaceOnUse">
<stop stop-color="#F7E6B3"/>
<stop offset="1" stop-color="#F7E6B3" stop-opacity="0"/>
</linearGradient>
<linearGradient id="paint30_linear_21_15621" x1="93.1446" y1="154.6" x2="74.4884" y2="179.779" gradientUnits="userSpaceOnUse">
<stop stop-color="#D2AB68"/>
<stop offset="1" stop-color="#B67D3F"/>
</linearGradient>
<linearGradient id="paint31_linear_21_15621" x1="87.7147" y1="150.176" x2="79.3481" y2="181.738" gradientUnits="userSpaceOnUse">
<stop stop-color="#E0C087"/>
<stop offset="0.28125" stop-color="#FFE49E"/>
<stop offset="1" stop-color="#753C1D"/>
</linearGradient>
<linearGradient id="paint32_linear_21_15621" x1="65.6364" y1="161.873" x2="58.6114" y2="168.85" gradientUnits="userSpaceOnUse">
<stop stop-color="#B18253"/>
<stop offset="1" stop-color="#F7E6B3" stop-opacity="0"/>
</linearGradient>
<linearGradient id="paint33_linear_21_15621" x1="92.8969" y1="191.911" x2="73.8796" y2="217.577" gradientUnits="userSpaceOnUse">
<stop stop-color="#D2AB68"/>
<stop offset="1" stop-color="#B67D3F"/>
</linearGradient>
<linearGradient id="paint34_linear_21_15621" x1="87.2866" y1="193.859" x2="79.6848" y2="221.794" gradientUnits="userSpaceOnUse">
<stop stop-color="#F7E6B3"/>
<stop offset="1" stop-color="#F7E6B3" stop-opacity="0"/>
</linearGradient>
<linearGradient id="paint35_linear_21_15621" x1="69.0774" y1="199.233" x2="62.2466" y2="208.452" gradientUnits="userSpaceOnUse">
<stop stop-color="#D2AB68"/>
<stop offset="1" stop-color="#B67D3F"/>
</linearGradient>
<linearGradient id="paint36_linear_21_15621" x1="66.298" y1="197.363" x2="71.958" y2="210.975" gradientUnits="userSpaceOnUse">
<stop stop-color="#FADA81"/>
<stop offset="1" stop-color="#9A5E33"/>
</linearGradient>
<linearGradient id="paint37_linear_21_15621" x1="77.8869" y1="233.815" x2="70.7208" y2="243.486" gradientUnits="userSpaceOnUse">
<stop stop-color="#FADA81"/>
<stop offset="1" stop-color="#B67D3F"/>
</linearGradient>
<linearGradient id="paint38_linear_21_15621" x1="78.2118" y1="238.064" x2="70.1062" y2="249.003" gradientUnits="userSpaceOnUse">
<stop stop-color="#D2AB68"/>
<stop offset="1" stop-color="#B67D3F"/>
</linearGradient>
<linearGradient id="paint39_linear_21_15621" x1="362.267" y1="227.97" x2="370.14" y2="238.595" gradientUnits="userSpaceOnUse">
<stop stop-color="#D2AB68"/>
<stop offset="1" stop-color="#B67D3F"/>
</linearGradient>
<linearGradient id="paint40_linear_21_15621" x1="328.841" y1="69.017" x2="351.287" y2="99.3104" gradientUnits="userSpaceOnUse">
<stop stop-color="#D2AB68"/>
<stop offset="1" stop-color="#B67D3F"/>
</linearGradient>
<linearGradient id="paint41_linear_21_15621" x1="305.506" y1="59.4177" x2="321.111" y2="80.4785" gradientUnits="userSpaceOnUse">
<stop stop-color="#D2AB68"/>
<stop offset="1" stop-color="#B67D3F"/>
</linearGradient>
<linearGradient id="paint42_linear_21_15621" x1="363.18" y1="147.781" x2="354.858" y2="151.253" gradientUnits="userSpaceOnUse">
<stop stop-color="#D2AB68"/>
<stop offset="1" stop-color="#B67D3F"/>
</linearGradient>
<linearGradient id="paint43_linear_21_15621" x1="310.176" y1="73.5719" x2="322.867" y2="47.8211" gradientUnits="userSpaceOnUse">
<stop stop-color="#D2AB68"/>
<stop offset="1" stop-color="#B67D3F"/>
</linearGradient>
<linearGradient id="paint44_linear_21_15621" x1="319.739" y1="44.5249" x2="326.713" y2="71.7779" gradientUnits="userSpaceOnUse">
<stop stop-color="#F7E6B3"/>
<stop offset="1" stop-color="#F7E6B3" stop-opacity="0"/>
</linearGradient>
<linearGradient id="paint45_linear_21_15621" x1="338.409" y1="147.011" x2="365.799" y2="183.977" gradientUnits="userSpaceOnUse">
<stop stop-color="#D2AB68"/>
<stop offset="1" stop-color="#B67D3F"/>
</linearGradient>
<linearGradient id="paint46_linear_21_15621" x1="344.627" y1="151.28" x2="336.187" y2="174.416" gradientUnits="userSpaceOnUse">
<stop stop-color="#F7E6B3"/>
<stop offset="1" stop-color="#F7E6B3" stop-opacity="0"/>
</linearGradient>
<linearGradient id="paint47_linear_21_15621" x1="351.993" y1="111.783" x2="366.557" y2="131.439" gradientUnits="userSpaceOnUse">
<stop stop-color="#D2AB68"/>
<stop offset="1" stop-color="#B67D3F"/>
</linearGradient>
<linearGradient id="paint48_linear_21_15621" x1="354.705" y1="123.109" x2="361.233" y2="135.362" gradientUnits="userSpaceOnUse">
<stop stop-color="#C18E42"/>
<stop offset="1" stop-color="#D2AB68"/>
</linearGradient>
<linearGradient id="paint49_linear_21_15621" x1="339.505" y1="77.2538" x2="357.92" y2="102.108" gradientUnits="userSpaceOnUse">
<stop stop-color="#D2AB68"/>
<stop offset="1" stop-color="#8E573C"/>
</linearGradient>
<linearGradient id="paint50_linear_21_15621" x1="324.757" y1="87.9306" x2="342.45" y2="111.81" gradientUnits="userSpaceOnUse">
<stop stop-color="#D2AB68"/>
<stop offset="1" stop-color="#B67D3F"/>
</linearGradient>
<linearGradient id="paint51_linear_21_15621" x1="372.582" y1="161.578" x2="379.068" y2="170.332" gradientUnits="userSpaceOnUse">
<stop stop-color="#D2AB68"/>
<stop offset="1" stop-color="#B67D3F"/>
</linearGradient>
<linearGradient id="paint52_linear_21_15621" x1="367.617" y1="145.248" x2="382.903" y2="165.878" gradientUnits="userSpaceOnUse">
<stop stop-color="#C28766"/>
<stop offset="1" stop-color="#8E573C"/>
</linearGradient>
<linearGradient id="paint53_linear_21_15621" x1="343.826" y1="195.083" x2="363.807" y2="222.048" gradientUnits="userSpaceOnUse">
<stop stop-color="#D2AB68"/>
<stop offset="1" stop-color="#B67D3F"/>
</linearGradient>
<linearGradient id="paint54_linear_21_15621" x1="364.755" y1="188.384" x2="377.393" y2="205.441" gradientUnits="userSpaceOnUse">
<stop stop-color="#D2AB68"/>
<stop offset="1" stop-color="#B67D3F"/>
</linearGradient>
<linearGradient id="paint55_linear_21_15621" x1="362.505" y1="187.284" x2="377.376" y2="207.355" gradientUnits="userSpaceOnUse">
<stop stop-color="#FADA81"/>
<stop offset="1" stop-color="#B67D3F"/>
</linearGradient>
<linearGradient id="paint56_linear_21_15621" x1="364.771" y1="242.721" x2="370.909" y2="251.006" gradientUnits="userSpaceOnUse">
<stop stop-color="#D2AB68"/>
<stop offset="1" stop-color="#B67D3F"/>
</linearGradient>
<linearGradient id="paint57_linear_21_15621" x1="286.113" y1="19.6864" x2="308.139" y2="49.4133" gradientUnits="userSpaceOnUse">
<stop stop-color="#FCF1D5"/>
<stop offset="1" stop-color="#EBCE6A"/>
</linearGradient>
<linearGradient id="paint58_linear_21_15621" x1="283.577" y1="21.5654" x2="305.604" y2="51.2925" gradientUnits="userSpaceOnUse">
<stop stop-color="#D2AB68"/>
<stop offset="1" stop-color="#B67D3F"/>
</linearGradient>
<linearGradient id="paint59_linear_21_15621" x1="299.699" y1="48.8752" x2="319.679" y2="75.8406" gradientUnits="userSpaceOnUse">
<stop stop-color="#D2AB68"/>
<stop offset="1" stop-color="#B67D3F"/>
</linearGradient>
<linearGradient id="paint60_linear_21_15621" x1="305.087" y1="51.3579" x2="304.382" y2="77.1915" gradientUnits="userSpaceOnUse">
<stop stop-color="#F7E6B3"/>
<stop offset="1" stop-color="#F7E6B3" stop-opacity="0"/>
</linearGradient>
<linearGradient id="paint61_linear_21_15621" x1="334.868" y1="71.8037" x2="341.26" y2="102.832" gradientUnits="userSpaceOnUse">
<stop stop-color="#F7E6B3"/>
<stop offset="1" stop-color="#F7E6B3" stop-opacity="0"/>
</linearGradient>
<linearGradient id="paint62_linear_21_15621" x1="345.829" y1="78.3209" x2="356.032" y2="104.68" gradientUnits="userSpaceOnUse">
<stop stop-color="#F7E6B3"/>
<stop offset="1" stop-color="#F7E6B3" stop-opacity="0"/>
</linearGradient>
<linearGradient id="paint63_linear_21_15621" x1="329.032" y1="90.5762" x2="328.613" y2="108.151" gradientUnits="userSpaceOnUse">
<stop stop-color="#FFDD78"/>
<stop offset="1" stop-color="#FFF1C8" stop-opacity="0.38"/>
</linearGradient>
<linearGradient id="paint64_linear_21_15621" x1="327.481" y1="100.254" x2="343.008" y2="121.209" gradientUnits="userSpaceOnUse">
<stop stop-color="#D2AB68"/>
<stop offset="1" stop-color="#B67D3F"/>
</linearGradient>
<linearGradient id="paint65_linear_21_15621" x1="327.223" y1="99.9426" x2="346.105" y2="119.21" gradientUnits="userSpaceOnUse">
<stop stop-color="#FFDA92"/>
<stop offset="1" stop-color="#DCBA84"/>
</linearGradient>
<linearGradient id="paint66_linear_21_15621" x1="371.525" y1="111.403" x2="361.21" y2="141.634" gradientUnits="userSpaceOnUse">
<stop stop-color="#F7E6B3"/>
<stop offset="1" stop-color="#BC8647"/>
</linearGradient>
<linearGradient id="paint67_linear_21_15621" x1="361.837" y1="118.895" x2="374.171" y2="135.542" gradientUnits="userSpaceOnUse">
<stop stop-color="#D2AB68"/>
<stop offset="1" stop-color="#8E573C"/>
</linearGradient>
<linearGradient id="paint68_linear_21_15621" x1="375.493" y1="143.714" x2="385.909" y2="162.653" gradientUnits="userSpaceOnUse">
<stop stop-color="#F7E6B3"/>
<stop offset="1" stop-color="#F7E6B3" stop-opacity="0"/>
</linearGradient>
<linearGradient id="paint69_linear_21_15621" x1="350.918" y1="154.6" x2="369.574" y2="179.779" gradientUnits="userSpaceOnUse">
<stop stop-color="#D2AB68"/>
<stop offset="1" stop-color="#B67D3F"/>
</linearGradient>
<linearGradient id="paint70_linear_21_15621" x1="356.346" y1="150.176" x2="364.713" y2="181.737" gradientUnits="userSpaceOnUse">
<stop stop-color="#E0C087"/>
<stop offset="0.28125" stop-color="#FFE49E"/>
<stop offset="1" stop-color="#753C1D"/>
</linearGradient>
<linearGradient id="paint71_linear_21_15621" x1="378.426" y1="161.873" x2="385.451" y2="168.851" gradientUnits="userSpaceOnUse">
<stop stop-color="#B18253"/>
<stop offset="1" stop-color="#F7E6B3" stop-opacity="0"/>
</linearGradient>
<linearGradient id="paint72_linear_21_15621" x1="351.164" y1="191.911" x2="370.182" y2="217.577" gradientUnits="userSpaceOnUse">
<stop stop-color="#D2AB68"/>
<stop offset="1" stop-color="#B67D3F"/>
</linearGradient>
<linearGradient id="paint73_linear_21_15621" x1="356.775" y1="193.86" x2="364.377" y2="221.795" gradientUnits="userSpaceOnUse">
<stop stop-color="#F7E6B3"/>
<stop offset="1" stop-color="#F7E6B3" stop-opacity="0"/>
</linearGradient>
<linearGradient id="paint74_linear_21_15621" x1="374.985" y1="199.233" x2="381.816" y2="208.452" gradientUnits="userSpaceOnUse">
<stop stop-color="#D2AB68"/>
<stop offset="1" stop-color="#B67D3F"/>
</linearGradient>
<linearGradient id="paint75_linear_21_15621" x1="377.764" y1="197.363" x2="372.104" y2="210.975" gradientUnits="userSpaceOnUse">
<stop stop-color="#FADA81"/>
<stop offset="1" stop-color="#9A5E33"/>
</linearGradient>
<linearGradient id="paint76_linear_21_15621" x1="366.172" y1="233.815" x2="373.338" y2="243.486" gradientUnits="userSpaceOnUse">
<stop stop-color="#FADA81"/>
<stop offset="1" stop-color="#B67D3F"/>
</linearGradient>
<linearGradient id="paint77_linear_21_15621" x1="365.848" y1="238.063" x2="373.954" y2="249.003" gradientUnits="userSpaceOnUse">
<stop stop-color="#D2AB68"/>
<stop offset="1" stop-color="#B67D3F"/>
</linearGradient>
<linearGradient id="paint78_linear_21_15621" x1="93.6733" y1="170.025" x2="93.6733" y2="251.125" gradientUnits="userSpaceOnUse">
<stop stop-color="#EFD9BD"/>
<stop offset="1" stop-color="#C39470"/>
</linearGradient>
<linearGradient id="paint79_linear_21_15621" x1="76.3333" y1="170.025" x2="93.357" y2="251.191" gradientUnits="userSpaceOnUse">
<stop stop-color="#F3DDC4"/>
<stop offset="0.378992" stop-color="#F3DDC4"/>
<stop offset="0.46253" stop-color="#F3DDC4"/>
<stop offset="1" stop-color="#74523F"/>
</linearGradient>
<linearGradient id="paint80_linear_21_15621" x1="349.921" y1="170.025" x2="349.921" y2="251.125" gradientUnits="userSpaceOnUse">
<stop stop-color="#EFD9BD"/>
<stop offset="1" stop-color="#C39470"/>
</linearGradient>
<linearGradient id="paint81_linear_21_15621" x1="367.261" y1="170.025" x2="350.237" y2="251.191" gradientUnits="userSpaceOnUse">
<stop stop-color="#F3DDC4"/>
<stop offset="0.378992" stop-color="#F3DDC4"/>
<stop offset="0.46253" stop-color="#F3DDC4"/>
<stop offset="1" stop-color="#74523F"/>
</linearGradient>
<linearGradient id="paint82_linear_21_15621" x1="175.557" y1="367.528" x2="269.95" y2="375.794" gradientUnits="userSpaceOnUse">
<stop stop-color="#D8B697"/>
<stop offset="0.374385" stop-color="#F0D6BD"/>
<stop offset="0.71988" stop-color="#C89E78"/>
<stop offset="0.9381" stop-color="#DFCBB9"/>
</linearGradient>
<linearGradient id="paint83_linear_21_15621" x1="128.353" y1="344.607" x2="169.239" y2="346.499" gradientUnits="userSpaceOnUse">
<stop stop-color="#D8B697"/>
<stop offset="0.374385" stop-color="#F0D6BD"/>
<stop offset="0.71988" stop-color="#C89E78"/>
<stop offset="0.9381" stop-color="#DFCBB9"/>
</linearGradient>
<linearGradient id="paint84_linear_21_15621" x1="316.205" y1="344.607" x2="275.319" y2="346.499" gradientUnits="userSpaceOnUse">
<stop stop-color="#D8B697"/>
<stop offset="0.374385" stop-color="#F0D6BD"/>
<stop offset="0.71988" stop-color="#C89E78"/>
<stop offset="0.9381" stop-color="#DFCBB9"/>
</linearGradient>
<linearGradient id="paint85_linear_21_15621" x1="312.833" y1="353.017" x2="279.355" y2="355.456" gradientUnits="userSpaceOnUse">
<stop stop-color="#D8B697"/>
<stop offset="0.374385" stop-color="#F0D6BD"/>
<stop offset="0.71988" stop-color="#C89E78"/>
<stop offset="0.9381" stop-color="#DFCBB9"/>
</linearGradient>
<linearGradient id="paint86_linear_21_15621" x1="180.855" y1="347.491" x2="258.188" y2="379.499" gradientUnits="userSpaceOnUse">
<stop offset="0.192454" stop-color="#DFCBB9"/>
<stop offset="0.475371" stop-color="#D8B290"/>
<stop offset="0.678187" stop-color="#DEBFA4"/>
<stop offset="0.866423" stop-color="#DFCBB9"/>
</linearGradient>
<linearGradient id="paint87_linear_21_15621" x1="132.206" y1="353.017" x2="165.684" y2="355.456" gradientUnits="userSpaceOnUse">
<stop stop-color="#D8B697"/>
<stop offset="0.374385" stop-color="#F0D6BD"/>
<stop offset="0.71988" stop-color="#C89E78"/>
<stop offset="0.9381" stop-color="#DFCBB9"/>
</linearGradient>
<linearGradient id="paint88_linear_21_15621" x1="171.222" y1="106.099" x2="277.944" y2="320.169" gradientUnits="userSpaceOnUse">
<stop stop-color="#F1DCC1"/>
<stop offset="1" stop-color="#BD8A65"/>
</linearGradient>
<linearGradient id="paint89_linear_21_15621" x1="170.259" y1="123.75" x2="262.321" y2="295.279" gradientUnits="userSpaceOnUse">
<stop stop-color="#BF8E69"/>
<stop offset="1" stop-color="#E4C196"/>
</linearGradient>
<linearGradient id="paint90_linear_21_15621" x1="180.374" y1="117.548" x2="279.571" y2="297.733" gradientUnits="userSpaceOnUse">
<stop stop-color="#EBD4B7"/>
<stop offset="1" stop-color="#FFE3CE"/>
</linearGradient>
<radialGradient id="paint91_radial_21_15621" cx="0" cy="0" r="1" gradientUnits="userSpaceOnUse" gradientTransform="translate(222.279 211.238) rotate(90) scale(108.002 93.9255)">
<stop stop-color="#E3C29C"/>
<stop offset="1" stop-color="#D1A479"/>
</radialGradient>
<linearGradient id="paint92_linear_21_15621" x1="222.279" y1="98.9591" x2="222.279" y2="323.506" gradientUnits="userSpaceOnUse">
<stop stop-color="white"/>
<stop offset="1" stop-color="#F2EDED" stop-opacity="0"/>
</linearGradient>
<linearGradient id="paint93_linear_21_15621" x1="106.317" y1="119.275" x2="218.049" y2="314.669" gradientUnits="userSpaceOnUse">
<stop stop-color="white"/>
<stop offset="1" stop-color="#F2EDED" stop-opacity="0"/>
</linearGradient>
<linearGradient id="paint94_linear_21_15621" x1="329.795" y1="119.275" x2="218.064" y2="314.669" gradientUnits="userSpaceOnUse">
<stop stop-color="white"/>
<stop offset="1" stop-color="#F2EDED" stop-opacity="0"/>
</linearGradient>
<linearGradient id="paint95_linear_21_15621" x1="222.279" y1="250.796" x2="221.723" y2="311.743" gradientUnits="userSpaceOnUse">
<stop offset="0.291667" stop-color="#FFFAF7" stop-opacity="0"/>
<stop offset="1" stop-color="#E4CBAD"/>
</linearGradient>
<linearGradient id="paint96_linear_21_15621" x1="310.407" y1="255.144" x2="142.137" y2="209.76" gradientUnits="userSpaceOnUse">
<stop stop-color="#B05817"/>
<stop offset="1" stop-color="#C77B0C"/>
</linearGradient>
</defs>
</svg>
