<svg width="24" height="25" viewBox="0 0 24 25" fill="none" xmlns="http://www.w3.org/2000/svg">
    <circle cx="12" cy="12.7163" r="12" fill="#5863F1"/>
    <path d="M17.9011 7.30109C16.7982 6.79478 15.6343 6.43373 14.4385 6.22697C14.4276 6.22494 14.4163 6.22639 14.4063 6.23112C14.3963 6.23585 14.388 6.24362 14.3826 6.25332C14.2241 6.54115 14.0801 6.83679 13.9514 7.13912C12.6441 6.94337 11.3431 6.94337 10.0627 7.13912C9.94648 6.86023 9.77493 6.51928 9.6247 6.25332C9.61914 6.24381 9.61083 6.23621 9.60086 6.23151C9.5909 6.2268 9.57975 6.22522 9.56887 6.22697C8.37302 6.43332 7.20911 6.79439 6.10644 7.30109C6.097 7.30512 6.08905 7.31199 6.08368 7.32073C3.87818 10.6152 3.27391 13.8292 3.57029 17.0029C3.57112 17.0107 3.57353 17.0183 3.57735 17.0252C3.58118 17.032 3.58636 17.0381 3.59258 17.0429C5.04766 18.1115 6.45697 18.7601 7.84041 19.1902C7.85117 19.1934 7.86265 19.1932 7.87331 19.1897C7.88398 19.1862 7.89331 19.1795 7.90007 19.1705C8.2281 18.724 8.51875 18.2512 8.76909 17.7569C8.7725 17.7501 8.77443 17.7427 8.77477 17.7351C8.77511 17.7276 8.77385 17.72 8.77107 17.7129C8.76829 17.7059 8.76405 17.6995 8.75863 17.6942C8.75321 17.6889 8.74674 17.6848 8.73962 17.6822C8.28123 17.5067 7.83746 17.2952 7.41249 17.0496C7.40477 17.0451 7.39829 17.0387 7.39361 17.031C7.38894 17.0234 7.38623 17.0147 7.38571 17.0057C7.38519 16.9968 7.38688 16.9878 7.39063 16.9797C7.39438 16.9716 7.40008 16.9645 7.40722 16.959C7.49635 16.8922 7.58548 16.8227 7.67078 16.7525C7.67838 16.7463 7.68757 16.7423 7.69731 16.7411C7.70704 16.7398 7.71694 16.7413 7.72588 16.7453C10.5098 18.0162 13.5237 18.0162 16.2747 16.7453C16.2837 16.741 16.2937 16.7393 16.3036 16.7405C16.3135 16.7416 16.3228 16.7455 16.3306 16.7518C16.4159 16.822 16.505 16.8922 16.5948 16.959C16.602 16.9644 16.6077 16.9715 16.6115 16.9796C16.6153 16.9877 16.6171 16.9967 16.6166 17.0056C16.6161 17.0146 16.6134 17.0233 16.6088 17.0309C16.6042 17.0386 16.5977 17.045 16.5901 17.0496C16.1662 17.2972 15.7221 17.5086 15.2627 17.6814C15.2556 17.6842 15.2491 17.6884 15.2437 17.6937C15.2383 17.6991 15.2341 17.7056 15.2314 17.7127C15.2286 17.7198 15.2274 17.7274 15.2278 17.7351C15.2282 17.7427 15.2302 17.7501 15.2337 17.7569C15.4882 18.2485 15.7784 18.7207 16.102 19.1698C16.1086 19.179 16.1179 19.1859 16.1286 19.1895C16.1393 19.1931 16.1509 19.1933 16.1617 19.1899C17.5516 18.7601 18.9611 18.1113 20.4162 17.0429C20.4225 17.0383 20.4277 17.0324 20.4315 17.0256C20.4353 17.0189 20.4376 17.0114 20.4382 17.0036C20.7928 13.3342 19.844 10.1468 17.9232 7.32097C17.9184 7.31181 17.9105 7.30467 17.9009 7.30085L17.9011 7.30109ZM9.18456 15.0705C8.34668 15.0705 7.65592 14.3012 7.65592 13.356C7.65592 12.411 8.33326 11.6414 9.18456 11.6414C10.043 11.6414 10.7271 12.4177 10.7137 13.356C10.7137 14.3012 10.0363 15.0705 9.1848 15.0705H9.18456ZM14.8374 15.0705C13.9993 15.0705 13.3088 14.3012 13.3088 13.356C13.3088 12.411 13.9859 11.6414 14.8374 11.6414C15.6956 11.6414 16.3797 12.4177 16.366 13.356C16.366 14.3012 15.6956 15.0705 14.8374 15.0705Z" fill="white"/>
</svg>
