<svg width="24" height="25" viewBox="0 0 24 25" fill="none" xmlns="http://www.w3.org/2000/svg">
    <path d="M0 12.7163C0 6.08889 5.37258 0.716309 12 0.716309C18.6274 0.716309 24 6.08889 24 12.7163C24 19.3437 18.6274 24.7163 12 24.7163C5.37258 24.7163 0 19.3437 0 12.7163Z" fill="#1DA1F2"/>
    <path d="M9.64021 17.7496C14.4395 17.7496 17.0645 13.8757 17.0645 10.5162C17.0645 10.4061 17.0645 10.2966 17.0569 10.1875C17.5676 9.82766 18.0084 9.38206 18.3587 8.8716C17.8825 9.07729 17.3773 9.21213 16.86 9.27159C17.4048 8.9539 17.8125 8.45417 18.0072 7.86543C17.495 8.16159 16.9346 8.37029 16.3503 8.48252C15.9569 8.07494 15.4365 7.80505 14.8698 7.71462C14.3031 7.62418 13.7216 7.71824 13.2153 7.98225C12.709 8.24625 12.3061 8.66548 12.069 9.17505C11.8318 9.68463 11.7737 10.2561 11.9035 10.8012C10.8661 10.7505 9.85125 10.4878 8.92478 10.0302C7.99832 9.57258 7.18098 8.93028 6.5258 8.14498C6.19213 8.70465 6.08993 9.36718 6.24002 9.99768C6.39011 10.6282 6.7812 11.1793 7.33366 11.5387C6.91839 11.5268 6.51216 11.4177 6.14935 11.2205V11.2527C6.14951 11.8396 6.35806 12.4085 6.73961 12.8627C7.12117 13.3169 7.65224 13.6286 8.24275 13.7448C7.8586 13.8469 7.45554 13.8618 7.06454 13.7884C7.23135 14.2935 7.55599 14.7352 7.99307 15.0518C8.43015 15.3683 8.95784 15.5439 9.50235 15.5539C8.96134 15.9682 8.3418 16.2746 7.67916 16.4554C7.01653 16.6362 6.32381 16.6879 5.64062 16.6077C6.83392 17.3537 8.22236 17.7495 9.64021 17.7477" fill="white"/>
</svg>
