<svg width="24" height="25" viewBox="0 0 24 25" fill="none" xmlns="http://www.w3.org/2000/svg">
    <g clip-path="url(#clip0_6_801)">
        <path d="M23.522 6.90172C23.3863 6.39113 23.1189 5.92514 22.7465 5.55037C22.3741 5.17561 21.9099 4.90522 21.4002 4.76626C19.5238 4.26172 12.0238 4.26172 12.0238 4.26172C12.0238 4.26172 4.5238 4.26172 2.64744 4.76626C2.13773 4.90522 1.67346 5.17561 1.30109 5.55037C0.92872 5.92514 0.661309 6.39113 0.525622 6.90172C0.0238038 8.78626 0.0238037 12.7163 0.0238037 12.7163C0.0238037 12.7163 0.0238038 16.6463 0.525622 18.5308C0.661309 19.0414 0.92872 19.5074 1.30109 19.8822C1.67346 20.2569 2.13773 20.5273 2.64744 20.6663C4.5238 21.1708 12.0238 21.1708 12.0238 21.1708C12.0238 21.1708 19.5238 21.1708 21.4002 20.6663C21.9099 20.5273 22.3741 20.2569 22.7465 19.8822C23.1189 19.5074 23.3863 19.0414 23.522 18.5308C24.0238 16.6463 24.0238 12.7163 24.0238 12.7163C24.0238 12.7163 24.0238 8.78626 23.522 6.90172Z" fill="#FF0302"/>
        <path d="M9.56934 16.2852V9.14795L15.8421 12.7166L9.56934 16.2852Z" fill="#FEFEFE"/>
    </g>
    <defs>
        <clipPath id="clip0_6_801">
            <rect width="24" height="24" fill="white" transform="translate(0 0.716309)"/>
        </clipPath>
    </defs>
</svg>