<svg width="482" height="482" viewBox="0 0 482 482" fill="none" xmlns="http://www.w3.org/2000/svg">
<g filter="url(#filter0_f_73_544)">
<mask id="mask0_73_544" style="mask-type:alpha" maskUnits="userSpaceOnUse" x="74" y="74" width="334" height="333">
<rect x="74.8982" y="74.7964" width="332.203" height="332.203" fill="white"/>
</mask>
<g mask="url(#mask0_73_544)">
<rect x="74.8982" y="74.7964" width="332.203" height="332.203" fill="white"/>
<g filter="url(#filter1_f_73_544)">
<ellipse cx="158.887" cy="452.848" rx="117.773" ry="225.36" fill="#EB5DC7"/>
</g>
<g filter="url(#filter2_f_73_544)">
<ellipse cx="375.195" cy="204.454" rx="99.4733" ry="190.344" fill="#FFCEF1"/>
</g>
<g filter="url(#filter3_f_73_544)">
<ellipse cx="317.482" cy="407.824" rx="117.773" ry="225.36" fill="#DE08A2"/>
</g>
<g filter="url(#filter4_f_73_544)">
<ellipse cx="174.841" cy="1.51196" rx="158.125" ry="302.574" fill="#FF73AE"/>
</g>
</g>
</g>
<mask id="mask1_73_544" style="mask-type:alpha" maskUnits="userSpaceOnUse" x="41" y="7" width="400" height="400">
<rect x="41" y="7" width="400" height="400" fill="white"/>
</mask>
<g mask="url(#mask1_73_544)">
<rect x="41" y="7" width="400" height="400" fill="#E996C8"/>
<g filter="url(#filter5_f_73_544)">
<ellipse cx="142.13" cy="462.205" rx="141.808" ry="271.351" fill="#EB5DC7"/>
</g>
<g filter="url(#filter6_f_73_544)">
<ellipse cx="498.26" cy="-25.0291" rx="130.5" ry="155.5" transform="rotate(38.9743 498.26 -25.0291)" fill="#3066FF"/>
</g>
<g filter="url(#filter7_f_73_544)">
<ellipse cx="570" cy="284.5" rx="142" ry="169.5" fill="#00FFC2"/>
</g>
<g filter="url(#filter8_f_73_544)">
<ellipse cx="28" cy="39.5" rx="220" ry="208.5" fill="#B79BFF"/>
</g>
</g>
<path fill-rule="evenodd" clip-rule="evenodd" d="M182.407 146.194L136.008 69L136.008 69.0085L89.5706 146.194L117.746 162.698C117.366 164.191 117.164 165.755 117.164 167.366C117.164 167.835 117.182 168.301 117.215 168.761L86 150.473L135.94 222L135.994 221.923L136.048 222L185.988 150.473L154.785 168.754C154.818 168.296 154.835 167.833 154.835 167.366C154.835 165.751 154.632 164.183 154.25 162.687L182.407 146.194ZM152.528 158.317L174.119 145.671L144.017 132.022V150.301C147.631 152.005 150.615 154.825 152.528 158.317ZM144.017 126.926L173.402 140.25L137.803 81.2676V94.4766C145.002 95.3943 150.567 101.548 150.567 109.004C150.567 114.101 147.965 118.591 144.017 121.214V126.926ZM135.936 123.648C137.123 123.648 138.276 123.507 139.38 123.24V148.815C138.283 148.616 137.154 148.512 136 148.512C134.932 148.512 133.884 148.601 132.865 148.772V123.325C133.855 123.537 134.883 123.648 135.936 123.648ZM128.228 121.453C124.073 118.87 121.306 114.26 121.306 109.004C121.306 101.553 126.865 95.4015 134.057 94.4782V81.5774L98.6062 140.208L128.228 126.777V121.453ZM128.228 131.873L97.8317 145.655L119.466 158.327C121.421 154.751 124.501 151.879 128.228 150.187V131.873ZM142.028 185.234C140.135 185.874 138.108 186.22 136 186.22C133.836 186.22 131.758 185.855 129.823 185.183L129.823 205.027L135.994 213.837L142.028 205.222L142.028 185.234ZM123.934 181.844C124.337 182.182 124.755 182.502 125.186 182.806L125.186 198.406L119.131 189.76L123.934 181.844ZM120.656 178.304C119.926 177.28 119.295 176.178 118.779 175.015L101.238 164.254L113.464 181.744L113.499 181.719L116.224 185.609L120.656 178.304ZM146.665 182.909L146.665 198.601L152.784 189.864L147.967 181.926C147.548 182.272 147.113 182.6 146.665 182.909ZM158.489 181.719L155.691 185.714L151.263 178.416C152.029 177.357 152.689 176.215 153.225 175.006L170.75 164.254L158.524 181.744L158.489 181.719ZM135.936 119.007C141.455 119.007 145.93 114.528 145.93 109.004C145.93 103.479 141.455 99.0004 135.936 99.0004C130.417 99.0004 125.943 103.479 125.943 109.004C125.943 114.528 130.417 119.007 135.936 119.007ZM150.198 167.366C150.198 175.215 143.841 181.578 136 181.578C128.158 181.578 121.802 175.215 121.802 167.366C121.802 159.517 128.158 153.154 136 153.154C143.841 153.154 150.198 159.517 150.198 167.366ZM282.628 128.136V147.064H275.516V105.39H282.628V122.62H302.469V105.39H309.58V147.064H302.469V128.136H282.628ZM200.087 105.39H227.246V110.906H207.199V122.62H224.019V128.136H207.199V141.548H227.749V147.064H207.199H200.087V110.906V105.39ZM253.948 147.064V110.906H267.444V105.39H233.34V110.906H246.836V147.064H253.948ZM207.132 187.606C208.575 188.225 210.198 188.535 212.001 188.535C213.908 188.535 215.556 188.174 216.947 187.452C218.364 186.704 219.434 185.724 220.155 184.512C220.902 183.3 221.276 182.01 221.276 180.644C221.276 178.942 220.876 177.588 220.078 176.582C219.305 175.55 218.352 174.79 217.218 174.3C216.11 173.81 214.668 173.32 212.89 172.83C211.55 172.469 210.494 172.134 209.721 171.824C208.948 171.515 208.304 171.102 207.789 170.586C207.3 170.045 207.055 169.361 207.055 168.536C207.055 167.324 207.454 166.396 208.253 165.751C209.051 165.106 210.082 164.784 211.344 164.784C212.735 164.784 213.856 165.132 214.706 165.828C215.556 166.525 216.02 167.363 216.097 168.343H220.966C220.786 166.073 219.859 164.294 218.184 163.005C216.535 161.689 214.41 161.032 211.808 161.032C209.979 161.032 208.369 161.341 206.978 161.96C205.586 162.579 204.504 163.469 203.731 164.629C202.959 165.79 202.572 167.144 202.572 168.691C202.572 170.367 202.959 171.708 203.731 172.714C204.504 173.72 205.432 174.467 206.514 174.957C207.622 175.422 209.051 175.886 210.803 176.35C212.194 176.711 213.276 177.046 214.049 177.356C214.848 177.665 215.505 178.103 216.02 178.671C216.561 179.238 216.832 179.973 216.832 180.876C216.832 182.036 216.406 182.99 215.556 183.738C214.706 184.46 213.521 184.821 212.001 184.821C210.533 184.821 209.386 184.447 208.562 183.699C207.763 182.952 207.312 181.997 207.209 180.837H202.495C202.495 182.384 202.907 183.738 203.731 184.899C204.556 186.059 205.689 186.962 207.132 187.606ZM247.921 188.264V161.38H243.515V172.907H230.879V161.38H226.474V188.264H230.879V176.505H243.515V188.264H247.921ZM269.912 182.771H258.667L256.734 188.264H252.136L261.758 161.341H266.859L276.481 188.264H271.844L269.912 182.771ZM268.675 179.174L264.309 166.679L259.903 179.174H268.675ZM298.325 188.264H302.73V161.341H298.325V181.379L285.07 161.341H280.665V188.264H285.07V168.188L298.325 188.264ZM327.953 169.116C327.257 167.775 326.291 166.77 325.055 166.099C323.818 165.403 322.388 165.055 320.765 165.055C318.988 165.055 317.403 165.454 316.012 166.254C314.621 167.053 313.526 168.188 312.727 169.658C311.954 171.128 311.568 172.83 311.568 174.764C311.568 176.698 311.954 178.413 312.727 179.909C313.526 181.379 314.621 182.513 316.012 183.313C317.403 184.112 318.988 184.512 320.765 184.512C323.161 184.512 325.106 183.841 326.6 182.5C328.095 181.159 329.009 179.341 329.344 177.046H319.258V173.526H334.058V176.969C333.775 179.058 333.028 180.979 331.817 182.732C330.632 184.486 329.074 185.891 327.141 186.949C325.235 187.98 323.11 188.496 320.765 188.496C318.24 188.496 315.935 187.916 313.848 186.755C311.761 185.569 310.1 183.932 308.863 181.843C307.652 179.754 307.047 177.394 307.047 174.764C307.047 172.134 307.652 169.774 308.863 167.685C310.1 165.596 311.761 163.972 313.848 162.811C315.961 161.625 318.266 161.032 320.765 161.032C323.625 161.032 326.162 161.741 328.378 163.159C330.619 164.552 332.242 166.538 333.247 169.116H327.953ZM359.85 188.264V161.38H355.445V172.907H342.809V161.38H338.403V188.264H342.809V176.505H355.445V188.264H359.85ZM381.842 182.771H370.596L368.664 188.264H364.066L373.688 161.341H378.789L388.411 188.264H383.774L381.842 182.771ZM380.605 179.174L376.238 166.679L371.833 179.174H380.605ZM397 188.264V161.38H392.595V188.264H397Z" fill="white"/>
<path d="M125.264 253.62L119.036 279H110.36L106.868 263.448L103.304 279H94.628L88.472 253.62H96.104L99.056 270.972L103.052 253.62H110.792L114.68 270.828L117.632 253.62H125.264ZM147.194 268.668C147.194 269.22 147.158 269.772 147.086 270.324H133.73C133.802 271.428 134.102 272.256 134.63 272.808C135.182 273.336 135.878 273.6 136.718 273.6C137.894 273.6 138.734 273.072 139.238 272.016H146.762C146.45 273.408 145.838 274.656 144.926 275.76C144.038 276.84 142.91 277.692 141.542 278.316C140.174 278.94 138.662 279.252 137.006 279.252C135.014 279.252 133.238 278.832 131.678 277.992C130.142 277.152 128.93 275.952 128.042 274.392C127.178 272.832 126.746 270.996 126.746 268.884C126.746 266.772 127.178 264.948 128.042 263.412C128.906 261.852 130.106 260.652 131.642 259.812C133.202 258.972 134.99 258.552 137.006 258.552C138.998 258.552 140.762 258.96 142.298 259.776C143.834 260.592 145.034 261.768 145.898 263.304C146.762 264.816 147.194 266.604 147.194 268.668ZM139.994 266.904C139.994 266.04 139.706 265.368 139.13 264.888C138.554 264.384 137.834 264.132 136.97 264.132C136.106 264.132 135.398 264.372 134.846 264.852C134.294 265.308 133.934 265.992 133.766 266.904H139.994ZM156.778 261.612C157.33 260.652 158.11 259.908 159.118 259.38C160.126 258.828 161.314 258.552 162.682 258.552C164.29 258.552 165.742 258.972 167.038 259.812C168.358 260.652 169.39 261.852 170.134 263.412C170.902 264.972 171.286 266.796 171.286 268.884C171.286 270.972 170.902 272.808 170.134 274.392C169.39 275.952 168.358 277.152 167.038 277.992C165.742 278.832 164.29 279.252 162.682 279.252C161.314 279.252 160.126 278.988 159.118 278.46C158.11 277.908 157.33 277.152 156.778 276.192V279H149.722V252.36H156.778V261.612ZM164.122 268.884C164.122 267.564 163.762 266.544 163.042 265.824C162.346 265.08 161.482 264.708 160.45 264.708C159.418 264.708 158.542 265.08 157.822 265.824C157.126 266.568 156.778 267.588 156.778 268.884C156.778 270.204 157.126 271.236 157.822 271.98C158.542 272.724 159.418 273.096 160.45 273.096C161.482 273.096 162.346 272.724 163.042 271.98C163.762 271.212 164.122 270.18 164.122 268.884ZM180.073 260.532C180.169 257.82 181.009 255.744 182.593 254.304C184.177 252.84 186.385 252.108 189.217 252.108C191.065 252.108 192.637 252.432 193.933 253.08C195.253 253.704 196.249 254.568 196.921 255.672C197.593 256.752 197.929 257.976 197.929 259.344C197.929 260.976 197.533 262.284 196.741 263.268C195.949 264.228 195.049 264.876 194.041 265.212V265.356C196.945 266.436 198.397 268.5 198.397 271.548C198.397 273.06 198.049 274.392 197.353 275.544C196.657 276.696 195.649 277.596 194.329 278.244C193.009 278.892 191.437 279.216 189.613 279.216C186.613 279.216 184.237 278.496 182.485 277.056C180.757 275.592 179.857 273.36 179.785 270.36H186.661C186.613 271.32 186.817 272.064 187.273 272.592C187.729 273.12 188.413 273.384 189.325 273.384C190.021 273.384 190.561 273.168 190.945 272.736C191.353 272.304 191.557 271.728 191.557 271.008C191.557 270.096 191.257 269.424 190.657 268.992C190.081 268.56 189.133 268.344 187.813 268.344H186.553V262.62H187.777C188.689 262.644 189.457 262.5 190.081 262.188C190.729 261.852 191.053 261.192 191.053 260.208C191.053 259.464 190.873 258.912 190.513 258.552C190.153 258.168 189.661 257.976 189.037 257.976C188.341 257.976 187.825 258.228 187.489 258.732C187.177 259.212 186.997 259.812 186.949 260.532H180.073ZM205.394 279.288C204.146 279.288 203.138 278.952 202.37 278.28C201.626 277.584 201.254 276.708 201.254 275.652C201.254 274.596 201.626 273.72 202.37 273.024C203.138 272.328 204.146 271.98 205.394 271.98C206.618 271.98 207.602 272.328 208.346 273.024C209.114 273.72 209.498 274.596 209.498 275.652C209.498 276.684 209.114 277.548 208.346 278.244C207.602 278.94 206.618 279.288 205.394 279.288ZM211.83 265.464C211.83 261.336 212.67 258.084 214.35 255.708C216.03 253.332 218.67 252.144 222.27 252.144C225.87 252.144 228.51 253.332 230.19 255.708C231.894 258.084 232.746 261.336 232.746 265.464C232.746 269.64 231.906 272.916 230.226 275.292C228.546 277.668 225.894 278.856 222.27 278.856C218.646 278.856 215.994 277.668 214.314 275.292C212.658 272.916 211.83 269.64 211.83 265.464ZM225.762 265.464C225.762 263.304 225.534 261.66 225.078 260.532C224.622 259.38 223.686 258.804 222.27 258.804C220.854 258.804 219.918 259.38 219.462 260.532C219.006 261.66 218.778 263.304 218.778 265.464C218.778 267.672 218.994 269.352 219.426 270.504C219.882 271.632 220.83 272.196 222.27 272.196C223.71 272.196 224.646 271.632 225.078 270.504C225.534 269.352 225.762 267.672 225.762 265.464ZM251.849 279.252C248.897 279.252 246.473 278.556 244.577 277.164C242.681 275.748 241.661 273.732 241.517 271.116H249.041C249.113 272.004 249.377 272.652 249.833 273.06C250.289 273.468 250.877 273.672 251.597 273.672C252.245 273.672 252.773 273.516 253.181 273.204C253.613 272.868 253.829 272.412 253.829 271.836C253.829 271.092 253.481 270.516 252.785 270.108C252.089 269.7 250.961 269.244 249.401 268.74C247.745 268.188 246.401 267.66 245.369 267.156C244.361 266.628 243.473 265.872 242.705 264.888C241.961 263.88 241.589 262.572 241.589 260.964C241.589 259.332 241.997 257.94 242.813 256.788C243.629 255.612 244.757 254.724 246.197 254.124C247.637 253.524 249.269 253.224 251.093 253.224C254.045 253.224 256.397 253.92 258.149 255.312C259.925 256.68 260.873 258.612 260.993 261.108H253.325C253.301 260.34 253.061 259.764 252.605 259.38C252.173 258.996 251.609 258.804 250.913 258.804C250.385 258.804 249.953 258.96 249.617 259.272C249.281 259.584 249.113 260.028 249.113 260.604C249.113 261.084 249.293 261.504 249.653 261.864C250.037 262.2 250.505 262.5 251.057 262.764C251.609 263.004 252.425 263.316 253.505 263.7C255.113 264.252 256.433 264.804 257.465 265.356C258.521 265.884 259.421 266.64 260.165 267.624C260.933 268.584 261.317 269.808 261.317 271.296C261.317 272.808 260.933 274.164 260.165 275.364C259.421 276.564 258.329 277.512 256.889 278.208C255.473 278.904 253.793 279.252 251.849 279.252ZM284.901 258.804V279H277.809V276.12C277.209 277.032 276.381 277.776 275.325 278.352C274.269 278.904 273.057 279.18 271.689 279.18C269.337 279.18 267.477 278.412 266.109 276.876C264.765 275.316 264.093 273.204 264.093 270.54V258.804H271.113V269.64C271.113 270.792 271.413 271.704 272.013 272.376C272.637 273.024 273.453 273.348 274.461 273.348C275.493 273.348 276.309 273.024 276.909 272.376C277.509 271.704 277.809 270.792 277.809 269.64V258.804H284.901ZM314.945 258.624C317.489 258.624 319.481 259.392 320.921 260.928C322.385 262.464 323.117 264.564 323.117 267.228V279H316.061V268.164C316.061 267.084 315.761 266.244 315.161 265.644C314.561 265.044 313.745 264.744 312.713 264.744C311.681 264.744 310.865 265.044 310.265 265.644C309.665 266.244 309.365 267.084 309.365 268.164V279H302.309V268.164C302.309 267.084 302.009 266.244 301.409 265.644C300.833 265.044 300.029 264.744 298.997 264.744C297.941 264.744 297.113 265.044 296.513 265.644C295.913 266.244 295.613 267.084 295.613 268.164V279H288.557V258.804H295.613V261.468C296.237 260.604 297.041 259.92 298.025 259.416C299.033 258.888 300.185 258.624 301.481 258.624C302.969 258.624 304.289 258.948 305.441 259.596C306.617 260.244 307.541 261.156 308.213 262.332C308.933 261.228 309.881 260.34 311.057 259.668C312.233 258.972 313.529 258.624 314.945 258.624ZM353.01 258.624C355.554 258.624 357.546 259.392 358.986 260.928C360.45 262.464 361.182 264.564 361.182 267.228V279H354.126V268.164C354.126 267.084 353.826 266.244 353.226 265.644C352.626 265.044 351.81 264.744 350.778 264.744C349.746 264.744 348.93 265.044 348.33 265.644C347.73 266.244 347.43 267.084 347.43 268.164V279H340.374V268.164C340.374 267.084 340.074 266.244 339.474 265.644C338.898 265.044 338.094 264.744 337.062 264.744C336.006 264.744 335.178 265.044 334.578 265.644C333.978 266.244 333.678 267.084 333.678 268.164V279H326.622V258.804H333.678V261.468C334.302 260.604 335.106 259.92 336.09 259.416C337.098 258.888 338.25 258.624 339.546 258.624C341.034 258.624 342.354 258.948 343.506 259.596C344.682 260.244 345.606 261.156 346.278 262.332C346.998 261.228 347.946 260.34 349.122 259.668C350.298 258.972 351.594 258.624 353.01 258.624ZM368.252 256.932C367.004 256.932 365.996 256.596 365.228 255.924C364.484 255.228 364.112 254.364 364.112 253.332C364.112 252.276 364.484 251.4 365.228 250.704C365.996 250.008 367.004 249.66 368.252 249.66C369.476 249.66 370.46 250.008 371.204 250.704C371.972 251.4 372.356 252.276 372.356 253.332C372.356 254.364 371.972 255.228 371.204 255.924C370.46 256.596 369.476 256.932 368.252 256.932ZM371.744 258.804V279H364.688V258.804H371.744ZM387.318 272.988V279H384.258C379.098 279 376.518 276.444 376.518 271.332V264.672H374.034V258.804H376.518V253.908H383.61V258.804H387.282V264.672H383.61V271.44C383.61 271.992 383.73 272.388 383.97 272.628C384.234 272.868 384.666 272.988 385.266 272.988H387.318ZM88.652 318.256C88.652 315.76 89.168 313.54 90.2 311.596C91.256 309.628 92.744 308.104 94.664 307.024C96.584 305.92 98.792 305.368 101.288 305.368C104.456 305.368 107.12 306.22 109.28 307.924C111.44 309.604 112.832 311.896 113.456 314.8H105.86C105.404 313.84 104.768 313.108 103.952 312.604C103.16 312.1 102.236 311.848 101.18 311.848C99.548 311.848 98.24 312.436 97.256 313.612C96.296 314.764 95.816 316.312 95.816 318.256C95.816 320.224 96.296 321.796 97.256 322.972C98.24 324.124 99.548 324.7 101.18 324.7C102.236 324.7 103.16 324.448 103.952 323.944C104.768 323.44 105.404 322.708 105.86 321.748H113.456C112.832 324.652 111.44 326.956 109.28 328.66C107.12 330.34 104.456 331.18 101.288 331.18C98.792 331.18 96.584 330.64 94.664 329.56C92.744 328.456 91.256 326.932 90.2 324.988C89.168 323.02 88.652 320.776 88.652 318.256ZM123.493 314.368C124.285 313.216 125.245 312.304 126.373 311.632C127.501 310.96 128.713 310.624 130.009 310.624V318.148H128.029C126.493 318.148 125.353 318.448 124.609 319.048C123.865 319.648 123.493 320.692 123.493 322.18V331H116.437V310.804H123.493V314.368ZM153.923 310.804L141.107 340.612H133.439L138.263 330.136L129.983 310.804H137.831L142.079 322.252L146.183 310.804H153.923ZM162.465 313.612C163.017 312.676 163.797 311.932 164.805 311.38C165.813 310.828 167.001 310.552 168.369 310.552C169.977 310.552 171.429 310.972 172.725 311.812C174.045 312.652 175.077 313.852 175.821 315.412C176.589 316.972 176.973 318.796 176.973 320.884C176.973 322.972 176.589 324.808 175.821 326.392C175.077 327.952 174.045 329.152 172.725 329.992C171.429 330.832 169.977 331.252 168.369 331.252C167.001 331.252 165.813 330.976 164.805 330.424C163.821 329.872 163.041 329.128 162.465 328.192V340.648H155.409V310.804H162.465V313.612ZM169.809 320.884C169.809 319.564 169.449 318.544 168.729 317.824C168.033 317.08 167.169 316.708 166.137 316.708C165.105 316.708 164.229 317.08 163.509 317.824C162.813 318.568 162.465 319.588 162.465 320.884C162.465 322.204 162.813 323.236 163.509 323.98C164.229 324.724 165.105 325.096 166.137 325.096C167.169 325.096 168.033 324.724 168.729 323.98C169.449 323.212 169.809 322.18 169.809 320.884ZM191.433 324.988V331H188.373C183.213 331 180.633 328.444 180.633 323.332V316.672H178.149V310.804H180.633V305.908H187.725V310.804H191.397V316.672H187.725V323.44C187.725 323.992 187.845 324.388 188.085 324.628C188.349 324.868 188.781 324.988 189.381 324.988H191.433ZM203.706 331.252C201.69 331.252 199.878 330.832 198.27 329.992C196.686 329.152 195.438 327.952 194.526 326.392C193.614 324.832 193.158 322.996 193.158 320.884C193.158 318.796 193.614 316.972 194.526 315.412C195.462 313.852 196.722 312.652 198.306 311.812C199.914 310.972 201.726 310.552 203.742 310.552C205.758 310.552 207.558 310.972 209.142 311.812C210.75 312.652 212.01 313.852 212.922 315.412C213.858 316.972 214.326 318.796 214.326 320.884C214.326 322.972 213.858 324.808 212.922 326.392C212.01 327.952 210.75 329.152 209.142 329.992C207.534 330.832 205.722 331.252 203.706 331.252ZM203.706 325.132C204.69 325.132 205.506 324.772 206.154 324.052C206.826 323.308 207.162 322.252 207.162 320.884C207.162 319.516 206.826 318.472 206.154 317.752C205.506 317.032 204.702 316.672 203.742 316.672C202.782 316.672 201.978 317.032 201.33 317.752C200.682 318.472 200.358 319.516 200.358 320.884C200.358 322.276 200.67 323.332 201.294 324.052C201.918 324.772 202.722 325.132 203.706 325.132ZM222.503 318.256C222.503 315.76 223.019 313.54 224.051 311.596C225.107 309.628 226.595 308.104 228.515 307.024C230.435 305.92 232.643 305.368 235.139 305.368C238.307 305.368 240.971 306.22 243.131 307.924C245.291 309.604 246.683 311.896 247.307 314.8H239.711C239.255 313.84 238.619 313.108 237.803 312.604C237.011 312.1 236.087 311.848 235.031 311.848C233.399 311.848 232.091 312.436 231.107 313.612C230.147 314.764 229.667 316.312 229.667 318.256C229.667 320.224 230.147 321.796 231.107 322.972C232.091 324.124 233.399 324.7 235.031 324.7C236.087 324.7 237.011 324.448 237.803 323.944C238.619 323.44 239.255 322.708 239.711 321.748H247.307C246.683 324.652 245.291 326.956 243.131 328.66C240.971 330.34 238.307 331.18 235.139 331.18C232.643 331.18 230.435 330.64 228.515 329.56C226.595 328.456 225.107 326.932 224.051 324.988C223.019 323.02 222.503 320.776 222.503 318.256ZM253.852 308.932C252.604 308.932 251.596 308.596 250.828 307.924C250.084 307.228 249.712 306.364 249.712 305.332C249.712 304.276 250.084 303.4 250.828 302.704C251.596 302.008 252.604 301.66 253.852 301.66C255.076 301.66 256.06 302.008 256.804 302.704C257.572 303.4 257.956 304.276 257.956 305.332C257.956 306.364 257.572 307.228 256.804 307.924C256.06 308.596 255.076 308.932 253.852 308.932ZM257.344 310.804V331H250.288V310.804H257.344ZM272.919 324.988V331H269.859C264.699 331 262.119 328.444 262.119 323.332V316.672H259.635V310.804H262.119V305.908H269.211V310.804H272.883V316.672H269.211V323.44C269.211 323.992 269.331 324.388 269.571 324.628C269.835 324.868 270.267 324.988 270.867 324.988H272.919ZM297.539 310.804L284.723 340.612H277.055L281.879 330.136L273.599 310.804H281.447L285.695 322.252L289.799 310.804H297.539Z" fill="white"/>
<defs>
<filter id="filter0_f_73_544" x="0.416862" y="0.315056" width="481.166" height="481.166" filterUnits="userSpaceOnUse" color-interpolation-filters="sRGB">
<feFlood flood-opacity="0" result="BackgroundImageFix"/>
<feBlend mode="normal" in="SourceGraphic" in2="BackgroundImageFix" result="shape"/>
<feGaussianBlur stdDeviation="37.2407" result="effect1_foregroundBlur_73_544"/>
</filter>
<filter id="filter1_f_73_544" x="-80.6563" y="105.718" width="479.088" height="694.261" filterUnits="userSpaceOnUse" color-interpolation-filters="sRGB">
<feFlood flood-opacity="0" result="BackgroundImageFix"/>
<feBlend mode="normal" in="SourceGraphic" in2="BackgroundImageFix" result="shape"/>
<feGaussianBlur stdDeviation="60.8855" result="effect1_foregroundBlur_73_544"/>
</filter>
<filter id="filter2_f_73_544" x="153.951" y="-107.66" width="442.489" height="624.229" filterUnits="userSpaceOnUse" color-interpolation-filters="sRGB">
<feFlood flood-opacity="0" result="BackgroundImageFix"/>
<feBlend mode="normal" in="SourceGraphic" in2="BackgroundImageFix" result="shape"/>
<feGaussianBlur stdDeviation="60.8855" result="effect1_foregroundBlur_73_544"/>
</filter>
<filter id="filter3_f_73_544" x="77.9379" y="60.6933" width="479.088" height="694.261" filterUnits="userSpaceOnUse" color-interpolation-filters="sRGB">
<feFlood flood-opacity="0" result="BackgroundImageFix"/>
<feBlend mode="normal" in="SourceGraphic" in2="BackgroundImageFix" result="shape"/>
<feGaussianBlur stdDeviation="60.8855" result="effect1_foregroundBlur_73_544"/>
</filter>
<filter id="filter4_f_73_544" x="-105.055" y="-422.834" width="559.792" height="848.691" filterUnits="userSpaceOnUse" color-interpolation-filters="sRGB">
<feFlood flood-opacity="0" result="BackgroundImageFix"/>
<feBlend mode="normal" in="SourceGraphic" in2="BackgroundImageFix" result="shape"/>
<feGaussianBlur stdDeviation="60.8855" result="effect1_foregroundBlur_73_544"/>
</filter>
<filter id="filter5_f_73_544" x="-121.449" y="69.0829" width="527.158" height="786.245" filterUnits="userSpaceOnUse" color-interpolation-filters="sRGB">
<feFlood flood-opacity="0" result="BackgroundImageFix"/>
<feBlend mode="normal" in="SourceGraphic" in2="BackgroundImageFix" result="shape"/>
<feGaussianBlur stdDeviation="60.8855" result="effect1_foregroundBlur_73_544"/>
</filter>
<filter id="filter6_f_73_544" x="235.567" y="-292.937" width="525.385" height="535.815" filterUnits="userSpaceOnUse" color-interpolation-filters="sRGB">
<feFlood flood-opacity="0" result="BackgroundImageFix"/>
<feBlend mode="normal" in="SourceGraphic" in2="BackgroundImageFix" result="shape"/>
<feGaussianBlur stdDeviation="60.8855" result="effect1_foregroundBlur_73_544"/>
</filter>
<filter id="filter7_f_73_544" x="306.229" y="-6.77106" width="527.542" height="582.542" filterUnits="userSpaceOnUse" color-interpolation-filters="sRGB">
<feFlood flood-opacity="0" result="BackgroundImageFix"/>
<feBlend mode="normal" in="SourceGraphic" in2="BackgroundImageFix" result="shape"/>
<feGaussianBlur stdDeviation="60.8855" result="effect1_foregroundBlur_73_544"/>
</filter>
<filter id="filter8_f_73_544" x="-313.771" y="-290.771" width="683.542" height="660.542" filterUnits="userSpaceOnUse" color-interpolation-filters="sRGB">
<feFlood flood-opacity="0" result="BackgroundImageFix"/>
<feBlend mode="normal" in="SourceGraphic" in2="BackgroundImageFix" result="shape"/>
<feGaussianBlur stdDeviation="60.8855" result="effect1_foregroundBlur_73_544"/>
</filter>
</defs>
</svg>
