<svg width="291" height="128" viewBox="0 0 291 128" fill="none" xmlns="http://www.w3.org/2000/svg">
    <rect x="0.436523" width="290" height="128" rx="12" fill="white"/>
    <path fill-rule="evenodd" clip-rule="evenodd" d="M114.109 64.9669L145.436 50.6481V83.5679L114.109 64.9669Z" fill="#88AAF0"/>
    <path d="M145.437 83.5679L176.751 64.9669L145.437 50.6481V83.5679Z" fill="#C9B3F6"/>
    <path d="M114.116 64.8459L145.443 50.5316V12.6074L114.116 64.8459Z" fill="#EECEC4"/>
    <g opacity="0.8">
        <path d="M145.443 12.6074V50.5316L176.758 64.8459L145.443 12.6074Z" fill="#B6F9F4"/>
    </g>
    <path d="M114.116 70.811L145.443 115.166V89.4119L114.116 70.811Z" fill="#F0CCBF"/>
    <g opacity="0.8">
        <path opacity="0.8" d="M145.443 89.4119V115.166L176.782 70.811L145.443 89.4119Z" fill="#C9B0F2"/>
    </g>
    <path fill-rule="evenodd" clip-rule="evenodd" d="M145.437 11.9187L177.793 65.0758L145.437 84.3356L113.08 65.0758L145.437 11.9187ZM115.719 64.9104L144.691 82.1555V51.8042L115.719 64.9104ZM144.691 50.1668L116.002 63.1452L144.691 16.0132V50.1668ZM146.183 16.0132V50.1668L174.872 63.1452L146.183 16.0132ZM175.154 64.9104L146.183 51.8042V82.1555L175.154 64.9104ZM113.501 71.2199L111.125 67.8038L145.437 88.5667L179.748 67.8038L177.372 71.2199L145.437 116.081L113.501 71.2199ZM144.691 89.8587L116.77 73.2393L144.691 112.461V89.8587ZM146.183 112.461V89.8587L174.103 73.2393L146.183 112.461Z" fill="#29036D"/>
</svg>
