<svg width="291" height="128" viewBox="0 0 291 128" fill="none" xmlns="http://www.w3.org/2000/svg">
    <rect x="0.436768" width="290" height="128" rx="12" fill="white"/>
    <path d="M119.653 62.8765H129.099C129.099 63.8752 129.05 64.7991 128.978 65.623C128.905 66.447 128.736 67.1961 128.495 67.8952C128.156 68.8939 127.697 69.7678 127.118 70.5419C126.538 71.2909 125.837 71.9401 125.064 72.4395C124.291 72.9389 123.421 73.3384 122.479 73.5881C121.537 73.8627 120.547 73.9876 119.508 73.9876C118.082 73.9876 116.778 73.7379 115.594 73.2635C114.434 72.7891 113.42 72.0899 112.574 71.241C111.729 70.3421 111.076 69.2934 110.617 68.07C110.158 66.8215 109.917 65.4732 109.917 63.9751C109.917 62.5019 110.134 61.1536 110.593 59.9301C111.052 58.6817 111.729 57.633 112.55 56.7591C113.42 55.8852 114.434 55.211 115.642 54.7366C116.85 54.2622 118.179 54.0125 119.653 54.0125C121.561 54.0125 123.228 54.437 124.678 55.2859C126.127 56.1349 127.263 57.4582 128.108 59.256L123.591 61.1786C123.18 60.1299 122.624 59.4058 121.948 58.9563C121.295 58.5069 120.522 58.2822 119.677 58.2822C118.976 58.2822 118.324 58.432 117.744 58.7067C117.164 58.9813 116.657 59.3558 116.246 59.8802C115.836 60.3796 115.522 61.0038 115.28 61.7029C115.063 62.427 114.942 63.226 114.942 64.0999C114.942 64.8989 115.038 65.648 115.232 66.3222C115.449 66.9963 115.739 67.5956 116.15 68.0949C116.56 68.5943 117.068 68.9938 117.647 69.2685C118.251 69.5431 118.952 69.668 119.725 69.668C120.184 69.668 120.643 69.618 121.078 69.5182C121.513 69.3933 121.899 69.2185 122.238 68.9938C122.6 68.7441 122.89 68.4195 123.107 68.045C123.325 67.6705 123.494 67.1961 123.566 66.6467H119.653V62.8765ZM152.581 58.5069V73.9876H147.507V58.5069H143.401V54.0125H156.688V58.5069H152.581ZM174.324 60.854C173.212 59.4557 171.859 58.7566 170.241 58.7566C169.516 58.7566 168.864 58.8814 168.236 59.1561C167.632 59.4308 167.124 59.8053 166.665 60.2547C166.23 60.7042 165.868 61.2535 165.626 61.9027C165.385 62.5519 165.264 63.226 165.264 63.9751C165.264 64.7241 165.385 65.4233 165.626 66.0725C165.892 66.7217 166.23 67.271 166.665 67.7454C167.124 68.2198 167.656 68.5943 168.26 68.844C168.864 69.1187 169.516 69.2435 170.217 69.2435C171.739 69.2435 173.116 68.5693 174.324 67.221V73.0637L173.84 73.2385C173.116 73.5132 172.439 73.688 171.787 73.8128C171.159 73.9376 170.531 74.0126 169.902 74.0126C168.646 74.0126 167.414 73.7629 166.255 73.2885C165.095 72.7891 164.08 72.09 163.186 71.1911C162.317 70.2922 161.592 69.2185 161.06 67.9951C160.529 66.7466 160.263 65.3983 160.263 63.9501C160.263 62.5019 160.529 61.1536 161.036 59.9551C161.568 58.7316 162.268 57.6829 163.162 56.809C164.056 55.9101 165.095 55.236 166.255 54.7366C167.414 54.2372 168.646 53.9875 169.927 53.9875C170.651 53.9875 171.376 54.0625 172.077 54.2372C172.802 54.3871 173.55 54.6367 174.324 54.9613V60.854ZM184.277 64C184.277 64.7491 184.422 65.4482 184.688 66.0974C184.953 66.7466 185.34 67.2959 185.799 67.7703C186.258 68.2448 186.813 68.6193 187.442 68.869C188.07 69.1187 188.746 69.2435 189.447 69.2435C190.147 69.2435 190.8 69.1187 191.428 68.869C192.056 68.5943 192.612 68.2198 193.095 67.7703C193.578 67.2959 193.964 66.7466 194.23 66.0974C194.496 65.4482 194.641 64.7741 194.641 64C194.641 63.226 194.496 62.5519 194.23 61.9027C193.964 61.2535 193.578 60.7042 193.095 60.2298C192.636 59.7554 192.08 59.4058 191.428 59.1561C190.8 58.8814 190.147 58.7566 189.447 58.7566C188.746 58.7566 188.094 58.8814 187.442 59.1561C186.813 59.4058 186.282 59.7803 185.799 60.2298C185.34 60.7042 184.953 61.2535 184.688 61.9027C184.422 62.5519 184.277 63.251 184.277 64ZM179.3 64C179.3 62.6018 179.542 61.2784 180.049 60.0799C180.556 58.8565 181.257 57.7828 182.151 56.8839C183.045 55.9851 184.108 55.261 185.34 54.7616C186.596 54.2372 187.973 53.9875 189.447 53.9875C190.92 53.9875 192.297 54.2372 193.53 54.7616C194.786 55.261 195.849 55.9601 196.743 56.8839C197.661 57.7828 198.361 58.8565 198.869 60.0799C199.376 61.2784 199.618 62.6018 199.618 64C199.618 65.3983 199.376 66.7217 198.869 67.9451C198.361 69.1436 197.661 70.2173 196.743 71.1162C195.849 72.015 194.786 72.7391 193.53 73.2635C192.273 73.7629 190.92 74.0126 189.447 74.0126C187.949 74.0126 186.572 73.7629 185.34 73.2635C184.108 72.7391 183.045 72.04 182.151 71.1162C181.257 70.2173 180.556 69.1436 180.049 67.9451C179.542 66.7217 179.3 65.4233 179.3 64ZM209.595 54.0125V73.9876H204.522V54.0125H209.595ZM138.569 54.0125V73.9876H133.496V54.0125H138.569ZM214.91 73.9876V54.0125H219.742L229.163 66.2223V54.0125H234.237V73.9876H229.357L219.983 61.7778V73.9876H214.91Z" fill="black"/>
    <path fill-rule="evenodd" clip-rule="evenodd" d="M91.7658 77.2385L89.0908 74.7654C91.0609 72.8264 92.1455 70.2701 92.1455 67.5688C92.148 65.9249 91.742 64.3066 90.9643 62.8607C90.4162 61.8465 89.7046 60.9307 88.8582 60.1509L87.4626 58.8573L88.9591 57.5101L90.2342 58.7995L91.4533 57.6017C94.3005 60.2411 95.8699 63.7809 95.8699 67.5688C95.8699 71.1988 94.4126 74.6329 91.7658 77.2385Z" fill="#0FCE7C" stroke="#0FCE7C" stroke-width="0.149573"/>
    <path d="M91.6795 85.8907H78.7744C68.7515 85.8907 60.5951 77.5837 60.5951 67.3743C60.5951 57.1635 68.7501 48.8579 78.7772 48.8579C82.9388 48.8579 86.8874 50.2727 90.0933 52.8782L81.2349 61.2148C80.4557 60.8903 79.6206 60.7232 78.7772 60.723C75.1761 60.723 72.2476 63.7077 72.2476 67.3743C72.2476 71.041 75.1761 74.0256 78.7772 74.0256C79.4022 74.0251 80.0239 73.933 80.6226 73.7522L91.6809 82.2297V85.8907H91.6795ZM78.7744 69.9954C77.3564 69.9954 76.2018 68.8187 76.2018 67.3743C76.2018 65.9285 77.3564 64.7533 78.7758 64.7533C80.1938 64.7533 81.3484 65.9285 81.3484 67.3743C81.3484 68.8187 80.1938 69.9954 78.7758 69.9954H78.7744ZM85.3054 67.3743C85.3054 66.0694 84.9327 64.8519 84.2923 63.8232L89.5749 58.8503L89.6197 58.8982L95.8705 52.8993L94.4301 51.4324C90.2489 47.1725 84.6889 44.8276 78.7758 44.8276C66.5685 44.8276 56.6367 54.9426 56.6367 67.3743C56.6367 79.6834 66.3751 89.7152 78.4157 89.9111V89.921H95.6365V80.2189L84.0275 71.32C84.8598 70.1749 85.3075 68.7927 85.3054 67.3743Z" fill="black"/>
    <path fill-rule="evenodd" clip-rule="evenodd" d="M78.7895 69.8953C80.2289 69.8953 81.3958 68.7258 81.3958 67.2832C81.3958 65.8406 80.2289 64.6711 78.7895 64.6711C77.3501 64.6711 76.1833 65.8406 76.1833 67.2832C76.1833 68.7258 77.3501 69.8953 78.7895 69.8953ZM78.7895 73.8135C82.388 73.8135 85.3051 70.8898 85.3051 67.2832C85.3051 63.6766 82.388 60.7529 78.7895 60.7529C75.1911 60.7529 72.2739 63.6766 72.2739 67.2832C72.2739 70.8898 75.1911 73.8135 78.7895 73.8135Z" fill="black"/>
    <path d="M100.074 43.4191L98.6727 44.8282L97.2715 43.4191L98.6727 42.0099L100.074 43.4191Z" fill="#25E899"/>
    <path d="M88.8644 43.4191L87.4632 44.8282L86.062 43.4191L87.4632 42.0099L88.8644 43.4191Z" fill="#25E899"/>
    <path d="M72.0499 58.9196C71.2764 58.9196 70.6487 58.2207 70.6487 57.3583V40.7526C70.6487 39.8902 71.2764 39.1913 72.0499 39.1913C72.8234 39.1913 73.4511 39.8902 73.4511 40.7526V57.3583C73.4511 58.2207 72.8234 58.9196 72.0499 58.9196Z" fill="black"/>
    <path d="M80.3031 55.2993C79.5296 55.2993 78.9019 54.7286 78.9019 54.0245V40.4661C78.9019 39.762 79.5296 39.1913 80.3031 39.1913C81.0765 39.1913 81.7043 39.762 81.7043 40.4661V54.0245C81.7043 54.7286 81.0765 55.2993 80.3031 55.2993Z" fill="black"/>
</svg>
