<svg width="291" height="129" viewBox="0 0 291 129" fill="none" xmlns="http://www.w3.org/2000/svg">
    <rect x="0.563354" y="0.716309" width="290" height="128" rx="12" fill="white"/>
    <g clip-path="url(#clip0_73_3305)">
        <path d="M63.6834 97.2163C81.975 97.2163 96.8034 82.6656 96.8034 64.7163C96.8034 46.7671 81.975 32.2163 63.6834 32.2163C45.3917 32.2163 30.5634 46.7671 30.5634 64.7163C30.5634 82.6656 45.3917 97.2163 63.6834 97.2163Z" fill="#1C68F3"/>
        <path d="M209.782 56.5397C215.853 56.5397 222.749 58.8287 223.161 66.1535H214.674C214.497 64.0362 212.493 63.0633 209.841 63.0633C207.366 63.0633 206.246 63.9789 206.246 65.0662C206.246 65.9818 206.953 66.8402 209.193 67.2408L214.556 68.0992C219.92 69.072 223.456 71.5899 223.456 76.5113C223.456 82.9205 217.503 85.8962 210.077 85.8962C202.592 85.8962 196.521 82.8633 195.932 75.4812L204.419 75.5385C204.831 77.9419 206.894 79.0292 209.9 79.0292C212.434 79.0292 213.967 78.2853 213.967 77.0835C213.967 76.1679 213.083 75.424 211.197 75.1379L205.421 74.165C200.47 73.3639 197.051 70.6743 197.051 65.8102C197.051 59.9732 202.179 56.5397 209.782 56.5397ZM174.006 56.6476C177.125 56.6476 179.713 57.4479 181.831 58.7626V57.2764H191.363V85.0008H181.831V83.4574C179.713 84.7722 177.125 85.5724 174.006 85.5724C166.299 85.5724 159.827 79.3416 159.827 71.11C159.827 62.8213 166.299 56.6476 174.006 56.6476ZM118.178 46.0706L132.47 66.8695L146.703 46.0706H154.144V85.0328H144.163V65.4944L135.246 78.8447V78.902H129.694V78.8447L120.718 65.3798L120.777 85.0328H110.796V46.0706H118.178ZM238.254 44.4517V67.7144L248.228 57.3119H259.619L248.76 68.6289L260.563 85.0328H249.114L242.268 75.4305L238.254 79.6029V85.0328H228.693V44.4517H238.254ZM175.889 64.1932C172.006 64.1932 169.182 67.28 169.182 71.11C169.182 74.94 172.006 77.9697 175.889 77.9697C178.007 77.9697 180.066 77.398 181.831 75.3973V66.8227C180.066 64.822 178.007 64.1932 175.889 64.1932Z" fill="#1C68F3"/>
        <path fill-rule="evenodd" clip-rule="evenodd" d="M83.6739 56.7271V67.52H50.1484L48.706 67.5201C50.2327 74.0688 56.2915 78.9604 63.5332 78.9604C69.5202 78.9604 74.6986 75.617 77.176 70.758L83.6739 70.758V79.8238C83.6739 81.9697 81.8727 83.7093 79.6508 83.7093H47.4664C45.2445 83.7093 43.4434 81.9697 43.4434 79.8238V56.7271H83.6739ZM73.3175 70.758C71.1839 73.7706 67.5976 75.7476 63.5332 75.7476C59.4688 75.7476 55.8824 73.7706 53.7489 70.758H73.3175ZM54.9538 59.3174C51.801 59.3174 49.1928 61.569 48.759 64.498L52.1883 64.498C52.5654 63.3707 53.661 62.5553 54.9538 62.5553C56.2465 62.5553 57.3421 63.3707 57.7192 64.498L61.1485 64.498C60.7147 61.569 58.1065 59.3174 54.9538 59.3174ZM72.1635 59.3174C69.0108 59.3174 66.4025 61.569 65.9688 64.498L69.398 64.498C69.7751 63.3707 70.8707 62.5553 72.1635 62.5553C73.4562 62.5553 74.5518 63.3707 74.9289 64.498L78.3582 64.498C77.9244 61.569 75.3162 59.3174 72.1635 59.3174ZM79.6508 44.855C81.8727 44.855 83.6739 46.5945 83.6739 48.7404V53.4893H43.4434V48.7404C43.4434 46.5945 45.2445 44.855 47.4664 44.855H79.6508Z" fill="white"/>
    </g>
    <defs>
        <clipPath id="clip0_73_3305">
            <rect width="230" height="65" fill="white" transform="translate(30.5634 32.2163)"/>
        </clipPath>
    </defs>
</svg>
