<svg width="200" height="56" viewBox="0 0 200 56" fill="none" xmlns="http://www.w3.org/2000/svg">
    <path d="M10.0629 55.2313C9.57745 54.9139 3.5472 49.5931 3.5472 49.4811C3.5472 49.4624 4.03261 48.977 4.61136 48.4356C12.6392 40.9864 19.1362 34.5828 19.7336 33.5747C20.4244 32.4172 20.5364 30.5129 19.995 29.3927C19.4723 28.2912 17.9787 26.779 15.9064 25.2294L14.1701 23.9412L15.6637 22.5223C18.3334 19.9833 19.4163 18.2283 19.4163 16.3427C19.4163 15.0919 18.7628 13.953 17.512 13.0569C16.6345 12.4408 11.4817 10.0511 10.6229 9.88308L10.0815 9.78974V25.5841V41.3785H5.04076H0V30.7929C0 24.9494 0.0560085 16.8468 0.130686 12.7769L0.242703 5.36507L1.84828 4.71164C6.36629 2.86336 9.93217 1.44448 10.5109 1.25778C11.127 1.05242 11.3884 1.10843 13.7594 2.00456C17.3626 3.34876 22.5154 5.70112 24.6064 6.95197C28.5083 9.28566 30.2259 12.0114 30.0205 15.5959C29.9459 16.8281 29.8152 17.3322 29.1804 18.6391C28.7697 19.4792 28.0042 20.7487 27.4815 21.4395C26.9401 22.1303 26.5107 22.765 26.5107 22.8397C26.5293 22.9144 26.9961 23.3625 27.5562 23.8292C28.8444 24.8747 30.7486 27.3577 30.898 28.1792C30.9727 28.5339 30.9913 29.9528 30.954 31.3343L30.898 33.8734L29.8338 35.983C29.2364 37.1779 28.3216 38.6341 27.7615 39.3249C26.6787 40.6131 20.8538 46.2512 14.4128 52.2628L12.8446 53.7004H30.3192H47.7939L47.6632 53.1963C47.4392 52.3562 47.5512 51.4974 47.9806 50.8066L48.3913 50.1532H50.0529H51.7145V48.6409V47.1287L49.8475 47.2034L47.9806 47.2594L47.9432 34.2841L47.8872 21.3088L46.9351 23.7358C45.8523 26.4803 44.06 31.8384 42.3984 37.3646C41.3529 40.8371 41.2222 41.1545 40.5501 41.7706C39.6166 42.648 38.5712 42.8721 37.5817 42.368C35.7707 41.4905 36.0694 38.5781 38.6832 31.7637C42.4357 21.9809 43.3319 19.8526 46.0016 14.5505C46.8791 12.7769 47.6072 11.2833 47.6072 11.2273C47.6072 11.1713 46.655 11.1339 45.4789 11.1339H43.3505L43.0332 10.4618C42.6224 9.58437 42.6411 8.29618 43.0705 7.53073L43.4252 6.93331L46.2256 6.89597C47.7565 6.8773 49.1007 6.85863 49.2128 6.85863C49.3995 6.83996 49.8475 5.66378 49.8475 5.17837C49.8475 5.02902 49.0821 4.97301 47.3458 4.97301H44.8441L44.452 4.0582C43.9666 2.91937 43.9666 2.67666 44.4334 1.66851L44.7881 0.865723H50.4263H56.0458L55.9338 1.57516C55.6911 2.93804 53.5814 8.8936 52.5546 11.0779C51.9945 12.3101 51.5278 13.3743 51.5278 13.4303C51.5278 13.505 54.5896 13.561 58.3235 13.561H65.1378L63.943 11.0966C62.7108 8.52021 61.5346 5.32773 60.7692 2.48997L60.3211 0.865723L66.0526 0.903062L71.7842 0.95907L72.0269 1.48182C72.3816 2.20993 72.3443 3.3861 71.9709 4.2449L71.6348 4.97301H69.0398C67.6209 4.97301 66.4634 5.02902 66.4634 5.1037C66.4634 5.17837 66.5941 5.60777 66.7621 6.03717L67.0795 6.83996L70.3466 6.8773L73.6325 6.93331L73.9872 7.53073C74.4166 8.29618 74.4352 9.47236 74.0245 10.4058L73.6885 11.1339H71.5601C70.4026 11.1339 69.4505 11.1713 69.4505 11.2273C69.4505 11.4513 70.7013 13.785 71.9149 15.8387C73.4831 18.5084 74.3419 20.3193 75.6114 23.7358C76.1342 25.1734 77.2357 27.9551 78.0385 29.8968C78.8412 31.8571 79.7187 34.2094 79.9801 35.1242C80.2414 36.0577 80.6148 37.3086 80.8389 37.906C81.623 40.221 81.1563 41.9386 79.5694 42.4987C78.8786 42.7414 78.6919 42.7414 78.0011 42.4987C77.497 42.312 77.0676 41.9946 76.7876 41.6025C76.5636 41.2665 75.6114 38.6154 74.6779 35.7217C72.7177 29.7101 70.888 24.688 69.8239 22.4663L69.1144 20.9354L69.0958 34.0974L69.0771 47.2594L67.2102 47.2034L65.3432 47.1287V48.6409V50.1532H67.0048C68.573 50.1532 68.7037 50.1905 69.0584 50.6386C69.6559 51.404 69.8986 52.3188 69.6559 52.9909C69.5438 53.3083 69.4505 53.607 69.4505 53.6257C69.4505 53.663 75.126 53.7004 82.0524 53.7004H94.6543V44.739V35.7777H94.0009C93.5155 35.7777 93.2728 35.6656 93.0487 35.2923C92.3579 34.2468 92.8994 32.9772 94.0382 32.9772H94.6543V30.9236V28.87H94.0195C93.2728 28.87 92.7873 28.3472 92.7873 27.5631C92.7873 27.3017 92.918 26.891 93.0861 26.667C93.3474 26.2749 93.4781 26.2562 96.2225 26.2562C98.8549 26.2562 99.0976 26.2936 99.415 26.6296C99.8444 27.115 99.8444 28.0112 99.415 28.4966C99.1723 28.7579 98.8363 28.87 98.2575 28.87H97.4547V30.9236V32.9772H98.3509C99.0043 32.9772 99.359 33.0706 99.583 33.332C100.012 33.7987 100.012 34.6575 99.6017 35.2736C99.3217 35.703 99.1536 35.7777 98.3695 35.7777H97.4547V44.739V53.7004H100.815H104.176V41.2852V28.87H102.888C101.749 28.87 101.543 28.8139 101.301 28.4592C100.927 27.9178 100.927 27.2084 101.301 26.667C101.562 26.2749 101.711 26.2562 104.288 26.2562H106.976V38.2047V50.1532H116.199H125.422L125.832 50.8066C126.15 51.3293 126.224 51.6841 126.168 52.5802L126.112 53.7004H131.863H137.594V36.3751C137.594 19.4605 137.594 19.0311 137.949 18.7138C138.154 18.5271 138.64 18.2657 139.032 18.1163C139.666 17.8923 139.386 17.8736 136.007 17.855C132.591 17.855 132.217 17.8176 131.657 17.4816C130.257 16.6228 130.294 14.8118 131.732 13.9344C132.292 13.5796 132.684 13.561 139.722 13.561H147.116L147.788 14.1771C148.646 14.9425 148.814 15.9693 148.254 16.8841C148.03 17.2202 147.638 17.5749 147.377 17.6683C147.116 17.7803 145.286 17.855 143.326 17.855C140.077 17.8736 139.816 17.8923 140.451 18.1163C140.843 18.2657 141.328 18.5271 141.533 18.7138C141.888 19.0311 141.888 19.4605 141.888 36.3751V53.7004H145.249C147.097 53.7004 148.609 53.663 148.609 53.6257C148.609 53.607 148.516 53.3083 148.404 52.9909C148.161 52.3188 148.404 51.404 149.001 50.6386L149.375 50.1532H153.575H157.757V46.3259V42.4987H154.434C151.167 42.4987 151.092 42.4987 150.868 42.0693C150.551 41.4905 150.551 40.9864 150.831 40.2957L151.073 39.6983H154.415H157.757V28.7206V17.7243L158.224 17.4816C158.765 17.1829 159.643 17.1829 160.166 17.4816C160.558 17.6869 160.558 17.7616 160.558 28.6833V39.6983H163.974H167.409L167.615 40.165C167.913 40.7998 167.895 41.7706 167.577 42.1626C167.353 42.4613 166.943 42.4987 163.937 42.4987H160.558V46.3259V50.1532H164.833H169.108L169.426 50.6572C169.892 51.348 170.06 52.2815 169.892 53.0469L169.743 53.7004H171.778H173.813V35.7777V17.855H186.209H198.606L198.886 18.4524C199.147 18.9751 199.147 19.1245 198.905 19.6846C198.755 20.0393 198.643 20.3567 198.643 20.394C198.643 20.4313 193.696 20.4687 187.628 20.4687H176.613V35.3109V50.1532H187.628H198.643L199.203 50.6759C200.436 51.7774 200.23 53.215 198.643 54.6898L197.691 55.5673H104.12C15.4583 55.5673 10.5296 55.5486 10.0629 55.2313ZM60.6758 48.6596V47.166H58.5288H56.3818V48.6596V50.1532H58.5288H60.6758V48.6596ZM66.4634 32.5105V20.4687H58.6222H50.781V32.5105V44.5523H58.6222H66.4634V32.5105ZM9.70813 38.2047V35.9644H7.46779H5.22746V38.2047V40.445H7.46779H9.70813V38.2047ZM5.19012 33.5933L5.24613 31.297H7.37445H9.52144V28.9633V26.6296H7.37445H5.22746V28.87V31.0916L3.04313 31.1476L0.840127 31.2036L0.784118 33.332C0.765449 34.5081 0.784118 35.591 0.821457 35.7217C0.896135 35.927 1.40021 35.9644 3.02446 35.927L5.13411 35.871L5.19012 33.5933ZM5.19012 24.1652L5.24613 21.7755H2.98712H0.746779V24.0719C0.746779 25.3414 0.802788 26.4429 0.877466 26.5176C0.952144 26.5736 1.94163 26.6109 3.0618 26.5923L5.13411 26.5363L5.19012 24.1652ZM9.70813 19.2552V16.9215H7.56114H5.41415V19.2552V21.5889H7.56114H9.70813V19.2552ZM66.7247 16.6041C66.3327 15.8947 65.9966 15.2972 65.9593 15.2599C65.9406 15.2226 65.7539 15.3159 65.5672 15.4839C65.2499 15.764 64.4844 15.8013 58.2861 15.8013C51.4531 15.8013 51.3598 15.8013 51.0797 15.4093C50.8183 15.0172 50.7997 15.0172 50.445 15.7266C50.2396 16.1374 49.9409 16.7721 49.7915 17.1642L49.4928 17.855H58.4542H67.4155L66.7247 16.6041ZM5.22746 13.841V11.526L7.33711 11.47L9.42809 11.414V9.0803V6.74661L7.33711 6.6906L5.22746 6.63459V9.0803V11.5073H3.17381H1.12017V13.841V16.1747H3.17381H5.22746V13.841Z" fill="white"/>
    <path d="M116.535 49.6678C116.199 49.4438 116.124 49.2011 116.124 48.361V47.3528H112.782C109.515 47.3528 109.422 47.3341 109.142 46.9421C108.75 46.4007 108.768 45.5979 109.142 45.0191L109.441 44.5524H112.782H116.124V43.5256V42.4987H113.081H110.038L109.347 41.7893C108.526 40.9492 108.507 40.6318 109.03 38.4848C109.441 36.8045 112.596 27.3391 114.052 23.4185C114.575 21.9996 115.004 20.7675 115.004 20.6554C115.004 20.5621 114.276 20.4501 113.38 20.4314L111.756 20.3754L111.494 19.6846C111.27 19.1245 111.27 18.9378 111.494 18.4711L111.737 17.9484L113.996 17.8924L116.255 17.8363L116.852 16.1934C117.543 14.2891 118.103 13.561 118.887 13.561C119.522 13.561 120.101 14.1211 120.082 14.7185C120.082 14.9612 119.858 15.6707 119.597 16.3054C119.335 16.9589 119.111 17.5563 119.111 17.6683C119.111 17.7803 120.25 17.855 122.285 17.855H125.459L125.832 18.4524C126.392 19.3859 125.87 20.5248 124.918 20.4501C124.656 20.4314 122.92 20.4314 121.072 20.4501L117.711 20.4687L117.394 21.4582C117.226 21.981 116.274 24.7441 115.284 27.5631C113.417 32.8466 111.27 39.2502 111.27 39.5303C111.27 39.6236 112.372 39.6983 113.697 39.6983H116.124V33.388V27.0591L116.554 26.667C117.114 26.1443 117.823 26.1443 118.327 26.6857C118.738 27.1151 118.738 27.2084 118.738 33.4067V39.6983L122.136 39.7357L125.534 39.7917L125.963 40.4078C126.411 41.0799 126.374 41.4159 125.776 42.088C125.403 42.4801 125.272 42.4987 122.061 42.4987H118.738V43.5256V44.5524H122.061L125.366 44.571L125.72 45.0378C126.15 45.6352 126.168 46.214 125.739 46.8487L125.422 47.3528H122.08H118.738V48.361C118.738 49.2011 118.663 49.4438 118.327 49.6678C118.103 49.8358 117.692 49.9665 117.431 49.9665C117.17 49.9665 116.759 49.8358 116.535 49.6678Z" fill="white"/>
    <path d="M194.853 49.7425C194.685 49.6118 193.509 47.6142 192.24 45.2992C189.514 40.3331 188.655 38.9515 188.282 38.9515C187.927 38.9515 187.442 39.6236 184.118 44.6457C182.644 46.9047 181.206 48.9771 180.945 49.2758C180.179 50.0786 179.227 49.8732 179.227 48.865C179.227 48.1929 180.161 46.6434 183.502 41.752C185.537 38.7835 186.508 37.1966 186.508 36.8606C186.508 36.3565 186.247 35.9271 183.334 31.7638C180.609 27.8619 180.497 27.6752 180.123 26.8164C179.19 24.6507 180.198 23.5866 181.691 25.1548C182.532 26.0509 185.743 30.8116 186.77 32.6973C188.002 34.9749 188.319 35.1243 189.029 33.7801C190.018 31.8758 193.584 26.3496 194.293 25.6029C195.47 24.352 196.646 24.3333 196.646 25.5655C196.646 26.1256 195.395 28.2166 193.528 30.8116C190.821 34.5829 189.869 36.1138 189.869 36.7112C189.869 37.0473 190.167 37.7567 190.597 38.4475C192.034 40.7625 195.526 46.8674 195.955 47.8569C196.198 48.3983 196.403 49.0517 196.403 49.2944C196.403 49.9479 195.488 50.2092 194.853 49.7425Z" fill="white"/>
    <path d="M145.267 42.7229L144.689 42.4056L144.651 30.5131L144.595 18.6206L145.099 18.3406C145.715 17.9672 146.35 17.9672 146.892 18.3406L147.302 18.6206V30.4384C147.302 43.1337 147.358 42.4616 146.331 42.8536C145.958 42.9843 145.715 42.9656 145.267 42.7229Z" fill="white"/>
    <path d="M132.777 42.5736L132.367 42.2935V30.4197C132.367 17.0151 132.236 18.0605 133.86 18.0605C135.484 18.0605 135.354 17.0151 135.354 30.4197V42.2935L134.943 42.5736C134.719 42.7416 134.234 42.8723 133.86 42.8723C133.487 42.8723 133.001 42.7416 132.777 42.5736Z" fill="white"/>
    <path d="M85.1703 42.2935C84.8155 42.1628 84.7595 41.9948 84.7595 41.136C84.7595 40.0158 86.2344 35.5165 88.8668 28.6834C89.7069 26.4804 90.8458 23.4933 91.3872 22.0558C91.9286 20.6182 92.8807 18.2659 93.4968 16.8283C94.449 14.6066 94.7104 14.1586 95.2144 13.8972C95.9052 13.5425 96.7827 13.7292 97.1001 14.3453C97.3241 14.756 97.044 16.2496 96.596 17.1457C96.4466 17.4257 96.3346 17.6871 96.3346 17.7618C96.3346 17.8178 96.9134 17.8551 97.6228 17.8551C98.8923 17.8551 98.911 17.8551 99.191 18.4712C99.6764 19.4794 99.2657 20.5062 98.4069 20.4689C98.1455 20.4502 97.3241 20.4315 96.596 20.4502L95.2704 20.4689L94.505 22.2051C92.7501 26.2004 91.2378 30.233 89.5389 35.4231C87.616 41.2667 87.2612 41.9761 86.1597 42.2935C85.8424 42.3682 85.413 42.3682 85.1703 42.2935Z" fill="white"/>
    <path d="M103.298 21.2717C103.056 21.2344 102.626 20.9356 102.309 20.6369C101.842 20.1515 101.749 19.9275 101.749 19.162C101.749 18.3966 101.842 18.1726 102.327 17.6872C102.813 17.2017 103.037 17.1084 103.802 17.1084C104.568 17.1084 104.792 17.2017 105.277 17.6872C105.763 18.1726 105.856 18.3966 105.856 19.162C105.856 19.9275 105.763 20.1515 105.277 20.6369C104.96 20.9543 104.586 21.2157 104.456 21.2157C104.325 21.2157 104.101 21.253 103.952 21.2904C103.821 21.3277 103.522 21.309 103.298 21.2717Z" fill="white"/>
    <path d="M136.287 10.275C135.802 9.30422 135.839 8.14671 136.381 7.34392L136.717 6.83984L139.704 6.87718L142.71 6.93319L143.139 7.56795C143.68 8.35207 143.68 9.26688 143.176 10.331L142.784 11.1338H139.741H136.698L136.287 10.275Z" fill="white"/>
</svg>
