<svg width="161" height="63" viewBox="0 0 161 63" fill="none" xmlns="http://www.w3.org/2000/svg">
    <path d="M29.5359 62.2747C24.9854 61.9467 20.4243 60.6344 16.6252 58.5391C7.86282 53.724 1.96833 45.1204 0.64551 35.2363C0.402111 33.4478 0.328033 30.5482 0.476189 28.7809C1.12173 21.0345 4.35999 14.1664 9.91584 8.76925C12.2228 6.53633 14.7627 4.75846 17.7893 3.2769C20.9006 1.74243 23.8002 0.842906 27.1972 0.345526C29.3137 0.0386309 33.4832 0.00688319 35.5151 0.292613C42.5313 1.27679 48.6586 4.30341 53.5584 9.20314C58.2359 13.8701 61.3789 20.1561 62.3419 26.7702C62.7229 29.3629 62.744 32.8234 62.3948 35.3209C61.4106 42.2737 58.2464 48.5915 53.3256 53.3854C50.0555 56.5813 46.5315 58.8142 42.2773 60.4122C38.3935 61.8514 33.5996 62.5605 29.5359 62.2747ZM32.3932 50.8985C35.822 50.4117 38.9756 49.2264 41.7694 47.3851C44.3092 45.6918 46.7749 43.1626 48.32 40.6334C51.8757 34.8341 52.5954 27.6274 50.2672 21.3308C48.8385 17.4893 46.2564 13.9865 42.9229 11.4043C39.9598 9.09731 35.8961 7.47818 31.9805 7.02313C30.446 6.84323 27.0808 6.95963 25.5992 7.23478C18.0433 8.65284 11.8419 13.7219 9.00574 20.7805C7.35486 24.9077 6.99505 29.6487 8.02156 34.0722C9.12215 38.8238 11.9054 43.2049 15.8209 46.3162C18.911 48.782 22.8372 50.4223 26.8374 50.9408C27.9909 51.089 31.2397 51.0678 32.3932 50.8985Z" fill="white"/>
    <path d="M28.6893 49.7235C25.5251 49.5118 22.6784 48.7711 20.2021 47.5012C15.1436 44.9084 11.5032 40.6225 9.76766 35.236C7.72522 28.9076 8.84697 22.0712 12.8154 16.6106C16.0431 12.1765 20.7629 9.31924 26.467 8.33506C27.9062 8.09166 31.2291 8.09166 32.7107 8.34564C38.9756 9.39331 44.2139 12.9067 47.3781 18.1557C52.2567 26.2725 51.082 36.6011 44.5102 43.3634C41.1767 46.8027 37.1448 48.8451 32.4461 49.5118C31.2291 49.6812 29.5253 49.7764 28.6893 49.7235ZM29.483 42.4321C36.0336 41.4268 41.3778 36.5694 42.9758 30.1563C43.3356 28.7171 43.4626 27.6588 43.4626 25.9762C43.4626 18.5472 38.2877 11.9437 31.0175 10.1023C27.9591 9.32982 24.8055 9.44623 21.853 10.4198C17.6199 11.8167 14.1912 14.7693 12.2016 18.7377C9.75707 23.6057 9.89465 29.5214 12.5615 34.1777C15.0166 38.4742 19.2285 41.4797 24.0118 42.3686C25.3769 42.6226 28.0438 42.6543 29.483 42.4321Z" fill="white"/>
    <path d="M96.0474 50.9514C93.7722 50.6445 92.3435 49.0359 92.3435 46.7818C92.3435 44.951 93.2642 43.5753 94.9574 42.8874C95.5289 42.6652 95.7193 42.644 97.529 42.644C99.2857 42.6546 99.5502 42.6758 100.101 42.8874C101.339 43.3425 102.196 44.2208 102.577 45.4061C102.841 46.2739 102.81 46.295 101.413 46.295H100.206L99.9206 45.8717C99.4867 45.2156 99.2328 45.1098 97.984 45.0145C96.2061 44.8664 95.4019 45.1733 95.0421 46.1363C94.8092 46.7183 94.8939 47.3427 95.2537 47.893C95.6453 48.4962 96.0368 48.6232 97.5184 48.6232C99.0317 48.6232 99.4338 48.475 99.8889 47.7872L100.175 47.3533H101.455H102.746L102.672 47.7872C102.418 49.4063 100.905 50.708 99.0105 50.9514C98.1004 51.0678 96.894 51.0678 96.0474 50.9514Z" fill="white"/>
    <path d="M117.054 50.9405C116.355 50.8241 115.667 50.5595 115.138 50.1997C113.435 49.0356 112.905 46.464 114.006 44.6333C114.577 43.6597 115.403 43.0776 116.652 42.7496C117.477 42.5379 119.922 42.5379 120.758 42.7496C122.059 43.0882 123.012 43.8607 123.541 45.0036C123.795 45.5434 123.827 45.7233 123.827 46.8238C123.827 47.9456 123.805 48.0938 123.53 48.6441C122.906 49.9245 121.7 50.75 120.165 50.9511C119.234 51.0675 117.795 51.0675 117.054 50.9405ZM120.525 48.3054C121.604 47.5752 121.52 45.8079 120.377 45.2365C120.038 45.0566 119.752 45.0248 118.631 45.0248C117.456 45.0248 117.244 45.0566 116.884 45.2576C115.847 45.8397 115.763 47.5011 116.726 48.2313C117.191 48.5911 117.297 48.6123 118.811 48.5911C120.038 48.57 120.165 48.5488 120.525 48.3054Z" fill="white"/>
    <path d="M73.7393 46.8031L73.771 42.75H77.8453H81.9196L81.9513 43.84L81.9831 44.9194H79.1681H76.3637V45.5015V46.0835H78.7448H81.1259V47.1947V48.3058H78.7448H76.3637V49.5758V50.8457H75.0409H73.7075L73.7393 46.8031Z" fill="white"/>
    <path d="M81.8667 50.7395C81.8667 50.6231 83.7186 43.5751 83.888 43.0354L84.0044 42.6968L87.0839 42.7179L90.1634 42.7497L91.1476 46.4536C91.6873 48.496 92.153 50.3162 92.1953 50.5067L92.2588 50.8454H90.9783H89.7084L89.592 50.4009C89.5285 50.1469 89.4544 49.8612 89.4227 49.7659C89.3697 49.5966 89.1687 49.5754 87.0522 49.5754C84.9356 49.5754 84.7346 49.5966 84.6817 49.7659C84.6499 49.8612 84.5758 50.1469 84.5123 50.4009L84.3959 50.8454H83.1366C82.3747 50.8454 81.8667 50.803 81.8667 50.7395ZM88.6925 46.9616C88.6607 46.7922 88.5231 46.2949 88.3961 45.8292L88.1633 45.0038H87.0522L85.941 44.9932L85.7188 45.7763C85.5918 46.2102 85.4542 46.7182 85.4119 46.9086L85.3378 47.2473H87.0522H88.7665L88.6925 46.9616Z" fill="white"/>
    <path d="M106.82 47.914L106.789 44.972L105.074 45.0144L103.349 45.0461V43.8714V42.6968L108.09 42.7179L112.821 42.7497L112.853 43.7974C112.874 44.5699 112.842 44.8768 112.747 44.9403C112.673 44.9932 111.9 45.0249 111.022 45.0144L109.434 44.9932L109.403 47.9246L109.381 50.8454H108.112H106.842L106.82 47.914Z" fill="white"/>
    <path d="M124.832 46.7711V42.6968H127.88C131.816 42.6968 132.451 42.8132 133.351 43.7021C134.007 44.3582 134.197 44.8556 134.197 45.8715C134.197 46.9404 133.975 47.4589 133.234 48.1574L132.769 48.6019L133.33 49.4273C133.647 49.8929 133.986 50.3903 134.092 50.5596L134.272 50.8454H132.79H131.298L130.79 49.9776L130.271 49.0992L128.822 49.0675L127.372 49.0357V49.9458V50.8454H126.102H124.832V46.7711ZM131.16 46.6547C131.467 46.5912 131.763 45.988 131.668 45.6176C131.541 45.099 131.287 45.0355 129.277 45.0144L127.425 45.0038L127.393 45.7763C127.372 46.1996 127.382 46.5912 127.403 46.6547C127.446 46.7711 130.631 46.7711 131.16 46.6547Z" fill="white"/>
    <path d="M138.06 49.3215V47.7976L137.499 47.078C137.192 46.6759 136.282 45.5435 135.467 44.5488L134.007 42.7497L135.478 42.718C136.282 42.7074 136.991 42.7074 137.065 42.7392C137.14 42.7709 137.658 43.3635 138.23 44.062C138.801 44.771 139.298 45.3319 139.33 45.3213C139.372 45.3001 139.827 44.771 140.335 44.1255C140.843 43.4905 141.341 42.8979 141.425 42.8344C141.616 42.6862 144.516 42.6333 144.516 42.7815C144.516 42.8238 143.637 43.9456 142.558 45.279L140.6 47.7024V49.2792V50.8454H139.33H138.06V49.3215Z" fill="white"/>
    <path d="M88.6819 39.2681C87.0521 38.8977 85.8563 37.7653 85.5071 36.252C84.9145 33.744 86.2373 31.6275 88.7348 31.0983C89.7824 30.8761 91.7191 30.9078 92.6927 31.1512C94.661 31.6592 95.8357 33.1513 95.8357 35.1726C95.8357 37.0563 94.8832 38.4215 93.0948 39.1093C92.3223 39.4056 89.6978 39.5009 88.6819 39.2681ZM92.3117 36.7812C93.4969 36.2415 93.5181 34.2625 92.3434 33.6064C91.9942 33.4159 91.772 33.3842 90.6608 33.3842C89.2322 33.3842 88.8723 33.4794 88.3855 34.0085C88.1421 34.2625 88.0681 34.453 88.0257 34.9081C87.9622 35.6488 88.0363 35.924 88.3961 36.3579C88.8406 36.8764 89.1792 36.9717 90.5973 36.9717C91.6238 36.9822 91.9519 36.9399 92.3117 36.7812Z" fill="white"/>
    <path d="M100.048 39.3105C99.4338 39.2047 98.5131 38.7919 97.9946 38.4004C97.1162 37.7337 96.5765 36.4955 96.5765 35.1833C96.5765 33.7652 97.0951 32.6646 98.111 31.8921C99.0952 31.1513 99.6455 31.0138 101.709 31.0138C103.138 31.0032 103.635 31.0455 104.101 31.1831C105.36 31.5746 106.397 32.5482 106.81 33.7441C107.085 34.5166 107.064 35.9981 106.768 36.7495C106.313 37.8924 105.339 38.7919 104.154 39.1623C103.529 39.3634 100.852 39.4586 100.048 39.3105ZM103.625 36.7072C104.207 36.2839 104.355 35.9664 104.355 35.1939C104.355 34.5695 104.312 34.4319 104.048 34.0827C103.879 33.8605 103.582 33.6171 103.392 33.5324C102.915 33.3313 100.725 33.3313 100.238 33.5324C98.7565 34.1462 98.82 36.3791 100.333 36.8977C100.45 36.94 101.169 36.9612 101.942 36.9506C103.169 36.9294 103.371 36.8977 103.625 36.7072Z" fill="white"/>
    <path d="M121.551 39.3526C120.991 39.2785 120.165 38.9928 119.784 38.7282C119.139 38.2943 118.694 37.5218 118.694 36.8233V36.453H119.911C121.054 36.453 121.128 36.4635 121.371 36.7069C121.721 37.0562 122.102 37.1091 123.753 37.0667C124.906 37.0456 125.171 37.0032 125.329 36.8445C125.478 36.7069 125.488 36.6223 125.403 36.4741C125.298 36.3154 125.012 36.2836 123.075 36.2307C121.435 36.1778 120.747 36.1143 120.398 35.9873C119.244 35.564 118.736 34.7915 118.821 33.5851C118.916 32.3681 119.583 31.5956 120.916 31.1828C121.371 31.0453 121.901 31.0029 123.35 31.0029C125.509 31.0029 126.239 31.1617 126.959 31.786C127.435 32.1882 127.901 33.0454 127.901 33.5216V33.8073H126.631C125.583 33.8073 125.34 33.7756 125.287 33.6486C125.16 33.2888 124.673 33.1724 123.329 33.1724C121.954 33.1724 121.53 33.2782 121.467 33.6486C121.382 34.0613 121.689 34.1248 123.827 34.1248C126.049 34.1248 126.578 34.22 127.224 34.7068C128.356 35.564 128.367 37.5535 127.245 38.506C126.483 39.1621 125.784 39.3314 123.721 39.3632C122.737 39.3843 121.752 39.3737 121.551 39.3526Z" fill="white"/>
    <path d="M143.299 39.3105C140.886 38.8131 139.552 36.9506 139.88 34.5166C140.113 32.7493 141.436 31.4053 143.288 31.0667C144.113 30.9185 146.145 30.9185 146.865 31.0667C148.209 31.3524 149.32 32.1567 149.828 33.1938C151.13 35.8712 149.69 38.7708 146.801 39.2999C146.082 39.4375 143.933 39.4375 143.299 39.3105ZM146.928 36.686C147.373 36.3686 147.69 35.7336 147.69 35.1833C147.69 34.633 147.373 33.9981 146.928 33.6806C146.611 33.4583 146.442 33.4372 145.203 33.4054C143.933 33.3737 143.796 33.3843 143.351 33.6171C142.801 33.9028 142.399 34.5695 142.399 35.1727C142.399 35.8923 142.992 36.7389 143.616 36.9083C143.732 36.94 144.452 36.9612 145.203 36.9506C146.463 36.9294 146.611 36.9083 146.928 36.686Z" fill="white"/>
    <path d="M73.7922 39.2471C73.7499 39.2047 73.7181 37.3739 73.7181 35.1728V31.1831L73.9615 31.1196C74.0885 31.0879 74.6494 31.0562 75.1997 31.0562H76.205L77.6654 32.5483C78.4697 33.3632 79.1682 34.0193 79.2105 33.9981C79.2528 33.9769 79.7925 33.4161 80.4063 32.7494C82.1101 30.8868 81.8561 31.0456 83.2001 31.0773L84.3536 31.1091V35.1834V39.2576L83.1684 39.2894L81.9725 39.3211V37.194C81.9725 36.03 81.9408 35.0775 81.8879 35.0775C81.8456 35.0775 81.2423 35.649 80.5439 36.3474C79.8454 37.0459 79.2317 37.6173 79.1682 37.6173C79.1047 37.6173 78.438 36.993 77.6866 36.2416L76.3109 34.8659L76.258 37.0565L76.205 39.2576L75.0304 39.2894C74.3954 39.3 73.8345 39.2788 73.7922 39.2471Z" fill="white"/>
    <path d="M107.953 39.1839C107.921 39.1098 107.91 37.2579 107.921 35.0779L107.953 31.1094L109.212 31.0776L110.461 31.0459L111.858 32.4005C112.62 33.1518 113.678 34.1572 114.196 34.6546L115.149 35.5541L115.202 33.3317L115.255 31.1094L116.451 31.0776L117.636 31.0459V35.1837V39.3109H116.419H115.191L112.842 37.0356L110.493 34.771L110.44 37.0145L110.387 39.258L109.191 39.2897C108.302 39.3109 107.984 39.2791 107.953 39.1839Z" fill="white"/>
    <path d="M129.118 39.1839C129.086 39.1098 129.076 37.2579 129.086 35.0779L129.118 31.1094L130.367 31.0776L131.605 31.0459V32.4851V33.9138H133.859H136.102L136.071 32.538C136.018 30.9189 135.912 31.0247 137.584 31.0776L138.642 31.1094L138.674 35.1519L138.695 39.2051L138.462 39.258C138.325 39.2897 137.743 39.3109 137.161 39.2897L136.102 39.258L136.071 37.7552L136.039 36.2419H133.827H131.615L131.584 37.7552L131.552 39.258L130.356 39.2897C129.467 39.3109 129.15 39.2791 129.118 39.1839Z" fill="white"/>
    <path d="M154.432 39.2469C154.389 39.2046 154.357 37.8712 154.357 36.2732V33.3841H152.611H150.855L150.886 32.2518L150.918 31.1089H155.627H160.337L160.368 32.2412L160.4 33.3841L158.675 33.4053L156.95 33.4371L156.897 36.3473L156.844 39.2575L155.67 39.2892C155.035 39.2998 154.474 39.2786 154.432 39.2469Z" fill="white"/>
    <path d="M130.621 27.405C130.06 27.024 129.594 26.6748 129.594 26.6219C129.594 26.5795 129.7 26.4526 129.827 26.3361C130.229 25.9763 131.287 24.59 131.541 24.0821C132.155 22.8862 132.42 21.5528 132.525 19.2352L132.589 17.7219H131.806H131.023L130.991 16.7166L130.959 15.7112H132.832H134.695L134.642 15.4784C134.409 14.4625 134.335 14.0074 134.388 13.944C134.452 13.8805 136.346 13.6159 136.801 13.5947C136.938 13.5947 137.034 13.8381 137.235 14.6318L137.489 15.6583L139.203 15.6901L140.917 15.7112V16.7166V17.7219L137.986 17.7431L135.044 17.7748L135.012 18.5262L134.981 19.267L137.51 19.2247C138.907 19.2035 140.071 19.2247 140.103 19.2776C140.166 19.394 139.891 24.6429 139.764 25.6271C139.637 26.6854 139.383 27.1298 138.737 27.4579C138.251 27.7013 138.113 27.7225 136.526 27.7225H134.832L134.663 27.0346C134.579 26.6536 134.473 26.1986 134.43 26.0081L134.367 25.68L135.626 25.6377C137.446 25.5954 137.341 25.7753 137.573 22.3042L137.626 21.4258H136.208C134.61 21.4258 134.78 21.3306 134.568 22.4312C134.388 23.4154 133.944 24.6853 133.499 25.553C133.086 26.3467 131.869 28.0928 131.732 28.0928C131.689 28.0928 131.192 27.786 130.621 27.405Z" fill="white"/>
    <path d="M91.7297 27.4686C91.2535 27.1935 90.809 26.9183 90.7455 26.8548C90.6608 26.7701 90.7984 26.5585 91.2323 26.114C92.3011 25.0452 92.7244 24.1986 92.9361 22.7488C92.9784 22.463 93.0419 20.4312 93.0737 18.2512L93.1372 14.2827H98.9047H104.672V20.3677V26.4527L104.418 26.8866C103.995 27.6485 103.741 27.712 101.127 27.7543L98.8412 27.7967L98.6613 26.8548C98.5554 26.3468 98.439 25.8389 98.4179 25.7436C98.365 25.5637 98.4919 25.5532 100.069 25.5532C101.042 25.5532 101.868 25.5108 101.984 25.4473C102.154 25.3521 102.185 25.2145 102.185 24.5478V23.7541L98.7353 23.7753L95.296 23.807L95.0314 24.5901C94.6822 25.6378 94.5552 25.8706 93.6875 27.0135C93.2642 27.585 92.8832 27.9871 92.7774 27.9766C92.6821 27.9766 92.2165 27.7437 91.7297 27.4686ZM102.185 20.8968V20.156H98.8518H95.5182V20.8968V21.6376H98.8518H102.185V20.8968ZM102.185 17.2458V16.4521H98.8518H95.5182V17.2458V18.0395H98.8518H102.185V17.2458Z" fill="white"/>
    <path d="M73.6123 26.7174V25.7649H75.4749H77.3374L77.0093 25.3522C76.8294 25.13 76.6813 24.9183 76.6813 24.8972C76.6813 24.8654 76.8718 24.7808 77.1046 24.7067C77.3374 24.6326 77.5067 24.548 77.475 24.5162C77.4538 24.4845 76.9882 24.4633 76.4485 24.4633C75.8241 24.4739 75.4325 24.4315 75.3902 24.3469C75.3479 24.2834 75.3056 23.5426 75.3056 22.7172V21.1933L74.6177 21.5848L73.9298 21.9658L73.8134 21.6695C73.3054 20.3573 73.189 19.9974 73.2631 19.9657C73.6864 19.8175 75.4643 18.7699 75.4855 18.664C75.496 18.5794 75.1786 18.2619 74.7764 17.9444C74.3637 17.6375 74.0356 17.3412 74.0356 17.2989C74.0356 17.1507 75.3161 16.1136 75.4431 16.1666C75.5172 16.1983 75.9299 16.484 76.3638 16.8227L77.1575 17.4153L77.7607 16.7909C78.0994 16.4417 78.3745 16.1031 78.3745 16.0396C78.3745 15.9549 77.7078 15.9232 76.2051 15.9232H74.0356V15.0765V14.2299L77.4009 14.2511L80.7556 14.2829L80.7873 15.2459L80.8191 16.2089L80.3323 16.8544C80.0677 17.2142 79.8561 17.5423 79.8561 17.5952C79.8561 17.6587 82.3959 17.6375 82.47 17.574C82.4805 17.5635 82.2583 17.1084 81.9726 16.5581C81.5069 15.6374 80.872 14.1241 80.9355 14.0712C80.9566 14.0606 81.454 14.0183 82.0466 13.976L83.1155 13.9125L83.2531 14.3146C83.5176 15.1506 83.4753 15.14 84.3854 14.6427C84.8299 14.3993 85.3272 14.103 85.486 13.9971C85.6341 13.8913 85.8035 13.8066 85.867 13.8066C85.9199 13.8066 86.2373 14.1241 86.576 14.5157L87.1686 15.2141L85.9199 15.8808C85.232 16.2512 84.6288 16.5687 84.5653 16.6004C84.4912 16.6216 84.5018 16.7063 84.5759 16.8333C84.8299 17.2777 84.9674 17.246 86.3008 16.5158C87.0099 16.1242 87.6554 15.8173 87.7295 15.8385C87.9306 15.8914 88.9571 17.0978 88.8936 17.2142C88.8618 17.2671 88.2798 17.5846 87.6025 17.9233L86.3643 18.5476L87.4332 19.0768C88.0258 19.3625 88.6608 19.6482 88.8407 19.7117L89.1793 19.8281L88.7877 20.6007C88.2057 21.7753 88.1845 21.7859 87.5708 21.479C87.285 21.3308 87.031 21.2144 87.0099 21.2144C86.9781 21.2144 86.9358 21.9446 86.9252 22.8336L86.8935 24.4421L85.814 24.4315C85.2108 24.4315 84.724 24.4633 84.724 24.495C84.724 24.5374 84.9145 24.622 85.1473 24.6961C85.3802 24.7596 85.5706 24.8548 85.5706 24.8972C85.5601 24.9395 85.4225 25.1406 85.2426 25.3416L84.9251 25.712L86.7876 25.7438L88.6396 25.7649V26.7174V27.6698H81.126H73.6123V26.7174ZM82.4911 25.1723C82.7874 24.8548 83.0308 24.548 83.0308 24.5162C83.0308 24.4739 82.1525 24.4421 81.0731 24.4421C79.9936 24.4421 79.1153 24.4739 79.1153 24.5162C79.1153 24.5585 79.2634 24.7596 79.4328 24.9501C79.6127 25.1512 79.7502 25.3416 79.7502 25.384C79.7502 25.4157 79.6232 25.511 79.4645 25.5956C79.1894 25.7438 79.2634 25.7544 80.5545 25.7649H81.9514L82.4911 25.1723ZM84.5124 22.2727V21.8494H81.1895H77.8665L77.8136 22.1986C77.7925 22.3785 77.7819 22.569 77.8136 22.6219C77.8348 22.6643 79.3587 22.696 81.1895 22.696H84.5124V22.2727ZM84.8299 19.9339C84.6817 19.807 84.3854 19.553 84.1632 19.3519C83.6975 18.9392 83.56 18.9074 83.56 19.2038C83.56 19.4048 83.4859 19.4154 81.1154 19.4154C78.7661 19.4154 78.6708 19.4048 78.6179 19.2038C78.5861 19.0873 78.5438 18.9921 78.5121 18.9921C78.4274 18.9921 77.2633 19.9657 77.2316 20.0609C77.2104 20.1139 78.8825 20.1562 81.1471 20.1562L85.0944 20.1456L84.8299 19.9339Z" fill="white"/>
    <path d="M108.239 26.0612L108.27 24.9712H111.307H114.355L114.366 22.061C114.376 20.463 114.376 18.6746 114.376 18.0925V17.0343L111.794 16.9814L109.223 16.9285L109.191 15.849C109.159 14.8014 109.17 14.759 109.403 14.7061C109.54 14.6744 112.524 14.6638 116.048 14.6744L122.451 14.7061V15.8173V16.9285L119.837 16.9602L117.213 16.9814V20.9498V24.9183H120.165C121.795 24.9183 123.192 24.9501 123.287 24.9818C123.425 25.0347 123.456 25.2358 123.456 26.093V27.1406H115.837H108.207L108.239 26.0612Z" fill="white"/>
    <path d="M125.477 25.2673C125.403 24.8651 125.329 24.3995 125.298 24.209C125.245 23.9127 125.266 23.8598 125.477 23.8174C125.615 23.7857 126.017 23.701 126.366 23.627L127.001 23.4894L127.033 21.3517L127.054 19.214L126.292 19.1823L125.52 19.1505V18.0394V16.9282L126.049 16.9599C127.086 17.0129 127.044 17.0869 127.075 15.3091L127.107 13.7534H128.218H129.33L129.361 15.362L129.393 16.9599L130.049 16.9494L130.705 16.9282V18.0394V19.1505L130.049 19.1823L129.382 19.214V21.0977V22.9814L129.89 22.8862C130.166 22.8333 130.462 22.7804 130.547 22.7698C130.663 22.7486 130.726 22.992 130.843 23.7434C130.917 24.2937 130.949 24.7699 130.896 24.8122C130.801 24.8969 126.049 25.9763 125.774 25.9763C125.636 25.9763 125.562 25.807 125.477 25.2673Z" fill="white"/>
</svg>
