<svg width="201" height="39" viewBox="0 0 201 39" fill="none" xmlns="http://www.w3.org/2000/svg">
    <g clip-path="url(#clip0_21_15112)">
        <path d="M129.434 10.2975C130.79 10.2975 131.888 11.3957 131.888 12.7515H141.704C141.704 5.9785 136.214 0.481567 129.434 0.481567C122.655 0.481567 117.165 5.9785 117.165 12.7515V15.2055C117.165 21.9846 122.655 27.4754 129.434 27.4754C136.214 27.4754 141.704 21.9846 141.704 15.2055H131.888C131.888 16.5613 130.79 17.6595 129.434 17.6595C128.079 17.6595 126.981 16.5613 126.981 15.2055V12.7515C126.981 11.3957 128.079 10.2975 129.434 10.2975Z" fill="white"/>
        <path d="M31.2748 0.481567H30.0479V27.4754H39.8638V25.0214H52.1337V15.2055H39.8638V10.2975H54.5877V0.481567H39.8638H31.2748Z" fill="white"/>
        <path d="M20.232 0.481567H0.600098V27.4754H10.416V12.7515C10.416 11.3957 11.5142 10.2975 12.87 10.2975C14.2259 10.2975 15.324 11.3957 15.324 12.7515V27.4754H25.14V5.38954C25.14 2.67789 22.9437 0.481567 20.232 0.481567Z" fill="white"/>
        <path d="M188.33 0.481567C181.551 0.481567 176.06 5.97236 176.06 12.7515V27.4754H185.876V12.7515C185.876 11.3957 186.974 10.2975 188.33 10.2975C189.686 10.2975 190.784 11.3957 190.784 12.7515V27.4754H200.6V12.7515C200.6 5.97236 195.109 0.481567 188.33 0.481567Z" fill="white"/>
        <path d="M158.882 0.481567C152.103 0.481567 146.612 5.9785 146.612 12.7515V27.4754H156.428V25.0214H161.336V27.4754H171.152V12.7515C171.152 5.9785 165.661 0.481567 158.882 0.481567ZM161.336 15.2055H156.428V12.7515C156.428 11.3957 157.526 10.2975 158.882 10.2975C160.232 10.2975 161.336 11.3957 161.336 12.7515V15.2055Z" fill="white"/>
        <path d="M59.4958 10.2975H66.2443V27.4754H76.0603V10.2975H82.8087V0.481567H59.4958V10.2975Z" fill="white"/>
        <path d="M99.9865 10.2975C101.342 10.2975 102.44 11.3957 102.44 12.7515H112.256C112.256 5.9785 106.766 0.481567 99.9865 0.481567C93.2073 0.481567 87.7166 5.9785 87.7166 12.7515C87.7166 19.5306 93.2073 25.0214 99.9865 25.0214C101.336 25.0214 102.44 26.1196 102.44 27.4754C102.44 27.9233 102.312 28.3405 102.097 28.7024H112.195C112.238 28.2975 112.256 27.8926 112.256 27.4754C112.256 20.6963 106.766 15.2055 99.9865 15.2055C98.6307 15.2055 97.5325 14.1073 97.5325 12.7515C97.5325 11.3957 98.6307 10.2975 99.9865 10.2975Z" fill="white"/>
        <path d="M97.5325 27.4754H87.7166C87.7166 27.8926 87.7411 28.2975 87.7779 28.7024H97.8761C97.6613 28.3404 97.5325 27.9233 97.5325 27.4754Z" fill="white"/>
        <path d="M88.2812 31.1564H111.692C111.815 30.7577 111.925 30.3466 112.011 29.9294H87.9622C88.048 30.3466 88.1523 30.7577 88.2812 31.1564Z" fill="white"/>
        <path d="M89.3731 33.6104H110.6C110.827 33.2116 111.042 32.8067 111.226 32.3834H88.7412C88.9314 32.8067 89.14 33.2116 89.3731 33.6104Z" fill="white"/>
        <path d="M91.2319 36.0644H108.741C109.115 35.684 109.459 35.2669 109.784 34.8374H90.189C90.508 35.2669 90.8577 35.684 91.2319 36.0644Z" fill="white"/>
        <path d="M94.6676 38.5181H105.312C106.03 38.1746 106.698 37.7635 107.33 37.2911H92.6492C93.2749 37.7635 93.9498 38.1746 94.6676 38.5181Z" fill="white"/>
    </g>
    <defs>
        <clipPath id="clip0_21_15112">
            <rect width="200" height="38.0368" fill="white" transform="translate(0.600098 0.481567)"/>
        </clipPath>
    </defs>
</svg>
