<svg width="272" height="119" viewBox="0 0 272 119" fill="none" xmlns="http://www.w3.org/2000/svg">
<rect width="271.2" height="119" rx="8" fill="#230062"/>
<g clip-path="url(#clip0_21_14926)">
<path d="M164.434 50.2975C165.79 50.2975 166.888 51.3957 166.888 52.7515H176.704C176.704 45.9785 171.214 40.4816 164.434 40.4816C157.655 40.4816 152.165 45.9785 152.165 52.7515V55.2055C152.165 61.9846 157.655 67.4754 164.434 67.4754C171.214 67.4754 176.704 61.9846 176.704 55.2055H166.888C166.888 56.5613 165.79 57.6595 164.434 57.6595C163.079 57.6595 161.981 56.5613 161.981 55.2055V52.7515C161.981 51.3957 163.079 50.2975 164.434 50.2975Z" fill="white"/>
<path d="M66.2748 40.4816H65.0479V67.4754H74.8638V65.0214H87.1337V55.2055H74.8638V50.2975H89.5877V40.4816H74.8638H66.2748Z" fill="white"/>
<path d="M55.232 40.4816H35.6001V67.4754H45.416V52.7515C45.416 51.3957 46.5142 50.2975 47.87 50.2975C49.2259 50.2975 50.324 51.3957 50.324 52.7515V67.4754H60.14V45.3895C60.14 42.6779 57.9437 40.4816 55.232 40.4816Z" fill="white"/>
<path d="M223.33 40.4816C216.551 40.4816 211.06 45.9724 211.06 52.7515V67.4754H220.876V52.7515C220.876 51.3957 221.974 50.2975 223.33 50.2975C224.686 50.2975 225.784 51.3957 225.784 52.7515V67.4754H235.6V52.7515C235.6 45.9724 230.109 40.4816 223.33 40.4816Z" fill="white"/>
<path d="M193.882 40.4816C187.103 40.4816 181.612 45.9785 181.612 52.7515V67.4754H191.428V65.0214H196.336V67.4754H206.152V52.7515C206.152 45.9785 200.661 40.4816 193.882 40.4816ZM196.336 55.2055H191.428V52.7515C191.428 51.3957 192.526 50.2975 193.882 50.2975C195.232 50.2975 196.336 51.3957 196.336 52.7515V55.2055Z" fill="white"/>
<path d="M94.4958 50.2975H101.244V67.4754H111.06V50.2975H117.809V40.4816H94.4958V50.2975Z" fill="white"/>
<path d="M134.986 50.2975C136.342 50.2975 137.44 51.3957 137.44 52.7515H147.256C147.256 45.9785 141.766 40.4816 134.986 40.4816C128.207 40.4816 122.717 45.9785 122.717 52.7515C122.717 59.5306 128.207 65.0214 134.986 65.0214C136.336 65.0214 137.44 66.1196 137.44 67.4754C137.44 67.9233 137.312 68.3405 137.097 68.7024H147.195C147.238 68.2975 147.256 67.8926 147.256 67.4754C147.256 60.6963 141.766 55.2055 134.986 55.2055C133.631 55.2055 132.533 54.1073 132.533 52.7515C132.533 51.3957 133.631 50.2975 134.986 50.2975Z" fill="white"/>
<path d="M132.533 67.4754H122.717C122.717 67.8926 122.741 68.2975 122.778 68.7024H132.876C132.661 68.3404 132.533 67.9233 132.533 67.4754Z" fill="white"/>
<path d="M123.281 71.1564H146.692C146.815 70.7577 146.925 70.3466 147.011 69.9294H122.962C123.048 70.3466 123.152 70.7577 123.281 71.1564Z" fill="white"/>
<path d="M124.373 73.6104H145.6C145.827 73.2116 146.042 72.8067 146.226 72.3834H123.741C123.931 72.8067 124.14 73.2116 124.373 73.6104Z" fill="white"/>
<path d="M126.232 76.0644H143.741C144.115 75.684 144.459 75.2669 144.784 74.8374H125.189C125.508 75.2669 125.858 75.684 126.232 76.0644Z" fill="white"/>
<path d="M129.668 78.5181H140.312C141.03 78.1746 141.698 77.7635 142.33 77.2911H127.649C128.275 77.7635 128.95 78.1746 129.668 78.5181Z" fill="white"/>
</g>
<defs>
<clipPath id="clip0_21_14926">
<rect width="200" height="38.0368" fill="white" transform="translate(35.6001 40.4816)"/>
</clipPath>
</defs>
</svg>
