<svg width="201" height="39" viewBox="0 0 201 39" fill="none" xmlns="http://www.w3.org/2000/svg">
    <g clip-path="url(#clip0_28_18088)">
        <path d="M129.434 10.0137C130.79 10.0137 131.888 11.1119 131.888 12.4677H141.704C141.704 5.69469 136.213 0.197754 129.434 0.197754C122.655 0.197754 117.164 5.69469 117.164 12.4677V14.9217C117.164 21.7008 122.655 27.1916 129.434 27.1916C136.213 27.1916 141.704 21.7008 141.704 14.9217H131.888C131.888 16.2775 130.79 17.3757 129.434 17.3757C128.078 17.3757 126.98 16.2775 126.98 14.9217V12.4677C126.98 11.1119 128.078 10.0137 129.434 10.0137Z" fill="white"/>
        <path d="M31.2748 0.197754H30.0479V27.1916H39.8638V24.7376H52.1337V14.9217H39.8638V10.0137H54.5877V0.197754H39.8638H31.2748Z" fill="white"/>
        <path d="M20.2319 0.197754H0.599976V27.1916H10.4159V12.4677C10.4159 11.1119 11.5141 10.0137 12.8699 10.0137C14.2257 10.0137 15.3239 11.1119 15.3239 12.4677V27.1916H25.1399V5.10573C25.1399 2.39407 22.9435 0.197754 20.2319 0.197754Z" fill="white"/>
        <path d="M188.33 0.197754C181.551 0.197754 176.06 5.68855 176.06 12.4677V27.1916H185.876V12.4677C185.876 11.1119 186.974 10.0137 188.33 10.0137C189.686 10.0137 190.784 11.1119 190.784 12.4677V27.1916H200.6V12.4677C200.6 5.68855 195.109 0.197754 188.33 0.197754Z" fill="white"/>
        <path d="M158.882 0.197754C152.103 0.197754 146.612 5.69469 146.612 12.4677V27.1916H156.428V24.7376H161.336V27.1916H171.152V12.4677C171.152 5.69469 165.661 0.197754 158.882 0.197754ZM161.336 14.9217H156.428V12.4677C156.428 11.1119 157.526 10.0137 158.882 10.0137C160.232 10.0137 161.336 11.1119 161.336 12.4677V14.9217Z" fill="white"/>
        <path d="M59.4957 10.0137H66.2441V27.1916H76.0601V10.0137H82.8086V0.197754H59.4957V10.0137Z" fill="white"/>
        <path d="M99.9865 10.0137C101.342 10.0137 102.44 11.1119 102.44 12.4677H112.256C112.256 5.69469 106.766 0.197754 99.9865 0.197754C93.2073 0.197754 87.7166 5.69469 87.7166 12.4677C87.7166 19.2468 93.2073 24.7376 99.9865 24.7376C101.336 24.7376 102.44 25.8358 102.44 27.1916C102.44 27.6395 102.312 28.0566 102.097 28.4186H112.195C112.238 28.0137 112.256 27.6088 112.256 27.1916C112.256 20.4125 106.766 14.9217 99.9865 14.9217C98.6307 14.9217 97.5325 13.8235 97.5325 12.4677C97.5325 11.1119 98.6307 10.0137 99.9865 10.0137Z" fill="white"/>
        <path d="M97.5325 27.1914H87.7166C87.7166 27.6086 87.7411 28.0135 87.7779 28.4184H97.8761C97.6613 28.0564 97.5325 27.6393 97.5325 27.1914Z" fill="white"/>
        <path d="M88.2809 30.8725H111.692C111.815 30.4737 111.925 30.0627 112.011 29.6455H87.9619C88.0478 30.0627 88.1521 30.4737 88.2809 30.8725Z" fill="white"/>
        <path d="M89.373 33.3266H110.6C110.827 32.9278 111.042 32.5229 111.226 32.0996H88.7411C88.9313 32.5229 89.1399 32.9278 89.373 33.3266Z" fill="white"/>
        <path d="M91.2319 35.7807H108.741C109.115 35.4003 109.459 34.9832 109.784 34.5537H90.189C90.508 34.9832 90.8577 35.4003 91.2319 35.7807Z" fill="white"/>
        <path d="M94.6675 38.2343H105.312C106.029 37.8908 106.698 37.4797 107.33 37.0073H92.649C93.2748 37.4797 93.9497 37.8908 94.6675 38.2343Z" fill="white"/>
    </g>
    <defs>
        <clipPath id="clip0_28_18088">
            <rect width="200" height="38.0368" fill="white" transform="translate(0.599976 0.197754)"/>
        </clipPath>
    </defs>
</svg>
