<svg width="201" height="92" viewBox="0 0 201 92" fill="none" xmlns="http://www.w3.org/2000/svg">
    <g clip-path="url(#clip0_28_18105)">
        <path d="M78.4635 66.9567C75.6185 67.0724 69.5729 66.783 69.5729 59.53C69.5729 53.9558 73.3607 51.8138 78.4635 52.0784V57.2722H82.9542V48.0591C82.9542 47.935 82.8385 47.7944 82.6317 47.7944H78.8191C73.0713 47.7944 65.0574 49.1177 65.0574 59.53C65.0574 69.5701 72.9803 71.2655 78.8191 71.2655H82.6317C82.8385 71.2655 82.9542 71.1166 82.9542 71.0008V66.9484H78.4635V66.9567Z" fill="white"/>
        <path d="M102.283 70.9098L93.3596 47.9681C93.2769 47.7365 92.8634 47.7365 92.7724 47.9681L83.8819 70.9098C83.7909 71.0835 83.915 71.2655 84.1713 71.2655H88.1907C88.3065 71.2655 88.4553 71.2076 88.4801 71.0918L93.0619 58.0082L97.6932 71.0918C97.7263 71.2076 97.8669 71.2655 97.9579 71.2655H102.01C102.225 71.2655 102.374 71.0918 102.283 70.9098Z" fill="white"/>
        <path d="M108.062 56.3045V71.0091C108.062 71.1249 108.177 71.2737 108.384 71.2737H112.172C112.371 71.2737 112.519 71.1249 112.519 71.0091V56.3045H108.062ZM103.538 51.8138H117.01C117.209 51.8138 117.333 51.6897 117.333 51.5491V48.0591C117.333 47.935 117.209 47.7944 117.01 47.7944H103.538C103.364 47.7944 103.215 47.9433 103.215 48.0591V51.5491C103.215 51.6897 103.364 51.8138 103.538 51.8138Z" fill="white"/>
        <path d="M136.457 70.9098L127.533 47.9681C127.45 47.7365 127.037 47.7365 126.946 47.9681L118.055 70.9098C117.964 71.0835 118.088 71.2655 118.345 71.2655H122.364C122.48 71.2655 122.629 71.2076 122.654 71.0918L127.235 58.0082L131.867 71.0918C131.9 71.2076 132.04 71.2655 132.131 71.2655H136.184C136.399 71.2655 136.548 71.0918 136.457 70.9098Z" fill="white"/>
        <path d="M150.067 66.8905H137.389V71.0008C137.389 71.1166 137.538 71.2655 137.711 71.2655H150.067C150.274 71.2655 150.39 71.1166 150.39 71.0008V67.1882C150.39 67.0394 150.274 66.8905 150.067 66.8905ZM141.88 62.408V48.0591C141.88 47.935 141.764 47.7944 141.59 47.7944H137.72C137.546 47.7944 137.397 47.9433 137.397 48.0591V62.408H141.88Z" fill="white"/>
        <path d="M164.388 52.2852L161.924 55.7174L156.35 47.8854C156.292 47.8275 156.151 47.7944 156.06 47.7944H151.429C151.106 47.7944 150.99 48.0343 151.139 48.2328C153.984 52.2273 156.887 56.2136 159.707 60.2412V71.0091C159.707 71.1249 159.823 71.2737 160.03 71.2737H163.876C164.049 71.2737 164.198 71.1249 164.198 71.0091V60.2412L169.863 52.2935H164.388V52.2852Z" fill="white"/>
        <path d="M181.546 58.2398C179.875 57.4458 178.23 57.4458 178.081 57.4458C176.584 57.4458 175.145 56.5692 175.145 54.8655C175.145 52.9882 176.468 52.0205 178.081 52.0205C179.602 52.0205 180.901 52.8145 180.959 54.4851C180.959 54.5761 181.108 54.7249 181.281 54.7249H184.945C185.152 54.7249 185.301 54.5761 185.268 54.4851C185.21 50.4988 182.1 47.7944 178.081 47.7944C174.326 47.7944 170.778 50.4657 170.778 54.8655C170.778 57.5947 172.159 59.6788 174.591 60.7953C176.294 61.5892 177.874 61.5892 178.081 61.5892C179.404 61.6471 181.017 62.7057 181.017 64.4342C181.017 65.989 179.636 67.0476 178.081 67.0476C178.081 67.0476 178.081 67.0476 178.048 67.0476V71.2737C178.081 71.2737 178.081 71.2737 178.081 71.2737C181.835 71.2737 185.359 68.8423 185.359 64.4342C185.359 61.6719 184.002 59.3811 181.546 58.2398Z" fill="white"/>
        <path d="M190.93 56.3045V71.0091C190.93 71.1249 191.045 71.2737 191.252 71.2737H195.04C195.238 71.2737 195.387 71.1249 195.387 71.0091V56.3045H190.93ZM186.406 51.8138H199.878C200.076 51.8138 200.2 51.6897 200.2 51.5491V48.0591C200.2 47.935 200.076 47.7944 199.878 47.7944H186.406C186.232 47.7944 186.083 47.9433 186.083 48.0591V51.5491C186.083 51.6897 186.232 51.8138 186.406 51.8138Z" fill="white"/>
        <path d="M49.8465 41.5724C46.679 38.8763 41.9071 39.2733 39.1862 42.4574C36.4735 45.6414 36.8457 50.4299 40.0049 53.1177C43.1642 55.8056 47.9444 55.4169 50.657 52.2246C53.3697 49.0488 53.0058 44.2686 49.8465 41.5724ZM40.7079 52.299C37.9952 49.9916 37.681 45.8895 40.0049 43.1603C42.3289 40.4311 46.4309 40.0921 49.1353 42.3995C51.8479 44.7069 52.1622 48.8089 49.8383 51.5381C47.5143 54.259 43.4205 54.6064 40.7079 52.299Z" fill="white"/>
        <path d="M19.7675 24.6351C19.5442 24.8336 19.5276 25.181 19.7344 25.396C19.9329 25.6193 20.2719 25.6275 20.4952 25.4291C29.0302 17.5971 41.3611 15.3062 52.0629 19.5075C51.4591 21.236 51.9305 23.2292 53.3944 24.478C55.2883 26.0907 58.1415 25.8674 59.7956 23.99C60.9948 24.9577 62.1361 26.0162 63.1781 27.1575C70.886 35.585 71.5476 48.2798 64.8404 57.5343C64.6254 57.4102 64.4104 57.3027 64.1871 57.22C64.1788 57.2117 64.1706 57.2117 64.1706 57.2034C64.1623 57.2034 64.154 57.2034 64.154 57.2034C62.715 56.699 61.0278 57.0877 59.9775 58.3282C59.8452 58.4771 59.7377 58.6342 59.6384 58.7913C59.6302 58.7996 59.6302 58.7996 59.6302 58.7996C59.6219 58.8079 59.6219 58.8162 59.6219 58.8244C58.8693 60.0484 58.8776 61.5784 59.5971 62.7776C51.7155 68.3187 41.0303 67.2105 34.5299 60.098C31.627 56.9223 30.2294 52.6879 30.6511 48.3956C31.6022 48.4618 32.5781 48.0896 33.2563 47.3039C34.3728 45.989 34.2239 44.0124 32.9172 42.8959C32.7683 42.7636 32.6029 42.656 32.4375 42.5651C33.2397 41.0764 34.2901 39.7366 35.5554 38.5788C38.6816 35.709 43.1475 34.6752 47.2 35.8827C47.4811 35.9654 47.7871 35.8083 47.8698 35.5188C47.936 35.3038 47.8616 35.0805 47.7044 34.9481C47.6465 34.8985 47.5804 34.8654 47.5142 34.8489C43.0979 33.5339 38.2432 34.6587 34.8276 37.7848C33.4382 39.0667 32.2887 40.5471 31.4203 42.2012C30.3699 42.0275 29.2617 42.3914 28.5174 43.2598C27.4009 44.5747 27.5498 46.5513 28.8565 47.6678C29.0881 47.858 29.3362 48.0152 29.6008 48.131C29.1046 52.7789 30.5932 57.3854 33.7442 60.8258C40.6251 68.3518 51.9719 69.5179 60.3001 63.6046C60.3331 63.6377 60.3662 63.6708 60.3993 63.7039C61.9955 65.0602 64.4021 64.8617 65.775 63.249C66.1802 62.7693 66.4531 62.207 66.5855 61.6363C66.5855 61.6198 66.5937 61.6115 66.5937 61.6032C66.8584 60.4123 66.5441 59.1304 65.6923 58.1959C72.7468 48.5197 72.0687 35.2293 63.9969 26.405C63.112 25.4456 62.1774 24.5359 61.185 23.6923C60.9369 23.4773 60.6805 23.2788 60.4241 23.0803C61.4 21.2278 61.0113 18.879 59.3573 17.4648C57.4468 15.8355 54.5522 16.0754 52.9064 18.0024C52.7658 18.1678 52.6501 18.3332 52.5425 18.5068C41.4356 14.1319 28.6249 16.4972 19.7675 24.6351ZM29.3196 43.971C30.0557 43.1109 31.3458 43.0034 32.1977 43.7312C33.0578 44.459 33.157 45.7491 32.421 46.6092C31.6849 47.4693 30.3948 47.5769 29.5429 46.8491C28.6911 46.1296 28.5918 44.8311 29.3196 43.971ZM63.236 58.0966C63.0375 58.4357 62.7067 58.841 62.227 58.9898C61.7556 59.1387 61.2677 59.0394 60.9121 58.9154C61.5406 58.2786 62.4007 57.9891 63.236 58.0966ZM62.6736 63.5302C62.6902 63.1084 62.8225 62.4137 63.542 61.8844C64.2533 61.3551 64.9976 61.5702 65.4028 61.7604C65.2953 62.0498 65.1464 62.331 64.9314 62.5709C64.3525 63.2573 63.5089 63.5716 62.6736 63.5302ZM65.5848 60.6604C64.8487 60.3958 63.848 60.3213 62.9135 61.0078C61.9789 61.7025 61.6895 62.5874 61.6233 63.2407C61.4414 63.1498 61.2594 63.034 61.0857 62.8934C60.1926 62.1243 59.9196 60.9003 60.3249 59.8499C60.8542 60.0732 61.6812 60.2965 62.5496 60.0236C63.451 59.7424 63.9886 58.9981 64.2698 58.4605C64.4021 58.535 64.5262 58.6177 64.642 58.7169C65.2374 59.2214 65.5517 59.9326 65.5848 60.6604ZM58.646 18.3084C60.1098 19.5572 60.2753 21.7653 59.0264 23.2374C57.7694 24.7095 55.5612 24.8998 54.0974 23.651C52.6335 22.4021 52.4681 20.194 53.7169 18.7219C54.9657 17.2498 57.1822 17.0678 58.646 18.3084Z" fill="white"/>
        <path d="M40.5424 76.0761C40.6665 75.1499 40.3439 74.174 39.5748 73.5289C38.3756 72.5117 36.5727 72.6605 35.5472 73.868C35.4893 73.9424 35.4479 74.0251 35.3901 74.0995C32.0654 72.462 29.1046 70.2373 26.5739 67.4751C23.9771 64.6384 22.108 61.1979 21.1321 57.4928C21.2975 57.4515 21.4712 57.4019 21.6283 57.3357C21.6366 57.3357 21.6366 57.3274 21.6449 57.3274C22.3975 57.038 23.0839 56.5583 23.6463 55.9049C25.0853 54.2178 25.2093 51.8442 24.1094 50.0661C24.1094 50.0579 24.1094 50.0579 24.1094 50.0579C24.1094 50.0496 24.1094 50.0496 24.1011 50.0496C23.8365 49.6195 23.5057 49.2308 23.1087 48.8835C22.4388 48.3128 21.6614 47.9572 20.8592 47.8001C20.8261 47.7918 20.8013 47.7835 20.7682 47.7835C20.7103 47.767 20.6442 47.7587 20.5863 47.7505C21.3968 42.2507 24.0763 37.181 28.1949 33.4098C31.9744 29.9363 36.8704 28.1416 41.9815 28.3484C47.0925 28.5552 51.7983 30.7385 55.2387 34.5015C56.6198 36.0149 57.6536 37.7434 58.3235 39.6539C57.8273 39.8523 57.3642 40.1749 57.0003 40.6132C56.289 41.4568 56.0409 42.5402 56.2477 43.5409C56.2477 43.5492 56.256 43.5574 56.256 43.5657C56.4048 44.2769 56.7852 44.9468 57.3724 45.4596C57.8852 45.8979 58.4972 46.1543 59.1175 46.237C58.7453 49.9917 57.0168 53.4487 54.2215 56.0125C51.087 58.8822 46.6294 59.916 42.5769 58.7086C42.2957 58.6259 41.9897 58.783 41.8988 59.0725C41.8161 59.3619 41.9732 59.6597 42.2626 59.7424C46.679 61.0573 51.5336 59.9326 54.941 56.8064C57.9762 54.0276 59.8287 50.2729 60.1926 46.2122C60.9535 46.0716 61.673 45.6829 62.2105 45.0461C63.4428 43.5988 63.2774 41.4237 61.8384 40.1997C61.1271 39.596 60.2422 39.3313 59.3821 39.3975C58.6543 37.3051 57.5378 35.4112 56.0327 33.7654C55.462 33.1369 54.85 32.5497 54.2132 32.0039C50.8141 29.1093 46.5715 27.4387 42.0311 27.2567C36.6306 27.0417 31.4617 28.9356 27.4671 32.6076C23.1418 36.5773 20.3216 41.9282 19.5029 47.7174C18.3616 47.8083 17.2533 48.2963 16.3932 49.1564C16.385 49.1564 16.385 49.1564 16.385 49.1647C16.3767 49.1729 16.3767 49.1729 16.3767 49.1812C16.2857 49.2722 16.1947 49.3632 16.112 49.4624C15.1279 50.6202 14.764 52.1006 14.9873 53.49C14.9873 53.4983 14.979 53.5066 14.9873 53.5148C14.9873 53.5231 14.9956 53.5231 14.9956 53.5314C15.1775 54.6396 15.7399 55.6899 16.6579 56.4756C17.1128 56.8643 17.6255 57.1538 18.1548 57.344C18.1796 57.3522 18.1962 57.3605 18.2127 57.3688C18.8082 57.5838 19.445 57.6665 20.0652 57.6417C21.0825 61.5453 23.0508 65.1842 25.7883 68.1863C28.4182 71.0561 31.503 73.3718 34.9517 75.0672C34.7202 76.0761 35.0262 77.1678 35.8615 77.8791C37.0524 78.8963 38.8636 78.7474 39.8891 77.54C40.0131 77.3911 40.1124 77.2423 40.2034 77.0851C50.6074 80.0293 61.9872 77.3332 70.0011 69.9727C70.2244 69.7742 70.241 69.4268 70.0342 69.2118C70.0177 69.1953 70.0011 69.1787 69.9846 69.1622C69.7861 68.9885 69.4801 68.9968 69.2734 69.1787C61.5489 76.2912 50.5825 78.9046 40.5424 76.0761ZM58.0423 41.1094C58.216 41.4237 58.3897 41.862 58.1664 42.2755C57.9596 42.6642 57.5709 42.8048 57.2649 42.8545C57.2732 42.3086 57.4386 41.7711 57.819 41.3245C57.8935 41.2418 57.9679 41.1839 58.0423 41.1094ZM61.1437 41.0515C62.1278 41.8951 62.2436 43.3838 61.4001 44.3762C60.5565 45.3686 59.0678 45.4927 58.0754 44.6574C57.8273 44.4423 57.6288 44.1942 57.4965 43.9131C58.0341 43.8138 58.7205 43.5326 59.1175 42.7883C59.5723 41.9447 59.2911 41.1177 58.9769 40.5884C59.7129 40.3734 60.5317 40.5222 61.1437 41.0515ZM23.6711 53.5479C23.3982 53.2667 23.117 52.8698 23.0839 52.4232C23.0508 51.9766 23.2824 51.5713 23.5222 51.2736C23.7951 52.0096 23.8448 52.7953 23.6711 53.5479ZM20.2637 50.6947C20.2389 50.7278 20.1976 50.7774 20.0404 50.7691C19.8171 50.7608 19.7262 50.5872 19.5359 49.8263C19.4615 49.5038 19.3705 49.1647 19.2217 48.8587C19.569 48.8008 19.9246 48.7842 20.2803 48.8173C20.4705 49.6609 20.4705 50.43 20.2637 50.6947ZM16.7158 50.4466C16.9308 50.8105 17.1127 51.3232 16.9308 51.7946C16.7489 52.266 16.3436 52.5472 15.9963 52.7043C15.9963 51.9187 16.2361 51.1247 16.7158 50.4466ZM16.1534 53.8126C16.7158 53.6058 17.5593 53.1427 17.9398 52.1916C18.345 51.1743 17.8653 50.1902 17.4932 49.6444C17.7082 49.4707 17.948 49.3218 18.1879 49.206C18.3285 49.4376 18.4112 49.7767 18.4939 50.1075C18.6758 50.827 18.9239 51.8194 19.9991 51.8608C20.5863 51.8856 20.9253 51.6044 21.1156 51.3728C21.5704 50.8022 21.5622 49.8759 21.4464 49.1233C21.7937 49.2722 22.1163 49.4707 22.4223 49.7271C22.629 49.9007 22.811 50.0909 22.9764 50.2977C22.5463 50.7278 21.9343 51.5217 22.017 52.5224C22.0915 53.5148 22.7862 54.2509 23.2493 54.6396C23.1335 54.8381 23.0012 55.0366 22.844 55.2185C22.5794 55.5328 22.2817 55.7809 21.9591 55.9876C21.8351 54.8794 21.4464 53.5314 20.7186 52.9194C20.6772 52.8863 20.6359 52.8532 20.5945 52.8284C20.2058 52.5555 19.7427 52.4976 19.3044 52.6713C18.2871 53.06 18.3202 54.0689 18.345 54.8877C18.3616 55.3839 18.3698 55.8636 18.2044 56.2275C17.9067 56.0869 17.6255 55.9049 17.3609 55.6899C16.7571 55.1606 16.3519 54.5155 16.1534 53.8126ZM19.2217 56.5252C19.445 55.9628 19.4284 55.3508 19.4119 54.8215C19.3871 54.0193 19.4284 53.7547 19.6765 53.6472C19.7675 53.6141 19.8419 53.6058 19.9577 53.6885C20.4209 54.0193 20.8426 55.3012 20.9005 56.4342C20.363 56.5914 19.784 56.6162 19.2217 56.5252ZM36.5644 77.0686C35.8201 76.4318 35.7291 75.3153 36.3742 74.5627C37.011 73.8101 38.1358 73.7191 38.8801 74.3559C39.6244 74.9927 39.7154 76.1092 39.0703 76.8618C38.4335 77.6061 37.3088 77.7054 36.5644 77.0686Z" fill="white"/>
        <path d="M54.9492 22.6421C55.859 23.4195 57.2401 23.3037 58.0175 22.3857C58.7949 21.4677 58.6874 20.0866 57.7777 19.3092C56.8679 18.5318 55.4868 18.6476 54.7094 19.5656C53.932 20.4918 54.0395 21.8647 54.9492 22.6421ZM57.083 20.1362C57.5461 20.5249 57.5957 21.2196 57.207 21.691C56.81 22.1542 56.1153 22.212 55.6522 21.8233C55.1891 21.4346 55.1394 20.7317 55.5281 20.2685C55.9334 19.8054 56.6198 19.7475 57.083 20.1362Z" fill="white"/>
        <path d="M46.254 47.4067L52.0432 58.7122L57.9151 47.4067H62.8607L54.3175 62.6902V70.8943H49.7854V62.624L41.2919 47.4067H46.254Z" fill="white"/>
    </g>
    <defs>
        <clipPath id="clip0_28_18105">
            <rect width="200" height="90.5678" fill="white" transform="translate(0.200073 0.932617)"/>
        </clipPath>
    </defs>
</svg>
