<svg xmlns="http://www.w3.org/2000/svg" viewBox="0 0 470.78 186.93">
    <defs>
        <style>
            .cls-1{fill:#0042e7;stroke:#0042e7;}.cls-1,.cls-2{stroke-miterlimit:10;stroke-width:0.5px;}.cls-2{stroke:#fff; fill:#fff}
        </style>
    </defs>
    <g id="图层_2" data-name="图层 2">
        <g id="图层_1-2" data-name="图层 1">
            <path class="cls-1"
                  d="M61.69,132.11a24.35,24.35,0,0,1-4.89-15V88a1.71,1.71,0,0,0-3.42,0v29.74a8.06,8.06,0,0,1-7.19,8l-.18,0A16.94,16.94,0,0,0,35.84,154a14.15,14.15,0,0,1,3.93,9.61v6.14a1.71,1.71,0,0,0,3.42,0v-5.4a4.94,4.94,0,0,1,5-4.89h.11a4.94,4.94,0,0,1,5,4.89V185a1.71,1.71,0,1,0,3.42,0V164a15.1,15.1,0,0,1,4-10.14,16.92,16.92,0,0,0,.85-21.75Z"/>
            <path class="cls-1"
                  d="M35.64,71.48a21.88,21.88,0,0,1,4.69,13.77v29.68a1.71,1.71,0,0,0,3.42,0V85.64a8,8,0,0,1,7.19-7.94l.18,0a17,17,0,1,0-15.48-6.19Z"/>
            <path class="cls-1"
                  d="M43.72,31.82a9,9,0,0,1,2.86,6.71h0a1.71,1.71,0,1,0,3.41,0h0a9,9,0,0,1,2.86-6.71,6.79,6.79,0,0,0,0-10.08A9,9,0,0,1,50,15V2a1.71,1.71,0,1,0-3.41,0V15a9,9,0,0,1-2.86,6.71,6.79,6.79,0,0,0,0,10.08Z"/>
            <path class="cls-1"
                  d="M97.28,97.37a10.67,10.67,0,0,0-11-10.68A10.8,10.8,0,0,0,75.91,97.42,10.67,10.67,0,0,0,80,105.79a12.28,12.28,0,0,1,4.86,9.67V137a12.38,12.38,0,0,1-3.37,8.21,6.79,6.79,0,0,0-1.71,5,6.9,6.9,0,0,0,6.69,6.3,6.8,6.8,0,0,0,6.9-6.8A6.72,6.72,0,0,0,91.54,145a12.63,12.63,0,0,1-3.23-8.7V115.46A11.65,11.65,0,0,1,92.9,106,10.64,10.64,0,0,0,97.28,97.37Z"/>
            <circle class="cls-1" cx="8.93" cy="111.92" r="5.93"/>
            <path class="cls-1"
                  d="M13.89,79.88a9,9,0,0,1-3.82-7.45V63.17a1.14,1.14,0,1,0-2.27,0v9.26A9.26,9.26,0,0,1,3.89,80,8.66,8.66,0,0,0,.26,87.5a8.78,8.78,0,0,0,8.42,8.19,8.68,8.68,0,0,0,5.21-15.81Z"/>
            <path class="cls-2"
                  d="M199.9,35.17H132.77v21c0,14.22-1.17,34.74-9.63,49.14a16.52,16.52,0,0,0-3.6-2.34c8.19-13.86,9-33,9-46.8v-25H199.9Zm-46.16,49a168.32,168.32,0,0,1-16.2,18.72,30.37,30.37,0,0,0-3.78-2.43,106.76,106.76,0,0,0,15.93-17.73Zm15.39-7v24.3c0,2.79-.72,4-2.88,4.77-2.34.72-6.57.72-13.86.72a23,23,0,0,0-1.53-3.87c6,.18,10.8.18,12.15.09,1.53-.09,1.89-.54,1.89-1.62V77.11H142.22V46.24h18.63a87.17,87.17,0,0,0,3.78-9.54l4.77,1c-1.35,2.79-2.7,5.85-4.05,8.55h26.9V77.11ZM146.45,59.83h41.39V50H146.45Zm0,13.59h41.39v-10H146.45Zm35.64,9.63c5.75,5.58,13.13,13.32,16.91,17.82l-3.6,2.52a237.16,237.16,0,0,0-16.73-18.54Z"/>
            <path class="cls-2"
                  d="M239.78,86.83c.36,1,1,2.61,1.35,3.51-14.58,10.08-16.56,11.52-17.73,13a24.82,24.82,0,0,0-2.25-4,6.25,6.25,0,0,0,2.61-5.58V58.12h-13.5V54H227.9V94.57ZM228.89,45a132.54,132.54,0,0,0-13.32-13.86l2.79-2.61c4.77,4.05,10.71,9.63,13.41,13.32ZM291.07,63.7v4H234.74v-4h15c1.17-4.14,2.52-9.36,3.69-14.76H241.13V45.07h13.23c1-4.14,1.89-8.37,2.61-12.15H237.89V29h50v4H261.47c-.81,3.78-1.71,8-2.7,12.15H278.3l.63-.36,3.05.45c-.45,5.58-1.26,12.69-2.16,18.54ZM242.66,76.48h42.2v30.33h-4.32V103.3H246.89v3.78h-4.23Zm4.23,4v18.9h33.65V80.44Zm11-31.5c-1.17,5.4-2.52,10.62-3.6,14.76h21.51c.63-4.68,1.25-10.44,1.71-14.76Z"/>
            <path class="cls-2"
                  d="M380.44,100.33v4H300.89v-4h37.53V84.76h-31.5V80.62h31.5V68.56H309.89V29.32h62.45V68.56H342.92V80.62H375.4v4.14H342.92v15.57ZM314.21,46.87H338.6V33.28H314.21Zm0,17.73H338.6V50.74H314.21ZM368,33.28H342.74V46.87H368Zm0,17.46H342.74V64.6H368Z"/>
            <path class="cls-2"
                  d="M470.53,80.71H448.85v26.37h-4.41V80.71H415.91c-1.08,9.72-5.85,19.44-23.58,26.37a16.14,16.14,0,0,0-2.79-3.33c16.47-6.3,20.88-14.85,22-23H390.71v-4H412V63.88h4.23V76.66h28.26V63.88h4.41V76.66h21.68Zm-.9-19.35h-78v-4h36.72V47.5H398.54V43.72h29.79V34.09h-33V30.22h69.92v3.87H432.56v9.63h29.87V47.5H432.56v9.9h37.07Z"/>
            <path class="cls-2" d="M124.33,133.67h8.51c7.42,0,12,2.43,12,9.22,0,6.57-4.5,9.72-11.79,9.72h-6v13.86h-2.7Zm8.15,16.69c6.48,0,9.58-2.21,9.58-7.47s-3.24-7-9.76-7H127v14.44Z"/>
            <path class="cls-2" d="M151.87,133.67h9.59c6.52,0,10.93,2.38,10.93,8.77,0,5.22-3.19,8.23-8.19,9l8.87,15H170l-8.73-14.81h-6.71v14.81h-2.7Zm9,15.74c5.67,0,8.82-2.25,8.82-7s-3.15-6.52-8.82-6.52h-6.26v13.49Z"/>
            <path class="cls-2" d="M179.23,133.67h2.7v32.8h-2.7Z"/>
            <path class="cls-2" d="M191.47,133.67h3.6l6.75,18.85c.85,2.38,1.71,4.81,2.56,7.2h.18c.86-2.39,1.62-4.82,2.43-7.2l6.75-18.85h3.6v32.8h-2.56V145.68c0-2.7.18-6.3.31-9h-.18L212.35,144l-6.89,19H203.3l-6.92-19-2.57-7.33h-.18c.14,2.74.32,6.34.32,9v20.79h-2.48Z"/>
            <path class="cls-2" d="M226.88,133.67h2.7v32.8h-2.7Z"/>
            <path class="cls-2" d="M246.1,136H235.79v-2.29h23.4V136H248.84v30.51H246.1Z"/>
            <path class="cls-2" d="M265.4,133.67h2.7v32.8h-2.7Z"/>
            <path class="cls-2" d="M273.05,133.67h2.88l5.9,18.85c1.21,4,2.07,7,3.37,11h.18c1.35-4,2.21-7,3.47-11l5.85-18.85h2.74l-10.66,32.8h-3Z"/>
            <path class="cls-2" d="M302.39,133.67h18.14V136H305.09v12h13v2.29h-13v13.91H321v2.34H302.39Z"/>
            <path class="cls-2" d="M325.7,162.15l1.67-1.89a12.62,12.62,0,0,0,9.49,4.36c4.86,0,7.88-2.56,7.88-6.3,0-4-2.57-5.22-5.81-6.66L334,149.5c-2.93-1.3-6.66-3.37-6.66-8.18s4.14-8.24,9.72-8.24a12.53,12.53,0,0,1,9.27,4l-1.53,1.76a10.54,10.54,0,0,0-7.74-3.29c-4.19,0-7,2.21-7,5.58,0,3.73,3.2,5.13,5.58,6.16l4.91,2.16c3.73,1.67,6.88,3.74,6.88,8.73s-4.18,8.91-10.62,8.91A14.61,14.61,0,0,1,325.7,162.15Z"/>
            <path class="cls-2" d="M364.27,133.67H367v30.46h14.94v2.34H364.27Z"/>
            <path class="cls-2" d="M395.13,133.67h2.79l11.48,32.8h-2.88l-3.65-11H390.09l-3.73,11h-2.7Zm-4.32,19.61h11.34l-2-5.94c-1.35-3.82-2.43-7.29-3.6-11.24h-.18c-1.12,4-2.25,7.42-3.55,11.24Z"/>
            <path class="cls-2" d="M414.48,133.67h2.79l13.41,22.54,3.65,6.61h.22c-.18-3.24-.36-6.52-.36-9.72V133.67h2.57v32.8H434L420.6,143.88l-3.69-6.57h-.22c.13,3.15.36,6.21.36,9.49v19.67h-2.57Z"/>
            <path class="cls-2" d="M446.3,133.67h18.13V136H449v12h13v2.29H449v13.91h15.93v2.34H446.3Z"/>
        </g>
    </g>
</svg>