<svg width="272" height="119" viewBox="0 0 272 119" fill="none" xmlns="http://www.w3.org/2000/svg">
<rect x="0.800049" width="271.2" height="119" rx="8" fill="#230062"/>
<g clip-path="url(#clip0_21_14184)">
<path d="M113.156 66.3988C113.049 66.1853 112.958 65.9397 112.883 65.6621C112.807 65.3845 112.743 65.0908 112.69 64.7812C112.443 65.0482 112.159 65.2991 111.838 65.5339C111.516 65.7689 111.157 65.977 110.761 66.1585C110.375 66.3295 109.946 66.4628 109.475 66.559C109.003 66.6658 108.494 66.7191 107.947 66.7191C107.058 66.7191 106.238 66.591 105.488 66.3348C104.748 66.0785 104.111 65.7207 103.575 65.2616C103.039 64.8025 102.621 64.2581 102.321 63.628C102.021 62.9874 101.871 62.2934 101.871 61.546C101.871 59.7202 102.551 58.3109 103.912 57.3178C105.284 56.3141 107.326 55.8124 110.037 55.8124H112.529V54.7873C112.529 53.9545 112.256 53.2979 111.709 52.8174C111.162 52.3262 110.375 52.0807 109.346 52.0807C108.435 52.0807 107.771 52.2782 107.353 52.6733C106.935 53.0576 106.726 53.5755 106.726 54.2267H102.257C102.257 53.49 102.417 52.7906 102.739 52.1287C103.071 51.4666 103.548 50.8848 104.17 50.3829C104.802 49.8811 105.568 49.4861 106.468 49.1978C107.379 48.8988 108.419 48.7493 109.587 48.7493C110.637 48.7493 111.613 48.8775 112.513 49.1337C113.424 49.39 114.212 49.769 114.876 50.2708C115.54 50.7727 116.06 51.4079 116.435 52.1767C116.81 52.9348 116.998 53.8156 116.998 54.8193V62.2507C116.998 63.1796 117.057 63.9485 117.175 64.5571C117.293 65.1656 117.464 65.6887 117.689 66.1265V66.3988H113.156ZM108.896 63.2757C109.346 63.2757 109.764 63.2224 110.15 63.1156C110.536 63.0088 110.884 62.87 111.195 62.6991C111.505 62.5283 111.773 62.3362 111.998 62.1225C112.223 61.8984 112.4 61.6741 112.529 61.45V58.471H110.246C109.549 58.471 108.955 58.5403 108.462 58.6792C107.969 58.8073 107.567 58.9941 107.256 59.2398C106.945 59.4746 106.715 59.7629 106.565 60.1046C106.415 60.4356 106.34 60.7986 106.34 61.1937C106.34 61.7916 106.549 62.288 106.967 62.6831C107.395 63.0783 108.038 63.2757 108.896 63.2757Z" fill="white"/>
<path d="M134.553 48.7493C135.228 48.7493 135.849 48.7974 136.417 48.8935C136.996 48.9789 137.462 49.075 137.816 49.1818L137.157 53.6182C136.567 53.4793 135.962 53.3779 135.34 53.3139C134.729 53.239 134.145 53.2017 133.588 53.2017C132.334 53.2017 131.327 53.442 130.566 53.9225C129.816 54.4029 129.253 55.0916 128.878 55.9885V66.3988H124.409V49.0697H128.572L128.782 51.9044C129.489 50.9222 130.335 50.1534 131.321 49.5982C132.307 49.0323 133.384 48.7493 134.553 48.7493Z" fill="white"/>
<path d="M152.959 60.9693L154.47 49.0696H158.569L155.451 66.3987H151.528L149.246 55.3799L147.043 66.3987H143.121L140.002 49.0696H144.085L145.596 61.0174L147.783 49.0696H150.773L152.959 60.9693Z" fill="white"/>
<path d="M170.047 66.7191C168.707 66.7191 167.491 66.5003 166.398 66.0625C165.305 65.6248 164.367 65.0322 163.585 64.2848C162.802 63.5267 162.197 62.6405 161.768 61.6261C161.35 60.6011 161.141 59.5067 161.141 58.3429V57.7021C161.141 56.3783 161.35 55.1716 161.768 54.0826C162.186 52.9829 162.77 52.0379 163.521 51.2478C164.271 50.4577 165.16 49.8438 166.189 49.406C167.218 48.9682 168.338 48.7493 169.549 48.7493C170.803 48.7493 171.917 48.9575 172.893 49.3739C173.878 49.7797 174.709 50.3563 175.384 51.1037C176.07 51.8511 176.59 52.7533 176.944 53.8103C177.297 54.8567 177.474 56.0152 177.474 57.2858V59.1756H165.675C165.76 59.7629 165.932 60.3021 166.189 60.7932C166.457 61.2738 166.795 61.6901 167.202 62.0426C167.609 62.3948 168.075 62.6671 168.6 62.8593C169.125 63.0516 169.699 63.1476 170.32 63.1476C170.76 63.1476 171.194 63.1049 171.623 63.0194C172.062 62.9341 172.48 62.8113 172.876 62.6511C173.273 62.4803 173.643 62.272 173.986 62.0266C174.329 61.7809 174.629 61.4926 174.886 61.1617L177.12 63.564C176.842 63.9591 176.477 64.3488 176.027 64.7332C175.588 65.1068 175.063 65.4433 174.452 65.7422C173.852 66.0305 173.182 66.2653 172.442 66.4468C171.703 66.6285 170.904 66.7191 170.047 66.7191ZM169.517 52.3528C169.013 52.3528 168.552 52.4436 168.134 52.6251C167.716 52.7959 167.346 53.0469 167.025 53.3779C166.714 53.709 166.452 54.1039 166.237 54.563C166.023 55.0221 165.862 55.5347 165.755 56.1007H173.085V55.7482C173.064 55.2784 172.973 54.8353 172.812 54.4189C172.651 54.0026 172.421 53.6448 172.121 53.3459C171.821 53.0362 171.451 52.7959 171.012 52.6251C170.583 52.4436 170.085 52.3528 169.517 52.3528Z" fill="white"/>
<path d="M192.249 66.3988C192.142 66.1853 192.05 65.9397 191.975 65.6621C191.901 65.3845 191.836 65.0908 191.783 64.7812C191.535 65.0482 191.252 65.2991 190.931 65.5339C190.608 65.7689 190.249 65.977 189.854 66.1585C189.467 66.3295 189.039 66.4628 188.568 66.559C188.095 66.6658 187.587 66.7191 187.041 66.7191C186.151 66.7191 185.331 66.591 184.58 66.3348C183.842 66.0785 183.203 65.7207 182.668 65.2616C182.132 64.8025 181.714 64.2581 181.414 63.628C181.114 62.9874 180.964 62.2934 180.964 61.546C180.964 59.7202 181.644 58.3109 183.005 57.3178C184.377 56.3141 186.419 55.8124 189.13 55.8124H191.622V54.7873C191.622 53.9545 191.348 53.2979 190.802 52.8174C190.256 52.3262 189.467 52.0807 188.439 52.0807C187.527 52.0807 186.863 52.2782 186.446 52.6733C186.027 53.0576 185.819 53.5755 185.819 54.2267H181.349C181.349 53.49 181.51 52.7906 181.832 52.1287C182.164 51.4666 182.641 50.8848 183.262 50.3829C183.895 49.8811 184.66 49.4861 185.561 49.1978C186.472 48.8988 187.511 48.7493 188.68 48.7493C189.73 48.7493 190.706 48.8775 191.606 49.1337C192.516 49.39 193.303 49.769 193.968 50.2708C194.634 50.7727 195.153 51.4079 195.528 52.1767C195.903 52.9348 196.09 53.8156 196.09 54.8193V62.2507C196.09 63.1796 196.15 63.9485 196.268 64.5571C196.386 65.1656 196.556 65.6887 196.781 66.1265V66.3988H192.249ZM187.988 63.2757C188.439 63.2757 188.856 63.2224 189.243 63.1156C189.629 63.0088 189.977 62.87 190.287 62.6991C190.599 62.5283 190.866 62.3362 191.091 62.1225C191.317 61.8984 191.493 61.6741 191.622 61.45V58.471H189.339C188.642 58.471 188.048 58.5403 187.554 58.6792C187.061 58.8073 186.66 58.9941 186.35 59.2398C186.038 59.4746 185.808 59.7629 185.658 60.1046C185.507 60.4356 185.433 60.7986 185.433 61.1937C185.433 61.7916 185.641 62.288 186.06 62.6831C186.488 63.0783 187.132 63.2757 187.988 63.2757Z" fill="white"/>
<path d="M208.549 61.2576L208.775 62.5069L209 61.3057L212.825 49.0696H217.487L210.88 66.3987H206.684L200.045 49.0696H204.706L208.549 61.2576Z" fill="white"/>
<path d="M229.367 66.7191C228.028 66.7191 226.811 66.5003 225.718 66.0625C224.624 65.6248 223.687 65.0322 222.905 64.2848C222.122 63.5267 221.516 62.6405 221.088 61.6261C220.671 60.6011 220.461 59.5067 220.461 58.3429V57.7021C220.461 56.3783 220.671 55.1716 221.088 54.0826C221.507 52.9829 222.091 52.0379 222.84 51.2478C223.591 50.4577 224.481 49.8438 225.509 49.406C226.538 48.9682 227.658 48.7493 228.868 48.7493C230.123 48.7493 231.236 48.9575 232.212 49.3739C233.198 49.7797 234.029 50.3563 234.705 51.1037C235.389 51.8511 235.909 52.7533 236.263 53.8103C236.617 54.8567 236.794 56.0152 236.794 57.2858V59.1756H224.994C225.08 59.7629 225.252 60.3021 225.509 60.7932C225.776 61.2738 226.115 61.6901 226.521 62.0426C226.929 62.3948 227.395 62.6671 227.921 62.8593C228.445 63.0516 229.018 63.1476 229.64 63.1476C230.079 63.1476 230.514 63.1049 230.942 63.0194C231.381 62.9341 231.8 62.8113 232.197 62.6511C232.593 62.4803 232.962 62.272 233.305 62.0266C233.648 61.7809 233.949 61.4926 234.205 61.1617L236.44 63.564C236.161 63.9591 235.797 64.3488 235.347 64.7332C234.908 65.1068 234.382 65.4433 233.771 65.7422C233.171 66.0305 232.502 66.2653 231.762 66.4468C231.022 66.6285 230.224 66.7191 229.367 66.7191ZM228.837 52.3528C228.333 52.3528 227.872 52.4436 227.455 52.6251C227.036 52.7959 226.666 53.0469 226.345 53.3779C226.035 53.709 225.772 54.1039 225.558 54.563C225.343 55.0221 225.181 55.5347 225.074 56.1007H232.404V55.7482C232.384 55.2784 232.293 54.8353 232.132 54.4189C231.971 54.0026 231.74 53.6448 231.441 53.3459C231.14 53.0362 230.77 52.7959 230.331 52.6251C229.903 52.4436 229.404 52.3528 228.837 52.3528Z" fill="white"/>
<path fill-rule="evenodd" clip-rule="evenodd" d="M61.8127 37.8608C50.1496 37.8608 40.6947 47.2806 40.6947 58.9005C40.6947 70.5204 50.1496 79.9402 61.8127 79.9402C73.4759 79.9402 82.9308 70.5204 82.9308 58.9005C82.9308 47.2806 73.4759 37.8608 61.8127 37.8608ZM36.7588 58.9005C36.7588 45.1149 47.9758 33.9395 61.8127 33.9395C75.6496 33.9395 86.8667 45.1149 86.8667 58.9005C86.8667 72.6861 75.6496 83.8616 61.8127 83.8616C47.9758 83.8616 36.7588 72.6861 36.7588 58.9005Z" fill="white"/>
<path d="M66.1229 67.2121C66.0108 66.9887 65.9155 66.7318 65.8371 66.4415C65.7586 66.151 65.6913 65.8439 65.6353 65.52C65.3774 65.7992 65.0803 66.0617 64.7441 66.3074C64.4076 66.5532 64.0321 66.771 63.6173 66.9608C63.2138 67.1395 62.7652 67.2792 62.272 67.3796C61.7787 67.4913 61.2463 67.5473 60.6745 67.5473C59.744 67.5473 58.8863 67.4132 58.1017 67.1451C57.328 66.8771 56.661 66.503 56.1005 66.0227C55.5399 65.5424 55.1027 64.9727 54.7887 64.3138C54.4748 63.6436 54.318 62.9176 54.318 62.1357C54.318 60.2257 55.0298 58.7515 56.4536 57.7126C57.8886 56.6628 60.0243 56.1378 62.8606 56.1378H65.4672V55.0656C65.4672 54.1943 65.1813 53.5074 64.6094 53.0049C64.0378 52.491 63.2138 52.2341 62.1375 52.2341C61.1846 52.2341 60.4895 52.4408 60.0523 52.854C59.6151 53.2561 59.3964 53.7979 59.3964 54.4791H54.7215C54.7215 53.7085 54.8896 52.9769 55.2259 52.2844C55.5735 51.5919 56.0725 50.9832 56.7227 50.4582C57.3841 49.9332 58.1857 49.5201 59.1274 49.2184C60.0803 48.9057 61.1677 48.7493 62.3898 48.7493C63.4883 48.7493 64.5085 48.8834 65.4503 49.1514C66.4033 49.4195 67.2271 49.8161 67.9222 50.3409C68.6173 50.8659 69.1611 51.5305 69.5534 52.3346C69.9459 53.1277 70.1421 54.0492 70.1421 55.099V62.8729C70.1421 63.8446 70.2036 64.6488 70.3271 65.2855C70.4503 65.9221 70.6297 66.4694 70.8652 66.9273V67.2121H66.1229ZM61.6666 63.9452C62.1375 63.9452 62.5747 63.8893 62.9782 63.7777C63.3819 63.6658 63.7462 63.5207 64.0713 63.3419C64.3964 63.1633 64.6767 62.9622 64.9122 62.7388C65.1476 62.5043 65.3326 62.2697 65.4672 62.0352V58.919H63.0792C62.3506 58.919 61.7284 58.9916 61.2126 59.1367C60.6968 59.2708 60.2765 59.4663 59.9514 59.7232C59.6263 59.9688 59.3852 60.2704 59.2283 60.6279C59.0713 60.9741 58.9929 61.3538 58.9929 61.7671C58.9929 62.3927 59.2114 62.912 59.6486 63.3253C60.0972 63.7384 60.7697 63.9452 61.6666 63.9452Z" fill="white"/>
</g>
<defs>
<clipPath id="clip0_21_14184">
<rect width="200" height="51.1211" fill="white" transform="translate(36.4 33.9395)"/>
</clipPath>
</defs>
</svg>
