<svg width="301" height="129" viewBox="0 0 301 129" fill="none" xmlns="http://www.w3.org/2000/svg">
    <rect x="0.834473" y="0.716309" width="300" height="128" rx="12" fill="white"/>
    <path d="M121.383 60.5678C122.768 58.8679 124.569 58.018 126.787 58.018C130.648 58.018 132.595 60.1963 132.629 64.5529V76.6263H129.505V64.536C129.494 63.2189 129.19 62.2451 128.593 61.6147C128.008 60.9843 127.091 60.6691 125.841 60.6691C124.828 60.6691 123.938 60.9393 123.173 61.4796C122.407 62.02 121.811 62.7292 121.383 63.6072V76.6263H118.259V50.6895H121.383V60.5678Z" fill="black"/>
    <path d="M148.586 76.6263C148.406 76.2661 148.26 75.6244 148.147 74.7013C146.695 76.2098 144.962 76.9641 142.946 76.9641C141.145 76.9641 139.665 76.4575 138.505 75.4443C137.357 74.4199 136.783 73.1253 136.783 71.5605C136.783 69.6581 137.504 68.1833 138.945 67.1364C140.397 66.0782 142.434 65.5491 145.057 65.5491H148.097V64.1138C148.097 63.0219 147.77 62.155 147.117 61.5134C146.464 60.8605 145.502 60.534 144.23 60.534C143.115 60.534 142.181 60.8154 141.427 61.3783C140.673 61.9412 140.295 62.6222 140.295 63.4215H137.155C137.155 62.5097 137.475 61.6316 138.117 60.7873C138.77 59.9317 139.648 59.2563 140.751 58.761C141.866 58.2656 143.087 58.018 144.416 58.018C146.521 58.018 148.17 58.5471 149.363 59.6053C150.556 60.6522 151.176 62.0988 151.221 63.945V72.3542C151.221 74.0315 151.435 75.3655 151.862 76.3562V76.6263H148.586ZM143.402 74.2454C144.382 74.2454 145.311 73.9921 146.189 73.4855C147.067 72.979 147.703 72.3204 148.097 71.5099V67.7612H145.648C141.821 67.7612 139.907 68.8813 139.907 71.1215C139.907 72.1009 140.233 72.8664 140.886 73.418C141.539 73.9696 142.378 74.2454 143.402 74.2454Z" fill="black"/>
    <path d="M159.512 76.6263H156.388V58.3557H159.512V76.6263ZM156.134 53.5094C156.134 53.0028 156.286 52.5751 156.59 52.2261C156.906 51.8771 157.367 51.7026 157.975 51.7026C158.583 51.7026 159.044 51.8771 159.36 52.2261C159.675 52.5751 159.832 53.0028 159.832 53.5094C159.832 54.016 159.675 54.4381 159.36 54.7759C159.044 55.1136 158.583 55.2824 157.975 55.2824C157.367 55.2824 156.906 55.1136 156.59 54.7759C156.286 54.4381 156.134 54.016 156.134 53.5094Z" fill="black"/>
    <path d="M167.482 58.3557L167.583 60.6522C168.979 58.896 170.803 58.018 173.054 58.018C176.915 58.018 178.863 60.1963 178.897 64.5529V76.6263H175.773V64.536C175.762 63.2189 175.458 62.2451 174.861 61.6147C174.276 60.9843 173.358 60.6691 172.109 60.6691C171.095 60.6691 170.206 60.9393 169.441 61.4796C168.675 62.02 168.078 62.7292 167.651 63.6072V76.6263H164.527V58.3557H167.482Z" fill="black"/>
    <path d="M187.576 76.6263H184.334V52.0403H187.576V76.6263Z" fill="black"/>
    <path d="M193.52 76.6263V52.0403H200.46C202.599 52.0403 204.49 52.5131 206.134 53.4588C207.777 54.4044 209.044 55.7496 209.933 57.4945C210.834 59.2394 211.29 61.2432 211.301 63.5059V65.0763C211.301 67.3953 210.851 69.4273 209.95 71.1722C209.061 72.9171 207.783 74.2567 206.117 75.191C204.462 76.1254 202.532 76.6038 200.325 76.6263H193.52ZM196.762 54.7083V73.9752H200.173C202.672 73.9752 204.614 73.1985 205.999 71.645C207.395 70.0915 208.093 67.8794 208.093 65.0088V63.5735C208.093 60.7817 207.434 58.6146 206.117 57.0724C204.811 55.5188 202.954 54.7308 200.545 54.7083H196.762Z" fill="black"/>
    <path d="M230.112 65.2621H219.457V73.9752H231.834V76.6263H216.215V52.0403H231.665V54.7083H219.457V62.611H230.112V65.2621Z" fill="black"/>
    <path d="M103.529 70.4609C102.942 73.1602 101.506 75.6004 99.4312 77.4237C97.0736 79.4474 94.1822 80.4593 90.7571 80.4593C86.2468 80.4593 82.6914 78.9415 80.0909 75.906C78.4104 73.9388 77.2783 71.5633 76.8087 69.019H74.7673C75.2542 72.3314 76.7809 75.4035 79.1271 77.7918C82.0995 80.797 85.9698 82.2983 90.7381 82.2958C95.0208 82.2958 98.5914 80.8703 101.45 78.0195C103.565 75.9817 105.002 73.343 105.567 70.4609H103.529Z" fill="black"/>
    <path d="M100.949 70.4599C100.376 72.3348 99.2854 74.0102 97.8036 75.294C95.8532 76.9686 93.4627 77.8047 90.6321 77.8022C86.9009 77.8022 83.9614 76.5475 81.8138 74.0381C79.8078 71.7083 78.8048 68.7436 78.8048 65.1439C78.8048 61.6227 79.8786 58.6579 82.0263 56.2497C84.2448 53.7429 87.1134 52.4895 90.6321 52.4895C92.9456 52.4252 95.2228 53.0743 97.1547 54.3487C98.1758 55.0267 99.0463 55.9075 99.7122 56.9365H101.568C100.843 55.4765 99.7786 54.2116 98.4638 53.2483C96.3642 51.7306 93.7562 50.9717 90.6397 50.9717C86.3191 50.9717 82.9192 52.5173 80.4402 55.6085C78.2673 58.2696 77.1808 61.4494 77.1808 65.1477C77.1808 69.5341 78.4684 73.0186 81.0435 75.6014C83.4998 78.088 86.6985 79.3301 90.6397 79.3275C94.1811 79.3275 97.1319 78.1487 99.4921 75.7911C101.004 74.3325 102.104 72.4998 102.679 70.4789L100.949 70.4599Z" fill="black"/>
    <path d="M107.813 70.4602C107.054 74.9326 105.17 78.4627 102.159 81.0505C99.1086 83.6686 95.3635 84.979 90.924 84.9815C85.078 84.9815 80.4715 83.016 77.1046 79.0849C73.9578 75.4322 72.3856 70.7852 72.3881 65.1442C72.3881 59.6271 74.0665 54.9814 77.4234 51.2072C80.9092 47.2762 85.4094 45.3106 90.924 45.3106C94.8828 45.3106 98.2864 46.2833 101.135 48.2286C104.201 50.2826 106.193 53.1917 107.111 56.9558H109.676C108.684 52.453 106.524 48.9748 103.195 46.5211C99.8965 44.1255 95.8061 42.9277 90.924 42.9277C84.1496 42.9277 78.8222 45.3499 74.9418 50.1941C71.5369 54.3654 69.8345 59.3488 69.8345 65.1442C69.8345 72.0172 71.8506 77.4774 75.8828 81.5248C79.7304 85.4179 84.7441 87.3631 90.924 87.3606C96.4714 87.3606 101.096 85.5153 104.796 81.8245C107.928 78.8055 109.902 74.7841 110.374 70.4602H107.813Z" fill="black"/>
    <path d="M102.626 56.9372H104.675C103.857 54.4604 102.29 52.299 100.19 50.7522C97.6604 48.9106 94.4984 47.9911 90.7039 47.9937C85.4802 47.9937 81.3683 49.8631 78.3682 53.6018C76.5482 55.816 75.3162 58.4536 74.7863 61.2704H76.7935C77.3447 58.7043 78.5648 56.3297 80.3299 54.3873C83.0113 51.3517 86.4807 49.834 90.7381 49.834C93.7964 49.834 96.4247 50.5853 98.6229 52.0879C100.413 53.2663 101.808 54.9559 102.626 56.9372Z" fill="black"/>
</svg>
