<svg width="271" height="119" viewBox="0 0 271 119" fill="none" xmlns="http://www.w3.org/2000/svg">
    <rect width="271" height="119" rx="8" fill="#230062"/>
    <path d="M97.9495 54.2107C99.715 52.0434 102.011 50.9598 104.839 50.9598C109.762 50.9598 112.245 53.7371 112.288 59.2917V74.6854H108.305V59.2702C108.291 57.5909 107.903 56.3494 107.143 55.5456C106.396 54.7418 105.227 54.3399 103.633 54.3399C102.342 54.3399 101.208 54.6844 100.232 55.3733C99.2557 56.0623 98.495 56.9665 97.9495 58.0861V74.6854H93.9666V41.6159H97.9495V54.2107Z" fill="white"/>
    <path d="M132.634 74.6854C132.404 74.2261 132.218 73.408 132.074 72.2311C130.222 74.1544 128.012 75.116 125.443 75.116C123.146 75.116 121.259 74.4701 119.781 73.1784C118.317 71.8722 117.585 70.2216 117.585 68.2265C117.585 65.8009 118.503 63.9206 120.34 62.5858C122.192 61.2366 124.79 60.562 128.134 60.562H132.009V58.732C132.009 57.3397 131.593 56.2345 130.761 55.4164C129.928 54.5839 128.701 54.1677 127.079 54.1677C125.658 54.1677 124.467 54.5265 123.505 55.2442C122.544 55.9618 122.063 56.8302 122.063 57.8493H118.058C118.058 56.6867 118.467 55.5671 119.285 54.4906C120.118 53.3998 121.237 52.5386 122.644 51.9071C124.065 51.2755 125.622 50.9598 127.316 50.9598C130 50.9598 132.103 51.6344 133.624 52.9836C135.146 54.3184 135.935 56.1628 135.992 58.5167V69.2384C135.992 71.377 136.265 73.0779 136.811 74.341V74.6854H132.634ZM126.024 71.6498C127.273 71.6498 128.457 71.3268 129.577 70.6809C130.696 70.035 131.507 69.1954 132.009 68.162V63.3824H128.888C124.008 63.3824 121.568 64.8105 121.568 67.6668C121.568 68.9155 121.984 69.8915 122.816 70.5948C123.649 71.2981 124.718 71.6498 126.024 71.6498Z" fill="white"/>
    <path d="M146.563 74.6854H142.58V51.3904H146.563V74.6854ZM142.258 45.2114C142.258 44.5655 142.451 44.02 142.839 43.5751C143.241 43.1302 143.829 42.9077 144.604 42.9077C145.379 42.9077 145.968 43.1302 146.37 43.5751C146.772 44.02 146.973 44.5655 146.973 45.2114C146.973 45.8572 146.772 46.3955 146.37 46.8261C145.968 47.2567 145.379 47.472 144.604 47.472C143.829 47.472 143.241 47.2567 142.839 46.8261C142.451 46.3955 142.258 45.8572 142.258 45.2114Z" fill="white"/>
    <path d="M156.725 51.3904L156.855 54.3184C158.634 52.0793 160.96 50.9598 163.83 50.9598C168.753 50.9598 171.236 53.7371 171.28 59.2917V74.6854H167.297V59.2702C167.282 57.5909 166.895 56.3494 166.134 55.5456C165.388 54.7418 164.218 54.3399 162.625 54.3399C161.333 54.3399 160.199 54.6844 159.223 55.3733C158.247 56.0623 157.486 56.9665 156.941 58.0861V74.6854H152.958V51.3904H156.725Z" fill="white"/>
    <path d="M182.346 74.6854H178.212V43.3383H182.346V74.6854Z" fill="white"/>
    <path d="M189.924 74.6854V43.3383H198.773C201.5 43.3383 203.911 43.9411 206.007 45.1468C208.102 46.3524 209.717 48.0676 210.851 50.2924C211.999 52.5171 212.581 55.0719 212.595 57.9569V59.9592C212.595 62.9159 212.021 65.5066 210.873 67.7314C209.739 69.9561 208.11 71.6641 205.985 72.8554C203.875 74.0467 201.414 74.6567 198.601 74.6854H189.924ZM194.058 46.74V71.3053H198.407C201.593 71.3053 204.069 70.3149 205.835 68.3342C207.614 66.3535 208.504 63.5331 208.504 59.873V58.043C208.504 54.4835 207.665 51.7205 205.985 49.7541C204.32 47.7734 201.952 46.7687 198.881 46.74H194.058Z" fill="white"/>
    <path d="M236.579 60.196H222.994V71.3053H238.775V74.6854H218.86V43.3383H238.56V46.74H222.994V56.8158H236.579V60.196Z" fill="white"/>
    <path d="M75.1858 66.8245C74.4376 70.2661 72.6064 73.3773 69.9608 75.7021C66.9549 78.2823 63.2684 79.5724 58.9014 79.5724C53.1507 79.5724 48.6176 77.6373 45.302 73.767C43.1594 71.2588 41.7159 68.2301 41.1172 64.9861H38.5144C39.1352 69.2094 41.0817 73.1263 44.0732 76.1714C47.8629 80.003 52.7975 81.9172 58.8772 81.914C64.3376 81.914 68.89 80.0966 72.5346 76.4617C75.2311 73.8636 77.0636 70.4992 77.7837 66.8245H75.1858Z" fill="white"/>
    <path d="M71.8965 66.8231C71.1652 69.2136 69.7752 71.3497 67.8858 72.9866C65.3992 75.1218 62.3513 76.1877 58.7422 76.1845C53.9849 76.1845 50.2371 74.5848 47.4989 71.3853C44.9412 68.4148 43.6624 64.6348 43.6624 60.0452C43.6624 55.5557 45.0316 51.7756 47.7698 48.7052C50.5984 45.5089 54.2558 43.9108 58.7422 43.9108C61.6919 43.8289 64.5954 44.6565 67.0586 46.2814C68.3604 47.1457 69.4704 48.2689 70.3193 49.5808H72.685C71.7612 47.7193 70.4041 46.1066 68.7276 44.8784C66.0507 42.9432 62.7254 41.9756 58.7519 41.9756C53.2431 41.9756 48.9083 43.9463 45.7476 47.8876C42.9771 51.2806 41.5918 55.3347 41.5918 60.0501C41.5918 65.6427 43.2335 70.0855 46.5168 73.3785C49.6485 76.549 53.7269 78.1326 58.7519 78.1293C63.2672 78.1293 67.0295 76.6264 70.0387 73.6204C71.967 71.7607 73.3691 69.424 74.1026 66.8473L71.8965 66.8231Z" fill="white"/>
    <path d="M80.6477 66.8237C79.6802 72.526 77.2773 77.0269 73.4393 80.3263C69.5496 83.6645 64.7746 85.3352 59.1142 85.3384C51.6606 85.3384 45.7874 82.8324 41.4945 77.8203C37.4823 73.163 35.4778 67.2382 35.481 60.0458C35.481 53.0115 37.621 47.0883 41.9009 42.2762C46.3453 37.2641 52.0831 34.7581 59.1142 34.7581C64.1618 34.7581 68.5014 35.9982 72.133 38.4784C76.042 41.0973 78.582 44.8064 79.7527 49.6056H83.0232C81.7588 43.8646 79.0045 39.4299 74.76 36.3013C70.5542 33.247 65.339 31.7198 59.1142 31.7198C50.4769 31.7198 43.6845 34.808 38.7369 40.9844C34.3957 46.3029 32.2251 52.6567 32.2251 60.0458C32.2251 68.8089 34.7956 75.7706 39.9367 80.9311C44.8424 85.8948 51.2349 88.375 59.1142 88.3718C66.1872 88.3718 72.083 86.0189 76.8016 81.3133C80.7941 77.464 83.3106 72.3368 83.9133 66.8237H80.6477Z" fill="white"/>
    <path d="M74.0343 49.582H76.6468C75.6043 46.4241 73.606 43.6683 70.9284 41.6962C67.7031 39.3482 63.6715 38.1758 58.8336 38.179C52.1734 38.179 46.9307 40.5625 43.1056 45.3295C40.785 48.1525 39.2142 51.5155 38.5386 55.1069H41.0978C41.8006 51.8351 43.3562 48.8074 45.6068 46.3309C49.0256 42.4606 53.449 40.5254 58.8771 40.5254C62.7765 40.5254 66.1276 41.4833 68.9303 43.3991C71.2131 44.9017 72.9914 47.0559 74.0343 49.582V49.582Z" fill="white"/>
</svg>
