<svg width="272" height="119" viewBox="0 0 272 119" fill="none" xmlns="http://www.w3.org/2000/svg">
<rect width="271.2" height="119" rx="8" fill="#230062"/>
<g clip-path="url(#clip0_21_14177)">
<path d="M56.2107 80.0296C56.1698 80.0296 56.1289 80.0707 56.1289 80.1117C56.1289 80.1527 56.1698 80.1938 56.2107 80.1938C56.2516 80.1938 56.2925 80.1527 56.2925 80.1117C56.2925 80.0707 56.2516 80.0296 56.2107 80.0296ZM54.0842 79.2911C54.0024 79.2911 53.9206 79.3731 53.9206 79.4552C53.9206 79.5373 54.0024 79.6193 54.0842 79.6193C54.166 79.6193 54.2478 79.5373 54.2478 79.4552C54.2478 79.3731 54.166 79.2911 54.0842 79.2911ZM52.0395 78.3473C51.9168 78.3473 51.7941 78.4704 51.835 78.5935C51.835 78.7166 51.9168 78.7987 52.0395 78.7987C52.1622 78.7987 52.2849 78.7166 52.2849 78.5935C52.2849 78.4704 52.1622 78.3473 52.0395 78.3473ZM50.0766 77.1574C49.913 77.1574 49.7494 77.2805 49.7494 77.4857C49.7494 77.6498 49.8721 77.8139 50.0766 77.8139C50.2402 77.8139 50.4037 77.6908 50.4037 77.4857C50.3628 77.2805 50.2402 77.1574 50.0766 77.1574ZM48.2363 75.7623C48.0319 75.7623 47.8683 75.9264 47.8683 76.1316C47.8683 76.3368 48.0319 76.5009 48.2363 76.5009C48.4408 76.5009 48.6044 76.3368 48.6044 76.1316C48.6453 75.9675 48.4408 75.7623 48.2363 75.7623ZM46.5597 74.2031C46.3143 74.2031 46.1098 74.4083 46.1098 74.6545C46.1098 74.9006 46.3143 75.1058 46.5597 75.1058C46.805 75.1058 47.0095 74.9006 47.0095 74.6545C47.0504 74.4083 46.8459 74.2031 46.5597 74.2031ZM45.0466 72.4798C44.7603 72.4798 44.515 72.726 44.515 73.0132C44.515 73.3004 44.7603 73.5466 45.0466 73.5466C45.3328 73.5466 45.5782 73.3004 45.5782 73.0132C45.5782 72.726 45.3737 72.4798 45.0466 72.4798ZM43.738 70.5923C43.4108 70.5923 43.1246 70.8795 43.1246 71.2078C43.1246 71.536 43.4108 71.8233 43.738 71.8233C44.0651 71.8233 44.3514 71.536 44.3514 71.2078C44.3514 70.8795 44.0651 70.5923 43.738 70.5923ZM43.329 69.2382C43.329 68.869 43.0019 68.5407 42.6338 68.5407C42.2658 68.5407 41.9386 68.869 41.9386 69.2382C41.9386 69.6075 42.2658 69.9358 42.6338 69.9358C43.0019 69.9358 43.329 69.6486 43.329 69.2382ZM42.5929 67.1456C42.5929 66.7353 42.2658 66.366 41.8159 66.366C41.407 66.366 41.039 66.6943 41.039 67.1456C41.039 67.5559 41.3661 67.9252 41.8159 67.9252C42.2249 67.9252 42.5929 67.597 42.5929 67.1456ZM42.1022 64.9709C42.1022 64.5196 41.7342 64.1092 41.2434 64.1092C40.7936 64.1092 40.3846 64.4785 40.3846 64.9709C40.3846 65.4633 40.7527 65.8326 41.2434 65.8326C41.7342 65.8326 42.1022 65.4633 42.1022 64.9709ZM41.9386 62.7552C41.9386 62.2218 41.5297 61.8115 40.9981 61.8115C40.4664 61.8115 40.0575 62.2218 40.0575 62.7552C40.0575 63.2886 40.4664 63.6989 40.9981 63.6989C41.5297 63.6579 41.9386 63.2476 41.9386 62.7552ZM41.039 61.4832C41.6115 61.4832 42.0613 61.0319 42.0613 60.4574C42.0613 59.883 41.6115 59.4316 41.039 59.4316C40.4664 59.4316 40.0166 59.883 40.0166 60.4574C40.0575 61.0319 40.5073 61.4832 41.039 61.4832Z" fill="white"/>
<path d="M40.3029 58.2827C40.3029 58.8982 40.7937 59.3496 41.3662 59.3496C41.9387 59.3496 42.4294 58.8572 42.4294 58.2827C42.4294 57.6673 41.9387 57.2159 41.3662 57.2159C40.7937 57.1749 40.3029 57.6673 40.3029 58.2827ZM72.7321 74.8596C72.6912 74.8596 72.6503 74.9007 72.6503 74.9417C72.6503 74.9827 72.6912 75.0238 72.7321 75.0238C72.7729 75.0238 72.8138 74.9827 72.8138 74.9417C72.8138 74.9007 72.7729 74.8596 72.7321 74.8596ZM70.7691 75.8444C70.6873 75.8444 70.6464 75.8854 70.6464 75.9675C70.6464 76.0496 70.6873 76.0906 70.7691 76.1316C70.8509 76.1316 70.8918 76.0906 70.9327 76.0085C70.8918 75.9265 70.81 75.8444 70.7691 75.8444ZM68.6835 76.624C68.5608 76.624 68.479 76.7061 68.479 76.8292C68.479 76.9523 68.5608 77.0343 68.6835 77.0343C68.8062 77.0343 68.888 76.9523 68.888 76.8292C68.888 76.7061 68.7653 76.624 68.6835 76.624ZM66.5161 77.1574C66.3526 77.1574 66.2299 77.2805 66.2708 77.4446C66.2708 77.5677 66.3934 77.6908 66.5161 77.6908C66.6797 77.6908 66.8024 77.5677 66.8024 77.4446C66.8024 77.2805 66.6797 77.1574 66.5161 77.1574ZM64.3078 77.4446C64.1034 77.4446 63.9807 77.6088 63.9807 77.7729C63.9807 77.9781 64.1443 78.1012 64.3078 78.1012C64.5123 78.1012 64.635 77.937 64.635 77.7729C64.635 77.6088 64.5123 77.4446 64.3078 77.4446ZM62.0587 77.5267C61.8133 77.5267 61.6497 77.6908 61.6497 77.937C61.6497 78.1832 61.8133 78.3473 62.0587 78.3473C62.304 78.3473 62.4676 78.1832 62.4676 77.937C62.4676 77.7319 62.304 77.5267 62.0587 77.5267ZM59.8095 77.3626C59.5641 77.3626 59.3187 77.5677 59.3187 77.855C59.3187 78.1012 59.5232 78.3473 59.8095 78.3473C60.0548 78.3473 60.3002 78.1422 60.3002 77.855C60.3002 77.5677 60.0957 77.3626 59.8095 77.3626C59.8504 77.3626 59.8095 77.3626 59.8095 77.3626ZM57.6012 76.9523C57.3149 76.9523 57.0696 77.1985 57.0696 77.4857C57.0696 77.7729 57.3149 78.0191 57.6012 78.0191C57.8874 78.0191 58.1328 77.7729 58.1328 77.4857C58.1737 77.1985 57.9283 76.9523 57.6012 76.9523ZM55.4747 76.2547C55.1475 76.2547 54.8613 76.5419 54.8613 76.8702C54.8613 77.1985 55.1475 77.4857 55.4747 77.4857C55.8018 77.4857 56.0881 77.1985 56.0881 76.8702C56.0881 76.5419 55.8018 76.2547 55.4747 76.2547ZM53.3891 75.311C53.021 75.311 52.6939 75.5982 52.6939 76.0085C52.6939 76.4188 52.9801 76.7061 53.3891 76.7061C53.7571 76.7061 54.0843 76.4188 54.0843 76.0085C54.0843 75.5982 53.798 75.311 53.3891 75.311ZM52.244 74.8186C52.244 74.4083 51.9169 74.08 51.5079 74.08C51.099 74.08 50.7719 74.4083 50.7719 74.8186C50.7719 75.2289 51.099 75.5572 51.5079 75.5572C51.9169 75.5982 52.244 75.27 52.244 74.8186C52.244 74.8596 52.244 74.8186 52.244 74.8186ZM49.7495 72.6029C49.2997 72.6029 48.9316 72.9722 48.9316 73.4235C48.9316 73.8749 49.2997 74.2442 49.7495 74.2442C50.1993 74.2442 50.5674 73.8749 50.5674 73.4235C50.5674 72.9722 50.1993 72.6029 49.7495 72.6029ZM48.1955 70.9206C47.7048 70.9206 47.2958 71.3309 47.2958 71.8233C47.2958 72.3157 47.7048 72.726 48.1955 72.726C48.6862 72.726 49.0952 72.3157 49.0952 71.8233C49.0543 71.3309 48.6862 70.9206 48.1955 70.9206ZM46.846 70.9616C47.3776 70.9616 47.7866 70.5513 47.7866 70.0179C47.7866 69.4845 47.3776 69.0741 46.846 69.0741C46.3144 69.0741 45.9054 69.4845 45.9054 70.0179C45.9054 70.5513 46.3144 70.9616 46.846 70.9616ZM46.7642 68.0483C46.7642 67.4739 46.3144 67.0225 45.7419 67.0225C45.1693 67.0225 44.7195 67.4739 44.7195 68.0483C44.7195 68.6228 45.1693 69.0741 45.7419 69.0741C46.3144 69.0741 46.7642 68.6228 46.7642 68.0483ZM80.7473 59.5137C80.7064 59.5137 80.7064 59.5547 80.6655 59.5547C80.6655 59.5958 80.7064 59.6368 80.7473 59.6368C80.7882 59.6368 80.7882 59.5958 80.7882 59.5547C80.8291 59.5137 80.7882 59.5137 80.7473 59.5137ZM80.093 61.5653C80.0112 61.5653 79.9703 61.6063 79.9703 61.6884C79.9703 61.7704 80.0112 61.8115 80.093 61.8115C80.1748 61.8115 80.2157 61.7704 80.2157 61.6884C80.2157 61.6474 80.1748 61.5653 80.093 61.5653ZM79.1933 63.5759C79.1115 63.5759 79.0298 63.6579 79.0298 63.781C79.0298 63.8631 79.1115 63.9451 79.2342 63.9451C79.316 63.9451 79.3978 63.8631 79.3978 63.74C79.3978 63.6579 79.316 63.5759 79.1933 63.5759ZM78.0892 65.5044C77.9665 65.5044 77.8438 65.6274 77.8438 65.7505C77.8438 65.8736 77.9665 65.9967 78.0892 65.9967C78.2119 65.9967 78.3346 65.8736 78.3346 65.7505C78.3346 65.5864 78.2528 65.5044 78.0892 65.5044ZM76.8215 67.2687C76.6579 67.2687 76.5352 67.3918 76.5352 67.597C76.5352 67.7611 76.6579 67.8842 76.8624 67.8842C77.0259 67.8842 77.1486 67.7611 77.1486 67.597C77.1077 67.3918 76.9851 67.2687 76.8215 67.2687ZM75.3084 68.869C75.1039 68.869 74.9403 69.0331 74.9403 69.2383C74.9403 69.4434 75.1039 69.6075 75.3084 69.6075C75.5129 69.6075 75.6764 69.4434 75.6764 69.2383C75.6764 69.0331 75.5129 68.869 75.3084 68.869ZM73.6726 70.3461C73.4273 70.3461 73.2637 70.5513 73.2637 70.7564C73.2637 71.0026 73.4681 71.1668 73.6726 71.1668C73.918 71.1668 74.0816 70.9616 74.0816 70.7564C74.1225 70.5103 73.918 70.3461 73.6726 70.3461ZM71.8733 71.6181C71.587 71.6181 71.3825 71.8233 71.3825 72.1105C71.3825 72.3977 71.587 72.6029 71.8733 72.6029C72.1595 72.6029 72.364 72.3977 72.364 72.1105C72.364 71.8233 72.1595 71.6181 71.8733 71.6181ZM69.9103 72.6439C69.6241 72.6439 69.3787 72.8901 69.3787 73.1773C69.3787 73.4645 69.6241 73.7107 69.9103 73.7107C70.1966 73.7107 70.442 73.4645 70.442 73.1773C70.4829 72.8901 70.2375 72.6439 69.9103 72.6439ZM67.8247 73.4235C67.4976 73.4235 67.2113 73.7107 67.2113 74.039C67.2113 74.3673 67.4976 74.6545 67.8247 74.6545C68.1519 74.6545 68.4382 74.3673 68.4382 74.039C68.4382 73.6697 68.1519 73.4235 67.8247 73.4235ZM65.6573 73.8749C65.2893 73.8749 65.003 74.1621 65.003 74.5314C65.003 74.9007 65.2893 75.1879 65.6573 75.1879C66.0254 75.1879 66.3117 74.9007 66.3117 74.5314C66.3117 74.2031 66.0254 73.8749 65.6573 73.8749ZM63.4491 74.08C63.0401 74.08 62.713 74.4083 62.713 74.8186C62.713 75.2289 63.0401 75.5572 63.4491 75.5572C63.858 75.5572 64.1852 75.2289 64.1852 74.8186C64.1443 74.4083 63.8171 74.08 63.4491 74.08ZM61.9769 74.7776C61.9769 74.3262 61.6088 73.998 61.1999 73.998C60.7909 73.998 60.4229 74.3672 60.4229 74.7776C60.4229 75.1879 60.7909 75.5572 61.1999 75.5572C61.6497 75.5572 61.9769 75.2289 61.9769 74.7776ZM59.8504 74.4493C59.8504 73.9569 59.4823 73.5876 58.9916 73.5876C58.5009 73.5876 58.1328 73.9569 58.1328 74.4493C58.1328 74.9417 58.5009 75.311 58.9916 75.311C59.4414 75.311 59.8504 74.9007 59.8504 74.4493ZM57.7239 73.8338C57.7239 73.3415 57.3149 72.9311 56.8242 72.9311C56.3335 72.9311 55.9245 73.3415 55.9245 73.8338C55.9245 74.3262 56.3335 74.7365 56.8242 74.7365C57.3149 74.7365 57.7239 74.3262 57.7239 73.8338ZM55.7609 72.9311C55.7609 72.3977 55.3111 71.9464 54.7795 71.9464C54.2479 71.9464 53.798 72.3977 53.798 72.9311C53.798 73.4645 54.2479 73.9159 54.7795 73.9159C55.3111 73.9159 55.7609 73.4645 55.7609 72.9311ZM75.5946 43.0599C75.6355 43.0599 75.6764 43.0189 75.6764 43.0189C75.6764 42.9778 75.6355 42.9368 75.6355 42.9368C75.5946 42.9368 75.5946 42.9778 75.5946 43.0189C75.5538 43.0189 75.5538 43.0599 75.5946 43.0599ZM76.617 45.1115C76.6988 45.1115 76.7397 45.0705 76.7397 44.9884C76.7397 44.9063 76.6988 44.8653 76.617 44.8653C76.5352 44.8653 76.4943 44.9063 76.4943 44.9884C76.4943 45.0294 76.5761 45.1115 76.617 45.1115ZM77.4758 47.2451C77.5576 47.2451 77.6394 47.1631 77.6394 47.081C77.6394 46.9989 77.5576 46.9169 77.4758 46.9169C77.394 46.9169 77.3122 46.9989 77.3122 47.081C77.2713 47.1631 77.3531 47.2451 77.4758 47.2451ZM78.0483 49.4609C78.171 49.4609 78.2937 49.3378 78.2937 49.2147C78.2937 49.0916 78.171 48.9685 78.0483 48.9685C77.9256 48.9685 77.8029 49.0916 77.8029 49.2147C77.8029 49.3788 77.9256 49.4609 78.0483 49.4609ZM78.1301 51.4304C78.1301 51.5945 78.2528 51.7176 78.4163 51.7176C78.5799 51.7176 78.7026 51.5945 78.7026 51.4304C78.7026 51.2663 78.5799 51.1432 78.4163 51.1432C78.2528 51.1432 78.1301 51.2663 78.1301 51.4304ZM78.5799 53.3179C78.3755 53.3179 78.2119 53.482 78.2119 53.6872C78.2119 53.8923 78.3755 54.0564 78.5799 54.0564C78.7844 54.0564 78.948 53.8923 78.948 53.6872C78.948 53.482 78.7844 53.3179 78.5799 53.3179ZM78.4981 55.4926C78.2528 55.4926 78.0892 55.6977 78.0892 55.9029C78.0892 56.108 78.2937 56.3132 78.4981 56.3132C78.7435 56.3132 78.9071 56.108 78.9071 55.9029C78.9071 55.6977 78.7026 55.4926 78.4981 55.4926ZM78.1301 57.6673C77.8438 57.6673 77.6394 57.8724 77.6394 58.1596C77.6394 58.4469 77.8438 58.652 78.1301 58.652C78.4163 58.652 78.6208 58.4469 78.6208 58.1596C78.6208 57.9134 78.4163 57.6673 78.1301 57.6673ZM78.0892 60.3343C78.0892 60.0471 77.8438 59.8009 77.5576 59.8009C77.2713 59.8009 77.0259 60.0471 77.0259 60.3343C77.0259 60.6216 77.2713 60.8677 77.5576 60.8677C77.8438 60.8677 78.0892 60.6216 78.0892 60.3343ZM76.6579 61.7704C76.3307 61.7704 76.0445 62.0577 76.0445 62.3859C76.0445 62.7142 76.3307 63.0014 76.6579 63.0014C76.985 63.0014 77.2713 62.7142 77.2713 62.3859C77.2304 62.0577 76.985 61.7704 76.6579 61.7704ZM75.472 63.6579C75.1039 63.6579 74.8176 63.9451 74.8176 64.3144C74.8176 64.6837 75.1039 64.9709 75.472 64.9709C75.84 64.9709 76.1263 64.6837 76.1263 64.3144C76.1672 63.9451 75.84 63.6579 75.472 63.6579ZM74.0816 65.3402C73.6726 65.3402 73.3455 65.6685 73.3455 66.0788C73.3455 66.4891 73.6726 66.8174 74.0816 66.8174C74.4905 66.8174 74.8176 66.4891 74.8176 66.0788C74.8176 65.6685 74.4905 65.3402 74.0816 65.3402ZM72.4867 66.8174C72.0368 66.8174 71.7097 67.1867 71.7097 67.597C71.7097 68.0073 72.0777 68.3766 72.4867 68.3766C72.8956 68.3766 73.2637 68.0073 73.2637 67.597C73.2637 67.1867 72.8956 66.8174 72.4867 66.8174ZM70.6873 68.0894C70.1966 68.0894 69.8286 68.4586 69.8286 68.951C69.8286 69.4434 70.1966 69.8127 70.6873 69.8127C71.1781 69.8127 71.5461 69.4434 71.5461 68.951C71.5461 68.4997 71.1372 68.1304 70.6873 68.0894ZM68.7244 69.1562C68.2337 69.1562 67.8247 69.5665 67.8247 70.0589C67.8247 70.5513 68.2337 70.9616 68.7244 70.9616C69.2151 70.9616 69.6241 70.5513 69.6241 70.0589C69.6241 69.5665 69.2151 69.1562 68.7244 69.1562ZM66.6388 69.8948C66.1072 69.8948 65.6573 70.3461 65.6573 70.8795C65.6573 71.4129 66.1072 71.8643 66.6388 71.8643C67.1704 71.8643 67.6203 71.4129 67.6203 70.8795C67.6203 70.3461 67.1704 69.8948 66.6388 69.8948ZM60.2593 35.0176C60.3002 35.0176 60.3002 34.9766 60.3002 34.9356C60.3002 34.8945 60.2593 34.8945 60.2184 34.8945C60.1775 34.8945 60.1775 34.9356 60.1775 34.9356C60.2184 34.9766 60.2184 35.0176 60.2593 35.0176ZM62.3858 35.7152C62.4676 35.7152 62.5085 35.6741 62.5085 35.5921C62.5085 35.51 62.4676 35.469 62.3858 35.469C62.304 35.469 62.2631 35.51 62.2631 35.5921C62.2631 35.6741 62.3449 35.7152 62.3858 35.7152ZM64.4714 36.6999C64.5532 36.6999 64.635 36.6179 64.635 36.5358C64.635 36.4537 64.5532 36.3717 64.4714 36.3717C64.3896 36.3717 64.3078 36.4537 64.3078 36.5358C64.2669 36.6179 64.3487 36.6999 64.4714 36.6999ZM66.3934 37.8488C66.5161 37.8488 66.6388 37.7257 66.6388 37.6026C66.6388 37.4795 66.5161 37.3564 66.3934 37.3564C66.2708 37.3564 66.1481 37.4795 66.1481 37.6026C66.1481 37.7257 66.2708 37.8488 66.3934 37.8488ZM68.2337 39.2029C68.3973 39.2029 68.5199 39.0798 68.5199 38.9157C68.5199 38.7515 68.3973 38.6284 68.2337 38.6284C68.0701 38.6284 67.9474 38.7515 67.9474 38.9157C67.9474 39.0798 68.0701 39.2029 68.2337 39.2029ZM69.9103 40.7621C70.1148 40.7621 70.2784 40.598 70.2784 40.3928C70.2784 40.1877 70.1148 40.0235 69.9103 40.0235C69.7059 40.0235 69.5423 40.1877 69.5423 40.3928C69.5423 40.598 69.7059 40.7621 69.9103 40.7621ZM71.4234 42.4854C71.6688 42.4854 71.8324 42.2803 71.8324 42.0751C71.8324 41.8289 71.6279 41.6648 71.4234 41.6648C71.1781 41.6648 71.0145 41.87 71.0145 42.0751C71.0145 42.2803 71.1781 42.4854 71.4234 42.4854ZM72.7729 44.3319C73.0592 44.3319 73.2637 44.1267 73.2637 43.8395C73.2637 43.5523 73.0592 43.3471 72.7729 43.3471C72.4867 43.3471 72.2822 43.5523 72.2822 43.8395C72.2822 44.1267 72.4867 44.3319 72.7729 44.3319ZM73.8362 46.3835C74.1225 46.3835 74.3678 46.1373 74.3678 45.8501C74.3678 45.5628 74.1225 45.3166 73.8362 45.3166C73.5499 45.3166 73.3046 45.5628 73.3046 45.8501C73.3046 46.1373 73.5499 46.3835 73.8362 46.3835ZM74.0816 47.9017C74.0816 48.2299 74.3678 48.5171 74.695 48.5171C75.0221 48.5171 75.3084 48.2299 75.3084 47.9017C75.3084 47.5734 75.0221 47.2862 74.695 47.2862C74.3269 47.2862 74.0816 47.5734 74.0816 47.9017ZM74.5314 50.0763C74.5314 50.4456 74.8177 50.7329 75.1857 50.7329C75.5538 50.7329 75.84 50.4456 75.84 50.0763C75.84 49.7071 75.5538 49.4198 75.1857 49.4198C74.8586 49.4198 74.5314 49.7071 74.5314 50.0763ZM74.7359 52.3331C74.7359 52.7434 75.063 53.0717 75.472 53.0717C75.8809 53.0717 76.2081 52.7434 76.2081 52.3331C76.2081 51.9228 75.8809 51.5945 75.472 51.5945C75.063 51.5945 74.7359 51.9228 74.7359 52.3331ZM76.2081 54.5899C76.2081 54.1385 75.84 53.8103 75.4311 53.8103C75.0221 53.8103 74.6541 54.1795 74.6541 54.5899C74.6541 55.0002 75.0221 55.3695 75.4311 55.3695C75.8809 55.3695 76.2081 55.0002 76.2081 54.5899ZM75.9627 56.8056C75.9627 56.3132 75.5946 55.9439 75.1039 55.9439C74.6132 55.9439 74.2451 56.3132 74.2451 56.8056C74.2451 57.298 74.6132 57.6673 75.1039 57.6673C75.5538 57.6673 75.9627 57.2569 75.9627 56.8056ZM75.3902 58.9392C75.3902 58.4469 74.9812 58.0365 74.4905 58.0365C73.9998 58.0365 73.5908 58.4469 73.5908 58.9392C73.5908 59.4316 73.9998 59.8419 74.4905 59.8419C74.9812 59.883 75.3902 59.4727 75.3902 58.9392ZM73.5908 60.0471C73.0592 60.0471 72.6094 60.4985 72.6094 61.0319C72.6094 61.5653 73.0592 62.0166 73.5908 62.0166C74.1224 62.0166 74.5723 61.5653 74.5723 61.0319C74.5723 60.4574 74.1224 60.0471 73.5908 60.0471ZM43.738 40.1877C43.7789 40.1877 43.7789 40.1466 43.7789 40.1466C43.7789 40.1056 43.738 40.1056 43.738 40.0646C43.6972 40.0646 43.6563 40.1056 43.6563 40.1466C43.6972 40.1466 43.6972 40.1877 43.738 40.1877ZM45.7419 39.2029C45.8237 39.2029 45.8645 39.1619 45.8645 39.0798C45.8645 38.9977 45.8237 38.9567 45.7419 38.9567C45.6601 38.9567 45.6192 38.9977 45.6192 39.0798C45.6192 39.1619 45.6601 39.2029 45.7419 39.2029ZM47.8275 38.4233C47.9093 38.4233 48.0319 38.3412 48.0319 38.2591C48.0319 38.1771 47.9502 38.054 47.8684 38.054C47.7866 38.054 47.6639 38.1361 47.6639 38.2181C47.623 38.3412 47.7048 38.4233 47.8275 38.4233ZM49.954 37.8899C50.0767 37.8899 50.1993 37.7668 50.1993 37.6437C50.1993 37.5206 50.0767 37.3975 49.954 37.3975C49.8313 37.3975 49.7086 37.5206 49.7086 37.6437C49.7086 37.7668 49.8313 37.8899 49.954 37.8899ZM52.1623 37.5616C52.3258 37.5616 52.4485 37.4385 52.4485 37.2744C52.4485 37.1103 52.3258 36.9872 52.1623 36.9872C51.9987 36.9872 51.876 37.1103 51.876 37.2744C51.876 37.4385 51.9987 37.5616 52.1623 37.5616ZM54.4114 37.4795C54.6159 37.4795 54.7795 37.3154 54.7795 37.1103C54.7795 36.9051 54.6159 36.741 54.4114 36.741C54.207 36.741 54.0434 36.9051 54.0434 37.1103C54.0434 37.3154 54.207 37.4795 54.4114 37.4795ZM56.6606 37.6437C56.906 37.6437 57.0696 37.4385 57.0696 37.2334C57.0696 36.9872 56.8651 36.823 56.6606 36.823C56.4562 36.823 56.2517 37.0282 56.2517 37.2334C56.2108 37.4795 56.4153 37.6437 56.6606 37.6437ZM58.8689 38.054C59.1552 38.054 59.3596 37.8488 59.3596 37.5616C59.3596 37.2744 59.1552 37.0692 58.8689 37.0692C58.5826 37.0692 58.3782 37.2744 58.3782 37.5616C58.3782 37.8488 58.5826 38.054 58.8689 38.054ZM61.0363 38.7105C61.3226 38.7105 61.5679 38.4643 61.5679 38.1771C61.5679 37.8899 61.3226 37.6437 61.0363 37.6437C60.75 37.6437 60.5047 37.8899 60.5047 38.1771C60.4638 38.4643 60.7091 38.7105 61.0363 38.7105ZM63.081 39.6953C63.4082 39.6953 63.6944 39.408 63.6944 39.0798C63.6944 38.7515 63.4082 38.4643 63.081 38.4643C62.7539 38.4643 62.4676 38.7515 62.4676 39.0798C62.4676 39.408 62.7539 39.6953 63.081 39.6953ZM64.3078 40.2287C64.3078 40.598 64.5941 40.8852 64.9621 40.8852C65.3302 40.8852 65.6165 40.598 65.6165 40.2287C65.6165 39.8594 65.3302 39.5722 64.9621 39.5722C64.635 39.5722 64.3078 39.8594 64.3078 40.2287ZM66.7615 42.3623C67.1704 42.3623 67.4976 42.0341 67.4976 41.6238C67.4976 41.2135 67.1704 40.8852 66.7615 40.8852C66.3525 40.8852 66.0254 41.2135 66.0254 41.6238C66.0254 42.0341 66.3525 42.3623 66.7615 42.3623ZM68.3155 44.0447C68.7653 44.0447 69.0925 43.6754 69.0925 43.265C69.0925 42.8547 68.7244 42.4854 68.3155 42.4854C67.9065 42.4854 67.5385 42.8547 67.5385 43.265C67.4976 43.6754 67.8656 44.0447 68.3155 44.0447ZM69.6241 44.2088C69.1334 44.2088 68.7653 44.5781 68.7653 45.0705C68.7653 45.5628 69.1334 45.9321 69.6241 45.9321C70.1148 45.9321 70.4829 45.5628 70.4829 45.0705C70.4829 44.5781 70.1148 44.2088 69.6241 44.2088ZM69.7877 47.04C69.7877 47.5324 70.1966 47.9427 70.6873 47.9427C71.1781 47.9427 71.587 47.5324 71.587 47.04C71.587 46.5476 71.1781 46.1373 70.6873 46.1373C70.1966 46.0963 69.7877 46.5066 69.7877 47.04ZM70.5647 49.1326C70.5647 49.666 71.0145 50.1174 71.5461 50.1174C72.0777 50.1174 72.5276 49.666 72.5276 49.1326C72.5276 48.5992 72.0777 48.1478 71.5461 48.1478C71.0145 48.1478 70.5647 48.5582 70.5647 49.1326ZM72.0777 50.2405C71.5052 50.2405 71.0554 50.6918 71.0554 51.2663C71.0554 51.8407 71.5052 52.2921 72.0777 52.2921C72.6503 52.2921 73.1001 51.8407 73.1001 51.2663C73.1001 50.7329 72.6503 50.2405 72.0777 50.2405ZM35.7228 55.4105C35.641 55.4105 35.6001 55.4515 35.6001 55.5336C35.6001 55.6157 35.641 55.6567 35.7228 55.6567C35.8046 55.6567 35.8455 55.6157 35.8455 55.5336C35.8455 55.4515 35.8046 55.4105 35.7228 55.4105ZM36.3771 53.1127C36.2544 53.1127 36.1317 53.1948 36.1317 53.3589C36.1317 53.482 36.2135 53.6051 36.3771 53.6051C36.5407 53.6051 36.6225 53.523 36.6225 53.3589C36.6225 53.2358 36.4998 53.1127 36.3771 53.1127ZM37.6039 51.3073C37.6039 51.1021 37.4403 50.979 37.2768 50.938C37.1132 50.897 36.9496 51.1021 36.9087 51.2663C36.9087 51.4714 37.0723 51.5945 37.2359 51.6356C37.4812 51.6356 37.6039 51.4714 37.6039 51.3073ZM38.3809 49.7891C38.6263 49.7891 38.8307 49.584 38.8307 49.3378C38.8307 49.0916 38.6263 48.8864 38.3809 48.8864C38.1355 48.8864 37.9311 49.0916 37.9311 49.3378C37.9311 49.584 38.1355 49.7891 38.3809 49.7891ZM39.6895 48.0658C40.0167 48.0658 40.262 47.8196 40.262 47.4913C40.262 47.1631 40.0167 46.9169 39.6895 46.9169C39.3624 46.9169 39.117 47.1631 39.117 47.4913C39.0761 47.8196 39.3624 48.0658 39.6895 48.0658ZM41.1617 46.5066C41.5298 46.5066 41.8569 46.1783 41.8569 45.809C41.8569 45.4397 41.5298 45.1115 41.1617 45.1115C40.7937 45.1115 40.4665 45.4397 40.4665 45.809C40.4665 46.2193 40.7528 46.5066 41.1617 46.5066ZM42.7975 45.1115C43.2473 45.1115 43.6154 44.7422 43.6154 44.2908C43.6154 43.8395 43.2473 43.4702 42.7975 43.4702C42.3476 43.4702 41.9796 43.8395 41.9796 44.2908C41.9796 44.7422 42.3476 45.1115 42.7975 45.1115ZM44.5968 43.8805C45.0876 43.8805 45.5374 43.4702 45.5374 42.9778C45.5374 42.4854 45.1285 42.0341 44.6377 42.0341C44.147 42.0341 43.6972 42.4444 43.6972 42.9368C43.6972 43.4702 44.1061 43.8805 44.5968 43.8805ZM46.5597 42.8958C47.1323 42.8958 47.5821 42.4444 47.5821 41.87C47.5821 41.2955 47.1323 40.8442 46.5597 40.8442C45.9872 40.8442 45.5374 41.2955 45.5374 41.87C45.5374 42.4444 45.9872 42.8958 46.5597 42.8958Z" fill="white"/>
<path d="M48.6454 42.1572C49.218 42.1572 49.7087 41.7468 49.7905 41.1724C50.1994 41.7468 50.9764 41.8699 51.5489 41.5007C51.7125 41.3776 51.8761 41.2134 51.9579 41.0493C52.4077 41.6648 53.2665 41.7879 53.8799 41.3365C53.9617 41.2955 54.0026 41.2134 54.0844 41.1724C54.5751 41.8289 55.4748 41.993 56.17 41.5417C56.2109 41.6237 56.2927 41.7058 56.3745 41.7879C56.0064 41.8289 55.6793 41.993 55.393 42.2392C54.7387 41.6238 53.7163 41.7058 53.1438 42.3213C53.1029 42.3623 53.062 42.4034 53.0211 42.4444C52.7758 42.2392 52.4077 42.1161 52.0806 42.1161C51.508 42.1161 50.9764 42.4444 50.6902 42.9778C50.0359 42.5265 49.1362 42.6906 48.7272 43.3471C48.6454 43.5112 48.5637 43.6753 48.5228 43.8395C47.9094 43.4702 47.0506 43.6343 46.6825 44.2908C46.5598 44.496 46.4781 44.7422 46.4781 44.9884C45.8646 44.6601 45.1285 44.8653 44.7605 45.4397C44.6378 45.6449 44.5969 45.85 44.5969 46.0552C44.5969 46.1783 44.5969 46.3014 44.6378 46.3835C44.4742 46.2604 44.2289 46.2193 44.0244 46.2193C43.3701 46.2193 42.8794 46.7527 42.8794 47.3682C42.8794 48.0247 43.411 48.5171 44.0244 48.5171C44.6787 48.5171 45.1694 47.9837 45.1694 47.3682C45.1694 47.2862 45.1694 47.1631 45.1285 47.081C45.7011 47.4503 46.4781 47.2862 46.8461 46.7117C46.9688 46.5066 47.0506 46.3014 47.0506 46.0552C47.255 46.1783 47.5004 46.2604 47.7458 46.2604C47.7867 46.2604 47.7867 46.2604 47.8276 46.2604C47.5413 46.5065 47.3777 46.8758 47.3368 47.2862C46.5598 47.122 45.7829 47.6554 45.6193 48.4761C45.6193 48.5581 45.5784 48.6402 45.5784 48.7633C45.5784 48.8043 45.5784 48.8864 45.5784 48.9274C45.5375 48.9274 45.4557 48.9274 45.4148 48.9274C44.6378 48.9274 44.0244 49.5429 44.0244 50.3225C44.0244 50.4866 44.0653 50.6097 44.1062 50.7739C44.0653 50.7739 44.0653 50.7739 44.0244 50.7739C43.2883 50.7739 42.7158 51.3483 42.7158 52.0869C42.7158 52.3331 42.7976 52.5793 42.9203 52.7844H42.8794C42.1842 52.7844 41.6525 53.3179 41.6525 54.0154C41.6525 54.3436 41.7752 54.6719 42.0615 54.9181H42.0206C41.3663 54.9181 40.8755 55.4515 40.8755 56.067C40.8755 56.7235 41.4072 57.2159 42.0206 57.2159C42.6749 57.2159 43.1656 56.6825 43.1656 56.067C43.1656 55.7387 43.0429 55.4515 42.8385 55.2464C42.8794 55.2464 42.8794 55.2464 42.9203 55.2464C43.2474 55.2464 43.5746 55.0822 43.8199 54.836V54.8771C43.8199 55.1643 43.9017 55.4925 44.1062 55.7387C43.411 55.9849 43.0429 56.7645 43.2883 57.4621C43.3701 57.7083 43.4928 57.8724 43.6972 58.0365C43.0429 58.3237 42.7567 59.1034 43.0429 59.7599C43.1656 60.0061 43.3701 60.2522 43.6155 60.3753C43.002 60.6626 42.7567 61.4011 43.0838 62.0166C43.2474 62.3449 43.5337 62.5911 43.9017 62.6731C43.3292 62.9604 43.0838 63.6579 43.3701 64.2323C43.5746 64.6427 43.9835 64.8889 44.3924 64.8889C44.4742 64.8889 44.5151 64.8889 44.5969 64.8478C44.0244 65.053 43.7381 65.6685 43.9017 66.2019C44.0653 66.7353 44.7196 67.0635 45.2512 66.8994C45.8237 66.6943 46.11 66.0788 45.9464 65.5454C45.7829 65.094 45.3739 64.8068 44.9241 64.8068C44.8423 64.8068 44.8014 64.8068 44.7196 64.8068C45.2103 64.6427 45.5375 64.1913 45.5375 63.6989C45.5375 63.6579 45.5375 63.6579 45.5375 63.6169C45.7011 63.822 45.9464 63.9451 46.2327 64.0272C45.7829 64.5606 45.8237 65.3812 46.3554 65.8326C46.6007 66.0377 46.887 66.1608 47.1733 66.1198H47.2142C46.8052 66.6532 46.9279 67.4328 47.5004 67.8432C47.7049 68.0073 47.9502 68.0893 48.2365 68.0893C48.3592 68.0893 48.4819 68.0893 48.6046 68.0483C48.2365 68.5817 48.4001 69.3203 48.9317 69.6486C49.1362 69.7716 49.3406 69.8537 49.586 69.8537C49.8314 69.8537 50.1176 69.7717 50.3221 69.6075C49.9132 70.0589 49.995 70.7564 50.4448 71.1667C50.8946 71.5771 51.5898 71.495 51.9988 71.0436C52.3668 70.6333 52.3668 69.9768 51.9579 69.5665C52.1215 69.5665 52.2441 69.5255 52.3668 69.4844C52.3668 69.9768 52.6531 70.4692 53.1029 70.6744C53.0211 70.6744 52.9802 70.6333 52.8984 70.6333C52.3259 70.6333 51.8352 71.0847 51.8352 71.7001C51.8352 72.2746 52.285 72.767 52.8984 72.767C53.471 72.767 53.9617 72.3156 53.9617 71.7001C53.9617 71.2898 53.7572 70.9616 53.3892 70.7564C53.5119 70.7975 53.5937 70.7974 53.7163 70.7974C53.9617 70.7974 54.2071 70.7154 54.4115 70.5923C54.4524 71.2898 55.1067 71.8232 55.8019 71.7822C56.1291 71.7412 56.4154 71.6181 56.6198 71.3719C56.7425 72.0284 57.3559 72.4798 58.0102 72.3977C58.3783 72.3567 58.7054 72.1105 58.9099 71.7822C59.0326 72.3977 59.646 72.808 60.2594 72.6849C60.7501 72.6029 61.1182 72.1925 61.2 71.6591C61.2409 72.2746 61.7725 72.726 62.3859 72.6849C62.9993 72.6439 63.4492 72.1105 63.4083 71.495C63.3674 70.9205 62.9175 70.4692 62.345 70.4692C62.4268 70.3461 62.5086 70.264 62.5904 70.0999C62.9584 70.4692 63.4901 70.5923 63.9399 70.4282C63.4492 70.7564 63.3265 71.4129 63.6536 71.8643C63.9808 72.3156 64.6351 72.4798 65.0849 72.1515C65.5757 71.8232 65.6983 71.1667 65.3712 70.7154C65.1667 70.4282 64.8396 70.264 64.5124 70.264C64.4306 70.264 64.3079 70.264 64.2261 70.3051C64.5533 70.0999 64.7578 69.8127 64.8396 69.4434C65.0849 69.6486 65.3712 69.7306 65.6574 69.7306C66.3526 69.7306 66.9252 69.1562 66.9252 68.4586C66.9252 68.4586 66.9252 68.4586 66.9252 68.4176C67.1296 68.5817 67.375 68.6638 67.6204 68.6638C68.2747 68.6638 68.8472 68.1304 68.8472 67.4328C68.8472 67.3097 68.8472 67.1866 68.8063 67.0635C69.3379 67.4328 70.074 67.2687 70.4012 66.7353C70.6874 66.325 70.6465 65.7505 70.3603 65.3402C70.5648 65.5043 70.8101 65.6274 71.0555 65.6274C71.6689 65.6274 72.1596 65.135 72.1596 64.5196C72.1596 63.9041 71.6689 63.4117 71.0555 63.4117C70.7692 63.4117 70.483 63.5348 70.2785 63.74C70.2785 63.5758 70.2376 63.4527 70.1967 63.3296C70.6874 63.3296 71.1782 63.0424 71.3826 62.5911C71.3826 62.6731 71.3826 62.7142 71.3417 62.7962C71.3417 63.3707 71.7916 63.8631 72.3641 63.8631C72.9366 63.8631 73.4273 63.4117 73.4273 62.8373C73.4273 62.2628 72.9775 61.7704 72.405 61.7704C71.996 61.7704 71.6689 61.9756 71.4644 62.3038C71.5053 62.1807 71.5053 62.0987 71.5053 61.9756C71.5053 61.7294 71.4235 61.4832 71.3008 61.278C71.996 61.237 72.5277 60.5805 72.4868 59.883C72.4459 59.5547 72.3232 59.2675 72.0778 59.0623C72.7321 58.9392 73.182 58.3237 73.1002 57.6672C73.0593 57.2979 72.8139 56.9697 72.4868 56.7645C73.1002 56.6414 73.5091 56.026 73.3864 55.4105C73.3047 54.9181 72.8548 54.5488 72.3641 54.4667C72.9775 54.4257 73.4273 53.8923 73.3864 53.2768C73.3456 52.6613 72.8139 52.21 72.2005 52.251C71.5871 52.2921 71.1373 52.8255 71.1782 53.4409C71.2191 53.9744 71.628 54.4257 72.1596 54.4667C71.5053 54.5078 71.0555 55.0412 71.0964 55.6977C71.1373 56.108 71.3417 56.4363 71.7098 56.6414C71.0555 56.7645 70.6056 57.38 70.7283 58.0365C70.7692 58.2827 70.8919 58.5289 71.0555 58.693C70.3603 58.7751 69.8695 59.4316 69.9513 60.1291C69.9922 60.2933 70.0331 60.4574 70.1149 60.6215C69.4197 60.6626 68.8472 61.237 68.8472 61.9756C68.8472 62.0987 68.8881 62.2218 68.8881 62.3859C68.8881 62.3859 68.8472 62.3859 68.8063 62.3859C68.0293 62.3859 67.4159 63.0014 67.4159 63.781C67.4159 63.822 67.4159 63.8631 67.4159 63.8631C67.3341 63.8631 67.2523 63.8631 67.2114 63.8631C66.4753 63.8631 65.8619 64.3965 65.7801 65.135C65.6574 65.094 65.5348 65.094 65.3712 65.094C64.7987 65.094 64.2261 65.4223 63.9808 65.9967C63.4083 65.5454 62.5495 65.6274 62.0996 66.2019C62.0179 66.2839 61.977 66.407 61.8952 66.4891C61.4044 65.9557 60.5457 65.9146 60.014 66.407C59.8914 66.4891 59.8096 66.6122 59.7278 66.7763C59.2779 66.2019 58.4192 66.0788 57.8466 66.5712C57.8058 66.6122 57.7649 66.6532 57.724 66.6943C57.3968 65.9967 56.6198 65.7095 55.9246 66.0377C55.8428 66.0788 55.761 66.1198 55.7201 66.1608C55.5566 65.4223 54.8205 64.9709 54.1253 65.135C54.0435 65.135 53.9617 65.1761 53.8799 65.2171C53.839 64.4785 53.2256 63.9041 52.4895 63.9041C52.4486 63.9041 52.3668 63.9041 52.3259 63.9041C52.4895 63.1655 52.0397 62.468 51.3036 62.2628C51.2218 62.2218 51.0991 62.2218 51.0173 62.2218C51.3036 61.5242 51.0173 60.7446 50.3221 60.4574C50.2812 60.4164 50.1994 60.4164 50.1585 60.3753C50.6084 59.8009 50.4857 58.9392 49.9132 58.4879C49.8723 58.4468 49.8314 58.4058 49.7496 58.4058C50.3221 57.9545 50.4448 57.0928 49.995 56.5183C49.9541 56.4363 49.8723 56.3952 49.8314 56.3132C50.1994 56.149 50.4448 55.8208 50.5266 55.4515C50.6084 55.0822 50.5266 54.6719 50.3221 54.3437C51.0582 54.1795 51.508 53.4409 51.3445 52.7434C51.3445 52.7024 51.3036 52.6203 51.3036 52.5793C52.0397 52.6203 52.694 52.0459 52.7349 51.3073C52.7349 51.2252 52.7349 51.1432 52.7349 51.0201C53.471 51.1842 54.2071 50.7739 54.3706 50.0353C54.3706 49.9532 54.4115 49.9122 54.4115 49.8301C55.0658 50.1584 55.8837 49.9122 56.2109 49.2557C56.2518 49.2147 56.2518 49.1326 56.2927 49.0916C56.5789 49.3378 56.947 49.4609 57.315 49.4198C57.724 49.3788 58.092 49.1326 58.3374 48.8043C58.7463 49.4198 59.6051 49.5429 60.2185 49.1326C60.3003 49.0916 60.3412 49.0505 60.3821 48.9685C60.6683 49.666 61.4453 49.9943 62.1405 49.707C62.2223 49.666 62.3041 49.625 62.3859 49.5839C62.4677 49.9943 62.7131 50.3225 63.0811 50.5277C63.3674 50.6918 63.7354 50.7328 64.0626 50.6508C64.1035 50.6918 64.1444 50.7328 64.1853 50.8149C64.1853 51.1021 64.3079 51.3893 64.5124 51.6355C64.5124 51.6355 64.5124 51.6355 64.5533 51.6766C65.2485 52.4152 66.8434 54.1385 66.5162 56.4773C66.4344 57.0518 66.7616 57.339 67.1705 56.8876C69.706 54.1385 69.297 50.7739 69.2561 50.4046C69.2561 50.1584 69.1743 49.9122 69.0926 49.666C69.1334 49.5019 69.1335 49.3788 69.1335 49.2147C69.1335 48.5171 68.8063 47.9016 68.2747 47.4913C68.3156 47.3682 68.3156 47.2451 68.3156 47.081C68.3156 46.2193 67.7839 45.4808 67.007 45.1525C67.007 44.1677 66.2709 43.3881 65.3303 43.224C65.1667 42.3213 64.3897 41.6648 63.49 41.6648C63.4492 41.6648 63.4083 41.6648 63.4083 41.6648C63.1629 40.9262 62.4677 40.4338 61.6907 40.4338C61.5271 40.4338 61.4044 40.4338 61.2409 40.4749C60.8319 39.6132 59.8505 39.2439 58.9917 39.6542H58.9508C58.501 38.8746 57.5195 38.6284 56.7425 39.0798C56.6607 39.1208 56.6198 39.1618 56.5789 39.2029C56.0882 38.5464 55.1476 38.3822 54.4933 38.8746C54.3706 38.9567 54.2889 39.0387 54.2071 39.1618C53.7163 38.5874 52.8576 38.4643 52.285 38.9567C52.1215 39.0798 51.9988 39.2849 51.8761 39.4491C51.4263 38.9156 50.6084 38.8336 50.0767 39.2849C49.8314 39.4901 49.6678 39.7773 49.6269 40.1056C49.2589 39.6132 48.5228 39.4901 48.032 39.9004C47.5413 40.2697 47.4186 41.0083 47.8276 41.5007C47.9502 41.993 48.2774 42.1572 48.6454 42.1572ZM40.8755 71.9874C40.8347 71.9874 40.7938 72.0284 40.7938 72.0694C40.7938 72.1105 40.8347 72.1515 40.8755 72.1515C40.9164 72.1515 40.9573 72.1105 40.9573 72.0694C40.9982 72.0284 40.9573 71.9874 40.8755 71.9874ZM39.8532 69.8947C39.7714 69.8947 39.6896 69.9768 39.6896 70.0589C39.6896 70.1409 39.7714 70.223 39.8532 70.223C39.935 70.223 40.0168 70.1409 40.0168 70.0589C40.0168 69.9768 39.935 69.8947 39.8532 69.8947ZM39.0353 67.7201C38.8717 67.7201 38.749 67.8431 38.749 68.0073C38.749 68.1714 38.8717 68.2945 39.0353 68.2945C39.1989 68.2945 39.3216 68.1714 39.3216 68.0073C39.2807 67.8431 39.158 67.7201 39.0353 67.7201ZM38.4219 65.4633C38.2174 65.4633 38.0538 65.6274 38.0538 65.8326C38.0538 66.0377 38.2174 66.2019 38.4219 66.2019C38.6264 66.2019 38.7899 66.0377 38.7899 65.8326C38.7899 65.6274 38.6264 65.4633 38.4219 65.4633ZM38.5037 63.6169C38.5037 63.3707 38.2992 63.1655 38.0538 63.1655C37.8085 63.1655 37.604 63.3707 37.604 63.6169C37.604 63.8631 37.8085 64.0682 38.0538 64.0682C38.2992 64.0682 38.5037 63.8631 38.5037 63.6169ZM38.4219 61.3601C38.4219 61.0729 38.1765 60.8267 37.8903 60.8267C37.604 60.8267 37.3586 61.0729 37.3586 61.3601C37.3586 61.6473 37.604 61.8935 37.8903 61.8935C38.2174 61.8935 38.4219 61.6884 38.4219 61.3601ZM37.3586 59.1444C37.3586 59.4726 37.6449 59.7599 37.9721 59.7599C38.2992 59.7599 38.5855 59.4726 38.5855 59.1444C38.5855 58.8161 38.2992 58.5289 37.9721 58.5289C37.6449 58.4879 37.3995 58.7751 37.3586 59.1444ZM38.3401 57.6262C38.749 57.6262 39.0353 57.2979 39.0353 56.9287C39.0353 56.5183 38.7082 56.2311 38.3401 56.2311C37.9312 56.2311 37.6449 56.5594 37.6449 56.9287C37.604 57.2979 37.9312 57.6262 38.3401 57.6262ZM38.9535 53.9333C38.5037 53.9333 38.1356 54.3026 38.1356 54.754C38.1356 55.2053 38.5037 55.5746 38.9535 55.5746C39.4034 55.5746 39.7714 55.2053 39.7714 54.754C39.7714 54.3026 39.4034 53.9333 38.9535 53.9333ZM39.8532 53.564C40.3439 53.564 40.7529 53.1537 40.7529 52.6613C40.7529 52.169 40.3439 51.7586 39.8532 51.7586C39.3625 51.7586 38.9535 52.169 38.9535 52.6613C38.9535 53.1537 39.3625 53.564 39.8532 53.564Z" fill="white"/>
<path d="M40.9981 51.7176C41.5297 51.7176 41.9795 51.2663 41.9795 50.7329C41.9795 50.1994 41.5297 49.7481 40.9981 49.7481C40.4664 49.7481 40.0166 50.1994 40.0166 50.7329C40.0166 51.3073 40.4664 51.7176 40.9981 51.7176ZM43.4517 49.0095C43.4517 48.4351 42.961 47.9427 42.3885 47.9427C41.8159 47.9427 41.3252 48.4351 41.3252 49.0095C41.3252 49.584 41.8159 50.0763 42.3885 50.0763C43.0019 50.0763 43.4517 49.584 43.4517 49.0095Z" fill="white"/>
<path d="M95.1421 65.4633C96.2054 65.9147 97.3095 66.1198 98.4545 66.1198C99.6405 66.1198 100.826 65.8736 101.89 65.4223C102.953 64.9299 103.893 64.2734 104.67 63.4117C104.875 63.1655 104.998 62.8783 104.998 62.5501C104.998 62.2218 104.875 61.8935 104.589 61.6884C104.425 61.6063 104.221 61.5243 104.016 61.5243H104.016C103.934 61.5243 103.853 61.5243 103.771 61.5653C103.485 61.6473 103.239 61.7704 103.076 61.9756C102.503 62.5911 101.808 63.1245 101.031 63.4528C100.213 63.822 99.3542 63.9862 98.4545 63.9862C97.5958 63.9862 96.7779 63.822 96.0009 63.4938C94.4878 62.8373 93.261 61.6063 92.6476 60.0881C91.9933 58.5289 91.9933 56.7235 92.6476 55.1643C92.9747 54.3847 93.4246 53.6872 93.9971 53.1127C94.5696 52.4972 95.2648 52.0459 96.0009 51.7176C96.7779 51.3894 97.5958 51.2252 98.4545 51.2252C99.3542 51.2252 100.213 51.4304 100.99 51.8407C101.726 52.21 102.421 52.7024 103.076 53.2358C103.28 53.441 103.566 53.5641 103.975 53.5641C104.302 53.523 104.589 53.3589 104.793 53.0717C104.957 52.8255 104.998 52.4972 104.916 52.21C104.834 52.0048 104.711 51.7586 104.548 51.5945C103.771 50.8149 102.83 50.1584 101.808 49.7071C99.6814 48.8044 97.2686 48.8044 95.1421 49.7071C93.0974 50.5687 91.5025 52.21 90.6437 54.2616C89.7441 56.3953 89.7441 58.7751 90.6437 60.9088C91.0527 61.8935 91.6661 62.8373 92.4431 63.6169C93.2201 64.3965 94.1198 65.012 95.1421 65.4633Z" fill="white"/>
<path d="M116.203 66.0788C115.058 66.0788 113.953 65.8736 112.89 65.4223C111.868 65.012 110.968 64.3965 110.191 63.6169C109.414 62.8373 108.801 61.9346 108.392 60.9088C107.492 58.7751 107.492 56.3953 108.392 54.2616C108.842 53.2358 109.455 52.3331 110.191 51.5535C110.968 50.7739 111.868 50.1584 112.89 49.7071C115.017 48.8044 117.389 48.8044 119.515 49.7071C121.56 50.5687 123.195 52.21 124.054 54.2616C124.954 56.3953 124.954 58.7751 124.054 60.9088C123.645 61.9346 122.991 62.8373 122.214 63.6169C121.437 64.3965 120.496 65.012 119.515 65.4223C118.493 65.8736 117.348 66.0788 116.203 66.0788ZM116.203 51.2252C115.344 51.2252 114.526 51.3894 113.749 51.7176C113.013 52.0459 112.318 52.4972 111.745 53.0717C111.173 53.6461 110.723 54.3437 110.396 55.0822C109.741 56.6414 109.741 58.4469 110.396 60.0061C111.745 63.2066 115.466 64.7247 118.656 63.3707C119.392 63.0424 120.088 62.5911 120.66 62.0166C122.459 60.1702 122.991 57.4621 122.01 55.0822C121.682 54.3437 121.233 53.6461 120.66 53.0717C120.088 52.4972 119.392 52.0459 118.656 51.7176C117.879 51.3894 117.061 51.2252 116.203 51.2252Z" fill="white"/>
<path d="M139.717 66.1198C139.103 66.1198 138.613 65.6274 138.613 65.012V55.2464C138.613 54.7129 138.49 54.1795 138.286 53.6461C137.877 52.6613 137.059 51.8817 136.077 51.4304C135.055 50.979 133.91 50.979 132.928 51.4304C132.438 51.6356 131.988 51.9228 131.62 52.3331C131.252 52.7024 130.966 53.1537 130.761 53.6461C130.557 54.1385 130.434 54.6719 130.434 55.2464V65.012C130.434 65.2992 130.311 65.5864 130.107 65.7916C129.902 65.9967 129.616 66.1198 129.33 66.1198C128.716 66.1198 128.226 65.6274 128.226 65.053V55.2874C128.226 54.4668 128.389 53.6051 128.716 52.8255C129.043 52.0869 129.493 51.3894 130.066 50.8149C130.638 50.2405 131.334 49.7891 132.07 49.4609C133.624 48.8043 135.382 48.8043 136.936 49.4609C138.449 50.1174 139.635 51.3073 140.289 52.8255C140.617 53.6051 140.78 54.4257 140.78 55.2874V65.053C140.78 65.3402 140.657 65.6274 140.453 65.8326C140.289 66.0378 140.044 66.1609 139.717 66.1198ZM150.472 66.1198C149.654 66.1198 148.877 65.9967 148.1 65.7095C147.405 65.4633 146.751 65.053 146.137 64.6016C145.606 64.1503 145.156 63.5758 144.829 62.9193C144.501 62.2628 144.338 61.5653 144.338 60.8677C144.338 60.2933 144.788 59.8419 145.36 59.8419C145.933 59.8419 146.383 60.2933 146.383 60.8677C146.383 61.2781 146.464 61.7294 146.669 62.0987C146.873 62.468 147.16 62.8373 147.487 63.1245C147.855 63.4117 148.305 63.6579 148.754 63.822C149.286 63.9862 149.818 64.0682 150.349 64.0682C150.881 64.0682 151.454 63.9862 151.944 63.822C152.435 63.6579 152.844 63.4117 153.253 63.1245C153.621 62.8783 153.907 62.509 154.112 62.1397C154.316 61.7704 154.398 61.3601 154.357 60.9498C154.316 60.5395 154.193 60.1702 153.989 59.8419C153.744 59.4727 153.457 59.1444 153.13 58.8982C152.762 58.611 152.353 58.3648 151.903 58.2007C151.413 57.9955 150.922 57.8724 150.431 57.7903C149.695 57.7493 149 57.5852 148.305 57.38C147.65 57.1749 147.037 56.8466 146.505 56.4773C146.015 56.108 145.565 55.6977 145.238 55.1643C144.91 54.6309 144.747 54.0564 144.747 53.441C144.747 52.8255 144.91 52.251 145.197 51.7176C145.524 51.1842 145.933 50.6918 146.464 50.3225C146.996 49.9532 147.609 49.625 148.305 49.4198C149.736 48.9685 151.29 48.9685 152.721 49.4198C153.416 49.666 154.03 49.9532 154.561 50.3225C155.093 50.7329 155.502 51.1842 155.829 51.7176C156.156 52.251 156.279 52.8255 156.279 53.441C156.279 54.0564 155.788 54.5488 155.175 54.5488C154.889 54.5488 154.602 54.4257 154.398 54.2206C154.193 54.0154 154.112 53.7282 154.071 53.3999C154.071 53.1127 153.948 52.8665 153.784 52.6614C153.58 52.3741 153.335 52.169 153.048 51.9638C152.68 51.7586 152.312 51.5945 151.903 51.4714C151.454 51.3483 151.004 51.2663 150.513 51.3073C150.022 51.3073 149.531 51.3483 149.082 51.4714C148.673 51.5945 148.305 51.7586 147.937 51.9638C147.65 52.169 147.405 52.4152 147.201 52.7024C147.037 52.9486 146.955 53.2358 146.955 53.523C146.955 53.8102 147.037 54.0154 147.282 54.2616C147.528 54.5488 147.814 54.754 148.141 54.9181C148.509 55.1233 148.918 55.2874 149.327 55.4105C149.736 55.5336 150.145 55.6156 150.554 55.6977C151.331 55.7798 152.108 55.9849 152.844 56.2722C153.58 56.5594 154.193 56.9287 154.725 57.38C155.257 57.8314 155.706 58.3648 155.993 58.9803C156.32 59.5957 156.483 60.2933 156.443 60.9908C156.443 61.7294 156.279 62.4269 155.952 63.0835C155.625 63.74 155.175 64.3144 154.643 64.7658C153.58 65.5864 152.026 66.1609 150.472 66.1198ZM161.473 66.1198C160.859 66.1198 160.368 65.6274 160.368 65.053V50.0763C160.368 49.7891 160.491 49.5019 160.696 49.2967C160.9 49.0916 161.186 48.9685 161.473 48.9685H170.592C171.205 48.9685 171.696 49.4609 171.696 50.0353C171.696 50.3225 171.573 50.6098 171.369 50.8149C171.165 51.0201 170.878 51.1432 170.592 51.1432H162.577V56.3953H168.261C168.874 56.3953 169.365 56.8876 169.365 57.5031C169.365 58.1186 168.874 58.611 168.261 58.611H162.577V63.9451H170.592C171.205 63.9451 171.696 64.4375 171.696 65.012C171.696 65.2992 171.573 65.5864 171.369 65.7916C171.165 65.9967 170.878 66.1198 170.592 66.1198H161.473ZM186.091 66.1198C185.477 66.1198 184.987 65.6274 184.987 65.012V55.2464C184.987 54.7129 184.864 54.1795 184.66 53.6461C184.251 52.6613 183.433 51.8817 182.451 51.4304C181.429 50.979 180.284 50.979 179.302 51.4304C178.812 51.6356 178.362 51.9228 177.994 52.3331C177.626 52.7024 177.34 53.1537 177.094 53.6461C176.89 54.1385 176.767 54.6719 176.767 55.2464V65.012C176.767 65.6274 176.276 66.1198 175.663 66.1198C175.049 66.1198 174.559 65.6274 174.559 65.012V55.2464C174.559 52.7024 176.072 50.4456 178.362 49.4609C179.916 48.8043 181.674 48.8043 183.269 49.4609C184.005 49.7891 184.701 50.2405 185.273 50.8149C185.846 51.3894 186.295 52.0869 186.623 52.8255C186.95 53.6051 187.113 54.4257 187.113 55.2874V65.053C187.195 65.6274 186.704 66.1198 186.091 66.1198ZM196.805 66.1198C195.987 66.1198 195.21 65.9967 194.433 65.7095C193.738 65.4633 193.043 65.053 192.47 64.6016C191.939 64.1503 191.489 63.5758 191.162 62.9193C190.835 62.2628 190.671 61.5653 190.671 60.8677C190.671 60.5805 190.794 60.3343 190.957 60.1292C191.366 59.7188 192.021 59.7188 192.43 60.1292C192.634 60.3343 192.716 60.5805 192.716 60.8677C192.716 61.2781 192.798 61.6884 193.002 62.0987C193.206 62.509 193.493 62.8373 193.82 63.1245C194.188 63.4117 194.638 63.6579 195.088 63.822C195.619 63.9862 196.151 64.0682 196.683 64.0682C197.214 64.0682 197.787 63.9862 198.277 63.822C198.768 63.6579 199.177 63.4117 199.586 63.1245C199.954 62.8373 200.24 62.509 200.445 62.1397C200.649 61.7704 200.731 61.3601 200.69 60.9498C200.649 60.5395 200.527 60.1702 200.322 59.8419C200.077 59.4727 199.79 59.1444 199.463 58.8982C199.095 58.611 198.686 58.3648 198.236 58.2007C197.746 57.9955 197.255 57.8724 196.764 57.7903C196.028 57.7493 195.333 57.5852 194.638 57.38C193.983 57.1749 193.37 56.8466 192.838 56.4773C192.348 56.108 191.898 55.6977 191.571 55.1643C191.244 54.6309 191.08 54.0564 191.08 53.441C191.08 52.8255 191.244 52.251 191.53 51.7176C191.857 51.1842 192.266 50.6918 192.798 50.3225C193.329 49.9532 193.943 49.625 194.597 49.4198C196.028 48.9685 197.582 48.9685 199.013 49.4198C199.709 49.666 200.322 49.9532 200.854 50.3225C201.344 50.6918 201.794 51.1432 202.121 51.7176C202.449 52.251 202.571 52.8255 202.571 53.441C202.571 53.7282 202.449 54.0154 202.244 54.2206C202.04 54.4257 201.753 54.5488 201.467 54.5488C201.181 54.5488 200.895 54.4257 200.69 54.2206C200.486 54.0154 200.404 53.7282 200.363 53.3999C200.363 53.1127 200.24 52.8665 200.077 52.6614C199.872 52.3741 199.627 52.169 199.341 51.9638C198.973 51.7586 198.605 51.5945 198.196 51.4714C197.746 51.3483 197.296 51.2663 196.805 51.3073C196.314 51.3073 195.824 51.3483 195.374 51.4714C194.965 51.5945 194.597 51.7586 194.229 51.9638C193.943 52.169 193.697 52.4152 193.493 52.7024C193.329 52.9486 193.247 53.2358 193.247 53.523C193.247 53.8102 193.37 54.0154 193.575 54.2616C193.82 54.5488 194.147 54.754 194.474 54.9181C194.842 55.1233 195.251 55.2874 195.66 55.4105C196.069 55.5336 196.478 55.6156 196.887 55.6977C197.664 55.7798 198.441 55.9849 199.177 56.2722C199.872 56.5594 200.486 56.9287 201.058 57.38C201.59 57.8314 202.04 58.3648 202.326 58.9803C202.653 59.5957 202.817 60.2933 202.817 60.9908C202.817 61.7294 202.653 62.4269 202.326 63.0835C201.999 63.74 201.549 64.3144 201.017 64.7658C199.913 65.5864 198.4 66.1609 196.805 66.1198ZM213.286 66.1198C212.672 66.1198 212.181 65.6274 212.181 65.053V59.4727L205.475 50.7329C205.311 50.5277 205.229 50.2405 205.229 49.9532C205.229 49.666 205.393 49.3788 205.597 49.2147C205.802 49.0505 206.047 48.9685 206.293 48.9685C206.661 49.0095 206.906 49.1326 207.111 49.3788L213.286 57.339L219.542 49.3788C219.706 49.1326 219.992 49.0095 220.278 48.9685C220.606 48.9685 220.851 49.0505 221.055 49.2147C221.301 49.3788 221.424 49.666 221.464 49.9532C221.505 50.2405 221.383 50.5277 221.219 50.7329L214.349 59.4727V65.053C214.349 65.3402 214.226 65.6274 214.022 65.8326C213.858 66.0378 213.572 66.1609 213.286 66.1198ZM229.684 66.1198C228.866 66.1198 228.089 65.9967 227.312 65.7095C226.617 65.4633 225.963 65.053 225.349 64.6016C224.818 64.1503 224.368 63.5758 224.041 62.9193C223.714 62.2628 223.55 61.5653 223.55 60.8677C223.55 60.2933 224 59.8419 224.572 59.8419C224.859 59.8419 225.104 59.965 225.308 60.1702C225.513 60.3754 225.636 60.6215 225.595 60.9088C225.595 61.3191 225.677 61.7704 225.881 62.1397C226.085 62.509 226.372 62.8783 226.74 63.1655C227.108 63.4527 227.558 63.6989 228.007 63.8631C228.539 64.0272 229.071 64.1093 229.602 64.1093C230.134 64.1093 230.706 64.0272 231.197 63.8631C231.688 63.6989 232.097 63.4527 232.506 63.1655C232.874 62.8783 233.16 62.55 233.365 62.1808C233.569 61.8115 233.651 61.4012 233.61 60.9908C233.569 60.5805 233.446 60.2112 233.242 59.883C232.997 59.5137 232.71 59.1854 232.383 58.9392C232.015 58.652 231.606 58.4058 231.156 58.2417C230.666 58.0365 230.175 57.9134 229.684 57.8314C228.948 57.7903 228.253 57.6262 227.558 57.4211C226.903 57.2159 226.29 56.8876 225.758 56.5183C225.268 56.1491 224.818 55.7387 224.491 55.2053C224.163 54.6719 224 54.0975 224 53.482C224 52.8665 224.163 52.2921 224.45 51.7586C224.777 51.2252 225.186 50.7328 225.717 50.3636C226.249 49.9943 226.862 49.666 227.517 49.4609C228.948 49.0095 230.502 49.0095 231.933 49.4609C232.588 49.666 233.201 49.9943 233.733 50.3636C234.223 50.7328 234.673 51.1842 235 51.7586C235.287 52.2921 235.45 52.8665 235.45 53.482C235.45 54.0975 234.959 54.5898 234.346 54.5898C234.06 54.5898 233.774 54.4668 233.569 54.2616C233.365 54.0564 233.283 53.7692 233.242 53.441C233.242 53.1537 233.119 52.9075 232.956 52.7024C232.751 52.4152 232.506 52.21 232.179 52.0048C231.811 51.7997 231.443 51.6356 231.034 51.5125C230.584 51.3894 230.134 51.3073 229.643 51.3483C229.153 51.3483 228.662 51.3894 228.212 51.5125C227.803 51.6356 227.435 51.7997 227.067 52.0048C226.781 52.21 226.535 52.4562 226.331 52.7434C226.167 52.9896 226.085 53.2768 226.085 53.5641C226.085 53.8513 226.167 54.0564 226.413 54.3026C226.658 54.5899 226.944 54.795 227.312 54.9591C227.68 55.1643 228.089 55.3284 228.498 55.4515C228.907 55.5746 229.316 55.6567 229.725 55.7387C230.502 55.8208 231.279 56.026 232.015 56.3132C232.751 56.6004 233.365 56.9697 233.896 57.4211C234.428 57.8724 234.878 58.4058 235.164 59.0213C235.491 59.6368 235.655 60.3343 235.614 61.0319C235.614 61.7704 235.45 62.468 235.123 63.1245C234.796 63.781 234.346 64.3555 233.814 64.8068C232.792 65.5864 231.279 66.1609 229.684 66.1198Z" fill="white"/>
</g>
<defs>
<clipPath id="clip0_21_14177">
<rect width="200" height="49.7854" fill="white" transform="translate(35.6001 34.6073)"/>
</clipPath>
</defs>
</svg>
