<svg width="272" height="119" viewBox="0 0 272 119" fill="none" xmlns="http://www.w3.org/2000/svg">
<rect x="0.199951" width="271.2" height="119" rx="8" fill="#230062"/>
<g clip-path="url(#clip0_21_14210)">
<path fill-rule="evenodd" clip-rule="evenodd" d="M53.0776 60.4448L60.4157 68.0409C60.5038 68.1308 60.5739 68.2378 60.622 68.3558C60.6702 68.4737 60.6954 68.6003 60.6963 68.7284C60.6971 68.8564 60.6737 68.9834 60.627 69.1021C60.5805 69.2208 60.5118 69.3287 60.4249 69.4199L59.8865 69.9754C59.7352 70.1395 59.5353 70.2466 59.3185 70.2798C59.1753 70.2997 59.0297 70.2849 58.8929 70.2367C58.7561 70.1886 58.6321 70.1082 58.5303 70.0022L49.5695 60.7264C49.4137 60.5654 49.2902 60.3742 49.2058 60.1637C49.1215 59.9532 49.0781 59.7276 49.0781 59.4997C49.0781 59.2718 49.1215 59.0461 49.2058 58.8356C49.2902 58.6252 49.4137 58.4339 49.5695 58.2729L58.5303 48.9972C58.6176 48.9066 58.7212 48.8348 58.8354 48.7858C58.9495 48.7368 59.0718 48.7116 59.1954 48.7116C59.319 48.7116 59.4413 48.7368 59.5555 48.7858C59.6696 48.8348 59.7733 48.9066 59.8606 48.9972L60.4157 49.5813C60.5031 49.6717 60.5725 49.779 60.6198 49.8972C60.6671 50.0153 60.6915 50.1419 60.6915 50.2699C60.6915 50.3978 60.6671 50.5244 60.6198 50.6426C60.5725 50.7607 60.5031 50.868 60.4157 50.9584L53.0776 58.5564C52.8369 58.8075 52.7019 59.1469 52.7019 59.5006C52.7019 59.8544 52.8369 60.1937 53.0776 60.4448ZM43.4184 58.5644L36.0832 50.9664C35.9942 50.8764 35.9234 50.769 35.8747 50.6504C35.8261 50.5318 35.8008 50.4044 35.8001 50.2756C35.7994 50.1468 35.8234 50.0191 35.8707 49.9C35.9181 49.7808 35.9878 49.6726 36.0758 49.5816L36.6122 49.0242C36.7649 48.8611 36.965 48.7542 37.1818 48.7197C37.3249 48.7005 37.4704 48.7156 37.607 48.7637C37.7436 48.8119 37.8677 48.8918 37.9697 48.9974L46.927 58.2733C47.0828 58.4343 47.2063 58.6256 47.2906 58.836C47.3749 59.0466 47.4183 59.2722 47.4183 59.5001C47.4183 59.728 47.3749 59.9536 47.2906 60.1641C47.2063 60.3746 47.0828 60.5658 46.927 60.7268L37.9697 70.0027C37.8823 70.0933 37.7785 70.1651 37.6643 70.2141C37.55 70.2632 37.4276 70.2884 37.3039 70.2884C37.1802 70.2884 37.0578 70.2632 36.9436 70.2141C36.8293 70.1651 36.7255 70.0933 36.6381 70.0027L36.0832 69.4281C35.9958 69.3376 35.9264 69.23 35.879 69.1118C35.8317 68.9934 35.8073 68.8666 35.8073 68.7386C35.8073 68.6105 35.8317 68.4837 35.879 68.3654C35.9264 68.2471 35.9958 68.1396 36.0832 68.049L43.4184 60.453C43.659 60.2018 43.794 59.8624 43.794 59.5086C43.794 59.1549 43.659 58.8155 43.4184 58.5644Z" fill="white"/>
</g>
<g clip-path="url(#clip1_21_14210)">
<path d="M82.9599 66.3336C81.6706 66.3336 80.4745 66.107 79.3718 65.6537C78.286 65.1836 77.3359 64.5373 76.5216 63.7146C75.7073 62.8752 75.0795 61.9098 74.6385 60.8186C74.1974 59.7106 73.9768 58.527 73.9768 57.2679C73.9768 56.0088 74.1974 54.8336 74.6385 53.7424C75.0795 52.6344 75.7073 51.669 76.5216 50.8464C77.3359 50.0238 78.286 49.3774 79.3718 48.9073C80.4745 48.4373 81.6706 48.2022 82.9599 48.2022C84.402 48.2022 85.649 48.4373 86.7008 48.9073C87.7526 49.3774 88.6857 50.0154 89.5 50.8212L87.5151 52.7854C86.9891 52.2146 86.3445 51.7697 85.5811 51.4508C84.8346 51.1318 83.9609 50.9723 82.9599 50.9723C82.0777 50.9723 81.2719 51.1234 80.5424 51.4256C79.8129 51.7278 79.1767 52.1643 78.6338 52.7351C78.1079 53.2891 77.7007 53.9522 77.4123 54.7245C77.1239 55.4967 76.9797 56.3446 76.9797 57.2679C76.9797 58.1913 77.1239 59.0391 77.4123 59.8113C77.7007 60.5836 78.1079 61.2551 78.6338 61.8259C79.1767 62.38 79.8129 62.8081 80.5424 63.1102C81.2719 63.4124 82.0777 63.5635 82.9599 63.5635C84.0457 63.5635 84.9618 63.4041 85.7083 63.0851C86.4717 62.7493 87.1164 62.296 87.6423 61.7252L89.6273 63.6894C88.8129 64.5121 87.8544 65.1584 86.7517 65.6285C85.649 66.0986 84.385 66.3336 82.9599 66.3336Z" fill="white"/>
<path d="M94.8819 66.2077L89.665 53.9942H92.7442L96.3069 62.9591H95.4163L99.1826 53.9942H102.287L96.6123 66.2077H94.8819ZM91.2428 71.1183L95.0346 63.3872L96.6123 66.2077L94.3475 71.1183H91.2428Z" fill="white"/>
<path d="M110.351 66.3336C109.418 66.3336 108.586 66.1405 107.857 65.7544C107.127 65.3515 106.55 64.8058 106.126 64.1175C105.719 63.4293 105.516 62.6486 105.516 61.7756V58.3004C105.516 57.4274 105.728 56.6468 106.152 55.9584C106.576 55.2701 107.153 54.7329 107.882 54.3468C108.612 53.9438 109.435 53.7424 110.351 53.7424C111.453 53.7424 112.446 54.0278 113.328 54.5986C114.227 55.1526 114.931 55.9081 115.44 56.865C115.966 57.8051 116.229 58.8712 116.229 60.0632C116.229 61.2384 115.966 62.3044 115.44 63.2613C114.931 64.2014 114.227 64.9486 113.328 65.5026C112.446 66.0566 111.453 66.3336 110.351 66.3336ZM109.893 63.7146C110.571 63.7146 111.165 63.5635 111.674 63.2613C112.2 62.9423 112.607 62.5059 112.895 61.9519C113.201 61.3978 113.354 60.7599 113.354 60.038C113.354 59.3161 113.201 58.6781 112.895 58.1241C112.607 57.5701 112.2 57.142 111.674 56.8398C111.165 56.5208 110.571 56.3614 109.893 56.3614C109.214 56.3614 108.612 56.5208 108.086 56.8398C107.56 57.142 107.153 57.5701 106.864 58.1241C106.576 58.6781 106.432 59.3161 106.432 60.038C106.432 60.7599 106.576 61.3978 106.864 61.9519C107.153 62.5059 107.56 62.9423 108.086 63.2613C108.612 63.5635 109.214 63.7146 109.893 63.7146ZM103.811 66.0818V47.9504H106.61V56.9657L106.126 59.8869L106.61 62.8332V66.0818H103.811Z" fill="white"/>
<path d="M124.247 66.3336C123.026 66.3336 121.923 66.065 120.939 65.5278C119.972 64.9738 119.2 64.2183 118.623 63.2613C118.063 62.3044 117.783 61.2299 117.783 60.038C117.783 58.846 118.063 57.78 118.623 56.8398C119.183 55.8829 119.938 55.1274 120.888 54.5734C121.855 54.0194 122.924 53.7424 124.095 53.7424C125.231 53.7424 126.232 54.0026 127.097 54.523C127.98 55.0435 128.667 55.757 129.159 56.6635C129.668 57.5701 129.922 58.6026 129.922 59.761C129.922 59.9624 129.905 60.1723 129.871 60.3905C129.854 60.592 129.82 60.8186 129.769 61.0705H119.743V58.8041H128.319L127.276 59.7106C127.242 58.9719 127.097 58.3508 126.843 57.8471C126.588 57.3435 126.224 56.9573 125.749 56.6887C125.291 56.4201 124.722 56.2858 124.044 56.2858C123.331 56.2858 122.712 56.4369 122.186 56.7391C121.66 57.0413 121.253 57.4694 120.964 58.0234C120.676 58.5606 120.532 59.207 120.532 59.9624C120.532 60.7179 120.685 61.381 120.99 61.9519C121.295 62.5227 121.728 62.9675 122.288 63.2865C122.848 63.5887 123.492 63.7398 124.222 63.7398C124.85 63.7398 125.426 63.6307 125.952 63.4124C126.495 63.1942 126.953 62.8753 127.326 62.4555L129.108 64.2435C128.514 64.9317 127.793 65.4522 126.945 65.8048C126.096 66.1573 125.197 66.3336 124.247 66.3336Z" fill="white"/>
<path d="M132.166 66.0818V53.9942H134.965V66.0818H132.166ZM134.965 59.3581L133.998 58.8796C133.998 57.3519 134.338 56.1179 135.016 55.1778C135.712 54.2209 136.755 53.7424 138.146 53.7424C138.757 53.7424 139.308 53.8515 139.8 54.0698C140.292 54.288 140.751 54.6406 141.175 55.1274L139.342 56.9909C139.122 56.7559 138.876 56.588 138.604 56.4873C138.333 56.3865 138.019 56.3362 137.663 56.3362C136.882 56.3362 136.238 56.5796 135.729 57.0665C135.22 57.5533 134.965 58.3172 134.965 59.3581Z" fill="white"/>
<path d="M151.45 66.3336C150.161 66.3336 148.965 66.107 147.862 65.6537C146.777 65.1836 145.826 64.5373 145.012 63.7146C144.198 62.8752 143.57 61.9098 143.129 60.8186C142.688 59.7106 142.467 58.527 142.467 57.2679C142.467 56.0088 142.688 54.8336 143.129 53.7424C143.57 52.6344 144.198 51.669 145.012 50.8464C145.826 50.0238 146.777 49.3774 147.862 48.9073C148.965 48.4373 150.161 48.2022 151.45 48.2022C152.892 48.2022 154.139 48.4373 155.191 48.9073C156.243 49.3774 157.176 50.0154 157.991 50.8212L156.006 52.7854C155.48 52.2146 154.835 51.7697 154.072 51.4508C153.325 51.1318 152.451 50.9723 151.45 50.9723C150.568 50.9723 149.762 51.1234 149.033 51.4256C148.303 51.7278 147.667 52.1643 147.124 52.7351C146.598 53.2891 146.191 53.9522 145.903 54.7245C145.614 55.4967 145.47 56.3446 145.47 57.2679C145.47 58.1913 145.614 59.0391 145.903 59.8113C146.191 60.5836 146.598 61.2551 147.124 61.8259C147.667 62.38 148.303 62.8081 149.033 63.1102C149.762 63.4124 150.568 63.5635 151.45 63.5635C152.536 63.5635 153.452 63.4041 154.199 63.0851C154.962 62.7493 155.607 62.296 156.133 61.7252L158.118 63.6894C157.303 64.5121 156.345 65.1584 155.242 65.6285C154.139 66.0986 152.875 66.3336 151.45 66.3336Z" fill="white"/>
<path d="M165.598 66.3336C164.411 66.3336 163.333 66.0566 162.366 65.5026C161.399 64.9317 160.627 64.1679 160.05 63.211C159.491 62.254 159.211 61.188 159.211 60.0128C159.211 58.8376 159.491 57.78 160.05 56.8398C160.627 55.8997 161.399 55.1526 162.366 54.5986C163.333 54.0278 164.411 53.7424 165.598 53.7424C166.803 53.7424 167.888 54.0194 168.855 54.5734C169.822 55.1274 170.586 55.8829 171.146 56.8398C171.723 57.78 172.011 58.8376 172.011 60.0128C172.011 61.188 171.723 62.254 171.146 63.211C170.586 64.1679 169.822 64.9317 168.855 65.5026C167.888 66.0566 166.803 66.3336 165.598 66.3336ZM165.598 63.6643C166.294 63.6643 166.905 63.5132 167.43 63.211C167.973 62.892 168.389 62.4555 168.677 61.9015C168.983 61.3475 169.135 60.7179 169.135 60.0128C169.135 59.3077 168.983 58.6865 168.677 58.1493C168.372 57.6121 167.956 57.1924 167.43 56.8902C166.905 56.5712 166.294 56.4117 165.598 56.4117C164.92 56.4117 164.309 56.5712 163.766 56.8902C163.24 57.1924 162.824 57.6121 162.519 58.1493C162.231 58.6865 162.086 59.3077 162.086 60.0128C162.086 60.7179 162.231 61.3475 162.519 61.9015C162.824 62.4555 163.24 62.892 163.766 63.211C164.309 63.5132 164.92 63.6643 165.598 63.6643Z" fill="white"/>
<path d="M182.711 66.0818V59.1062C182.711 58.3004 182.448 57.6373 181.922 57.1168C181.413 56.5964 180.752 56.3362 179.937 56.3362C179.395 56.3362 178.911 56.4537 178.487 56.6887C178.063 56.9238 177.732 57.2511 177.494 57.6708C177.257 58.0905 177.138 58.569 177.138 59.1062L176.044 58.5019C176.044 57.5785 176.247 56.7643 176.655 56.0592C177.062 55.3373 177.622 54.7749 178.334 54.3719C179.064 53.9522 179.878 53.7424 180.777 53.7424C181.693 53.7424 182.508 53.9774 183.22 54.4475C183.933 54.9008 184.493 55.4968 184.9 56.2354C185.307 56.9573 185.511 57.7128 185.511 58.5019V66.0818H182.711ZM174.339 66.0818V53.9942H177.138V66.0818H174.339Z" fill="white"/>
<path d="M196.727 66.0818V59.1062C196.727 58.3004 196.465 57.6373 195.938 57.1168C195.429 56.5964 194.768 56.3362 193.953 56.3362C193.411 56.3362 192.927 56.4537 192.503 56.6887C192.079 56.9238 191.749 57.2511 191.51 57.6708C191.273 58.0905 191.154 58.569 191.154 59.1062L190.06 58.5019C190.06 57.5785 190.263 56.7643 190.671 56.0592C191.078 55.3373 191.638 54.7749 192.35 54.3719C193.08 53.9522 193.894 53.7424 194.793 53.7424C195.709 53.7424 196.524 53.9774 197.236 54.4475C197.949 54.9008 198.508 55.4968 198.916 56.2354C199.323 56.9573 199.526 57.7128 199.526 58.5019V66.0818H196.727ZM188.355 66.0818V53.9942H191.154V66.0818H188.355Z" fill="white"/>
<path d="M208.047 66.3336C206.825 66.3336 205.722 66.065 204.739 65.5278C203.772 64.9738 202.999 64.2183 202.423 63.2613C201.863 62.3044 201.583 61.2299 201.583 60.038C201.583 58.846 201.863 57.78 202.423 56.8398C202.983 55.8829 203.737 55.1274 204.688 54.5734C205.655 54.0194 206.723 53.7424 207.894 53.7424C209.03 53.7424 210.032 54.0026 210.897 54.523C211.778 55.0435 212.465 55.757 212.958 56.6635C213.467 57.5701 213.722 58.6026 213.722 59.761C213.722 59.9624 213.704 60.1723 213.671 60.3905C213.653 60.592 213.62 60.8186 213.569 61.0705H203.543V58.8041H212.118L211.075 59.7106C211.04 58.9719 210.897 58.3508 210.642 57.8471C210.388 57.3435 210.022 56.9573 209.548 56.6887C209.09 56.4201 208.521 56.2858 207.843 56.2858C207.131 56.2858 206.511 56.4369 205.986 56.7391C205.459 57.0413 205.052 57.4694 204.764 58.0234C204.475 58.5606 204.331 59.207 204.331 59.9624C204.331 60.7179 204.484 61.381 204.789 61.9519C205.095 62.5227 205.527 62.9675 206.087 63.2865C206.647 63.5887 207.291 63.7398 208.021 63.7398C208.648 63.7398 209.225 63.6307 209.752 63.4124C210.294 63.1942 210.752 62.8753 211.126 62.4555L212.907 64.2435C212.313 64.9317 211.592 65.4522 210.744 65.8048C209.895 66.1573 208.996 66.3336 208.047 66.3336Z" fill="white"/>
<path d="M221.59 66.3336C220.384 66.3336 219.29 66.0566 218.307 65.5026C217.34 64.9486 216.576 64.1931 216.017 63.2362C215.457 62.2792 215.177 61.2132 215.177 60.038C215.177 58.846 215.457 57.78 216.017 56.8398C216.576 55.8829 217.34 55.1274 218.307 54.5734C219.29 54.0194 220.384 53.7424 221.59 53.7424C222.539 53.7424 223.422 53.9271 224.236 54.2964C225.067 54.649 225.771 55.161 226.348 55.8325L224.516 57.6708C224.16 57.2511 223.727 56.9406 223.218 56.7391C222.726 56.5208 222.183 56.4117 221.59 56.4117C220.893 56.4117 220.274 56.5712 219.732 56.8902C219.206 57.1924 218.79 57.6121 218.485 58.1493C218.196 58.6865 218.052 59.3161 218.052 60.038C218.052 60.7431 218.196 61.3727 218.485 61.9267C218.79 62.4639 219.206 62.892 219.732 63.211C220.274 63.5132 220.893 63.6643 221.59 63.6643C222.183 63.6643 222.726 63.5635 223.218 63.3621C223.727 63.1438 224.16 62.8249 224.516 62.4051L226.348 64.2435C225.771 64.915 225.067 65.4354 224.236 65.8048C223.422 66.1573 222.539 66.3336 221.59 66.3336Z" fill="white"/>
<path d="M230.025 66.0818V48.9577H232.824V66.0818H230.025ZM227.098 56.5124V53.9942H235.75V56.5124H227.098Z" fill="white"/>
</g>
<defs>
<clipPath id="clip0_21_14210">
<rect width="24.8963" height="21.5768" fill="white" transform="translate(35.8 48.7116)"/>
</clipPath>
<clipPath id="clip1_21_14210">
<rect width="161.826" height="23.2365" fill="white" transform="translate(73.9744 47.8817)"/>
</clipPath>
</defs>
</svg>
