<svg width="272" height="119" viewBox="0 0 272 119" fill="none" xmlns="http://www.w3.org/2000/svg">
<rect x="0.399902" width="271.2" height="119" rx="8" fill="#230062"/>
<g clip-path="url(#clip0_21_14211)">
<path d="M143.191 30.8155C144.811 29.9404 146.68 29.5642 148.514 29.623C149.763 29.5806 151.009 29.7648 152.193 30.1665C154.15 30.8581 155.801 32.6175 156.02 34.7298C156.079 35.3511 156.079 35.9765 156.02 36.5978C155.88 37.9079 155.109 39.1553 153.946 39.7931C152.783 40.431 151.452 40.6622 150.15 40.6206C151.061 38.9849 151.721 37.1433 151.649 35.246C151.715 33.9652 151.404 32.6216 150.587 31.6106C150.28 31.2331 149.896 30.9248 149.462 30.7059C149.027 30.4869 148.552 30.3622 148.066 30.3399C146.829 30.2953 145.534 30.6168 144.572 31.426C143.435 32.3549 142.64 33.6488 142.091 34.9996C141.335 36.7935 140.988 38.7233 140.687 40.6368C140.252 43.3921 139.999 46.1706 139.771 48.9522C139.609 51.3525 139.412 53.7518 139.135 56.142C138.864 58.1551 138.37 60.1316 137.661 62.0348C136.446 65.1176 134.433 67.9499 131.652 69.7945C130.038 70.9263 128.2 71.6988 126.263 72.0599C125.051 72.2938 123.817 72.3958 122.582 72.3641C120.97 72.4053 119.362 72.1696 117.828 71.6674C117.817 68.5877 117.82 65.508 117.82 62.4282C117.809 60.7763 117.853 59.1234 117.776 57.4745C120.471 56.9979 123.214 56.5385 125.916 56.0943C125.922 61.1363 125.861 66.1864 125.881 71.2273C127.638 70.6371 129.176 69.473 130.325 68.0279C131.42 66.6223 132.272 65.0428 132.845 63.3551C133.778 60.7915 134.283 58.0931 134.599 55.3906C134.802 53.4841 134.915 51.5685 135.031 49.655C135.063 48.3853 135.173 47.1198 135.305 45.8563C135.601 43.5401 136.026 41.226 136.803 39.0184C137.512 37.0298 138.491 35.1162 139.869 33.5079C140.828 32.4441 141.923 31.4848 143.191 30.8155Z" fill="white"/>
<path d="M156.696 38.4566C157.236 38.2041 157.857 38.1959 158.437 38.2791C159.605 38.5772 160.41 39.7749 160.399 40.9603C160.399 41.9247 159.921 42.8475 159.195 43.4661C158.241 44.3108 156.719 44.1759 155.744 43.4357C154.969 42.8881 154.766 41.8405 154.865 40.9491C154.974 39.8681 155.715 38.9007 156.696 38.4566Z" fill="white"/>
<path d="M162.465 53.3746C164.39 51.8018 166.63 50.4652 169.138 50.1813C170.44 50.1083 171.84 50.091 172.999 50.7897C174.083 51.4489 174.652 52.6668 174.981 53.8482C175.357 53.0268 175.755 52.2145 176.149 51.4022C177.935 51.3008 179.719 51.1598 181.504 51.0645C179.695 54.4995 177.93 57.9579 176.208 61.4395C174.342 65.2139 172.393 68.9436 170.334 72.6197C171.746 72.1602 173.105 71.5481 174.385 70.7943C177.339 69.0207 179.904 66.661 182.174 64.0812C182.648 63.3794 183.008 62.6047 183.434 61.8715C185.407 58.2959 187.357 54.704 189.187 51.0524C191.188 50.9692 193.189 50.8942 195.19 50.8141C193.402 53.6332 191.597 56.4422 189.802 59.2562C189.349 59.9985 188.829 60.7013 188.426 61.472C188.907 60.9416 189.264 60.3149 189.699 59.748C191.587 57.0273 193.713 54.4262 196.329 52.3727C197.633 51.3495 199.089 50.378 200.777 50.1843C201.541 50.1427 202.347 50.0829 203.069 50.3973C204.107 50.808 204.773 51.8545 204.973 52.9223C205.175 54.3055 204.932 55.7313 204.373 57.006C204.1 57.6834 203.711 58.304 203.36 58.9439C202.246 60.9304 200.93 62.7913 199.744 64.7383C198.97 66.0028 198.123 67.3039 197.946 68.8108C197.845 69.4395 197.885 70.1656 198.332 70.6605C198.737 70.9971 199.337 71.0215 199.808 70.8035C200.689 70.4222 201.461 69.831 202.207 69.2327C203.411 68.178 204.499 67.0017 205.549 65.7949C208.228 62.7162 210.621 59.4063 213.044 56.1298C213.236 56.2363 213.431 56.3407 213.629 56.4411V56.4746C212.656 57.6651 211.787 58.9378 210.852 60.1587C209.535 61.9712 208.155 63.7364 206.713 65.4542C205.425 66.9905 204.101 68.5076 202.599 69.8401C201.383 70.917 199.926 71.8256 198.28 72.0001C197.432 72.0366 196.54 72.0761 195.748 71.706C194.947 71.3744 194.403 70.6371 194.061 69.8665C193.567 68.7388 193.628 67.455 193.902 66.2787C194.253 64.7849 195.068 63.4636 195.826 62.1483C196.922 60.2956 198.196 58.5575 199.325 56.7251C200.017 55.6603 200.702 54.5256 200.839 53.2346C200.947 52.5552 200.576 51.7379 199.851 51.605C198.93 51.4337 198.049 51.8839 197.319 52.396C196.564 52.9451 195.858 53.5592 195.209 54.2315C193.018 56.361 191.194 58.8222 189.436 61.3117C187.208 64.4898 185.162 67.8018 183.474 71.3044C181.715 71.3135 179.958 71.4332 178.198 71.4535C179.137 69.6464 180.146 67.8768 181.096 66.0789C177.939 69.3006 174.231 72.1633 169.869 73.51C167.612 77.7975 164.704 81.8386 160.842 84.8169C157.056 87.7506 152.315 89.5699 147.494 89.4583C146.008 89.503 144.523 89.3245 143.089 88.929C141.399 88.4321 139.811 87.4079 138.868 85.8949C138.104 84.7186 137.831 83.2857 137.878 81.8994C137.835 80.2665 138.442 78.6835 139.565 77.4984C140.77 76.2075 142.502 75.4935 144.249 75.3587C145.428 75.2816 146.59 75.5108 147.757 75.6274C147.757 75.7876 147.757 75.9489 147.757 76.1111C146.12 76.0787 144.346 76.678 143.395 78.0835C142.344 79.5529 142.18 81.4441 142.314 83.1934C142.481 84.7145 143.114 86.2356 144.248 87.2903C145.382 88.3449 146.966 88.8316 148.494 88.71C149.926 88.6471 151.329 88.2807 152.61 87.635C154.689 86.5865 156.494 85.0573 158.055 83.3404C159.161 82.134 160.185 80.8532 161.117 79.5072C163.447 76.2734 165.435 72.8144 167.368 69.3331C167.927 68.3261 168.565 67.3647 169.11 66.3517C168.773 66.6823 168.503 67.0757 168.19 67.4246C166.63 69.2235 164.735 70.8268 162.465 71.6289C161.462 72.0031 160.376 72.0721 159.316 71.994C158.848 71.9378 158.396 71.7891 157.986 71.5568C157.576 71.3244 157.216 71.0128 156.927 70.6402C156.05 69.4745 155.6 68.0424 155.652 66.5839C155.619 65.7366 155.695 64.8885 155.879 64.0609C154.07 66.1438 152.262 68.2612 150.076 69.9628C148.809 70.9272 147.366 71.7435 145.774 71.9909C144.945 72.0457 144.061 72.0812 143.299 71.6867C142.437 71.3064 141.85 70.4698 141.603 69.5795C141.27 68.3788 141.439 67.1011 141.789 65.9288C142.307 64.2657 143.125 62.7193 143.935 61.185C145.723 57.8568 147.64 54.6016 149.497 51.316C151.305 51.1953 153.115 51.1183 154.924 51.0118C153.304 53.91 151.629 56.7748 149.98 59.6547C148.605 62.0987 147.213 64.5456 146.144 67.1437C145.81 68.0229 145.486 68.9822 145.694 69.9314C145.766 70.2863 145.941 70.6838 146.326 70.7822C146.922 70.8785 147.494 70.6169 148.017 70.3633C150.031 69.3341 151.596 67.6629 153.15 66.0586C154.174 64.9512 155.132 63.7851 156.11 62.6371C156.391 62.3187 156.448 61.8816 156.616 61.5024C157.848 58.3415 159.861 55.5451 162.465 53.3746V53.3746ZM170.348 50.9337C169.437 51.0889 168.589 51.534 167.856 52.0877C166.754 52.9732 165.776 54.0021 164.947 55.1472C163.659 56.9437 162.605 58.8977 161.812 60.9619C161.274 62.3877 160.813 63.8601 160.68 65.3863C160.618 66.6234 160.685 67.9215 161.255 69.0481C161.668 69.7975 162.596 70.0541 163.399 70.0378C164.488 70.0429 165.425 69.3838 166.211 68.6922C167.73 67.3303 168.898 65.6327 169.909 63.8743C171.058 61.8837 171.972 59.7663 172.634 57.5647C172.981 56.3478 173.255 55.0813 173.175 53.8035C173.11 52.9578 173.008 52.0269 172.421 51.3698C171.889 50.813 171.053 50.7978 170.348 50.9337V50.9337Z" fill="white"/>
<path d="M102.02 60.1435C104.697 59.6578 107.388 59.2309 110.067 58.7674C110.078 63.061 110.067 67.3546 110.072 71.6462C107.387 71.6462 104.704 71.6462 102.017 71.6462C102.023 67.8116 102.024 63.9774 102.02 60.1435Z" fill="white"/>
<path d="M90.2729 62.123C91.6705 61.8705 93.0733 61.6413 94.475 61.406V71.6482H90.2749C90.2702 68.4707 90.2695 65.2957 90.2729 62.123Z" fill="white"/>
<path d="M102.02 32.15C104.704 32.15 107.388 32.15 110.071 32.15C110.071 38.2297 110.071 44.3094 110.071 50.3892C110.983 49.226 112.088 48.1643 113.457 47.567C115.161 46.8024 117.094 46.7354 118.926 46.9677C120.673 47.2334 122.401 47.9564 123.635 49.2524C124.729 50.3099 125.464 51.6847 125.736 53.1829C125.932 54.1422 125.939 55.1228 125.924 56.0974C123.223 56.5415 120.523 56.9928 117.828 57.4694L117.785 57.4775C117.707 56.3458 117.417 55.1066 116.511 54.344C115.929 53.8177 115.115 53.6849 114.357 53.6737C113.414 53.6737 112.433 53.8837 111.685 54.4992C110.587 55.4362 110.145 56.933 110.112 58.3364C110.099 58.4794 110.081 58.6234 110.069 58.7684C107.388 59.2339 104.701 59.6588 102.022 60.1445L102.02 32.15Z" fill="white"/>
<path d="M90.276 39.4514H94.4751V47.4118C96.0112 47.4118 97.5476 47.4118 99.0843 47.4118C99.0843 49.778 99.0843 52.1442 99.0843 54.5103C97.5483 54.5103 96.0118 54.5103 94.4751 54.5103V61.406C93.0734 61.6413 91.6706 61.8705 90.2729 62.123C90.2736 54.5661 90.2746 47.0089 90.276 39.4514Z" fill="white"/>
<path d="M61.811 35.4458H80.8518C80.8518 38.1324 80.8518 40.8194 80.8518 43.5066H70.5212V49.44H80.2957V57.4512C77.0379 57.4512 73.7797 57.4512 70.5212 57.4512C69.7575 57.3954 69.0263 57.1469 68.2818 56.9918C66.1236 56.503 63.9754 55.9686 61.812 55.5001C61.8114 48.8146 61.811 42.1299 61.811 35.4458Z" fill="white"/>
<path d="M86.4231 47.4118C86.4231 44.7583 86.4231 42.1049 86.4231 39.4514H90.2718C90.2623 47.0082 90.2623 54.5654 90.2718 62.123C88.9865 61.8401 87.7145 61.5014 86.4231 61.2519C86.4231 59.0047 86.4231 56.7575 86.4231 54.5103H83.8911C83.8911 52.1442 83.8911 49.778 83.8911 47.4118H86.4231Z" fill="white"/>
<path d="M61.812 55.498C63.9754 55.9665 66.1235 56.501 68.2818 56.9898C69.0262 57.15 69.7575 57.3954 70.5211 57.4491C70.5211 59.5117 70.5211 61.5737 70.5211 63.635H80.8517V71.6968H61.812C61.812 66.2972 61.812 60.8976 61.812 55.498Z" fill="white"/>
<path d="M86.4231 61.2519C87.7154 61.5014 88.9875 61.8401 90.2718 62.123C90.2718 65.3004 90.2718 68.4755 90.2718 71.6482H86.4231C86.4231 68.1834 86.4231 64.718 86.4231 61.2519Z" fill="white"/>
</g>
<defs>
<clipPath id="clip0_21_14211">
<rect width="155.364" height="60" fill="white" transform="translate(58.3179 29.5)"/>
</clipPath>
</defs>
</svg>
