<svg width="272" height="119" viewBox="0 0 272 119" fill="none" xmlns="http://www.w3.org/2000/svg">
<rect x="0.399902" width="271.2" height="119" rx="8" fill="#230062"/>
<path fill-rule="evenodd" clip-rule="evenodd" d="M37.3925 39.4703V45.5644L52.1174 44.0671H57.5523V53.9334L48.4007 56.7009L36 59.6586L37.8415 65.6191L49.724 61.104L57.5523 58.7372V74.9345H52.1174L37.3925 73.434V79.5297H82.3622V73.434L67.6373 74.9345H62.2007V58.7372L69.9902 61.0907L81.9149 65.6191L83.7547 59.6586L71.386 56.7092L62.2007 53.9334V44.0671H67.6373L82.3622 45.5644V39.4703H37.3925Z" fill="white"/>
<path fill-rule="evenodd" clip-rule="evenodd" d="M229.45 60.6228L226.555 52.969H225.854L222.963 60.6228H229.45ZM236 69.7668H232.908L230.485 63.3596H221.929L219.508 69.7668H216.417L224.447 48.6083H227.971L236 69.7668Z" fill="white"/>
<path fill-rule="evenodd" clip-rule="evenodd" d="M202.743 59.1604C204.97 59.1604 207.623 58.4885 207.623 55.291C207.623 51.9015 204.567 51.3959 202.743 51.3959H196.215V59.1604H202.743ZM205.207 61.6853L210.385 69.7489H206.839L201.872 61.973H196.215V69.7489H193.275V48.6083H202.743C208.145 48.6083 210.563 51.965 210.563 55.291C210.563 60.0594 206.601 61.3718 205.207 61.6853Z" fill="white"/>
<path fill-rule="evenodd" clip-rule="evenodd" d="M182.95 61.7188C182.95 61.9459 182.885 67.2748 177.266 67.2748C172.036 67.2748 171.594 63.0205 171.583 61.7188V48.6083H168.641V61.7188C168.641 65.544 170.9 70.0117 177.266 70.0117C183.633 70.0117 185.892 65.544 185.892 61.7188V48.6083H182.95V61.7188Z" fill="white"/>
<path fill-rule="evenodd" clip-rule="evenodd" d="M162.788 48.6083V51.4216H148.441V56.9605H161.183V59.7402H148.441V69.7489H145.5V48.6083H162.788Z" fill="white"/>
<path fill-rule="evenodd" clip-rule="evenodd" d="M133.454 48.6083V65.4097H132.812L122.431 48.6083H118.625V69.7489H121.566V53.4795H122.208L132.118 69.7489H136.395V48.6083H133.454Z" fill="white"/>
<path fill-rule="evenodd" clip-rule="evenodd" d="M94.7373 48.6083V51.2181H101.269V67.1398H94.7373V69.7489H110.741V67.1398H104.21V51.2181H110.741V48.6083H94.7373Z" fill="white"/>
</svg>
