<svg width="272" height="119" viewBox="0 0 272 119" fill="none" xmlns="http://www.w3.org/2000/svg">
<rect x="0.600098" width="271.2" height="119" rx="8" fill="#230062"/>
<g clip-path="url(#clip0_21_14205)">
<path d="M26.6988 81.959C26.6063 81.7401 26.5755 71.4802 26.6063 59.1872L26.6988 36.822L35.1138 36.7282L43.4979 36.6656V41.4827C43.4979 46.1434 43.5288 46.3624 44.2377 47.207C44.9775 48.0828 45.0083 48.0828 48.8613 48.0828C52.6835 48.0828 52.7452 48.0828 53.5774 47.207C54.4405 46.3624 54.4405 46.2998 54.5946 41.5766L54.7488 36.822H63.0713H71.3938L71.4863 42.5462L71.5479 48.2392H64.181C59.4032 48.2392 56.5057 48.3643 56.0434 48.5833C55.057 49.0525 54.533 50.2411 54.7796 51.5236C54.8721 52.0866 54.8721 52.8686 54.7488 53.2127C54.5638 53.8383 54.348 53.8696 50.2793 53.8696C47.9366 53.8696 45.6248 54.026 45.1624 54.1824C43.6829 54.7767 43.5288 55.2772 43.4979 59.5313C43.4979 63.0346 43.5596 63.5038 44.1144 64.1294C44.9467 65.0366 45.4399 65.1304 50.4334 65.2242L54.7488 65.2868L54.9029 67.5702C55.0262 69.447 55.1803 69.9475 55.6735 70.229C56.0742 70.4793 58.8792 70.667 63.8419 70.7608L71.3938 70.9172V76.5476V82.178H63.0713H54.7488L54.5946 77.4547C54.4097 71.9494 54.2864 71.6366 51.7896 71.1049C48.6764 70.4167 45.2857 70.8234 44.0836 72.0433C43.5596 72.575 43.4979 73.1068 43.4979 77.486V82.3344H35.1754C28.7948 82.3344 26.7912 82.2406 26.6988 81.959Z" fill="white"/>
<path d="M82.7989 81.959C82.7064 81.7401 82.6756 71.4802 82.7064 59.1872L82.7989 36.822L96.7622 36.7282L110.695 36.6656L110.726 37.6666C110.756 38.2296 110.787 41.6704 110.818 45.3302C110.849 51.8677 110.849 51.9615 111.589 52.7435L112.328 53.5568L119.911 53.6194L127.494 53.7132L127.586 68.0394L127.648 82.3344H119.171H110.695V68.7276V55.1208L109.708 54.4952C108.784 53.9322 108.229 53.8696 104.222 53.9322L99.7522 54.026L99.6597 68.1958L99.598 82.3344H91.2755C84.8949 82.3344 82.8913 82.2406 82.7989 81.959Z" fill="white"/>
<path d="M138.899 81.959C138.806 81.7401 138.775 71.4802 138.806 59.1872L138.899 36.822H152.924H166.949L167.041 44.4856C167.103 51.8051 167.134 52.1492 167.781 52.8374C168.428 53.5568 168.521 53.5568 175.857 53.5568C179.957 53.5568 183.44 53.6819 183.594 53.807C183.779 53.9322 183.871 58.9995 183.81 68.1958L183.717 82.3344L175.333 82.2718L166.949 82.178L166.887 69.3532C166.856 62.2839 166.795 56.2782 166.795 55.9654C166.795 55.6526 166.456 55.0582 166.024 54.6516C165.315 53.9009 165.161 53.8696 160.661 53.8696H156.006L155.944 68.0394L155.852 82.178L147.437 82.2718C140.871 82.3344 138.991 82.2718 138.899 81.959Z" fill="white"/>
<path d="M195.122 82.2093C195.06 82.1467 195.03 79.5192 195.091 76.4225L195.184 70.7608H208.376H221.569L222.401 69.9788C223.48 68.9778 223.511 67.2887 222.432 66.2252L221.692 65.4432H208.407C198.02 65.4432 195.153 65.3494 195.122 65.0678C195.122 64.755 195.122 58.6242 195.153 54.2762V53.5568H208.407H221.692L222.432 52.7748C223.203 52.0241 223.419 50.7416 223.018 49.6468C222.494 48.3018 221.754 48.2392 208.099 48.2392H195.153V42.4524V36.6656H209.178H223.203V41.4514C223.203 46.8942 223.419 47.4259 225.515 47.9577C226.193 48.1141 229.738 48.2392 233.375 48.2079L240.002 48.1766V59.5V70.7921L232.758 70.8546C226.563 70.9172 225.361 71.011 224.559 71.449C224.035 71.7618 223.511 72.231 223.388 72.4812C223.295 72.7627 223.203 75.1087 223.203 77.6737V82.3344H209.24C201.533 82.3344 195.184 82.2718 195.122 82.2093Z" fill="white"/>
<path d="M240.988 81.4586C238.862 79.2064 241.081 75.5466 243.855 76.704C245.828 77.5486 246.321 79.8946 244.811 81.4273C243.578 82.6472 242.129 82.6785 240.988 81.4586ZM243.701 81.396C244.225 81.177 244.225 81.1145 243.793 81.1145C243.485 81.0832 243.239 80.8642 243.239 80.614C243.239 80.3638 243.023 80.1448 242.776 80.1448C242.53 80.1448 242.345 80.3012 242.406 80.4889C242.437 80.6766 242.283 80.9268 242.098 80.9894C241.821 81.0832 241.697 80.6766 241.697 79.5192C241.697 77.705 240.988 77.4234 240.834 79.1751C240.711 80.2699 241.143 80.9894 242.16 81.396C242.93 81.7401 242.93 81.7401 243.701 81.396ZM244.965 80.0197C245.304 78.6746 243.793 76.7978 242.653 77.1732C241.697 77.486 241.882 77.9552 242.961 77.9552C243.793 77.9552 243.886 78.049 243.824 78.831C243.701 80.5202 244.595 81.4586 244.965 80.0197Z" fill="white"/>
</g>
<defs>
<clipPath id="clip0_21_14205">
<rect width="220" height="46" fill="white" transform="translate(26.2002 36.5)"/>
</clipPath>
</defs>
</svg>
