<svg width="272" height="119" viewBox="0 0 272 119" fill="none" xmlns="http://www.w3.org/2000/svg">
<rect x="0.600098" width="271.2" height="119" rx="8" fill="#230062"/>
<path fill-rule="evenodd" clip-rule="evenodd" d="M111.337 37.8237C111.337 36.9833 111.138 36.3369 110.407 35.8844H91.142C90.0459 36.951 88.9498 38.0338 87.8537 39.1165C86.7576 40.1992 85.6615 41.282 84.5654 42.3485C84.1668 42.7364 84.034 43.1242 84.034 43.706V59.9955C84.034 60.254 84.034 60.6419 83.9011 60.8358C83.1039 61.6761 82.3068 62.4518 81.5096 63.2275C81.4764 63.1953 81.4267 63.1791 81.3769 63.163C81.327 63.1468 81.2771 63.1306 81.2439 63.0982V45.5806C80.3015 46.4976 79.3818 47.3999 78.4746 48.29L78.4745 48.29C76.696 50.0349 74.9655 51.7327 73.2058 53.4021C72.4751 54.1132 72.143 54.8242 72.143 55.8585V71.4369C72.143 72.0833 71.9437 72.4712 71.4787 72.9237L63.5735 80.6159C62.8427 81.327 62.7763 82.1673 63.4406 82.7491C64.0385 83.3309 64.8356 83.2016 65.5664 82.4905L73.538 74.7336C74.003 74.2811 74.4016 74.1519 74.9994 74.1519C76.7921 74.1519 78.5848 74.1448 80.3775 74.1376L80.3803 74.1376C83.9676 74.1232 87.5548 74.1088 91.142 74.1519C92.072 74.1519 92.7363 73.8933 93.4006 73.2469C99.1136 67.6231 104.893 61.9994 110.673 56.4402C111.138 55.9877 111.337 55.4706 111.337 54.8242V37.8237ZM106.448 56.4013C106.513 56.4261 106.617 56.4655 106.82 56.5049C104.162 58.9612 101.704 61.3529 99.1801 63.8093C98.364 64.6034 97.548 65.4047 96.7294 66.2083L96.7277 66.21L96.7272 66.2105C95.0812 67.8265 93.4253 69.4523 91.7399 71.0491C91.5406 71.243 91.2084 71.5016 90.8763 71.5016H76.9924C77.1252 71.243 77.2581 71.0491 77.3909 70.9198C79.8156 68.5604 82.257 66.201 84.6983 63.8416C87.1396 61.4822 89.5809 59.1228 92.0056 56.7634C92.2049 56.5695 92.6035 56.3756 92.8692 56.3756H106.355C106.381 56.3756 106.406 56.3855 106.448 56.4013ZM93.4006 51.7214C93.3342 51.7214 93.2678 51.6568 93.2014 51.5922V38.5994C93.3438 38.5994 93.4671 38.5808 93.5816 38.5636C93.6807 38.5486 93.7732 38.5347 93.8657 38.5347H107.949C108.414 38.5347 108.746 38.5994 108.746 39.2458V53.2082C108.746 53.2663 108.733 53.3244 108.718 53.3884L108.718 53.3884L108.718 53.3885C108.7 53.4668 108.68 53.554 108.68 53.6607H95.3271C95.4369 53.5539 95.5265 53.4471 95.6071 53.3511C95.6728 53.2728 95.7325 53.2016 95.7921 53.1435C96.1928 52.7537 96.5934 52.3711 96.9916 51.9909L96.9917 51.9908C97.7818 51.2363 98.562 50.4913 99.3129 49.7176C99.6451 49.3297 99.9772 49.2651 100.509 49.3297C102.302 49.5883 103.897 48.4894 104.295 46.7441C104.694 45.1281 103.697 43.5121 101.97 42.995C100.309 42.4778 98.4493 43.3828 97.9179 44.9342C97.785 45.3867 97.7186 45.9684 97.785 46.4209C97.9179 47.0673 97.7186 47.4551 97.2536 47.9076C95.925 49.1358 94.6628 50.4286 93.4006 51.7214ZM158.034 55.7816H150.47C150.404 55.9772 150.404 56.1077 150.404 56.2381V69.4101C150.404 69.997 150.47 70.6491 150.665 71.2359C151.513 74.0399 153.339 75.8657 156.143 76.583C159.142 77.3003 161.685 76.4526 163.902 74.3659C164.293 73.9754 164.683 73.5198 165.074 73.0641L165.076 73.0617C167.88 77.6915 175.118 78.5392 178.965 72.8661C180.53 75.0832 182.617 76.3874 185.421 76.4526V55.7816H177.792V56.4989V68.758C177.792 70.649 176.553 72.0184 174.792 72.0184C173.032 72.0184 171.727 70.649 171.727 68.8232V56.6945V55.7816H164.098V56.6945V68.432C164.098 70.1926 162.924 71.562 161.229 71.6272C159.403 71.6924 158.034 70.323 158.034 68.3668V56.7597V55.7816ZM139.515 55.7816H147.21C147.15 56.5962 147.175 57.4168 147.2 58.2342V58.2342V58.2343V58.2344C147.258 60.0999 147.314 61.9489 146.362 63.6718C145.912 64.4821 145.306 65.1991 144.653 65.9731L144.653 65.9731C144.359 66.3203 144.057 66.679 143.754 67.0626L144.134 67.6519L144.134 67.6528C145.915 70.4156 147.806 73.3489 149.753 76.4525H147.731H141.602C140.885 76.4525 140.428 76.2569 140.037 75.6048C139.058 74.0392 138.064 72.49 137.069 70.9407L137.068 70.9402C136.075 69.3923 135.081 67.8444 134.103 66.2801C134.049 66.1991 133.984 66.1069 133.907 65.9989C133.799 65.8461 133.669 65.6616 133.516 65.4324V76.3221H125.887V45.9352H133.516V46.9133V59.3028C133.516 60.8026 134.559 61.9764 135.929 62.2372C137.429 62.498 138.798 61.7155 139.32 60.3462C139.45 59.9549 139.515 59.5637 139.515 59.1724C139.558 58.4878 139.545 57.7751 139.53 57.0159V57.0157V57.0156V57.0155C139.523 56.6179 139.515 56.2074 139.515 55.7816ZM209.419 45.9352H201.92V76.3873H209.419V45.9352ZM189.202 55.7816H196.701V56.7597V67.6495C196.701 70.1926 197.288 70.9751 199.766 71.6924V75.9309C199.766 76.1265 199.44 76.3874 199.179 76.4526C194.745 77.9523 189.594 75.018 189.268 70.323C189.042 67.0378 189.097 63.7216 189.152 60.3528V60.3525V60.3522C189.177 58.8399 189.202 57.3171 189.202 55.7816ZM193.052 52.5213C195.334 52.5213 197.16 50.6955 197.16 48.4784C197.16 46.1961 195.334 44.3703 193.052 44.3703C190.834 44.3703 188.943 46.1961 188.943 48.4132C188.943 50.6303 190.769 52.5213 193.052 52.5213Z" fill="white"/>
</svg>
