<svg width="272" height="119" viewBox="0 0 272 119" fill="none" xmlns="http://www.w3.org/2000/svg">
<rect x="0.600098" width="271.2" height="119" rx="8" fill="#230062"/>
<g clip-path="url(#clip0_21_14183)">
<path d="M192.043 52.4506C197.322 52.4506 203.318 54.424 203.677 60.739H196.297C196.143 58.9136 194.4 58.0749 192.094 58.0749C189.941 58.0749 188.968 58.8642 188.968 59.8016C188.968 60.591 189.583 61.331 191.53 61.6764L196.194 62.4164C200.858 63.2551 203.933 65.4259 203.933 69.6688C203.933 75.1944 198.757 77.7598 192.299 77.7598C185.79 77.7598 180.511 75.1451 179.999 68.7807L187.379 68.8301C187.738 70.9022 189.531 71.8396 192.145 71.8396C194.349 71.8396 195.682 71.1982 195.682 70.1621C195.682 69.3728 194.913 68.7314 193.273 68.4847L188.25 67.646C183.945 66.9553 180.973 64.6365 180.973 60.443C180.973 55.4107 185.431 52.4506 192.043 52.4506ZM160.933 52.5436C163.645 52.5436 165.896 53.2336 167.738 54.3671V53.0857H176.026V76.9879H167.738V75.6572C165.896 76.7907 163.645 77.4807 160.933 77.4807C154.231 77.4807 148.603 72.1089 148.603 65.0122C148.603 57.8662 154.231 52.5436 160.933 52.5436ZM112.387 43.4248L124.815 61.3563L137.191 43.4248H143.662V77.0155H134.983V60.1708L127.228 71.6805V71.7299H122.401V71.6805L114.595 60.072L114.647 77.0155H105.968V43.4248H112.387ZM216.801 42.0291V62.0847L225.474 53.1163H235.379L225.936 62.8731L236.2 77.0155H226.244L220.291 68.737L216.801 72.3342V77.0155H208.487V42.0291H216.801ZM162.57 59.049C159.194 59.049 156.738 61.7102 156.738 65.0122C156.738 68.3141 159.194 70.9261 162.57 70.9261C164.412 70.9261 166.203 70.4333 167.738 68.7084V61.316C166.203 59.5911 164.412 59.049 162.57 59.049Z" fill="white"/>
<path fill-rule="evenodd" clip-rule="evenodd" d="M65.0002 85.9627C80.0223 85.9627 92.2002 74.1149 92.2002 59.5C92.2002 44.8851 80.0223 33.0373 65.0002 33.0373C49.978 33.0373 37.8002 44.8851 37.8002 59.5C37.8002 74.1149 49.978 85.9627 65.0002 85.9627ZM93.8002 59.5C93.8002 74.9747 80.906 87.5193 65.0002 87.5193C49.0944 87.5193 36.2002 74.9747 36.2002 59.5C36.2002 44.0254 49.0944 31.4807 65.0002 31.4807C80.906 31.4807 93.8002 44.0254 93.8002 59.5Z" fill="white"/>
<path fill-rule="evenodd" clip-rule="evenodd" d="M82.3832 52.6124V61.9173H53.2307L51.9764 61.9174C53.3039 67.5633 58.5724 71.7805 64.8696 71.7805C70.0756 71.7805 74.5786 68.8981 76.7329 64.709L82.3832 64.7089V72.5249C82.3832 74.3749 80.817 75.8746 78.8849 75.8746H50.8985C48.9664 75.8746 47.4001 74.3749 47.4001 72.5249V52.6124H82.3832ZM73.3776 64.7089C71.5224 67.3062 68.4038 69.0106 64.8696 69.0106C61.3353 69.0106 58.2167 67.3062 56.3615 64.7089H73.3776ZM57.4092 54.8456C54.6677 54.8456 52.3997 56.7868 52.0225 59.312L55.0045 59.312C55.3323 58.3401 56.285 57.6371 57.4092 57.6371C58.5333 57.6371 59.486 58.3401 59.8139 59.312L62.7959 59.312C62.4187 56.7868 60.1507 54.8456 57.4092 54.8456ZM72.3742 54.8456C69.6327 54.8456 67.3647 56.7868 66.9875 59.312L69.9694 59.312C70.2973 58.3401 71.25 57.6371 72.3742 57.6371C73.4983 57.6371 74.451 58.3401 74.7789 59.312L77.7609 59.312C77.3837 56.7868 75.1157 54.8456 72.3742 54.8456ZM78.8849 42.3771C80.817 42.3771 82.3832 43.8768 82.3832 45.7268V49.821H47.4001V45.7268C47.4001 43.8768 48.9664 42.3771 50.8985 42.3771H78.8849Z" fill="white"/>
</g>
<defs>
<clipPath id="clip0_21_14183">
<rect width="200" height="56.0386" fill="white" transform="translate(36.2002 31.4807)"/>
</clipPath>
</defs>
</svg>
