<svg width="272" height="119" viewBox="0 0 272 119" fill="none" xmlns="http://www.w3.org/2000/svg">
<rect x="0.600098" width="271.2" height="119" rx="8" fill="#230062"/>
<g clip-path="url(#clip0_21_14198)">
<path d="M150.556 42.3491C150.602 43.5591 150.276 44.7691 150.09 45.9241C149.251 50.4891 149.018 55.2191 147.992 59.7291C149.53 58.1341 151.255 56.4841 153.399 56.2641C156.056 55.8241 158.806 57.8591 159.691 60.7741C160.25 63.1941 160.017 65.7241 159.598 68.1441C160.67 68.2541 161.695 68.1991 162.767 68.0341C162.488 65.1191 163.14 62.0941 164.771 59.8391C166.822 56.8691 170.411 55.6591 173.534 56.5391C176.237 57.4741 177.775 61.6541 176.097 64.4041C174.28 67.4841 171.204 69.0241 168.36 70.4541C169.106 71.4441 170.178 72.1591 171.343 72.0491C174.606 71.8291 177.496 69.7391 180.106 67.6491C179.966 64.0741 180.758 60.0591 183.368 57.8591C186.025 55.6041 189.801 56.0441 192.411 58.1341C193.809 56.9241 196.093 57.0341 196.838 59.1241C197.025 62.7541 196.186 66.4391 197.072 70.0141C197.305 70.9491 198.144 72.0491 199.029 71.4441C201.033 70.1791 202.292 67.9241 203.55 65.7791C204.296 63.4691 204.063 60.8841 204.669 58.5191C205.088 57.4191 206.347 56.8691 207.232 57.6391C208.211 58.1891 208.304 59.5091 208.491 60.6091C209.796 58.5741 211.474 56.3741 213.851 56.4291C215.902 56.0991 217.812 57.5291 218.605 59.6741C219.863 57.6391 221.867 56.0991 224.105 56.4841C226.622 56.3741 228.812 58.9041 228.812 61.7641C229.045 64.9541 226.575 67.2641 226.482 70.3441C226.435 71.8841 228.02 72.0491 228.952 71.6641C231.609 70.5641 232.96 67.5391 234.732 65.2291C235.71 65.8891 236.922 67.2091 236.223 68.6391C234.732 71.1691 232.96 73.6991 230.677 75.3491C228.952 76.6141 226.622 76.9991 224.711 76.0091C222.846 75.1291 221.867 72.6541 221.961 70.3991C222.101 67.8691 223.499 65.8341 224.058 63.4141C224.338 62.5341 223.965 61.3241 223.126 61.1591C221.681 60.9941 220.329 62.0941 219.49 63.4141C218.232 65.4491 217.626 67.8691 217.02 70.2341C216.601 71.9941 216.74 73.9741 216.088 75.6791C215.156 77.6591 212.359 76.0641 212.359 74.1391C212.173 71.8841 212.732 69.7941 213.431 67.7591L213.897 66.3291C214.27 65.2291 214.596 64.0741 214.83 62.9191C214.969 61.9841 214.224 61.1041 213.431 61.1591C211.614 61.3241 210.262 63.0291 209.469 64.8441C208.211 67.7591 207.419 70.9491 207.186 74.1941C207.092 75.4041 206.393 76.9991 205.088 76.5591C203.457 76.2291 202.804 74.1941 203.084 72.4891C202.944 72.6541 202.804 72.7641 202.665 72.9291L202.245 73.3691C200.8 74.9641 199.262 76.6141 197.165 76.5591C194.508 76.1741 193.063 72.9841 192.737 70.2341C191.525 72.8191 190.127 75.7341 187.47 76.4491C184.627 76.9991 181.877 74.7991 180.619 71.9391C177.729 74.6341 174.14 76.6691 170.365 76.5591C167.708 76.4491 165.517 74.3591 164.026 72.0491C162.022 72.7641 159.831 73.0941 157.92 71.8291C156.102 76.2841 151.115 78.2091 147.293 76.2291C145.615 75.4041 144.59 73.5891 143.844 71.7191C141.514 74.1391 138.717 76.0641 135.594 76.6141C133.87 76.9441 132.378 75.2391 132.052 73.3691C131.26 69.7941 133.031 66.3841 133.357 62.9191C133.544 61.9291 132.705 60.9941 131.866 61.2691C129.815 61.4341 128.463 63.5791 127.578 65.5041C126.552 67.9241 125.713 70.5091 125.34 73.1491C125.154 74.2491 125.061 75.4591 124.362 76.3391C123.01 77.3291 121.192 75.9541 121.052 74.2491C120.959 72.4891 121.285 70.7291 121.565 68.9691C120.213 70.9491 117.836 71.3341 116.019 69.9591C114.807 74.5241 110.472 77.3291 106.464 76.4491C103.76 75.8441 101.337 73.3141 100.824 70.1241C100.218 66.6591 100.638 62.8091 102.409 59.8391C105.345 55.2741 112.103 55.4391 115.086 59.8941C116.252 61.6541 116.391 63.9091 116.298 66.0541C117.137 66.4941 118.116 66.7691 118.862 65.9991C120.912 64.1841 122.404 61.4891 123.103 58.6291C123.476 57.4741 124.828 56.9791 125.667 57.7491C126.552 58.3541 126.739 59.5641 126.739 60.6091C128.603 57.9141 131.633 56.0991 134.662 56.5391C136.293 56.7591 137.412 58.4641 137.598 60.2791C137.971 62.8091 137.365 65.1741 136.713 67.5391L136.48 68.4741C136.247 69.2441 136.06 70.0691 135.921 70.8391C135.781 72.1041 137.132 71.7741 137.692 71.3341C139.696 70.2341 141.514 68.6941 143.145 66.8791C143.564 58.6841 144.869 50.5991 145.755 42.4591C146.268 39.5991 150.23 39.7091 150.556 42.3491ZM51.9779 38.0591C54.2617 45.5391 55.5201 53.4041 56.5455 61.2141C57.1981 60.3341 57.3379 59.1241 57.7108 58.0241C59.2022 53.2941 60.6005 48.5091 62.2784 43.8341C62.931 42.0191 63.5835 40.1491 64.6089 38.4991C64.9818 37.7841 65.7275 37.4541 66.4266 37.6191C67.5452 38.4441 67.7783 40.0941 67.9181 41.4691C68.5706 49.8841 68.9435 58.3541 69.5494 66.7691C69.6893 69.2991 70.6214 71.7741 70.5282 74.3041C70.1554 76.7241 66.38 76.9991 66.147 74.3041C65.4012 65.9991 64.8419 57.5841 64.5623 49.2241C62.5115 55.3291 61.1132 61.7641 59.0158 67.8691C58.2235 69.5191 57.1981 71.9391 55.2871 71.6641C54.1219 71.6091 54.0753 70.0691 53.8888 69.0791C52.7236 63.1391 51.6516 57.1991 50.7194 51.2041C49.2279 57.7491 47.5966 64.2941 44.8001 70.2891C43.5882 72.7091 42.1434 75.3491 39.6265 76.1191C38.4147 76.6141 36.4105 76.7241 36.0376 74.9091C36.0376 73.0391 37.9486 72.6541 38.8341 71.4441C40.4654 69.1891 41.4908 66.4391 42.4696 63.7441C45.173 55.6591 46.9907 47.1891 48.7152 38.7741C48.8551 37.0141 51.3253 36.4091 51.9779 38.0591ZM107.349 61.3791C104.413 63.3041 104.553 68.5291 106.883 71.0041C108.188 72.2691 110.239 71.5541 111.218 70.0691C112.756 67.8141 112.523 64.5141 111.218 62.2041C110.332 60.7741 108.561 60.5541 107.349 61.3791ZM151.208 61.1591C148.319 62.5891 146.874 67.1541 148.598 70.2891C149.484 71.9391 151.488 71.8291 152.84 71.1691C155.776 69.6291 156.848 64.8441 155.03 61.7641C154.191 60.2791 152.42 60.4991 151.208 61.1591ZM186.818 61.2691C183.555 62.6991 183.322 68.1991 185.606 70.8391C186.305 71.6091 187.563 71.8841 188.309 71.0041C190.08 69.0791 191.106 66.3291 191.525 63.5791C190.966 61.4891 188.495 60.6641 186.818 61.2691ZM169.06 60.9391C167.661 62.6441 167.521 65.1191 167.195 67.3191C168.966 66.0541 170.598 64.5141 172.136 62.9191C172.695 62.3691 173.161 61.4341 172.788 60.5541C171.809 59.2341 169.992 59.8941 169.06 60.9391ZM91.3158 56.7041C94.392 58.2441 96.4428 62.0391 96.2098 65.8891C90.7099 65.8891 85.21 65.9441 79.7102 65.8341C79.7102 63.2491 80.4559 60.6091 82.0406 58.7941C84.3711 55.9891 88.2396 55.1091 91.3158 56.7041Z" fill="white"/>
<path d="M91.0827 81.4541C91.409 81.4541 91.6886 81.6741 91.6886 81.9491C91.6886 82.2241 91.409 82.4441 91.0827 82.4441H82.227C81.9007 82.4441 81.6211 82.2241 81.6211 81.9491C81.6211 81.6741 81.9007 81.4541 82.227 81.4541H91.0827Z" fill="white"/>
<path d="M80.3159 82.4441C80.6505 82.4441 80.9218 82.124 80.9218 81.7291C80.9218 81.3342 80.6505 81.0141 80.3159 81.0141C79.9812 81.0141 79.71 81.3342 79.71 81.7291C79.71 82.124 79.9812 82.4441 80.3159 82.4441Z" fill="white"/>
<path d="M85.6296 79.8041C85.9642 79.8041 86.2355 79.484 86.2355 79.0891C86.2355 78.6942 85.9642 78.3741 85.6296 78.3741C85.295 78.3741 85.0237 78.6942 85.0237 79.0891C85.0237 79.484 85.295 79.8041 85.6296 79.8041Z" fill="white"/>
<path d="M96.0232 78.3741C96.3495 78.3741 96.6291 78.7041 96.6291 79.0891C96.6291 79.4741 96.3495 79.8041 96.0232 79.8041H87.354C87.0277 79.8041 86.748 79.4741 86.748 79.0891C86.748 78.7041 87.0277 78.3741 87.354 78.3741H96.0232Z" fill="white"/>
<path d="M74.2568 77.1641C74.5914 77.1641 74.8627 76.844 74.8627 76.4491C74.8627 76.0542 74.5914 75.7341 74.2568 75.7341C73.9222 75.7341 73.6509 76.0542 73.6509 76.4491C73.6509 76.844 73.9222 77.1641 74.2568 77.1641Z" fill="white"/>
<path d="M82.8794 75.7341C83.2057 75.7341 83.4853 76.0641 83.4853 76.4491C83.4853 76.8341 83.2057 77.1641 82.8794 77.1641H75.7483C75.422 77.1641 75.1423 76.8341 75.1423 76.4491C75.1423 76.0641 75.422 75.7341 75.7483 75.7341H82.8794Z" fill="white"/>
<path d="M98.8666 75.7341C99.1928 75.7341 99.4725 76.0641 99.4725 76.4491C99.4725 76.8341 99.1928 77.1641 98.8666 77.1641H84.6975C84.3712 77.1641 84.0916 76.8341 84.0916 76.4491C84.0916 76.0641 84.3712 75.7341 84.6975 75.7341H98.8666Z" fill="white"/>
<path d="M96.2096 73.0941C96.5358 73.0941 96.8155 73.4241 96.8155 73.8091C96.8155 74.1941 96.5358 74.5241 96.2096 74.5241H78.8244C78.4982 74.5241 78.2185 74.1941 78.2185 73.8091C78.2185 73.4241 78.4982 73.0941 78.8244 73.0941H96.2096Z" fill="white"/>
<path d="M76.9138 74.5241C77.2484 74.5241 77.5197 74.204 77.5197 73.8091C77.5197 73.4142 77.2484 73.0941 76.9138 73.0941C76.5791 73.0941 76.3079 73.4142 76.3079 73.8091C76.3079 74.204 76.5791 74.5241 76.9138 74.5241Z" fill="white"/>
<path d="M92.5741 70.5091C92.9003 70.5091 93.18 70.8391 93.18 71.2241C93.18 71.6091 92.9003 71.9391 92.5741 71.9391H75.1889C74.8627 71.9391 74.583 71.6091 74.583 71.2241C74.583 70.8391 74.8627 70.5091 75.1889 70.5091H92.5741Z" fill="white"/>
<path d="M73.0918 71.9391C73.4264 71.9391 73.6977 71.619 73.6977 71.2241C73.6977 70.8292 73.4264 70.5091 73.0918 70.5091C72.7571 70.5091 72.4858 70.8292 72.4858 71.2241C72.4858 71.619 72.7571 71.9391 73.0918 71.9391Z" fill="white"/>
<path d="M76.9138 69.2991C77.2484 69.2991 77.5197 68.979 77.5197 68.5841C77.5197 68.1892 77.2484 67.8691 76.9138 67.8691C76.5791 67.8691 76.3079 68.1892 76.3079 68.5841C76.3079 68.979 76.5791 69.2991 76.9138 69.2991Z" fill="white"/>
<path d="M97.8878 67.8691C98.2141 67.8691 98.4937 68.1991 98.4937 68.5841C98.4937 68.9691 98.2141 69.2991 97.8878 69.2991H78.9646C78.6383 69.2991 78.3586 68.9691 78.3586 68.5841C78.3586 68.1991 78.6383 67.8691 78.9646 67.8691H97.8878Z" fill="white"/>
</g>
<defs>
<clipPath id="clip0_21_14198">
<rect width="200" height="45" fill="white" transform="translate(36.2002 37)"/>
</clipPath>
</defs>
</svg>
