<svg width="272" height="119" viewBox="0 0 272 119" fill="none" xmlns="http://www.w3.org/2000/svg">
<rect width="271.2" height="119" rx="8" fill="#230062"/>
<g clip-path="url(#clip0_21_14195)">
<path d="M135.718 44.4661V74.5912C135.718 74.8207 135.543 75.0503 135.251 75.0503H132.034C130.572 75.0503 129.169 74.3043 128.35 73.0995L113.847 51.1223L114.315 62.0822V74.6488C114.315 74.8783 114.139 75.1076 113.847 75.1076H109.636C109.402 75.1076 109.169 74.9356 109.169 74.6488V44.4661C109.169 44.2366 109.344 44.007 109.636 44.007H112.794C114.256 44.007 115.66 44.753 116.478 45.958L130.981 67.8776L130.514 56.9178V44.4661C130.514 44.2366 130.689 44.007 130.981 44.007H135.192C135.543 44.007 135.718 44.1792 135.718 44.4661Z" fill="white"/>
<path d="M178.874 74.993H174.429C174.137 74.993 173.903 74.7061 174.02 74.4192L185.833 44.4087C185.95 44.1792 186.184 44.007 186.418 44.007H192.032C192.324 44.007 192.558 44.1792 192.617 44.4087L204.488 74.4192C204.605 74.7061 204.371 74.993 204.078 74.993H199.634C199.459 74.993 199.283 74.8783 199.225 74.7061L189.692 50.0321C189.576 49.6878 188.991 49.6878 188.874 50.0321L179.342 74.7061C179.225 74.8783 179.049 74.993 178.874 74.993Z" fill="white"/>
<path d="M235.483 74.3043L226.594 63.1724C231.624 62.2544 234.548 58.9262 234.548 53.8193C234.548 47.9664 230.688 44.007 223.787 44.007H211.39C211.039 44.007 210.747 44.294 210.747 44.6382C210.747 46.9335 212.618 48.7697 214.957 48.7697H223.319C227.472 48.7697 229.46 50.8354 229.46 53.8766C229.46 56.9178 227.53 58.9836 223.319 58.9836H211.507C211.156 58.9836 210.863 59.2705 210.863 59.6147V74.5339C210.863 74.7634 211.039 74.993 211.331 74.993H215.542C215.776 74.993 216.01 74.8207 216.01 74.5339V63.4592H220.863L228.583 73.329C229.401 74.4192 230.688 74.993 232.092 74.993H235.308C235.542 74.993 235.717 74.5912 235.483 74.3043Z" fill="white"/>
<path d="M165.541 44.007H145.951C145.6 44.007 145.366 44.2366 145.366 44.5809C145.366 46.8761 147.296 48.7697 149.635 48.7697H165.541C165.775 48.7697 166.009 48.5976 166.009 48.3107V44.4087C165.951 44.1792 165.775 44.007 165.541 44.007ZM165.541 70.2304H150.922C150.688 70.2304 150.454 70.0582 150.454 69.7713V62.0248C150.454 61.7953 150.629 61.5657 150.922 61.5657H164.43C164.664 61.5657 164.898 61.3935 164.898 61.1066V57.2048C164.898 56.9752 164.723 56.7457 164.43 56.7457H146.009C145.658 56.7457 145.366 57.0326 145.366 57.3769V74.3043C145.366 74.6488 145.658 74.9356 146.009 74.9356H165.541C165.775 74.9356 166.009 74.7634 166.009 74.4765V70.5746C165.951 70.4024 165.775 70.2304 165.541 70.2304Z" fill="white"/>
<path d="M77.8222 36.3179L66.8283 52.3273C66.068 53.4176 67.5298 54.7374 68.5825 53.8193L79.4011 44.5809C79.6938 44.3513 80.103 44.5235 80.103 44.9252V73.7879C80.103 74.1896 79.5767 74.3619 79.3427 74.0747L46.5943 35.6294C45.5416 34.367 44.0212 33.6784 42.3253 33.6784H41.1557C38.1147 33.6784 35.6001 36.1458 35.6001 39.187V79.8131C35.6001 82.8541 38.1147 85.3216 41.2141 85.3216C43.144 85.3216 44.9568 84.3461 46.0095 82.6821L57.0036 66.6727C57.7638 65.5825 56.3019 64.2625 55.2492 65.1808L44.4305 74.3619C44.1381 74.5912 43.7288 74.4192 43.7288 74.0174V45.2121C43.7288 44.8104 44.2551 44.6382 44.489 44.9252L77.2375 83.3705C78.2901 84.6329 79.869 85.3216 81.5064 85.3216H82.6762C85.7756 85.3216 88.2901 82.8541 88.2901 79.8131V39.187C88.2317 36.1458 85.7169 33.6784 82.6177 33.6784C80.6877 33.6784 78.8748 34.6539 77.8222 36.3179Z" fill="white"/>
</g>
<defs>
<clipPath id="clip0_21_14195">
<rect width="200" height="51.6432" fill="white" transform="translate(35.6001 33.6784)"/>
</clipPath>
</defs>
</svg>
