<svg width="272" height="119" viewBox="0 0 272 119" fill="none" xmlns="http://www.w3.org/2000/svg">
<rect width="271.2" height="119" rx="8" fill="#230062"/>
<path d="M103.413 36.2536H92.6841L106.095 59.4999L92.6841 82.7463H103.413L116.825 59.4999L103.413 36.2536Z" fill="white"/>
<path d="M129.34 36.2536H138.281V82.7463H129.34V36.2536Z" fill="white"/>
<path fill-rule="evenodd" clip-rule="evenodd" d="M142.752 36.2536V82.7463H155.269C168.108 82.7463 178.516 72.3385 178.516 59.4999C178.516 46.6613 168.108 36.2536 155.269 36.2536H142.752ZM151.693 73.8054H155.269C163.17 73.8054 169.575 67.4006 169.575 59.4999C169.575 51.5993 163.17 45.1945 155.269 45.1945H151.693V73.8054Z" fill="white"/>
<rect x="115.928" y="73.8055" width="8.9409" height="8.9409" fill="white"/>
</svg>
