<svg width="274" height="119" viewBox="0 0 274 119" fill="none" xmlns="http://www.w3.org/2000/svg">
    <rect width="274" height="119" rx="8" fill="#230062"/>
    <path d="M79.7236 59.928C79.7236 56.9056 80.5682 54.6636 82.2575 53.2019C83.6933 51.9795 85.5336 51.332 87.4215 51.385C88.4473 51.3489 89.4694 51.5268 90.4221 51.9074C91.3749 52.288 92.2372 52.8628 92.9539 53.595C93.699 54.4227 94.2723 55.3891 94.641 56.4385C95.0097 57.4879 95.1663 58.5997 95.1019 59.7096C95.1807 61.4155 94.8532 63.1157 94.1462 64.6713C93.5276 65.8622 92.5659 66.8417 91.3845 67.484C90.1708 68.1483 88.8063 68.4912 87.4215 68.4798C86.3893 68.521 85.3599 68.3464 84.3996 67.9673C83.4392 67.5882 82.5691 67.0129 81.8454 66.2785C80.4367 64.8052 79.7295 62.6884 79.7236 59.928ZM82.5819 59.928C82.4548 61.6116 82.9437 63.2841 83.9584 64.6363C84.388 65.1288 84.9187 65.5237 85.5146 65.7944C86.1105 66.065 86.7578 66.205 87.4128 66.205C88.0677 66.205 88.715 66.065 89.3109 65.7944C89.9069 65.5237 90.4376 65.1288 90.8672 64.6363C91.779 63.5881 92.2349 61.9924 92.2349 59.8494C92.3566 58.2015 91.8667 56.5665 90.8584 55.2547C90.428 54.7649 89.8976 54.3724 89.3026 54.1035C88.7076 53.8346 88.0617 53.6955 87.4084 53.6955C86.755 53.6955 86.1092 53.8346 85.5142 54.1035C84.9192 54.3724 84.3887 54.7649 83.9584 55.2547C83.0378 56.268 82.5819 57.8403 82.5819 59.928Z" fill="white" stroke="white"/>
    <path d="M98.3547 68.1042V51.7519H100.845V54.0492C101.362 53.247 102.07 52.584 102.905 52.1187C103.795 51.6194 104.803 51.3661 105.825 51.385C106.873 51.3441 107.911 51.6049 108.814 52.1362C109.584 52.6375 110.161 53.3821 110.454 54.2501C110.978 53.3752 111.722 52.651 112.612 52.1487C113.502 51.6464 114.508 51.3832 115.53 51.385C116.215 51.34 116.902 51.4363 117.547 51.6677C118.193 51.8992 118.784 52.2609 119.283 52.7302C120.262 53.8926 120.741 55.3932 120.616 56.9056V68.1304H117.845V57.7792C117.885 56.9719 117.793 56.1636 117.573 55.3857C117.392 54.8919 117.045 54.4755 116.591 54.2065C116.091 53.9014 115.512 53.7467 114.925 53.7609C114.393 53.746 113.863 53.8399 113.369 54.0367C112.874 54.2335 112.425 54.5291 112.05 54.9053C111.199 55.934 110.789 57.2553 110.91 58.5828V68.078H108.131V57.4822C108.2 56.5105 107.961 55.5417 107.447 54.7131C107.18 54.3889 106.837 54.1348 106.449 53.9734C106.061 53.8119 105.639 53.748 105.22 53.7872C104.453 53.7837 103.702 53.9989 103.054 54.4074C102.378 54.8225 101.866 55.4584 101.607 56.2068C101.264 57.3116 101.113 58.4667 101.16 59.6223V68.1042H98.3547Z" fill="white" stroke="white"/>
    <path d="M124.719 68.1042V51.7519H127.226V54.0842C127.786 53.212 128.568 52.5029 129.492 52.0289C130.416 51.5548 131.449 51.3327 132.487 51.385C133.426 51.3733 134.357 51.5547 135.222 51.9178C135.957 52.2031 136.6 52.6834 137.081 53.3067C137.514 53.9224 137.813 54.6217 137.958 55.3595C138.08 56.2509 138.13 57.1506 138.107 58.0499V68.1042H135.327V58.1635C135.368 57.3067 135.258 56.4495 135.003 55.6303C134.762 55.0513 134.324 54.5752 133.767 54.2851C133.179 53.9441 132.509 53.7717 131.829 53.7871C130.701 53.765 129.605 54.1673 128.761 54.914C127.884 55.6565 127.463 57.0803 127.463 59.1768V68.1042H124.719Z" fill="white" stroke="white"/>
    <path d="M142.341 48.7207V45.5498H145.164V48.7382L142.341 48.7207ZM142.341 68.1042V51.7519H145.164V68.1042H142.341Z" fill="white" stroke="white"/>
    <path d="M153.932 68.1042L147.69 51.7519H150.618L154.125 61.5441C154.511 62.601 154.862 63.7017 155.177 64.8372C155.423 63.9637 155.773 62.9417 156.212 61.7275L159.859 51.7519H162.7L156.492 68.1042H153.932Z" fill="white" stroke="white"/>
    <path d="M185.416 62.8369L188.292 63.195C187.92 64.7422 187.029 66.1165 185.767 67.0909C184.185 68.119 182.305 68.5953 180.421 68.4451C178.538 68.2949 176.758 67.5269 175.36 66.2611C173.87 64.5515 173.115 62.3273 173.256 60.0678C173.256 57.3133 173.966 55.179 175.386 53.6649C176.091 52.912 176.949 52.3189 177.904 51.9255C178.858 51.5321 179.886 51.3478 180.919 51.385C181.923 51.3524 182.923 51.5352 183.85 51.921C184.777 52.3068 185.61 52.8866 186.293 53.6212C187.69 55.1062 188.386 57.1997 188.38 59.9018C188.38 60.0678 188.38 60.3124 188.38 60.6356H176.105C176.094 62.1515 176.636 63.6198 177.631 64.7674C178.069 65.2322 178.601 65.6 179.192 65.8468C179.782 66.0936 180.419 66.2139 181.059 66.1999C182.001 66.2298 182.926 65.9472 183.689 65.3963C184.505 64.7314 185.106 63.841 185.416 62.8369ZM176.281 58.3557H185.443C185.412 57.2429 185.046 56.1652 184.391 55.2634C183.98 54.7494 183.454 54.3376 182.857 54.0602C182.259 53.7828 181.604 53.6474 180.945 53.6649C180.35 53.6511 179.759 53.757 179.206 53.9761C178.653 54.1952 178.15 54.5231 177.727 54.9402C176.831 55.8572 176.315 57.0766 176.281 58.3557V58.3557Z" fill="white" stroke="white"/>
    <path d="M192.571 68.1042V51.7519H195.07V54.2327C195.483 53.3509 196.081 52.5675 196.823 51.9353C197.339 51.5806 197.95 51.3888 198.577 51.385C199.592 51.4061 200.582 51.7086 201.435 52.2585L200.47 54.8791C199.86 54.4968 199.157 54.2884 198.436 54.2763C197.844 54.2678 197.266 54.4587 196.797 54.8179C196.299 55.2029 195.937 55.735 195.762 56.3379C195.445 57.3857 195.288 58.4754 195.297 59.5699V68.1304L192.571 68.1042Z" fill="white" stroke="white"/>
    <path d="M203.416 63.2212L206.169 62.7932C206.258 63.7682 206.719 64.672 207.458 65.3177C208.311 65.9478 209.361 66.2571 210.421 66.1912C211.43 66.2663 212.433 65.9916 213.262 65.4138C213.545 65.199 213.776 64.9232 213.937 64.6071C214.098 64.2909 214.185 63.9425 214.191 63.5881C214.192 63.2912 214.117 62.999 213.972 62.7392C213.828 62.4794 213.62 62.2605 213.367 62.1031C212.462 61.6773 211.508 61.3634 210.526 61.1684C209.078 60.8426 207.659 60.3985 206.283 59.8407C205.558 59.5176 204.943 58.9895 204.516 58.3218C204.089 57.6541 203.868 56.8762 203.881 56.0845C203.875 55.3809 204.047 54.6871 204.38 54.0667C204.714 53.4604 205.182 52.9377 205.748 52.538C206.284 52.1755 206.877 51.904 207.502 51.7344C208.282 51.51 209.091 51.3982 209.904 51.4024C211.059 51.38 212.209 51.5665 213.297 51.9528C214.145 52.2383 214.894 52.7596 215.454 53.4552C215.966 54.2142 216.293 55.0816 216.41 55.9884L213.692 56.3641C213.626 55.5936 213.261 54.8791 212.675 54.3724C211.94 53.8598 211.053 53.6103 210.158 53.6649C209.201 53.5775 208.24 53.7947 207.414 54.2851C207.17 54.4488 206.969 54.6682 206.827 54.9249C206.685 55.1817 206.607 55.4684 206.599 55.7613C206.595 56.113 206.713 56.4552 206.932 56.7309C207.213 57.0719 207.583 57.3289 208.001 57.4734C208.282 57.5782 209.097 57.8141 210.456 58.181C211.855 58.5232 213.232 58.9521 214.577 59.4651C215.315 59.7672 215.951 60.2734 216.41 60.9239C216.87 61.6261 217.103 62.4526 217.076 63.2911C217.076 64.2266 216.792 65.1403 216.26 65.9117C215.683 66.7577 214.869 67.4166 213.92 67.8072C212.824 68.2664 211.645 68.4926 210.456 68.4711C208.729 68.5882 207.012 68.1236 205.582 67.1521C204.39 66.1589 203.617 64.7558 203.416 63.2212V63.2212Z" fill="white" stroke="white"/>
    <path d="M232.217 62.8369L235.093 63.195C234.723 64.7409 233.836 66.1151 232.577 67.0909C231.207 68.0569 229.554 68.5424 227.878 68.4711C226.824 68.5248 225.77 68.3557 224.786 67.9748C223.803 67.5939 222.911 67.0099 222.17 66.2611C220.758 64.7936 220.057 62.7233 220.057 60.0678C220.057 57.4123 220.767 55.1848 222.187 53.6649C222.893 52.9134 223.751 52.3211 224.706 51.9279C225.66 51.5346 226.688 51.3495 227.72 51.385C228.726 51.3511 229.727 51.5333 230.656 51.9192C231.585 52.305 232.419 52.8855 233.103 53.6212C234.488 55.1062 235.19 57.2026 235.19 59.9018C235.19 60.0678 235.19 60.3124 235.19 60.6356H222.915C222.911 62.152 223.455 63.619 224.449 64.7674C224.887 65.2331 225.419 65.6015 226.01 65.8484C226.601 66.0952 227.237 66.215 227.878 66.1999C228.819 66.2272 229.743 65.9448 230.508 65.3963C231.318 64.7294 231.913 63.8391 232.217 62.8369V62.8369ZM223.09 58.3557H232.253C232.222 57.2429 231.856 56.1652 231.2 55.2634C230.789 54.7495 230.264 54.3376 229.666 54.0602C229.068 53.7828 228.414 53.6475 227.755 53.6649C227.159 53.6515 226.566 53.7574 226.012 53.9765C225.457 54.1956 224.953 54.5233 224.528 54.9402C223.632 55.8561 223.118 57.0768 223.09 58.3557V58.3557Z" fill="white" stroke="white"/>
    <ellipse cx="49.5983" cy="59.8145" rx="17.5351" ry="17.4705" fill="white"/>
    <path fill-rule="evenodd" clip-rule="evenodd" d="M38.2444 49.3322L47.8887 51.5684L41.9443 58.4605L38.2444 49.3322Z" fill="#20005A"/>
    <path fill-rule="evenodd" clip-rule="evenodd" d="M38.2004 70.7771L47.8447 68.5322L41.8653 61.6925L38.2004 70.7771Z" fill="#20005A"/>
    <path fill-rule="evenodd" clip-rule="evenodd" d="M60.9961 49.3322L51.3518 51.5684L57.2962 58.4605L60.9961 49.3322Z" fill="#20005A"/>
    <path fill-rule="evenodd" clip-rule="evenodd" d="M60.9436 70.7771L51.2993 68.5322L57.2788 61.6925L60.9436 70.7771Z" fill="#20005A"/>
</svg>
