<?xml version="1.0" encoding="UTF-8"?>
<svg width="1349px" height="323px" viewBox="-200 -90 1649 523" version="1.1" xmlns="http://www.w3.org/2000/svg" xmlns:xlink="http://www.w3.org/1999/xlink">
    <title>编组</title>
    <g id="White备份" stroke="none" stroke-width="1" fill="none" fill-rule="evenodd">
        <g id="编组" transform="translate(10.000000, 19.000000)">
            <path d="M98.4951763,0 L136.392,78.333 L107.750529,133.62018 L113.542,145.16 L157.796037,232.803934 L157.617,232.98 L157.659121,233.063815 L193.951,197.31 L136.392,78.333 L136.483022,78.1570637 L194,197.262373 L193.951,197.31 L194,197.411777 L98.4951763,292 L98.319,291.83 L157.617,232.98 L113.542,145.16 L98.0220905,114.424742 L88.321,133.932 L88.3328669,133.955014 L38.6,233.97 L98.319,291.83 L98.1480839,292 L38.5001307,234.11719 L38.516,234.085 L22.349,218.226 L0.0112967464,196.584471 L0.102,196.402 L0,196.302992 L44.927,106.927 L98.4951763,0 Z M60.4801253,75.9877366 L44.927,106.927 L0.102,196.402 L22.349,218.226 L38.582,233.953 L38.516,234.085 L38.5341397,234.103203 L38.6,233.97 L38.582,233.953 L88.321,133.932 L60.4801253,75.9877366 Z" id="形状结合" stroke="#FFFFFF" stroke-width="16"></path>
            <text id="omniverse" font-family="Milligram-Heavy, Milligram" font-size="200" font-weight="800" fill="#FFFFFF">
                <tspan x="290" y="201">omniverse</tspan>
            </text>
        </g>
    </g>
</svg>