<svg width="272" height="119" viewBox="0 0 272 119" fill="none" xmlns="http://www.w3.org/2000/svg">
<rect x="0.199951" width="271.2" height="119" rx="8" fill="#230062"/>
<g clip-path="url(#clip0_21_14196)">
<path d="M114.054 50.3108C115.277 51.1706 116.313 52.3528 116.972 53.965C117.725 55.5771 118.102 57.5117 118.102 59.6612C118.102 61.8107 117.725 63.6378 116.878 65.25C116.125 66.8621 114.995 68.0444 113.583 68.7967C112.171 69.6565 110.476 70.0864 108.688 70.0864C107.652 70.0864 106.711 69.8715 105.769 69.4415C104.828 69.1191 103.98 68.4743 103.321 67.7219V78.8995H97.8613V49.451H102.568L103.039 51.8154C105.11 49.8809 107.37 48.9136 109.723 48.9136C111.323 48.9136 112.83 49.3435 114.054 50.3108ZM111.041 63.6378C111.982 62.6705 112.453 61.3808 112.453 59.7687C112.453 58.1565 111.982 56.8668 111.135 55.7921C110.288 54.7173 109.158 54.2874 107.934 54.2874C106.899 54.2874 105.957 54.5023 105.204 55.0397C104.451 55.4696 103.886 56.222 103.416 57.1892V62.0257C103.698 62.993 104.263 63.7453 104.922 64.2827C105.675 64.8201 106.522 65.1425 107.558 65.1425C108.97 65.1425 110.1 64.6051 111.041 63.6378Z" fill="white"/>
<path d="M121.302 54.0724C122.15 52.5678 123.279 51.278 124.786 50.4182C126.292 49.5584 127.986 49.021 129.869 49.021C131.752 49.021 133.447 49.4509 134.953 50.4182C136.365 51.278 137.495 52.5678 138.342 54.1799C139.189 55.792 139.566 57.5117 139.566 59.5537C139.566 61.5958 139.189 63.3154 138.342 64.9275C137.495 66.5397 136.459 67.8294 134.953 68.6892C133.541 69.549 131.752 70.0864 129.869 70.0864C127.986 70.0864 126.292 69.6565 124.786 68.7967C123.279 67.9369 122.15 66.7546 121.302 65.1425C120.549 63.5303 120.079 61.7032 120.079 59.5537C120.079 57.5117 120.549 55.6846 121.302 54.0724ZM126.857 63.4229C127.61 64.4976 128.645 64.9275 129.869 64.9275C131.093 64.9275 132.129 64.3901 132.882 63.4229C133.635 62.4556 134.011 61.0584 134.011 59.5537C134.011 57.9416 133.635 56.6519 132.882 55.6846C132.035 54.6098 131.093 54.0724 129.775 54.0724C128.551 54.0724 127.61 54.6098 126.763 55.5771C126.009 56.6519 125.633 57.9416 125.633 59.5537C125.633 61.0584 126.009 62.3481 126.857 63.4229Z" fill="white"/>
<path d="M148.415 34.1893H142.955V69.549H148.415V34.1893Z" fill="white"/>
<path d="M170.82 49.9883L159.712 79.0069H154.44L158.582 68.5817L150.674 49.9883H156.888L161.406 61.5958L165.925 49.9883H170.82Z" fill="white"/>
<path d="M191.72 49.9883V69.549C191.72 71.3761 191.249 73.0957 190.308 74.6004C189.366 76.1051 188.142 77.2873 186.542 78.1471C184.942 79.0069 183.247 79.4368 181.364 79.4368C179.952 79.4368 178.728 79.2219 177.693 78.8995C176.657 78.4696 175.81 78.0396 175.151 77.6097C174.398 77.0723 173.645 76.4275 172.797 75.5677L175.998 71.2686C176.751 72.1284 177.599 72.7733 178.352 73.2032C179.105 73.6331 180.14 73.9555 181.27 73.9555C182.682 73.9555 183.812 73.5256 184.753 72.7733C185.695 72.021 186.165 70.8387 186.165 69.4415V66.6472C185.601 67.6144 184.848 68.4742 183.718 69.1191C182.588 69.764 181.27 70.0864 179.764 70.0864C178.258 70.0864 176.751 69.6565 175.433 68.6892C174.115 67.8294 173.08 66.5397 172.233 64.9275C171.48 63.3154 171.009 61.5958 171.009 59.6612C171.009 57.7266 171.385 55.8995 172.233 54.2874C173.08 52.6752 174.115 51.3855 175.528 50.4182C176.846 49.4509 178.258 49.021 179.764 49.021C181.176 49.021 182.4 49.236 183.53 49.6659C184.659 50.0958 185.506 50.7407 186.071 51.493L186.636 49.9883H191.72ZM186.165 62.0257V57.1892C185.789 56.222 185.224 55.4696 184.377 54.9322C183.53 54.3949 182.588 54.0724 181.458 54.0724C180.14 54.0724 179.011 54.6098 178.069 55.5771C177.128 56.5444 176.657 57.8341 176.657 59.4462C176.657 60.9509 177.128 62.3481 178.069 63.4229C179.011 64.4976 180.14 65.035 181.458 65.035C183.624 64.9275 185.224 63.9602 186.165 62.0257Z" fill="white"/>
<path d="M196.238 54.0724C197.086 52.4603 198.215 51.2781 199.722 50.3108C201.228 49.451 202.922 48.9136 204.805 48.9136C206.688 48.9136 208.383 49.3435 209.889 50.3108C211.301 51.1706 212.431 52.4603 213.278 54.0724C214.031 55.6846 214.502 57.4042 214.502 59.4463C214.502 61.4883 214.125 63.2079 213.278 64.8201C212.525 66.4322 211.395 67.7219 209.889 68.5817C208.477 69.4416 206.688 69.9789 204.805 69.9789C202.922 69.9789 201.228 69.549 199.722 68.6892C198.215 67.8294 197.086 66.6472 196.238 65.035C195.391 63.4229 195.015 61.5958 195.015 59.3388C195.015 57.5117 195.391 55.6846 196.238 54.0724ZM201.699 63.4229C202.452 64.4976 203.487 64.9275 204.711 64.9275C205.935 64.9275 206.971 64.3902 207.724 63.4229C208.477 62.4556 208.853 61.0584 208.853 59.5537C208.853 57.9416 208.477 56.6519 207.724 55.6846C206.971 54.7173 205.935 54.1799 204.711 54.1799C203.487 54.1799 202.546 54.7173 201.699 55.6846C200.851 56.6519 200.475 58.0491 200.475 59.5537C200.569 61.0584 200.946 62.3481 201.699 63.4229Z" fill="white"/>
<path d="M233.801 50.6332C234.931 51.7079 235.401 53.1051 235.495 54.8248V69.549H229.941V57.1892C229.847 55.2547 229 54.2874 227.399 54.2874C226.175 54.2874 225.14 54.9322 224.387 56.3294C223.634 57.7266 223.257 59.4462 223.257 61.4883V69.549H217.797V49.9883H222.786L223.163 53.1051C223.822 51.8154 224.669 50.8481 225.799 50.0958C226.929 49.3435 228.246 49.021 229.753 49.021C231.353 49.021 232.765 49.5584 233.801 50.6332Z" fill="white"/>
<path d="M74.5144 49.6659C73.573 49.021 72.3491 49.021 71.3136 49.6659L63.9706 54.6098L58.9811 57.8341L51.6381 62.778C50.6967 63.4229 49.4729 63.4229 48.4373 62.778L42.6006 58.9089C41.6592 58.264 41.0002 57.0818 41.0002 55.792V48.1612C41.0002 46.8715 41.5651 45.6893 42.6006 45.0444L48.3432 41.2827C49.2846 40.6379 50.5084 40.6379 51.544 41.2827L57.2866 45.0444C58.228 45.6893 58.887 46.8715 58.887 48.1612V53.1051L63.8764 49.7734V44.8295C63.8764 43.5397 63.3116 42.3575 62.276 41.7127L51.6381 34.6192C50.6967 33.9744 49.4729 33.9744 48.4373 34.6192L37.6111 41.7127C36.5756 42.3575 36.0107 43.5397 36.0107 44.8295V59.1238C36.0107 60.4135 36.5756 61.5958 37.6111 62.2406L48.4373 69.3341C49.3787 69.9789 50.6026 69.9789 51.6381 69.3341L58.9811 64.4976L63.9706 61.1659L71.3136 56.3294C72.255 55.6846 73.4788 55.6846 74.5144 56.3294L80.257 60.0911C81.1984 60.736 81.8573 61.9182 81.8573 63.2079V70.8387C81.8573 72.1285 81.2925 73.3107 80.257 73.9555L74.5144 77.8247C73.573 78.4696 72.3491 78.4696 71.3136 77.8247L65.571 74.063C64.6296 73.4182 63.9706 72.2359 63.9706 70.9462V66.0023L58.9811 69.3341V74.278C58.9811 75.5677 59.546 76.7499 60.5815 77.3948L71.4077 84.4882C72.3491 85.1331 73.5729 85.1331 74.6085 84.4882L85.4347 77.3948C86.3761 76.7499 87.0351 75.5677 87.0351 74.278V59.9836C87.0351 58.6939 86.4702 57.5117 85.4347 56.8668L74.5144 49.6659Z" fill="white"/>
</g>
<defs>
<clipPath id="clip0_21_14196">
<rect width="200" height="52" fill="white" transform="translate(35.8 33.5)"/>
</clipPath>
</defs>
</svg>
