<svg width="272" height="119" viewBox="0 0 272 119" fill="none" xmlns="http://www.w3.org/2000/svg">
<rect x="0.399902" width="271.2" height="119" rx="8" fill="#230062"/>
<g clip-path="url(#clip0_21_14197)">
<path d="M81.1304 58.2578C81.0482 56.7206 80.8136 55.2237 80.441 53.783C80.2204 52.9272 79.9494 52.0854 79.6293 51.262C78.0322 47.1445 75.2722 43.6107 71.755 41.0695C69.4498 39.4025 66.8189 38.1622 63.9767 37.4626C62.2479 37.0366 60.4414 36.8109 58.5821 36.8109C56.7229 36.8109 54.9163 37.0366 53.1875 37.4626C50.3453 38.1622 47.7145 39.4032 45.4092 41.0695C41.8921 43.6113 39.132 47.1445 37.535 51.262C37.2176 52.08 36.9453 52.9214 36.7233 53.783C36.3507 55.2237 36.116 56.7206 36.0339 58.2578C36.0113 58.6693 36 59.0834 36 59.5C36 59.9292 36.0119 60.3553 36.0358 60.7788C36.1179 62.2712 36.3438 63.7258 36.7 65.1275C36.919 65.9884 37.1868 66.8298 37.5011 67.6485C39.0925 71.8044 41.8663 75.3704 45.4092 77.9305C47.7145 79.5969 50.3453 80.8378 53.1875 81.5374C54.9163 81.9634 56.7229 82.1891 58.5821 82.1891C60.4414 82.1891 62.2479 81.9634 63.9767 81.5374C66.8189 80.8378 69.4498 79.5975 71.755 77.9305C75.2979 75.3704 78.0717 71.8044 79.6638 67.6485C79.978 66.8298 80.2453 65.9884 80.4642 65.1275C80.8205 63.7258 81.0463 62.2712 81.1285 60.7788C81.1523 60.3553 81.1642 59.9292 81.1642 59.5C81.1642 59.0834 81.1529 58.6693 81.1304 58.2578Z" fill="white"/>
<path d="M51.6179 58.3857L57.473 52.5029C57.9629 52.0107 57.9629 51.2128 57.473 50.7206C56.9831 50.2284 56.1889 50.2284 55.699 50.7206L49.844 56.6034C49.3541 57.0956 49.3541 57.8935 49.844 58.3857C50.3339 58.8779 51.128 58.8779 51.6179 58.3857ZM65.4571 60.5248L59.602 66.4076C59.1121 66.8998 59.1121 67.6977 59.602 68.1899C60.0919 68.6821 60.8861 68.6821 61.376 68.1899L67.231 62.3071C67.7209 61.8149 67.7209 61.017 67.231 60.5248C66.7417 60.0326 65.947 60.0326 65.4571 60.5248ZM66.1226 50.1414L49.2676 67.0763C48.7777 67.5685 48.7777 68.3664 49.2676 68.8586C49.7575 69.3508 50.5516 69.3508 51.0415 68.8586L67.8966 51.9237C68.3865 51.4315 68.3865 50.6336 67.8966 50.1414C67.4067 49.6492 66.6125 49.6492 66.1226 50.1414Z" fill="black"/>
<path d="M107.835 37.597C108.974 38.1203 109.858 38.8667 110.473 39.8362C111.089 40.8057 111.397 41.9446 111.397 43.2681C111.397 44.5762 111.089 45.715 110.473 46.6845C109.858 47.6618 108.974 48.4081 107.835 48.9237C106.696 49.4393 105.35 49.7009 103.796 49.7009H100.427C100.386 49.7009 100.347 49.7171 100.318 49.7459C100.29 49.7748 100.273 49.8139 100.273 49.8548V54.4562C100.273 54.497 100.257 54.5361 100.228 54.5649C100.199 54.5938 100.16 54.61 100.119 54.6101H96.3729C96.3322 54.6101 96.2932 54.5939 96.2643 54.5651C96.2355 54.5362 96.2192 54.4971 96.219 54.4562V36.966C96.2192 36.9252 96.2355 36.886 96.2643 36.8572C96.2932 36.8284 96.3322 36.8122 96.3729 36.8122H103.796C105.35 36.8122 106.696 37.0738 107.835 37.597ZM106.35 45.5457C106.981 45.0148 107.304 44.253 107.304 43.2681C107.304 42.2677 106.989 41.4982 106.35 40.9673C105.719 40.4364 104.788 40.1671 103.573 40.1671H100.427C100.386 40.1671 100.347 40.1833 100.318 40.2122C100.29 40.241 100.273 40.2801 100.273 40.321V46.192C100.273 46.2767 100.342 46.346 100.427 46.346H103.573C104.788 46.346 105.712 46.0843 106.35 45.5457ZM128.092 49.0391C128.038 48.9622 128.069 48.8545 128.154 48.8083C129.223 48.3004 130.054 47.5925 130.654 46.6845C131.276 45.7304 131.592 44.5839 131.592 43.2681C131.592 41.9446 131.285 40.798 130.669 39.8362C130.054 38.8667 129.169 38.128 128.03 37.597C126.892 37.0738 125.546 36.8122 123.992 36.8122H116.569C116.528 36.8122 116.489 36.8284 116.46 36.8572C116.431 36.886 116.415 36.9252 116.415 36.966V40.0132C116.415 40.0978 116.484 40.1671 116.569 40.1671H123.769C124.984 40.1671 125.908 40.4364 126.546 40.9673C127.177 41.4983 127.5 42.2678 127.5 43.2681C127.5 44.253 127.184 45.0148 126.546 45.5534C125.915 46.0998 124.984 46.3691 123.769 46.3691H116.569C116.528 46.3691 116.489 46.3853 116.46 46.4142C116.431 46.443 116.415 46.4821 116.415 46.523V54.4563C116.415 54.5409 116.484 54.6102 116.569 54.6102H120.315C120.399 54.6102 120.468 54.5409 120.468 54.4563V49.8086C120.468 49.724 120.538 49.6547 120.623 49.6547H124.107C124.161 49.6547 124.207 49.6778 124.238 49.724L127.523 54.5486C127.554 54.5871 127.6 54.6179 127.653 54.6179H131.631C131.754 54.6179 131.83 54.4794 131.754 54.3793L128.092 49.0391ZM163.372 54.2524C162.418 53.8215 161.633 53.2136 161.01 52.4288C160.964 52.3749 160.964 52.2902 161.01 52.2364L163.056 49.7356C163.071 49.7176 163.089 49.7031 163.109 49.6931C163.13 49.6831 163.153 49.6779 163.176 49.6779C163.198 49.6779 163.221 49.6831 163.242 49.6931C163.262 49.7031 163.281 49.7176 163.295 49.7356C164.218 50.936 165.264 51.5362 166.433 51.5362C168.087 51.5362 168.91 50.5512 168.91 48.5891V40.2788C168.91 40.1941 168.841 40.1249 168.757 40.1249H162.91C162.87 40.1248 162.831 40.1086 162.802 40.0798C162.773 40.0509 162.757 40.0118 162.757 39.971V36.97C162.757 36.8854 162.826 36.8161 162.91 36.8161H172.78C172.865 36.8161 172.934 36.8854 172.934 36.97V48.3582C172.934 50.5436 172.403 52.1825 171.333 53.2752C170.264 54.3679 168.703 54.9142 166.633 54.9142C165.449 54.9219 164.364 54.6987 163.372 54.2524ZM226.158 40.1671H220.865C220.781 40.1671 220.711 40.0978 220.711 40.0132V36.966C220.711 36.8814 220.781 36.8122 220.865 36.8122H235.812C235.852 36.8122 235.891 36.8284 235.92 36.8572C235.949 36.886 235.965 36.9252 235.965 36.966V40.0132C235.965 40.0978 235.896 40.1671 235.812 40.1671H230.519C230.479 40.1671 230.44 40.1833 230.411 40.2122C230.382 40.241 230.366 40.2801 230.366 40.321V54.4562C230.366 54.5409 230.296 54.6101 230.211 54.6101H226.465C226.424 54.6101 226.385 54.5939 226.357 54.565C226.328 54.5362 226.312 54.4971 226.311 54.4562V40.321C226.311 40.2363 226.242 40.1671 226.158 40.1671ZM141.465 54.0241C140.003 53.2238 138.865 52.1312 138.041 50.7307C137.218 49.3303 136.803 47.7606 136.803 46.0139C136.803 44.2671 137.218 42.6974 138.041 41.297C138.865 39.8965 140.011 38.8038 141.465 38.0036C142.926 37.2034 144.565 36.8109 146.38 36.8109C148.195 36.8109 149.834 37.2111 151.28 38.0036C152.734 38.8038 153.872 39.8965 154.704 41.297C155.534 42.6974 155.957 44.2671 155.957 46.0139C155.957 47.7606 155.542 49.3303 154.704 50.7307C153.872 52.1312 152.726 53.2238 151.28 54.0241C149.826 54.8244 148.195 55.2168 146.38 55.2168C144.565 55.2168 142.926 54.8167 141.465 54.0241ZM149.18 50.9847C150.011 50.4999 150.665 49.8305 151.142 48.961C151.619 48.0914 151.857 47.1142 151.857 46.0139C151.857 44.9135 151.619 43.9286 151.142 43.0667C150.665 42.2049 150.011 41.5278 149.18 41.0431C148.349 40.5583 147.411 40.3197 146.38 40.3197C145.35 40.3197 144.41 40.5583 143.58 41.0431C142.749 41.5278 142.095 42.1973 141.618 43.0667C141.142 43.9286 140.903 44.9135 140.903 46.0139C140.903 47.1142 141.142 48.0991 141.618 48.961C142.095 49.8228 142.749 50.4999 143.58 50.9847C144.41 51.4695 145.35 51.708 146.38 51.708C147.418 51.708 148.349 51.4618 149.18 50.9847ZM179.206 51.4628V54.4638C179.206 54.5484 179.275 54.6177 179.36 54.6177H192.607C192.691 54.6177 192.761 54.5484 192.761 54.4638V51.4628C192.76 51.422 192.744 51.3829 192.715 51.3541C192.687 51.3253 192.648 51.3091 192.607 51.3089H179.368C179.275 51.3089 179.206 51.3782 179.206 51.4628ZM192.761 39.9208V36.966C192.76 36.9252 192.744 36.8862 192.715 36.8573C192.687 36.8285 192.648 36.8123 192.607 36.8122H179.36C179.319 36.8122 179.28 36.8284 179.252 36.8572C179.223 36.886 179.207 36.9252 179.206 36.966V39.9208C179.206 40.0055 179.275 40.0748 179.36 40.0748H192.607C192.691 40.0748 192.761 40.0055 192.761 39.9208ZM179.206 44.1454V47.0155C179.206 47.1002 179.275 47.1694 179.36 47.1694H192.622C192.707 47.1694 192.776 47.1002 192.776 47.0155V44.1454C192.776 44.1045 192.759 44.0654 192.731 44.0365C192.702 44.0077 192.663 43.9915 192.622 43.9915H179.36C179.319 43.9915 179.28 44.0077 179.252 44.0365C179.223 44.0654 179.207 44.1045 179.206 44.1454ZM203.687 54.0318C202.249 53.247 201.11 52.1466 200.287 50.7539C199.464 49.3534 199.049 47.776 199.049 46.0139C199.049 44.2517 199.464 42.6667 200.287 41.2739C201.11 39.8735 202.249 38.7808 203.687 37.9959C205.126 37.2111 206.749 36.8109 208.549 36.8109C210.064 36.8109 211.442 37.0802 212.664 37.6266C213.842 38.1498 214.842 38.8885 215.657 39.8504C215.711 39.9119 215.703 40.0042 215.641 40.0658L213.265 42.2973C213.203 42.3588 213.103 42.3512 213.041 42.2896C211.872 40.9815 210.441 40.3274 208.741 40.3274C207.657 40.3274 206.688 40.566 205.841 41.0508C204.988 41.5356 204.326 42.2049 203.857 43.0745C203.38 43.9363 203.141 44.9212 203.141 46.0216C203.141 47.1219 203.38 48.1069 203.857 48.9687C204.333 49.8305 204.995 50.5076 205.841 50.9924C206.695 51.4771 207.657 51.7157 208.741 51.7157C210.441 51.7157 211.872 51.0539 213.041 49.7305C213.069 49.6989 213.108 49.6797 213.15 49.6768C213.192 49.6739 213.233 49.6877 213.265 49.7151L215.641 51.9466C215.703 52.0004 215.711 52.0928 215.657 52.1543C214.842 53.1316 213.834 53.8857 212.649 54.4089C211.419 54.9475 210.042 55.2245 208.526 55.2245C206.742 55.2168 205.126 54.8244 203.687 54.0318Z" fill="white"/>
<path d="M109.502 72.6199H112.894C112.979 72.6199 113.048 72.6891 113.048 72.7738V79.7683C113.048 79.8145 113.025 79.8607 112.987 79.8915C112.048 80.5994 110.972 81.1381 109.748 81.5228C108.494 81.9152 107.24 82.1076 105.971 82.1076C104.156 82.1076 102.517 81.7151 101.071 80.9226C99.6247 80.13 98.4862 79.0374 97.6556 77.6446C96.832 76.2441 96.4167 74.6667 96.4167 72.9046C96.4167 71.1425 96.832 69.5574 97.6556 68.1646C98.4786 66.7642 99.6247 65.6715 101.094 64.8867C102.563 64.1018 104.209 63.7017 106.048 63.7017C107.579 63.7017 108.971 63.9633 110.225 64.4865C111.425 64.9944 112.448 65.7177 113.279 66.6642C113.333 66.7257 113.325 66.8181 113.271 66.8796L110.887 69.1188C110.825 69.1803 110.733 69.1727 110.671 69.1111C109.44 67.8492 107.971 67.2105 106.248 67.2105C105.133 67.2105 104.14 67.449 103.271 67.9261C102.402 68.4032 101.732 69.0726 101.248 69.9344C100.763 70.7962 100.525 71.7889 100.525 72.9123C100.525 74.0127 100.763 74.9976 101.248 75.8594C101.732 76.7212 102.402 77.3984 103.264 77.8831C104.125 78.3679 105.102 78.6065 106.202 78.6065C107.333 78.6065 108.356 78.3679 109.271 77.8908C109.325 77.8677 109.356 77.8139 109.356 77.7523V72.7892C109.348 72.6891 109.417 72.6199 109.502 72.6199ZM142.938 63.7017H146.685C146.769 63.7017 146.839 63.7709 146.839 63.8556V77.9909C146.839 78.0755 146.908 78.1447 146.993 78.1447H155.462C155.547 78.1447 155.616 78.214 155.616 78.2986V81.3458C155.616 81.4304 155.547 81.4997 155.462 81.4997H142.938C142.898 81.4997 142.859 81.4834 142.83 81.4546C142.801 81.4258 142.785 81.3866 142.785 81.3458V63.8556C142.785 63.7709 142.854 63.7017 142.938 63.7017ZM218.297 75.2361V81.3458C218.297 81.4304 218.228 81.4997 218.143 81.4997H214.397C214.356 81.4997 214.317 81.4834 214.289 81.4546C214.26 81.4258 214.244 81.3866 214.243 81.3458V75.1823C214.243 75.1515 214.236 75.1284 214.22 75.1053L207.605 63.9325C207.543 63.8325 207.62 63.7017 207.735 63.7017H211.682C211.735 63.7017 211.789 63.7324 211.813 63.7786L216.313 71.3887C216.374 71.4888 216.52 71.4888 216.574 71.3887L221.074 63.7786C221.105 63.7324 221.151 63.7017 221.205 63.7017H224.821C224.936 63.7017 225.013 63.8325 224.952 63.9325L218.305 75.1592C218.305 75.1823 218.297 75.213 218.297 75.2361ZM129.942 63.7017H126.142C126.081 63.7017 126.027 63.7401 126.004 63.794L118.335 81.2842C118.288 81.3842 118.365 81.4997 118.473 81.4997H122.288C122.35 81.4997 122.404 81.4612 122.434 81.4074L123.95 77.6908L125.25 74.5667L127.881 68.1031C127.892 68.0742 127.912 68.0494 127.937 68.0319C127.962 68.0144 127.992 68.005 128.023 68.005C128.054 68.005 128.084 68.0144 128.109 68.0319C128.135 68.0494 128.154 68.0742 128.165 68.1031L130.796 74.5667L132.073 77.6908L133.581 81.4074C133.604 81.4689 133.658 81.4997 133.727 81.4997H137.643C137.75 81.4997 137.827 81.3842 137.781 81.2842L130.089 63.794C130.058 63.7401 130.004 63.7017 129.942 63.7017ZM172.284 63.7017H168.484C168.422 63.7017 168.368 63.7401 168.345 63.794L160.676 81.2842C160.63 81.3842 160.707 81.4997 160.815 81.4997H164.63C164.691 81.4997 164.745 81.4612 164.776 81.4074L166.291 77.6908L167.591 74.5667L170.222 68.1031C170.233 68.0742 170.253 68.0494 170.278 68.0319C170.303 68.0143 170.334 68.005 170.364 68.005C170.395 68.005 170.425 68.0143 170.451 68.0319C170.476 68.0494 170.496 68.0742 170.507 68.1031L173.138 74.5667L174.415 77.6908L175.923 81.4074C175.945 81.4689 175.999 81.4997 176.069 81.4997H179.984C180.092 81.4997 180.169 81.3842 180.122 81.2842L172.43 63.794C172.399 63.7401 172.345 63.7017 172.284 63.7017ZM191.794 66.4026L189.956 63.7709C189.925 63.7324 189.878 63.7017 189.832 63.7017H185.609C185.486 63.7017 185.409 63.8402 185.486 63.9479L189.294 69.3573C189.355 69.442 189.478 69.442 189.54 69.365L191.802 66.5872C191.825 66.5333 191.832 66.4564 191.794 66.4026ZM198.201 75.5134L195.978 78.3374C195.94 78.3912 195.932 78.4605 195.971 78.5221L197.963 81.4384C197.994 81.4768 198.039 81.5076 198.093 81.5076H202.393C202.517 81.5076 202.593 81.3691 202.517 81.2614L198.447 75.5288C198.386 75.4365 198.263 75.4365 198.201 75.5134ZM196.162 72.2967L202.093 63.9479C202.162 63.8479 202.093 63.7017 201.969 63.7017H197.97C197.916 63.7017 197.869 63.7248 197.839 63.7709L193.939 69.4728C193.939 69.4805 193.931 69.4805 193.931 69.4805L191.462 72.4429L191.454 72.4507L185.154 81.2535C185.084 81.3535 185.154 81.4997 185.277 81.4997H189.546C189.6 81.4997 189.646 81.4766 189.677 81.4304L193.777 75.3208L193.785 75.3131L196.162 72.2967Z" fill="white"/>
</g>
<defs>
<clipPath id="clip0_21_14197">
<rect width="200" height="45.3782" fill="white" transform="translate(36 36.8109)"/>
</clipPath>
</defs>
</svg>
