<svg width="272" height="119" viewBox="0 0 272 119" fill="none" xmlns="http://www.w3.org/2000/svg">
<rect x="0.199951" width="271.2" height="119" rx="8" fill="#230062"/>
<g clip-path="url(#clip0_21_14203)">
<path d="M170.863 63.4033C168.415 59.8011 162.512 57.883 158.287 56.7527C157.795 56.6243 157.282 56.4959 156.738 56.3617H156.695C154.42 55.7908 151.837 55.16 149.827 54.0783C147.523 52.8281 146.394 51.2068 146.394 49.1232C146.392 48.785 146.424 48.4475 146.489 48.1156V48.0557C146.522 47.9025 146.562 47.751 146.61 47.6019C146.616 47.5815 146.622 47.5614 146.63 47.5419V47.5191C146.928 46.6549 147.427 45.8726 148.087 45.2356C149.795 43.5231 152.519 42.5612 155.575 42.5612H155.67C157.919 42.6103 160.133 43.1267 162.169 44.0768C164.203 44.992 166.042 46.2845 167.586 47.8844L167.623 52.2258V52.2715H171.424V39.1988H167.632V42.1616C167.632 42.1832 167.626 42.2045 167.616 42.2235C167.605 42.2425 167.59 42.2585 167.571 42.27C167.537 42.27 167.491 42.2472 167.468 42.2244C165.861 41.0142 164.075 40.0598 162.172 39.3958C160.131 38.7034 157.993 38.3354 155.837 38.3054C153.363 38.3054 151.341 38.5908 149.654 39.136C148.251 39.5997 146.947 40.3189 145.81 41.2568C144.574 42.2141 143.581 43.4447 142.91 44.8503C142.262 46.2048 141.921 47.684 141.914 49.1831C141.895 50.0707 142.007 50.9562 142.245 51.8119C142.539 52.7593 142.976 53.6572 143.541 54.475C143.589 54.5521 143.647 54.6263 143.699 54.7005C143.751 54.7747 143.754 54.7719 143.78 54.809L143.814 54.8546C146.305 58.2655 151.866 59.7754 155.923 60.8858L156.035 60.9143L156.937 61.1626L157.913 61.4224C160.027 61.9355 162.096 62.619 164.098 63.466C165.143 63.9222 166.066 64.6154 166.791 65.4897C167.462 66.3003 167.916 67.2652 168.113 68.2955C168.303 69.3226 168.225 70.381 167.885 71.3696C167.487 72.5078 166.828 73.5387 165.959 74.3809C165.006 75.2219 163.887 75.8575 162.673 76.2476C161.493 76.625 160.266 76.843 159.027 76.8955C157.044 76.9904 155.059 76.7677 153.147 76.2362C149.907 75.22 146.95 73.2591 145.032 70.8644C144.968 70.7869 144.92 70.6976 144.891 70.6018L144.854 66.8684V66.8198H141.052V80.4862H144.857V76.4902C146.445 77.8761 148.287 78.9476 150.282 79.6471C152.614 80.4997 155.073 80.9646 157.559 81.0228H157.867C159.978 81.0228 164.916 81.0228 168.789 77.7718C169.862 76.8521 170.75 75.7405 171.407 74.4951C172.039 73.2959 172.451 71.9951 172.625 70.6532C172.802 69.3677 172.742 68.061 172.446 66.797C172.168 65.567 171.628 64.4101 170.863 63.4033Z" fill="white"/>
<path d="M133.329 63.4033C130.931 59.8183 125.004 57.8916 120.754 56.7556C120.27 56.63 119.769 56.5073 119.236 56.376C114.629 55.2485 108.893 53.8414 108.826 49.1118C108.826 48.3994 108.978 47.6951 109.273 47.0453C109.59 46.3625 110.031 45.7433 110.574 45.2185C112.302 43.5288 115.012 42.5583 118.044 42.5583H118.139C120.387 42.6066 122.599 43.123 124.633 44.0739C126.658 44.9876 128.487 46.2805 130.018 47.8816L130.093 52.223V52.2715H133.894V39.1988H130.101V42.1616C130.101 42.1829 130.096 42.2038 130.086 42.2227C130.076 42.2416 130.061 42.2578 130.044 42.27C130.015 42.27 129.98 42.27 129.937 42.2244C128.331 41.0142 126.544 40.0598 124.641 39.3958C122.601 38.7034 120.463 38.3354 118.306 38.3054C115.818 38.3054 113.791 38.5908 112.109 39.136C110.711 39.6008 109.412 40.32 108.279 41.2568C107.043 42.2141 106.05 43.4447 105.379 44.8503C104.727 46.2078 104.385 47.6911 104.377 49.1946C104.359 50.0808 104.468 50.965 104.703 51.8205C104.99 52.7617 105.415 53.6561 105.964 54.475C108.351 58.1628 114.191 59.7469 118.456 60.9057L118.557 60.9314L119.403 61.1626L120.296 61.3995L120.379 61.4224C122.494 61.935 124.563 62.6186 126.565 63.466C127.614 63.9294 128.54 64.6269 129.272 65.504C129.946 66.3233 130.402 67.2967 130.599 68.3355C130.787 69.3643 130.706 70.4236 130.363 71.4124C129.962 72.55 129.298 73.5791 128.425 74.418C127.479 75.2568 126.364 75.8881 125.154 76.2704C123.971 76.6459 122.741 76.8591 121.5 76.9041C121.243 76.9041 120.976 76.9212 120.705 76.9212C118.969 76.9254 117.242 76.692 115.57 76.2276C115.378 76.1677 115.182 76.102 114.995 76.0335H114.966C114.577 75.8965 114.188 75.7481 113.814 75.574C111.935 74.7576 110.216 73.6183 108.737 72.2088L108.662 72.1374C108.432 71.9091 108.199 71.6664 107.974 71.4124L107.801 71.2155C107.7 71.0984 107.602 70.9843 107.513 70.8644C107.451 70.7871 107.404 70.699 107.375 70.6046L107.338 66.8712V66.8227H103.482V80.4891H107.323V76.4931C108.912 77.8789 110.753 78.9505 112.748 79.6499C115.081 80.5026 117.54 80.9674 120.025 81.0257H120.333C122.433 81.0257 127.348 81.0257 131.256 77.7746C132.328 76.8549 133.216 75.7433 133.874 74.4979C134.505 73.3064 134.92 72.0134 135.097 70.6789C135.275 69.3934 135.214 68.0867 134.919 66.8227C134.641 65.5836 134.099 64.4177 133.329 63.4033Z" fill="white"/>
<path d="M94.3416 77.238L83.9519 61.6678C85.7122 61.7347 87.4645 61.3977 89.0719 60.6831C91.3439 59.5414 93.1696 58.0943 94.2898 55.9535C95.2002 54.1863 95.6721 52.2292 95.6663 50.2449C95.6641 47.1238 94.4228 44.1288 92.2107 41.9075C89.8091 39.7497 86.8113 38.6993 83.0419 38.6993H62.9102V43.0064H67.1836V77.2894H62.5359V80.8915H76.0271V77.2894H71.6817V61.7306H78.9528L89.1323 77.2894H84.5076V80.8915H99.0268V77.2894H94.4856C94.4593 77.291 94.433 77.2873 94.4083 77.2785C94.3835 77.2696 94.3608 77.2559 94.3416 77.238ZM71.6817 42.8123H82.8173C86.2383 42.8123 88.8645 44.1596 90.1949 46.4744C90.8356 47.6366 91.1612 48.9437 91.14 50.2679C91.1188 51.5921 90.7515 52.8883 90.074 54.0297C88.709 56.3132 87.0964 57.5748 83.5199 57.5748H71.6817V42.8123Z" fill="white"/>
<path d="M207.313 68.4154C207.313 63.2463 204.678 59.5128 200.307 57.9116C204.013 55.9821 205.649 52.8081 205.649 49.5399C205.649 41.996 199.265 38 190.94 38C186.395 38.0343 181.552 39.5328 178.243 44.1367L181.699 46.3717C183.55 43.9027 186.188 41.996 190.94 41.996C196.987 41.996 201.278 44.4307 201.278 49.0661C201.278 53.5074 196.975 55.9821 192.569 55.9821H186.568V60.2635H192.918C198.536 60.2635 202.977 63.2634 202.838 68.3669C202.524 73.79 197.704 76.7043 191.392 76.7043C187.331 76.7043 182.822 75.437 179.456 71.8691L179.283 71.8035L176.334 75.0031L176.472 75.0374C180.705 78.9734 185.736 81.0086 191.392 81.0086C200.1 80.9914 207.313 76.3218 207.313 68.4154Z" fill="white"/>
<path d="M59.737 57.5462H48.8V61.9733H59.737V57.5462Z" fill="white"/>
<path d="M222.8 57.5462H211.863V61.9733H222.8V57.5462Z" fill="white"/>
</g>
<defs>
<clipPath id="clip0_21_14203">
<rect width="174" height="43" fill="white" transform="translate(48.8 38)"/>
</clipPath>
</defs>
</svg>
