<svg width="272" height="119" viewBox="0 0 272 119" fill="none" xmlns="http://www.w3.org/2000/svg">
<rect width="271.2" height="119" rx="8" fill="#230062"/>
<path d="M79.7024 51.1705H85.194L78.3531 42.666L84.7232 34.3821H79.7024L75.7799 39.7998L71.6692 34.3821H66.1463L72.7989 42.729L65.8325 51.1705H70.8533L75.3093 45.4693L79.7024 51.1705Z" fill="white"/>
<path d="M88.3064 34.3821V51.1705H93.0133V42.1936C93.0133 39.3588 94.7078 37.8154 97.03 37.8154C99.1325 37.8154 100.231 39.0438 100.231 41.3431V51.1705H104.938V42.1936C104.938 39.3588 106.601 37.8154 108.986 37.8154C111.025 37.8154 112.155 39.0438 112.155 41.3431V51.1705H116.862V40.7132C116.862 36.398 114.697 34.0042 110.9 34.0042C107.793 34.0042 105.66 35.6106 104.718 38.2249H104.655C103.934 35.4846 101.988 34.0042 99.0383 34.0042C95.9631 34.0042 93.892 35.5476 92.9819 38.1619H92.8879V34.3821H88.3064Z" fill="white"/>
<path d="M120.001 34.3821V37.7524H122.668V47.1387C122.668 49.9105 124.017 51.4854 128.065 51.4854C130.011 51.4854 131.046 51.3279 132.521 51.0445V47.7372C131.58 47.8946 130.733 48.0206 129.917 48.0206C128.002 48.0206 127.375 47.4221 127.375 45.3118V37.7524H132.364V34.3821H127.375V29.5H125.272L123.17 34.3821H120.001Z" fill="white"/>
<path d="M147.447 34.0042C144.372 34.0042 142.238 35.5476 141.202 38.0359H141.108V34.3821H136.401V57.407H141.108V47.6741H141.202C142.175 50.0051 144.372 51.5485 147.353 51.5485C151.934 51.5485 155.135 48.0837 155.135 42.729C155.135 37.2484 151.652 34.0042 147.447 34.0042ZM141.077 43.2015V42.3511C141.077 39.7368 143.022 37.5004 145.784 37.5004C148.482 37.5004 150.302 39.6423 150.302 42.729C150.302 45.9103 148.482 48.0521 145.784 48.0521C143.022 48.0521 141.077 45.9103 141.077 43.2015Z" fill="white"/>
<path d="M114.67 86.3365H117.378V61.593H114.67V86.3365Z" fill="white"/>
<path d="M128.086 86.7093C131.839 86.7093 134.515 84.5739 135.821 81.7606V82.9808C135.821 85.3195 137.224 86.6754 139.345 86.6754C140.324 86.6754 141.238 86.4043 141.858 86.0993V83.9299C141.401 84.201 140.781 84.4384 140.226 84.4384C138.888 84.4384 138.431 83.3875 138.431 81.8623V74.2698C138.431 70.7108 135.984 68.067 131.35 68.067C127.597 68.067 124.496 69.7956 122.963 74.1343L125.247 75.0493C126.455 71.5921 128.315 70.1346 131.219 70.1346C134.189 70.1346 135.788 71.7277 135.788 74.4054V74.6087L127.303 77.0492C124.268 77.9305 122.571 79.3202 122.571 81.9979C122.571 84.1671 124.235 86.7093 128.086 86.7093ZM125.28 81.5912C125.28 80.032 126.389 79.4557 128.576 78.7439L135.788 76.3713V79.4896C134.907 82.3368 131.807 84.4723 128.935 84.4723C126.194 84.4723 125.28 83.0147 125.28 81.5912Z" fill="white"/>
<path d="M156.028 68.067C152.732 68.067 150.023 69.8973 148.881 72.6089H148.816V61.593H146.107V86.3365H148.816V82.2012H148.881C149.991 84.879 152.732 86.7093 155.963 86.7093C160.793 86.7093 164.35 82.9131 164.35 77.3542C164.35 71.7616 160.727 68.067 156.028 68.067ZM148.751 77.8287V76.9474C148.751 73.1852 151.492 70.2362 155.277 70.2362C158.965 70.2362 161.543 73.1173 161.543 77.3542C161.543 81.659 158.965 84.5062 155.277 84.5062C151.492 84.5062 148.751 81.6251 148.751 77.8287Z" fill="white"/>
<path d="M169.915 80.337L167.826 81.2183C169.034 84.4723 171.742 86.7093 176.735 86.7093C181.272 86.7093 184.437 84.5739 184.437 80.981C184.437 77.4898 181.435 76.4052 178.498 76.1002C177.225 75.9646 175.919 75.8628 174.679 75.7273C172.591 75.49 171.514 74.8121 171.514 73.253C171.514 71.3549 173.635 70.1684 176.213 70.1684C178.628 70.1684 180.684 71.1175 181.99 73.3885L183.784 71.9988C182.153 69.1855 179.248 68.0331 176.148 68.0331C172.036 68.0331 168.968 70.2362 168.968 73.558C168.968 76.8119 171.808 77.8287 174.255 78.1C175.528 78.2355 176.866 78.3372 178.073 78.4728C180.39 78.71 181.892 79.4218 181.892 81.2861C181.892 83.3875 179.607 84.5739 176.768 84.5739C173.211 84.5739 170.959 83.0825 169.915 80.337Z" fill="white"/>
<path d="M187.228 60.8953C187.228 55.8862 191.306 51.8256 196.337 51.8256C201.365 51.8256 205.249 55.8108 205.367 60.8561C205.367 62.4658 204.815 63.8204 203.435 65.0965C202.269 66.1748 200.28 66.3333 198.821 65.5283C197.78 64.9303 196.978 63.6566 196.298 62.721L195.036 64.6449H192.315L194.878 60.856L192.394 57.1261H195.193L196.317 59.05L197.421 57.1261H200.241L197.678 60.8561C197.678 60.8561 198.9 62.721 199.571 63.4474C200.241 64.1739 201.463 64.1934 202.252 63.4082C203.119 62.5448 203.313 61.8573 203.317 60.8561C203.33 56.9806 200.239 53.8673 196.337 53.8673C192.439 53.8673 189.278 57.0139 189.278 60.8953C189.278 64.7768 192.439 67.9234 196.337 67.9234C196.876 67.9234 197.393 67.8784 197.895 67.7663L198.328 69.7491C197.615 69.9085 197.038 69.9651 196.337 69.9651C191.306 69.9651 187.228 65.9045 187.228 60.8953Z" fill="white"/>
<path d="M109.088 86.7093H89.5535V89.5H109.088V86.7093Z" fill="white"/>
</svg>
