<svg width="272" height="119" viewBox="0 0 272 119" fill="none" xmlns="http://www.w3.org/2000/svg">
  <rect width="271.2" height="119" rx="8" fill="#230062"/>
  <g clip-path="url(#clip0_635_1254)">
    <path d="M135.7 22.7336H65.8247V93.2584H135.7V22.7336Z" fill="#A6A9B6" stroke="white" stroke-width="2.97" stroke-miterlimit="10"/>
    <path d="M119.42 42.6986C115.335 43.1909 114.635 43.8211 112.301 47.6221C109.675 51.9351 107.516 55.9921 104.657 61.2702C104.036 62.3207 103.731 63.5325 103.782 64.756V72.0232C103.782 76.9467 104.307 77.2815 109.734 77.8133V79.4676H93.0064V77.8133C98.3163 77.1043 98.7248 76.9861 98.7248 72.0232V64.3818C98.7248 63.2002 98.4914 62.6684 97.5578 60.9354C95.5155 57.095 93.5315 53.3728 90.3806 47.8191C88.1049 43.8015 87.5214 43.0925 83.573 42.6789V41.0246H97.869V42.6789C93.6677 43.2697 93.9011 44.0378 94.9514 46.0466C97.3827 50.5959 100.145 55.8937 102.595 60.3248C104.696 56.386 108.022 49.9263 109.656 46.6768C110.998 43.7227 110.823 43.1318 106.213 42.6592V41.0049H119.4L119.42 42.6986Z" fill="white"/>
    <path d="M131.669 34.1611C131.382 35.0621 131.037 36.2143 130.857 36.9183L124.151 36.7362V36.2832C125.051 35.4314 126.052 34.5304 126.908 33.5752C128.138 32.1917 128.78 30.9805 128.814 29.7053C128.839 28.5631 128.279 27.7359 127.151 27.6965C126.179 27.6719 125.425 28.3563 124.856 29.1342L124.37 28.7009L125.474 27.1303C125.805 26.7886 126.206 26.5237 126.649 26.3537C127.091 26.1837 127.564 26.1127 128.036 26.1456C128.436 26.1364 128.833 26.2105 129.204 26.3633C129.574 26.5161 129.909 26.7443 130.189 27.0338C130.468 27.3233 130.686 27.6679 130.828 28.0461C130.971 28.4244 131.035 28.8283 131.017 29.2327C130.983 30.5423 130.443 31.5911 128.727 33.1469C128.066 33.6983 127.117 34.4812 126.509 34.9735L129.296 35.0425C130.327 35.0425 130.526 35.008 131.168 33.9642L131.669 34.1611Z" fill="white"/>
    <path d="M187.705 70.7874C187.297 72.7962 185.896 78.3499 185.313 80.8905H154.97L154.445 79.9452C162.556 68.621 170.667 56.8439 178.894 44.8502H167.404C162.211 44.8502 161.335 45.2047 160.11 47.0362C159.526 47.8043 158.651 49.754 157.893 51.9991L156.142 51.9401C156.434 48.8678 157.115 43.7276 157.251 41.1083H158.768C159.41 42.5263 160.11 42.4672 161.86 42.4672H185.434L185.921 43.4125C177.81 54.9336 169.932 66.3956 161.88 78.3302C163.689 78.4484 167.482 78.5075 171.449 78.5075C179.093 78.5075 180.844 78.2121 182.478 76.3805C183.703 75.1398 184.987 72.8356 186.037 70.3541L187.705 70.7874Z" fill="white"/>
    <path d="M205.376 22.7287H135.724V93.2535H205.376V22.7287Z" stroke="white" stroke-width="2.97" stroke-miterlimit="10"/>
    <path d="M78.6667 99.0928H80.2325V107H78.6667V99.0928Z" fill="white"/>
    <path d="M81.7932 100.678H84.915V102.259H83.3541V107H81.7932V100.678ZM84.915 102.259H86.4759V107H84.915V102.259Z" fill="white"/>
    <path d="M92.7244 99.0928V100.678H94.2853V102.259H92.7244V107H91.1636V99.0928H92.7244ZM94.2853 105.42V102.259H95.8462V105.42H94.2853ZM97.4071 100.678V99.0928H98.9729V107H97.4071V102.259H95.8462V100.678H97.4071Z" fill="white"/>
    <path d="M100.534 102.259H102.095V103.839H103.655V105.42H105.216V107H102.095V105.42H100.534V102.259ZM102.095 100.678H105.216V103.839H103.655V102.259H102.095V100.678Z" fill="white"/>
    <path d="M109.904 102.259H108.343V105.42H106.777V99.0928H108.343V100.678H109.904V102.259ZM109.904 105.42V107H108.343V105.42H109.904Z" fill="white"/>
    <path d="M114.586 100.678V102.259H116.147V107H111.484V103.839H113.045V105.42H114.606V103.839H113.045V102.259H111.484V100.678H114.586Z" fill="white"/>
    <path d="M117.713 100.678H119.264V103.839H117.703L117.713 100.678ZM119.264 107V103.839H120.825V107H119.264ZM120.825 100.678H122.386V103.839H120.825V100.678Z" fill="white"/>
    <path d="M123.957 102.259H125.518V103.839H127.083V105.42H128.644V107H125.518V105.42H123.957V102.259ZM125.518 100.678H128.644V103.839H127.083V102.259H125.518V100.678Z" fill="white"/>
    <path d="M130.205 102.259H131.766V107H130.205V102.259ZM131.766 102.259V100.678H133.327V102.259H131.766Z" fill="white"/>
    <path d="M138.014 100.678V102.259H136.449V103.839H134.888V100.678H138.014ZM134.888 107V105.42H136.449V103.839H138.014V107H134.888Z" fill="white"/>
    <path d="M139.575 102.259H141.146V103.839H142.707V105.42H144.268V107H141.146V105.42H139.585L139.575 102.259ZM141.136 100.678H144.258V103.839H142.697V102.259H141.146L141.136 100.678Z" fill="white"/>
    <path d="M150.506 99.0928V103.839H148.926V99.0928H150.506ZM150.506 107V103.839H152.067V107H150.506ZM152.067 100.678H153.628V103.839H152.067V100.678ZM153.628 107V103.839H155.189V107H153.628ZM155.189 99.0928H156.755V103.839H155.189V99.0928Z" fill="white"/>
    <path d="M158.316 102.259H159.877V103.839H161.437V105.42H162.998V107H159.877V105.42H158.316V102.259ZM159.877 100.678H162.998V103.839H161.437V102.259H159.877V100.678Z" fill="white"/>
    <path d="M169.247 102.259H172.368V103.839H169.247V105.42H172.368V107H167.686V99.0928H172.368V100.678H169.247V102.259ZM173.929 100.678V102.259H172.368V100.678H173.929ZM173.929 103.839V105.42H172.368V103.839H173.929Z" fill="white"/>
    <path d="M177.056 100.678V105.42H175.495V100.678H177.056ZM178.617 100.678H180.178V107H177.056V105.42H178.617V100.678Z" fill="white"/>
    <path d="M181.739 99.0928V97.5123H183.299V99.0928H181.739ZM181.739 100.678H183.299V107H181.739V100.678Z" fill="white"/>
    <path d="M187.987 97.5123H189.548V107H184.865V102.259H186.426V105.42H187.987V102.259H186.426V100.678H187.987V97.5123Z" fill="white"/>
    <path d="M191.109 97.5123H192.689V107H191.128L191.109 97.5123Z" fill="white"/>
    <path d="M179.982 64.956L162.962 57.3483L161.8 60.0147L178.819 67.6225L179.982 64.956Z" fill="white"/>
  </g>
  <defs>
    <clipPath id="clip0_635_1254">
      <rect width="141" height="85" fill="white" transform="translate(65.1001 22)"/>
    </clipPath>
  </defs>
</svg>
