<svg width="181" height="74" viewBox="0 0 181 74" fill="none" xmlns="http://www.w3.org/2000/svg">
    <g clip-path="url(#clip0_28_17789)">
        <path d="M4.69654 0.623047C2.47206 0.623047 0.666687 2.44459 0.666687 4.68898V53.4802C0.666687 55.7246 2.47206 57.5461 4.69654 57.5461C6.92101 57.5461 8.72639 55.7246 8.72639 53.4802V4.68898C8.72639 2.44459 6.92101 0.623047 4.69654 0.623047ZM4.69654 65.678C2.47206 65.678 0.666687 67.4995 0.666687 69.7439C0.666687 71.9883 2.47206 73.8099 4.69654 73.8099C6.92101 73.8099 8.72639 71.9883 8.72639 69.7439C8.72639 67.4995 6.92101 65.678 4.69654 65.678ZM18.1294 57.5461C15.9049 57.5461 14.0995 59.3677 14.0995 61.6121V69.7439C14.0995 71.9883 15.9049 73.8099 18.1294 73.8099C20.3538 73.8099 22.1592 71.9883 22.1592 69.7439V61.6121C22.1592 59.3677 20.3538 57.5461 18.1294 57.5461ZM18.1294 0.623047C15.9049 0.623047 14.0995 2.44459 14.0995 4.68898V45.3483C14.0995 47.5927 15.9049 49.4143 18.1294 49.4143C20.3538 49.4143 22.1592 47.5927 22.1592 45.3483V4.68898C22.1592 2.44459 20.3538 0.623047 18.1294 0.623047ZM31.5622 0.623047C29.3377 0.623047 27.5324 2.44459 27.5324 4.68898V37.2165C27.5324 39.4608 29.3377 41.2824 31.5622 41.2824C33.7867 41.2824 35.5921 39.4608 35.5921 37.2165V4.68898C35.5921 2.44459 33.7867 0.623047 31.5622 0.623047ZM31.5622 49.4143C29.3377 49.4143 27.5324 51.2358 27.5324 53.4802V69.7439C27.5324 71.9883 29.3377 73.8099 31.5622 73.8099C33.7867 73.8099 35.5921 71.9883 35.5921 69.7439V53.4802C35.5921 51.2358 33.7867 49.4143 31.5622 49.4143ZM44.995 41.2824C42.7706 41.2824 40.9652 43.1039 40.9652 45.3483V61.6121C40.9652 63.8565 42.7706 65.678 44.995 65.678C47.2195 65.678 49.0249 63.8565 49.0249 61.6121V45.3483C49.0249 43.1039 47.2195 41.2824 44.995 41.2824ZM44.995 8.75492C42.7706 8.75492 40.9652 10.5765 40.9652 12.8208V29.0846C40.9652 31.329 42.7706 33.1505 44.995 33.1505C47.2195 33.1505 49.0249 31.329 49.0249 29.0846V12.8208C49.0249 10.5765 47.2195 8.75492 44.995 8.75492Z" fill="white"/>
        <path d="M116.726 14.1761C113.016 14.1761 110.01 17.2093 110.01 20.9527C110.01 24.6961 113.016 27.7292 116.726 27.7292C120.437 27.7292 123.443 24.6961 123.443 20.9527C123.443 17.2093 120.437 14.1761 116.726 14.1761ZM163.204 9.02595C164.515 9.02595 165.584 10.0804 165.622 11.395V11.4655V19.1718L176.674 9.61415C177.687 8.73591 179.216 8.85518 180.084 9.87979C180.935 10.8827 180.839 12.3844 179.88 13.2681L179.823 13.3196L172.645 19.5269L180.132 28.9111C180.97 29.9601 180.804 31.497 179.764 32.34C178.743 33.1695 177.26 33.0258 176.414 32.0283L176.366 31.9687L168.972 22.701L165.622 25.5987V30.4399C165.622 31.787 164.539 32.8794 163.204 32.8794C161.893 32.8794 160.824 31.825 160.786 30.5131V30.4399V11.4655C160.786 10.1183 161.869 9.02595 163.204 9.02595ZM68.2339 9.02595C72.167 9.02595 75.3533 12.2407 75.3533 16.2091C75.3533 17.6837 74.9127 19.0552 74.1577 20.1964C75.7106 21.5138 76.6966 23.4898 76.6966 25.6963C76.6966 29.624 73.5721 32.8144 69.6954 32.8794H69.5772H58.1592C56.824 32.8794 55.7413 31.787 55.7413 30.4399C55.7413 29.1171 56.7864 28.0383 58.0867 28.0003H58.1592H69.5772C70.8372 28.0003 71.8607 26.9676 71.8607 25.6963C71.8607 24.4467 70.8748 23.4302 69.647 23.3922H69.5772H68.2634H68.2339H58.1592C56.824 23.3922 55.7413 22.2999 55.7413 20.9527C55.7413 19.6299 56.7864 18.5511 58.0867 18.5131H58.1592H68.25H68.301C69.5315 18.4752 70.5148 17.4587 70.5148 16.2091C70.5148 14.9595 69.5288 13.943 68.301 13.9051H68.2312H58.1592C56.824 13.9051 55.7413 12.8127 55.7413 11.4655C55.7413 10.1427 56.7864 9.06389 58.0867 9.02595H58.1592H68.2339ZM85.5622 9.02595C86.8733 9.02595 87.9425 10.0804 87.9801 11.395V11.4655V28.0003H98.9951C100.306 28.0003 101.375 29.0547 101.413 30.3694V30.4399C101.413 31.7626 100.368 32.8415 99.0649 32.8794H98.9951H85.5622C84.2512 32.8794 83.1819 31.825 83.1443 30.5131V30.4399V11.4655C83.1443 10.1183 84.227 9.02595 85.5622 9.02595ZM146.279 8.75488C149.414 8.75488 152.307 9.89877 154.607 12.0076C155.633 12.932 155.714 14.6451 154.607 15.8025C153.707 16.8624 151.998 16.9437 150.846 15.8025C149.656 14.8104 148.057 14.1761 146.279 14.1761C142.62 14.1761 139.594 17.2093 139.562 20.9527C139.594 24.6961 142.62 27.7292 146.279 27.7292C147.942 27.7292 149.443 27.1763 150.733 26.1923L150.846 26.1029C151.961 25.0159 153.667 25.1135 154.607 26.1029C155.655 27.347 155.558 29.0602 154.338 30.1688C152.232 32.0364 149.374 33.1505 146.279 33.1505C139.635 33.1505 134.189 27.6886 134.189 20.9527C134.189 14.2168 139.635 8.75488 146.279 8.75488ZM116.726 8.75488C123.403 8.75488 128.816 14.2168 128.816 20.9527C128.816 27.6886 123.403 33.1505 116.726 33.1505C110.05 33.1505 104.637 27.6886 104.637 20.9527C104.637 14.2168 110.05 8.75488 116.726 8.75488ZM116.726 48.4032L113.64 55.9197H119.811L116.726 48.4032ZM98.9951 41.5534C100.33 41.5534 101.413 42.6458 101.413 43.993C101.413 45.3158 100.368 46.3946 99.0649 46.4325H98.9951H87.9801V50.4985H96.8458C98.181 50.4985 99.2637 51.5909 99.2637 52.938C99.2637 54.2608 98.2186 55.3396 96.9157 55.3776H96.8458H87.9801V60.5278H98.9951C100.306 60.5278 101.375 61.5822 101.413 62.8969V62.9673C101.413 64.2901 100.368 65.3689 99.0649 65.4069H98.9951H85.5622C84.2512 65.4069 83.1819 64.3525 83.1443 63.0405V62.9673V43.993C83.1443 42.6702 84.1894 41.5941 85.4897 41.5534H85.5622H98.9951ZM68.2339 41.5534C72.167 41.5534 75.3533 44.7682 75.3533 48.7366C75.3533 50.2111 74.9127 51.5827 74.1577 52.7239C75.7106 54.0413 76.6966 56.0146 76.6966 58.2238C76.6966 62.1514 73.5721 65.3418 69.6954 65.4069H69.5772H58.1592C56.824 65.4069 55.7413 64.3145 55.7413 62.9673C55.7413 61.6446 56.7864 60.5684 58.0867 60.5278H58.1592H69.5772C70.8372 60.5278 71.8607 59.495 71.8607 58.2238C71.8607 56.9742 70.8748 55.9577 69.647 55.9197H69.5772H58.1592C56.824 55.9197 55.7413 54.8273 55.7413 53.4802C55.7413 52.1574 56.7864 51.0813 58.0867 51.0406H58.1592H68.2339C69.4939 51.0406 70.5175 50.0079 70.5175 48.7366C70.5175 47.487 69.5315 46.4705 68.3037 46.4325H68.2339H58.1592C56.824 46.4325 55.7413 45.3402 55.7413 43.993C55.7413 42.6702 56.7864 41.5941 58.0867 41.5534H58.1592H68.2339ZM116.726 41.0113C118.072 41.0113 119.214 41.7594 119.743 43.0036L127.556 62.0322C128.066 63.2764 127.481 64.7048 126.248 65.2199C125.036 65.7268 123.65 65.1657 123.118 63.9676L123.088 63.8998L121.817 60.7988H111.638L110.365 63.9025C109.862 65.125 108.489 65.7159 107.272 65.2497L107.205 65.2226C105.994 64.7157 105.408 63.3306 105.87 62.1026L105.897 62.0349L113.709 43.0063C114.239 41.7594 115.38 41.0113 116.726 41.0113ZM149.503 42.0955C150.838 42.0955 151.92 43.1879 151.92 44.5351C151.92 45.8579 150.875 46.9367 149.572 46.9747H149.503H144.129V62.9673C144.129 64.4636 142.926 65.678 141.443 65.678C139.984 65.678 138.797 64.5043 138.756 63.0432V62.9673V46.9747H133.383C132.048 46.9747 130.965 45.8823 130.965 44.5351C130.965 43.2123 132.01 42.1362 133.311 42.0955H133.383H149.503ZM164.01 41.0113C167.314 41.0113 170.27 41.9465 172.33 43.7951C173.33 44.6896 173.418 46.232 172.534 47.2376C171.664 48.227 170.178 48.3327 169.179 47.4924L169.12 47.4409C168.026 46.4624 166.213 45.8877 164.01 45.8877C163.003 45.8877 161.944 46.1669 161.221 46.6385C160.555 47.0722 160.249 47.5873 160.249 48.3273V48.414C160.281 49.5769 160.998 50.0404 164.042 50.718L164.88 50.8996C167.057 51.3794 168.54 51.8538 169.894 52.6344C172.091 53.8976 173.413 55.8167 173.413 58.3566C173.413 63.1517 169.251 65.9463 164.01 65.9463C160.26 65.9463 157.025 64.3931 155.249 62.4523C154.344 61.4629 154.403 59.9206 155.383 59.0044C156.345 58.1072 157.836 58.1479 158.747 59.0857L158.801 59.1427C159.102 59.4706 159.711 59.9179 160.464 60.2811C161.503 60.7826 162.694 61.0699 164.01 61.0699C166.898 61.0699 168.577 59.9423 168.577 58.3593C168.577 57.2127 167.247 56.4185 163.774 55.6541L162.898 55.4643C160.797 54.9981 159.647 54.6213 158.473 53.903C156.512 52.6995 155.413 50.8156 155.413 48.33C155.413 45.8498 156.611 43.8358 158.599 42.5401C160.149 41.5317 162.116 41.0113 164.01 41.0113Z" fill="white"/>
    </g>
    <defs>
        <clipPath id="clip0_28_17789">
            <rect width="180" height="73.1868" fill="white" transform="translate(0.666687 0.623047)"/>
        </clipPath>
    </defs>
</svg>
