<svg width="180" height="66" viewBox="0 0 180 66" fill="none" xmlns="http://www.w3.org/2000/svg">
    <g clip-path="url(#clip0_28_17793)">
        <path d="M37.0045 48.124L41.1284 45.7464V29.1675L37.0045 26.8267V48.124Z" fill="white"/>
        <path d="M28.8638 62.1294L33.2353 59.4178V18.8148L28.8638 15.7539V62.1294Z" fill="white"/>
        <path d="M19.2436 65.9436L23.3674 62.9808V12.5088L19.2436 9.1875V65.9436Z" fill="white"/>
        <path d="M9.62024 55.8543L13.7441 58.9856V15.5913L9.62024 17.9628V55.8543Z" fill="white"/>
        <path d="M0 46.1353L4.12384 48.3475V23.6094L0 25.7848V46.1353Z" fill="white"/>
        <path d="M0 23.8423L4.12384 22.2215V10.4224L0 12.3618V23.8423Z" fill="white"/>
        <path d="M9.62024 15.6922L13.7441 13.5168V3.31396L9.62024 6.23082V15.6922Z" fill="white"/>
        <path d="M19.2436 7.33099L23.3674 10.3459V3.85957L19.2436 0.489258V7.33099Z" fill="white"/>
        <path d="M33.2353 9.41766L28.8638 6.60498V13.8328L33.2353 16.7956V9.41766Z" fill="white"/>
        <path d="M37.0045 24.7188L41.1284 26.6307V13.3669L37.0045 11.1211V24.7188Z" fill="white"/>
        <path d="M52.1212 60.1315C52.0295 60.5788 51.895 60.9373 51.7207 61.2008C51.4089 61.6696 50.9809 61.8871 50.3726 61.8871C49.697 61.8871 49.211 61.6726 48.8839 61.2284C48.5293 60.7473 48.352 60.0978 48.352 59.295C48.352 58.3054 48.5476 57.5762 48.9297 57.1288C49.3027 56.6938 49.7796 56.4854 50.391 56.4854C50.8892 56.4854 51.2683 56.5957 51.519 56.8133C51.7849 57.043 51.9561 57.3494 52.0478 57.7508L52.1304 58.1093H54.0196L53.9737 57.6099C53.9034 56.8439 53.558 56.1545 52.9466 55.5601C52.326 54.9596 51.4639 54.6562 50.3787 54.6562C49.107 54.6562 48.0891 55.1128 47.3584 56.0166C46.6981 56.8286 46.3619 57.8734 46.3619 59.1173C46.3619 60.7504 46.8143 61.9882 47.7039 62.7971C48.3917 63.4191 49.2446 63.7316 50.2442 63.7316C51.4028 63.7316 52.3413 63.3455 53.0352 62.5857C53.6069 61.9637 53.9462 61.1855 54.0471 60.2755L54.1021 59.7638H52.1946L52.1212 60.1315Z" fill="white"/>
        <path d="M63.7468 58.0635H60.696V54.8647H58.7212V63.5234H60.696V59.9049H63.7468V63.5234H65.7216V54.8647H63.7468V58.0635Z" fill="white"/>
        <path d="M73.4771 54.8647L70.2245 63.5234H72.2818L73.1164 61.204H75.5191L76.3017 63.5234H78.4294L75.296 54.8647H73.4771ZM73.7522 59.4331L74.33 57.849L74.8741 59.4331H73.7522Z" fill="white"/>
        <path d="M84.8979 54.8647H82.9231V63.5234H84.8979V54.8647Z" fill="white"/>
        <path d="M95.3833 59.957L92.2468 54.8647H90.2996V63.5234H92.2163V58.4158L95.4108 63.5234H97.3V54.8647H95.3833V59.957Z" fill="white"/>
        <path d="M107.354 60.1315C107.263 60.5788 107.128 60.9404 106.954 61.2008C106.642 61.6696 106.214 61.8871 105.606 61.8871C104.93 61.8871 104.444 61.6726 104.117 61.2284C103.762 60.7473 103.585 60.0978 103.585 59.295C103.585 58.3054 103.781 57.5762 104.163 57.1288C104.533 56.6938 105.013 56.4854 105.624 56.4854C106.119 56.4854 106.502 56.5957 106.752 56.8133C107.018 57.04 107.189 57.3494 107.284 57.7508L107.367 58.1093H109.253L109.207 57.6099C109.14 56.8439 108.794 56.1545 108.18 55.5601C107.559 54.9596 106.697 54.6562 105.612 54.6562C104.34 54.6562 103.322 55.1128 102.592 56.0166C101.931 56.8286 101.595 57.8703 101.595 59.1173C101.595 60.7504 102.048 61.9882 102.937 62.7971C103.625 63.4191 104.478 63.7316 105.477 63.7316C106.636 63.7316 107.575 63.3455 108.268 62.5857C108.84 61.9637 109.179 61.1855 109.28 60.2755L109.335 59.7638H107.431L107.354 60.1315Z" fill="white"/>
        <path d="M116.745 54.8647L113.493 63.5234H115.55L116.385 61.204H118.787L119.57 63.5234H121.698L118.564 54.8647H116.745ZM117.021 59.4331L117.598 57.849L118.142 59.4331H117.021Z" fill="white"/>
        <path d="M125.748 56.7062H128.35V63.5234H130.321V56.7062H132.923V54.8647H125.748V56.7062Z" fill="white"/>
        <path d="M142.983 60.1315C142.892 60.5788 142.757 60.9404 142.58 61.2008C142.268 61.6696 141.84 61.8871 141.232 61.8871C140.556 61.8871 140.07 61.6726 139.743 61.2284C139.388 60.7473 139.211 60.0978 139.211 59.295C139.211 58.3054 139.407 57.5762 139.789 57.1288C140.159 56.6938 140.639 56.4854 141.25 56.4854C141.745 56.4854 142.127 56.5957 142.378 56.8133C142.644 57.04 142.815 57.3494 142.91 57.7508L142.992 58.1093H144.879L144.833 57.6099C144.766 56.8439 144.42 56.1545 143.806 55.5601C143.185 54.9596 142.323 54.6562 141.238 54.6562C139.966 54.6562 138.948 55.1128 138.218 56.0166C137.557 56.8286 137.221 57.8703 137.221 59.1173C137.221 60.7504 137.673 61.9882 138.563 62.7971C139.251 63.4191 140.104 63.7316 141.103 63.7316C142.262 63.7316 143.2 63.3455 143.894 62.5857C144.466 61.9637 144.805 61.1855 144.906 60.2755L144.961 59.7638H143.057L142.983 60.1315Z" fill="white"/>
        <path d="M154.627 58.0635H151.576V54.8647H149.602V63.5234H151.576V59.9049H154.627V63.5234H156.602V54.8647H154.627V58.0635Z" fill="white"/>
        <path d="M163.615 60.0517H167.852V58.2378H163.615V56.807H168.197V54.938H161.677V63.5966H168.276V61.7552H163.615V60.0517Z" fill="white"/>
        <path d="M179.725 62.4693C179.725 62.4693 179.685 62.4386 179.648 62.2977C179.633 62.2364 179.603 62.0832 179.59 61.7431L179.554 60.7044C179.532 60.1529 179.419 59.7485 179.205 59.4697C179.141 59.387 179.068 59.3073 178.988 59.2338C179.126 59.102 179.245 58.958 179.346 58.8018C179.584 58.431 179.706 57.9653 179.706 57.4138C179.706 56.0687 178.982 55.4498 178.371 55.1679C177.937 54.9688 177.392 54.8677 176.75 54.8677H172.779V63.5263H174.742V60.205H176.598C177.062 60.205 177.252 60.2724 177.304 60.2969C177.377 60.3337 177.576 60.4348 177.6 60.925L177.664 62.215C177.68 62.5551 177.698 62.7634 177.726 62.8951C177.756 63.0453 177.796 63.1709 177.854 63.2781L177.982 63.5233H180V62.5888L179.725 62.4693ZM177.726 57.5118C177.726 57.8642 177.649 58.097 177.502 58.2012C177.304 58.3422 177.013 58.4126 176.634 58.4126H174.742V56.6876H176.769C177.038 56.6876 177.255 56.7244 177.392 56.7949C177.548 56.8715 177.726 57.0277 177.726 57.5118Z" fill="white"/>
        <path d="M90.1192 43.4884C89.9235 43.2464 89.6301 43.1116 89.3183 43.1116C87.6889 43.0687 85.3534 43.0442 82.3667 43.038C82.3851 42.9553 82.3973 42.8726 82.3973 42.7868V36.1136C82.3973 35.7827 82.4309 35.749 82.758 35.749H88.23L88.4195 35.6264C89.0217 35.2373 89.3488 34.7685 89.3947 34.2415C89.4405 33.7237 89.2082 33.2274 88.6977 32.7524L87.7103 31.8731C86.7474 31.052 85.7049 31.0795 84.9315 31.9374L84.2223 32.7096H82.758C82.4309 32.7096 82.3973 32.6758 82.3973 32.3449V29.7069C82.3973 29.376 82.4309 29.3423 82.758 29.3423H86.6159C87.2487 29.3423 87.7348 29.1769 88.0588 28.8521C88.4104 28.4997 88.551 28.0187 88.4562 27.4978L88.4104 27.2466L88.2239 27.0719C87.4749 26.3703 86.8544 25.8494 86.3286 25.4756C85.3564 24.6943 84.3201 24.7097 83.5559 25.5185L82.8222 26.2845C82.4004 26.2355 82.4004 26.0762 82.4004 25.9352V24.0877C82.4004 23.7139 82.5349 23.5086 82.8803 23.3554L83.1249 23.2482L83.2472 23.0092C83.5406 22.4454 83.4031 22.0073 83.2961 21.7928C82.972 21.1555 82.1955 20.9655 81.6545 20.8828L80.3858 20.6592C80.0862 20.604 79.7958 20.6806 79.5666 20.8706C79.1355 21.2321 79.0744 21.8694 79.0713 22.4485L78.9216 25.9015V25.9352C78.9216 26.2661 78.8879 26.2998 78.5608 26.2998H77.1363C77.1179 26.2998 77.0996 26.2998 77.0843 26.2998C77.0935 26.2386 77.1088 26.1497 77.1485 26.0302C77.8241 24.0387 78.3988 22.1421 78.8451 20.4202C78.9491 20.0709 79.1141 19.9514 79.4993 19.9514H87.2181C87.8265 19.9514 88.2972 19.7859 88.6213 19.4612C88.9576 19.1241 89.1104 18.6768 89.0645 18.1743L89.0401 17.8924L88.8353 17.6933C88.0863 16.9641 87.4505 16.4279 86.891 16.0479C85.9434 15.2666 84.8612 15.3432 83.9136 16.2624L83.8555 16.3268C83.5253 16.7281 83.131 16.915 82.6082 16.915H79.9854C79.9334 16.915 79.8906 16.912 79.8631 16.9089C79.8631 16.8599 79.8723 16.7864 79.8967 16.6852C80.0282 16.2226 80.178 15.6006 80.3461 14.8285C80.6732 14.6784 81.0461 14.4149 81.1501 13.9461C81.2204 13.6336 81.1806 13.1556 80.5815 12.6409L79.6827 11.9086L79.5452 11.8657C78.9888 11.6849 78.4997 11.7125 78.0901 11.9423C77.6774 12.1752 77.3961 12.5888 77.2586 13.1617L76.5127 16.1245C76.2926 16.9212 75.941 16.9212 75.7515 16.9212H71.1355L71.2058 17.7515C71.3586 19.5898 72.6364 19.8319 73.1622 19.8472L75.2991 19.9606H75.3388C75.3785 19.9606 75.4091 19.9636 75.4366 19.9636C75.4305 20.0157 75.4183 20.0923 75.3877 20.1996C74.92 21.9307 74.333 23.8579 73.6391 25.923L73.6299 25.9567C73.6116 26.021 73.5994 26.067 73.4557 26.1068L73.3609 26.1405C72.8688 26.3458 72.5356 26.6277 72.3613 26.98C72.3307 26.8483 72.2788 26.7196 72.1962 26.6001L71.2058 25.6013L71.1752 25.5737C69.4083 23.9958 68.3536 24.6269 67.892 25.1325L67.4793 25.5676H66.1801C66.3544 25.3286 66.4614 25.0712 66.4889 24.7954C66.547 24.2715 66.333 23.7568 65.8592 23.2604L65.1897 22.6691C64.2359 21.8939 63.2057 21.9215 62.4323 22.7365L61.9462 23.2482H58.229C58.232 23.242 58.2351 23.2359 58.2351 23.2298C58.6722 22.424 59.1124 21.4098 59.5374 20.2302C59.7666 19.6358 60.0876 19.5531 60.3994 19.5531H65.6452C66.2535 19.5531 66.7243 19.3907 67.0483 19.0659C67.2623 18.8514 67.3999 18.5941 67.4641 18.3061C67.5252 18.4501 67.5894 18.5941 67.6505 18.7442C68.1916 19.9728 68.479 21.1402 68.5034 22.2156L68.5065 22.4117L68.6502 22.5435C69.0323 22.8958 69.4358 23.0735 69.8515 23.0735C70.093 23.0735 70.3284 22.9969 70.5271 22.8621C71.1477 22.5036 71.4595 21.8541 71.4595 20.938C71.4595 20.7204 71.4473 20.4906 71.4198 20.2425C71.1294 18.159 69.6314 16.1521 66.9627 14.2739L66.7396 14.1177L66.495 14.2402C66.2015 14.3873 66.0151 14.5895 65.9356 14.8408C65.8836 15.0093 65.8561 15.2789 66.0365 15.6159L66.0609 15.6588C66.2871 15.9897 66.5164 16.3758 66.7487 16.8078C66.2749 16.3727 65.8897 16.0541 65.584 15.8457C64.6608 15.0889 63.6551 15.1196 62.8847 15.9315L62.3222 16.5198H60.9252C60.913 16.5198 60.9008 16.5198 60.8916 16.5198C60.9008 16.4463 60.9252 16.3298 60.9802 16.1583L61.13 15.6711C61.2859 15.1655 61.61 14.8285 62.1449 14.614L62.414 14.5068L62.5423 14.2464C62.7686 13.796 62.7074 13.4436 62.6188 13.2261C62.5332 13.0147 62.3375 12.7359 61.8973 12.5827L60.0754 11.8749L60.0081 11.8534C59.4334 11.6911 58.9413 11.7278 58.5377 11.9637C58.2748 12.12 57.9263 12.4417 57.7735 13.1188C57.48 14.6385 56.8809 16.8752 55.9943 19.7675C55.1109 22.6476 54.2549 24.964 53.4509 26.6522L53.188 27.2037L53.668 27.5836C54.6218 28.3373 55.4533 28.0064 55.921 27.4427L56.2664 27.0536L56.3061 26.9831C56.8564 26.0057 57.263 26.0884 57.3853 26.1129L58.1434 26.2814H58.229C58.5561 26.2814 58.5897 26.3151 58.5897 26.643V29.6119C58.5897 29.9398 58.5561 29.9735 58.229 29.9735H53.4265L53.4968 30.8038C53.6496 32.636 54.8999 32.8781 55.4257 32.8965L58.1984 33.0098H58.229C58.5561 33.0098 58.5897 33.0435 58.5897 33.3714V42.5417C58.5897 42.5723 58.5866 42.5907 58.5836 42.603C57.7765 43.3904 57.7123 44.3647 58.4155 45.2318L58.7425 45.6699L58.8129 45.7527C59.2592 46.2 59.6902 46.3072 60.0112 46.3072C60.054 46.3072 60.0968 46.3042 60.1365 46.3011C60.6409 46.2551 61.0995 45.9426 61.4999 45.3727C63.0223 43.5466 64.8014 41.2701 66.7885 38.6015L67.1859 38.0714L66.7182 37.6026C66.2566 37.14 65.477 36.8979 64.67 37.5996C63.7957 38.3472 62.9489 39.0948 62.1449 39.827V33.3714C62.1449 33.0435 62.1786 33.0098 62.5057 33.0098H66.0731L66.2657 32.8811C66.8404 32.4981 67.1553 32.0355 67.2042 31.5146C67.2501 30.9907 67.0208 30.4821 66.5195 29.998L65.8072 29.3209L65.7613 29.281C64.8014 28.5028 63.7865 28.5242 62.9673 29.3454L62.3895 29.952C62.148 29.9061 62.148 29.7896 62.148 29.6119V26.643C62.148 26.3151 62.1816 26.2814 62.5087 26.2814H64.1931L64.1962 26.3519C64.2328 27.651 64.9176 28.4415 66.0701 28.515L67.0483 28.5886L67.1064 28.5916C67.4488 28.5916 67.4702 28.6376 67.4702 28.9501V39.2081C67.4702 39.9557 67.1828 40.1763 67.0911 40.2499L67.1003 40.2621C66.7885 40.4858 66.2994 40.927 65.4128 41.7267C64.7556 42.3548 64.2267 42.8327 63.8416 43.1453C63.5634 43.3689 62.7441 44.2054 63.7743 45.575L64.3398 46.3624L64.3735 46.4083C64.5997 46.678 64.9512 46.8955 65.3762 46.8955C65.691 46.8955 66.0456 46.776 66.4186 46.4757L66.5684 46.3532L66.6417 46.1724C66.9138 45.5198 67.4335 44.714 68.1916 43.7672L69.0537 42.6704C69.127 42.7163 69.2432 42.799 69.4022 42.9492C70.5485 44.0338 71.9578 44.9193 73.5963 45.575C75.2379 46.2337 77.497 46.5646 80.3186 46.5646H87.2059C88.1199 46.5646 88.8964 46.1694 89.4742 45.4187L90.2262 45.2195L90.324 44.76C90.3515 44.5455 90.4799 43.9358 90.1192 43.4884ZM72.2299 27.7154C72.2604 27.9789 72.3735 28.2944 72.6487 28.6468L73.1745 29.2872L73.2509 29.3668C74.0793 30.1236 75.0545 30.1665 75.9288 29.4741L76.0939 29.3423H78.5975C78.8635 29.3423 78.9185 29.3423 78.9185 29.7069V32.3449C78.9185 32.6758 78.8849 32.7096 78.5578 32.7096H71.5818L71.649 33.5399C71.8019 35.3966 73.095 35.5988 73.6208 35.5988L78.5517 35.749C78.8787 35.749 78.9124 35.7827 78.9124 36.1136V42.3333C78.9124 42.5938 78.9552 42.8144 79.0163 42.9982C77.2463 42.9185 75.7912 42.7071 74.6938 42.3609C73.5871 42.0024 72.5661 41.3743 71.6582 40.498C71.4534 40.2682 71.2883 40.0936 71.1569 39.9619C71.0927 39.9006 71.0835 39.8546 71.0835 39.7841L70.9337 28.7142C70.9337 28.6162 70.9337 28.5794 71.0499 28.5304C71.487 28.3649 71.9822 28.1229 72.2299 27.7154Z" fill="white"/>
        <path d="M127.301 47.2112L127.402 47.1928L128.771 46.5279L128.863 46.436C129.441 45.8569 129.725 44.9531 129.725 43.6785V26.2601C129.725 26.1896 129.725 26.1712 129.814 26.1253C130.254 25.9261 130.841 25.5983 130.966 25.01C130.997 24.866 130.997 24.7189 130.966 24.581C131 24.1061 130.444 23.6956 128.866 22.5374C127.931 21.7867 127.163 22.1667 126.879 22.3658L126.778 22.4363L126.705 22.5343C126.402 22.9418 126.023 23.1287 125.516 23.1287H121.355C121.028 23.1287 120.994 23.095 120.994 22.7672V21.1893C120.994 20.8614 121.028 20.8277 121.355 20.8277H130.425C131.067 20.8277 131.526 20.6807 131.828 20.3773C132.061 20.1414 132.33 19.7247 132.275 19.0599L132.25 18.7718L132.042 18.5727C131.293 17.8496 130.658 17.3134 130.095 16.9335C129.15 16.1553 128.129 16.1706 127.353 16.9886L126.604 17.7945H121.315C121.043 17.7945 120.991 17.7945 120.991 17.4329V15.1411C120.991 14.8408 121.089 14.6876 121.367 14.562L121.621 14.4456L121.74 14.1944C121.774 14.1208 121.802 14.0534 121.823 13.986C121.857 14.1024 121.954 14.2035 122.119 14.2801C122.624 14.4854 123.315 14.8562 124.195 15.3954C125.076 15.9071 125.717 16.4096 126.118 16.8967C126.797 17.0254 127.249 16.9856 127.475 16.7803C127.701 16.575 127.815 16.333 127.815 16.048C127.815 15.7661 127.689 15.4444 127.439 15.086C126.607 13.8818 124.849 13.2782 122.156 13.2782C122.034 13.4039 121.945 13.5203 121.887 13.6245C121.899 13.3426 121.814 13.122 121.743 12.9933C121.404 12.3683 120.618 12.1997 120.084 12.1323L118.925 11.9454C118.619 11.8933 118.317 11.9761 118.084 12.1722C117.647 12.5429 117.589 13.1986 117.586 13.7348L117.436 17.3992V17.4299C117.436 17.7577 117.403 17.7914 117.075 17.7914H107.81L107.88 18.6217C108.033 20.4754 109.329 20.6745 109.861 20.6745L117.072 20.8247C117.4 20.8247 117.433 20.8584 117.433 21.1862V22.7641C117.433 23.1257 117.378 23.1257 117.109 23.1257H111.781L110.968 22.7182C110.396 22.4332 109.904 22.4149 109.5 22.663C109.094 22.9143 108.886 23.38 108.886 24.0357L108.852 28.7572L108.825 28.6714C108.553 27.8074 107.834 27.4029 106.991 27.6358L105.273 28.224C104.903 28.365 104.673 28.4109 104.548 28.4232V23.5516C104.548 23.187 104.603 23.187 104.872 23.187H108.03L108.223 23.0583C108.797 22.6722 109.118 22.2126 109.17 21.6887C109.222 21.1709 109.005 20.6654 108.528 20.1843L107.712 19.4428L107.678 19.4153C106.715 18.634 105.679 18.6799 104.918 19.5194L104.548 19.9086V15.1901C104.548 14.7949 104.692 14.5804 105.059 14.4241L105.309 14.3169L105.438 14.0749C105.734 13.508 105.594 13.0668 105.483 12.8554C105.153 12.2212 104.371 12.0527 103.833 11.9853L102.46 11.7616C102.161 11.7064 101.87 11.783 101.641 11.9761C101.295 12.2641 101.146 12.7421 101.149 13.554L100.999 19.8289C100.999 20.0985 100.999 20.1567 100.638 20.1567H95.4933L95.5606 20.9871C95.7134 22.8254 96.9912 23.0644 97.5323 23.0828L100.635 23.1962C100.962 23.1962 100.996 23.2299 100.996 23.5608V29.2872C100.996 29.4374 100.996 29.8908 99.9106 30.3044C98.0337 31.0245 96.7131 31.4994 96.0008 31.7139C95.6125 31.8211 95.316 32.0662 95.1632 32.4032C94.9675 32.8322 95.0225 33.353 95.3252 33.9811L95.5881 34.5449L95.6064 34.5847C95.9549 35.2343 96.4104 35.4304 96.7314 35.4825C97.2052 35.5591 97.6882 35.3752 98.1743 34.9432C99.1433 34.4898 100.06 34.0486 100.916 33.6196C100.944 33.6043 100.968 33.592 100.993 33.5798V43.4058C100.767 43.4088 100.238 43.3843 98.8071 43.2556C97.0921 43.1392 97.0707 43.1392 97.031 43.1392H96.3921L96.279 43.7673C96.172 44.3617 96.3401 44.7631 96.4991 44.9929C96.7375 45.333 97.1105 45.5505 97.5965 45.6363C98.4219 45.7987 98.9171 45.9795 99.2106 46.1265C99.7394 47.0028 100.504 47.4624 101.412 47.4624C101.595 47.4624 101.785 47.444 101.977 47.4073L102.072 47.3889L103.555 46.6872L103.649 46.5922C104.255 45.9856 104.548 45.0572 104.548 43.752V32.3726C104.548 31.9007 104.719 31.6066 105.123 31.3891L108.849 29.37L108.736 45.4463C108.736 46.1112 109.014 46.5157 109.247 46.7363C109.659 47.1284 110.258 47.3031 111.075 47.2602L111.237 47.251L111.38 47.1775C112.163 46.7853 112.328 46.2828 112.328 45.9304V38.574C112.328 38.2461 112.362 38.2124 112.689 38.2124H117.075C117.436 38.2124 117.436 38.2676 117.436 38.5341V45.2533C117.436 45.9274 117.717 46.3318 117.956 46.5524C118.369 46.9354 118.956 47.0917 119.756 47.0304L119.928 47.0181L120.077 46.9323C120.829 46.5034 120.988 45.9856 120.988 45.6302V38.574C120.988 38.2461 121.022 38.2124 121.349 38.2124H125.773C126.1 38.2124 126.133 38.2461 126.133 38.574V43.2526C125.809 43.2495 125.167 43.2127 124.238 43.1453L123.764 43.0963C123.186 43.0381 122.841 43.0044 122.725 42.9952L122.664 43.7581L122.691 42.9921L121.988 42.9891L121.875 43.6172C121.701 44.5762 122.199 45.3054 123.199 45.5199C123.896 45.6516 124.314 45.814 124.559 45.9488C125.048 46.8129 125.8 47.2663 126.72 47.2663C126.907 47.2694 127.099 47.251 127.301 47.2112ZM126.097 26.4776V28.846C126.097 29.2259 126.029 29.2259 125.751 29.2259H121.383C121.101 29.2259 121.037 29.2259 121.037 28.846V26.4776C121.037 26.0977 121.105 26.0977 121.383 26.0977H125.751C126.029 26.0946 126.097 26.0946 126.097 26.4776ZM121.034 32.6545C121.034 32.3389 121.059 32.3113 121.38 32.3113H125.748C126.069 32.3113 126.094 32.3358 126.094 32.6545V34.9065C126.094 35.222 126.069 35.2496 125.748 35.2496H121.38C121.059 35.2496 121.034 35.2251 121.034 34.9065V32.6545ZM117.375 28.846C117.375 29.2137 117.32 29.2259 117.024 29.2259H112.667C112.371 29.2259 112.316 29.2137 112.316 28.846V26.4776C112.316 26.1099 112.371 26.0977 112.667 26.0977H117.024C117.32 26.0977 117.375 26.1099 117.375 26.4776V28.846ZM112.313 34.9065V32.6545C112.313 32.3511 112.331 32.3113 112.664 32.3113H117.02C117.354 32.3113 117.372 32.3511 117.372 32.6545V34.9065C117.372 35.2098 117.354 35.2496 117.02 35.2496H112.664C112.334 35.2465 112.313 35.2098 112.313 34.9065Z" fill="white"/>
        <path d="M170.881 30.6995C169.9 29.9029 168.854 29.9366 168.099 30.773L167.2 31.7075H157.1C156.773 31.7075 156.74 31.6738 156.74 31.3429V26.5142C156.74 26.1833 156.773 26.1496 157.1 26.1496H168.876C169.484 26.1496 169.958 25.9841 170.279 25.6593C170.618 25.3193 170.771 24.8842 170.722 24.4031L170.695 24.1182L170.487 23.9221C169.704 23.1837 169.016 22.5985 168.448 22.1818C167.5 21.3882 166.473 21.4005 165.69 22.2247L164.828 23.15H157.097C156.77 23.15 156.737 23.1163 156.737 22.7854V17.8831C156.737 17.5461 156.813 17.4143 157.244 17.3592C160.16 16.9394 163.254 16.345 166.442 15.5944C166.892 15.7721 167.283 15.8579 167.635 15.8579H167.76L167.879 15.818C168.53 15.6005 168.76 15.2175 168.836 14.9356C168.912 14.6568 168.909 14.2217 168.46 13.707L167.561 12.7265L167.515 12.6806C166.555 11.8012 165.651 11.8656 165.085 12.0617C162.652 12.8276 158.913 13.658 153.97 14.5281C149.042 15.3983 144.224 15.9927 139.654 16.2899L138.966 16.3358L138.939 17.0252C138.917 17.5951 139.061 18.0424 139.367 18.3611C139.559 18.5633 139.911 18.8023 140.492 18.8023C144.429 18.8023 148.587 18.5204 152.848 17.9658C153.022 17.9444 153.123 17.9566 153.163 17.9689C153.172 17.9965 153.19 18.0608 153.19 18.1864V22.7854C153.19 23.1163 153.157 23.15 152.83 23.15H139.135L139.205 23.9803C139.315 25.2641 140.042 25.9994 141.195 25.9994L152.83 26.1496C153.157 26.1496 153.19 26.1833 153.19 26.5142V31.3399C153.19 31.6708 153.157 31.7045 152.83 31.7045H136.475L136.545 32.5348C136.701 34.3946 137.97 34.5937 138.499 34.5937L152.83 34.7439C153.157 34.7439 153.19 34.7776 153.19 35.1085V43.4423C153.19 43.4577 153.19 43.4699 153.19 43.4822C153.099 43.4944 152.958 43.5036 152.756 43.5036C152.426 43.5036 151.17 43.4332 147.043 43.09L146.358 43.0318L146.23 43.7089C146.117 44.2972 146.288 44.6894 146.447 44.913C146.685 45.2439 147.055 45.4462 147.526 45.5105C149.421 45.8383 150.277 46.1294 150.65 46.3071C150.739 46.35 150.815 46.4082 150.885 46.4787C151.115 46.8923 151.628 47.45 152.717 47.45C152.787 47.45 152.857 47.4469 152.934 47.4438C154.101 47.4377 155.031 47.0853 155.697 46.3898C156.391 45.7158 156.746 44.7721 156.746 43.5863V35.1024C156.746 34.7377 156.801 34.7377 157.07 34.7377H171.581L171.771 34.6152C172.373 34.223 172.706 33.7573 172.758 33.2272C172.807 32.7278 172.602 32.2468 172.147 31.7933C171.893 31.5084 171.48 31.1438 170.881 30.6995Z" fill="white"/>
    </g>
    <defs>
        <clipPath id="clip0_28_17793">
            <rect width="180" height="65.4545" fill="white" transform="translate(0 0.489258)"/>
        </clipPath>
    </defs>
</svg>
