<svg width="181" height="56" viewBox="0 0 181 56" fill="none" xmlns="http://www.w3.org/2000/svg">
    <g clip-path="url(#clip0_28_17820)">
        <path d="M27.7772 55.7676C42.9341 55.7676 55.2211 43.4326 55.2211 28.2165C55.2211 13.0005 42.9341 0.665527 27.7772 0.665527C12.6203 0.665527 0.333252 13.0005 0.333252 28.2165C0.333252 43.4326 12.6203 55.7676 27.7772 55.7676Z" fill="#8A8A8A"/>
        <path d="M55.2211 28.0828L41.5274 14.3438H29.3593L35.4454 20.4495L53.292 38.3658C54.5676 35.1353 55.2222 31.6915 55.2211 28.2165C55.2211 28.1719 55.2211 28.1274 55.2211 28.0828Z" fill="white"/>
        <path d="M41.5274 26.5594V14.3438L35.4453 20.4495L41.5274 26.5594Z" fill="url(#paint0_linear_28_17820)"/>
        <path d="M29.3593 14.3438L18.8983 24.8537L24.9763 30.9594L35.4454 20.4495L41.5275 14.3438H29.3593Z" fill="white"/>
        <path d="M14.2247 23.561L20.3068 29.6709L35.5584 44.9779L41.6404 38.8681L26.3929 23.561H14.2247Z" fill="white"/>
        <path d="M26.3929 35.7767V23.561L20.3068 29.6709L26.3929 35.7767Z" fill="url(#paint1_linear_28_17820)"/>
        <path d="M26.3929 23.561H14.2248L1.54407 36.3196C2.43914 39.2278 3.80986 41.9662 5.60012 44.4228L20.3068 29.6709L26.3929 23.561Z" fill="white"/>
        <path d="M169.356 25.3806H168.472V18.2781C168.472 15.9687 167.651 14.5358 166.01 13.9793C165.585 13.8267 165.137 13.7513 164.686 13.7565C163.997 13.7331 163.313 13.8775 162.692 14.1773C162.07 14.4772 161.531 14.9236 161.118 15.4784C160.941 15.7233 160.783 15.9821 160.646 16.2523V8.06396H155.505V8.7892H157.119V23.9423C157.119 24.8134 156.715 25.2833 155.876 25.3563C155.742 25.3767 155.607 25.3861 155.472 25.3846V26.1058H161.97C161.971 25.9193 161.9 25.7396 161.773 25.6044C161.645 25.4692 161.47 25.389 161.284 25.3806H160.646V18.7238C160.646 17.1031 161.147 16.0132 162.14 15.4825C162.418 15.3233 162.731 15.2369 163.052 15.2313C164.179 15.2313 164.806 15.9255 164.932 17.3138C164.953 17.4791 164.962 17.6456 164.961 17.8122V23.9423C164.961 24.6837 164.852 25.1172 164.63 25.2469C164.394 25.349 164.139 25.3961 163.883 25.3846V26.1058H170.074C170.075 26.0108 170.056 25.9166 170.021 25.8286C169.985 25.7406 169.932 25.6606 169.865 25.5932C169.798 25.5259 169.719 25.4724 169.632 25.4359C169.544 25.3994 169.45 25.3806 169.356 25.3806Z" fill="white"/>
        <path d="M179.587 23.0831C179.219 24.5782 178.675 25.4047 177.972 25.5506C177.863 25.5699 177.752 25.5794 177.641 25.5789C176.958 25.5789 176.542 25.0981 176.394 24.1366C176.358 23.9074 176.341 23.6757 176.342 23.4437V15.0326H179.974V14.3114H176.342V11.0903L172.831 11.6738V14.3114H170.922V15.0326H172.831V21.973C172.831 24.6552 173.936 26.1259 176.148 26.3852C176.37 26.3852 176.588 26.4136 176.81 26.4136C178.231 26.4136 179.207 25.9503 179.74 25.0239C180.03 24.4477 180.231 23.83 180.333 23.1925L179.587 23.0831Z" fill="white"/>
        <path d="M155.392 13.9589C155.397 13.644 155.304 13.3354 155.126 13.076C154.948 12.8167 154.694 12.6197 154.399 12.5125C154.093 12.3805 153.763 12.3143 153.43 12.318C152.475 12.318 151.728 12.8731 151.19 13.9832C151.101 14.1858 151.017 14.3884 150.944 14.591C149.954 14.0167 148.822 13.7357 147.679 13.7807C145.544 13.7807 143.974 14.4654 142.981 15.8348C142.434 16.5719 142.142 17.4683 142.15 18.3873C142.15 19.719 142.796 20.8845 144.087 21.8839C144.319 22.0595 144.563 22.2179 144.818 22.3579C144.334 22.3197 143.852 22.4401 143.443 22.7009C143.034 22.9618 142.72 23.3491 142.549 23.8044C142.406 24.1569 142.33 24.5337 142.327 24.9145C142.326 25.3293 142.417 25.7391 142.594 26.1136C142.772 26.4882 143.031 26.8178 143.352 27.0781C142.92 27.5387 142.665 28.1392 142.634 28.7717C142.634 29.7711 143.288 30.5206 144.596 31.0203C145.627 31.3765 146.714 31.5453 147.804 31.5187C150.828 31.5187 152.782 30.8069 153.664 29.3834C153.928 28.9685 154.068 28.4862 154.068 27.9937C154.068 26.1273 153.053 25.0631 151.025 24.8011C150.777 24.7647 150.528 24.7471 150.278 24.7484L144.555 24.6349C144.36 24.6512 144.166 24.5956 144.008 24.4786C143.851 24.3616 143.741 24.191 143.7 23.9988C143.681 23.9455 143.671 23.8893 143.671 23.8327C143.665 23.7386 143.679 23.6443 143.711 23.5556C143.743 23.467 143.793 23.386 143.858 23.3178C143.923 23.2497 144.001 23.1957 144.088 23.1595C144.174 23.1233 144.268 23.1056 144.361 23.1075C144.434 23.0916 144.509 23.0835 144.583 23.0832L147.542 23.1075C149.56 23.1075 151.101 22.4147 152.131 21.029C152.712 20.2418 153.024 19.2864 153.018 18.3063C153.023 17.6732 152.89 17.0466 152.627 16.4711C152.364 15.8956 151.978 15.3851 151.497 14.9759C151.565 14.7727 151.686 14.5919 151.849 14.4532C152.012 14.3144 152.209 14.223 152.42 14.1888C152.631 14.1546 152.847 14.1789 153.045 14.2591C153.243 14.3392 153.415 14.4722 153.543 14.6437C153.665 14.7457 153.801 14.8303 153.947 14.8949C154.074 14.9526 154.211 14.9843 154.35 14.988C154.461 14.9866 154.57 14.9661 154.673 14.9273C154.764 14.8962 154.851 14.854 154.931 14.8017L155.008 14.7368C155.124 14.6429 155.219 14.5246 155.285 14.3903C155.351 14.2559 155.388 14.1088 155.392 13.9589ZM144.01 27.4954C144.38 27.6428 144.775 27.7184 145.173 27.7182L150.758 27.7709C151.828 27.7709 152.453 27.937 152.639 28.2733C152.716 28.4177 152.753 28.5798 152.748 28.7433C152.748 29.6157 151.891 30.2167 150.177 30.5463C149.394 30.7016 148.598 30.7762 147.8 30.7691C145.551 30.7691 144.196 30.2694 143.736 29.27C143.647 29.0799 143.6 28.8725 143.599 28.6623C143.611 28.2397 143.755 27.8317 144.01 27.4954ZM149.378 20.6563C149.378 20.8845 149.333 21.1104 149.246 21.3211C149.158 21.5318 149.03 21.7231 148.869 21.8839C148.708 22.0447 148.516 22.1719 148.306 22.2581C148.095 22.3443 147.87 22.3879 147.643 22.3863H147.372C146.915 22.3863 146.477 22.204 146.154 21.8796C145.83 21.5551 145.649 21.1151 145.649 20.6563V16.1995C145.649 15.7406 145.83 15.3006 146.154 14.9761C146.477 14.6517 146.915 14.4694 147.372 14.4694H147.643C148.1 14.4694 148.538 14.6517 148.861 14.9761C149.184 15.3006 149.366 15.7406 149.366 16.1995L149.378 20.6563Z" fill="white"/>
        <path d="M77.37 25.3562H74.109V17.9458H79.4364V17.1355H74.109V10.2032H77.2328C78.8929 10.2032 79.9893 11.0729 80.522 12.8124C80.5305 12.8193 80.5374 12.8279 80.5423 12.8377C80.5471 12.8475 80.5499 12.8582 80.5503 12.8691L81.1597 14.9233H81.9669L81.8579 9.45361H68.027V10.2032H70.2386V25.3562H68.027V26.1058H77.37V25.3562Z" fill="white"/>
        <path d="M104.164 25.3806H102.17V19.3883C102.3 17.4489 102.77 16.2659 103.583 15.8391C103.712 15.7824 104.156 15.5717 104.604 16.3942C104.82 16.8769 105.197 17.2693 105.67 17.5043C105.868 17.5594 106.073 17.5867 106.279 17.5853C106.619 17.5991 106.955 17.5047 107.238 17.3155C107.522 17.1263 107.738 16.8521 107.857 16.5319C107.966 16.297 108.022 16.0413 108.022 15.7824C108.051 15.3764 107.93 14.974 107.682 14.652C107.434 14.3299 107.077 14.1107 106.679 14.0361C106.452 13.9823 106.221 13.9551 105.988 13.9551C105.419 13.9568 104.857 14.0785 104.337 14.3123C103.818 14.5461 103.353 14.8868 102.974 15.3124C102.598 15.7393 102.298 16.2288 102.09 16.7588L101.896 14.1779H97.053V14.8991H98.6673V23.9423C98.6673 24.7526 98.3445 25.2186 97.7028 25.332C97.4923 25.3699 97.2788 25.3875 97.0651 25.3847V26.1059H104.891C104.891 26.0101 104.873 25.9153 104.836 25.8268C104.8 25.7383 104.746 25.6579 104.679 25.5904C104.611 25.5229 104.531 25.4696 104.443 25.4336C104.354 25.3976 104.26 25.3796 104.164 25.3806Z" fill="white"/>
        <path d="M120.364 23.2491L119.702 23.0262C119.477 23.5562 119.146 24.0342 118.729 24.4307C118.313 24.8272 117.82 25.1338 117.281 25.3316C116.847 25.4952 116.388 25.5789 115.925 25.5788C114.453 25.5788 113.503 24.6334 113.075 22.7426C112.895 21.8286 112.803 20.8991 112.801 19.9673L115.344 20.0524C118.303 20.1469 120.027 19.6742 120.514 18.6343C120.628 18.3629 120.685 18.0702 120.679 17.7753C120.679 16.2033 119.872 15.0567 118.257 14.3355C117.286 13.9327 116.242 13.7342 115.19 13.7521C113.108 13.7521 111.485 14.4638 110.323 15.8873C109.415 17.0694 108.945 18.5321 108.995 20.024C108.995 22.7062 110 24.5753 112.01 25.6314C113.021 26.1424 114.14 26.3996 115.271 26.381C117.423 26.381 118.972 25.622 119.916 24.104C120.099 23.838 120.249 23.551 120.364 23.2491ZM115.194 14.4773C116.373 14.5138 116.974 15.5226 116.99 17.5039C116.99 18.3709 116.732 18.9098 116.215 19.1245C115.675 19.2704 115.113 19.3171 114.557 19.2623L112.789 19.1813C112.918 16.102 113.72 14.5341 115.194 14.4773Z" fill="white"/>
        <path d="M128.383 18.7805C128.006 18.625 127.637 18.4491 127.278 18.2538C126.172 17.7 125.619 17.0248 125.619 16.2279C125.618 16.0399 125.645 15.8527 125.7 15.6729C125.969 14.895 126.696 14.506 127.883 14.506C129.635 14.5222 130.548 15.3731 130.623 17.0585H131.499V13.5903C131.405 13.5898 131.311 13.6081 131.224 13.6441C131.136 13.6802 131.057 13.7333 130.99 13.8004C130.923 13.8675 130.87 13.9472 130.834 14.0349C130.798 14.1227 130.78 14.2167 130.781 14.3115V14.5344C129.974 14.0158 128.849 13.7565 127.407 13.7565C126.586 13.7449 125.768 13.8667 124.985 14.1171C123.271 14.6708 122.414 15.735 122.414 17.3097C122.401 18.033 122.657 18.7351 123.133 19.2788C123.577 19.7974 124.489 20.362 125.869 20.9724C126.295 21.1419 126.71 21.3367 127.112 21.5558C128.296 22.1825 128.887 22.9685 128.884 23.9139C128.882 24.0345 128.872 24.155 128.856 24.2745C128.67 25.1604 127.96 25.6047 126.725 25.6075C124.533 25.6075 123.419 24.4406 123.383 22.1676H122.443V26.3854C122.641 26.3854 122.831 26.3064 122.971 26.1658C123.111 26.0253 123.189 25.8346 123.189 25.6358V25.5224C124.464 26.1348 125.866 26.4308 127.278 26.3854C128.056 26.3944 128.83 26.2823 129.574 26.0531C131.231 25.4994 132.062 24.419 132.064 22.8118C132.079 21.984 131.782 21.181 131.233 20.5632C130.77 20.023 129.82 19.4287 128.383 18.7805Z" fill="white"/>
        <path d="M139.692 25.3806H138.723V14.1738H133.606V14.895H135.22V23.9423C135.22 24.7526 134.897 25.2185 134.252 25.332C134.041 25.37 133.828 25.3876 133.614 25.3847V26.1058H140.419C140.419 26.0101 140.401 25.9152 140.364 25.8267C140.328 25.7382 140.274 25.6579 140.207 25.5904C140.139 25.5229 140.059 25.4696 139.97 25.4335C139.882 25.3975 139.787 25.3795 139.692 25.3806Z" fill="white"/>
        <path d="M80.1104 32.1831H82.322V42.924L72.5754 31.4336H67.8857V32.1831H70.1014V47.3403H67.8857V48.0898H73.6126C73.6126 47.891 73.534 47.7004 73.394 47.5598C73.2539 47.4192 73.064 47.3403 72.866 47.3403H71.2517V35.7648L81.8983 48.2276H83.4723V32.1831H85.6839V31.4336H80.1104V32.1831Z" fill="#8A8A8A"/>
        <path d="M95.9229 36.3198C94.9508 35.9175 93.907 35.719 92.8556 35.7364C90.7731 35.7364 89.1507 36.4495 87.9884 37.8757C87.0839 39.0518 86.6145 40.5069 86.6606 41.9921C86.6606 44.677 87.6655 46.5461 89.6754 47.5996C90.6851 48.1129 91.8047 48.3702 92.9363 48.3491C95.0888 48.3491 96.6372 47.5901 97.5816 46.0721C97.7619 45.8038 97.9108 45.5156 98.0256 45.2132L97.3597 44.9903C97.1343 45.5203 96.8032 45.9982 96.3867 46.3947C95.9702 46.7912 95.4772 47.0979 94.9381 47.2957C94.5063 47.4609 94.0482 47.546 93.5861 47.5469C92.109 47.5469 91.1592 46.6015 90.7368 44.7108C90.5566 43.7966 90.4647 42.8672 90.4624 41.9354L93.005 42.0164C95.9646 42.111 97.6879 41.6396 98.1749 40.6024C98.2873 40.3288 98.3436 40.0353 98.3404 39.7394C98.3323 38.1809 97.5265 37.041 95.9229 36.3198ZM93.8767 41.0927C93.3369 41.2403 92.7749 41.2884 92.218 41.2345L90.4502 41.1494C90.5794 38.0782 91.3866 36.5143 92.8718 36.4576C94.0502 36.4954 94.6489 37.5043 94.6677 39.4842C94.6516 40.3715 94.3933 40.8901 93.8767 41.0927Z" fill="#8A8A8A"/>
        <path d="M125.671 40.7766C125.294 40.6211 124.924 40.4453 124.565 40.2499C123.46 39.6962 122.907 39.0209 122.907 38.2241C122.907 38.0359 122.936 37.8488 122.992 37.6691C123.266 36.8911 123.996 36.5022 125.175 36.5022C126.926 36.5211 127.839 37.3719 127.911 39.0547H128.795V35.5703C128.605 35.5703 128.422 35.6463 128.287 35.7815C128.152 35.9168 128.077 36.1002 128.077 36.2915V36.5143C127.27 35.9957 126.146 35.7364 124.707 35.7364C123.885 35.7245 123.068 35.8463 122.285 36.097C120.571 36.6507 119.713 37.715 119.71 39.2897C119.699 40.0134 119.956 40.7155 120.433 41.2588C120.873 41.7774 121.785 42.3446 123.169 42.9524C123.738 43.1955 124.154 43.3899 124.412 43.5358C125.591 44.1638 126.18 44.9539 126.18 45.8979C126.179 46.0185 126.171 46.1389 126.156 46.2585C125.97 47.1444 125.26 47.5874 124.025 47.5874C121.835 47.5712 120.719 46.4246 120.679 44.1476H119.755V48.3653C119.953 48.3653 120.143 48.2864 120.283 48.1458C120.423 48.0052 120.501 47.8146 120.501 47.6158V47.5064C121.778 48.1156 123.181 48.4101 124.594 48.3653C125.372 48.3764 126.147 48.2643 126.89 48.0331C128.55 47.4794 129.379 46.3989 129.376 44.7918C129.393 43.9643 129.098 43.1609 128.549 42.5432C128.069 41.9921 127.112 41.4087 125.671 40.7766Z" fill="#8A8A8A"/>
        <path d="M117.184 36.1538H114.698V36.875H116.409L113.838 44.9782L111.13 36.875H112.789V36.1538H107.425L108.366 38.9292L106.541 44.9539L103.857 36.875H105.516V36.1538H99.1315V36.875H100.29L103.518 46.1937C103.922 47.3039 104.293 47.94 104.681 48.1101C104.902 48.1894 105.136 48.2265 105.371 48.2195H106.283L108.854 40.1973L110.9 46.1937C111.271 47.2472 111.575 47.8576 111.812 48.0251C112.075 48.1687 112.373 48.236 112.672 48.2195H113.584L117.039 37.6853C117.09 37.472 117.205 37.2797 117.369 37.1347C117.533 36.9896 117.738 36.899 117.955 36.875C118.138 36.8657 118.311 36.7861 118.438 36.6528C118.565 36.5194 118.636 36.3423 118.637 36.1579H117.2L117.184 36.1538Z" fill="#8A8A8A"/>
        <path d="M136.911 12.561C138.041 12.561 138.957 11.6413 138.957 10.5068C138.957 9.37232 138.041 8.45264 136.911 8.45264C135.781 8.45264 134.865 9.37232 134.865 10.5068C134.865 11.6413 135.781 12.561 136.911 12.561Z" fill="white"/>
        <path d="M93.4893 15.0609C92.321 14.1763 90.888 13.7163 89.4252 13.7563C87.157 13.7563 85.4149 14.5329 84.1987 16.086C83.3502 17.1999 82.9021 18.5694 82.9274 19.9715C82.9274 22.0621 83.6471 23.7192 85.0866 24.9428C86.2319 25.9049 87.6859 26.4174 89.179 26.3852C91.3503 26.3852 93.0548 25.5978 94.2924 24.0231C95.2077 22.8544 95.695 21.4053 95.6727 19.9188C95.6727 17.8444 94.9449 16.2251 93.4893 15.0609ZM91.8749 23.3141C91.8749 23.9588 91.6198 24.5771 91.1657 25.033C90.7116 25.4889 90.0957 25.7451 89.4534 25.7451H89.1225C88.4802 25.7451 87.8643 25.4889 87.4102 25.033C86.9561 24.5771 86.701 23.9588 86.701 23.3141V16.9611C86.701 16.3164 86.9561 15.6981 87.4102 15.2422C87.8643 14.7863 88.4802 14.5302 89.1225 14.5302H89.4494C90.0916 14.5302 90.7075 14.7863 91.1617 15.2422C91.6158 15.6981 91.8709 16.3164 91.8709 16.9611L91.8749 23.3141Z" fill="white"/>
    </g>
    <defs>
        <linearGradient id="paint0_linear_28_17820" x1="35.4816" y1="20.4495" x2="41.4991" y2="20.4495" gradientUnits="userSpaceOnUse">
            <stop stop-color="#002FA7"/>
            <stop offset="1" stop-color="white"/>
        </linearGradient>
        <linearGradient id="paint1_linear_28_17820" x1="20.3592" y1="29.6709" x2="26.3364" y2="29.6709" gradientUnits="userSpaceOnUse">
            <stop stop-color="#002FA7"/>
            <stop offset="1" stop-color="white"/>
        </linearGradient>
        <clipPath id="clip0_28_17820">
            <rect width="180" height="55.102" fill="white" transform="translate(0.333252 0.665527)"/>
        </clipPath>
    </defs>
</svg>
