<svg width="181" height="64" viewBox="0 0 181 64" fill="none" xmlns="http://www.w3.org/2000/svg">
    <g clip-path="url(#clip0_28_17842)">
        <path d="M32.1416 40.8045L23.5636 37.0723C23.5636 37.0723 23.5636 20.4995 23.5636 20.4266C23.5636 19.7128 23.423 19.0059 23.1498 18.3464C22.8766 17.6869 22.4762 17.0876 21.9714 16.5829C21.4667 16.0781 20.8674 15.6777 20.2079 15.4045C19.5484 15.1314 18.8415 14.9907 18.1277 14.9907C17.4139 14.9907 16.707 15.1314 16.0475 15.4045C15.388 15.6777 14.7887 16.0781 14.284 16.5829C13.7792 17.0876 13.3788 17.6869 13.1056 18.3464C12.8324 19.0059 12.6918 19.7128 12.6918 20.4266V32.359L4.41209 28.7461C4.41209 28.7461 4.37231 20.4598 4.37231 20.1946C4.37231 16.5113 5.8355 12.9788 8.44 10.3743C11.0445 7.76983 14.577 6.30664 18.2603 6.30664C21.9436 6.30664 25.476 7.76983 28.0805 10.3743C30.685 12.9788 32.1483 16.5113 32.1483 20.1946C32.1615 20.4001 32.1416 40.8045 32.1416 40.8045Z" fill="white"/>
        <path d="M28.2304 45.3716C27.9657 45.3272 27.709 45.2446 27.4681 45.1263L4.59767 33.9298C3.74914 33.5121 3.50386 32.8028 4.04744 32.3388C4.42301 32.1051 4.85337 31.9741 5.29546 31.959C5.73754 31.9439 6.17583 32.0451 6.56649 32.2526L29.4369 43.4491C30.2854 43.8601 30.5307 44.5761 29.9871 45.0401C29.7322 45.2119 29.445 45.3299 29.1429 45.3869C28.8409 45.4439 28.5304 45.4387 28.2304 45.3716Z" fill="#EDEDED"/>
        <path d="M19.533 46.7374C19.2682 46.6939 19.0112 46.6113 18.7707 46.4921L1.68751 38.1329C0.838988 37.7152 0.5937 37.0059 1.13729 36.5419C1.51309 36.3088 1.94339 36.1782 2.38534 36.1631C2.82729 36.148 3.26548 36.2488 3.65634 36.4557L20.7395 44.815C21.5814 45.2326 21.8267 45.9419 21.2831 46.406C21.0294 46.5776 20.7433 46.6955 20.4423 46.7525C20.1414 46.8095 19.8319 46.8044 19.533 46.7374Z" fill="white"/>
        <path d="M16.3445 50.8076C16.0809 50.7624 15.8245 50.6821 15.5821 50.5689L4.58449 45.1861C3.73596 44.7685 3.49067 44.0592 4.03426 43.5951C4.40983 43.3615 4.84019 43.2305 5.28227 43.2153C5.72436 43.2002 6.16265 43.3015 6.55331 43.509L17.551 48.8918C18.3929 49.3028 18.6382 50.0121 18.0946 50.4762C17.8423 50.6507 17.5562 50.7703 17.2547 50.8274C16.9533 50.8845 16.6432 50.8778 16.3445 50.8076Z" fill="#D6D6D6"/>
        <path d="M5.98316 51.3775C5.72094 51.3353 5.46632 51.2549 5.22743 51.1389L1.50188 49.3159C0.659982 48.9049 0.414734 48.1889 0.951691 47.7249C1.32797 47.4931 1.7581 47.3633 2.19979 47.3482C2.64148 47.3331 3.0795 47.4332 3.47074 47.6387L7.18966 49.4617C8.03818 49.8727 8.28347 50.5887 7.73988 51.0461C7.48655 51.2212 7.19928 51.3411 6.89668 51.3982C6.59408 51.4553 6.28287 51.4483 5.98316 51.3775Z" fill="white"/>
        <mask id="mask0_28_17842" style="mask-type:alpha" maskUnits="userSpaceOnUse" x="65" y="16" width="26" height="26">
            <path d="M75.7477 16.8135H80.1694L90.7229 41.076H84.6904L82.6354 35.9318H73.1756L71.1538 41.076H65.2605L75.7477 16.8135ZM77.8028 23.8735L74.8595 31.4108H80.7859L77.8028 23.8735Z" fill="white"/>
        </mask>
        <g mask="url(#mask0_28_17842)">
            <path d="M90.199 2.1639L48.1945 44.1685L61.3346 57.3086L103.339 15.304L90.199 2.1639Z" fill="white"/>
            <path d="M103.269 15.2367L61.2645 57.2412L64.6067 60.5834L106.611 18.5788L103.269 15.2367Z" fill="#D6D6D6"/>
            <path d="M106.542 18.5116L64.5371 60.5161L67.8793 63.8583L109.884 21.8537L106.542 18.5116Z" fill="#EDEDED"/>
        </g>
        <path d="M92.8641 16.7471H100.156L110.478 33.6513H110.544V16.7471H115.907V41.0759H108.913L98.3066 23.754H98.2403V41.0759H92.8774L92.8641 16.7471Z" fill="white"/>
        <path d="M135.463 38.2257C134.646 39.2688 133.585 40.0951 132.374 40.6321C131.161 41.1895 129.843 41.4789 128.509 41.4806C127.289 41.4875 126.078 41.2811 124.929 40.8708C123.851 40.4852 122.86 39.8905 122.012 39.1207C121.183 38.3553 120.52 37.428 120.063 36.3961C119.594 35.2669 119.352 34.056 119.352 32.833C119.352 31.61 119.594 30.3991 120.063 29.2699C120.524 28.2441 121.187 27.3219 122.012 26.5585C122.86 25.7908 123.852 25.1983 124.929 24.8151C126.078 24.4048 127.289 24.1984 128.509 24.2052C129.608 24.1917 130.699 24.3991 131.717 24.8151C132.651 25.2051 133.485 25.8011 134.157 26.5585C134.844 27.3602 135.369 28.2878 135.701 29.2897C136.074 30.439 136.258 31.6413 136.245 32.8495V34.4472H124.439C124.6 35.3503 125.068 36.17 125.764 36.7674C126.465 37.3538 127.357 37.6628 128.27 37.6358C129.017 37.6612 129.755 37.4651 130.392 37.0723C130.98 36.6908 131.493 36.203 131.903 35.6338L135.463 38.2257ZM131.154 30.9337C131.172 30.5282 131.106 30.1232 130.96 29.7444C130.814 29.3656 130.591 29.0212 130.305 28.7329C130.013 28.4272 129.659 28.187 129.267 28.0282C128.875 27.8694 128.454 27.7955 128.032 27.8114C127.521 27.8027 127.014 27.895 126.54 28.0832C126.14 28.2431 125.768 28.467 125.44 28.7461C125.138 29.0231 124.896 29.3593 124.73 29.7339C124.561 30.1013 124.463 30.4969 124.439 30.9006L131.154 30.9337Z" fill="white"/>
        <path d="M137.359 24.5698H142.788L146.142 34.9178H146.215L149.026 24.5698H154.588L157.644 34.9178H157.71L160.793 24.5698H165.95L160.083 41.0564H155.065L151.638 30.0985H151.578L148.522 41.0564H143.404L137.359 24.5698Z" fill="white"/>
        <path d="M176.901 29.4421C176.554 28.9938 176.106 28.634 175.593 28.3921C175.081 28.1501 174.518 28.0329 173.951 28.05C173.515 28.0502 173.086 28.1548 172.698 28.355C172.503 28.4497 172.341 28.6007 172.232 28.7886C172.123 28.9764 172.073 29.1925 172.089 29.409C172.087 29.6044 172.146 29.7955 172.257 29.9559C172.369 30.1163 172.528 30.2379 172.712 30.3039C173.226 30.5268 173.761 30.6978 174.309 30.8144L176.378 31.2917C177.103 31.4532 177.8 31.7213 178.446 32.0872C179.086 32.4467 179.633 32.9506 180.044 33.5588C180.493 34.3097 180.71 35.1772 180.667 36.0514C180.717 36.9818 180.486 37.9057 180.004 38.703C179.546 39.3856 178.938 39.9546 178.227 40.3669C177.467 40.7959 176.64 41.0939 175.781 41.2486C174.906 41.412 174.019 41.4963 173.129 41.5005C171.948 41.4951 170.773 41.3301 169.636 41.0099C168.502 40.7053 167.472 40.1007 166.653 39.2598L169.742 35.8392C170.173 36.3833 170.709 36.8344 171.32 37.1651C171.935 37.4778 172.618 37.6349 173.308 37.6225C173.85 37.6306 174.388 37.543 174.899 37.3639C175.107 37.3141 175.291 37.1949 175.421 37.0261C175.551 36.8573 175.62 36.649 175.615 36.4359C175.616 36.2264 175.553 36.0216 175.434 35.8488C175.316 35.676 175.148 35.5432 174.952 35.468C174.446 35.2228 173.912 35.0403 173.361 34.9244L171.293 34.4471C170.573 34.2851 169.878 34.0287 169.225 33.6848C168.578 33.3496 168.028 32.8544 167.627 32.2463C167.163 31.5001 166.932 30.6321 166.964 29.7537C166.94 28.8785 167.146 28.0123 167.561 27.2413C167.947 26.5572 168.479 25.9665 169.119 25.5111C169.794 25.0487 170.546 24.7098 171.339 24.5101C172.172 24.2988 173.027 24.1919 173.885 24.1919C175.007 24.1932 176.123 24.354 177.2 24.6692C178.276 24.9647 179.25 25.5493 180.017 26.3596L176.901 29.4421Z" fill="white"/>
        <path d="M51.4986 27.2345V21.434V16.8467H46.2616V41.1291H51.4986V37.9339V31.6229V27.2345Z" fill="white"/>
        <mask id="mask1_28_17842" style="mask-type:alpha" maskUnits="userSpaceOnUse" x="52" y="16" width="17" height="16">
            <path d="M60.6535 16.8466H60.3353H59.8116H54.6476L53.9846 21.4273H60.5541C61.2975 21.4629 61.9988 21.7833 62.5124 22.3221C63.0259 22.8608 63.3124 23.5766 63.3124 24.3209C63.3124 25.0652 63.0259 25.781 62.5124 26.3198C61.9988 26.8585 61.2975 27.1789 60.5541 27.2145H53.925H53.1295L52.4666 31.603H60.2624H60.68C61.6706 31.6326 62.6571 31.4631 63.581 31.1045C64.5049 30.7459 65.3474 30.2054 66.0586 29.5152C66.7697 28.825 67.3351 27.9991 67.7212 27.0863C68.1073 26.1736 68.3062 25.1926 68.3062 24.2016C68.3062 23.2105 68.1073 22.2296 67.7212 21.3168C67.3351 20.4041 66.7697 19.5781 66.0586 18.8879C65.3474 18.1977 64.5049 17.6573 63.581 17.2987C62.6571 16.9401 61.6706 16.7705 60.68 16.8002L60.6535 16.8466Z" fill="white"/>
        </mask>
        <g mask="url(#mask1_28_17842)">
            <path d="M77.5516 0.571222L39.7751 38.3477L42.7798 41.3523L80.5563 3.57591L77.5516 0.571222Z" fill="white"/>
            <path d="M74.087 -3.55817L36.3105 34.2183L40.1313 38.039L77.9077 0.262587L74.087 -3.55817Z" fill="white"/>
            <path d="M80.4943 3.51458L42.7179 41.291L45.7226 44.2957L83.499 6.51927L80.4943 3.51458Z" fill="#D6D6D6"/>
            <path d="M83.4371 6.46478L45.6606 44.2412L48.6653 47.2459L86.4418 9.46947L83.4371 6.46478Z" fill="#EDEDED"/>
        </g>
    </g>
    <defs>
        <clipPath id="clip0_28_17842">
            <rect width="180" height="63.288" fill="white" transform="translate(0.666626 0.572266)"/>
        </clipPath>
    </defs>
</svg>
