<svg width="181" height="45" viewBox="0 0 181 45" fill="none" xmlns="http://www.w3.org/2000/svg">
    <g clip-path="url(#clip0_28_17870)">
        <path d="M24.7836 31.9513C23.7981 32.9903 22.8973 34.0248 21.9029 34.9613C20.8237 35.978 19.6866 36.9412 18.5227 37.8598C16.8728 39.1664 15.0757 40.259 13.1849 41.182C12.953 41.2935 12.6008 41.3649 12.3912 41.2668C11.5796 40.8877 10.875 40.3749 10.6476 39.4251C10.5539 39.0282 10.6654 38.7339 10.9999 38.4752C11.8115 37.842 12.632 37.2177 13.3901 36.5176C14.2418 35.7328 15.0489 34.8989 15.8293 34.0471C17.7646 31.929 19.3299 29.5477 20.6899 27.0237C20.7167 26.9702 20.7345 26.9078 20.7836 26.7918C20.6275 26.7918 20.5027 26.7918 20.3733 26.7918C18.661 26.7918 16.9486 26.7918 15.2317 26.7918C14.2998 26.7918 14.0367 26.56 13.894 25.6324C13.7914 24.9769 13.671 24.3258 13.5818 23.6659C13.5506 23.434 13.5684 23.1887 13.613 22.9568C13.6665 22.6848 13.8627 22.5956 14.1437 22.5956C17.5194 22.6046 20.8951 22.6001 24.2708 22.6046C24.4179 22.6046 24.5695 22.6046 24.7435 22.6046C24.7568 22.4529 24.7791 22.3325 24.7791 22.2077C24.7836 20.6469 24.7836 19.0817 24.7836 17.5209C24.7836 16.8387 24.9575 16.6246 25.6398 16.6202C27.3521 16.6023 29.0645 16.6112 30.7769 16.6202C31.2986 16.6246 31.3834 16.7361 31.3878 17.2489C31.3923 18.8231 31.3878 20.3972 31.3878 21.9713C31.3878 22.1675 31.3878 22.3682 31.3878 22.6001C32.2128 22.6001 32.9887 22.6001 33.7691 22.6001C34.9553 22.6001 36.137 22.5823 37.3232 22.6046C37.7513 22.6135 37.9742 22.4396 38.1927 22.0962C38.5272 21.57 38.9196 21.0795 39.3031 20.5845C39.4904 20.3437 39.7267 20.3571 39.9675 20.531C41.2518 21.4763 42.5406 22.4128 43.8248 23.3582C44.1325 23.5856 44.186 23.9022 43.9898 24.2277C43.5617 24.9368 43.1336 25.6458 42.6788 26.337C42.4246 26.7294 42.001 26.7785 41.5729 26.7785C38.875 26.7785 36.1816 26.7785 33.4837 26.7785C33.3455 26.7785 33.2072 26.7785 32.9753 26.7785C33.283 27.0906 33.5238 27.3671 33.7959 27.6079C35.2719 28.9189 36.8371 30.1185 38.5673 31.0772C39.9408 31.8353 41.3678 32.4998 42.7858 33.1731C43.584 33.5522 44.4179 33.8509 45.2295 34.1988C45.8494 34.4663 45.885 34.8454 45.3945 35.3047C43.865 36.7361 42.5316 38.3415 41.3098 40.0405C40.9843 40.4953 40.846 40.5444 40.3956 40.2322C36.9932 37.8866 34.0991 35.0237 31.7356 31.6257C31.6465 31.4964 31.5528 31.3626 31.428 31.1798C31.4146 31.3047 31.3967 31.3805 31.3967 31.4563C31.3923 35.3225 31.3967 39.1932 31.3789 43.0594C31.3789 43.3671 31.254 43.7015 31.098 43.9736C31.0043 44.1386 30.7412 44.2991 30.5539 44.3036C28.8416 44.3303 27.1292 44.3348 25.4168 44.3258C25.0422 44.3258 24.846 44.0137 24.788 43.434C24.7791 43.3225 24.7836 43.2066 24.7836 43.0951C24.7836 39.541 24.7836 35.9914 24.7836 32.4373C24.7836 32.2946 24.7836 32.1341 24.7836 31.9513Z" fill="white"/>
        <path d="M37.8495 7.16184C31.5173 7.16184 25.1984 7.16184 18.8662 7.16184C18.8082 8.06708 18.7324 8.95448 18.6923 9.84188C18.6611 10.5554 18.2865 11.0058 17.5775 10.9879C16.427 10.9567 15.272 10.8675 14.1259 10.7828C13.7157 10.7516 13.301 10.707 12.9041 10.6C12.369 10.4528 12.1817 10.0827 12.3779 9.55203C12.5206 9.16853 12.7257 8.80286 12.9487 8.4595C14.1572 6.60888 14.9465 4.57098 15.6332 2.48402C16.0256 1.3023 16.097 1.26663 17.3411 1.43162C17.3902 1.44054 17.4437 1.43608 17.4927 1.44054C18.4738 1.55203 18.5853 1.64567 18.7636 2.62672C18.8082 2.8809 18.9197 2.94779 19.1694 2.94779C25.2385 2.94333 31.3121 2.94333 37.3812 2.94779C37.7291 2.94779 37.9743 2.83631 38.1572 2.52861C38.4336 2.06485 38.7458 1.62337 39.0446 1.17744C39.3255 0.762728 39.4637 0.727054 39.8695 1.03475C41.2965 2.12282 42.7146 3.22427 44.1326 4.32126C44.369 4.50409 44.6098 4.69138 44.8238 4.89651C45.0513 5.11501 45.02 5.34244 44.7659 5.52527C44.4938 5.72594 44.2352 5.95336 43.9364 6.1139C43.0356 6.5955 42.4827 7.37588 41.9699 8.21869C41.3099 9.29785 40.6142 10.3592 39.9275 11.4249C39.5797 11.9601 39.3746 12.0448 38.728 11.9021C38.2508 11.7995 37.7781 11.688 37.3099 11.5543C36.8907 11.4383 36.8194 11.3135 36.9219 10.8987C37.194 9.79729 37.4704 8.69584 37.7469 7.59439C37.7781 7.46061 37.8138 7.31345 37.8495 7.16184Z" fill="white"/>
        <path d="M5.48375 43.67C5.00661 43.6165 4.48041 43.5853 3.96759 43.4917C3.26302 43.3624 2.8483 42.7782 2.94195 42.0469C3.05789 41.1416 3.2095 40.2364 3.34774 39.3356C3.53503 38.1271 3.73124 36.9186 3.91408 35.7102C3.95867 35.4159 3.98542 35.1171 4.00772 34.8183C4.0434 34.2475 3.81151 33.7659 3.32099 33.5251C2.81709 33.2754 2.25521 33.0926 1.6978 33.0123C0.627564 32.8607 0.582971 32.8785 0.39568 31.9198C0.293116 31.3757 0.328791 30.796 0.377843 30.2341C0.422436 29.7079 0.792559 29.5296 1.32322 29.5831C2.92411 29.7481 4.49379 29.3913 5.27416 27.728C6.75465 24.5708 8.25744 21.4225 9.74239 18.2654C9.88063 17.9666 10.0456 17.7838 10.3935 17.8462C10.6253 17.8908 10.884 17.8863 11.0802 17.9933C11.7089 18.3501 12.3422 18.7113 12.9174 19.1438C13.2965 19.4292 13.2742 19.8796 13.127 20.3211C12.6409 21.8061 12.1638 23.291 11.6867 24.7759C10.9865 26.9566 10.2418 29.1238 9.59969 31.3222C9.0512 33.1996 8.94864 35.1349 9.22957 37.0747C9.44362 38.5731 9.71564 40.0625 9.92968 41.5652C10.0991 42.7514 9.5328 43.3713 8.34663 43.4292C7.41017 43.4828 6.46926 43.5853 5.48375 43.67Z" fill="white"/>
        <path d="M40.7613 15.1174C40.7033 15.3136 40.6454 15.6258 40.525 15.9067C39.8828 17.3872 39.0445 18.7562 38.0055 19.9959C37.6086 20.4686 37.1582 20.5132 36.7524 20.0405C36.1727 19.3671 35.6509 18.6447 35.1426 17.9178C33.7156 15.8799 32.1816 13.9312 30.4781 12.1118C30.3488 11.9736 30.2284 11.8309 30.1169 11.6837C29.8851 11.3805 29.8628 11.0015 30.1169 10.7161C30.4737 10.3103 30.8661 9.93568 31.2541 9.5611C31.4636 9.36043 31.7089 9.32922 31.9809 9.47191C33.6576 10.3504 35.3477 11.2021 37.011 12.0984C38.0144 12.638 38.9776 13.2579 39.9676 13.8197C40.4492 14.0918 40.7524 14.444 40.7613 15.1174Z" fill="white"/>
        <path d="M16.3734 19.9378C16.0791 19.7951 15.7535 19.6881 15.4904 19.5008C15.1872 19.2823 14.933 18.9924 14.6655 18.7249C14.2998 18.3637 14.3043 18.27 14.661 17.8865C15.0445 17.4718 15.4369 17.066 15.8204 16.6513C17.7781 14.5331 19.3433 12.1385 20.6766 9.59219C21.0467 8.88762 21.6131 8.74939 22.2909 9.16856C23.3879 9.84638 24.4982 10.5108 25.5908 11.1975C26.2151 11.59 26.273 11.9913 25.7959 12.5398C23.4592 15.2109 20.7569 17.4584 17.7602 19.3447C16.9843 19.8308 16.8773 19.8531 16.3734 19.9378Z" fill="white"/>
        <path d="M6.50497 20.482C6.38457 20.4017 6.13039 20.3036 5.97432 20.1163C5.1761 19.1799 4.4314 18.1988 3.6198 17.2757C2.86172 16.4196 2.05458 15.6035 1.25191 14.7919C0.730169 14.2657 0.66328 13.6905 1.11813 13.1063C1.40352 12.7406 1.69338 12.375 1.97878 12.0093C2.3266 11.5589 2.78145 11.3939 3.31211 11.5946C5.24745 12.3437 7.18279 13.0974 9.10475 13.8822C9.73351 14.1409 9.93864 14.6269 9.76919 15.2869C9.35001 16.9012 8.64544 18.395 7.77142 19.8086C7.51278 20.2189 7.13374 20.4463 6.50497 20.482Z" fill="white"/>
        <path d="M11.807 4.74513C11.6955 5.11079 11.5707 5.71726 11.3299 6.27467C10.9553 7.1487 10.5004 7.99151 10.0813 8.84769C10.0634 8.88337 10.05 8.91458 10.0278 8.9458C9.39899 9.83766 8.77023 9.85104 8.12809 8.96809C6.89732 7.26464 5.4302 5.78861 3.86499 4.40176C3.71337 4.26798 3.57513 4.12529 3.41906 3.99597C2.95083 3.59909 2.85272 3.26018 3.22285 2.75628C3.60635 2.23454 4.06566 1.75739 4.53388 1.307C4.6632 1.18214 4.97535 1.13309 5.15373 1.19552C7.12474 1.88671 9.0913 2.6002 11.0489 3.33153C11.6108 3.54557 11.807 3.92016 11.807 4.74513Z" fill="white"/>
        <path d="M58.7056 2.47537C60.6097 2.38172 62.3845 4.08518 62.3845 6.13646C62.3845 8.13423 60.6766 9.82877 58.6966 9.81985C56.7078 9.81093 55.0177 8.10747 55.0311 6.11862C55.04 4.09409 56.788 2.38172 58.7056 2.47537Z" fill="#D3D3D3"/>
        <path d="M65.5462 17.1195C65.5462 15.639 65.5462 14.2165 65.5462 12.794C65.5462 12.6558 65.5239 12.4997 65.5774 12.3837C65.6309 12.2723 65.7692 12.1206 65.8762 12.1206C67.3968 12.1028 68.9219 12.1073 70.4648 12.1073C70.4782 12.2945 70.4871 12.4506 70.5005 12.6067C70.5139 12.6067 70.5317 12.6067 70.5451 12.6067C70.5451 11.5811 70.5451 10.551 70.5451 9.49856C69.7157 9.49856 68.8506 9.49856 67.9854 9.49856C67.3166 9.49856 66.6521 9.48073 65.9832 9.4941C65.6844 9.49856 65.5328 9.36032 65.4793 9.09722C65.2831 8.18307 65.0958 7.26445 64.9085 6.34583C64.8595 6.10057 64.9799 5.96233 65.2073 5.91774C65.3188 5.89544 65.4347 5.90436 65.5462 5.90436C67.0847 5.90436 68.6187 5.90436 70.1571 5.90436C70.2954 5.90436 70.4291 5.90436 70.612 5.90436C70.612 5.72599 70.612 5.57883 70.612 5.43167C70.612 3.88429 70.612 2.33245 70.612 0.785072C70.612 0.245496 70.7725 0.0849609 71.3032 0.0849609C72.5518 0.0849609 73.7959 0.0849609 75.0445 0.0849609C75.5796 0.0849609 75.7 0.183066 75.7 0.709264C75.709 2.43056 75.7045 4.15185 75.7045 5.86868C76.3021 6.00246 76.748 5.89098 77.0512 5.35141C77.2073 5.07047 77.4526 4.83858 77.6532 4.57994C77.8717 4.29009 78.1081 4.3213 78.3667 4.52197C79.1203 5.10614 79.8784 5.68585 80.6365 6.27002C80.9353 6.50191 81.234 6.72933 81.5328 6.96122C81.894 7.24215 81.9832 7.5989 81.7513 7.99132C81.4882 8.44171 81.2118 8.8921 80.8996 9.30681C80.8015 9.43613 80.5607 9.51194 80.3823 9.5164C78.8706 9.53424 77.3589 9.52532 75.816 9.52532C75.816 10.6 75.816 11.6925 75.816 12.8876C76.253 12.3347 76.632 11.8442 77.0334 11.3715C77.1003 11.2912 77.3099 11.2288 77.3812 11.2734C78.8617 12.2009 80.3333 13.1418 81.8093 14.0827C81.8405 14.1006 81.8584 14.1362 81.9119 14.1898C81.6711 14.5599 81.4481 14.9434 81.185 15.3001C80.913 15.6658 80.7747 16.0582 80.7747 16.5131C80.7837 20.1519 80.7837 23.7951 80.7837 27.4339C80.7837 27.7327 80.7837 28.0315 80.7837 28.4016C80.5607 28.4016 80.3422 28.4016 80.1192 28.4016C78.8349 28.406 77.5507 28.406 76.2664 28.4105C76.0167 28.4105 75.8026 28.3837 75.8071 28.0582C75.8071 29.1552 75.8071 30.2477 75.8071 31.3849C76.2262 31.3849 76.6276 31.4027 77.0245 31.3759C77.1538 31.367 77.292 31.2555 77.3901 31.153C77.8271 30.6847 78.2463 30.2031 78.7056 29.6903C79.8249 30.5554 80.9264 31.4116 82.0679 32.299C82.1616 31.6301 82.2775 31.0103 82.3266 30.386C82.4827 28.3347 82.6298 26.2834 82.7502 24.2277C82.7993 23.3759 82.7859 22.5153 82.7859 21.6591C82.7903 15.4116 82.7859 9.15965 82.7859 2.91216C82.7859 2.77392 82.7859 2.63569 82.7859 2.46623C84.4849 2.46623 86.1616 2.46623 87.8918 2.46623C87.8918 2.86311 87.8918 3.26891 87.8918 3.70146C88.8729 3.70146 89.8227 3.71484 90.7725 3.68808C90.9286 3.68362 91.1248 3.54538 91.2318 3.41161C91.6064 2.95676 91.9364 2.46623 92.3021 2.00246C92.641 1.57437 92.8818 1.52086 93.3366 1.80625C94.9063 2.79176 96.4715 3.78619 98.0367 4.78061C98.3177 4.95899 98.389 5.18195 98.175 5.47181C97.9163 5.82409 97.6889 6.20313 97.4169 6.55096C97.0378 7.03702 96.8773 7.5766 96.8818 8.19199C96.8996 10.1184 96.9085 12.0404 96.913 13.9668C96.9219 17.1552 96.9308 20.3391 96.9264 23.5275C96.9219 28.6156 96.9041 33.7037 96.8907 38.7873C96.8907 39.367 96.8996 39.9423 96.8862 40.522C96.8639 41.5119 96.3511 42.221 95.5663 42.7739C94.6254 43.4339 93.5596 43.7327 92.4403 43.8843C91.7848 43.9735 91.1248 44.0448 90.4648 44.1206C90.0635 44.1652 89.9252 44.0716 89.8896 43.6792C89.7603 42.1987 88.9264 41.3514 87.5172 41.0036C86.826 40.8341 86.6655 40.6112 86.6343 39.8977C86.5808 38.7828 86.67 38.6981 87.7937 38.6981C88.583 38.6981 89.3723 38.6714 90.1616 38.6446C90.777 38.6223 91.1694 38.2121 91.1694 37.61C91.1783 35.0147 91.1872 32.4194 91.1917 29.8241C91.1917 29.7394 91.1783 29.6546 91.1694 29.561C90.7948 29.5119 90.4336 29.4807 90.0769 29.4183C89.4213 29.3024 88.9264 28.8876 88.3912 28.5309C88.204 28.406 87.923 28.299 87.7268 28.3481C87.5886 28.3837 87.4593 28.687 87.4325 28.8876C87.0802 31.7371 86.3266 34.4752 85.1359 37.0883C84.0523 39.4651 82.6298 41.619 80.9219 43.59C80.5027 44.0716 80.195 44.1296 79.6287 43.8709C79.1961 43.6747 78.777 43.4562 78.3355 43.2957C78.0144 43.1797 77.952 42.9568 78.0456 42.7026C78.1794 42.3325 78.3623 41.9713 78.554 41.6234C79.7001 39.5409 80.632 37.3692 81.2608 35.0549C79.4325 35.0549 77.622 35.0549 75.7669 35.0549C75.7536 35.2466 75.7268 35.4294 75.7268 35.6123C75.7268 38.1318 75.7313 40.6513 75.7357 43.1708C75.7357 43.3224 75.7402 43.474 75.7313 43.6257C75.7001 44.2232 75.5663 44.3525 74.9776 44.3525C73.8182 44.3525 72.6588 44.3525 71.4994 44.3391C70.8751 44.3347 70.6477 44.0983 70.612 43.4651C70.6075 43.3403 70.6075 43.2154 70.6075 43.0861C70.6075 40.5666 70.6075 38.0471 70.6075 35.5275C70.6075 35.3804 70.6075 35.2288 70.6075 35.0504C68.6633 35.0504 66.7547 35.0504 64.8283 35.0504C64.5652 33.8286 64.3065 32.6379 64.0434 31.4027C66.2463 31.4027 68.3957 31.4027 70.5763 31.4027C70.5763 30.2344 70.5763 29.0972 70.5763 27.8932C70.5273 27.9824 70.496 28.0136 70.4916 28.0493C70.4425 28.5889 70.4425 28.5933 69.9163 28.5933C68.6053 28.5933 67.2942 28.5844 65.9877 28.5978C65.6577 28.6022 65.5328 28.5175 65.5373 28.1519C65.5551 25.5298 65.5462 22.9122 65.4972 20.2767C65.3366 20.8921 65.1805 21.503 65.02 22.1184C64.36 24.6825 63.6733 27.2422 63.0401 29.8107C62.612 31.5588 62.5629 33.338 62.6744 35.1307C62.7993 37.1418 63.2051 39.1039 63.5752 41.0749C63.7491 41.9935 63.6733 42.7026 62.3667 43.0459C61.0111 43.4027 59.651 43.6435 58.2374 43.59C57.1359 43.5498 56.7926 43.1842 56.9353 42.0872C57.1939 40.0894 57.4347 38.0872 57.6889 36.0894C57.7825 35.3581 57.9386 34.6268 57.9698 33.8954C58.0055 33.1106 57.6176 32.4952 56.9397 32.085C56.3422 31.7193 55.6778 31.5543 54.9866 31.4919C54.3667 31.4384 54.0992 31.1753 54.0501 30.5376C54.0144 30.0872 53.9386 29.6413 53.9074 29.1909C53.8717 28.6825 53.9654 28.5889 54.4693 28.5889C55.1961 28.5889 55.9275 28.6424 56.6454 28.571C57.2965 28.5086 57.9431 28.3391 58.5718 28.1474C58.7904 28.0805 59.0178 27.8442 59.1203 27.6257C60.7524 24.2723 62.1125 20.8118 63.1248 17.2221C63.2943 16.6245 63.3522 16.5799 63.9631 16.7226C64.4804 16.8386 64.9843 16.9768 65.5462 17.1195ZM91.1917 7.46512C90.0947 7.46512 89.0423 7.46512 87.9676 7.46512C87.9676 9.7572 87.9676 12.027 87.9676 14.3235C88.7212 14.2299 89.399 14.4038 90.0144 14.8141C90.1616 14.9122 90.3043 15.0147 90.4693 15.0772C91.0267 15.2867 91.2497 15.1351 91.2497 14.5643C91.2452 12.3882 91.2407 10.2121 91.2318 8.03591C91.2318 7.84862 91.2095 7.66133 91.1917 7.46512ZM87.8829 24.1831C88.9799 24.1741 89.0735 24.2054 90.0144 24.8341C90.224 24.9724 90.4291 25.1284 90.6566 25.2221C91.0713 25.3871 91.2363 25.2533 91.2363 24.8118C91.2363 22.9122 91.2363 21.0125 91.2318 19.1128C91.2318 19.0415 91.2184 18.9701 91.2095 18.8364C90.8439 18.8364 90.4916 18.872 90.1482 18.8274C89.5507 18.7472 89.0334 18.4662 88.5518 18.105C88.4225 18.0114 88.195 17.9712 88.0434 18.0158C87.9587 18.0381 87.8963 18.2789 87.8918 18.4261C87.8784 19.367 87.8829 20.3124 87.8829 21.2533C87.8829 22.2254 87.8829 23.1931 87.8829 24.1831ZM70.4916 16.0805C70.4916 16.5889 70.496 17.0571 70.4871 17.5209C70.4827 17.7394 70.5629 17.833 70.7903 17.8553C71.2497 17.9044 71.7313 17.9088 72.1549 18.0649C73.02 18.3815 73.8494 18.7962 74.6967 19.1574C75.049 19.309 75.4147 19.4294 75.8204 19.5855C75.8204 18.3503 75.8204 17.2265 75.8204 16.0805C74.0456 16.0805 72.2887 16.0805 70.4916 16.0805ZM75.8204 23.2734C74.9687 23.0236 74.1438 22.8274 73.35 22.5376C72.8015 22.3369 72.311 21.9935 71.7759 21.7483C71.3879 21.5699 70.991 21.3603 70.5228 21.4673C70.5228 22.5108 70.5228 23.5365 70.5228 24.5532C72.3021 24.5532 74.059 24.5532 75.8204 24.5532C75.8204 24.0939 75.8204 23.6658 75.8204 23.2734Z" fill="white"/>
        <path d="M55.049 12.7451C55.6197 12.9146 56.2396 13.0751 56.8416 13.2802C58.1214 13.7083 59.3344 14.2791 60.4849 14.9837C60.6989 15.113 60.9174 15.2334 61.1404 15.3404C61.622 15.5634 61.7468 15.822 61.6443 16.3973C61.3901 17.8466 60.8773 19.1933 60.0122 20.3973C59.3477 21.3159 58.9553 21.3605 58.2284 20.5043C57.2474 19.3449 56.302 18.1543 55.3165 17.0038C54.7992 16.4018 54.2195 15.8577 53.6844 15.2735C53.5283 15.1041 53.3946 14.899 53.3009 14.6849C53.2474 14.5601 53.2385 14.3416 53.3098 14.2479C53.6933 13.7797 54.0991 13.3248 54.5228 12.8967C54.6253 12.7897 54.8349 12.7986 55.049 12.7451Z" fill="white"/>
        <path d="M121.381 5.36914L118.269 9.36022H113.635V20.8385H108.828V9.36022H102.456L105.546 5.36914H121.381Z" fill="white"/>
        <path d="M138.505 16.8519L135.415 20.8429H121.702V5.36914H138.5L135.41 9.36022H126.505V11.0102H137.747L134.657 15.0012H126.505V16.8474H138.505V16.8519Z" fill="white"/>
        <path d="M158.804 16.8518L155.714 20.8429H147.945C145.256 20.8429 143.027 20.0937 141.261 18.5998C139.495 17.106 138.612 15.2286 138.612 12.9677C138.612 10.7069 139.486 8.87855 141.23 7.47387C142.973 6.07365 145.212 5.37354 147.945 5.37354H158.804L155.718 9.36462H147.959C146.643 9.36462 145.56 9.72136 144.703 10.4304C143.847 11.1394 143.419 12.0491 143.419 13.1506C143.419 14.2386 143.847 15.1305 144.703 15.8172C145.56 16.504 146.648 16.8518 147.959 16.8518H158.804Z" fill="white"/>
        <path d="M179.357 20.8429H174.55V15.0503H165.368V20.8429H160.561V5.36914H165.368V11.0548H174.55V5.36914H179.357V20.8429Z" fill="white"/>
        <path d="M119.99 27.3716L117.256 30.8989H109.381V32.3615H119.325L116.592 35.8889H109.381V41.0483H105.131V27.3716H119.99Z" fill="white"/>
        <path d="M134.813 37.521L132.061 41.0483H119.972V27.3716H124.222V37.521H134.813Z" fill="white"/>
        <path d="M154.755 34.0873C154.755 36.0851 153.974 37.7484 152.409 39.0683C150.844 40.3883 148.877 41.0527 146.5 41.0527H142.385C139.994 41.0527 138.019 40.3928 136.454 39.0683C134.893 37.7484 134.108 36.0851 134.108 34.0873C134.108 32.0895 134.884 30.4708 136.431 29.2311C137.979 27.9914 139.963 27.3716 142.38 27.3716H146.496C148.913 27.3716 150.893 27.9914 152.436 29.2311C153.979 30.4708 154.755 32.0895 154.755 34.0873ZM146.505 30.8989H142.393C141.221 30.8989 140.253 31.211 139.495 31.8398C138.737 32.4686 138.358 33.2712 138.358 34.2478C138.358 35.2244 138.737 36.0137 139.495 36.6157C140.253 37.2177 141.221 37.521 142.393 37.521H146.505C147.682 37.521 148.645 37.2222 149.403 36.6157C150.162 36.0137 150.541 35.2244 150.541 34.2478C150.541 33.2712 150.157 32.4686 149.395 31.8398C148.632 31.2155 147.669 30.8989 146.505 30.8989Z" fill="white"/>
        <path d="M180.333 27.3714L176.784 39.5141C176.645 39.9957 176.36 40.4015 175.932 40.727C175.464 41.0793 174.937 41.2577 174.358 41.2577C173.457 41.2577 172.681 40.727 172.025 39.6657L167.852 32.8519L163.66 39.6657C163.013 40.727 162.242 41.2577 161.345 41.2577C160.766 41.2577 160.248 41.0882 159.798 40.7449C159.348 40.4015 159.053 39.9913 158.915 39.5096L155.365 27.3669H160.012L161.814 34.5955L165.644 28.4283C166.148 27.6211 166.848 27.2153 167.731 27.2153C168.199 27.2153 168.645 27.3313 169.069 27.5587C169.493 27.7861 169.818 28.076 170.046 28.4327L173.876 34.5999L175.66 27.3714H180.333Z" fill="white"/>
    </g>
    <defs>
        <clipPath id="clip0_28_17870">
            <rect width="180" height="44.2631" fill="white" transform="translate(0.333252 0.0849609)"/>
        </clipPath>
    </defs>
</svg>
